%TF.GenerationSoftware,KiCad,Pcbnew,9.0.8*%
%TF.CreationDate,2026-04-21T09:59:08+09:00*%
%TF.ProjectId,Teseo-LIV3FL(GNSS module),54657365-6f2d-44c4-9956-33464c28474e,rev?*%
%TF.SameCoordinates,Original*%
%TF.FileFunction,Copper,L2,Bot*%
%TF.FilePolarity,Positive*%
%FSLAX46Y46*%
G04 Gerber Fmt 4.6, Leading zero omitted, Abs format (unit mm)*
G04 Created by KiCad (PCBNEW 9.0.8) date 2026-04-21 09:59:08*
%MOMM*%
%LPD*%
G01*
G04 APERTURE LIST*
%TA.AperFunction,ComponentPad*%
%ADD10R,1.700000X1.700000*%
%TD*%
%TA.AperFunction,ComponentPad*%
%ADD11C,1.700000*%
%TD*%
%TA.AperFunction,ViaPad*%
%ADD12C,0.600000*%
%TD*%
%TA.AperFunction,Conductor*%
%ADD13C,0.200000*%
%TD*%
G04 APERTURE END LIST*
D10*
%TO.P,J2,1,Pin_1*%
%TO.N,Net-(IC1-RX)*%
X82540000Y-52500000D03*
D11*
%TO.P,J2,2,Pin_2*%
%TO.N,Net-(IC1-1PPS)*%
X80000000Y-52500000D03*
%TO.P,J2,3,Pin_3*%
%TO.N,GND*%
X77460000Y-52500000D03*
%TO.P,J2,4,Pin_4*%
%TO.N,+3V3*%
X74920000Y-52500000D03*
%TO.P,J2,5,Pin_5*%
%TO.N,Net-(IC1-TX)*%
X72380000Y-52500000D03*
%TD*%
D12*
%TO.N,GND*%
X78200000Y-54600000D03*
X81194265Y-54694265D03*
%TO.N,+3V3*%
X77500000Y-55500000D03*
X82200000Y-55500000D03*
%TO.N,Net-(IC1-TX)*%
X80400000Y-56600000D03*
%TO.N,Net-(IC1-VCC_RF)*%
X81500000Y-72000000D03*
X77500000Y-70500000D03*
%TO.N,GND1*%
X75000000Y-66000000D03*
X73000000Y-66000000D03*
%TD*%
D13*
%TO.N,GND*%
X78200000Y-54600000D02*
X81100000Y-54600000D01*
X81100000Y-54600000D02*
X81194265Y-54694265D01*
%TO.N,+3V3*%
X82200000Y-55500000D02*
X77500000Y-55500000D01*
%TO.N,Net-(IC1-TX)*%
X80400000Y-56600000D02*
X76480000Y-56600000D01*
X76480000Y-56600000D02*
X72380000Y-52500000D01*
%TO.N,Net-(IC1-VCC_RF)*%
X77500000Y-70500000D02*
X79000000Y-72000000D01*
X79000000Y-72000000D02*
X81500000Y-72000000D01*
%TO.N,GND1*%
X73000000Y-66000000D02*
X75000000Y-66000000D01*
%TD*%
%TA.AperFunction,Conductor*%
%TO.N,GND1*%
G36*
X79506061Y-65500597D02*
G01*
X79682941Y-65518018D01*
X79706769Y-65522757D01*
X79871001Y-65572576D01*
X79893453Y-65581877D01*
X80044798Y-65662772D01*
X80065010Y-65676277D01*
X80197666Y-65785145D01*
X80214854Y-65802333D01*
X80323722Y-65934989D01*
X80337227Y-65955201D01*
X80418121Y-66106543D01*
X80427424Y-66129001D01*
X80477240Y-66293224D01*
X80481982Y-66317065D01*
X80499403Y-66493938D01*
X80500000Y-66506092D01*
X80500000Y-70000000D01*
X84993907Y-70000000D01*
X85006061Y-70000597D01*
X85182941Y-70018018D01*
X85206769Y-70022757D01*
X85371001Y-70072576D01*
X85393453Y-70081877D01*
X85466300Y-70120814D01*
X85544798Y-70162772D01*
X85565010Y-70176277D01*
X85697666Y-70285145D01*
X85714854Y-70302333D01*
X85823722Y-70434989D01*
X85837227Y-70455201D01*
X85918121Y-70606543D01*
X85927424Y-70629001D01*
X85977240Y-70793224D01*
X85981982Y-70817065D01*
X85999403Y-70993938D01*
X86000000Y-71006092D01*
X86000000Y-76011758D01*
X85999402Y-76023922D01*
X85981953Y-76200936D01*
X85977203Y-76224794D01*
X85927313Y-76389125D01*
X85917997Y-76411598D01*
X85836978Y-76563033D01*
X85823453Y-76583254D01*
X85714430Y-76715953D01*
X85697217Y-76733145D01*
X85564383Y-76842005D01*
X85544145Y-76855505D01*
X85392611Y-76936336D01*
X85370128Y-76945624D01*
X85205736Y-76995313D01*
X85181871Y-77000034D01*
X85004836Y-77017264D01*
X84992671Y-77017847D01*
X71504854Y-77001236D01*
X71492711Y-77000625D01*
X71315998Y-76983015D01*
X71292180Y-76978251D01*
X71128137Y-76928310D01*
X71105705Y-76918993D01*
X70954546Y-76838031D01*
X70934361Y-76824522D01*
X70801886Y-76715650D01*
X70784721Y-76698464D01*
X70676010Y-76565854D01*
X70662525Y-76545652D01*
X70581751Y-76394394D01*
X70572463Y-76371951D01*
X70522722Y-76207841D01*
X70517990Y-76184032D01*
X70500596Y-76007285D01*
X70500000Y-75995141D01*
X70500000Y-75600000D01*
X73075000Y-75600000D01*
X74975000Y-75600000D01*
X74975000Y-73510000D01*
X73075000Y-73510000D01*
X73075000Y-75600000D01*
X70500000Y-75600000D01*
X70500000Y-70421153D01*
X76699500Y-70421153D01*
X76699500Y-70578846D01*
X76730261Y-70733489D01*
X76730264Y-70733501D01*
X76790602Y-70879172D01*
X76790609Y-70879185D01*
X76878210Y-71010288D01*
X76878213Y-71010292D01*
X76989707Y-71121786D01*
X76989711Y-71121789D01*
X77120814Y-71209390D01*
X77120827Y-71209397D01*
X77266498Y-71269735D01*
X77266503Y-71269737D01*
X77331147Y-71282595D01*
X77421849Y-71300638D01*
X77483760Y-71333023D01*
X77485339Y-71334574D01*
X78515139Y-72364374D01*
X78515149Y-72364385D01*
X78519479Y-72368715D01*
X78519480Y-72368716D01*
X78631284Y-72480520D01*
X78631286Y-72480521D01*
X78631290Y-72480524D01*
X78768209Y-72559573D01*
X78768216Y-72559577D01*
X78880019Y-72589534D01*
X78920942Y-72600500D01*
X78920943Y-72600500D01*
X80920234Y-72600500D01*
X80987273Y-72620185D01*
X80989125Y-72621398D01*
X81120814Y-72709390D01*
X81120827Y-72709397D01*
X81266498Y-72769735D01*
X81266503Y-72769737D01*
X81421153Y-72800499D01*
X81421156Y-72800500D01*
X81421158Y-72800500D01*
X81578844Y-72800500D01*
X81578845Y-72800499D01*
X81733497Y-72769737D01*
X81879179Y-72709394D01*
X82010289Y-72621789D01*
X82121789Y-72510289D01*
X82209394Y-72379179D01*
X82269737Y-72233497D01*
X82300500Y-72078842D01*
X82300500Y-71921158D01*
X82300500Y-71921155D01*
X82300499Y-71921153D01*
X82269738Y-71766510D01*
X82269737Y-71766503D01*
X82269735Y-71766498D01*
X82209397Y-71620827D01*
X82209390Y-71620814D01*
X82121789Y-71489711D01*
X82121786Y-71489707D01*
X82010292Y-71378213D01*
X82010288Y-71378210D01*
X81879185Y-71290609D01*
X81879172Y-71290602D01*
X81733501Y-71230264D01*
X81733489Y-71230261D01*
X81578845Y-71199500D01*
X81578842Y-71199500D01*
X81421158Y-71199500D01*
X81421155Y-71199500D01*
X81266510Y-71230261D01*
X81266498Y-71230264D01*
X81120827Y-71290602D01*
X81120814Y-71290609D01*
X80989125Y-71378602D01*
X80922447Y-71399480D01*
X80920234Y-71399500D01*
X79300097Y-71399500D01*
X79233058Y-71379815D01*
X79212416Y-71363181D01*
X78334574Y-70485339D01*
X78301089Y-70424016D01*
X78300638Y-70421849D01*
X78269738Y-70266510D01*
X78269737Y-70266503D01*
X78269735Y-70266498D01*
X78209397Y-70120827D01*
X78209390Y-70120814D01*
X78121789Y-69989711D01*
X78121786Y-69989707D01*
X78010292Y-69878213D01*
X78010288Y-69878210D01*
X77879185Y-69790609D01*
X77879172Y-69790602D01*
X77733501Y-69730264D01*
X77733489Y-69730261D01*
X77578845Y-69699500D01*
X77578842Y-69699500D01*
X77421158Y-69699500D01*
X77421155Y-69699500D01*
X77266510Y-69730261D01*
X77266498Y-69730264D01*
X77120827Y-69790602D01*
X77120814Y-69790609D01*
X76989711Y-69878210D01*
X76989707Y-69878213D01*
X76878213Y-69989707D01*
X76878210Y-69989711D01*
X76790609Y-70120814D01*
X76790602Y-70120827D01*
X76730264Y-70266498D01*
X76730261Y-70266510D01*
X76699500Y-70421153D01*
X70500000Y-70421153D01*
X70500000Y-66506092D01*
X70500597Y-66493938D01*
X70518018Y-66317056D01*
X70522757Y-66293232D01*
X70572577Y-66128994D01*
X70581875Y-66106549D01*
X70662775Y-65955195D01*
X70676272Y-65934995D01*
X70785149Y-65802328D01*
X70802328Y-65785149D01*
X70934995Y-65676272D01*
X70955195Y-65662775D01*
X71106549Y-65581875D01*
X71128994Y-65572577D01*
X71293232Y-65522757D01*
X71317056Y-65518018D01*
X71493939Y-65500597D01*
X71506093Y-65500000D01*
X79493907Y-65500000D01*
X79506061Y-65500597D01*
G37*
%TD.AperFunction*%
%TD*%
%TA.AperFunction,Conductor*%
%TO.N,GND*%
G36*
X85506061Y-50500597D02*
G01*
X85682941Y-50518018D01*
X85706769Y-50522757D01*
X85871001Y-50572576D01*
X85893453Y-50581877D01*
X86044798Y-50662772D01*
X86065010Y-50676277D01*
X86197666Y-50785145D01*
X86214854Y-50802333D01*
X86323722Y-50934989D01*
X86337227Y-50955201D01*
X86418121Y-51106543D01*
X86427424Y-51129001D01*
X86477240Y-51293224D01*
X86481982Y-51317065D01*
X86499403Y-51493938D01*
X86500000Y-51506092D01*
X86500000Y-68493907D01*
X86499403Y-68506061D01*
X86481982Y-68682934D01*
X86477240Y-68706775D01*
X86427424Y-68870998D01*
X86418121Y-68893456D01*
X86337227Y-69044798D01*
X86323722Y-69065010D01*
X86214854Y-69197666D01*
X86197666Y-69214854D01*
X86065010Y-69323722D01*
X86044798Y-69337227D01*
X85893456Y-69418121D01*
X85870998Y-69427424D01*
X85706775Y-69477240D01*
X85682934Y-69481982D01*
X85506061Y-69499403D01*
X85493907Y-69500000D01*
X82006093Y-69500000D01*
X81993939Y-69499403D01*
X81817065Y-69481982D01*
X81793224Y-69477240D01*
X81629001Y-69427424D01*
X81606543Y-69418121D01*
X81455201Y-69337227D01*
X81434989Y-69323722D01*
X81302333Y-69214854D01*
X81285145Y-69197666D01*
X81176277Y-69065010D01*
X81162772Y-69044798D01*
X81081878Y-68893456D01*
X81072575Y-68870998D01*
X81022757Y-68706769D01*
X81018018Y-68682941D01*
X81000597Y-68506061D01*
X81000000Y-68493907D01*
X81000000Y-65000000D01*
X80000000Y-65000000D01*
X71506093Y-65000000D01*
X71493939Y-64999403D01*
X71317065Y-64981982D01*
X71293224Y-64977240D01*
X71129001Y-64927424D01*
X71106543Y-64918121D01*
X70955201Y-64837227D01*
X70934989Y-64823722D01*
X70802333Y-64714854D01*
X70785145Y-64697666D01*
X70676277Y-64565010D01*
X70662772Y-64544798D01*
X70581878Y-64393456D01*
X70572575Y-64370998D01*
X70522757Y-64206769D01*
X70518018Y-64182941D01*
X70500597Y-64006061D01*
X70500000Y-63993907D01*
X70500000Y-52393713D01*
X71029500Y-52393713D01*
X71029500Y-52606286D01*
X71062753Y-52816239D01*
X71128444Y-53018414D01*
X71224951Y-53207820D01*
X71349890Y-53379786D01*
X71500213Y-53530109D01*
X71672179Y-53655048D01*
X71672181Y-53655049D01*
X71672184Y-53655051D01*
X71861588Y-53751557D01*
X72063757Y-53817246D01*
X72273713Y-53850500D01*
X72273714Y-53850500D01*
X72486286Y-53850500D01*
X72486287Y-53850500D01*
X72696243Y-53817246D01*
X72738523Y-53803507D01*
X72808362Y-53801511D01*
X72864521Y-53833756D01*
X76111284Y-57080520D01*
X76111286Y-57080521D01*
X76111290Y-57080524D01*
X76248209Y-57159573D01*
X76248216Y-57159577D01*
X76400943Y-57200501D01*
X76400945Y-57200501D01*
X76566654Y-57200501D01*
X76566670Y-57200500D01*
X79820234Y-57200500D01*
X79887273Y-57220185D01*
X79889125Y-57221398D01*
X80020814Y-57309390D01*
X80020827Y-57309397D01*
X80166498Y-57369735D01*
X80166503Y-57369737D01*
X80321153Y-57400499D01*
X80321156Y-57400500D01*
X80321158Y-57400500D01*
X80478844Y-57400500D01*
X80478845Y-57400499D01*
X80633497Y-57369737D01*
X80779179Y-57309394D01*
X80910289Y-57221789D01*
X81021789Y-57110289D01*
X81109394Y-56979179D01*
X81169737Y-56833497D01*
X81200500Y-56678842D01*
X81200500Y-56521158D01*
X81200500Y-56521155D01*
X81200499Y-56521153D01*
X81169738Y-56366510D01*
X81169737Y-56366503D01*
X81130572Y-56271951D01*
X81123104Y-56202483D01*
X81154379Y-56140004D01*
X81214468Y-56104352D01*
X81245134Y-56100500D01*
X81620234Y-56100500D01*
X81687273Y-56120185D01*
X81689125Y-56121398D01*
X81820814Y-56209390D01*
X81820827Y-56209397D01*
X81966498Y-56269735D01*
X81966503Y-56269737D01*
X82121153Y-56300499D01*
X82121156Y-56300500D01*
X82121158Y-56300500D01*
X82278844Y-56300500D01*
X82278845Y-56300499D01*
X82433497Y-56269737D01*
X82579179Y-56209394D01*
X82710289Y-56121789D01*
X82821789Y-56010289D01*
X82909394Y-55879179D01*
X82969737Y-55733497D01*
X83000500Y-55578842D01*
X83000500Y-55421158D01*
X83000500Y-55421155D01*
X83000499Y-55421153D01*
X82969738Y-55266510D01*
X82969737Y-55266503D01*
X82969735Y-55266498D01*
X82909397Y-55120827D01*
X82909390Y-55120814D01*
X82821789Y-54989711D01*
X82821786Y-54989707D01*
X82710292Y-54878213D01*
X82710288Y-54878210D01*
X82579185Y-54790609D01*
X82579172Y-54790602D01*
X82433501Y-54730264D01*
X82433489Y-54730261D01*
X82278845Y-54699500D01*
X82278842Y-54699500D01*
X82121158Y-54699500D01*
X82121155Y-54699500D01*
X81966510Y-54730261D01*
X81966498Y-54730264D01*
X81820827Y-54790602D01*
X81820814Y-54790609D01*
X81689125Y-54878602D01*
X81622447Y-54899480D01*
X81620234Y-54899500D01*
X78079766Y-54899500D01*
X78012727Y-54879815D01*
X78010875Y-54878602D01*
X77879185Y-54790609D01*
X77879172Y-54790602D01*
X77733501Y-54730264D01*
X77733489Y-54730261D01*
X77578845Y-54699500D01*
X77578842Y-54699500D01*
X77421158Y-54699500D01*
X77421155Y-54699500D01*
X77266510Y-54730261D01*
X77266498Y-54730264D01*
X77120827Y-54790602D01*
X77120814Y-54790609D01*
X76989711Y-54878210D01*
X76989707Y-54878213D01*
X76878213Y-54989707D01*
X76878210Y-54989711D01*
X76790609Y-55120814D01*
X76790602Y-55120827D01*
X76730264Y-55266498D01*
X76730261Y-55266510D01*
X76699500Y-55421153D01*
X76699500Y-55578846D01*
X76716943Y-55666537D01*
X76710716Y-55736128D01*
X76667853Y-55791306D01*
X76601963Y-55814550D01*
X76533966Y-55798482D01*
X76507645Y-55778409D01*
X74791417Y-54062181D01*
X74757932Y-54000858D01*
X74762916Y-53931166D01*
X74804788Y-53875233D01*
X74870252Y-53850816D01*
X74879098Y-53850500D01*
X75026286Y-53850500D01*
X75026287Y-53850500D01*
X75236243Y-53817246D01*
X75438412Y-53751557D01*
X75627816Y-53655051D01*
X75714138Y-53592335D01*
X75799786Y-53530109D01*
X75799788Y-53530106D01*
X75799792Y-53530104D01*
X75950104Y-53379792D01*
X75950106Y-53379788D01*
X75950109Y-53379786D01*
X76035890Y-53261717D01*
X76075051Y-53207816D01*
X76079793Y-53198508D01*
X76127763Y-53147711D01*
X76195583Y-53130911D01*
X76261719Y-53153445D01*
X76300763Y-53198500D01*
X76305373Y-53207547D01*
X76344728Y-53261716D01*
X76977037Y-52629408D01*
X76994075Y-52692993D01*
X77059901Y-52807007D01*
X77152993Y-52900099D01*
X77267007Y-52965925D01*
X77330590Y-52982962D01*
X76698282Y-53615269D01*
X76698282Y-53615270D01*
X76752449Y-53654624D01*
X76941782Y-53751095D01*
X77143870Y-53816757D01*
X77353754Y-53850000D01*
X77566246Y-53850000D01*
X77776127Y-53816757D01*
X77776130Y-53816757D01*
X77978217Y-53751095D01*
X78167554Y-53654622D01*
X78221716Y-53615270D01*
X78221717Y-53615270D01*
X77589408Y-52982962D01*
X77652993Y-52965925D01*
X77767007Y-52900099D01*
X77860099Y-52807007D01*
X77925925Y-52692993D01*
X77942962Y-52629408D01*
X78575270Y-53261717D01*
X78575270Y-53261716D01*
X78614622Y-53207555D01*
X78619232Y-53198507D01*
X78667205Y-53147709D01*
X78735025Y-53130912D01*
X78801161Y-53153447D01*
X78840204Y-53198504D01*
X78844949Y-53207817D01*
X78969890Y-53379786D01*
X79120213Y-53530109D01*
X79292179Y-53655048D01*
X79292181Y-53655049D01*
X79292184Y-53655051D01*
X79481588Y-53751557D01*
X79683757Y-53817246D01*
X79893713Y-53850500D01*
X79893714Y-53850500D01*
X80106286Y-53850500D01*
X80106287Y-53850500D01*
X80316243Y-53817246D01*
X80518412Y-53751557D01*
X80707816Y-53655051D01*
X80879792Y-53530104D01*
X80993329Y-53416566D01*
X81054648Y-53383084D01*
X81124340Y-53388068D01*
X81180274Y-53429939D01*
X81197189Y-53460917D01*
X81246202Y-53592328D01*
X81246206Y-53592335D01*
X81332452Y-53707544D01*
X81332455Y-53707547D01*
X81447664Y-53793793D01*
X81447671Y-53793797D01*
X81582517Y-53844091D01*
X81582516Y-53844091D01*
X81589444Y-53844835D01*
X81642127Y-53850500D01*
X83437872Y-53850499D01*
X83497483Y-53844091D01*
X83632331Y-53793796D01*
X83747546Y-53707546D01*
X83833796Y-53592331D01*
X83884091Y-53457483D01*
X83890500Y-53397873D01*
X83890499Y-51602128D01*
X83884091Y-51542517D01*
X83882810Y-51539083D01*
X83833797Y-51407671D01*
X83833793Y-51407664D01*
X83747547Y-51292455D01*
X83747544Y-51292452D01*
X83632335Y-51206206D01*
X83632328Y-51206202D01*
X83497482Y-51155908D01*
X83497483Y-51155908D01*
X83437883Y-51149501D01*
X83437881Y-51149500D01*
X83437873Y-51149500D01*
X83437864Y-51149500D01*
X81642129Y-51149500D01*
X81642123Y-51149501D01*
X81582516Y-51155908D01*
X81447671Y-51206202D01*
X81447664Y-51206206D01*
X81332455Y-51292452D01*
X81332452Y-51292455D01*
X81246206Y-51407664D01*
X81246203Y-51407669D01*
X81197189Y-51539083D01*
X81155317Y-51595016D01*
X81089853Y-51619433D01*
X81021580Y-51604581D01*
X80993326Y-51583430D01*
X80879786Y-51469890D01*
X80707820Y-51344951D01*
X80518414Y-51248444D01*
X80518413Y-51248443D01*
X80518412Y-51248443D01*
X80316243Y-51182754D01*
X80316241Y-51182753D01*
X80316240Y-51182753D01*
X80154957Y-51157208D01*
X80106287Y-51149500D01*
X79893713Y-51149500D01*
X79845042Y-51157208D01*
X79683760Y-51182753D01*
X79481585Y-51248444D01*
X79292179Y-51344951D01*
X79120213Y-51469890D01*
X78969890Y-51620213D01*
X78844949Y-51792182D01*
X78840202Y-51801499D01*
X78792227Y-51852293D01*
X78724405Y-51869087D01*
X78658271Y-51846548D01*
X78619234Y-51801495D01*
X78614626Y-51792452D01*
X78575270Y-51738282D01*
X78575269Y-51738282D01*
X77942962Y-52370590D01*
X77925925Y-52307007D01*
X77860099Y-52192993D01*
X77767007Y-52099901D01*
X77652993Y-52034075D01*
X77589409Y-52017037D01*
X78221716Y-51384728D01*
X78167550Y-51345375D01*
X77978217Y-51248904D01*
X77776129Y-51183242D01*
X77566246Y-51150000D01*
X77353754Y-51150000D01*
X77143872Y-51183242D01*
X77143869Y-51183242D01*
X76941782Y-51248904D01*
X76752439Y-51345380D01*
X76698282Y-51384727D01*
X76698282Y-51384728D01*
X77330591Y-52017037D01*
X77267007Y-52034075D01*
X77152993Y-52099901D01*
X77059901Y-52192993D01*
X76994075Y-52307007D01*
X76977037Y-52370591D01*
X76344728Y-51738282D01*
X76344727Y-51738282D01*
X76305380Y-51792440D01*
X76305376Y-51792446D01*
X76300760Y-51801505D01*
X76252781Y-51852297D01*
X76184959Y-51869087D01*
X76118826Y-51846543D01*
X76079794Y-51801493D01*
X76075051Y-51792184D01*
X76075049Y-51792181D01*
X76075048Y-51792179D01*
X75950109Y-51620213D01*
X75799786Y-51469890D01*
X75627820Y-51344951D01*
X75438414Y-51248444D01*
X75438413Y-51248443D01*
X75438412Y-51248443D01*
X75236243Y-51182754D01*
X75236241Y-51182753D01*
X75236240Y-51182753D01*
X75074957Y-51157208D01*
X75026287Y-51149500D01*
X74813713Y-51149500D01*
X74765042Y-51157208D01*
X74603760Y-51182753D01*
X74401585Y-51248444D01*
X74212179Y-51344951D01*
X74040213Y-51469890D01*
X73889890Y-51620213D01*
X73764949Y-51792182D01*
X73760484Y-51800946D01*
X73712509Y-51851742D01*
X73644688Y-51868536D01*
X73578553Y-51845998D01*
X73539516Y-51800946D01*
X73535050Y-51792182D01*
X73410109Y-51620213D01*
X73259786Y-51469890D01*
X73087820Y-51344951D01*
X72898414Y-51248444D01*
X72898413Y-51248443D01*
X72898412Y-51248443D01*
X72696243Y-51182754D01*
X72696241Y-51182753D01*
X72696240Y-51182753D01*
X72534957Y-51157208D01*
X72486287Y-51149500D01*
X72273713Y-51149500D01*
X72225042Y-51157208D01*
X72063760Y-51182753D01*
X71861585Y-51248444D01*
X71672179Y-51344951D01*
X71500213Y-51469890D01*
X71349890Y-51620213D01*
X71224951Y-51792179D01*
X71128444Y-51981585D01*
X71062753Y-52183760D01*
X71029500Y-52393713D01*
X70500000Y-52393713D01*
X70500000Y-51506092D01*
X70500597Y-51493938D01*
X70518018Y-51317056D01*
X70522757Y-51293232D01*
X70572577Y-51128994D01*
X70581875Y-51106549D01*
X70662775Y-50955195D01*
X70676272Y-50934995D01*
X70785149Y-50802328D01*
X70802328Y-50785149D01*
X70934995Y-50676272D01*
X70955195Y-50662775D01*
X71106549Y-50581875D01*
X71128994Y-50572577D01*
X71293232Y-50522757D01*
X71317056Y-50518018D01*
X71493939Y-50500597D01*
X71506093Y-50500000D01*
X85493907Y-50500000D01*
X85506061Y-50500597D01*
G37*
%TD.AperFunction*%
%TD*%
M02*
