%TF.GenerationSoftware,KiCad,Pcbnew,9.0.8*%
%TF.CreationDate,2026-04-21T09:59:08+09:00*%
%TF.ProjectId,Teseo-LIV3FL(GNSS module),54657365-6f2d-44c4-9956-33464c28474e,rev?*%
%TF.SameCoordinates,Original*%
%TF.FileFunction,Legend,Bot*%
%TF.FilePolarity,Positive*%
%FSLAX46Y46*%
G04 Gerber Fmt 4.6, Leading zero omitted, Abs format (unit mm)*
G04 Created by KiCad (PCBNEW 9.0.8) date 2026-04-21 09:59:08*
%MOMM*%
%LPD*%
G01*
G04 APERTURE LIST*
%ADD10C,0.200000*%
%ADD11C,0.000000*%
G04 APERTURE END LIST*
D10*
X71914838Y-56393482D02*
X71867219Y-56298244D01*
X71867219Y-56298244D02*
X71867219Y-56155387D01*
X71867219Y-56155387D02*
X71914838Y-56012530D01*
X71914838Y-56012530D02*
X72010076Y-55917292D01*
X72010076Y-55917292D02*
X72105314Y-55869673D01*
X72105314Y-55869673D02*
X72295790Y-55822054D01*
X72295790Y-55822054D02*
X72438647Y-55822054D01*
X72438647Y-55822054D02*
X72629123Y-55869673D01*
X72629123Y-55869673D02*
X72724361Y-55917292D01*
X72724361Y-55917292D02*
X72819600Y-56012530D01*
X72819600Y-56012530D02*
X72867219Y-56155387D01*
X72867219Y-56155387D02*
X72867219Y-56250625D01*
X72867219Y-56250625D02*
X72819600Y-56393482D01*
X72819600Y-56393482D02*
X72771980Y-56441101D01*
X72771980Y-56441101D02*
X72438647Y-56441101D01*
X72438647Y-56441101D02*
X72438647Y-56250625D01*
X72867219Y-56869673D02*
X71867219Y-56869673D01*
X71867219Y-56869673D02*
X72867219Y-57441101D01*
X72867219Y-57441101D02*
X71867219Y-57441101D01*
X72819600Y-57869673D02*
X72867219Y-58012530D01*
X72867219Y-58012530D02*
X72867219Y-58250625D01*
X72867219Y-58250625D02*
X72819600Y-58345863D01*
X72819600Y-58345863D02*
X72771980Y-58393482D01*
X72771980Y-58393482D02*
X72676742Y-58441101D01*
X72676742Y-58441101D02*
X72581504Y-58441101D01*
X72581504Y-58441101D02*
X72486266Y-58393482D01*
X72486266Y-58393482D02*
X72438647Y-58345863D01*
X72438647Y-58345863D02*
X72391028Y-58250625D01*
X72391028Y-58250625D02*
X72343409Y-58060149D01*
X72343409Y-58060149D02*
X72295790Y-57964911D01*
X72295790Y-57964911D02*
X72248171Y-57917292D01*
X72248171Y-57917292D02*
X72152933Y-57869673D01*
X72152933Y-57869673D02*
X72057695Y-57869673D01*
X72057695Y-57869673D02*
X71962457Y-57917292D01*
X71962457Y-57917292D02*
X71914838Y-57964911D01*
X71914838Y-57964911D02*
X71867219Y-58060149D01*
X71867219Y-58060149D02*
X71867219Y-58298244D01*
X71867219Y-58298244D02*
X71914838Y-58441101D01*
X72819600Y-58822054D02*
X72867219Y-58964911D01*
X72867219Y-58964911D02*
X72867219Y-59203006D01*
X72867219Y-59203006D02*
X72819600Y-59298244D01*
X72819600Y-59298244D02*
X72771980Y-59345863D01*
X72771980Y-59345863D02*
X72676742Y-59393482D01*
X72676742Y-59393482D02*
X72581504Y-59393482D01*
X72581504Y-59393482D02*
X72486266Y-59345863D01*
X72486266Y-59345863D02*
X72438647Y-59298244D01*
X72438647Y-59298244D02*
X72391028Y-59203006D01*
X72391028Y-59203006D02*
X72343409Y-59012530D01*
X72343409Y-59012530D02*
X72295790Y-58917292D01*
X72295790Y-58917292D02*
X72248171Y-58869673D01*
X72248171Y-58869673D02*
X72152933Y-58822054D01*
X72152933Y-58822054D02*
X72057695Y-58822054D01*
X72057695Y-58822054D02*
X71962457Y-58869673D01*
X71962457Y-58869673D02*
X71914838Y-58917292D01*
X71914838Y-58917292D02*
X71867219Y-59012530D01*
X71867219Y-59012530D02*
X71867219Y-59250625D01*
X71867219Y-59250625D02*
X71914838Y-59393482D01*
X72486266Y-59822054D02*
X72486266Y-60583959D01*
X71867219Y-60917292D02*
X71867219Y-61488720D01*
X72867219Y-61203006D02*
X71867219Y-61203006D01*
X71867219Y-61726816D02*
X72867219Y-62393482D01*
X71867219Y-62393482D02*
X72867219Y-61726816D01*
X72200552Y-63536340D02*
X72486266Y-62774435D01*
X72486266Y-62774435D02*
X72771980Y-63536340D01*
X72486266Y-64012530D02*
X72486266Y-64774435D01*
X72200552Y-65250625D02*
X72486266Y-66012530D01*
X72486266Y-66012530D02*
X72771980Y-65250625D01*
X72867219Y-66488720D02*
X71867219Y-66488720D01*
X71867219Y-66488720D02*
X72581504Y-66822053D01*
X72581504Y-66822053D02*
X71867219Y-67155386D01*
X71867219Y-67155386D02*
X72867219Y-67155386D01*
X72771980Y-68203005D02*
X72819600Y-68155386D01*
X72819600Y-68155386D02*
X72867219Y-68012529D01*
X72867219Y-68012529D02*
X72867219Y-67917291D01*
X72867219Y-67917291D02*
X72819600Y-67774434D01*
X72819600Y-67774434D02*
X72724361Y-67679196D01*
X72724361Y-67679196D02*
X72629123Y-67631577D01*
X72629123Y-67631577D02*
X72438647Y-67583958D01*
X72438647Y-67583958D02*
X72295790Y-67583958D01*
X72295790Y-67583958D02*
X72105314Y-67631577D01*
X72105314Y-67631577D02*
X72010076Y-67679196D01*
X72010076Y-67679196D02*
X71914838Y-67774434D01*
X71914838Y-67774434D02*
X71867219Y-67917291D01*
X71867219Y-67917291D02*
X71867219Y-68012529D01*
X71867219Y-68012529D02*
X71914838Y-68155386D01*
X71914838Y-68155386D02*
X71962457Y-68203005D01*
X71867219Y-68631577D02*
X72676742Y-68631577D01*
X72676742Y-68631577D02*
X72771980Y-68679196D01*
X72771980Y-68679196D02*
X72819600Y-68726815D01*
X72819600Y-68726815D02*
X72867219Y-68822053D01*
X72867219Y-68822053D02*
X72867219Y-69012529D01*
X72867219Y-69012529D02*
X72819600Y-69107767D01*
X72819600Y-69107767D02*
X72771980Y-69155386D01*
X72771980Y-69155386D02*
X72676742Y-69203005D01*
X72676742Y-69203005D02*
X71867219Y-69203005D01*
X72486266Y-69679196D02*
X72486266Y-70441101D01*
X72867219Y-71488719D02*
X72391028Y-71155386D01*
X72867219Y-70917291D02*
X71867219Y-70917291D01*
X71867219Y-70917291D02*
X71867219Y-71298243D01*
X71867219Y-71298243D02*
X71914838Y-71393481D01*
X71914838Y-71393481D02*
X71962457Y-71441100D01*
X71962457Y-71441100D02*
X72057695Y-71488719D01*
X72057695Y-71488719D02*
X72200552Y-71488719D01*
X72200552Y-71488719D02*
X72295790Y-71441100D01*
X72295790Y-71441100D02*
X72343409Y-71393481D01*
X72343409Y-71393481D02*
X72391028Y-71298243D01*
X72391028Y-71298243D02*
X72391028Y-70917291D01*
X71867219Y-71822053D02*
X72867219Y-72488719D01*
X71867219Y-72488719D02*
X72867219Y-71822053D01*
X74367219Y-55774435D02*
X74367219Y-56393482D01*
X74367219Y-56393482D02*
X74748171Y-56060149D01*
X74748171Y-56060149D02*
X74748171Y-56203006D01*
X74748171Y-56203006D02*
X74795790Y-56298244D01*
X74795790Y-56298244D02*
X74843409Y-56345863D01*
X74843409Y-56345863D02*
X74938647Y-56393482D01*
X74938647Y-56393482D02*
X75176742Y-56393482D01*
X75176742Y-56393482D02*
X75271980Y-56345863D01*
X75271980Y-56345863D02*
X75319600Y-56298244D01*
X75319600Y-56298244D02*
X75367219Y-56203006D01*
X75367219Y-56203006D02*
X75367219Y-55917292D01*
X75367219Y-55917292D02*
X75319600Y-55822054D01*
X75319600Y-55822054D02*
X75271980Y-55774435D01*
X74367219Y-56679197D02*
X75367219Y-57012530D01*
X75367219Y-57012530D02*
X74367219Y-57345863D01*
X74367219Y-57583959D02*
X74367219Y-58203006D01*
X74367219Y-58203006D02*
X74748171Y-57869673D01*
X74748171Y-57869673D02*
X74748171Y-58012530D01*
X74748171Y-58012530D02*
X74795790Y-58107768D01*
X74795790Y-58107768D02*
X74843409Y-58155387D01*
X74843409Y-58155387D02*
X74938647Y-58203006D01*
X74938647Y-58203006D02*
X75176742Y-58203006D01*
X75176742Y-58203006D02*
X75271980Y-58155387D01*
X75271980Y-58155387D02*
X75319600Y-58107768D01*
X75319600Y-58107768D02*
X75367219Y-58012530D01*
X75367219Y-58012530D02*
X75367219Y-57726816D01*
X75367219Y-57726816D02*
X75319600Y-57631578D01*
X75319600Y-57631578D02*
X75271980Y-57583959D01*
X76914838Y-56393482D02*
X76867219Y-56298244D01*
X76867219Y-56298244D02*
X76867219Y-56155387D01*
X76867219Y-56155387D02*
X76914838Y-56012530D01*
X76914838Y-56012530D02*
X77010076Y-55917292D01*
X77010076Y-55917292D02*
X77105314Y-55869673D01*
X77105314Y-55869673D02*
X77295790Y-55822054D01*
X77295790Y-55822054D02*
X77438647Y-55822054D01*
X77438647Y-55822054D02*
X77629123Y-55869673D01*
X77629123Y-55869673D02*
X77724361Y-55917292D01*
X77724361Y-55917292D02*
X77819600Y-56012530D01*
X77819600Y-56012530D02*
X77867219Y-56155387D01*
X77867219Y-56155387D02*
X77867219Y-56250625D01*
X77867219Y-56250625D02*
X77819600Y-56393482D01*
X77819600Y-56393482D02*
X77771980Y-56441101D01*
X77771980Y-56441101D02*
X77438647Y-56441101D01*
X77438647Y-56441101D02*
X77438647Y-56250625D01*
X77867219Y-56869673D02*
X76867219Y-56869673D01*
X76867219Y-56869673D02*
X77867219Y-57441101D01*
X77867219Y-57441101D02*
X76867219Y-57441101D01*
X77867219Y-57917292D02*
X76867219Y-57917292D01*
X76867219Y-57917292D02*
X76867219Y-58155387D01*
X76867219Y-58155387D02*
X76914838Y-58298244D01*
X76914838Y-58298244D02*
X77010076Y-58393482D01*
X77010076Y-58393482D02*
X77105314Y-58441101D01*
X77105314Y-58441101D02*
X77295790Y-58488720D01*
X77295790Y-58488720D02*
X77438647Y-58488720D01*
X77438647Y-58488720D02*
X77629123Y-58441101D01*
X77629123Y-58441101D02*
X77724361Y-58393482D01*
X77724361Y-58393482D02*
X77819600Y-58298244D01*
X77819600Y-58298244D02*
X77867219Y-58155387D01*
X77867219Y-58155387D02*
X77867219Y-57917292D01*
X80367219Y-55869673D02*
X79367219Y-55869673D01*
X79367219Y-55869673D02*
X79367219Y-56250625D01*
X79367219Y-56250625D02*
X79414838Y-56345863D01*
X79414838Y-56345863D02*
X79462457Y-56393482D01*
X79462457Y-56393482D02*
X79557695Y-56441101D01*
X79557695Y-56441101D02*
X79700552Y-56441101D01*
X79700552Y-56441101D02*
X79795790Y-56393482D01*
X79795790Y-56393482D02*
X79843409Y-56345863D01*
X79843409Y-56345863D02*
X79891028Y-56250625D01*
X79891028Y-56250625D02*
X79891028Y-55869673D01*
X80367219Y-56869673D02*
X79367219Y-56869673D01*
X79367219Y-56869673D02*
X79367219Y-57250625D01*
X79367219Y-57250625D02*
X79414838Y-57345863D01*
X79414838Y-57345863D02*
X79462457Y-57393482D01*
X79462457Y-57393482D02*
X79557695Y-57441101D01*
X79557695Y-57441101D02*
X79700552Y-57441101D01*
X79700552Y-57441101D02*
X79795790Y-57393482D01*
X79795790Y-57393482D02*
X79843409Y-57345863D01*
X79843409Y-57345863D02*
X79891028Y-57250625D01*
X79891028Y-57250625D02*
X79891028Y-56869673D01*
X80319600Y-57822054D02*
X80367219Y-57964911D01*
X80367219Y-57964911D02*
X80367219Y-58203006D01*
X80367219Y-58203006D02*
X80319600Y-58298244D01*
X80319600Y-58298244D02*
X80271980Y-58345863D01*
X80271980Y-58345863D02*
X80176742Y-58393482D01*
X80176742Y-58393482D02*
X80081504Y-58393482D01*
X80081504Y-58393482D02*
X79986266Y-58345863D01*
X79986266Y-58345863D02*
X79938647Y-58298244D01*
X79938647Y-58298244D02*
X79891028Y-58203006D01*
X79891028Y-58203006D02*
X79843409Y-58012530D01*
X79843409Y-58012530D02*
X79795790Y-57917292D01*
X79795790Y-57917292D02*
X79748171Y-57869673D01*
X79748171Y-57869673D02*
X79652933Y-57822054D01*
X79652933Y-57822054D02*
X79557695Y-57822054D01*
X79557695Y-57822054D02*
X79462457Y-57869673D01*
X79462457Y-57869673D02*
X79414838Y-57917292D01*
X79414838Y-57917292D02*
X79367219Y-58012530D01*
X79367219Y-58012530D02*
X79367219Y-58250625D01*
X79367219Y-58250625D02*
X79414838Y-58393482D01*
X82414838Y-56393482D02*
X82367219Y-56298244D01*
X82367219Y-56298244D02*
X82367219Y-56155387D01*
X82367219Y-56155387D02*
X82414838Y-56012530D01*
X82414838Y-56012530D02*
X82510076Y-55917292D01*
X82510076Y-55917292D02*
X82605314Y-55869673D01*
X82605314Y-55869673D02*
X82795790Y-55822054D01*
X82795790Y-55822054D02*
X82938647Y-55822054D01*
X82938647Y-55822054D02*
X83129123Y-55869673D01*
X83129123Y-55869673D02*
X83224361Y-55917292D01*
X83224361Y-55917292D02*
X83319600Y-56012530D01*
X83319600Y-56012530D02*
X83367219Y-56155387D01*
X83367219Y-56155387D02*
X83367219Y-56250625D01*
X83367219Y-56250625D02*
X83319600Y-56393482D01*
X83319600Y-56393482D02*
X83271980Y-56441101D01*
X83271980Y-56441101D02*
X82938647Y-56441101D01*
X82938647Y-56441101D02*
X82938647Y-56250625D01*
X83367219Y-56869673D02*
X82367219Y-56869673D01*
X82367219Y-56869673D02*
X83367219Y-57441101D01*
X83367219Y-57441101D02*
X82367219Y-57441101D01*
X83319600Y-57869673D02*
X83367219Y-58012530D01*
X83367219Y-58012530D02*
X83367219Y-58250625D01*
X83367219Y-58250625D02*
X83319600Y-58345863D01*
X83319600Y-58345863D02*
X83271980Y-58393482D01*
X83271980Y-58393482D02*
X83176742Y-58441101D01*
X83176742Y-58441101D02*
X83081504Y-58441101D01*
X83081504Y-58441101D02*
X82986266Y-58393482D01*
X82986266Y-58393482D02*
X82938647Y-58345863D01*
X82938647Y-58345863D02*
X82891028Y-58250625D01*
X82891028Y-58250625D02*
X82843409Y-58060149D01*
X82843409Y-58060149D02*
X82795790Y-57964911D01*
X82795790Y-57964911D02*
X82748171Y-57917292D01*
X82748171Y-57917292D02*
X82652933Y-57869673D01*
X82652933Y-57869673D02*
X82557695Y-57869673D01*
X82557695Y-57869673D02*
X82462457Y-57917292D01*
X82462457Y-57917292D02*
X82414838Y-57964911D01*
X82414838Y-57964911D02*
X82367219Y-58060149D01*
X82367219Y-58060149D02*
X82367219Y-58298244D01*
X82367219Y-58298244D02*
X82414838Y-58441101D01*
X83319600Y-58822054D02*
X83367219Y-58964911D01*
X83367219Y-58964911D02*
X83367219Y-59203006D01*
X83367219Y-59203006D02*
X83319600Y-59298244D01*
X83319600Y-59298244D02*
X83271980Y-59345863D01*
X83271980Y-59345863D02*
X83176742Y-59393482D01*
X83176742Y-59393482D02*
X83081504Y-59393482D01*
X83081504Y-59393482D02*
X82986266Y-59345863D01*
X82986266Y-59345863D02*
X82938647Y-59298244D01*
X82938647Y-59298244D02*
X82891028Y-59203006D01*
X82891028Y-59203006D02*
X82843409Y-59012530D01*
X82843409Y-59012530D02*
X82795790Y-58917292D01*
X82795790Y-58917292D02*
X82748171Y-58869673D01*
X82748171Y-58869673D02*
X82652933Y-58822054D01*
X82652933Y-58822054D02*
X82557695Y-58822054D01*
X82557695Y-58822054D02*
X82462457Y-58869673D01*
X82462457Y-58869673D02*
X82414838Y-58917292D01*
X82414838Y-58917292D02*
X82367219Y-59012530D01*
X82367219Y-59012530D02*
X82367219Y-59250625D01*
X82367219Y-59250625D02*
X82414838Y-59393482D01*
X82986266Y-59822054D02*
X82986266Y-60583959D01*
X83367219Y-61631577D02*
X82891028Y-61298244D01*
X83367219Y-61060149D02*
X82367219Y-61060149D01*
X82367219Y-61060149D02*
X82367219Y-61441101D01*
X82367219Y-61441101D02*
X82414838Y-61536339D01*
X82414838Y-61536339D02*
X82462457Y-61583958D01*
X82462457Y-61583958D02*
X82557695Y-61631577D01*
X82557695Y-61631577D02*
X82700552Y-61631577D01*
X82700552Y-61631577D02*
X82795790Y-61583958D01*
X82795790Y-61583958D02*
X82843409Y-61536339D01*
X82843409Y-61536339D02*
X82891028Y-61441101D01*
X82891028Y-61441101D02*
X82891028Y-61060149D01*
X82367219Y-61964911D02*
X83367219Y-62631577D01*
X82367219Y-62631577D02*
X83367219Y-61964911D01*
X82700552Y-63774435D02*
X82986266Y-63012530D01*
X82986266Y-63012530D02*
X83271980Y-63774435D01*
X82986266Y-64250625D02*
X82986266Y-65012530D01*
X82700552Y-65488720D02*
X82986266Y-66250625D01*
X82986266Y-66250625D02*
X83271980Y-65488720D01*
X83367219Y-66726815D02*
X82367219Y-66726815D01*
X82367219Y-66726815D02*
X83081504Y-67060148D01*
X83081504Y-67060148D02*
X82367219Y-67393481D01*
X82367219Y-67393481D02*
X83367219Y-67393481D01*
X83271980Y-68441100D02*
X83319600Y-68393481D01*
X83319600Y-68393481D02*
X83367219Y-68250624D01*
X83367219Y-68250624D02*
X83367219Y-68155386D01*
X83367219Y-68155386D02*
X83319600Y-68012529D01*
X83319600Y-68012529D02*
X83224361Y-67917291D01*
X83224361Y-67917291D02*
X83129123Y-67869672D01*
X83129123Y-67869672D02*
X82938647Y-67822053D01*
X82938647Y-67822053D02*
X82795790Y-67822053D01*
X82795790Y-67822053D02*
X82605314Y-67869672D01*
X82605314Y-67869672D02*
X82510076Y-67917291D01*
X82510076Y-67917291D02*
X82414838Y-68012529D01*
X82414838Y-68012529D02*
X82367219Y-68155386D01*
X82367219Y-68155386D02*
X82367219Y-68250624D01*
X82367219Y-68250624D02*
X82414838Y-68393481D01*
X82414838Y-68393481D02*
X82462457Y-68441100D01*
X82367219Y-68869672D02*
X83176742Y-68869672D01*
X83176742Y-68869672D02*
X83271980Y-68917291D01*
X83271980Y-68917291D02*
X83319600Y-68964910D01*
X83319600Y-68964910D02*
X83367219Y-69060148D01*
X83367219Y-69060148D02*
X83367219Y-69250624D01*
X83367219Y-69250624D02*
X83319600Y-69345862D01*
X83319600Y-69345862D02*
X83271980Y-69393481D01*
X83271980Y-69393481D02*
X83176742Y-69441100D01*
X83176742Y-69441100D02*
X82367219Y-69441100D01*
X82986266Y-69917291D02*
X82986266Y-70679196D01*
X82367219Y-71012529D02*
X82367219Y-71583957D01*
X83367219Y-71298243D02*
X82367219Y-71298243D01*
X82367219Y-71822053D02*
X83367219Y-72488719D01*
X82367219Y-72488719D02*
X83367219Y-71822053D01*
D11*
%TO.C,G\u002A\u002A\u002A*%
G36*
X77787592Y-71015133D02*
G01*
X77781076Y-71021649D01*
X77774560Y-71015133D01*
X77781076Y-71008617D01*
X77787592Y-71015133D01*
G37*
G36*
X77826689Y-71327909D02*
G01*
X77820173Y-71334425D01*
X77813657Y-71327909D01*
X77820173Y-71321393D01*
X77826689Y-71327909D01*
G37*
G36*
X78035207Y-69985579D02*
G01*
X78028690Y-69992096D01*
X78022174Y-69985579D01*
X78028690Y-69979063D01*
X78035207Y-69985579D01*
G37*
G36*
X78113400Y-70155000D02*
G01*
X78106884Y-70161516D01*
X78100368Y-70155000D01*
X78106884Y-70148483D01*
X78113400Y-70155000D01*
G37*
G36*
X78139465Y-70141967D02*
G01*
X78132949Y-70148483D01*
X78126433Y-70141967D01*
X78132949Y-70135451D01*
X78139465Y-70141967D01*
G37*
G36*
X78230691Y-70037709D02*
G01*
X78224175Y-70044225D01*
X78217659Y-70037709D01*
X78224175Y-70031193D01*
X78230691Y-70037709D01*
G37*
G36*
X78269788Y-69894353D02*
G01*
X78263272Y-69900869D01*
X78256756Y-69894353D01*
X78263272Y-69887837D01*
X78269788Y-69894353D01*
G37*
G36*
X78282821Y-70076806D02*
G01*
X78276305Y-70083322D01*
X78269788Y-70076806D01*
X78276305Y-70070289D01*
X78282821Y-70076806D01*
G37*
G36*
X78308885Y-70063773D02*
G01*
X78302369Y-70070289D01*
X78295853Y-70063773D01*
X78302369Y-70057257D01*
X78308885Y-70063773D01*
G37*
G36*
X78491338Y-70089838D02*
G01*
X78484822Y-70096354D01*
X78478306Y-70089838D01*
X78484822Y-70083322D01*
X78491338Y-70089838D01*
G37*
G36*
X78517403Y-69777062D02*
G01*
X78510886Y-69783578D01*
X78504370Y-69777062D01*
X78510886Y-69770546D01*
X78517403Y-69777062D01*
G37*
G36*
X78543467Y-69764030D02*
G01*
X78536951Y-69770546D01*
X78530435Y-69764030D01*
X78536951Y-69757514D01*
X78543467Y-69764030D01*
G37*
G36*
X78621661Y-70285323D02*
G01*
X78615145Y-70291839D01*
X78608629Y-70285323D01*
X78615145Y-70278807D01*
X78621661Y-70285323D01*
G37*
G36*
X78712887Y-70402614D02*
G01*
X78706371Y-70409130D01*
X78699855Y-70402614D01*
X78706371Y-70396098D01*
X78712887Y-70402614D01*
G37*
G36*
X78817146Y-69920418D02*
G01*
X78810630Y-69926934D01*
X78804114Y-69920418D01*
X78810630Y-69913902D01*
X78817146Y-69920418D01*
G37*
G36*
X78830178Y-71262747D02*
G01*
X78823662Y-71269263D01*
X78817146Y-71262747D01*
X78823662Y-71256231D01*
X78830178Y-71262747D01*
G37*
G36*
X78843211Y-71093327D02*
G01*
X78836694Y-71099843D01*
X78830178Y-71093327D01*
X78836694Y-71086811D01*
X78843211Y-71093327D01*
G37*
G36*
X78856243Y-69894353D02*
G01*
X78849727Y-69900869D01*
X78843211Y-69894353D01*
X78849727Y-69887837D01*
X78856243Y-69894353D01*
G37*
G36*
X78908372Y-71067262D02*
G01*
X78901856Y-71073778D01*
X78895340Y-71067262D01*
X78901856Y-71060746D01*
X78908372Y-71067262D01*
G37*
G36*
X78947469Y-71901331D02*
G01*
X78940953Y-71907847D01*
X78934437Y-71901331D01*
X78940953Y-71894815D01*
X78947469Y-71901331D01*
G37*
G36*
X79051728Y-71210618D02*
G01*
X79045212Y-71217134D01*
X79038695Y-71210618D01*
X79045212Y-71204102D01*
X79051728Y-71210618D01*
G37*
G36*
X79260245Y-69386092D02*
G01*
X79253729Y-69392609D01*
X79247213Y-69386092D01*
X79253729Y-69379576D01*
X79260245Y-69386092D01*
G37*
G36*
X79338439Y-69529448D02*
G01*
X79331923Y-69535964D01*
X79325407Y-69529448D01*
X79331923Y-69522932D01*
X79338439Y-69529448D01*
G37*
G36*
X79377536Y-69294866D02*
G01*
X79371020Y-69301382D01*
X79364504Y-69294866D01*
X79371020Y-69288350D01*
X79377536Y-69294866D01*
G37*
G36*
X79507859Y-70858745D02*
G01*
X79501343Y-70865261D01*
X79494827Y-70858745D01*
X79501343Y-70852229D01*
X79507859Y-70858745D01*
G37*
G36*
X79612118Y-72357462D02*
G01*
X79605602Y-72363979D01*
X79599085Y-72357462D01*
X79605602Y-72350946D01*
X79612118Y-72357462D01*
G37*
G36*
X79651215Y-70454743D02*
G01*
X79644699Y-70461259D01*
X79638182Y-70454743D01*
X79644699Y-70448227D01*
X79651215Y-70454743D01*
G37*
G36*
X79794570Y-70689325D02*
G01*
X79788054Y-70695841D01*
X79781538Y-70689325D01*
X79788054Y-70682809D01*
X79794570Y-70689325D01*
G37*
G36*
X79807603Y-70532937D02*
G01*
X79801086Y-70539453D01*
X79794570Y-70532937D01*
X79801086Y-70526421D01*
X79807603Y-70532937D01*
G37*
G36*
X79885797Y-70650228D02*
G01*
X79879280Y-70656744D01*
X79872764Y-70650228D01*
X79879280Y-70643712D01*
X79885797Y-70650228D01*
G37*
G36*
X79885797Y-71653717D02*
G01*
X79879280Y-71660233D01*
X79872764Y-71653717D01*
X79879280Y-71647201D01*
X79885797Y-71653717D01*
G37*
G36*
X79937926Y-70819648D02*
G01*
X79931410Y-70826164D01*
X79924894Y-70819648D01*
X79931410Y-70813132D01*
X79937926Y-70819648D01*
G37*
G36*
X79963990Y-70806616D02*
G01*
X79957474Y-70813132D01*
X79950958Y-70806616D01*
X79957474Y-70800100D01*
X79963990Y-70806616D01*
G37*
G36*
X80081281Y-71353973D02*
G01*
X80074765Y-71360490D01*
X80068249Y-71353973D01*
X80074765Y-71347457D01*
X80081281Y-71353973D01*
G37*
G36*
X80198572Y-70519905D02*
G01*
X80192056Y-70526421D01*
X80185540Y-70519905D01*
X80192056Y-70513389D01*
X80198572Y-70519905D01*
G37*
G36*
X80211605Y-71901331D02*
G01*
X80205088Y-71907847D01*
X80198572Y-71901331D01*
X80205088Y-71894815D01*
X80211605Y-71901331D01*
G37*
G36*
X80641671Y-70181064D02*
G01*
X80635155Y-70187580D01*
X80628639Y-70181064D01*
X80635155Y-70174548D01*
X80641671Y-70181064D01*
G37*
G36*
X80654704Y-70207129D02*
G01*
X80648188Y-70213645D01*
X80641671Y-70207129D01*
X80648188Y-70200613D01*
X80654704Y-70207129D01*
G37*
G36*
X80680768Y-70246226D02*
G01*
X80674252Y-70252742D01*
X80667736Y-70246226D01*
X80674252Y-70239710D01*
X80680768Y-70246226D01*
G37*
G36*
X80693801Y-70858745D02*
G01*
X80687284Y-70865261D01*
X80680768Y-70858745D01*
X80687284Y-70852229D01*
X80693801Y-70858745D01*
G37*
G36*
X80732898Y-70376549D02*
G01*
X80726381Y-70383065D01*
X80719865Y-70376549D01*
X80726381Y-70370033D01*
X80732898Y-70376549D01*
G37*
G36*
X80745930Y-70194097D02*
G01*
X80739414Y-70200613D01*
X80732898Y-70194097D01*
X80739414Y-70187580D01*
X80745930Y-70194097D01*
G37*
G36*
X80876253Y-70467775D02*
G01*
X80869737Y-70474292D01*
X80863221Y-70467775D01*
X80869737Y-70461259D01*
X80876253Y-70467775D01*
G37*
G36*
X77800625Y-71047714D02*
G01*
X77799684Y-71054613D01*
X77791936Y-71056402D01*
X77790377Y-71054492D01*
X77791936Y-71039026D01*
X77795856Y-71036987D01*
X77800625Y-71047714D01*
G37*
G36*
X77839722Y-70630679D02*
G01*
X77838781Y-70637579D01*
X77831033Y-70639368D01*
X77829474Y-70637458D01*
X77831033Y-70621991D01*
X77834953Y-70619952D01*
X77839722Y-70630679D01*
G37*
G36*
X77837664Y-71282296D02*
G01*
X77835847Y-71300223D01*
X77831091Y-71298586D01*
X77829369Y-71292687D01*
X77831091Y-71266005D01*
X77835616Y-71263795D01*
X77837664Y-71282296D01*
G37*
G36*
X77852754Y-70591582D02*
G01*
X77851813Y-70598482D01*
X77844066Y-70600271D01*
X77842506Y-70598361D01*
X77844066Y-70582894D01*
X77847986Y-70580855D01*
X77852754Y-70591582D01*
G37*
G36*
X77865786Y-70539453D02*
G01*
X77864846Y-70546352D01*
X77857098Y-70548141D01*
X77855538Y-70546231D01*
X77857098Y-70530765D01*
X77861018Y-70528726D01*
X77865786Y-70539453D01*
G37*
G36*
X77911783Y-70227618D02*
G01*
X77913571Y-70235366D01*
X77911661Y-70236925D01*
X77896195Y-70235366D01*
X77894156Y-70231446D01*
X77904883Y-70226677D01*
X77911783Y-70227618D01*
G37*
G36*
X77976944Y-70266715D02*
G01*
X77978733Y-70274463D01*
X77976823Y-70276022D01*
X77961357Y-70274463D01*
X77959318Y-70270543D01*
X77970045Y-70265774D01*
X77976944Y-70266715D01*
G37*
G36*
X78016041Y-70188521D02*
G01*
X78017830Y-70196269D01*
X78015920Y-70197828D01*
X78000454Y-70196269D01*
X77998415Y-70192349D01*
X78009142Y-70187580D01*
X78016041Y-70188521D01*
G37*
G36*
X78042106Y-71700271D02*
G01*
X78043895Y-71708018D01*
X78041985Y-71709578D01*
X78026518Y-71708018D01*
X78024479Y-71704098D01*
X78035207Y-71699330D01*
X78042106Y-71700271D01*
G37*
G36*
X78133332Y-69940907D02*
G01*
X78135121Y-69948654D01*
X78133211Y-69950214D01*
X78117745Y-69948654D01*
X78115706Y-69944735D01*
X78126433Y-69939966D01*
X78133332Y-69940907D01*
G37*
G36*
X78237591Y-69901810D02*
G01*
X78239380Y-69909557D01*
X78237469Y-69911117D01*
X78222003Y-69909557D01*
X78219964Y-69905638D01*
X78230691Y-69900869D01*
X78237591Y-69901810D01*
G37*
G36*
X78261651Y-71924754D02*
G01*
X78260014Y-71929511D01*
X78254115Y-71931232D01*
X78227433Y-71929511D01*
X78225223Y-71924985D01*
X78243724Y-71922937D01*
X78261651Y-71924754D01*
G37*
G36*
X78386050Y-71874180D02*
G01*
X78385129Y-71887399D01*
X78379206Y-71891285D01*
X78376623Y-71886675D01*
X78378177Y-71866307D01*
X78382868Y-71860274D01*
X78386050Y-71874180D01*
G37*
G36*
X78517403Y-70200613D02*
G01*
X78516462Y-70207512D01*
X78508714Y-70209301D01*
X78507155Y-70207391D01*
X78508714Y-70191925D01*
X78512634Y-70189886D01*
X78517403Y-70200613D01*
G37*
G36*
X78576431Y-69745422D02*
G01*
X78578220Y-69753170D01*
X78576310Y-69754729D01*
X78560844Y-69753170D01*
X78558805Y-69749250D01*
X78569532Y-69744481D01*
X78576431Y-69745422D01*
G37*
G36*
X78615528Y-69732390D02*
G01*
X78617317Y-69740137D01*
X78615407Y-69741697D01*
X78599941Y-69740137D01*
X78597902Y-69736217D01*
X78608629Y-69731449D01*
X78615528Y-69732390D01*
G37*
G36*
X78654625Y-69719357D02*
G01*
X78656414Y-69727105D01*
X78654504Y-69728665D01*
X78639038Y-69727105D01*
X78636999Y-69723185D01*
X78647726Y-69718417D01*
X78654625Y-69719357D01*
G37*
G36*
X78692439Y-69811593D02*
G01*
X78696325Y-69817517D01*
X78691715Y-69820099D01*
X78671347Y-69818546D01*
X78665315Y-69813855D01*
X78679221Y-69810672D01*
X78692439Y-69811593D01*
G37*
G36*
X78693722Y-69706325D02*
G01*
X78695511Y-69714073D01*
X78693601Y-69715632D01*
X78678134Y-69714073D01*
X78676096Y-69710153D01*
X78686823Y-69705384D01*
X78693722Y-69706325D01*
G37*
G36*
X78705471Y-69746432D02*
G01*
X78709358Y-69752355D01*
X78704747Y-69754938D01*
X78684379Y-69753384D01*
X78678347Y-69748693D01*
X78692253Y-69745510D01*
X78705471Y-69746432D01*
G37*
G36*
X78863142Y-72143370D02*
G01*
X78864931Y-72151117D01*
X78863021Y-72152677D01*
X78847555Y-72151117D01*
X78845516Y-72147197D01*
X78856243Y-72142429D01*
X78863142Y-72143370D01*
G37*
G36*
X78921405Y-71790556D02*
G01*
X78920464Y-71797456D01*
X78912716Y-71799245D01*
X78911157Y-71797334D01*
X78912716Y-71781868D01*
X78916636Y-71779829D01*
X78921405Y-71790556D01*
G37*
G36*
X79123789Y-72143370D02*
G01*
X79125578Y-72151117D01*
X79123668Y-72152677D01*
X79108201Y-72151117D01*
X79106162Y-72147197D01*
X79116889Y-72142429D01*
X79123789Y-72143370D01*
G37*
G36*
X79215015Y-72156402D02*
G01*
X79216804Y-72164150D01*
X79214894Y-72165709D01*
X79199427Y-72164150D01*
X79197389Y-72160230D01*
X79208116Y-72155461D01*
X79215015Y-72156402D01*
G37*
G36*
X79293209Y-69523872D02*
G01*
X79294998Y-69531620D01*
X79293088Y-69533180D01*
X79277621Y-69531620D01*
X79275583Y-69527700D01*
X79286310Y-69522932D01*
X79293209Y-69523872D01*
G37*
G36*
X79578637Y-72548381D02*
G01*
X79582524Y-72554305D01*
X79577913Y-72556887D01*
X79557545Y-72555334D01*
X79551513Y-72550643D01*
X79565419Y-72547460D01*
X79578637Y-72548381D01*
G37*
G36*
X79630766Y-72535349D02*
G01*
X79634653Y-72541272D01*
X79630042Y-72543855D01*
X79609674Y-72542301D01*
X79603642Y-72537610D01*
X79617548Y-72534428D01*
X79630766Y-72535349D01*
G37*
G36*
X79656831Y-72352897D02*
G01*
X79660717Y-72358820D01*
X79656107Y-72361402D01*
X79635739Y-72359849D01*
X79629707Y-72355158D01*
X79643613Y-72351975D01*
X79656831Y-72352897D01*
G37*
G36*
X79677279Y-70800100D02*
G01*
X79676339Y-70806999D01*
X79668591Y-70808788D01*
X79667031Y-70806878D01*
X79668591Y-70791411D01*
X79672511Y-70789373D01*
X79677279Y-70800100D01*
G37*
G36*
X79761089Y-72496252D02*
G01*
X79764976Y-72502176D01*
X79760365Y-72504758D01*
X79739997Y-72503204D01*
X79733965Y-72498513D01*
X79747871Y-72495331D01*
X79761089Y-72496252D01*
G37*
G36*
X79801470Y-72482210D02*
G01*
X79803258Y-72489958D01*
X79801348Y-72491517D01*
X79785882Y-72489958D01*
X79783843Y-72486038D01*
X79794570Y-72481269D01*
X79801470Y-72482210D01*
G37*
G36*
X79898829Y-71621136D02*
G01*
X79897888Y-71628035D01*
X79890141Y-71629824D01*
X79888581Y-71627914D01*
X79890141Y-71612448D01*
X79894061Y-71610409D01*
X79898829Y-71621136D01*
G37*
G36*
X79910832Y-71561405D02*
G01*
X79909911Y-71574623D01*
X79903988Y-71578510D01*
X79901405Y-71573899D01*
X79902959Y-71553531D01*
X79907650Y-71547499D01*
X79910832Y-71561405D01*
G37*
G36*
X79930510Y-69498818D02*
G01*
X79934396Y-69504741D01*
X79929786Y-69507323D01*
X79909418Y-69505770D01*
X79903385Y-69501079D01*
X79917291Y-69497896D01*
X79930510Y-69498818D01*
G37*
G36*
X80009987Y-72156402D02*
G01*
X80011776Y-72164150D01*
X80009866Y-72165709D01*
X79994399Y-72164150D01*
X79992360Y-72160230D01*
X80003087Y-72155461D01*
X80009987Y-72156402D01*
G37*
G36*
X80023019Y-71973949D02*
G01*
X80024808Y-71981697D01*
X80022898Y-71983257D01*
X80007432Y-71981697D01*
X80005393Y-71977777D01*
X80016120Y-71973009D01*
X80023019Y-71973949D01*
G37*
G36*
X80062116Y-71960917D02*
G01*
X80063905Y-71968665D01*
X80061995Y-71970224D01*
X80046529Y-71968665D01*
X80044490Y-71964745D01*
X80055217Y-71959977D01*
X80062116Y-71960917D01*
G37*
G36*
X80138306Y-69526806D02*
G01*
X80136669Y-69531563D01*
X80130770Y-69533284D01*
X80104088Y-69531563D01*
X80101877Y-69527038D01*
X80120378Y-69524990D01*
X80138306Y-69526806D01*
G37*
G36*
X80139027Y-71362440D02*
G01*
X80142913Y-71368363D01*
X80138303Y-71370946D01*
X80117935Y-71369392D01*
X80111903Y-71364701D01*
X80125809Y-71361518D01*
X80139027Y-71362440D01*
G37*
G36*
X80203468Y-69539839D02*
G01*
X80201830Y-69544595D01*
X80195931Y-69546317D01*
X80169250Y-69544595D01*
X80167039Y-69540070D01*
X80185540Y-69538022D01*
X80203468Y-69539839D01*
G37*
G36*
X80203468Y-71377396D02*
G01*
X80201830Y-71382153D01*
X80195931Y-71383874D01*
X80169250Y-71382153D01*
X80167039Y-71377628D01*
X80185540Y-71375580D01*
X80203468Y-71377396D01*
G37*
G36*
X80209547Y-72038170D02*
G01*
X80207730Y-72056098D01*
X80202974Y-72054461D01*
X80201252Y-72048562D01*
X80202974Y-72021880D01*
X80207499Y-72019669D01*
X80209547Y-72038170D01*
G37*
G36*
X80223608Y-72121795D02*
G01*
X80222687Y-72135013D01*
X80216763Y-72138899D01*
X80214181Y-72134289D01*
X80215734Y-72113921D01*
X80220425Y-72107889D01*
X80223608Y-72121795D01*
G37*
G36*
X80256318Y-69550947D02*
G01*
X80260204Y-69556870D01*
X80255594Y-69559453D01*
X80235226Y-69557899D01*
X80229194Y-69553208D01*
X80243099Y-69550025D01*
X80256318Y-69550947D01*
G37*
G36*
X80309730Y-69562969D02*
G01*
X80311519Y-69570717D01*
X80309609Y-69572277D01*
X80294143Y-69570717D01*
X80292104Y-69566797D01*
X80302831Y-69562029D01*
X80309730Y-69562969D01*
G37*
G36*
X80361859Y-69576002D02*
G01*
X80363648Y-69583749D01*
X80361738Y-69585309D01*
X80346272Y-69583749D01*
X80344233Y-69579829D01*
X80354960Y-69575061D01*
X80361859Y-69576002D01*
G37*
G36*
X80374892Y-71374462D02*
G01*
X80376681Y-71382210D01*
X80374771Y-71383770D01*
X80359304Y-71382210D01*
X80357265Y-71378290D01*
X80367993Y-71373522D01*
X80374892Y-71374462D01*
G37*
G36*
X80425017Y-69591968D02*
G01*
X80423380Y-69596725D01*
X80417481Y-69598446D01*
X80390799Y-69596725D01*
X80388588Y-69592199D01*
X80407090Y-69590151D01*
X80425017Y-69591968D01*
G37*
G36*
X80466118Y-69602066D02*
G01*
X80467907Y-69609814D01*
X80465997Y-69611374D01*
X80450531Y-69609814D01*
X80448492Y-69605894D01*
X80459219Y-69601126D01*
X80466118Y-69602066D01*
G37*
G36*
X80505215Y-69615099D02*
G01*
X80507004Y-69622846D01*
X80505094Y-69624406D01*
X80489628Y-69622846D01*
X80487589Y-69618926D01*
X80498316Y-69614158D01*
X80505215Y-69615099D01*
G37*
G36*
X80544312Y-69628131D02*
G01*
X80546101Y-69635879D01*
X80544191Y-69637438D01*
X80528725Y-69635879D01*
X80526686Y-69631959D01*
X80537413Y-69627190D01*
X80544312Y-69628131D01*
G37*
G36*
X80583409Y-69641163D02*
G01*
X80585198Y-69648911D01*
X80583288Y-69650471D01*
X80567822Y-69648911D01*
X80565783Y-69644991D01*
X80576510Y-69640223D01*
X80583409Y-69641163D01*
G37*
G36*
X80622506Y-69654196D02*
G01*
X80624295Y-69661943D01*
X80622385Y-69663503D01*
X80606918Y-69661943D01*
X80604880Y-69658023D01*
X80615607Y-69653255D01*
X80622506Y-69654196D01*
G37*
G36*
X80752829Y-70605555D02*
G01*
X80754618Y-70613303D01*
X80752708Y-70614863D01*
X80737242Y-70613303D01*
X80735203Y-70609383D01*
X80745930Y-70604615D01*
X80752829Y-70605555D01*
G37*
G36*
X80817991Y-70292780D02*
G01*
X80819780Y-70300527D01*
X80817870Y-70302087D01*
X80802403Y-70300527D01*
X80800364Y-70296607D01*
X80811092Y-70291839D01*
X80817991Y-70292780D01*
G37*
G36*
X80857088Y-70423103D02*
G01*
X80858877Y-70430850D01*
X80856967Y-70432410D01*
X80841500Y-70430850D01*
X80839461Y-70426931D01*
X80850189Y-70422162D01*
X80857088Y-70423103D01*
G37*
G36*
X80870120Y-70605555D02*
G01*
X80871909Y-70613303D01*
X80869999Y-70614863D01*
X80854533Y-70613303D01*
X80852494Y-70609383D01*
X80863221Y-70604615D01*
X80870120Y-70605555D01*
G37*
G36*
X77811643Y-71430923D02*
G01*
X77814296Y-71432654D01*
X77826299Y-71445531D01*
X77820942Y-71451716D01*
X77818011Y-71450551D01*
X77805896Y-71436670D01*
X77802725Y-71429387D01*
X77811643Y-71430923D01*
G37*
G36*
X77850740Y-70909630D02*
G01*
X77853393Y-70911361D01*
X77865396Y-70924238D01*
X77860039Y-70930423D01*
X77857108Y-70929258D01*
X77844993Y-70915377D01*
X77841822Y-70908094D01*
X77850740Y-70909630D01*
G37*
G36*
X77999585Y-70084939D02*
G01*
X77990003Y-70092375D01*
X77976216Y-70093837D01*
X77976331Y-70087968D01*
X77992289Y-70077644D01*
X77994762Y-70076716D01*
X78007820Y-70073981D01*
X77999585Y-70084939D01*
G37*
G36*
X78234167Y-69980680D02*
G01*
X78224584Y-69988117D01*
X78210798Y-69989579D01*
X78210913Y-69983709D01*
X78226871Y-69973385D01*
X78229344Y-69972457D01*
X78242402Y-69969723D01*
X78234167Y-69980680D01*
G37*
G36*
X78251802Y-70084010D02*
G01*
X78254874Y-70090810D01*
X78236531Y-70101327D01*
X78226365Y-70103611D01*
X78224267Y-70096205D01*
X78226821Y-70092787D01*
X78244493Y-70083322D01*
X78251802Y-70084010D01*
G37*
G36*
X78351458Y-69928551D02*
G01*
X78341875Y-69935987D01*
X78328089Y-69937449D01*
X78328204Y-69931580D01*
X78344162Y-69921256D01*
X78346635Y-69920328D01*
X78359693Y-69917593D01*
X78351458Y-69928551D01*
G37*
G36*
X78655804Y-69758202D02*
G01*
X78658877Y-69765002D01*
X78640533Y-69775519D01*
X78630367Y-69777802D01*
X78628270Y-69770397D01*
X78630823Y-69766979D01*
X78648495Y-69757514D01*
X78655804Y-69758202D01*
G37*
G36*
X78898843Y-71557019D02*
G01*
X78891788Y-71573814D01*
X78885074Y-71570788D01*
X78883958Y-71562454D01*
X78893145Y-71539924D01*
X78893759Y-71539320D01*
X78901803Y-71536901D01*
X78898843Y-71557019D01*
G37*
G36*
X78901352Y-72124491D02*
G01*
X78911782Y-72129828D01*
X78916428Y-72138717D01*
X78908138Y-72139622D01*
X78886543Y-72130988D01*
X78871669Y-72120139D01*
X78876606Y-72117107D01*
X78901352Y-72124491D01*
G37*
G36*
X78959634Y-72148409D02*
G01*
X78968222Y-72154539D01*
X78971787Y-72163293D01*
X78953423Y-72159959D01*
X78943921Y-72155064D01*
X78939524Y-72146030D01*
X78942578Y-72144403D01*
X78959634Y-72148409D01*
G37*
G36*
X79124967Y-71191758D02*
G01*
X79128040Y-71198558D01*
X79109696Y-71209074D01*
X79099531Y-71211358D01*
X79097433Y-71203952D01*
X79099986Y-71200535D01*
X79117659Y-71191069D01*
X79124967Y-71191758D01*
G37*
G36*
X79148030Y-70979301D02*
G01*
X79154604Y-70989937D01*
X79137102Y-71000043D01*
X79126070Y-71001637D01*
X79125435Y-70988479D01*
X79130436Y-70980238D01*
X79144320Y-70976880D01*
X79148030Y-70979301D01*
G37*
G36*
X79233914Y-71768104D02*
G01*
X79232101Y-71783041D01*
X79221297Y-71796980D01*
X79215265Y-71798170D01*
X79216175Y-71784717D01*
X79220689Y-71774714D01*
X79229058Y-71764492D01*
X79233914Y-71768104D01*
G37*
G36*
X79489872Y-70826852D02*
G01*
X79492945Y-70833653D01*
X79474601Y-70844169D01*
X79464436Y-70846453D01*
X79462338Y-70839047D01*
X79464892Y-70835629D01*
X79482564Y-70826164D01*
X79489872Y-70826852D01*
G37*
G36*
X79545829Y-72459626D02*
G01*
X79559238Y-72463499D01*
X79547857Y-72474197D01*
X79543993Y-72475908D01*
X79528881Y-72470622D01*
X79527943Y-72465300D01*
X79541013Y-72459549D01*
X79545829Y-72459626D01*
G37*
G36*
X79576496Y-70866878D02*
G01*
X79566914Y-70874315D01*
X79553127Y-70875777D01*
X79553242Y-70869907D01*
X79569201Y-70859583D01*
X79571673Y-70858655D01*
X79584732Y-70855921D01*
X79576496Y-70866878D01*
G37*
G36*
X79633228Y-70826852D02*
G01*
X79636301Y-70833653D01*
X79617957Y-70844169D01*
X79607792Y-70846453D01*
X79605694Y-70839047D01*
X79608247Y-70835629D01*
X79625919Y-70826164D01*
X79633228Y-70826852D01*
G37*
G36*
X79819930Y-71803844D02*
G01*
X79833091Y-71810000D01*
X79821535Y-71822581D01*
X79816836Y-71824352D01*
X79801218Y-71816834D01*
X79799927Y-71810001D01*
X79813350Y-71803589D01*
X79819930Y-71803844D01*
G37*
G36*
X79841745Y-70553174D02*
G01*
X79844818Y-70559974D01*
X79826474Y-70570490D01*
X79816309Y-70572774D01*
X79814211Y-70565369D01*
X79816764Y-70561951D01*
X79834436Y-70552485D01*
X79841745Y-70553174D01*
G37*
G36*
X80392044Y-71209373D02*
G01*
X80397833Y-71213396D01*
X80407090Y-71224419D01*
X80406963Y-71226241D01*
X80399419Y-71229111D01*
X80386297Y-71215120D01*
X80383126Y-71207837D01*
X80392044Y-71209373D01*
G37*
G36*
X80673748Y-69674414D02*
G01*
X80684178Y-69679751D01*
X80688824Y-69688641D01*
X80680534Y-69689545D01*
X80658939Y-69680911D01*
X80644065Y-69670062D01*
X80649002Y-69667030D01*
X80673748Y-69674414D01*
G37*
G36*
X77789526Y-70711556D02*
G01*
X77799626Y-70741382D01*
X77787752Y-70774035D01*
X77782751Y-70780038D01*
X77777598Y-70773982D01*
X77777052Y-70744137D01*
X77777638Y-70733246D01*
X77782008Y-70710253D01*
X77789526Y-70711556D01*
G37*
G36*
X77811116Y-70415646D02*
G01*
X77811134Y-70418732D01*
X77809387Y-70439134D01*
X77805109Y-70438701D01*
X77802718Y-70427992D01*
X77804626Y-70399604D01*
X77805271Y-70397363D01*
X77809237Y-70395434D01*
X77811116Y-70415646D01*
G37*
G36*
X77826290Y-70663260D02*
G01*
X77824685Y-70672083D01*
X77813657Y-70695841D01*
X77806402Y-70704688D01*
X77801024Y-70702357D01*
X77802629Y-70693535D01*
X77813657Y-70669776D01*
X77820912Y-70660929D01*
X77826290Y-70663260D01*
G37*
G36*
X77876218Y-70242416D02*
G01*
X77865786Y-70252742D01*
X77854623Y-70258886D01*
X77833205Y-70265375D01*
X77829290Y-70263068D01*
X77839722Y-70252742D01*
X77850885Y-70246598D01*
X77872302Y-70240109D01*
X77876218Y-70242416D01*
G37*
G36*
X77874105Y-70403020D02*
G01*
X77874913Y-70435195D01*
X77874290Y-70464318D01*
X77872325Y-70479119D01*
X77869484Y-70471033D01*
X77867303Y-70441451D01*
X77869484Y-70399356D01*
X77872001Y-70390962D01*
X77874105Y-70403020D01*
G37*
G36*
X77956826Y-70150238D02*
G01*
X77948352Y-70157950D01*
X77917916Y-70173502D01*
X77898992Y-70182248D01*
X77894611Y-70182225D01*
X77910632Y-70168751D01*
X77929514Y-70155934D01*
X77948643Y-70148483D01*
X77956826Y-70150238D01*
G37*
G36*
X77980476Y-70203319D02*
G01*
X77970045Y-70213645D01*
X77958881Y-70219789D01*
X77937464Y-70226278D01*
X77933549Y-70223971D01*
X77943980Y-70213645D01*
X77955144Y-70207501D01*
X77976561Y-70201012D01*
X77980476Y-70203319D01*
G37*
G36*
X78045638Y-70242416D02*
G01*
X78035207Y-70252742D01*
X78024043Y-70258886D01*
X78002626Y-70265375D01*
X77998710Y-70263068D01*
X78009142Y-70252742D01*
X78020306Y-70246598D01*
X78041723Y-70240109D01*
X78045638Y-70242416D01*
G37*
G36*
X78084735Y-70164222D02*
G01*
X78074303Y-70174548D01*
X78063140Y-70180692D01*
X78041723Y-70187181D01*
X78037807Y-70184875D01*
X78048239Y-70174548D01*
X78059403Y-70168404D01*
X78080820Y-70161915D01*
X78084735Y-70164222D01*
G37*
G36*
X78097767Y-69955704D02*
G01*
X78087336Y-69966031D01*
X78076172Y-69972175D01*
X78054755Y-69978664D01*
X78050840Y-69976357D01*
X78061271Y-69966031D01*
X78072435Y-69959887D01*
X78093852Y-69953398D01*
X78097767Y-69955704D01*
G37*
G36*
X78202026Y-69916607D02*
G01*
X78191594Y-69926934D01*
X78180431Y-69933078D01*
X78159014Y-69939567D01*
X78155098Y-69937260D01*
X78165530Y-69926934D01*
X78176694Y-69920790D01*
X78198111Y-69914301D01*
X78202026Y-69916607D01*
G37*
G36*
X78202026Y-70046931D02*
G01*
X78191594Y-70057257D01*
X78180431Y-70063401D01*
X78159014Y-70069890D01*
X78155098Y-70067584D01*
X78165530Y-70057257D01*
X78176694Y-70051113D01*
X78198111Y-70044624D01*
X78202026Y-70046931D01*
G37*
G36*
X78202026Y-70112092D02*
G01*
X78191594Y-70122419D01*
X78180431Y-70128563D01*
X78159014Y-70135052D01*
X78155098Y-70132745D01*
X78165530Y-70122419D01*
X78176694Y-70116274D01*
X78198111Y-70109786D01*
X78202026Y-70112092D01*
G37*
G36*
X78306284Y-69942672D02*
G01*
X78295853Y-69952999D01*
X78284689Y-69959143D01*
X78263272Y-69965632D01*
X78259357Y-69963325D01*
X78269788Y-69952999D01*
X78280952Y-69946854D01*
X78302369Y-69940365D01*
X78306284Y-69942672D01*
G37*
G36*
X78332349Y-69864478D02*
G01*
X78321918Y-69874805D01*
X78310754Y-69880949D01*
X78289337Y-69887438D01*
X78285422Y-69885131D01*
X78295853Y-69874805D01*
X78307017Y-69868660D01*
X78328434Y-69862171D01*
X78332349Y-69864478D01*
G37*
G36*
X78462672Y-69942672D02*
G01*
X78452241Y-69952999D01*
X78441077Y-69959143D01*
X78419660Y-69965632D01*
X78415745Y-69963325D01*
X78426176Y-69952999D01*
X78437340Y-69946854D01*
X78458757Y-69940365D01*
X78462672Y-69942672D01*
G37*
G36*
X78472722Y-69978637D02*
G01*
X78452241Y-69992096D01*
X78435754Y-69999440D01*
X78426176Y-69999529D01*
X78431760Y-69992522D01*
X78452241Y-69979063D01*
X78468728Y-69971719D01*
X78478306Y-69971630D01*
X78472722Y-69978637D01*
G37*
G36*
X78543281Y-69681074D02*
G01*
X78534807Y-69688786D01*
X78504370Y-69704338D01*
X78485446Y-69713084D01*
X78481065Y-69713061D01*
X78497087Y-69699587D01*
X78515969Y-69686770D01*
X78535098Y-69679320D01*
X78543281Y-69681074D01*
G37*
G36*
X78553899Y-69721123D02*
G01*
X78543467Y-69731449D01*
X78532303Y-69737593D01*
X78510886Y-69744082D01*
X78506971Y-69741776D01*
X78517403Y-69731449D01*
X78528566Y-69725305D01*
X78549983Y-69718816D01*
X78553899Y-69721123D01*
G37*
G36*
X78618901Y-69645579D02*
G01*
X78602880Y-69659052D01*
X78583998Y-69671870D01*
X78564869Y-69679320D01*
X78556686Y-69677565D01*
X78565160Y-69669854D01*
X78595596Y-69654301D01*
X78614520Y-69645555D01*
X78618901Y-69645579D01*
G37*
G36*
X78768956Y-72081537D02*
G01*
X78768523Y-72085816D01*
X78757814Y-72088207D01*
X78729426Y-72086299D01*
X78727185Y-72085654D01*
X78725256Y-72081687D01*
X78745468Y-72079808D01*
X78748554Y-72079790D01*
X78768956Y-72081537D01*
G37*
G36*
X78809103Y-72091652D02*
G01*
X78836191Y-72098426D01*
X78846722Y-72103591D01*
X78852181Y-72111738D01*
X78840926Y-72112032D01*
X78815780Y-72104438D01*
X78798434Y-72095563D01*
X78799790Y-72091126D01*
X78809103Y-72091652D01*
G37*
G36*
X78844619Y-69945850D02*
G01*
X78837833Y-69959730D01*
X78821819Y-69971451D01*
X78817686Y-69972986D01*
X78807390Y-69973942D01*
X78816898Y-69959813D01*
X78827059Y-69948612D01*
X78838290Y-69939966D01*
X78844619Y-69945850D01*
G37*
G36*
X78853609Y-69757728D02*
G01*
X78853697Y-69766219D01*
X78833436Y-69785241D01*
X78823994Y-69792521D01*
X78817245Y-69795757D01*
X78828516Y-69780320D01*
X78840444Y-69766420D01*
X78851323Y-69757514D01*
X78853609Y-69757728D01*
G37*
G36*
X78908372Y-71489275D02*
G01*
X78907886Y-71493097D01*
X78895340Y-71510361D01*
X78890337Y-71512449D01*
X78882308Y-71505383D01*
X78882794Y-71501561D01*
X78895340Y-71484297D01*
X78900343Y-71482209D01*
X78908372Y-71489275D01*
G37*
G36*
X78918145Y-71652151D02*
G01*
X78908372Y-71679782D01*
X78900177Y-71694091D01*
X78896455Y-71686298D01*
X78897567Y-71675021D01*
X78908372Y-71647201D01*
X78912074Y-71641930D01*
X78919379Y-71637895D01*
X78918145Y-71652151D01*
G37*
G36*
X79101223Y-71165219D02*
G01*
X79101312Y-71173710D01*
X79081051Y-71192732D01*
X79071608Y-71200012D01*
X79064859Y-71203248D01*
X79076130Y-71187811D01*
X79088058Y-71173911D01*
X79098937Y-71165005D01*
X79101223Y-71165219D01*
G37*
G36*
X79270517Y-70818488D02*
G01*
X79254496Y-70831962D01*
X79235614Y-70844779D01*
X79216485Y-70852229D01*
X79208302Y-70850474D01*
X79216776Y-70842763D01*
X79247213Y-70827211D01*
X79266137Y-70818464D01*
X79270517Y-70818488D01*
G37*
G36*
X79273277Y-71743405D02*
G01*
X79272691Y-71745696D01*
X79260245Y-71757975D01*
X79255631Y-71760403D01*
X79247213Y-71759514D01*
X79247799Y-71757222D01*
X79260245Y-71744943D01*
X79264859Y-71742516D01*
X79273277Y-71743405D01*
G37*
G36*
X79429665Y-69358490D02*
G01*
X79429079Y-69360781D01*
X79416633Y-69373060D01*
X79412019Y-69375488D01*
X79403601Y-69374598D01*
X79404187Y-69372307D01*
X79416633Y-69360028D01*
X79421247Y-69357600D01*
X79429665Y-69358490D01*
G37*
G36*
X79474855Y-69513829D02*
G01*
X79491228Y-69515874D01*
X79485053Y-69519097D01*
X79464383Y-69521253D01*
X79426407Y-69519097D01*
X79419805Y-69517065D01*
X79427543Y-69514466D01*
X79455730Y-69513449D01*
X79474855Y-69513829D01*
G37*
G36*
X79635581Y-70867967D02*
G01*
X79625150Y-70878294D01*
X79613986Y-70884438D01*
X79592569Y-70890927D01*
X79588654Y-70888620D01*
X79599085Y-70878294D01*
X79610249Y-70872149D01*
X79631666Y-70865660D01*
X79635581Y-70867967D01*
G37*
G36*
X79633992Y-69500017D02*
G01*
X79652013Y-69502073D01*
X79647957Y-69505851D01*
X79635396Y-69507878D01*
X79602343Y-69505851D01*
X79598646Y-69504632D01*
X79601440Y-69501249D01*
X79625150Y-69499891D01*
X79633992Y-69500017D01*
G37*
G36*
X79657456Y-72429105D02*
G01*
X79638182Y-72448689D01*
X79620257Y-72463114D01*
X79612118Y-72465761D01*
X79618908Y-72455240D01*
X79638182Y-72435656D01*
X79656108Y-72421231D01*
X79664247Y-72418584D01*
X79657456Y-72429105D01*
G37*
G36*
X79713774Y-72510355D02*
G01*
X79703344Y-72520366D01*
X79692068Y-72526129D01*
X79664247Y-72532283D01*
X79658896Y-72528980D01*
X79669123Y-72521086D01*
X79688804Y-72512836D01*
X79709860Y-72508450D01*
X79713774Y-72510355D01*
G37*
G36*
X79800812Y-72194523D02*
G01*
X79781538Y-72214107D01*
X79763613Y-72228532D01*
X79755473Y-72231179D01*
X79762264Y-72220658D01*
X79781538Y-72201075D01*
X79799463Y-72186649D01*
X79807603Y-72184002D01*
X79800812Y-72194523D01*
G37*
G36*
X79807603Y-70492302D02*
G01*
X79807016Y-70494593D01*
X79794570Y-70506872D01*
X79789956Y-70509300D01*
X79781538Y-70508411D01*
X79782124Y-70506119D01*
X79794570Y-70493840D01*
X79799184Y-70491413D01*
X79807603Y-70492302D01*
G37*
G36*
X79857131Y-70659450D02*
G01*
X79846700Y-70669776D01*
X79835536Y-70675921D01*
X79814119Y-70682410D01*
X79810204Y-70680103D01*
X79820635Y-70669776D01*
X79831799Y-70663632D01*
X79853216Y-70657143D01*
X79857131Y-70659450D01*
G37*
G36*
X79880213Y-70369607D02*
G01*
X79859732Y-70383065D01*
X79843245Y-70390410D01*
X79833667Y-70390498D01*
X79839251Y-70383492D01*
X79859732Y-70370033D01*
X79876219Y-70362688D01*
X79885797Y-70362600D01*
X79880213Y-70369607D01*
G37*
G36*
X79872764Y-71678243D02*
G01*
X79872178Y-71680535D01*
X79859732Y-71692814D01*
X79855118Y-71695241D01*
X79846700Y-71694352D01*
X79847286Y-71692061D01*
X79859732Y-71679782D01*
X79864346Y-71677354D01*
X79872764Y-71678243D01*
G37*
G36*
X79931215Y-72302482D02*
G01*
X79929054Y-72305824D01*
X79911988Y-72326809D01*
X79901046Y-72331442D01*
X79900630Y-72330898D01*
X79905278Y-72316988D01*
X79923931Y-72295197D01*
X79954100Y-72266236D01*
X79931215Y-72302482D01*
G37*
G36*
X79907295Y-71358367D02*
G01*
X79908312Y-71386554D01*
X79907932Y-71405679D01*
X79905887Y-71422053D01*
X79902664Y-71415877D01*
X79900508Y-71395207D01*
X79902664Y-71357232D01*
X79904696Y-71350630D01*
X79907295Y-71358367D01*
G37*
G36*
X80009329Y-70565482D02*
G01*
X79990055Y-70585066D01*
X79972130Y-70599492D01*
X79963990Y-70602138D01*
X79970781Y-70591618D01*
X79990055Y-70572034D01*
X80007980Y-70557608D01*
X80016120Y-70554962D01*
X80009329Y-70565482D01*
G37*
G36*
X80033791Y-69735603D02*
G01*
X80050866Y-69737571D01*
X80045622Y-69740623D01*
X80019002Y-69742945D01*
X79980460Y-69740801D01*
X79971385Y-69738487D01*
X79980034Y-69736152D01*
X80009604Y-69735176D01*
X80033791Y-69735603D01*
G37*
G36*
X80003087Y-70726884D02*
G01*
X80002501Y-70729175D01*
X79990055Y-70741454D01*
X79985441Y-70743882D01*
X79977023Y-70742992D01*
X79977609Y-70740701D01*
X79990055Y-70728422D01*
X79994669Y-70725994D01*
X80003087Y-70726884D01*
G37*
G36*
X80059156Y-69514170D02*
G01*
X80058723Y-69518448D01*
X80048014Y-69520839D01*
X80019626Y-69518931D01*
X80017385Y-69518286D01*
X80015456Y-69514319D01*
X80035668Y-69512440D01*
X80038755Y-69512422D01*
X80059156Y-69514170D01*
G37*
G36*
X80078680Y-72132103D02*
G01*
X80068249Y-72142429D01*
X80057085Y-72148573D01*
X80035668Y-72155062D01*
X80031753Y-72152755D01*
X80042184Y-72142429D01*
X80053348Y-72136285D01*
X80074765Y-72129796D01*
X80078680Y-72132103D01*
G37*
G36*
X80123659Y-69855085D02*
G01*
X80110604Y-69872633D01*
X80094278Y-69887388D01*
X80082682Y-69892496D01*
X80081680Y-69888494D01*
X80090508Y-69873063D01*
X80106927Y-69856484D01*
X80121974Y-69848740D01*
X80123659Y-69855085D01*
G37*
G36*
X80143842Y-72106038D02*
G01*
X80133411Y-72116364D01*
X80122247Y-72122509D01*
X80100830Y-72128998D01*
X80096915Y-72126691D01*
X80107346Y-72116364D01*
X80118510Y-72110220D01*
X80139927Y-72103731D01*
X80143842Y-72106038D01*
G37*
G36*
X80332835Y-71390824D02*
G01*
X80332402Y-71395103D01*
X80321693Y-71397493D01*
X80293305Y-71395586D01*
X80291064Y-71394941D01*
X80289135Y-71390974D01*
X80309347Y-71389095D01*
X80312433Y-71389077D01*
X80332835Y-71390824D01*
G37*
G36*
X80446186Y-71209080D02*
G01*
X80445600Y-71211371D01*
X80433154Y-71223650D01*
X80428540Y-71226078D01*
X80420122Y-71225188D01*
X80420708Y-71222897D01*
X80433154Y-71210618D01*
X80437768Y-71208190D01*
X80446186Y-71209080D01*
G37*
G36*
X81403788Y-70787032D02*
G01*
X81384514Y-70806616D01*
X81366589Y-70821041D01*
X81358449Y-70823688D01*
X81365240Y-70813167D01*
X81384514Y-70793583D01*
X81402439Y-70779158D01*
X81410578Y-70776511D01*
X81403788Y-70787032D01*
G37*
G36*
X79506172Y-69356256D02*
G01*
X79496653Y-69375592D01*
X79493181Y-69381854D01*
X79476216Y-69404938D01*
X79461812Y-69415338D01*
X79455730Y-69408430D01*
X79463346Y-69393606D01*
X79483691Y-69371822D01*
X79502105Y-69355974D01*
X79506172Y-69356256D01*
G37*
G36*
X79751541Y-70695842D02*
G01*
X79754682Y-70700036D01*
X79742727Y-70714479D01*
X79713118Y-70742274D01*
X79670763Y-70780551D01*
X79709040Y-70738196D01*
X79719722Y-70726551D01*
X79741039Y-70704566D01*
X79751395Y-70695841D01*
X79751541Y-70695842D01*
G37*
G36*
X79955252Y-70761774D02*
G01*
X79929805Y-70780404D01*
X79926169Y-70782737D01*
X79907387Y-70792277D01*
X79904466Y-70788489D01*
X79914101Y-70777857D01*
X79938652Y-70760614D01*
X79952607Y-70753806D01*
X79963270Y-70751973D01*
X79955252Y-70761774D01*
G37*
G36*
X77797212Y-70475225D02*
G01*
X77792575Y-70506872D01*
X77787640Y-70535764D01*
X77782118Y-70558345D01*
X77777250Y-70559525D01*
X77771438Y-70541953D01*
X77771643Y-70518192D01*
X77783010Y-70486048D01*
X77787753Y-70477906D01*
X77796026Y-70466487D01*
X77797212Y-70475225D01*
G37*
G36*
X77845519Y-71483529D02*
G01*
X77857863Y-71503623D01*
X77864757Y-71529143D01*
X77864729Y-71529693D01*
X77862596Y-71542442D01*
X77856480Y-71529910D01*
X77850541Y-71514924D01*
X77837242Y-71484297D01*
X77830581Y-71469438D01*
X77831129Y-71466174D01*
X77845519Y-71483529D01*
G37*
G36*
X78094230Y-70032125D02*
G01*
X78093288Y-70037774D01*
X78074303Y-70050741D01*
X78048708Y-70063382D01*
X78028690Y-70069366D01*
X78028313Y-70069357D01*
X78029255Y-70063708D01*
X78048239Y-70050741D01*
X78073835Y-70038100D01*
X78093852Y-70032116D01*
X78094230Y-70032125D01*
G37*
G36*
X78033946Y-71739943D02*
G01*
X78054343Y-71760507D01*
X78075368Y-71785469D01*
X78085635Y-71800838D01*
X78078772Y-71798507D01*
X78054755Y-71777524D01*
X78051971Y-71774867D01*
X78030837Y-71751346D01*
X78022174Y-71735429D01*
X78022850Y-71733856D01*
X78033946Y-71739943D01*
G37*
G36*
X78185456Y-69993028D02*
G01*
X78184514Y-69998677D01*
X78165530Y-70011644D01*
X78139934Y-70024285D01*
X78119917Y-70030269D01*
X78119539Y-70030261D01*
X78120481Y-70024611D01*
X78139465Y-70011644D01*
X78165061Y-69999003D01*
X78185078Y-69993019D01*
X78185456Y-69993028D01*
G37*
G36*
X78906020Y-69775767D02*
G01*
X78888931Y-69789648D01*
X78849738Y-69816993D01*
X78831330Y-69828739D01*
X78815200Y-69836199D01*
X78816548Y-69829912D01*
X78816765Y-69829652D01*
X78841426Y-69808242D01*
X78874842Y-69787578D01*
X78901132Y-69775203D01*
X78906020Y-69775767D01*
G37*
G36*
X79264558Y-71826474D02*
G01*
X79272248Y-71846713D01*
X79270654Y-71854538D01*
X79264619Y-71845862D01*
X79260410Y-71839656D01*
X79244086Y-71838102D01*
X79237834Y-71840680D01*
X79239583Y-71831454D01*
X79244666Y-71825748D01*
X79261145Y-71823694D01*
X79264558Y-71826474D01*
G37*
G36*
X79797485Y-69501324D02*
G01*
X79829990Y-69502256D01*
X79841872Y-69504030D01*
X79830409Y-69506361D01*
X79781602Y-69508470D01*
X79732667Y-69506361D01*
X79725766Y-69505489D01*
X79722883Y-69503323D01*
X79742380Y-69501815D01*
X79781538Y-69501249D01*
X79797485Y-69501324D01*
G37*
G36*
X79897403Y-72446612D02*
G01*
X79880048Y-72461002D01*
X79859955Y-72473347D01*
X79834434Y-72480241D01*
X79833884Y-72480212D01*
X79821135Y-72478079D01*
X79833667Y-72471963D01*
X79848653Y-72466025D01*
X79879280Y-72452725D01*
X79894139Y-72446064D01*
X79897403Y-72446612D01*
G37*
G36*
X80010482Y-70642290D02*
G01*
X79999456Y-70653786D01*
X79978951Y-70668397D01*
X79959566Y-70678497D01*
X79950958Y-70678250D01*
X79950977Y-70678057D01*
X79961377Y-70667497D01*
X79985144Y-70650375D01*
X79988779Y-70648042D01*
X80007562Y-70638502D01*
X80010482Y-70642290D01*
G37*
G36*
X78155795Y-70202771D02*
G01*
X78150555Y-70209135D01*
X78126433Y-70220161D01*
X78117634Y-70223479D01*
X78084885Y-70234191D01*
X78067994Y-70237101D01*
X78069977Y-70232253D01*
X78093852Y-70219691D01*
X78094282Y-70219494D01*
X78127419Y-70207102D01*
X78152497Y-70202192D01*
X78155795Y-70202771D01*
G37*
G36*
X79116480Y-71131708D02*
G01*
X79084309Y-71157605D01*
X79070631Y-71167560D01*
X79047804Y-71181280D01*
X79038857Y-71181958D01*
X79040146Y-71178717D01*
X79056126Y-71162703D01*
X79084470Y-71142078D01*
X79090760Y-71138039D01*
X79119715Y-71121030D01*
X79128285Y-71119218D01*
X79116480Y-71131708D01*
G37*
G36*
X80212134Y-72186144D02*
G01*
X80210880Y-72204961D01*
X80205717Y-72228322D01*
X80197977Y-72246688D01*
X80194035Y-72251967D01*
X80189530Y-72251106D01*
X80193494Y-72227139D01*
X80193503Y-72227096D01*
X80201050Y-72197916D01*
X80206922Y-72182612D01*
X80208147Y-72181411D01*
X80212134Y-72186144D01*
G37*
G36*
X77800625Y-70871777D02*
G01*
X77802308Y-70873310D01*
X77821875Y-70893518D01*
X77825693Y-70902525D01*
X77812200Y-70896942D01*
X77803416Y-70894887D01*
X77786335Y-70905947D01*
X77784276Y-70908917D01*
X77777114Y-70909731D01*
X77774760Y-70886048D01*
X77775534Y-70861692D01*
X77782183Y-70856811D01*
X77800625Y-70871777D01*
G37*
G36*
X77919184Y-70292101D02*
G01*
X77892490Y-70305428D01*
X77874107Y-70314175D01*
X77839065Y-70332527D01*
X77817554Y-70346142D01*
X77806096Y-70353413D01*
X77800625Y-70345739D01*
X77806864Y-70335867D01*
X77832606Y-70319107D01*
X77872208Y-70301673D01*
X77919051Y-70286854D01*
X77926791Y-70285879D01*
X77919184Y-70292101D01*
G37*
G36*
X78396753Y-69968934D02*
G01*
X78380441Y-69978556D01*
X78349341Y-69993289D01*
X78330013Y-70001439D01*
X78300692Y-70011763D01*
X78286896Y-70013548D01*
X78286704Y-70013240D01*
X78295902Y-70005707D01*
X78320268Y-69993623D01*
X78351075Y-69980677D01*
X78379600Y-69970557D01*
X78397117Y-69966951D01*
X78396753Y-69968934D01*
G37*
G36*
X78409229Y-70005144D02*
G01*
X78413163Y-70008190D01*
X78399139Y-70017919D01*
X78364273Y-70036386D01*
X78357101Y-70039939D01*
X78332043Y-70050477D01*
X78321918Y-70051410D01*
X78322679Y-70049724D01*
X78337456Y-70038385D01*
X78363394Y-70023541D01*
X78390343Y-70010639D01*
X78408153Y-70005128D01*
X78409229Y-70005144D01*
G37*
G36*
X78484809Y-69796333D02*
G01*
X78461405Y-69810537D01*
X78428550Y-69827874D01*
X78394272Y-69844342D01*
X78366602Y-69855940D01*
X78353567Y-69858669D01*
X78359553Y-69852364D01*
X78383485Y-69837831D01*
X78420024Y-69818837D01*
X78453256Y-69803252D01*
X78480772Y-69791985D01*
X78491338Y-69790017D01*
X78484809Y-69796333D01*
G37*
G36*
X78398914Y-71960445D02*
G01*
X78420087Y-71970355D01*
X78446317Y-71991965D01*
X78449438Y-71995136D01*
X78469831Y-72018964D01*
X78478016Y-72034320D01*
X78471393Y-72033674D01*
X78455209Y-72017062D01*
X78435377Y-71996628D01*
X78406628Y-71975103D01*
X78393641Y-71965530D01*
X78397446Y-71960373D01*
X78398914Y-71960445D01*
G37*
G36*
X78960493Y-72098036D02*
G01*
X78986566Y-72109848D01*
X78990165Y-72111737D01*
X79015352Y-72126852D01*
X79025663Y-72136582D01*
X79025405Y-72137197D01*
X79012639Y-72134692D01*
X78986566Y-72122881D01*
X78982967Y-72120992D01*
X78957781Y-72105877D01*
X78947469Y-72096147D01*
X78947727Y-72095532D01*
X78960493Y-72098036D01*
G37*
G36*
X79127255Y-71340603D02*
G01*
X79110800Y-71359658D01*
X79084309Y-71386554D01*
X79068150Y-71401791D01*
X79046983Y-71419950D01*
X79038695Y-71424248D01*
X79041362Y-71419473D01*
X79057817Y-71400419D01*
X79084309Y-71373522D01*
X79100467Y-71358285D01*
X79121635Y-71340126D01*
X79129922Y-71335828D01*
X79127255Y-71340603D01*
G37*
G36*
X79051720Y-72150166D02*
G01*
X79077792Y-72161978D01*
X79081392Y-72163866D01*
X79106578Y-72178981D01*
X79116889Y-72188712D01*
X79116632Y-72189326D01*
X79103865Y-72186822D01*
X79077792Y-72175010D01*
X79074193Y-72173121D01*
X79049007Y-72158006D01*
X79038695Y-72148276D01*
X79038953Y-72147661D01*
X79051720Y-72150166D01*
G37*
G36*
X79206962Y-71047997D02*
G01*
X79232745Y-71061425D01*
X79257704Y-71093327D01*
X79263112Y-71103331D01*
X79272392Y-71130101D01*
X79263503Y-71138388D01*
X79262478Y-71138170D01*
X79249890Y-71126859D01*
X79232768Y-71104188D01*
X79216238Y-71078147D01*
X79205426Y-71056726D01*
X79205458Y-71047913D01*
X79206962Y-71047997D01*
G37*
G36*
X79924736Y-72223384D02*
G01*
X79914231Y-72237423D01*
X79892313Y-72259720D01*
X79888036Y-72263681D01*
X79867915Y-72280431D01*
X79859732Y-72283812D01*
X79859889Y-72283024D01*
X79870394Y-72268985D01*
X79892313Y-72246688D01*
X79896589Y-72242726D01*
X79916711Y-72225976D01*
X79924894Y-72222596D01*
X79924736Y-72223384D01*
G37*
G36*
X80027914Y-70670136D02*
G01*
X80023955Y-70677309D01*
X80000459Y-70693437D01*
X79960732Y-70716201D01*
X79958749Y-70717266D01*
X79934772Y-70728521D01*
X79924894Y-70730044D01*
X79931888Y-70722850D01*
X79954332Y-70707567D01*
X79983605Y-70690117D01*
X80010708Y-70675816D01*
X80026639Y-70669976D01*
X80027914Y-70670136D01*
G37*
G36*
X80180833Y-71909754D02*
G01*
X80171718Y-71918556D01*
X80146443Y-71933912D01*
X80137647Y-71938601D01*
X80106778Y-71953060D01*
X80087798Y-71958884D01*
X80085989Y-71958070D01*
X80095103Y-71949268D01*
X80120378Y-71933912D01*
X80129175Y-71929223D01*
X80160044Y-71914764D01*
X80179024Y-71908940D01*
X80180833Y-71909754D01*
G37*
G36*
X80172342Y-72266252D02*
G01*
X80159798Y-72276937D01*
X80133411Y-72292301D01*
X80128923Y-72294579D01*
X80104339Y-72305163D01*
X80094314Y-72306002D01*
X80094479Y-72305317D01*
X80107023Y-72294633D01*
X80133411Y-72279268D01*
X80137899Y-72276991D01*
X80162482Y-72266406D01*
X80172508Y-72265567D01*
X80172342Y-72266252D01*
G37*
G36*
X80334836Y-71830584D02*
G01*
X80332952Y-71832869D01*
X80315441Y-71845976D01*
X80287798Y-71862530D01*
X80258079Y-71878212D01*
X80234340Y-71888701D01*
X80224637Y-71889678D01*
X80228952Y-71885144D01*
X80250330Y-71870646D01*
X80283591Y-71851061D01*
X80306622Y-71838881D01*
X80329227Y-71829212D01*
X80334836Y-71830584D01*
G37*
G36*
X80521166Y-71305511D02*
G01*
X80501901Y-71319521D01*
X80472181Y-71337771D01*
X80440079Y-71355646D01*
X80413672Y-71368531D01*
X80401032Y-71371808D01*
X80405113Y-71366286D01*
X80426376Y-71351269D01*
X80460266Y-71331132D01*
X80487711Y-71316386D01*
X80514158Y-71303786D01*
X80524380Y-71301299D01*
X80521166Y-71305511D01*
G37*
G36*
X81147265Y-71106021D02*
G01*
X81130811Y-71125076D01*
X81104319Y-71151972D01*
X81088160Y-71167209D01*
X81066993Y-71185368D01*
X81058706Y-71189666D01*
X81061372Y-71184892D01*
X81077827Y-71165837D01*
X81104319Y-71138940D01*
X81120478Y-71123703D01*
X81141645Y-71105545D01*
X81149932Y-71101246D01*
X81147265Y-71106021D01*
G37*
G36*
X79038695Y-69383614D02*
G01*
X79035004Y-69396986D01*
X79015889Y-69416412D01*
X78991600Y-69426816D01*
X78958321Y-69436176D01*
X78932063Y-69438872D01*
X78921405Y-69433367D01*
X78931352Y-69422699D01*
X78957243Y-69412555D01*
X78985567Y-69402005D01*
X79015889Y-69383057D01*
X79025874Y-69374372D01*
X79036599Y-69369656D01*
X79038695Y-69383614D01*
G37*
G36*
X79383023Y-71615012D02*
G01*
X79399291Y-71639844D01*
X79418942Y-71676523D01*
X79435425Y-71712220D01*
X79445923Y-71742427D01*
X79444312Y-71753675D01*
X79430277Y-71744074D01*
X79424696Y-71736880D01*
X79410506Y-71711357D01*
X79395313Y-71677904D01*
X79382276Y-71644335D01*
X79374553Y-71618464D01*
X79375304Y-71608104D01*
X79383023Y-71615012D01*
G37*
G36*
X79698291Y-70706506D02*
G01*
X79686740Y-70715480D01*
X79658406Y-70727895D01*
X79624028Y-70738650D01*
X79593548Y-70744742D01*
X79576906Y-70743167D01*
X79577685Y-70740401D01*
X79594798Y-70731719D01*
X79627093Y-70721442D01*
X79642656Y-70717120D01*
X79676579Y-70706587D01*
X79695583Y-70699023D01*
X79700032Y-70697368D01*
X79698291Y-70706506D01*
G37*
G36*
X77766885Y-70580500D02*
G01*
X77768302Y-70600091D01*
X77769204Y-70633938D01*
X77769163Y-70650307D01*
X77767652Y-70669190D01*
X77764739Y-70666359D01*
X77759876Y-70654769D01*
X77748031Y-70650515D01*
X77746874Y-70651051D01*
X77744046Y-70642726D01*
X77750293Y-70618093D01*
X77751153Y-70615637D01*
X77761002Y-70589362D01*
X77766281Y-70578550D01*
X77766885Y-70580500D01*
G37*
G36*
X79282793Y-69350335D02*
G01*
X79286064Y-69356588D01*
X79298283Y-69360682D01*
X79302790Y-69359996D01*
X79308030Y-69373060D01*
X79306918Y-69380882D01*
X79298283Y-69385438D01*
X79293712Y-69384424D01*
X79282793Y-69395786D01*
X79282327Y-69396985D01*
X79278585Y-69395222D01*
X79277050Y-69373060D01*
X79277069Y-69369942D01*
X79278895Y-69349672D01*
X79282793Y-69350335D01*
G37*
G36*
X78137448Y-70071379D02*
G01*
X78128798Y-70077776D01*
X78102123Y-70091766D01*
X78062612Y-70110606D01*
X78059285Y-70112132D01*
X78018095Y-70130024D01*
X77987646Y-70141475D01*
X77974317Y-70144067D01*
X77974531Y-70142945D01*
X77988415Y-70133908D01*
X78017222Y-70119393D01*
X78053723Y-70102635D01*
X78090684Y-70086869D01*
X78120876Y-70075331D01*
X78137066Y-70071255D01*
X78137448Y-70071379D01*
G37*
G36*
X78067008Y-71712617D02*
G01*
X78093289Y-71721487D01*
X78128257Y-71741930D01*
X78162272Y-71768392D01*
X78182530Y-71792653D01*
X78191402Y-71815635D01*
X78191382Y-71816530D01*
X78186639Y-71821757D01*
X78174865Y-71803865D01*
X78169552Y-71795428D01*
X78142464Y-71767497D01*
X78106637Y-71742175D01*
X78090205Y-71732522D01*
X78069015Y-71718275D01*
X78065386Y-71712577D01*
X78067008Y-71712617D01*
G37*
G36*
X77888910Y-70967423D02*
G01*
X77890220Y-70992846D01*
X77890250Y-70993994D01*
X77886064Y-71024178D01*
X77874953Y-71062013D01*
X77860171Y-71099251D01*
X77844971Y-71127643D01*
X77832606Y-71138940D01*
X77831798Y-71138286D01*
X77835517Y-71123899D01*
X77848364Y-71096585D01*
X77850267Y-71092854D01*
X77867635Y-71048719D01*
X77879648Y-71002101D01*
X77882451Y-70985922D01*
X77886796Y-70964699D01*
X77888910Y-70967423D01*
G37*
G36*
X79147703Y-70141099D02*
G01*
X79151975Y-70167673D01*
X79154901Y-70211070D01*
X79155986Y-70265774D01*
X79155558Y-70303647D01*
X79153544Y-70351331D01*
X79150255Y-70383987D01*
X79146109Y-70396098D01*
X79143161Y-70390455D01*
X79139179Y-70363883D01*
X79136105Y-70320483D01*
X79134431Y-70265774D01*
X79134415Y-70227868D01*
X79136138Y-70180200D01*
X79139575Y-70147557D01*
X79144309Y-70135451D01*
X79147703Y-70141099D01*
G37*
G36*
X80888688Y-69779278D02*
G01*
X80925349Y-69789598D01*
X80972444Y-69804678D01*
X80988516Y-69810168D01*
X81030826Y-69825588D01*
X81059224Y-69837445D01*
X81068262Y-69843528D01*
X81066362Y-69843889D01*
X81046271Y-69840008D01*
X81009610Y-69829688D01*
X80962515Y-69814608D01*
X80946443Y-69809118D01*
X80904133Y-69793698D01*
X80875735Y-69781841D01*
X80866697Y-69775758D01*
X80868597Y-69775397D01*
X80888688Y-69779278D01*
G37*
G36*
X79671241Y-70935290D02*
G01*
X79706828Y-70966668D01*
X79747269Y-71012303D01*
X79786727Y-71065823D01*
X79796728Y-71081462D01*
X79813636Y-71112218D01*
X79820059Y-71130984D01*
X79818517Y-71132949D01*
X79808616Y-71121831D01*
X79792701Y-71094671D01*
X79773697Y-71064820D01*
X79740074Y-71021698D01*
X79702400Y-70980367D01*
X79697772Y-70975711D01*
X79671521Y-70947829D01*
X79658450Y-70931110D01*
X79661338Y-70929029D01*
X79671241Y-70935290D01*
G37*
G36*
X81053172Y-71210755D02*
G01*
X81036387Y-71232165D01*
X81009084Y-71264008D01*
X80975279Y-71301803D01*
X80938987Y-71341071D01*
X80904226Y-71377331D01*
X80875011Y-71406103D01*
X80867812Y-71412629D01*
X80862691Y-71415279D01*
X80873180Y-71401371D01*
X80897820Y-71372728D01*
X80935149Y-71331167D01*
X80944600Y-71320809D01*
X80986743Y-71275114D01*
X81021640Y-71238047D01*
X81045890Y-71213184D01*
X81056087Y-71204102D01*
X81053172Y-71210755D01*
G37*
G36*
X79112469Y-71431296D02*
G01*
X79098486Y-71448458D01*
X79088296Y-71461862D01*
X79083521Y-71475888D01*
X79095828Y-71473850D01*
X79122379Y-71454974D01*
X79139882Y-71440505D01*
X79141456Y-71441267D01*
X79125459Y-71460589D01*
X79102837Y-71479198D01*
X79076588Y-71487139D01*
X79062636Y-71485833D01*
X79051728Y-71483795D01*
X79052182Y-71483160D01*
X79064208Y-71471649D01*
X79087473Y-71450729D01*
X79090756Y-71447831D01*
X79110407Y-71430981D01*
X79112469Y-71431296D01*
G37*
G36*
X78914591Y-71360434D02*
G01*
X78914173Y-71369677D01*
X78898980Y-71389812D01*
X78892604Y-71397045D01*
X78865880Y-71430774D01*
X78838752Y-71468810D01*
X78805491Y-71518485D01*
X78808443Y-71472337D01*
X78808719Y-71468773D01*
X78816297Y-71433306D01*
X78829221Y-71409630D01*
X78833490Y-71405780D01*
X78842392Y-71401739D01*
X78838495Y-71419135D01*
X78836836Y-71427005D01*
X78844295Y-71425745D01*
X78865900Y-71402727D01*
X78875117Y-71392282D01*
X78898732Y-71369430D01*
X78913902Y-71360372D01*
X78914591Y-71360434D01*
G37*
G36*
X79926778Y-70854077D02*
G01*
X79930688Y-70875877D01*
X79930086Y-70878984D01*
X79924756Y-70908962D01*
X79918369Y-70947440D01*
X79916681Y-70956381D01*
X79898158Y-71003296D01*
X79868600Y-71035653D01*
X79832898Y-71047714D01*
X79818109Y-71044939D01*
X79814119Y-71034681D01*
X79821601Y-71028014D01*
X79845888Y-71021649D01*
X79856948Y-71019006D01*
X79878017Y-70996325D01*
X79893322Y-70953899D01*
X79901016Y-70895940D01*
X79901545Y-70887618D01*
X79907770Y-70855136D01*
X79919405Y-70847910D01*
X79926778Y-70854077D01*
G37*
G36*
X79314248Y-71165504D02*
G01*
X79333776Y-71181659D01*
X79357238Y-71216826D01*
X79382233Y-71265882D01*
X79406361Y-71323710D01*
X79427220Y-71385189D01*
X79442411Y-71445200D01*
X79445366Y-71461444D01*
X79451297Y-71508874D01*
X79454006Y-71555465D01*
X79453482Y-71594962D01*
X79449716Y-71621109D01*
X79442698Y-71627652D01*
X79437037Y-71616488D01*
X79431719Y-71585341D01*
X79429665Y-71542846D01*
X79426303Y-71495895D01*
X79412206Y-71420745D01*
X79389802Y-71342131D01*
X79362019Y-71269894D01*
X79331785Y-71213876D01*
X79321773Y-71198244D01*
X79310019Y-71174397D01*
X79311017Y-71165005D01*
X79314248Y-71165504D01*
G37*
G36*
X79142954Y-69324857D02*
G01*
X79142702Y-69325866D01*
X79127717Y-69334423D01*
X79094170Y-69344026D01*
X79048470Y-69352782D01*
X78995563Y-69361002D01*
X78946113Y-69368705D01*
X78911630Y-69374099D01*
X78880801Y-69382924D01*
X78869431Y-69396544D01*
X78882308Y-69412157D01*
X78890660Y-69419955D01*
X78894470Y-69436437D01*
X78882766Y-69444738D01*
X78871518Y-69438529D01*
X78855429Y-69417153D01*
X78849862Y-69404013D01*
X78851249Y-69382330D01*
X78871425Y-69365664D01*
X78912814Y-69352515D01*
X78977839Y-69341382D01*
X78985906Y-69340267D01*
X79038646Y-69332474D01*
X79083474Y-69325064D01*
X79111420Y-69319504D01*
X79132304Y-69317450D01*
X79142954Y-69324857D01*
G37*
G36*
X79034416Y-69840160D02*
G01*
X79035056Y-69857400D01*
X79026332Y-69886222D01*
X79020811Y-69900953D01*
X79018235Y-69928891D01*
X79032368Y-69957973D01*
X79036938Y-69965502D01*
X79055507Y-70003851D01*
X79071678Y-70047139D01*
X79080158Y-70075325D01*
X79088400Y-70110526D01*
X79087941Y-70130494D01*
X79079252Y-70141065D01*
X79075650Y-70140831D01*
X79066741Y-70124837D01*
X79059370Y-70092963D01*
X79056453Y-70078120D01*
X79040707Y-70028325D01*
X79019033Y-69981377D01*
X79006339Y-69958381D01*
X78995270Y-69931063D01*
X78995776Y-69908107D01*
X79006505Y-69878376D01*
X79010916Y-69868472D01*
X79024636Y-69845174D01*
X79034105Y-69839805D01*
X79034416Y-69840160D01*
G37*
G36*
X79571320Y-69335743D02*
G01*
X79577517Y-69343737D01*
X79577267Y-69348670D01*
X79591800Y-69353512D01*
X79602968Y-69353923D01*
X79610135Y-69358098D01*
X79599741Y-69369726D01*
X79569763Y-69392369D01*
X79545420Y-69409285D01*
X79539439Y-69410763D01*
X79550214Y-69397052D01*
X79553606Y-69393125D01*
X79571348Y-69368644D01*
X79570856Y-69360299D01*
X79554382Y-69368413D01*
X79524177Y-69393310D01*
X79506850Y-69409152D01*
X79491252Y-69422691D01*
X79493021Y-69418978D01*
X79511145Y-69398412D01*
X79526974Y-69379727D01*
X79543507Y-69355588D01*
X79546396Y-69343386D01*
X79533924Y-69346995D01*
X79528957Y-69349122D01*
X79520891Y-69342627D01*
X79528392Y-69335034D01*
X79552222Y-69332084D01*
X79571320Y-69335743D01*
G37*
G36*
X80791852Y-71475324D02*
G01*
X80787117Y-71480494D01*
X80759838Y-71505469D01*
X80720107Y-71538022D01*
X80674765Y-71572475D01*
X80663283Y-71580923D01*
X80605480Y-71624582D01*
X80542226Y-71673745D01*
X80485283Y-71719297D01*
X80454818Y-71743870D01*
X80414231Y-71775628D01*
X80381458Y-71800174D01*
X80359644Y-71815253D01*
X80351935Y-71818612D01*
X80361476Y-71807997D01*
X80369774Y-71800284D01*
X80408663Y-71766566D01*
X80460693Y-71723755D01*
X80519817Y-71676689D01*
X80579987Y-71630203D01*
X80635155Y-71589136D01*
X80659445Y-71571363D01*
X80708481Y-71534643D01*
X80750466Y-71502159D01*
X80778307Y-71479348D01*
X80780633Y-71477308D01*
X80801562Y-71459577D01*
X80804833Y-71459055D01*
X80791852Y-71475324D01*
G37*
G36*
X78889843Y-71229568D02*
G01*
X78885650Y-71241570D01*
X78882397Y-71244160D01*
X78865543Y-71266035D01*
X78850077Y-71294941D01*
X78843561Y-71317278D01*
X78845978Y-71318196D01*
X78860508Y-71306830D01*
X78883741Y-71282296D01*
X78923571Y-71236683D01*
X78883391Y-71297676D01*
X78869441Y-71319269D01*
X78850018Y-71352159D01*
X78844769Y-71366363D01*
X78853850Y-71360922D01*
X78877413Y-71334874D01*
X78885965Y-71325030D01*
X78908596Y-71303550D01*
X78917361Y-71302322D01*
X78910899Y-71319142D01*
X78887851Y-71351804D01*
X78868398Y-71372792D01*
X78842153Y-71388542D01*
X78823955Y-71383253D01*
X78817146Y-71356694D01*
X78817347Y-71352158D01*
X78824295Y-71321842D01*
X78838349Y-71286567D01*
X78855681Y-71253759D01*
X78872467Y-71230841D01*
X78884880Y-71225240D01*
X78889843Y-71229568D01*
G37*
G36*
X79781246Y-70559002D02*
G01*
X79782747Y-70575012D01*
X79782548Y-70596439D01*
X79784532Y-70601232D01*
X79800554Y-70599697D01*
X79820677Y-70591889D01*
X79843191Y-70584845D01*
X79844812Y-70587554D01*
X79823893Y-70599995D01*
X79817927Y-70603311D01*
X79792046Y-70622450D01*
X79781538Y-70638804D01*
X79783027Y-70642813D01*
X79800429Y-70641512D01*
X79836925Y-70623565D01*
X79855615Y-70613284D01*
X79887150Y-70597935D01*
X79905345Y-70591895D01*
X79905880Y-70591945D01*
X79900308Y-70598587D01*
X79876863Y-70614225D01*
X79840183Y-70635738D01*
X79838217Y-70636840D01*
X79799570Y-70658177D01*
X79771805Y-70672921D01*
X79760817Y-70677938D01*
X79761150Y-70670824D01*
X79763964Y-70644093D01*
X79768756Y-70604615D01*
X79773254Y-70574985D01*
X79778077Y-70556125D01*
X79781246Y-70559002D01*
G37*
G36*
X79466004Y-70783352D02*
G01*
X79504064Y-70786728D01*
X79530479Y-70793292D01*
X79550761Y-70803658D01*
X79563953Y-70812439D01*
X79582427Y-70827616D01*
X79579171Y-70835961D01*
X79554662Y-70842159D01*
X79550161Y-70842962D01*
X79530912Y-70842227D01*
X79530812Y-70828508D01*
X79533056Y-70818075D01*
X79524007Y-70817723D01*
X79517757Y-70820123D01*
X79501453Y-70813309D01*
X79492504Y-70807155D01*
X79466399Y-70814397D01*
X79449963Y-70821128D01*
X79447691Y-70815596D01*
X79447836Y-70813134D01*
X79431095Y-70808165D01*
X79389078Y-70806586D01*
X79322209Y-70808420D01*
X79264880Y-70810369D01*
X79223541Y-70809903D01*
X79203699Y-70806497D01*
X79203018Y-70799985D01*
X79213082Y-70795550D01*
X79247088Y-70789727D01*
X79299707Y-70785407D01*
X79366457Y-70783054D01*
X79410789Y-70782548D01*
X79466004Y-70783352D01*
G37*
G36*
X78593734Y-69804766D02*
G01*
X78586965Y-69817559D01*
X78583084Y-69823626D01*
X78573946Y-69843569D01*
X78583241Y-69847063D01*
X78612744Y-69835331D01*
X78625492Y-69829653D01*
X78627780Y-69830838D01*
X78608912Y-69845105D01*
X78567844Y-69877726D01*
X78539727Y-69909581D01*
X78534940Y-69932909D01*
X78535630Y-69935424D01*
X78534004Y-69961272D01*
X78524955Y-69997223D01*
X78511935Y-70031857D01*
X78498397Y-70053756D01*
X78496561Y-70054822D01*
X78493551Y-70045055D01*
X78497145Y-70018160D01*
X78504735Y-69979445D01*
X78508032Y-69950609D01*
X78504425Y-69938102D01*
X78493707Y-69937005D01*
X78490107Y-69936206D01*
X78493189Y-69922499D01*
X78509997Y-69896678D01*
X78518103Y-69885790D01*
X78536232Y-69858956D01*
X78543467Y-69844064D01*
X78543435Y-69843832D01*
X78531844Y-69845400D01*
X78503394Y-69856719D01*
X78463954Y-69875470D01*
X78462619Y-69876144D01*
X78422605Y-69895465D01*
X78393086Y-69908155D01*
X78380366Y-69911497D01*
X78384258Y-69907630D01*
X78406370Y-69893774D01*
X78443795Y-69872618D01*
X78491842Y-69846882D01*
X78537243Y-69823414D01*
X78572019Y-69806724D01*
X78589801Y-69800831D01*
X78593734Y-69804766D01*
G37*
G36*
X75770209Y-69125510D02*
G01*
X75790844Y-69145102D01*
X75819553Y-69179197D01*
X75852463Y-69223431D01*
X75865770Y-69242203D01*
X75909554Y-69301195D01*
X75947084Y-69344950D01*
X75984181Y-69379003D01*
X76026665Y-69408888D01*
X76080358Y-69440141D01*
X76127641Y-69467551D01*
X76175396Y-69497617D01*
X76210681Y-69522359D01*
X76237731Y-69541097D01*
X76284957Y-69569164D01*
X76334488Y-69594789D01*
X76373790Y-69614000D01*
X76410141Y-69633104D01*
X76431051Y-69645751D01*
X76434623Y-69650982D01*
X76424123Y-69656761D01*
X76392686Y-69660778D01*
X76337756Y-69663519D01*
X76332914Y-69663692D01*
X76274583Y-69667728D01*
X76233496Y-69674418D01*
X76214048Y-69683068D01*
X76211326Y-69687336D01*
X76198226Y-69713066D01*
X76179479Y-69753883D01*
X76158184Y-69803127D01*
X76150426Y-69821316D01*
X76129384Y-69868101D01*
X76111718Y-69903911D01*
X76100619Y-69922149D01*
X76080835Y-69931422D01*
X76041222Y-69941284D01*
X75988264Y-69950650D01*
X75928340Y-69958546D01*
X75867832Y-69963997D01*
X75813118Y-69966031D01*
X75761209Y-69962788D01*
X75693386Y-69948588D01*
X75617102Y-69921464D01*
X75526484Y-69879646D01*
X75488065Y-69859254D01*
X75435324Y-69825508D01*
X75401549Y-69795230D01*
X75389645Y-69770731D01*
X75394461Y-69764035D01*
X75416073Y-69743708D01*
X75451076Y-69714162D01*
X75495087Y-69679201D01*
X75499949Y-69675429D01*
X75571728Y-69615563D01*
X75625904Y-69559170D01*
X75665734Y-69500350D01*
X75694472Y-69433201D01*
X75715373Y-69351823D01*
X75731693Y-69250315D01*
X75736269Y-69219380D01*
X75745519Y-69171114D01*
X75754907Y-69136877D01*
X75762977Y-69122612D01*
X75770209Y-69125510D01*
G37*
G36*
X78898324Y-71437274D02*
G01*
X78883178Y-71466450D01*
X78880075Y-71471771D01*
X78866772Y-71502527D01*
X78864710Y-71523777D01*
X78866076Y-71531021D01*
X78857131Y-71548909D01*
X78848672Y-71557125D01*
X78842643Y-71578841D01*
X78848831Y-71598719D01*
X78865545Y-71605417D01*
X78879664Y-71607261D01*
X78892310Y-71627652D01*
X78892360Y-71627948D01*
X78893036Y-71643941D01*
X78884822Y-71636334D01*
X78873760Y-71626678D01*
X78864573Y-71640658D01*
X78858556Y-71659422D01*
X78857753Y-71679446D01*
X78868836Y-71680053D01*
X78868898Y-71680015D01*
X78875208Y-71687892D01*
X78878472Y-71718731D01*
X78878376Y-71769596D01*
X78878206Y-71775141D01*
X78877480Y-71822163D01*
X78879383Y-71847768D01*
X78884732Y-71856161D01*
X78894349Y-71851546D01*
X78904160Y-71845055D01*
X78905218Y-71849824D01*
X78902767Y-71858942D01*
X78909033Y-71882405D01*
X78914478Y-71892713D01*
X78921205Y-71917212D01*
X78915877Y-71928275D01*
X78900247Y-71924227D01*
X78880065Y-71906471D01*
X78861201Y-71878769D01*
X78858385Y-71873169D01*
X78850528Y-71851733D01*
X78856563Y-71849399D01*
X78857839Y-71850157D01*
X78866328Y-71849336D01*
X78861965Y-71828027D01*
X78861898Y-71827822D01*
X78855282Y-71792600D01*
X78853466Y-71751459D01*
X78853733Y-71730926D01*
X78851263Y-71720045D01*
X78844552Y-71731911D01*
X78838663Y-71745531D01*
X78832307Y-71748706D01*
X78824514Y-71728027D01*
X78821170Y-71706094D01*
X78826796Y-71682414D01*
X78833446Y-71670155D01*
X78839465Y-71642997D01*
X78837677Y-71618656D01*
X78827918Y-71608104D01*
X78821130Y-71602424D01*
X78820156Y-71579243D01*
X78827483Y-71544705D01*
X78841444Y-71505898D01*
X78860376Y-71469908D01*
X78867022Y-71459975D01*
X78887290Y-71434485D01*
X78898709Y-71426768D01*
X78898324Y-71437274D01*
G37*
G36*
X76190522Y-67708659D02*
G01*
X76197649Y-67718000D01*
X76196248Y-67719355D01*
X76179687Y-67731708D01*
X76148404Y-67753927D01*
X76107369Y-67782464D01*
X76034675Y-67840749D01*
X75942898Y-67939163D01*
X75855613Y-68061808D01*
X75773549Y-68207758D01*
X75760820Y-68233266D01*
X75723447Y-68312879D01*
X75697615Y-68378750D01*
X75681425Y-68437343D01*
X75672975Y-68495119D01*
X75670364Y-68558540D01*
X75670352Y-68561378D01*
X75671448Y-68620364D01*
X75676556Y-68663814D01*
X75687640Y-68701778D01*
X75706664Y-68744306D01*
X75746895Y-68808733D01*
X75807665Y-68873411D01*
X75838484Y-68900659D01*
X75862602Y-68924676D01*
X75871841Y-68937719D01*
X75868726Y-68941417D01*
X75847117Y-68949652D01*
X75811705Y-68956930D01*
X75793611Y-68959035D01*
X75744971Y-68956342D01*
X75696678Y-68938365D01*
X75640516Y-68902492D01*
X75630363Y-68895344D01*
X75615386Y-68889695D01*
X75604224Y-68900494D01*
X75590160Y-68931629D01*
X75589850Y-68932371D01*
X75573095Y-68970215D01*
X75549697Y-69020395D01*
X75524618Y-69072258D01*
X75486904Y-69168051D01*
X75459940Y-69280776D01*
X75458950Y-69286461D01*
X75444590Y-69352490D01*
X75427079Y-69410695D01*
X75409112Y-69452004D01*
X75381750Y-69490963D01*
X75335361Y-69542966D01*
X75281786Y-69593162D01*
X75229258Y-69633255D01*
X75226640Y-69634966D01*
X75203008Y-69647753D01*
X75184790Y-69645681D01*
X75159337Y-69627755D01*
X75141418Y-69615148D01*
X75090747Y-69586238D01*
X75026711Y-69555370D01*
X74957064Y-69526151D01*
X74889560Y-69502193D01*
X74857139Y-69490823D01*
X74827609Y-69477491D01*
X74816222Y-69467985D01*
X74821212Y-69455724D01*
X74837303Y-69425191D01*
X74861866Y-69381726D01*
X74892175Y-69330268D01*
X74918924Y-69284254D01*
X74961027Y-69208005D01*
X75003530Y-69127423D01*
X75040397Y-69053768D01*
X75067632Y-69000150D01*
X75109633Y-68924379D01*
X75153215Y-68851943D01*
X75192385Y-68793122D01*
X75194201Y-68790597D01*
X75233562Y-68735159D01*
X75281280Y-68666966D01*
X75331500Y-68594428D01*
X75378364Y-68525959D01*
X75392404Y-68505380D01*
X75431083Y-68449555D01*
X75464999Y-68401814D01*
X75490904Y-68366682D01*
X75505554Y-68348684D01*
X75507858Y-68346314D01*
X75527238Y-68325107D01*
X75558910Y-68289484D01*
X75599035Y-68243787D01*
X75643775Y-68192358D01*
X75696973Y-68131499D01*
X75793795Y-68024417D01*
X75878732Y-67936111D01*
X75953661Y-67864750D01*
X76020461Y-67808498D01*
X76081012Y-67765521D01*
X76105458Y-67750315D01*
X76146695Y-67726464D01*
X76176673Y-67711544D01*
X76190163Y-67708297D01*
X76190522Y-67708659D01*
G37*
G36*
X78556499Y-70089259D02*
G01*
X78557565Y-70095632D01*
X78569049Y-70122687D01*
X78569877Y-70124074D01*
X78589080Y-70156239D01*
X78597250Y-70168924D01*
X78614705Y-70201741D01*
X78621661Y-70224398D01*
X78628407Y-70245147D01*
X78647374Y-70271916D01*
X78662749Y-70289155D01*
X78664627Y-70297792D01*
X78648855Y-70299286D01*
X78635945Y-70296844D01*
X78629812Y-70285761D01*
X78625605Y-70271881D01*
X78605525Y-70253880D01*
X78589894Y-70244442D01*
X78583294Y-70243005D01*
X78593934Y-70257164D01*
X78602956Y-70270663D01*
X78602113Y-70278807D01*
X78599502Y-70282530D01*
X78608510Y-70298212D01*
X78619964Y-70307640D01*
X78638385Y-70309106D01*
X78645381Y-70307406D01*
X78644247Y-70321203D01*
X78642643Y-70332842D01*
X78649079Y-70341212D01*
X78655065Y-70348997D01*
X78665181Y-70356848D01*
X78673790Y-70381061D01*
X78677246Y-70397564D01*
X78694768Y-70423348D01*
X78705572Y-70435396D01*
X78701203Y-70445606D01*
X78695773Y-70449301D01*
X78696139Y-70465630D01*
X78697574Y-70468047D01*
X78707027Y-70493116D01*
X78709267Y-70516207D01*
X78703031Y-70526221D01*
X78694424Y-70524847D01*
X78665557Y-70503541D01*
X78635520Y-70456364D01*
X78633757Y-70452744D01*
X78649079Y-70452744D01*
X78663706Y-70468801D01*
X78680026Y-70482686D01*
X78692436Y-70486055D01*
X78689164Y-70477405D01*
X78669940Y-70462568D01*
X78653852Y-70453154D01*
X78649079Y-70452744D01*
X78633757Y-70452744D01*
X78627742Y-70440395D01*
X78621235Y-70421022D01*
X78629202Y-70423013D01*
X78640073Y-70429786D01*
X78647726Y-70425354D01*
X78644605Y-70415721D01*
X78628177Y-70396098D01*
X78617784Y-70384848D01*
X78608629Y-70362852D01*
X78606262Y-70351877D01*
X78591470Y-70328609D01*
X78574701Y-70309688D01*
X78551944Y-70276791D01*
X78537443Y-70247057D01*
X78535741Y-70228635D01*
X78536556Y-70226729D01*
X78535355Y-70204737D01*
X78526569Y-70176373D01*
X78569877Y-70176373D01*
X78582134Y-70194097D01*
X78595208Y-70212014D01*
X78604941Y-70225591D01*
X78606067Y-70226597D01*
X78608629Y-70217413D01*
X78604120Y-70205777D01*
X78585822Y-70185918D01*
X78574414Y-70177216D01*
X78569877Y-70176373D01*
X78526569Y-70176373D01*
X78525423Y-70172674D01*
X78521240Y-70161585D01*
X78513939Y-70131424D01*
X78530634Y-70131424D01*
X78531076Y-70135967D01*
X78543467Y-70155000D01*
X78550774Y-70159016D01*
X78555189Y-70156246D01*
X78543467Y-70135451D01*
X78535722Y-70126285D01*
X78530634Y-70131424D01*
X78513939Y-70131424D01*
X78511534Y-70121487D01*
X78511430Y-70089500D01*
X78521261Y-70073548D01*
X78521827Y-70073349D01*
X78535722Y-70072580D01*
X78547282Y-70071941D01*
X78556499Y-70089259D01*
G37*
G36*
X79713916Y-70162441D02*
G01*
X79738233Y-70169191D01*
X79757879Y-70187360D01*
X79781706Y-70222525D01*
X79798733Y-70250183D01*
X79810571Y-70275064D01*
X79810359Y-70291328D01*
X79799691Y-70306414D01*
X79789491Y-70323136D01*
X79787505Y-70342684D01*
X79795725Y-70352667D01*
X79811680Y-70345104D01*
X79818774Y-70339220D01*
X79839173Y-70330936D01*
X79840654Y-70336336D01*
X79824718Y-70350394D01*
X79813940Y-70358650D01*
X79803954Y-70376274D01*
X79812044Y-70402422D01*
X79817647Y-70413882D01*
X79831669Y-70431369D01*
X79850771Y-70431000D01*
X79882997Y-70414100D01*
X79918377Y-70393005D01*
X79885991Y-70419724D01*
X79873104Y-70431707D01*
X79862129Y-70450734D01*
X79872083Y-70457634D01*
X79900971Y-70448564D01*
X79917124Y-70440910D01*
X79922540Y-70440203D01*
X79907298Y-70453157D01*
X79904276Y-70455668D01*
X79888291Y-70476001D01*
X79892460Y-70487606D01*
X79911994Y-70487687D01*
X79942099Y-70473450D01*
X79983539Y-70446073D01*
X79944951Y-70479154D01*
X79922487Y-70501503D01*
X79915166Y-70518248D01*
X79929059Y-70520981D01*
X79962779Y-70507499D01*
X79968298Y-70504706D01*
X79993037Y-70494075D01*
X80003087Y-70493171D01*
X80002888Y-70493928D01*
X79990124Y-70504690D01*
X79963564Y-70520125D01*
X79958970Y-70522617D01*
X79936761Y-70539581D01*
X79931884Y-70553253D01*
X79934991Y-70556945D01*
X79951021Y-70558963D01*
X79951880Y-70558525D01*
X79955791Y-70566192D01*
X79951030Y-70591331D01*
X79944983Y-70615895D01*
X79947545Y-70628004D01*
X79964033Y-70623559D01*
X79998291Y-70603552D01*
X80013322Y-70594048D01*
X80035621Y-70576289D01*
X80039969Y-70560754D01*
X80029946Y-70540291D01*
X80026458Y-70535167D01*
X80014120Y-70528287D01*
X79994306Y-70540067D01*
X79980790Y-70550321D01*
X79978106Y-70550162D01*
X79992819Y-70532232D01*
X80004641Y-70512525D01*
X80007590Y-70477069D01*
X80005851Y-70456899D01*
X80018818Y-70448227D01*
X80022229Y-70448906D01*
X80037928Y-70465199D01*
X80051271Y-70497098D01*
X80058469Y-70528546D01*
X80064609Y-70573893D01*
X80066231Y-70615148D01*
X80063159Y-70645152D01*
X80055217Y-70656744D01*
X80046555Y-70648268D01*
X80042184Y-70623425D01*
X80042184Y-70590105D01*
X79986797Y-70623175D01*
X79968127Y-70635317D01*
X79941670Y-70657232D01*
X79931180Y-70673337D01*
X79931162Y-70673822D01*
X79922201Y-70695025D01*
X79901857Y-70721658D01*
X79883415Y-70749425D01*
X79871135Y-70802557D01*
X79871103Y-70803545D01*
X79869485Y-70851657D01*
X79867877Y-70897842D01*
X79866434Y-70916848D01*
X79859280Y-70939757D01*
X79847775Y-70937650D01*
X79833345Y-70910026D01*
X79821006Y-70856647D01*
X79828999Y-70795529D01*
X79862147Y-70733672D01*
X79877841Y-70710698D01*
X79897021Y-70677766D01*
X79905119Y-70656552D01*
X79906302Y-70648226D01*
X79915779Y-70621852D01*
X79916630Y-70620403D01*
X79920438Y-70596030D01*
X79908918Y-70577696D01*
X79887976Y-70575297D01*
X79878553Y-70578527D01*
X79873305Y-70576370D01*
X79885797Y-70559002D01*
X79894641Y-70547553D01*
X79897295Y-70539054D01*
X79880695Y-70543828D01*
X79871770Y-70547003D01*
X79863142Y-70546713D01*
X79874179Y-70531074D01*
X79883624Y-70517991D01*
X79878933Y-70513471D01*
X79853216Y-70518602D01*
X79829456Y-70523842D01*
X79824316Y-70521714D01*
X79839274Y-70509447D01*
X79853219Y-70498387D01*
X79855740Y-70487943D01*
X79836016Y-70475549D01*
X79812279Y-70468933D01*
X79783550Y-70473002D01*
X79763344Y-70487024D01*
X79760367Y-70507344D01*
X79760926Y-70513553D01*
X79748035Y-70513314D01*
X79715765Y-70498512D01*
X79683198Y-70480608D01*
X79666605Y-70468796D01*
X79672885Y-70467041D01*
X79702373Y-70475906D01*
X79707053Y-70477475D01*
X79741269Y-70481773D01*
X79773939Y-70467286D01*
X79792718Y-70452060D01*
X79800277Y-70435953D01*
X79787606Y-70431390D01*
X79758052Y-70443402D01*
X79722892Y-70464352D01*
X79752354Y-70439839D01*
X79766887Y-70426620D01*
X79774129Y-70410022D01*
X79763620Y-70389348D01*
X79757811Y-70380234D01*
X79740889Y-70343316D01*
X79729131Y-70302878D01*
X79724677Y-70267878D01*
X79729668Y-70247270D01*
X79738553Y-70244493D01*
X79742441Y-70263577D01*
X79742549Y-70266834D01*
X79753201Y-70292390D01*
X79774782Y-70302963D01*
X79798053Y-70293569D01*
X79806114Y-70283197D01*
X79798055Y-70278807D01*
X79788709Y-70274882D01*
X79775751Y-70255039D01*
X79763863Y-70231796D01*
X79741725Y-70202847D01*
X79724393Y-70187497D01*
X79699680Y-70179763D01*
X79661685Y-70182986D01*
X79640667Y-70185832D01*
X79618755Y-70185240D01*
X79617407Y-70176533D01*
X79622126Y-70172452D01*
X79647602Y-70164624D01*
X79684852Y-70161516D01*
X79713916Y-70162441D01*
G37*
G36*
X80065636Y-72109597D02*
G01*
X80037824Y-72123259D01*
X79990332Y-72142325D01*
X79952421Y-72157762D01*
X79923090Y-72172357D01*
X79911861Y-72181721D01*
X79912401Y-72185279D01*
X79926317Y-72197640D01*
X79948794Y-72200648D01*
X79966007Y-72191742D01*
X79974118Y-72181730D01*
X79976823Y-72191580D01*
X79985498Y-72206625D01*
X80009604Y-72222994D01*
X80028316Y-72235564D01*
X80042569Y-72263001D01*
X80035945Y-72291362D01*
X80008544Y-72312252D01*
X79994267Y-72320472D01*
X79982143Y-72337319D01*
X79984060Y-72351408D01*
X79986849Y-72351856D01*
X80001458Y-72354204D01*
X80013124Y-72353446D01*
X80014161Y-72362420D01*
X79996039Y-72381716D01*
X79960454Y-72409068D01*
X79938821Y-72423287D01*
X79922398Y-72431236D01*
X79923231Y-72425359D01*
X79931874Y-72410989D01*
X79927258Y-72403076D01*
X79924192Y-72403342D01*
X79905979Y-72415083D01*
X79904135Y-72417033D01*
X79882744Y-72428373D01*
X79843351Y-72443824D01*
X79791762Y-72461478D01*
X79733782Y-72479423D01*
X79675214Y-72495751D01*
X79621865Y-72508551D01*
X79557487Y-72517081D01*
X79513138Y-72511501D01*
X79488995Y-72492839D01*
X79484637Y-72462248D01*
X79485849Y-72458906D01*
X79507887Y-72458906D01*
X79512339Y-72477061D01*
X79521183Y-72482311D01*
X79547925Y-72487809D01*
X79576486Y-72487163D01*
X79593414Y-72479903D01*
X79596730Y-72476283D01*
X79613983Y-72475906D01*
X79615926Y-72476687D01*
X79635541Y-72471666D01*
X79661954Y-72453507D01*
X79669189Y-72447290D01*
X79682979Y-72436780D01*
X79680537Y-72441716D01*
X79674970Y-72448510D01*
X79664368Y-72468759D01*
X79671104Y-72474117D01*
X79692552Y-72460483D01*
X79694436Y-72458850D01*
X79709878Y-72448000D01*
X79710468Y-72453343D01*
X79708396Y-72457187D01*
X79709793Y-72465642D01*
X79731035Y-72461456D01*
X79742234Y-72457959D01*
X79819016Y-72431292D01*
X79876913Y-72404768D01*
X79884024Y-72400098D01*
X79943636Y-72400098D01*
X79954449Y-72399472D01*
X79974075Y-72384487D01*
X79986563Y-72370980D01*
X79986849Y-72366640D01*
X79966132Y-72376544D01*
X79947594Y-72389264D01*
X79943636Y-72400098D01*
X79884024Y-72400098D01*
X79922061Y-72375116D01*
X79960593Y-72339067D01*
X79986382Y-72310277D01*
X80007273Y-72284959D01*
X80014952Y-72272752D01*
X80014206Y-72269373D01*
X80007489Y-72249946D01*
X79997973Y-72236019D01*
X79986578Y-72236984D01*
X79985665Y-72257372D01*
X79984854Y-72275149D01*
X79968155Y-72299727D01*
X79958615Y-72307104D01*
X79950857Y-72311331D01*
X79959987Y-72298380D01*
X79966667Y-72286259D01*
X79963862Y-72259512D01*
X79953604Y-72250764D01*
X79937211Y-72256498D01*
X79909220Y-72279470D01*
X79866248Y-72318311D01*
X79907615Y-72272725D01*
X79948981Y-72227139D01*
X79916492Y-72203047D01*
X79886786Y-72188161D01*
X79858835Y-72185537D01*
X79844059Y-72187552D01*
X79833667Y-72182478D01*
X79830281Y-72174562D01*
X79812425Y-72173417D01*
X79784987Y-72185440D01*
X79754526Y-72208475D01*
X79739267Y-72224325D01*
X79722275Y-72247402D01*
X79714830Y-72264362D01*
X79718769Y-72270153D01*
X79735925Y-72259720D01*
X79747483Y-72252150D01*
X79755473Y-72253880D01*
X79755592Y-72254688D01*
X79765283Y-72252298D01*
X79785763Y-72235808D01*
X79787496Y-72234212D01*
X79797985Y-72227139D01*
X79807603Y-72227139D01*
X79814119Y-72233655D01*
X79820635Y-72227139D01*
X79814119Y-72220623D01*
X79807603Y-72227139D01*
X79797985Y-72227139D01*
X79811125Y-72218278D01*
X79814119Y-72218083D01*
X79826949Y-72217246D01*
X79830822Y-72220176D01*
X79830457Y-72214062D01*
X79836024Y-72204608D01*
X79860671Y-72200485D01*
X79867844Y-72200390D01*
X79898274Y-72199985D01*
X79870688Y-72229349D01*
X79867059Y-72233114D01*
X79842719Y-72250078D01*
X79821020Y-72246589D01*
X79834521Y-72246589D01*
X79849958Y-72235318D01*
X79855003Y-72231255D01*
X79871745Y-72213930D01*
X79867844Y-72207591D01*
X79861114Y-72212348D01*
X79845037Y-72230397D01*
X79837757Y-72239840D01*
X79834521Y-72246589D01*
X79821020Y-72246589D01*
X79820205Y-72246458D01*
X79803165Y-72241249D01*
X79781430Y-72253334D01*
X79770280Y-72262554D01*
X79751983Y-72264079D01*
X79746154Y-72261698D01*
X79747734Y-72270774D01*
X79757971Y-72278827D01*
X79782036Y-72272486D01*
X79786753Y-72270029D01*
X79801171Y-72265980D01*
X79799399Y-72278967D01*
X79797827Y-72282231D01*
X79776315Y-72296126D01*
X79740668Y-72296881D01*
X79698364Y-72284113D01*
X79683946Y-72278542D01*
X79659891Y-72278777D01*
X79631815Y-72296372D01*
X79601892Y-72323163D01*
X79572264Y-72355464D01*
X79557748Y-72374968D01*
X79555754Y-72384105D01*
X79569780Y-72383112D01*
X79583645Y-72380503D01*
X79634792Y-72372987D01*
X79676242Y-72370044D01*
X79702708Y-72371845D01*
X79708900Y-72378564D01*
X79707941Y-72386665D01*
X79725937Y-72384629D01*
X79743449Y-72382945D01*
X79769295Y-72399523D01*
X79774956Y-72407086D01*
X79780044Y-72415680D01*
X79768529Y-72406334D01*
X79763684Y-72402235D01*
X79743525Y-72390858D01*
X79735149Y-72394555D01*
X79744103Y-72412032D01*
X79750511Y-72420166D01*
X79753721Y-72429210D01*
X79735925Y-72423955D01*
X79706076Y-72413588D01*
X79661713Y-72406350D01*
X79629087Y-72416386D01*
X79602343Y-72444602D01*
X79594917Y-72454971D01*
X79579258Y-72472721D01*
X79573021Y-72472907D01*
X79576101Y-72462556D01*
X79592569Y-72442173D01*
X79610395Y-72421481D01*
X79603906Y-72409250D01*
X79573021Y-72405930D01*
X79572607Y-72405943D01*
X79545272Y-72409781D01*
X79533924Y-72417343D01*
X79539199Y-72422485D01*
X79560337Y-72422557D01*
X79575126Y-72421900D01*
X79579611Y-72429020D01*
X79570588Y-72434753D01*
X79546034Y-72435479D01*
X79542426Y-72435012D01*
X79520462Y-72441748D01*
X79507887Y-72458906D01*
X79485849Y-72458906D01*
X79499643Y-72420883D01*
X79533593Y-72369897D01*
X79586067Y-72310445D01*
X79656644Y-72243679D01*
X79744905Y-72170755D01*
X79763636Y-72162580D01*
X79802203Y-72154214D01*
X79812425Y-72153150D01*
X79849163Y-72149328D01*
X79884268Y-72146015D01*
X79948866Y-72134829D01*
X80005953Y-72119564D01*
X80021922Y-72114239D01*
X80058591Y-72103766D01*
X80072860Y-72102659D01*
X80065636Y-72109597D01*
G37*
G36*
X80223868Y-69895921D02*
G01*
X80241758Y-69898680D01*
X80272741Y-69906562D01*
X80326241Y-69917863D01*
X80378857Y-69927088D01*
X80381025Y-69927468D01*
X80411513Y-69932959D01*
X80501701Y-69960519D01*
X80588332Y-70006149D01*
X80677821Y-70072994D01*
X80731077Y-70121216D01*
X80817607Y-70219842D01*
X80879329Y-70322614D01*
X80915670Y-70428678D01*
X80923531Y-70491478D01*
X80922307Y-70571109D01*
X80911312Y-70648914D01*
X80891521Y-70713372D01*
X80865897Y-70761672D01*
X80823909Y-70825121D01*
X80773414Y-70891171D01*
X80719638Y-70953439D01*
X80667808Y-71005543D01*
X80623150Y-71041103D01*
X80592724Y-71061590D01*
X80557922Y-71087748D01*
X80536853Y-71107034D01*
X80509783Y-71132443D01*
X80461114Y-71152394D01*
X80406581Y-71148619D01*
X80348422Y-71121440D01*
X80288873Y-71071182D01*
X80261162Y-71040954D01*
X80212629Y-70975317D01*
X80179211Y-70905520D01*
X80158004Y-70824529D01*
X80146104Y-70725307D01*
X80143219Y-70692727D01*
X80133604Y-70615042D01*
X80120991Y-70537995D01*
X80107342Y-70474292D01*
X80089080Y-70400502D01*
X80066866Y-70297845D01*
X80053781Y-70213156D01*
X80049688Y-70142496D01*
X80051773Y-70115988D01*
X80071331Y-70115988D01*
X80071442Y-70171830D01*
X80079717Y-70242659D01*
X80096570Y-70331583D01*
X80122411Y-70441711D01*
X80135095Y-70496893D01*
X80150464Y-70576581D01*
X80162323Y-70653051D01*
X80168823Y-70715390D01*
X80176631Y-70793311D01*
X80196606Y-70882383D01*
X80229109Y-70956650D01*
X80276078Y-71021649D01*
X80292829Y-71040561D01*
X80315969Y-71065096D01*
X80325099Y-71069457D01*
X80322288Y-71053316D01*
X80309608Y-71016345D01*
X80307962Y-71010680D01*
X80367993Y-71010680D01*
X80367993Y-71010697D01*
X80377041Y-71030626D01*
X80403602Y-71032008D01*
X80446834Y-71014798D01*
X80449063Y-71013613D01*
X80474719Y-70994360D01*
X80485283Y-70975701D01*
X80484253Y-70963744D01*
X80476872Y-70957861D01*
X80456967Y-70960600D01*
X80418376Y-70971583D01*
X80413274Y-70973168D01*
X80378928Y-70989796D01*
X80367993Y-71010680D01*
X80307962Y-71010680D01*
X80296855Y-70972452D01*
X80291533Y-70946696D01*
X80356966Y-70946696D01*
X80358368Y-70951390D01*
X80366533Y-70959022D01*
X80385985Y-70957801D01*
X80423380Y-70947842D01*
X80457887Y-70935860D01*
X80476872Y-70922951D01*
X80479364Y-70921257D01*
X80485283Y-70902259D01*
X80482464Y-70885131D01*
X80468903Y-70879296D01*
X80437315Y-70882667D01*
X80435657Y-70882943D01*
X80390220Y-70897129D01*
X80362628Y-70919465D01*
X80356966Y-70946696D01*
X80291533Y-70946696D01*
X80281577Y-70898511D01*
X80271994Y-70835860D01*
X80333536Y-70835860D01*
X80344707Y-70860202D01*
X80356634Y-70867770D01*
X80381598Y-70869748D01*
X80423380Y-70862209D01*
X80430508Y-70860521D01*
X80465191Y-70849800D01*
X80468903Y-70846822D01*
X80481323Y-70836858D01*
X80485283Y-70817043D01*
X80485049Y-70811062D01*
X80481413Y-70802980D01*
X80644778Y-70802980D01*
X80652196Y-70813132D01*
X80662974Y-70802290D01*
X80671993Y-70775555D01*
X80678729Y-70743870D01*
X80688067Y-70703878D01*
X80690733Y-70680596D01*
X80682772Y-70669776D01*
X80680097Y-70670602D01*
X80669217Y-70687277D01*
X80660672Y-70718648D01*
X80659739Y-70724095D01*
X80652487Y-70762439D01*
X80646171Y-70790325D01*
X80644778Y-70802980D01*
X80481413Y-70802980D01*
X80473301Y-70784950D01*
X80443326Y-70776482D01*
X80394427Y-70785417D01*
X80378613Y-70790977D01*
X80345669Y-70811535D01*
X80333536Y-70835860D01*
X80271994Y-70835860D01*
X80267664Y-70807553D01*
X80260209Y-70741872D01*
X80294893Y-70741872D01*
X80312293Y-70759092D01*
X80320224Y-70762212D01*
X80356903Y-70764933D01*
X80401441Y-70758091D01*
X80442562Y-70744109D01*
X80443326Y-70743569D01*
X80468993Y-70725411D01*
X80475564Y-70716035D01*
X80486257Y-70686094D01*
X80473429Y-70666821D01*
X80437382Y-70658431D01*
X80378419Y-70661140D01*
X80359963Y-70663293D01*
X80327176Y-70667898D01*
X80310343Y-70674532D01*
X80302386Y-70687495D01*
X80296230Y-70711087D01*
X80295683Y-70713333D01*
X80294893Y-70741872D01*
X80260209Y-70741872D01*
X80255976Y-70704581D01*
X80251687Y-70669017D01*
X80241692Y-70626225D01*
X80228431Y-70608283D01*
X80216576Y-70600819D01*
X80226739Y-70590283D01*
X80230068Y-70588020D01*
X80234716Y-70576125D01*
X80230647Y-70571832D01*
X80256605Y-70571832D01*
X80266945Y-70601735D01*
X80268466Y-70604820D01*
X80279665Y-70622720D01*
X80295174Y-70632097D01*
X80322230Y-70635312D01*
X80368073Y-70634727D01*
X80418021Y-70631317D01*
X80437382Y-70626574D01*
X80450565Y-70623345D01*
X80468590Y-70609430D01*
X80474558Y-70600764D01*
X80482863Y-70579933D01*
X80479690Y-70555050D01*
X80474853Y-70542711D01*
X80654847Y-70542711D01*
X80654940Y-70546922D01*
X80658380Y-70581264D01*
X80665217Y-70617106D01*
X80673373Y-70645312D01*
X80680771Y-70656744D01*
X80682772Y-70654281D01*
X80684332Y-70652360D01*
X80689293Y-70628768D01*
X80691863Y-70591582D01*
X80691361Y-70556712D01*
X80685961Y-70533170D01*
X80674018Y-70526421D01*
X80665186Y-70528242D01*
X80654847Y-70542711D01*
X80474853Y-70542711D01*
X80464635Y-70516647D01*
X80460919Y-70508399D01*
X80446496Y-70485824D01*
X80425636Y-70476268D01*
X80388570Y-70474292D01*
X80353624Y-70475243D01*
X80314574Y-70482170D01*
X80288961Y-70498741D01*
X80269238Y-70528378D01*
X80261561Y-70544608D01*
X80256605Y-70571832D01*
X80230647Y-70571832D01*
X80218057Y-70558550D01*
X80205164Y-70546575D01*
X80210561Y-70547141D01*
X80222869Y-70549794D01*
X80220336Y-70534009D01*
X80215905Y-70520795D01*
X80211605Y-70499290D01*
X80208169Y-70492856D01*
X80188798Y-70486408D01*
X80184816Y-70486229D01*
X80173394Y-70483858D01*
X80187175Y-70476634D01*
X80201150Y-70463813D01*
X80197369Y-70438453D01*
X80187171Y-70419880D01*
X80172159Y-70409130D01*
X80167262Y-70408096D01*
X80165992Y-70396098D01*
X80168056Y-70391074D01*
X80160654Y-70383065D01*
X80154941Y-70380519D01*
X80154890Y-70378504D01*
X80226928Y-70378504D01*
X80232246Y-70415992D01*
X80259829Y-70440209D01*
X80309487Y-70451050D01*
X80381025Y-70448410D01*
X80387733Y-70447616D01*
X80388570Y-70447456D01*
X80414163Y-70442567D01*
X80641671Y-70442567D01*
X80641901Y-70447458D01*
X80649966Y-70476814D01*
X80665105Y-70502427D01*
X80674018Y-70508487D01*
X80681227Y-70513389D01*
X80688406Y-70508961D01*
X80691792Y-70485172D01*
X80684817Y-70444969D01*
X80682391Y-70438396D01*
X80667068Y-70424084D01*
X80649845Y-70425272D01*
X80641671Y-70442567D01*
X80414163Y-70442567D01*
X80421424Y-70441180D01*
X80437335Y-70429889D01*
X80442712Y-70409130D01*
X80439243Y-70376637D01*
X80433186Y-70360357D01*
X80622497Y-70360357D01*
X80629317Y-70385455D01*
X80649582Y-70396098D01*
X80662169Y-70394049D01*
X80665103Y-70382503D01*
X80658752Y-70353743D01*
X80652530Y-70339321D01*
X80638013Y-70331816D01*
X80625129Y-70347226D01*
X80622497Y-70360357D01*
X80433186Y-70360357D01*
X80425561Y-70339864D01*
X80418099Y-70327446D01*
X80398408Y-70309845D01*
X80370391Y-70309663D01*
X80368274Y-70310053D01*
X80329742Y-70316861D01*
X80286646Y-70324112D01*
X80267060Y-70328167D01*
X80241453Y-70341369D01*
X80229339Y-70366105D01*
X80226928Y-70378504D01*
X80154890Y-70378504D01*
X80154523Y-70364141D01*
X80156571Y-70354830D01*
X80151222Y-70328302D01*
X80149490Y-70325564D01*
X80145069Y-70318244D01*
X80141364Y-70309292D01*
X80137194Y-70293926D01*
X80132047Y-70270406D01*
X80228627Y-70270406D01*
X80234523Y-70279308D01*
X80257176Y-70288979D01*
X80299931Y-70291839D01*
X80319322Y-70291092D01*
X80359739Y-70284962D01*
X80370391Y-70280863D01*
X80386495Y-70274667D01*
X80394669Y-70268263D01*
X80602774Y-70268263D01*
X80604267Y-70279757D01*
X80615607Y-70298355D01*
X80625206Y-70301049D01*
X80627119Y-70289652D01*
X80615607Y-70265774D01*
X80613892Y-70263152D01*
X80604883Y-70253678D01*
X80602774Y-70268263D01*
X80394669Y-70268263D01*
X80397250Y-70266241D01*
X80402695Y-70253501D01*
X80388055Y-70235570D01*
X80360188Y-70219321D01*
X80323252Y-70213402D01*
X80284793Y-70217044D01*
X80251646Y-70228754D01*
X80230645Y-70247040D01*
X80228627Y-70270406D01*
X80132047Y-70270406D01*
X80131381Y-70267363D01*
X80122747Y-70224820D01*
X80110112Y-70161516D01*
X80108156Y-70151734D01*
X80107127Y-70146742D01*
X80206165Y-70146742D01*
X80207467Y-70163729D01*
X80226234Y-70181703D01*
X80254856Y-70194962D01*
X80285388Y-70198332D01*
X80314480Y-70188702D01*
X80323252Y-70171303D01*
X80326544Y-70164774D01*
X80327398Y-70157219D01*
X80324293Y-70142841D01*
X80307930Y-70136727D01*
X80271926Y-70135451D01*
X80254960Y-70135917D01*
X80222319Y-70139938D01*
X80206165Y-70146742D01*
X80107127Y-70146742D01*
X80097360Y-70099361D01*
X80094763Y-70088856D01*
X80190508Y-70088856D01*
X80199535Y-70104031D01*
X80200269Y-70104861D01*
X80224135Y-70117290D01*
X80258814Y-70122419D01*
X80260161Y-70122415D01*
X80271926Y-70120655D01*
X80292556Y-70117570D01*
X80302831Y-70102870D01*
X80299379Y-70092270D01*
X80280024Y-70081392D01*
X80269119Y-70080498D01*
X80222052Y-70078004D01*
X80196931Y-70080485D01*
X80190508Y-70088856D01*
X80094763Y-70088856D01*
X80089962Y-70069431D01*
X80084680Y-70059189D01*
X80080234Y-70065879D01*
X80075341Y-70086744D01*
X80071331Y-70115988D01*
X80051773Y-70115988D01*
X80054451Y-70081928D01*
X80063792Y-70044225D01*
X80179024Y-70044225D01*
X80179909Y-70045375D01*
X80199461Y-70053804D01*
X80222052Y-70056207D01*
X80231922Y-70057257D01*
X80237247Y-70057165D01*
X80265324Y-70052897D01*
X80276766Y-70044225D01*
X80275297Y-70041178D01*
X80256794Y-70034044D01*
X80223868Y-70031193D01*
X80212420Y-70031436D01*
X80184890Y-70035669D01*
X80179024Y-70044225D01*
X80063792Y-70044225D01*
X80067932Y-70027513D01*
X80081264Y-69995970D01*
X80167612Y-69995970D01*
X80169250Y-70000727D01*
X80175149Y-70002448D01*
X80201830Y-70000727D01*
X80204041Y-69996201D01*
X80185540Y-69994153D01*
X80167612Y-69995970D01*
X80081264Y-69995970D01*
X80084680Y-69987887D01*
X80089995Y-69975312D01*
X80104207Y-69951113D01*
X80368402Y-69951113D01*
X80378833Y-69966593D01*
X80402944Y-69983862D01*
X80429761Y-69996209D01*
X80448317Y-69997295D01*
X80454523Y-69994428D01*
X80455384Y-70000790D01*
X80457240Y-70017416D01*
X80474682Y-70036212D01*
X80498922Y-70049850D01*
X80520935Y-70051366D01*
X80522526Y-70050764D01*
X80534095Y-70049034D01*
X80525591Y-70062315D01*
X80518269Y-70081379D01*
X80530900Y-70091726D01*
X80559043Y-70088651D01*
X80562534Y-70087536D01*
X80574612Y-70085255D01*
X80563942Y-70094362D01*
X80561399Y-70096286D01*
X80554574Y-70108132D01*
X80561606Y-70126460D01*
X80584526Y-70157495D01*
X80593284Y-70168988D01*
X80604883Y-70186704D01*
X80623923Y-70215786D01*
X80638013Y-70242495D01*
X80647956Y-70261343D01*
X80655696Y-70277365D01*
X80667068Y-70294772D01*
X80672761Y-70303486D01*
X80686017Y-70312351D01*
X80690764Y-70311540D01*
X80690543Y-70314609D01*
X80686949Y-70317603D01*
X80680852Y-70340227D01*
X80684906Y-70373730D01*
X80696405Y-70409086D01*
X80712643Y-70437270D01*
X80730914Y-70449256D01*
X80741610Y-70451053D01*
X80736156Y-70456858D01*
X80724698Y-70463982D01*
X80722328Y-70479246D01*
X80742672Y-70491373D01*
X80749479Y-70493177D01*
X80758733Y-70497024D01*
X80742672Y-70498844D01*
X80731012Y-70502957D01*
X80723994Y-70517148D01*
X80720691Y-70546725D01*
X80719865Y-70597013D01*
X80719893Y-70604302D01*
X80721449Y-70650478D01*
X80724918Y-70684388D01*
X80729640Y-70699135D01*
X80732258Y-70700927D01*
X80725654Y-70701602D01*
X80724481Y-70701658D01*
X80714248Y-70715192D01*
X80701293Y-70747219D01*
X80688128Y-70791706D01*
X80673185Y-70842992D01*
X80652602Y-70901474D01*
X80632591Y-70948009D01*
X80620628Y-70973879D01*
X80609883Y-71004282D01*
X80609138Y-71019525D01*
X80610515Y-71020000D01*
X80625621Y-71011317D01*
X80651971Y-70988409D01*
X80684999Y-70955916D01*
X80720141Y-70918479D01*
X80752833Y-70880737D01*
X80778511Y-70847333D01*
X80805868Y-70809875D01*
X80835239Y-70772181D01*
X80840436Y-70765326D01*
X80864179Y-70724258D01*
X80882090Y-70679334D01*
X80892853Y-70629108D01*
X80898626Y-70568547D01*
X80898755Y-70506857D01*
X80893732Y-70449437D01*
X80884051Y-70401688D01*
X80870202Y-70369010D01*
X80852680Y-70356801D01*
X80839225Y-70354571D01*
X80847685Y-70345792D01*
X80855057Y-70337703D01*
X80853246Y-70319567D01*
X80836623Y-70287346D01*
X80829513Y-70276265D01*
X80806572Y-70249770D01*
X80786998Y-70238681D01*
X80775352Y-70236741D01*
X80782566Y-70230813D01*
X80786367Y-70228609D01*
X80788485Y-70214575D01*
X80775261Y-70196600D01*
X80752904Y-70181065D01*
X80727620Y-70174349D01*
X80710919Y-70171837D01*
X80717108Y-70163495D01*
X80719472Y-70160750D01*
X80714501Y-70143811D01*
X80693136Y-70117712D01*
X80659641Y-70086222D01*
X80618276Y-70053112D01*
X80573305Y-70022150D01*
X80528990Y-69997108D01*
X80492928Y-69980842D01*
X80447136Y-69963537D01*
X80407108Y-69951665D01*
X80378857Y-69946949D01*
X80368402Y-69951113D01*
X80104207Y-69951113D01*
X80112916Y-69936285D01*
X80147488Y-69902319D01*
X80185540Y-69891504D01*
X80188945Y-69890536D01*
X80223868Y-69895921D01*
G37*
G36*
X78091430Y-67076638D02*
G01*
X78095352Y-67078897D01*
X78113410Y-67099277D01*
X78132018Y-67131379D01*
X78133641Y-67134862D01*
X78142576Y-67158585D01*
X78147881Y-67185914D01*
X78149910Y-67222440D01*
X78149015Y-67273755D01*
X78145550Y-67345448D01*
X78144918Y-67357352D01*
X78142651Y-67454105D01*
X78147698Y-67533229D01*
X78161401Y-67601736D01*
X78185104Y-67666640D01*
X78220150Y-67734952D01*
X78225319Y-67743814D01*
X78254418Y-67789713D01*
X78292504Y-67845732D01*
X78334955Y-67905465D01*
X78377151Y-67962506D01*
X78414470Y-68010450D01*
X78442291Y-68042890D01*
X78448154Y-68049327D01*
X78473878Y-68080231D01*
X78508459Y-68124043D01*
X78547185Y-68174564D01*
X78585346Y-68225598D01*
X78618229Y-68270945D01*
X78641121Y-68304410D01*
X78641377Y-68304810D01*
X78694278Y-68394349D01*
X78741902Y-68488179D01*
X78773308Y-68561522D01*
X78780446Y-68578192D01*
X78806111Y-68656282D01*
X78814011Y-68688369D01*
X78823151Y-68736066D01*
X78827511Y-68783059D01*
X78827731Y-68838217D01*
X78824451Y-68910413D01*
X78821009Y-68961547D01*
X78815318Y-69026392D01*
X78809044Y-69081585D01*
X78803030Y-69118930D01*
X78799530Y-69135206D01*
X78791802Y-69172950D01*
X78787400Y-69197124D01*
X78787890Y-69203076D01*
X78796567Y-69209743D01*
X78818637Y-69213408D01*
X78858312Y-69214602D01*
X78919803Y-69213857D01*
X78933923Y-69213477D01*
X79008689Y-69208800D01*
X79076700Y-69200458D01*
X79128320Y-69189574D01*
X79179118Y-69176983D01*
X79286506Y-69166278D01*
X79289202Y-69166009D01*
X79402623Y-69177637D01*
X79523749Y-69212115D01*
X79541942Y-69218903D01*
X79606863Y-69245853D01*
X79665158Y-69274004D01*
X79712346Y-69300868D01*
X79743945Y-69323957D01*
X79755473Y-69340781D01*
X79755479Y-69340898D01*
X79767861Y-69346872D01*
X79799414Y-69353141D01*
X79843441Y-69358366D01*
X79894819Y-69363331D01*
X79964583Y-69370841D01*
X80029152Y-69378488D01*
X80084589Y-69385308D01*
X80150168Y-69393058D01*
X80205088Y-69399237D01*
X80277006Y-69410190D01*
X80375300Y-69431443D01*
X80485775Y-69460359D01*
X80602376Y-69495121D01*
X80719047Y-69533912D01*
X80829734Y-69574914D01*
X80928382Y-69616311D01*
X80938078Y-69620788D01*
X81019232Y-69664369D01*
X81103937Y-69719249D01*
X81187691Y-69781652D01*
X81265991Y-69847804D01*
X81334334Y-69913932D01*
X81388217Y-69976261D01*
X81423138Y-70031017D01*
X81438654Y-70062234D01*
X81463691Y-70109585D01*
X81484677Y-70146024D01*
X81496567Y-70167987D01*
X81509817Y-70202129D01*
X81522781Y-70248505D01*
X81536694Y-70311649D01*
X81552792Y-70396098D01*
X81555257Y-70414388D01*
X81558546Y-70463472D01*
X81559914Y-70524551D01*
X81559066Y-70588511D01*
X81558377Y-70605539D01*
X81544674Y-70724963D01*
X81514793Y-70827759D01*
X81466935Y-70918586D01*
X81399300Y-71002101D01*
X81394701Y-71006924D01*
X81353216Y-71052829D01*
X81314684Y-71099120D01*
X81286915Y-71136461D01*
X81273026Y-71156108D01*
X81247428Y-71187015D01*
X81227860Y-71204244D01*
X81227356Y-71204525D01*
X81208540Y-71221140D01*
X81180766Y-71252278D01*
X81149855Y-71291433D01*
X81141668Y-71302150D01*
X81097373Y-71354844D01*
X81041022Y-71415978D01*
X80977449Y-71480845D01*
X80911485Y-71544734D01*
X80847962Y-71602937D01*
X80791711Y-71650746D01*
X80747566Y-71683452D01*
X80740624Y-71688040D01*
X80692949Y-71722936D01*
X80639133Y-71766566D01*
X80589542Y-71810589D01*
X80583567Y-71816134D01*
X80529611Y-71861555D01*
X80469791Y-71905724D01*
X80415990Y-71939796D01*
X80378403Y-71960989D01*
X80349299Y-71979743D01*
X80335184Y-71995162D01*
X80331743Y-72012379D01*
X80334663Y-72036522D01*
X80338506Y-72069514D01*
X80342336Y-72120606D01*
X80344811Y-72175010D01*
X80345038Y-72226105D01*
X80340270Y-72262316D01*
X80327729Y-72294328D01*
X80304643Y-72333045D01*
X80304102Y-72333889D01*
X80278508Y-72369790D01*
X80251220Y-72396600D01*
X80214649Y-72420352D01*
X80161208Y-72447078D01*
X80143838Y-72455143D01*
X80098930Y-72475147D01*
X80064914Y-72489075D01*
X80048080Y-72494302D01*
X80035239Y-72499485D01*
X80006720Y-72516563D01*
X79970465Y-72541430D01*
X79967251Y-72543744D01*
X79900774Y-72586035D01*
X79829801Y-72619490D01*
X79748956Y-72645883D01*
X79652861Y-72666986D01*
X79536137Y-72684570D01*
X79507793Y-72688543D01*
X79481799Y-72695003D01*
X79472792Y-72704709D01*
X79475308Y-72720927D01*
X79475366Y-72721113D01*
X79482145Y-72744355D01*
X79494058Y-72786694D01*
X79509442Y-72842170D01*
X79526632Y-72904820D01*
X79542402Y-72961216D01*
X79564617Y-73037330D01*
X79586283Y-73108403D01*
X79604377Y-73164348D01*
X79609223Y-73178958D01*
X79623917Y-73228583D01*
X79633310Y-73268976D01*
X79635550Y-73292524D01*
X79625395Y-73307981D01*
X79589809Y-73332138D01*
X79528942Y-73361432D01*
X79442934Y-73395800D01*
X79331923Y-73435175D01*
X79275478Y-73454049D01*
X79228056Y-73470904D01*
X79198593Y-73485807D01*
X79183729Y-73503013D01*
X79180106Y-73526781D01*
X79184364Y-73561367D01*
X79193144Y-73611027D01*
X79197338Y-73635427D01*
X79205887Y-73682745D01*
X79212575Y-73716515D01*
X79216227Y-73730651D01*
X79227169Y-73728783D01*
X79258242Y-73719692D01*
X79304623Y-73704839D01*
X79361520Y-73685867D01*
X79424140Y-73664420D01*
X79487691Y-73642139D01*
X79547381Y-73620669D01*
X79598416Y-73601651D01*
X79636005Y-73586731D01*
X79653039Y-73579870D01*
X79688006Y-73567751D01*
X79709819Y-73562952D01*
X79710755Y-73563056D01*
X79726344Y-73575457D01*
X79749237Y-73604496D01*
X79774831Y-73644404D01*
X79800586Y-73686863D01*
X79838602Y-73746159D01*
X79873575Y-73797534D01*
X79898138Y-73835729D01*
X79915895Y-73871102D01*
X79921515Y-73893814D01*
X79920742Y-73897163D01*
X79910010Y-73910588D01*
X79884445Y-73925577D01*
X79840598Y-73943856D01*
X79775022Y-73967150D01*
X79703145Y-73992027D01*
X79627758Y-74019963D01*
X79565613Y-74046113D01*
X79510068Y-74073556D01*
X79454485Y-74105371D01*
X79392222Y-74144637D01*
X79358155Y-74166809D01*
X79316575Y-74194063D01*
X79287199Y-74213558D01*
X79274870Y-74222100D01*
X79274395Y-74227809D01*
X79279142Y-74252472D01*
X79289359Y-74288998D01*
X79294574Y-74306002D01*
X79309328Y-74355277D01*
X79327106Y-74415697D01*
X79345135Y-74477871D01*
X79355561Y-74513432D01*
X79370215Y-74558634D01*
X79381638Y-74584454D01*
X79391714Y-74594686D01*
X79402324Y-74593125D01*
X79403858Y-74592197D01*
X79423278Y-74576729D01*
X79456417Y-74547429D01*
X79499052Y-74508112D01*
X79546956Y-74462591D01*
X79610230Y-74402059D01*
X79675071Y-74341815D01*
X79730879Y-74292956D01*
X79782696Y-74251482D01*
X79835566Y-74213395D01*
X79894532Y-74174695D01*
X79964639Y-74131383D01*
X79977330Y-74123692D01*
X80044061Y-74083969D01*
X80092993Y-74056796D01*
X80127639Y-74040784D01*
X80151513Y-74034543D01*
X80168127Y-74036684D01*
X80180995Y-74045817D01*
X80203054Y-74058328D01*
X80243793Y-74072158D01*
X80294229Y-74084595D01*
X80346014Y-74093597D01*
X80390799Y-74097123D01*
X80424281Y-74099885D01*
X80444172Y-74111221D01*
X80440013Y-74132116D01*
X80412077Y-74163426D01*
X80391500Y-74186170D01*
X80358214Y-74229261D01*
X80317472Y-74286291D01*
X80272402Y-74352749D01*
X80226126Y-74424124D01*
X80181771Y-74495904D01*
X80181163Y-74496912D01*
X80161605Y-74526393D01*
X80136065Y-74559240D01*
X80102604Y-74597433D01*
X80059282Y-74642950D01*
X80004156Y-74697772D01*
X79935289Y-74763879D01*
X79850738Y-74843249D01*
X79748565Y-74937863D01*
X79682232Y-74998194D01*
X79616278Y-75055441D01*
X79559800Y-75100341D01*
X79508110Y-75136368D01*
X79456518Y-75166993D01*
X79400334Y-75195687D01*
X79396311Y-75197613D01*
X79282401Y-75244299D01*
X79175199Y-75273271D01*
X79079504Y-75283219D01*
X79059877Y-75283004D01*
X79027527Y-75279464D01*
X79008635Y-75268596D01*
X78994363Y-75246598D01*
X78984481Y-75223140D01*
X78968510Y-75175064D01*
X78950939Y-75114025D01*
X78933694Y-75047193D01*
X78918702Y-74981738D01*
X78907890Y-74924830D01*
X78904351Y-74903141D01*
X78895687Y-74851068D01*
X78885037Y-74787899D01*
X78873947Y-74722829D01*
X78873604Y-74720819D01*
X78867020Y-74678367D01*
X78861843Y-74634749D01*
X78857944Y-74586409D01*
X78855193Y-74529791D01*
X78853460Y-74461338D01*
X78852617Y-74377493D01*
X78852533Y-74274702D01*
X78853080Y-74149407D01*
X78853294Y-74100968D01*
X78852614Y-73910864D01*
X78849514Y-73735217D01*
X78844082Y-73577868D01*
X78836411Y-73442656D01*
X78834704Y-73418702D01*
X78829113Y-73339968D01*
X78824288Y-73271611D01*
X78820503Y-73217537D01*
X78818031Y-73181650D01*
X78817146Y-73167857D01*
X78815698Y-73167124D01*
X78796250Y-73165481D01*
X78758871Y-73164745D01*
X78709629Y-73165073D01*
X78690991Y-73165608D01*
X78609564Y-73174070D01*
X78546329Y-73191578D01*
X78503647Y-73217244D01*
X78483878Y-73250177D01*
X78478296Y-73274879D01*
X78467914Y-73318848D01*
X78454251Y-73375687D01*
X78438799Y-73439145D01*
X78426422Y-73492896D01*
X78409830Y-73574472D01*
X78395858Y-73653763D01*
X78386633Y-73719340D01*
X78373808Y-73813173D01*
X78341191Y-73980997D01*
X78296047Y-74155923D01*
X78286432Y-74189532D01*
X78266894Y-74259868D01*
X78248007Y-74330231D01*
X78231060Y-74395599D01*
X78217341Y-74450952D01*
X78208140Y-74491268D01*
X78204746Y-74511525D01*
X78209344Y-74518175D01*
X78233437Y-74535340D01*
X78274047Y-74558688D01*
X78326505Y-74585976D01*
X78386146Y-74614961D01*
X78448302Y-74643400D01*
X78508309Y-74669051D01*
X78561497Y-74689671D01*
X78603203Y-74703017D01*
X78637589Y-74713169D01*
X78674588Y-74727225D01*
X78695155Y-74739139D01*
X78699685Y-74747541D01*
X78708654Y-74778890D01*
X78717803Y-74825859D01*
X78725729Y-74881889D01*
X78727739Y-74897960D01*
X78739602Y-74974124D01*
X78755005Y-75054064D01*
X78771146Y-75122901D01*
X78777734Y-75148376D01*
X78788793Y-75196074D01*
X78795168Y-75231116D01*
X78795637Y-75247294D01*
X78789069Y-75251648D01*
X78758653Y-75255274D01*
X78707119Y-75252992D01*
X78637173Y-75245227D01*
X78551520Y-75232404D01*
X78452864Y-75214946D01*
X78343912Y-75193280D01*
X78227368Y-75167828D01*
X78105938Y-75139018D01*
X77885335Y-75084573D01*
X77546494Y-75093191D01*
X77439915Y-75095363D01*
X77328120Y-75096245D01*
X77234003Y-75095337D01*
X77160341Y-75092673D01*
X77109911Y-75088282D01*
X77058751Y-75081166D01*
X76984526Y-75070585D01*
X76930682Y-75062375D01*
X76893701Y-75055890D01*
X76870067Y-75050483D01*
X76856263Y-75045510D01*
X76848772Y-75040325D01*
X76847193Y-75038087D01*
X76844496Y-75013726D01*
X76849457Y-74971301D01*
X76860586Y-74916013D01*
X76876394Y-74853057D01*
X76895392Y-74787633D01*
X76916088Y-74724937D01*
X76936994Y-74670169D01*
X76956620Y-74628525D01*
X76973476Y-74605203D01*
X76986825Y-74599711D01*
X77022559Y-74591992D01*
X77073262Y-74584611D01*
X77132675Y-74578613D01*
X77134543Y-74578460D01*
X77202849Y-74570422D01*
X77278728Y-74557644D01*
X77355485Y-74541651D01*
X77426424Y-74523964D01*
X77484849Y-74506107D01*
X77524064Y-74489601D01*
X77525410Y-74488697D01*
X77540508Y-74469618D01*
X77560856Y-74434148D01*
X77582447Y-74389178D01*
X77606131Y-74337915D01*
X77630586Y-74289075D01*
X77650322Y-74253666D01*
X77655234Y-74245287D01*
X77677363Y-74200731D01*
X77704753Y-74137798D01*
X77735405Y-74061577D01*
X77767322Y-73977154D01*
X77798504Y-73889616D01*
X77826953Y-73804050D01*
X77856199Y-73712795D01*
X77889537Y-73610674D01*
X77917850Y-73526808D01*
X77942511Y-73457361D01*
X77964894Y-73398494D01*
X77986371Y-73346370D01*
X78008316Y-73297151D01*
X78022981Y-73264966D01*
X78042207Y-73221192D01*
X78054706Y-73190599D01*
X78058289Y-73178389D01*
X78052721Y-73176044D01*
X78027549Y-73168035D01*
X77988271Y-73156549D01*
X77941411Y-73143379D01*
X77893491Y-73130318D01*
X77851031Y-73119160D01*
X77820554Y-73111698D01*
X77808581Y-73109725D01*
X77795041Y-73139438D01*
X77770847Y-73186836D01*
X77741305Y-73241508D01*
X77710655Y-73295800D01*
X77683134Y-73342059D01*
X77662980Y-73372634D01*
X77640518Y-73402749D01*
X77604761Y-73450711D01*
X77569676Y-73497791D01*
X77552216Y-73522751D01*
X77518564Y-73575766D01*
X77482097Y-73637726D01*
X77448133Y-73699792D01*
X77427154Y-73739472D01*
X77399656Y-73788960D01*
X77372890Y-73832541D01*
X77343265Y-73875307D01*
X77307186Y-73922350D01*
X77261061Y-73978763D01*
X77201296Y-74049639D01*
X77158823Y-74099768D01*
X77066303Y-74210279D01*
X76988830Y-74305506D01*
X76924639Y-74388290D01*
X76871962Y-74461473D01*
X76829035Y-74527896D01*
X76794091Y-74590401D01*
X76765364Y-74651829D01*
X76741087Y-74715023D01*
X76719494Y-74782823D01*
X76698820Y-74858071D01*
X76691989Y-74883476D01*
X76677536Y-74932285D01*
X76664957Y-74968633D01*
X76656384Y-74986085D01*
X76642919Y-74992262D01*
X76607486Y-74990481D01*
X76558221Y-74976701D01*
X76499512Y-74952976D01*
X76435744Y-74921357D01*
X76371304Y-74883897D01*
X76310579Y-74842648D01*
X76257955Y-74799663D01*
X76228996Y-74772783D01*
X76197816Y-74741451D01*
X76180969Y-74718904D01*
X76175092Y-74700195D01*
X76176817Y-74680374D01*
X76189108Y-74640576D01*
X76212012Y-74584980D01*
X76242378Y-74520050D01*
X76277065Y-74452196D01*
X76312929Y-74387832D01*
X76346831Y-74333370D01*
X76364837Y-74307033D01*
X76400178Y-74258818D01*
X76436734Y-74215048D01*
X76479302Y-74170555D01*
X76532676Y-74120171D01*
X76601651Y-74058727D01*
X76661744Y-74005593D01*
X76758419Y-73917061D01*
X76840818Y-73836048D01*
X76912474Y-73758069D01*
X76976918Y-73678639D01*
X77037682Y-73593271D01*
X77098298Y-73497481D01*
X77162300Y-73386784D01*
X77233217Y-73256693D01*
X77250682Y-73224478D01*
X77329535Y-73090229D01*
X77418866Y-72956646D01*
X77430859Y-72938189D01*
X77439192Y-72915483D01*
X77439096Y-72886977D01*
X77431670Y-72842916D01*
X77422049Y-72803969D01*
X77407567Y-72776150D01*
X77387029Y-72767419D01*
X77357783Y-72778015D01*
X77317179Y-72808177D01*
X77262564Y-72858143D01*
X77258414Y-72862121D01*
X77215732Y-72902465D01*
X77176567Y-72938006D01*
X77136046Y-72972830D01*
X77089292Y-73011027D01*
X77031433Y-73056683D01*
X76957593Y-73113886D01*
X76914892Y-73147474D01*
X76885503Y-73174028D01*
X76867908Y-73197463D01*
X76857393Y-73224159D01*
X76849244Y-73260495D01*
X76831010Y-73340501D01*
X76787018Y-73481420D01*
X76731196Y-73611846D01*
X76666473Y-73724338D01*
X76659777Y-73733929D01*
X76616615Y-73787620D01*
X76558851Y-73850469D01*
X76491001Y-73918348D01*
X76417582Y-73987126D01*
X76343111Y-74052675D01*
X76272104Y-74110865D01*
X76209079Y-74157569D01*
X76158552Y-74188657D01*
X76147506Y-74194026D01*
X76061821Y-74220138D01*
X75966528Y-74225875D01*
X75866620Y-74211869D01*
X75767093Y-74178755D01*
X75672938Y-74127163D01*
X75652470Y-74113027D01*
X75591307Y-74065952D01*
X75534740Y-74013499D01*
X75479675Y-73952006D01*
X75423020Y-73877810D01*
X75361683Y-73787248D01*
X75292571Y-73676657D01*
X75281784Y-73659363D01*
X75252065Y-73615829D01*
X75215740Y-73568388D01*
X75170380Y-73514201D01*
X75113558Y-73450427D01*
X75042844Y-73374226D01*
X74955811Y-73282757D01*
X74933464Y-73257943D01*
X74891546Y-73205506D01*
X74846391Y-73143260D01*
X74836581Y-73128720D01*
X75462107Y-73128720D01*
X75468087Y-73144960D01*
X75486954Y-73171827D01*
X75520858Y-73213805D01*
X75565947Y-73268831D01*
X75616356Y-73330996D01*
X75661061Y-73386706D01*
X75682361Y-73412576D01*
X75731138Y-73462683D01*
X75775286Y-73491844D01*
X75818853Y-73502219D01*
X75865892Y-73495971D01*
X75910626Y-73474615D01*
X75961361Y-73434569D01*
X76009570Y-73383064D01*
X76049116Y-73326707D01*
X76073863Y-73272104D01*
X76080900Y-73247186D01*
X76089424Y-73212088D01*
X76092282Y-73192424D01*
X76084444Y-73147382D01*
X76069289Y-73094184D01*
X76050533Y-73044191D01*
X76031887Y-73008691D01*
X76023904Y-72997183D01*
X75997280Y-72956948D01*
X75970566Y-72914594D01*
X75957898Y-72895956D01*
X75933974Y-72869569D01*
X75915116Y-72859207D01*
X75912714Y-72859396D01*
X75886707Y-72867909D01*
X75844637Y-72887057D01*
X75791645Y-72914050D01*
X75732873Y-72946099D01*
X75673461Y-72980415D01*
X75618552Y-73014207D01*
X75573285Y-73044685D01*
X75571597Y-73045900D01*
X75530166Y-73075353D01*
X75494824Y-73099850D01*
X75473061Y-73114196D01*
X75466862Y-73118625D01*
X75462107Y-73128720D01*
X74836581Y-73128720D01*
X74800721Y-73075568D01*
X74757255Y-73006791D01*
X74718714Y-72941291D01*
X74687816Y-72883432D01*
X74667283Y-72837575D01*
X74659835Y-72808082D01*
X74662648Y-72797215D01*
X74684460Y-72768364D01*
X74725045Y-72732405D01*
X74781034Y-72691694D01*
X74849056Y-72648590D01*
X74925744Y-72605451D01*
X75007727Y-72564634D01*
X75019540Y-72559150D01*
X75074057Y-72534442D01*
X75124021Y-72513286D01*
X75173702Y-72494300D01*
X75227371Y-72476103D01*
X75263254Y-72465215D01*
X76621871Y-72465215D01*
X76626770Y-72491005D01*
X76636928Y-72523572D01*
X76657762Y-72571238D01*
X76681474Y-72598562D01*
X76710762Y-72609345D01*
X76712778Y-72609548D01*
X76756944Y-72606137D01*
X76812902Y-72591814D01*
X76871091Y-72569601D01*
X76921952Y-72542525D01*
X76931424Y-72536070D01*
X76955850Y-72515474D01*
X76965075Y-72500818D01*
X76963089Y-72495720D01*
X76948762Y-72472409D01*
X76923723Y-72436552D01*
X76891659Y-72393535D01*
X76819400Y-72299285D01*
X76766748Y-72328374D01*
X76751401Y-72337513D01*
X76706032Y-72369393D01*
X76664649Y-72404068D01*
X76647785Y-72420376D01*
X76627617Y-72444562D01*
X76621871Y-72465215D01*
X75263254Y-72465215D01*
X75289296Y-72457313D01*
X75363748Y-72436549D01*
X75454997Y-72412428D01*
X75567312Y-72383571D01*
X75593442Y-72376678D01*
X75760579Y-72322914D01*
X75915116Y-72259485D01*
X75931296Y-72252844D01*
X76095836Y-72170824D01*
X76244441Y-72081212D01*
X76272621Y-72062577D01*
X76343506Y-72016955D01*
X76419059Y-71969641D01*
X76487074Y-71928325D01*
X76613595Y-71853156D01*
X76581200Y-71791204D01*
X76563317Y-71751077D01*
X76542794Y-71693700D01*
X76526357Y-71636188D01*
X76524707Y-71629491D01*
X76512042Y-71585712D01*
X76499859Y-71554783D01*
X76490588Y-71543034D01*
X76484175Y-71545247D01*
X76457938Y-71558518D01*
X76416015Y-71581770D01*
X76362534Y-71612690D01*
X76301620Y-71648966D01*
X76167623Y-71728728D01*
X76018525Y-71814027D01*
X75881947Y-71887642D01*
X75753353Y-71951818D01*
X75628205Y-72008804D01*
X75501965Y-72060845D01*
X75370096Y-72110189D01*
X75239725Y-72158436D01*
X75110060Y-72211086D01*
X75000624Y-72261934D01*
X74908554Y-72312748D01*
X74830989Y-72365298D01*
X74765067Y-72421352D01*
X74707925Y-72482678D01*
X74656701Y-72551046D01*
X74632901Y-72584912D01*
X74612743Y-72608614D01*
X74598881Y-72615795D01*
X74587477Y-72609709D01*
X74574283Y-72588317D01*
X74556524Y-72543252D01*
X74536972Y-72480330D01*
X74516671Y-72403790D01*
X74496665Y-72317876D01*
X74477997Y-72226829D01*
X74461712Y-72134890D01*
X74448852Y-72046300D01*
X74442523Y-71993579D01*
X74439201Y-71953101D01*
X74440248Y-71927294D01*
X74445972Y-71910256D01*
X74456681Y-71896088D01*
X74458688Y-71893985D01*
X74489422Y-71870987D01*
X74537585Y-71843562D01*
X74596482Y-71814798D01*
X74659416Y-71787783D01*
X74719691Y-71765604D01*
X74770609Y-71751350D01*
X74797597Y-71745562D01*
X74923624Y-71716020D01*
X75049350Y-71682804D01*
X75166259Y-71648265D01*
X75265838Y-71614751D01*
X75293689Y-71604603D01*
X75367963Y-71577827D01*
X75443068Y-71551076D01*
X75506367Y-71528862D01*
X75552161Y-71512451D01*
X75601817Y-71492394D01*
X75626516Y-71478642D01*
X75626473Y-71471233D01*
X75601900Y-71470208D01*
X75553009Y-71475607D01*
X75480015Y-71487469D01*
X75383129Y-71505834D01*
X75297477Y-71521751D01*
X75160030Y-71540912D01*
X75036578Y-71547969D01*
X74921080Y-71542485D01*
X74807498Y-71524023D01*
X74689792Y-71492146D01*
X74561921Y-71446417D01*
X74556746Y-71444394D01*
X74489871Y-71418278D01*
X74443169Y-71398817D01*
X74413037Y-71382740D01*
X74395872Y-71366778D01*
X74388072Y-71347659D01*
X74386034Y-71322115D01*
X74386156Y-71286874D01*
X74386156Y-71285824D01*
X74387463Y-71219879D01*
X74390979Y-71145206D01*
X74394281Y-71095982D01*
X75534190Y-71095982D01*
X75546465Y-71103085D01*
X75579673Y-71108131D01*
X75630157Y-71111210D01*
X75694260Y-71112413D01*
X75768327Y-71111831D01*
X75848701Y-71109552D01*
X75931725Y-71105669D01*
X76013743Y-71100271D01*
X76091099Y-71093449D01*
X76160136Y-71085293D01*
X76217197Y-71075893D01*
X76220807Y-71075170D01*
X76332292Y-71053019D01*
X76420798Y-71035873D01*
X76488764Y-71023295D01*
X76538628Y-71014850D01*
X76572829Y-71010103D01*
X76593804Y-71008617D01*
X76599800Y-71008472D01*
X76623264Y-71002709D01*
X76640990Y-70985136D01*
X76656211Y-70951104D01*
X76672164Y-70895961D01*
X76681005Y-70861682D01*
X76688959Y-70829077D01*
X76691842Y-70811510D01*
X76690485Y-70802930D01*
X76685720Y-70797287D01*
X76684977Y-70796740D01*
X76665469Y-70796503D01*
X76625871Y-70804157D01*
X76570077Y-70818564D01*
X76501980Y-70838585D01*
X76425474Y-70863081D01*
X76344453Y-70890914D01*
X76262810Y-70920946D01*
X76243899Y-70928132D01*
X76148574Y-70963235D01*
X76067309Y-70990385D01*
X75992102Y-71011655D01*
X75914951Y-71029122D01*
X75827852Y-71044858D01*
X75722804Y-71060939D01*
X75699407Y-71064375D01*
X75636545Y-71074016D01*
X75585123Y-71082500D01*
X75549931Y-71089012D01*
X75535762Y-71092738D01*
X75534190Y-71095982D01*
X74394281Y-71095982D01*
X74396241Y-71066771D01*
X74402782Y-70989543D01*
X74410139Y-70918488D01*
X74417846Y-70858574D01*
X74425439Y-70814770D01*
X74432453Y-70792041D01*
X74433079Y-70791097D01*
X74454562Y-70772113D01*
X74492274Y-70749181D01*
X74538462Y-70727055D01*
X74564871Y-70716163D01*
X74594882Y-70705347D01*
X74624265Y-70697995D01*
X74658359Y-70693462D01*
X74702502Y-70691102D01*
X74762032Y-70690272D01*
X74842287Y-70690324D01*
X74855767Y-70690387D01*
X74980742Y-70693410D01*
X75085835Y-70700645D01*
X75168095Y-70711898D01*
X75176523Y-70713472D01*
X75240927Y-70724604D01*
X75305370Y-70734467D01*
X75357064Y-70741086D01*
X75391108Y-70744908D01*
X75440723Y-70751169D01*
X75477613Y-70756626D01*
X75480145Y-70757041D01*
X75508719Y-70758023D01*
X75519968Y-70750871D01*
X75519134Y-70748328D01*
X75502451Y-70737810D01*
X75471097Y-70729234D01*
X75461356Y-70727451D01*
X75407448Y-70714960D01*
X75349239Y-70696583D01*
X75282143Y-70670567D01*
X75229569Y-70647464D01*
X77718592Y-70647464D01*
X77722039Y-70663018D01*
X77723374Y-70664139D01*
X77732553Y-70684989D01*
X77741975Y-70725172D01*
X77750801Y-70778876D01*
X77758194Y-70840290D01*
X77763315Y-70903603D01*
X77765325Y-70963004D01*
X77766889Y-71012320D01*
X77773002Y-71063262D01*
X77783139Y-71092969D01*
X77793237Y-71107363D01*
X77800010Y-71110959D01*
X77801959Y-71092969D01*
X77801959Y-71092962D01*
X77804322Y-71084839D01*
X77810114Y-71096095D01*
X77820061Y-71128757D01*
X77834888Y-71184848D01*
X77833154Y-71207045D01*
X77819014Y-71247806D01*
X77793789Y-71299781D01*
X77772661Y-71341229D01*
X77757705Y-71377499D01*
X77755193Y-71395782D01*
X77765250Y-71394509D01*
X77788002Y-71372110D01*
X77815129Y-71340941D01*
X77798592Y-71373522D01*
X77788227Y-71398404D01*
X77785146Y-71416846D01*
X77785255Y-71420466D01*
X77774883Y-71419335D01*
X77768802Y-71416153D01*
X77761678Y-71418667D01*
X77768700Y-71434585D01*
X77788166Y-71458842D01*
X77797879Y-71471103D01*
X77819881Y-71507898D01*
X77839685Y-71550908D01*
X77850235Y-71575602D01*
X77861562Y-71595343D01*
X77866892Y-71595071D01*
X77867529Y-71592063D01*
X77871630Y-71596657D01*
X77877276Y-71621136D01*
X77877363Y-71621622D01*
X77888518Y-71654681D01*
X77904883Y-71667120D01*
X77905477Y-71667135D01*
X77931924Y-71670596D01*
X77967410Y-71678067D01*
X77983638Y-71682618D01*
X78000351Y-71692467D01*
X77996393Y-71705505D01*
X77994648Y-71708004D01*
X77994695Y-71723146D01*
X78010985Y-71745751D01*
X78046049Y-71779596D01*
X78076187Y-71809056D01*
X78110184Y-71848074D01*
X78132208Y-71880349D01*
X78140417Y-71894692D01*
X78158001Y-71911844D01*
X78171911Y-71903201D01*
X78182200Y-71868750D01*
X78184760Y-71857760D01*
X78187916Y-71860194D01*
X78189920Y-71888299D01*
X78190336Y-71897360D01*
X78195664Y-71928002D01*
X78211562Y-71949093D01*
X78244683Y-71970634D01*
X78274673Y-71986190D01*
X78299164Y-71992370D01*
X78316260Y-71985329D01*
X78324939Y-71977187D01*
X78333977Y-71956834D01*
X78318660Y-71943254D01*
X78313476Y-71940614D01*
X78325206Y-71941086D01*
X78339769Y-71939462D01*
X78361370Y-71922926D01*
X78365198Y-71916852D01*
X78372234Y-71909835D01*
X78371113Y-71927060D01*
X78371086Y-71927251D01*
X78358961Y-71953713D01*
X78335072Y-71981214D01*
X78302614Y-72009638D01*
X78367653Y-72081711D01*
X78400437Y-72117146D01*
X78426632Y-72138865D01*
X78452413Y-72146702D01*
X78486335Y-72143128D01*
X78536951Y-72130614D01*
X78566778Y-72124555D01*
X78637778Y-72118306D01*
X78714605Y-72119638D01*
X78784565Y-72128649D01*
X78798609Y-72131811D01*
X78818339Y-72138090D01*
X78817146Y-72141557D01*
X78816700Y-72141619D01*
X78818082Y-72148349D01*
X78838534Y-72163178D01*
X78873837Y-72183021D01*
X78878005Y-72185157D01*
X78919732Y-72204556D01*
X78947231Y-72213928D01*
X78958027Y-72213311D01*
X78949647Y-72202748D01*
X78919616Y-72182277D01*
X78909143Y-72175581D01*
X78891234Y-72161246D01*
X78891628Y-72155510D01*
X78897775Y-72157037D01*
X78921808Y-72170918D01*
X78952021Y-72194582D01*
X78974154Y-72211278D01*
X79009318Y-72230684D01*
X79042836Y-72243033D01*
X79067923Y-72246019D01*
X79077792Y-72237337D01*
X79076932Y-72234423D01*
X79061450Y-72218841D01*
X79032694Y-72200440D01*
X79022978Y-72194994D01*
X78999809Y-72179451D01*
X78993332Y-72170416D01*
X78999308Y-72170875D01*
X79021960Y-72181524D01*
X79054375Y-72201279D01*
X79083319Y-72218558D01*
X79119260Y-72234945D01*
X79147615Y-72242804D01*
X79164289Y-72241704D01*
X79165186Y-72231216D01*
X79146212Y-72210911D01*
X79139630Y-72205158D01*
X79138676Y-72201734D01*
X79158786Y-72212732D01*
X79191061Y-72226923D01*
X79223948Y-72233249D01*
X79228896Y-72233113D01*
X79240326Y-72230199D01*
X79232945Y-72221135D01*
X79225507Y-72216279D01*
X79277621Y-72216279D01*
X79279532Y-72217839D01*
X79294998Y-72216279D01*
X79297037Y-72212359D01*
X79286310Y-72207591D01*
X79279410Y-72208531D01*
X79277621Y-72216279D01*
X79225507Y-72216279D01*
X79204737Y-72202719D01*
X79180147Y-72187093D01*
X79154929Y-72169257D01*
X79146502Y-72160725D01*
X79156375Y-72163397D01*
X79186054Y-72179171D01*
X79199864Y-72187010D01*
X79226720Y-72201744D01*
X79238859Y-72207591D01*
X79239095Y-72207475D01*
X79241292Y-72194090D01*
X79242375Y-72165236D01*
X79240140Y-72135144D01*
X79273277Y-72135144D01*
X79273328Y-72139131D01*
X79277496Y-72170712D01*
X79286310Y-72188042D01*
X79289167Y-72188819D01*
X79296594Y-72176229D01*
X79299342Y-72143198D01*
X79298980Y-72130830D01*
X79294422Y-72101872D01*
X79286310Y-72090300D01*
X79284762Y-72090616D01*
X79276603Y-72105302D01*
X79273277Y-72135144D01*
X79240140Y-72135144D01*
X79238572Y-72114041D01*
X79213251Y-72019381D01*
X79203277Y-71998008D01*
X79247213Y-71998008D01*
X79249794Y-72024142D01*
X79260050Y-72052709D01*
X79274672Y-72064235D01*
X79276756Y-72064072D01*
X79284357Y-72054461D01*
X79281641Y-72038622D01*
X79276975Y-72008848D01*
X79273568Y-71994010D01*
X79262838Y-71975625D01*
X79252097Y-71976246D01*
X79247213Y-71998008D01*
X79203277Y-71998008D01*
X79164245Y-71914363D01*
X79160712Y-71907964D01*
X79121101Y-71835207D01*
X79091220Y-71777595D01*
X79067826Y-71728330D01*
X79047680Y-71680615D01*
X79027540Y-71627652D01*
X79025565Y-71622251D01*
X79015465Y-71593290D01*
X79007785Y-71566410D01*
X79002185Y-71537589D01*
X78998330Y-71502806D01*
X78995880Y-71458042D01*
X78994497Y-71399275D01*
X78994302Y-71376397D01*
X79018764Y-71376397D01*
X79019954Y-71423139D01*
X79023290Y-71457566D01*
X79028167Y-71472812D01*
X79034848Y-71484213D01*
X79038695Y-71511130D01*
X79041846Y-71531813D01*
X79051728Y-71542942D01*
X79055079Y-71542588D01*
X79061502Y-71533168D01*
X79061294Y-71532462D01*
X79065718Y-71524352D01*
X79071276Y-71529910D01*
X79077792Y-71523394D01*
X79073223Y-71518824D01*
X79080445Y-71517005D01*
X79086538Y-71522302D01*
X79071716Y-71542457D01*
X79058501Y-71564283D01*
X79056531Y-71588790D01*
X79058189Y-71592512D01*
X79067463Y-71598919D01*
X79085231Y-71591216D01*
X79116757Y-71567546D01*
X79142731Y-71544317D01*
X79164447Y-71516815D01*
X79168073Y-71497869D01*
X79152077Y-71490813D01*
X79146771Y-71491213D01*
X79122478Y-71500587D01*
X79120596Y-71500951D01*
X79134310Y-71487585D01*
X79147930Y-71470158D01*
X79149297Y-71441972D01*
X79146101Y-71429373D01*
X79142619Y-71393660D01*
X79142365Y-71349727D01*
X79143545Y-71315358D01*
X79141139Y-71294670D01*
X79130318Y-71290935D01*
X79106415Y-71302933D01*
X79064760Y-71329443D01*
X79045621Y-71341363D01*
X79046209Y-71339415D01*
X79067008Y-71322468D01*
X79099023Y-71296792D01*
X79130762Y-71271204D01*
X79149162Y-71250685D01*
X79154325Y-71231698D01*
X79150464Y-71227727D01*
X79129243Y-71233056D01*
X79090571Y-71257476D01*
X79086831Y-71260148D01*
X79058348Y-71279352D01*
X79049108Y-71282499D01*
X79058213Y-71269934D01*
X79084066Y-71246129D01*
X79118016Y-71223388D01*
X79171803Y-71223388D01*
X79173363Y-71238855D01*
X79177283Y-71240893D01*
X79182051Y-71230166D01*
X79181111Y-71223267D01*
X79173363Y-71221478D01*
X79171803Y-71223388D01*
X79118016Y-71223388D01*
X79120117Y-71221981D01*
X79132679Y-71213708D01*
X79150538Y-71192652D01*
X79157530Y-71171493D01*
X79152222Y-71157331D01*
X79133180Y-71157266D01*
X79129682Y-71158346D01*
X79126173Y-71155039D01*
X79142954Y-71139401D01*
X79148247Y-71135235D01*
X79173363Y-71118346D01*
X79175853Y-71116672D01*
X79188017Y-71116881D01*
X79186863Y-71135682D01*
X79186350Y-71139321D01*
X79188337Y-71167196D01*
X79195854Y-71210517D01*
X79207632Y-71261574D01*
X79209659Y-71269592D01*
X79222089Y-71325927D01*
X79230859Y-71377932D01*
X79234180Y-71415253D01*
X79234266Y-71422958D01*
X79239496Y-71484383D01*
X79251413Y-71550958D01*
X79268035Y-71614887D01*
X79287381Y-71668374D01*
X79307469Y-71703622D01*
X79313405Y-71710984D01*
X79329258Y-71735640D01*
X79331750Y-71749460D01*
X79328082Y-71751389D01*
X79314924Y-71743615D01*
X79307343Y-71735701D01*
X79283052Y-71721595D01*
X79270870Y-71714518D01*
X79260118Y-71696481D01*
X79255832Y-71677922D01*
X79243803Y-71646489D01*
X79227486Y-71610356D01*
X79210365Y-71576751D01*
X79195922Y-71552903D01*
X79187640Y-71546042D01*
X79187511Y-71557956D01*
X79194512Y-71588137D01*
X79207466Y-71628936D01*
X79217335Y-71657193D01*
X79229068Y-71692722D01*
X79232717Y-71709448D01*
X79228813Y-71711074D01*
X79217890Y-71701297D01*
X79209739Y-71688833D01*
X79195463Y-71655748D01*
X79181718Y-71613329D01*
X79161836Y-71541639D01*
X79110040Y-71587361D01*
X79090140Y-71606193D01*
X79073786Y-71625802D01*
X79073765Y-71633626D01*
X79078374Y-71633268D01*
X79097298Y-71621206D01*
X79108432Y-71610125D01*
X79133906Y-71594084D01*
X79141252Y-71591199D01*
X79139841Y-71596739D01*
X79120023Y-71614605D01*
X79112711Y-71620812D01*
X79089701Y-71646440D01*
X79086651Y-71661624D01*
X79101977Y-71662789D01*
X79134095Y-71646360D01*
X79175535Y-71618982D01*
X79139696Y-71649871D01*
X79135283Y-71653789D01*
X79112952Y-71677974D01*
X79103857Y-71695792D01*
X79111126Y-71715004D01*
X79132010Y-71718962D01*
X79160066Y-71703958D01*
X79175347Y-71691737D01*
X79174763Y-71694942D01*
X79156811Y-71715886D01*
X79145823Y-71729083D01*
X79134149Y-71751424D01*
X79140348Y-71767098D01*
X79144584Y-71770695D01*
X79161473Y-71772136D01*
X79185976Y-71753893D01*
X79186668Y-71753247D01*
X79211300Y-71733573D01*
X79228504Y-71725459D01*
X79230111Y-71725962D01*
X79224718Y-71736003D01*
X79204044Y-71754855D01*
X79183927Y-71774754D01*
X79175661Y-71801097D01*
X79191344Y-71828023D01*
X79231691Y-71858207D01*
X79234913Y-71860165D01*
X79262838Y-71873145D01*
X79270321Y-71876623D01*
X79286310Y-71879869D01*
X79312317Y-71885150D01*
X79370496Y-71887793D01*
X79420112Y-71886538D01*
X79462368Y-71880149D01*
X79505369Y-71865938D01*
X79559988Y-71841230D01*
X79622960Y-71806271D01*
X79697310Y-71750608D01*
X79755217Y-71689156D01*
X79791954Y-71626294D01*
X79794442Y-71619241D01*
X79804141Y-71576649D01*
X79811773Y-71519806D01*
X79815978Y-71458232D01*
X79812735Y-71353822D01*
X79790695Y-71239118D01*
X79749597Y-71139321D01*
X79690294Y-71055915D01*
X79613642Y-70990387D01*
X79520494Y-70944222D01*
X79449214Y-70918852D01*
X79428064Y-70946235D01*
X79423294Y-70951334D01*
X79395491Y-70966916D01*
X79356243Y-70977398D01*
X79311696Y-70982679D01*
X79267996Y-70982663D01*
X79231292Y-70977250D01*
X79207728Y-70966341D01*
X79203454Y-70949839D01*
X79204526Y-70943799D01*
X79234812Y-70943799D01*
X79244619Y-70949900D01*
X79270701Y-70950023D01*
X79317838Y-70945433D01*
X79326637Y-70944398D01*
X79374470Y-70935459D01*
X79398743Y-70924933D01*
X79399045Y-70914871D01*
X79374962Y-70907329D01*
X79326084Y-70904358D01*
X79278880Y-70906140D01*
X79250814Y-70912458D01*
X79238677Y-70924469D01*
X79236500Y-70930452D01*
X79234812Y-70943799D01*
X79204526Y-70943799D01*
X79205220Y-70939892D01*
X79196478Y-70930423D01*
X79194333Y-70930584D01*
X79181540Y-70943951D01*
X79180831Y-70973747D01*
X79180424Y-70977362D01*
X79169129Y-70976104D01*
X79164764Y-70972285D01*
X79163059Y-70955587D01*
X79166279Y-70945228D01*
X79153090Y-70947133D01*
X79122292Y-70964931D01*
X79101295Y-70984809D01*
X79096537Y-71004705D01*
X79098304Y-71013016D01*
X79090675Y-71015041D01*
X79084328Y-71013631D01*
X79077792Y-71026310D01*
X79076709Y-71034915D01*
X79066483Y-71049886D01*
X79057053Y-71059787D01*
X79045567Y-71085095D01*
X79044658Y-71088092D01*
X79042152Y-71108369D01*
X79053618Y-71110073D01*
X79060800Y-71106153D01*
X79071276Y-71086637D01*
X79077027Y-71077069D01*
X79098625Y-71057833D01*
X79129402Y-71035593D01*
X79162004Y-71015207D01*
X79189079Y-71001533D01*
X79203273Y-70999430D01*
X79198703Y-71005289D01*
X79176727Y-71020359D01*
X79142140Y-71040383D01*
X79111511Y-71058491D01*
X79088867Y-71075366D01*
X79083214Y-71084320D01*
X79095848Y-71082793D01*
X79128063Y-71068223D01*
X79160692Y-71052383D01*
X79176342Y-71047179D01*
X79172372Y-71053025D01*
X79149985Y-71068334D01*
X79110384Y-71091520D01*
X79072994Y-71113371D01*
X79045732Y-71134144D01*
X79031481Y-71155150D01*
X79024484Y-71182487D01*
X79021667Y-71202003D01*
X79021668Y-71229598D01*
X79032512Y-71237342D01*
X79056699Y-71228833D01*
X79069268Y-71223162D01*
X79070894Y-71225293D01*
X79052165Y-71241250D01*
X79048168Y-71244543D01*
X79033098Y-71260664D01*
X79024432Y-71281702D01*
X79020300Y-71314702D01*
X79018830Y-71366710D01*
X79018764Y-71376397D01*
X78994302Y-71376397D01*
X78993844Y-71322484D01*
X78993583Y-71223650D01*
X78993631Y-71155593D01*
X78994523Y-71058407D01*
X78996545Y-70983117D01*
X78999819Y-70927102D01*
X79004470Y-70887744D01*
X79010621Y-70862421D01*
X79016207Y-70845039D01*
X79021415Y-70813134D01*
X79019918Y-70774170D01*
X79011789Y-70719065D01*
X79011779Y-70719008D01*
X79003889Y-70665290D01*
X78998932Y-70615663D01*
X78997980Y-70580864D01*
X78997940Y-70566544D01*
X78991013Y-70538825D01*
X78972058Y-70506753D01*
X78937598Y-70463573D01*
X78918568Y-70440867D01*
X78974863Y-70440867D01*
X78985345Y-70440948D01*
X79007066Y-70428958D01*
X79020487Y-70416211D01*
X79019147Y-70409744D01*
X79015724Y-70409911D01*
X78994718Y-70417159D01*
X78977678Y-70429881D01*
X78974863Y-70440867D01*
X78918568Y-70440867D01*
X78909474Y-70430017D01*
X78873914Y-70384124D01*
X78865867Y-70371427D01*
X78921405Y-70371427D01*
X78924899Y-70378037D01*
X78942796Y-70377645D01*
X78944996Y-70376816D01*
X78957062Y-70374920D01*
X78948680Y-70388123D01*
X78941412Y-70406511D01*
X78952892Y-70417513D01*
X78978874Y-70414294D01*
X78994168Y-70404078D01*
X78999066Y-70389934D01*
X78986566Y-70383065D01*
X78980160Y-70380342D01*
X78973534Y-70362122D01*
X78970343Y-70350300D01*
X78952919Y-70349090D01*
X78942174Y-70352946D01*
X78926855Y-70357001D01*
X78925272Y-70357625D01*
X78921405Y-70371427D01*
X78865867Y-70371427D01*
X78848332Y-70343758D01*
X78827719Y-70300573D01*
X78816231Y-70270348D01*
X78857181Y-70270348D01*
X78869275Y-70278807D01*
X78872454Y-70279111D01*
X78880898Y-70288581D01*
X78881000Y-70297137D01*
X78887149Y-70322242D01*
X78897528Y-70346273D01*
X78907401Y-70357001D01*
X78918806Y-70352681D01*
X78941720Y-70337867D01*
X78952919Y-70328958D01*
X78955450Y-70326944D01*
X78956958Y-70319737D01*
X78934437Y-70318119D01*
X78929996Y-70317992D01*
X78912936Y-70314669D01*
X78919816Y-70306129D01*
X78923539Y-70303289D01*
X78930182Y-70286584D01*
X78921897Y-70273286D01*
X78904214Y-70274580D01*
X78897222Y-70276475D01*
X78905747Y-70262920D01*
X78914054Y-70243159D01*
X78903334Y-70231314D01*
X78876967Y-70234546D01*
X78872697Y-70236605D01*
X78858977Y-70252510D01*
X78857181Y-70270348D01*
X78816231Y-70270348D01*
X78807062Y-70246226D01*
X78781943Y-70172683D01*
X78827777Y-70172683D01*
X78836335Y-70183432D01*
X78864841Y-70180206D01*
X78868853Y-70179017D01*
X78876016Y-70179099D01*
X78860071Y-70190092D01*
X78843178Y-70205175D01*
X78840610Y-70222470D01*
X78852919Y-70230931D01*
X78876342Y-70222317D01*
X78889984Y-70212714D01*
X78896342Y-70195890D01*
X78889060Y-70166109D01*
X78887413Y-70161200D01*
X78877515Y-70137113D01*
X78866429Y-70134097D01*
X78845962Y-70148876D01*
X78841836Y-70152390D01*
X78827777Y-70172683D01*
X78781943Y-70172683D01*
X78781627Y-70171758D01*
X78769404Y-70129393D01*
X78817146Y-70129393D01*
X78820901Y-70144431D01*
X78836165Y-70145309D01*
X78860739Y-70124651D01*
X78866429Y-70117797D01*
X78871058Y-70112221D01*
X78882015Y-70091257D01*
X78874935Y-70083322D01*
X78850720Y-70091522D01*
X78827503Y-70110010D01*
X78817146Y-70129393D01*
X78769404Y-70129393D01*
X78760672Y-70099129D01*
X78747558Y-70033621D01*
X78740570Y-69966342D01*
X78738187Y-69894353D01*
X78788586Y-69894353D01*
X78796369Y-69991029D01*
X78796986Y-69998508D01*
X78801486Y-70044594D01*
X78805963Y-70078408D01*
X78809533Y-70093085D01*
X78823035Y-70095417D01*
X78843509Y-70082898D01*
X78848714Y-70076544D01*
X78898124Y-70076544D01*
X78899684Y-70092010D01*
X78903334Y-70093909D01*
X78903604Y-70094049D01*
X78905476Y-70089838D01*
X78921405Y-70089838D01*
X78927921Y-70096354D01*
X78934437Y-70089838D01*
X78927921Y-70083322D01*
X78921405Y-70089838D01*
X78905476Y-70089838D01*
X78908372Y-70083322D01*
X78907432Y-70076423D01*
X78899684Y-70074634D01*
X78898124Y-70076544D01*
X78848714Y-70076544D01*
X78861530Y-70060900D01*
X78869275Y-70036792D01*
X78868716Y-70022013D01*
X78861556Y-70010914D01*
X78839953Y-70018421D01*
X78824586Y-70025689D01*
X78819205Y-70026394D01*
X78834940Y-70013085D01*
X78853522Y-69984950D01*
X78863330Y-69938828D01*
X78864491Y-69928168D01*
X78874468Y-69889323D01*
X78874935Y-69888523D01*
X78889742Y-69863170D01*
X78900312Y-69853548D01*
X78907774Y-69850571D01*
X78902374Y-69868288D01*
X78896024Y-69892360D01*
X78889960Y-69931595D01*
X78885936Y-69975250D01*
X78884417Y-70015778D01*
X78885868Y-70045629D01*
X78890752Y-70057257D01*
X78896568Y-70048010D01*
X78899684Y-70031144D01*
X78901913Y-70019079D01*
X78904713Y-69977312D01*
X78907053Y-69940151D01*
X78912868Y-69903169D01*
X78920549Y-69883479D01*
X78927921Y-69868358D01*
X78930656Y-69862748D01*
X78936212Y-69829843D01*
X78937035Y-69815932D01*
X78939523Y-69804975D01*
X78943532Y-69818639D01*
X78944610Y-69835672D01*
X78942100Y-69874939D01*
X78935460Y-69920849D01*
X78930735Y-69951690D01*
X78929379Y-69981408D01*
X78932438Y-70013768D01*
X78940844Y-70053127D01*
X78955534Y-70103843D01*
X78977441Y-70170274D01*
X79007500Y-70256777D01*
X79007662Y-70257238D01*
X79019147Y-70293151D01*
X79023300Y-70306137D01*
X79034446Y-70349262D01*
X79038695Y-70377326D01*
X79041845Y-70398001D01*
X79051728Y-70409130D01*
X79054843Y-70409509D01*
X79064760Y-70422162D01*
X79060221Y-70429589D01*
X79039465Y-70435195D01*
X79033594Y-70435384D01*
X79009938Y-70443501D01*
X79009073Y-70458722D01*
X79032243Y-70474316D01*
X79050738Y-70480433D01*
X79090415Y-70486998D01*
X79118967Y-70482723D01*
X79122120Y-70478493D01*
X79158135Y-70478493D01*
X79172784Y-70483373D01*
X79188067Y-70483917D01*
X79223995Y-70478407D01*
X79267269Y-70467045D01*
X79297642Y-70456409D01*
X79327064Y-70443070D01*
X79338439Y-70433411D01*
X79330624Y-70424007D01*
X79306569Y-70422999D01*
X79273957Y-70431472D01*
X79240696Y-70448227D01*
X79238027Y-70449960D01*
X79203987Y-70467584D01*
X79175535Y-70475717D01*
X79168451Y-70476200D01*
X79158135Y-70478493D01*
X79122120Y-70478493D01*
X79129922Y-70468024D01*
X79139781Y-70452475D01*
X79165761Y-70440409D01*
X79194658Y-70431153D01*
X79231078Y-70413693D01*
X79234665Y-70411591D01*
X79269250Y-70399172D01*
X79306569Y-70394290D01*
X79308792Y-70393999D01*
X79343447Y-70396548D01*
X79363369Y-70407294D01*
X79375348Y-70411687D01*
X79400337Y-70401141D01*
X79432570Y-70377160D01*
X79467442Y-70343765D01*
X79500346Y-70304975D01*
X79526676Y-70264808D01*
X79536231Y-70246627D01*
X79551245Y-70211876D01*
X79560755Y-70175305D01*
X79566518Y-70128834D01*
X79570293Y-70064380D01*
X79576085Y-69933450D01*
X79518408Y-69822675D01*
X79504003Y-69795419D01*
X79477209Y-69749219D01*
X79452973Y-69717216D01*
X79425749Y-69692787D01*
X79389990Y-69669308D01*
X79340971Y-69641829D01*
X79281929Y-69616821D01*
X79218992Y-69601356D01*
X79141145Y-69592015D01*
X79044378Y-69592746D01*
X78959293Y-69611223D01*
X78889132Y-69645958D01*
X78836185Y-69695382D01*
X78802739Y-69757926D01*
X78791081Y-69832021D01*
X78791081Y-69877281D01*
X78849727Y-69842913D01*
X78879330Y-69826264D01*
X78902834Y-69815268D01*
X78905458Y-69817577D01*
X78887305Y-69831994D01*
X78848479Y-69857318D01*
X78788586Y-69894353D01*
X78738187Y-69894353D01*
X78737990Y-69888400D01*
X78737779Y-69855075D01*
X78738925Y-69797265D01*
X78743033Y-69755407D01*
X78751011Y-69722581D01*
X78763767Y-69691862D01*
X78772118Y-69673755D01*
X78785714Y-69639486D01*
X78791081Y-69618226D01*
X78789847Y-69612635D01*
X78773308Y-69602638D01*
X78744044Y-69603484D01*
X78710452Y-69615461D01*
X78709232Y-69616091D01*
X78676778Y-69625792D01*
X78637073Y-69629797D01*
X78629691Y-69630456D01*
X78593873Y-69640308D01*
X78543505Y-69659822D01*
X78484548Y-69686227D01*
X78422965Y-69716755D01*
X78364715Y-69748635D01*
X78315760Y-69779098D01*
X78307297Y-69785023D01*
X78297469Y-69793872D01*
X78304782Y-69794624D01*
X78331670Y-69786955D01*
X78380563Y-69770546D01*
X78416068Y-69758952D01*
X78451395Y-69748904D01*
X78470572Y-69745389D01*
X78470278Y-69748696D01*
X78451973Y-69758093D01*
X78420218Y-69771297D01*
X78381090Y-69786032D01*
X78340665Y-69800022D01*
X78305020Y-69810992D01*
X78280232Y-69816666D01*
X78276154Y-69817365D01*
X78244067Y-69826875D01*
X78198713Y-69844094D01*
X78148536Y-69865866D01*
X78147306Y-69866434D01*
X78095022Y-69892503D01*
X78057808Y-69917571D01*
X78026384Y-69949289D01*
X77991466Y-69995308D01*
X77985529Y-70003565D01*
X77954074Y-70045440D01*
X77926647Y-70079146D01*
X77908616Y-70098027D01*
X77905721Y-70099883D01*
X77907615Y-70092596D01*
X77922609Y-70069607D01*
X77948488Y-70034451D01*
X77957122Y-70022974D01*
X77982112Y-69987314D01*
X77996703Y-69962381D01*
X77997966Y-69952999D01*
X77994369Y-69954104D01*
X77975506Y-69970199D01*
X77948386Y-70001399D01*
X77917318Y-70042472D01*
X77886612Y-70088184D01*
X77883013Y-70094095D01*
X77873803Y-70113467D01*
X77877467Y-70116738D01*
X77886278Y-70112129D01*
X77890067Y-70114551D01*
X77884487Y-70129226D01*
X77868163Y-70159504D01*
X77839722Y-70208735D01*
X77834811Y-70217266D01*
X77810840Y-70263010D01*
X77793970Y-70302047D01*
X77787592Y-70326702D01*
X77785304Y-70345263D01*
X77776064Y-70362587D01*
X77771903Y-70368144D01*
X77763058Y-70393937D01*
X77755580Y-70431776D01*
X77752939Y-70449341D01*
X77745581Y-70493053D01*
X77739143Y-70525107D01*
X77737623Y-70531927D01*
X77737567Y-70548424D01*
X77749853Y-70545411D01*
X77750373Y-70545099D01*
X77761357Y-70540618D01*
X77753644Y-70553242D01*
X77752094Y-70555333D01*
X77736324Y-70584229D01*
X77724255Y-70618070D01*
X77718592Y-70647464D01*
X75229569Y-70647464D01*
X75201570Y-70635160D01*
X75102934Y-70588610D01*
X75036316Y-70555486D01*
X74959779Y-70515637D01*
X74879853Y-70472534D01*
X74799846Y-70428096D01*
X74723069Y-70384243D01*
X74652830Y-70342893D01*
X74592439Y-70305967D01*
X74545205Y-70275383D01*
X74514438Y-70253061D01*
X74503447Y-70240921D01*
X74504274Y-70235675D01*
X74510225Y-70209432D01*
X74520661Y-70167235D01*
X74534087Y-70115214D01*
X74552681Y-70050933D01*
X74577383Y-69976127D01*
X74605749Y-69897728D01*
X74636087Y-69819787D01*
X74666706Y-69746351D01*
X74695915Y-69681471D01*
X74722024Y-69629193D01*
X74743341Y-69593569D01*
X74758176Y-69578645D01*
X74764348Y-69580335D01*
X74787072Y-69596656D01*
X74821528Y-69627035D01*
X74864211Y-69667848D01*
X74911619Y-69715472D01*
X74960248Y-69766284D01*
X75006595Y-69816662D01*
X75047156Y-69862981D01*
X75078427Y-69901618D01*
X75096907Y-69928952D01*
X75097321Y-69929712D01*
X75118209Y-69957040D01*
X75154827Y-69995282D01*
X75202153Y-70040005D01*
X75255166Y-70086772D01*
X75308845Y-70131148D01*
X75358167Y-70168697D01*
X75398110Y-70194985D01*
X75423408Y-70209795D01*
X75458820Y-70231789D01*
X75480871Y-70247127D01*
X75481643Y-70247731D01*
X75504677Y-70260011D01*
X75544030Y-70276334D01*
X75591646Y-70293341D01*
X75601351Y-70296512D01*
X75629480Y-70304931D01*
X75657601Y-70311447D01*
X75689440Y-70316334D01*
X75728719Y-70319865D01*
X75779165Y-70322314D01*
X75844501Y-70323956D01*
X75928453Y-70325063D01*
X76034745Y-70325910D01*
X76166033Y-70327510D01*
X76305112Y-70331319D01*
X76421403Y-70337277D01*
X76516670Y-70345508D01*
X76592682Y-70356137D01*
X76651205Y-70369287D01*
X76658795Y-70371363D01*
X76665469Y-70372237D01*
X76687278Y-70375092D01*
X76698567Y-70366061D01*
X76699269Y-70363613D01*
X76706483Y-70339748D01*
X76718786Y-70299833D01*
X76733968Y-70251046D01*
X76765046Y-70151608D01*
X76595380Y-70104287D01*
X76579350Y-70099830D01*
X76518052Y-70083041D01*
X76467023Y-70069461D01*
X76431201Y-70060387D01*
X76415522Y-70057112D01*
X76413523Y-70056927D01*
X76392296Y-70050728D01*
X76360285Y-70038437D01*
X76315242Y-70019616D01*
X76341601Y-69956985D01*
X76348062Y-69941832D01*
X76376223Y-69880160D01*
X76402314Y-69829544D01*
X76423920Y-69794412D01*
X76438623Y-69779192D01*
X76439053Y-69779075D01*
X76457557Y-69781050D01*
X76495434Y-69789027D01*
X76547398Y-69801792D01*
X76608167Y-69818132D01*
X76707832Y-69842539D01*
X76819400Y-69863695D01*
X76831518Y-69865993D01*
X76957668Y-69883572D01*
X77150782Y-69905302D01*
X77217694Y-69838389D01*
X77222270Y-69833784D01*
X77252831Y-69801201D01*
X77272849Y-69776619D01*
X77278184Y-69765055D01*
X77278169Y-69765040D01*
X77263283Y-69761494D01*
X77227741Y-69756600D01*
X77176846Y-69751002D01*
X77115901Y-69745343D01*
X77043357Y-69738292D01*
X76940580Y-69723866D01*
X76852582Y-69704496D01*
X76772400Y-69678519D01*
X76693075Y-69644270D01*
X76677612Y-69636775D01*
X76611214Y-69602050D01*
X76551129Y-69565212D01*
X76492748Y-69522685D01*
X76431462Y-69470896D01*
X76362663Y-69406269D01*
X76281741Y-69325231D01*
X76228403Y-69270489D01*
X76180384Y-69220722D01*
X76141604Y-69180019D01*
X76115080Y-69151549D01*
X76103831Y-69138478D01*
X76103590Y-69138011D01*
X76112798Y-69131149D01*
X76145788Y-69126684D01*
X76200482Y-69124909D01*
X76239926Y-69124484D01*
X76278505Y-69122160D01*
X76303569Y-69115830D01*
X76322469Y-69103294D01*
X76342553Y-69082348D01*
X76351141Y-69072112D01*
X76371827Y-69040745D01*
X76380101Y-69016787D01*
X76374802Y-68979852D01*
X76354992Y-68923422D01*
X76324520Y-68865145D01*
X76287661Y-68814384D01*
X76276768Y-68803105D01*
X76241747Y-68772860D01*
X76197081Y-68739176D01*
X76148734Y-68706039D01*
X76102674Y-68677434D01*
X76064865Y-68657347D01*
X76041275Y-68649766D01*
X76038690Y-68649078D01*
X76021260Y-68635754D01*
X75997757Y-68610799D01*
X75997129Y-68610045D01*
X75970173Y-68562646D01*
X75950782Y-68499558D01*
X75941087Y-68430391D01*
X75943217Y-68364759D01*
X75944166Y-68358539D01*
X75952482Y-68315134D01*
X75964172Y-68264442D01*
X75977120Y-68214674D01*
X75989212Y-68174043D01*
X75998332Y-68150764D01*
X76004425Y-68152966D01*
X76019187Y-68172720D01*
X76038310Y-68206400D01*
X76043434Y-68215710D01*
X76082207Y-68268967D01*
X76136653Y-68326364D01*
X76200166Y-68382013D01*
X76266141Y-68430030D01*
X76327972Y-68464527D01*
X76341755Y-68470336D01*
X76386003Y-68486430D01*
X76439804Y-68503596D01*
X76497438Y-68520296D01*
X76553188Y-68534993D01*
X76601335Y-68546147D01*
X76636163Y-68552222D01*
X76651954Y-68551678D01*
X76652517Y-68549502D01*
X76643915Y-68533099D01*
X76623035Y-68508327D01*
X76604928Y-68484308D01*
X76581402Y-68443540D01*
X76559302Y-68397562D01*
X76542905Y-68355383D01*
X76536489Y-68326014D01*
X76536868Y-68325537D01*
X76548847Y-68333442D01*
X76575141Y-68356128D01*
X76612342Y-68390552D01*
X76657043Y-68433670D01*
X76734578Y-68505267D01*
X76820870Y-68572519D01*
X76917671Y-68634513D01*
X76934477Y-68644511D01*
X77056433Y-68723466D01*
X77165980Y-68805721D01*
X77258878Y-68887870D01*
X77330887Y-68966506D01*
X77369339Y-69019691D01*
X77429791Y-69121121D01*
X77491866Y-69245934D01*
X77554767Y-69392609D01*
X77570431Y-69429968D01*
X77590974Y-69473883D01*
X77607489Y-69503312D01*
X77617402Y-69513300D01*
X77629332Y-69508040D01*
X77630256Y-69507535D01*
X78830178Y-69507535D01*
X78832267Y-69524134D01*
X78841845Y-69541636D01*
X78850616Y-69543785D01*
X78858235Y-69534921D01*
X78940953Y-69534921D01*
X78989055Y-69535442D01*
X79017115Y-69533276D01*
X79041258Y-69525017D01*
X79048386Y-69513612D01*
X79035440Y-69503383D01*
X79064760Y-69503383D01*
X79071276Y-69509900D01*
X79077792Y-69503383D01*
X79071276Y-69496867D01*
X79064760Y-69503383D01*
X79035440Y-69503383D01*
X79034083Y-69502311D01*
X79033858Y-69502227D01*
X79009397Y-69503006D01*
X78977869Y-69514913D01*
X78940953Y-69534921D01*
X78858235Y-69534921D01*
X78859580Y-69533356D01*
X78859565Y-69514057D01*
X78848952Y-69496224D01*
X78845855Y-69493734D01*
X78833258Y-69489314D01*
X78830178Y-69507535D01*
X77630256Y-69507535D01*
X77658480Y-69492103D01*
X77695939Y-69469827D01*
X77727607Y-69448593D01*
X77753161Y-69423804D01*
X77760171Y-69401265D01*
X77758167Y-69386761D01*
X77749089Y-69350751D01*
X77735001Y-69306269D01*
X77718368Y-69260012D01*
X77701655Y-69218679D01*
X77687326Y-69188968D01*
X77677848Y-69177575D01*
X77671504Y-69184176D01*
X77661235Y-69210210D01*
X77651436Y-69249253D01*
X77644636Y-69280771D01*
X77632078Y-69323783D01*
X77618709Y-69346730D01*
X77602705Y-69353512D01*
X77600946Y-69353245D01*
X77594388Y-69337948D01*
X77597232Y-69300634D01*
X77597832Y-69296571D01*
X77600101Y-69238629D01*
X77594750Y-69165170D01*
X77582964Y-69084450D01*
X77565921Y-69004725D01*
X77544805Y-68934253D01*
X77493208Y-68819738D01*
X77410317Y-68694229D01*
X77302819Y-68576730D01*
X77300075Y-68574142D01*
X77252565Y-68531958D01*
X77200054Y-68489300D01*
X77192834Y-68483857D01*
X77910478Y-68483857D01*
X77912880Y-68501963D01*
X77923847Y-68536230D01*
X77941353Y-68580164D01*
X77957502Y-68618985D01*
X77988490Y-68703775D01*
X78016071Y-68796042D01*
X78041993Y-68901960D01*
X78068004Y-69027704D01*
X78081153Y-69093651D01*
X78097310Y-69170385D01*
X78113594Y-69243912D01*
X78128959Y-69309762D01*
X78142359Y-69363464D01*
X78152745Y-69400548D01*
X78159071Y-69416543D01*
X78170282Y-69411589D01*
X78196136Y-69394000D01*
X78214768Y-69379855D01*
X78794919Y-69379855D01*
X78811016Y-69406012D01*
X78833258Y-69432422D01*
X78841908Y-69442693D01*
X78891624Y-69499293D01*
X78946594Y-69471249D01*
X78963524Y-69463297D01*
X78999246Y-69450711D01*
X79023388Y-69447867D01*
X79025913Y-69452373D01*
X79009847Y-69462664D01*
X78976792Y-69475745D01*
X78948781Y-69486307D01*
X78919664Y-69500540D01*
X78908372Y-69510947D01*
X78908372Y-69511844D01*
X78909287Y-69519058D01*
X78915195Y-69521130D01*
X78930848Y-69516801D01*
X78960994Y-69504813D01*
X79010385Y-69483906D01*
X79018242Y-69480614D01*
X79031406Y-69475685D01*
X79180243Y-69475685D01*
X79185557Y-69479834D01*
X79198783Y-69481929D01*
X79224654Y-69479351D01*
X79225816Y-69478832D01*
X79223856Y-69474752D01*
X79201600Y-69473343D01*
X79197552Y-69473429D01*
X79180243Y-69475685D01*
X79031406Y-69475685D01*
X79033858Y-69474767D01*
X79063680Y-69463600D01*
X79071276Y-69461432D01*
X79099957Y-69453244D01*
X79119823Y-69451683D01*
X79124090Y-69452748D01*
X79151996Y-69452549D01*
X79189124Y-69446405D01*
X79199316Y-69443994D01*
X79201600Y-69443378D01*
X79221673Y-69437960D01*
X79249997Y-69437960D01*
X79251557Y-69453426D01*
X79255477Y-69455465D01*
X79260245Y-69444738D01*
X79259304Y-69437839D01*
X79251557Y-69436050D01*
X79249997Y-69437960D01*
X79221673Y-69437960D01*
X79223255Y-69437533D01*
X79223702Y-69434416D01*
X79202251Y-69433015D01*
X79189375Y-69432254D01*
X79173768Y-69427312D01*
X79179445Y-69416067D01*
X79182126Y-69413282D01*
X79194391Y-69393959D01*
X79190452Y-69385463D01*
X79172277Y-69393877D01*
X79167677Y-69397066D01*
X79166439Y-69394078D01*
X79181065Y-69375924D01*
X79182296Y-69374598D01*
X79195083Y-69374598D01*
X79195932Y-69376381D01*
X79208116Y-69373060D01*
X79211974Y-69370383D01*
X79221148Y-69358490D01*
X79220299Y-69356707D01*
X79208116Y-69360028D01*
X79204258Y-69362705D01*
X79195083Y-69374598D01*
X79182296Y-69374598D01*
X79184364Y-69372370D01*
X79212958Y-69349734D01*
X79220299Y-69347097D01*
X79238724Y-69340479D01*
X79239355Y-69340480D01*
X79255702Y-69341826D01*
X79254886Y-69349865D01*
X79236452Y-69370642D01*
X79235398Y-69371768D01*
X79216094Y-69394150D01*
X79208116Y-69406808D01*
X79211115Y-69408629D01*
X79232628Y-69411233D01*
X79251557Y-69411541D01*
X79268055Y-69411810D01*
X79273040Y-69411692D01*
X79317636Y-69405456D01*
X79339730Y-69389838D01*
X79340634Y-69388119D01*
X79341465Y-69373445D01*
X79325781Y-69358258D01*
X79289565Y-69338440D01*
X79268771Y-69328003D01*
X79246254Y-69314707D01*
X79243758Y-69307511D01*
X79258761Y-69303559D01*
X79260039Y-69303401D01*
X79292779Y-69308858D01*
X79327949Y-69327266D01*
X79343749Y-69338161D01*
X79366932Y-69347204D01*
X79384677Y-69339961D01*
X79393545Y-69329399D01*
X79395304Y-69311534D01*
X79395127Y-69311213D01*
X79402744Y-69305921D01*
X79426447Y-69304312D01*
X79456996Y-69305920D01*
X79485150Y-69310276D01*
X79501670Y-69316914D01*
X79500367Y-69322211D01*
X79485371Y-69341053D01*
X79458820Y-69367435D01*
X79437705Y-69386747D01*
X79423869Y-69398688D01*
X79427256Y-69393486D01*
X79446789Y-69371506D01*
X79452505Y-69365114D01*
X79470953Y-69341948D01*
X79473021Y-69329681D01*
X79460439Y-69322041D01*
X79439803Y-69321292D01*
X79408457Y-69335429D01*
X79381062Y-69360562D01*
X79366953Y-69389914D01*
X79353681Y-69412847D01*
X79314823Y-69433291D01*
X79266761Y-69449396D01*
X79331923Y-69465067D01*
X79364588Y-69473106D01*
X79381347Y-69478523D01*
X79375906Y-69481035D01*
X79349992Y-69482287D01*
X79330776Y-69483606D01*
X79282727Y-69489694D01*
X79232701Y-69498663D01*
X79206028Y-69504016D01*
X79160187Y-69512080D01*
X79126664Y-69516582D01*
X79097550Y-69519244D01*
X79074641Y-69522688D01*
X79067824Y-69527600D01*
X79071306Y-69536012D01*
X79082822Y-69542547D01*
X79108836Y-69541702D01*
X79116724Y-69540464D01*
X79141145Y-69541518D01*
X79155031Y-69542118D01*
X79206841Y-69550885D01*
X79263977Y-69564853D01*
X79318263Y-69582112D01*
X79361523Y-69600751D01*
X79367947Y-69604272D01*
X79409241Y-69630112D01*
X79443913Y-69656262D01*
X79460541Y-69672743D01*
X79500320Y-69724939D01*
X79538871Y-69790579D01*
X79571579Y-69861280D01*
X79593832Y-69928658D01*
X79615106Y-70015093D01*
X79706029Y-69919375D01*
X79743612Y-69881139D01*
X79787609Y-69842145D01*
X79827716Y-69815473D01*
X79870680Y-69796072D01*
X79965858Y-69769970D01*
X80086897Y-69760536D01*
X80211605Y-69775230D01*
X80214269Y-69775800D01*
X80268909Y-69786839D01*
X80319342Y-69795996D01*
X80354960Y-69801338D01*
X80362744Y-69802383D01*
X80358660Y-69802983D01*
X80333319Y-69801945D01*
X80289799Y-69799364D01*
X80202084Y-69794312D01*
X80098044Y-69790930D01*
X80013415Y-69792540D01*
X79944471Y-69799837D01*
X79887482Y-69813516D01*
X79838723Y-69834272D01*
X79794466Y-69862800D01*
X79750983Y-69899793D01*
X79703565Y-69947175D01*
X79651984Y-70012014D01*
X79618795Y-70076209D01*
X79600608Y-70145296D01*
X79579173Y-70229985D01*
X79531395Y-70326473D01*
X79459699Y-70413146D01*
X79406851Y-70460944D01*
X79327420Y-70515885D01*
X79250433Y-70547205D01*
X79173743Y-70555974D01*
X79106789Y-70554113D01*
X79091765Y-70608686D01*
X79086384Y-70638267D01*
X79086387Y-70704278D01*
X79098275Y-70774453D01*
X79120590Y-70837229D01*
X79121405Y-70838876D01*
X79135814Y-70859986D01*
X79156775Y-70868686D01*
X79193886Y-70869159D01*
X79206300Y-70868126D01*
X79246225Y-70859257D01*
X79273869Y-70845177D01*
X79290638Y-70834307D01*
X79325098Y-70832583D01*
X79326084Y-70832700D01*
X79344132Y-70834833D01*
X79371960Y-70825384D01*
X79384205Y-70817878D01*
X79399571Y-70817791D01*
X79401623Y-70821043D01*
X79392740Y-70826164D01*
X79387706Y-70826929D01*
X79377536Y-70839655D01*
X79382101Y-70846351D01*
X79403307Y-70839354D01*
X79407530Y-70837144D01*
X79422998Y-70832239D01*
X79422141Y-70843639D01*
X79426283Y-70858804D01*
X79449214Y-70867484D01*
X79455015Y-70869680D01*
X79517070Y-70889716D01*
X79587754Y-70927001D01*
X79656613Y-70975937D01*
X79717842Y-71031804D01*
X79765638Y-71089884D01*
X79794195Y-71145456D01*
X79811359Y-71190634D01*
X79831103Y-71220812D01*
X79851696Y-71228314D01*
X79865486Y-71230688D01*
X79897368Y-71241579D01*
X79937926Y-71258578D01*
X80046924Y-71300016D01*
X80160120Y-71328065D01*
X80265411Y-71339232D01*
X80291941Y-71339423D01*
X80330458Y-71336894D01*
X80365428Y-71328627D01*
X80405561Y-71312194D01*
X80459568Y-71285173D01*
X80485688Y-71271848D01*
X80528559Y-71251108D01*
X80559147Y-71237836D01*
X80572100Y-71234444D01*
X80572507Y-71234903D01*
X80569938Y-71243930D01*
X80550656Y-71259229D01*
X80512349Y-71282359D01*
X80452703Y-71314879D01*
X80446793Y-71318014D01*
X80404192Y-71339825D01*
X80371648Y-71352782D01*
X80340144Y-71358688D01*
X80300662Y-71359345D01*
X80244185Y-71356557D01*
X80234572Y-71355960D01*
X80123486Y-71341302D01*
X80013626Y-71310621D01*
X79900357Y-71271433D01*
X79894852Y-71299671D01*
X79889346Y-71327909D01*
X79887571Y-71299045D01*
X79880557Y-71278131D01*
X79857942Y-71255273D01*
X79841078Y-71247443D01*
X79834282Y-71252365D01*
X79838550Y-71277621D01*
X79852806Y-71360954D01*
X79856843Y-71479414D01*
X79841330Y-71589709D01*
X79806652Y-71686883D01*
X79801733Y-71696083D01*
X79761198Y-71749631D01*
X79702723Y-71804119D01*
X79632521Y-71854949D01*
X79556807Y-71897526D01*
X79481794Y-71927249D01*
X79473675Y-71929864D01*
X79436784Y-71943679D01*
X79395611Y-71961042D01*
X79361492Y-71979313D01*
X79342952Y-72000874D01*
X79333850Y-72034425D01*
X79328808Y-72068825D01*
X79325309Y-72124777D01*
X79331743Y-72158015D01*
X79348213Y-72169523D01*
X79359301Y-72171387D01*
X79354729Y-72177125D01*
X79352912Y-72177968D01*
X79340736Y-72193083D01*
X79339655Y-72211592D01*
X79350824Y-72220623D01*
X79357748Y-72218526D01*
X79373630Y-72202281D01*
X79373650Y-72202247D01*
X79390051Y-72189393D01*
X79424420Y-72170797D01*
X79470140Y-72149291D01*
X79520594Y-72127707D01*
X79569165Y-72108875D01*
X79609235Y-72095627D01*
X79634187Y-72090795D01*
X79636848Y-72091750D01*
X79627119Y-72099515D01*
X79598776Y-72113356D01*
X79555858Y-72131191D01*
X79537620Y-72138452D01*
X79495864Y-72156139D01*
X79467957Y-72169568D01*
X79459173Y-72176281D01*
X79460442Y-72176664D01*
X79479129Y-72173431D01*
X79491990Y-72169851D01*
X79638182Y-72169851D01*
X79645738Y-72169697D01*
X79672431Y-72160586D01*
X79713855Y-72143456D01*
X79765248Y-72120170D01*
X79766594Y-72119537D01*
X79828571Y-72089934D01*
X79872846Y-72067800D01*
X79897915Y-72053966D01*
X79902270Y-72049262D01*
X79884404Y-72054517D01*
X79863708Y-72062289D01*
X79818758Y-72080763D01*
X79769085Y-72102609D01*
X79720441Y-72125135D01*
X79678576Y-72145646D01*
X79649239Y-72161449D01*
X79638182Y-72169851D01*
X79491990Y-72169851D01*
X79514600Y-72163557D01*
X79560554Y-72148753D01*
X79570636Y-72145372D01*
X79616640Y-72131219D01*
X79652105Y-72122316D01*
X79670043Y-72120468D01*
X79672843Y-72120651D01*
X79695597Y-72114774D01*
X79733425Y-72100539D01*
X79779810Y-72080329D01*
X79810651Y-72066496D01*
X79853991Y-72049929D01*
X79883228Y-72044308D01*
X79902270Y-72047916D01*
X79903845Y-72048214D01*
X79913091Y-72054372D01*
X79911806Y-72062670D01*
X79895681Y-72074746D01*
X79861696Y-72092803D01*
X79806828Y-72119048D01*
X79770412Y-72136667D01*
X79717857Y-72164053D01*
X79675613Y-72188398D01*
X79650440Y-72205946D01*
X79636296Y-72218453D01*
X79601231Y-72248833D01*
X79563247Y-72281191D01*
X79541514Y-72301442D01*
X79517283Y-72330516D01*
X79507859Y-72351694D01*
X79505978Y-72365043D01*
X79494641Y-72383642D01*
X79491883Y-72385628D01*
X79473078Y-72410293D01*
X79455151Y-72447938D01*
X79442579Y-72487575D01*
X79439838Y-72518213D01*
X79454421Y-72544821D01*
X79488297Y-72566986D01*
X79533772Y-72579062D01*
X79583482Y-72577984D01*
X79602174Y-72574234D01*
X79661315Y-72559098D01*
X79730563Y-72538165D01*
X79800006Y-72514544D01*
X79859732Y-72491344D01*
X79893562Y-72474296D01*
X79936399Y-72448181D01*
X79979743Y-72418348D01*
X80017833Y-72389001D01*
X80044911Y-72364348D01*
X80055217Y-72348592D01*
X80054233Y-72344556D01*
X80042184Y-72344430D01*
X80037552Y-72346845D01*
X80029152Y-72345658D01*
X80035521Y-72337902D01*
X80056789Y-72324040D01*
X80075759Y-72316136D01*
X80075569Y-72323581D01*
X80073166Y-72330788D01*
X80083953Y-72337289D01*
X80111834Y-72333432D01*
X80152364Y-72319454D01*
X80161771Y-72315189D01*
X80207546Y-72279827D01*
X80235058Y-72227278D01*
X80244537Y-72156856D01*
X80236212Y-72067872D01*
X80227079Y-72026541D01*
X80215672Y-71992962D01*
X80205106Y-71977728D01*
X80187105Y-71978867D01*
X80152332Y-71988551D01*
X80109266Y-72004781D01*
X80090488Y-72012589D01*
X80043989Y-72030655D01*
X80019830Y-72037906D01*
X80017352Y-72035155D01*
X80035896Y-72023214D01*
X80074802Y-72002897D01*
X80133411Y-71975016D01*
X80228223Y-71926951D01*
X80351481Y-71854057D01*
X80479369Y-71768655D01*
X80605692Y-71675144D01*
X80724251Y-71577923D01*
X80828849Y-71481390D01*
X80845060Y-71465195D01*
X80898957Y-71409934D01*
X80956778Y-71348877D01*
X81015781Y-71285103D01*
X81073226Y-71221694D01*
X81126373Y-71161730D01*
X81172481Y-71108292D01*
X81208808Y-71064461D01*
X81232614Y-71033318D01*
X81241158Y-71017942D01*
X81243513Y-71010524D01*
X81256476Y-70985434D01*
X81277154Y-70950235D01*
X81301407Y-70911469D01*
X81325098Y-70875679D01*
X81344086Y-70849408D01*
X81354233Y-70839197D01*
X81356147Y-70842565D01*
X81349854Y-70856010D01*
X81332805Y-70883273D01*
X81302846Y-70928081D01*
X81288806Y-70949970D01*
X81274055Y-70977320D01*
X81270912Y-70990585D01*
X81273789Y-70990343D01*
X81288753Y-70977716D01*
X81310519Y-70953843D01*
X81333269Y-70925743D01*
X81351184Y-70900437D01*
X81358449Y-70884946D01*
X81358737Y-70883230D01*
X81368034Y-70864602D01*
X81386358Y-70836607D01*
X81389237Y-70832468D01*
X81407786Y-70800558D01*
X81416652Y-70775950D01*
X81417109Y-70772907D01*
X81425233Y-70744556D01*
X81439222Y-70708873D01*
X81444837Y-70695674D01*
X81459394Y-70651884D01*
X81466903Y-70605772D01*
X81467543Y-70551597D01*
X81461493Y-70483619D01*
X81448931Y-70396098D01*
X81428115Y-70281799D01*
X81404782Y-70188746D01*
X81378000Y-70115293D01*
X81346584Y-70058199D01*
X81309350Y-70014223D01*
X81295411Y-70003405D01*
X81249188Y-69978385D01*
X81179529Y-69949142D01*
X81087858Y-69916205D01*
X80975601Y-69880102D01*
X80844182Y-69841365D01*
X80809108Y-69830952D01*
X80763110Y-69815618D01*
X80731572Y-69802907D01*
X80719865Y-69794832D01*
X80719897Y-69793452D01*
X80724110Y-69783578D01*
X80737548Y-69787073D01*
X80771121Y-69796670D01*
X80819973Y-69810926D01*
X80879256Y-69828399D01*
X80944121Y-69847646D01*
X81009722Y-69867225D01*
X81071209Y-69885691D01*
X81123736Y-69901604D01*
X81162453Y-69913519D01*
X81182513Y-69919995D01*
X81194117Y-69923500D01*
X81195133Y-69919484D01*
X81175997Y-69902372D01*
X81175152Y-69901677D01*
X81148361Y-69882996D01*
X81129028Y-69875094D01*
X81126551Y-69874698D01*
X81105827Y-69863419D01*
X81078732Y-69841525D01*
X81066642Y-69831806D01*
X81025844Y-69805835D01*
X80968174Y-69774162D01*
X80898692Y-69739203D01*
X80822457Y-69703374D01*
X80744532Y-69669090D01*
X80669975Y-69638768D01*
X80603847Y-69614822D01*
X80603783Y-69614800D01*
X80507186Y-69584621D01*
X80401153Y-69554576D01*
X80292493Y-69526356D01*
X80188016Y-69501653D01*
X80094529Y-69482158D01*
X80018843Y-69469559D01*
X80011512Y-69468641D01*
X79949328Y-69463501D01*
X79869545Y-69460262D01*
X79779480Y-69459128D01*
X79686451Y-69460301D01*
X79620268Y-69461951D01*
X79558966Y-69463063D01*
X79518080Y-69462877D01*
X79494486Y-69461120D01*
X79485059Y-69457520D01*
X79486673Y-69451803D01*
X79496206Y-69443698D01*
X79520913Y-69430314D01*
X79543060Y-69427998D01*
X79553602Y-69429395D01*
X79577644Y-69420244D01*
X79587962Y-69414147D01*
X79604231Y-69415131D01*
X79608023Y-69416267D01*
X79604896Y-69401986D01*
X79602387Y-69389300D01*
X79609637Y-69379576D01*
X79614958Y-69380726D01*
X79628796Y-69395867D01*
X79632488Y-69401943D01*
X79645795Y-69401674D01*
X79648774Y-69394039D01*
X79637805Y-69379067D01*
X79628942Y-69372268D01*
X79629339Y-69366744D01*
X79631163Y-69366552D01*
X79631657Y-69359005D01*
X79616953Y-69344324D01*
X79593350Y-69327783D01*
X79567146Y-69314658D01*
X79553640Y-69309749D01*
X79520912Y-69299940D01*
X79481013Y-69291275D01*
X79427689Y-69282510D01*
X79354684Y-69272401D01*
X79340788Y-69270604D01*
X79286506Y-69265148D01*
X79243501Y-69265452D01*
X79199913Y-69272309D01*
X79143882Y-69286514D01*
X79079918Y-69302098D01*
X79005326Y-69317148D01*
X78938997Y-69327695D01*
X78921101Y-69329984D01*
X78856709Y-69339286D01*
X78815635Y-69349016D01*
X78795749Y-69361698D01*
X78794919Y-69379855D01*
X78214768Y-69379855D01*
X78230902Y-69367606D01*
X78265811Y-69342242D01*
X78304663Y-69318702D01*
X78332946Y-69306743D01*
X78359213Y-69300668D01*
X78383821Y-69294187D01*
X78389778Y-69291116D01*
X78398715Y-69272469D01*
X78394068Y-69238903D01*
X78383998Y-69184357D01*
X78370069Y-69116833D01*
X78353720Y-69042663D01*
X78336388Y-68968178D01*
X78319509Y-68899711D01*
X78304523Y-68843592D01*
X78292864Y-68806154D01*
X78273393Y-68761051D01*
X78239724Y-68696864D01*
X78198876Y-68627977D01*
X78155320Y-68561504D01*
X78113530Y-68504561D01*
X78077978Y-68464266D01*
X78040735Y-68428637D01*
X77979924Y-68451720D01*
X77958890Y-68460002D01*
X77927058Y-68473900D01*
X77911008Y-68482909D01*
X77910478Y-68483857D01*
X77192834Y-68483857D01*
X77146684Y-68449065D01*
X77096596Y-68414145D01*
X77053930Y-68387437D01*
X77022829Y-68371836D01*
X77007432Y-68370236D01*
X77007719Y-68374133D01*
X77020828Y-68392982D01*
X77047659Y-68422707D01*
X77084385Y-68458898D01*
X77097752Y-68471616D01*
X77143038Y-68517243D01*
X77180368Y-68558686D01*
X77206988Y-68592525D01*
X77220143Y-68615337D01*
X77217077Y-68623701D01*
X77202278Y-68616283D01*
X77180351Y-68596184D01*
X77179527Y-68595285D01*
X77151363Y-68570502D01*
X77105455Y-68536240D01*
X77046591Y-68495575D01*
X76979557Y-68451582D01*
X76909140Y-68407338D01*
X76840126Y-68365919D01*
X76777304Y-68330401D01*
X76725458Y-68303859D01*
X76681878Y-68282791D01*
X76602234Y-68239423D01*
X76541031Y-68197275D01*
X76493564Y-68152843D01*
X76455126Y-68102625D01*
X76435179Y-68073930D01*
X76413873Y-68047692D01*
X76401093Y-68037481D01*
X76397340Y-68041286D01*
X76394925Y-68063098D01*
X76396887Y-68096917D01*
X76402209Y-68134249D01*
X76409870Y-68166597D01*
X76418852Y-68185469D01*
X76428243Y-68196984D01*
X76428975Y-68213634D01*
X76406204Y-68219699D01*
X76385698Y-68213831D01*
X76350191Y-68190621D01*
X76310263Y-68154546D01*
X76271448Y-68110756D01*
X76239283Y-68064402D01*
X76218696Y-68023761D01*
X76207661Y-67980911D01*
X76205452Y-67926472D01*
X76212567Y-67860926D01*
X76228197Y-67816172D01*
X76877279Y-67816172D01*
X76878732Y-67850020D01*
X76900278Y-67897792D01*
X76941092Y-67943433D01*
X76997231Y-67984653D01*
X77064750Y-68019161D01*
X77139706Y-68044665D01*
X77218154Y-68058874D01*
X77296152Y-68059498D01*
X77335703Y-68053874D01*
X77397995Y-68040224D01*
X77456010Y-68022973D01*
X77457171Y-68022562D01*
X77498736Y-68005858D01*
X77527968Y-67990387D01*
X77538604Y-67979449D01*
X77536866Y-67974598D01*
X77521458Y-67953414D01*
X77495632Y-67926472D01*
X77492817Y-67923816D01*
X77474723Y-67906101D01*
X77454504Y-67884893D01*
X77429235Y-67856895D01*
X77395990Y-67818813D01*
X77351844Y-67767353D01*
X77293873Y-67699218D01*
X77255835Y-67654417D01*
X77107951Y-67696656D01*
X77072796Y-67706880D01*
X76997057Y-67730958D01*
X76942695Y-67752341D01*
X76906651Y-67772615D01*
X76885865Y-67793363D01*
X76877279Y-67816172D01*
X76228197Y-67816172D01*
X76235670Y-67794775D01*
X76277399Y-67729194D01*
X76340450Y-67658837D01*
X76385816Y-67618100D01*
X76444633Y-67576014D01*
X76515790Y-67535338D01*
X76602581Y-67494386D01*
X76708297Y-67451472D01*
X76836233Y-67404907D01*
X76872654Y-67392058D01*
X76962249Y-67359605D01*
X77053891Y-67325423D01*
X77138664Y-67292864D01*
X77207654Y-67265280D01*
X77255835Y-67245539D01*
X77255996Y-67245473D01*
X77355399Y-67205973D01*
X77438077Y-67175322D01*
X77508819Y-67151887D01*
X77572419Y-67134036D01*
X77633666Y-67120137D01*
X77644891Y-67117966D01*
X77698060Y-67109308D01*
X77762619Y-67100638D01*
X77833251Y-67092460D01*
X77904639Y-67085280D01*
X77971467Y-67079602D01*
X78028420Y-67075933D01*
X78040735Y-67075592D01*
X78070179Y-67074776D01*
X78091430Y-67076638D01*
G37*
%TD*%
M02*
