%TF.GenerationSoftware,KiCad,Pcbnew,9.0.8*%
%TF.CreationDate,2026-04-21T09:59:08+09:00*%
%TF.ProjectId,Teseo-LIV3FL(GNSS module),54657365-6f2d-44c4-9956-33464c28474e,rev?*%
%TF.SameCoordinates,Original*%
%TF.FileFunction,Copper,L1,Top*%
%TF.FilePolarity,Positive*%
%FSLAX46Y46*%
G04 Gerber Fmt 4.6, Leading zero omitted, Abs format (unit mm)*
G04 Created by KiCad (PCBNEW 9.0.8) date 2026-04-21 09:59:08*
%MOMM*%
%LPD*%
G01*
G04 APERTURE LIST*
G04 Aperture macros list*
%AMRoundRect*
0 Rectangle with rounded corners*
0 $1 Rounding radius*
0 $2 $3 $4 $5 $6 $7 $8 $9 X,Y pos of 4 corners*
0 Add a 4 corners polygon primitive as box body*
4,1,4,$2,$3,$4,$5,$6,$7,$8,$9,$2,$3,0*
0 Add four circle primitives for the rounded corners*
1,1,$1+$1,$2,$3*
1,1,$1+$1,$4,$5*
1,1,$1+$1,$6,$7*
1,1,$1+$1,$8,$9*
0 Add four rect primitives between the rounded corners*
20,1,$1+$1,$2,$3,$4,$5,0*
20,1,$1+$1,$4,$5,$6,$7,0*
20,1,$1+$1,$6,$7,$8,$9,0*
20,1,$1+$1,$8,$9,$2,$3,0*%
G04 Aperture macros list end*
%TA.AperFunction,ComponentPad*%
%ADD10R,1.700000X1.700000*%
%TD*%
%TA.AperFunction,ComponentPad*%
%ADD11C,1.700000*%
%TD*%
%TA.AperFunction,SMDPad,CuDef*%
%ADD12R,0.900000X1.600000*%
%TD*%
%TA.AperFunction,SMDPad,CuDef*%
%ADD13RoundRect,0.250000X-0.250000X0.275000X-0.250000X-0.275000X0.250000X-0.275000X0.250000X0.275000X0*%
%TD*%
%TA.AperFunction,SMDPad,CuDef*%
%ADD14RoundRect,0.250000X-0.275000X0.850000X-0.275000X-0.850000X0.275000X-0.850000X0.275000X0.850000X0*%
%TD*%
%TA.AperFunction,SMDPad,CuDef*%
%ADD15RoundRect,0.250001X-0.624999X0.462499X-0.624999X-0.462499X0.624999X-0.462499X0.624999X0.462499X0*%
%TD*%
%TA.AperFunction,SMDPad,CuDef*%
%ADD16RoundRect,0.237500X-0.300000X-0.237500X0.300000X-0.237500X0.300000X0.237500X-0.300000X0.237500X0*%
%TD*%
%TA.AperFunction,SMDPad,CuDef*%
%ADD17RoundRect,0.250000X0.625000X-0.400000X0.625000X0.400000X-0.625000X0.400000X-0.625000X-0.400000X0*%
%TD*%
%TA.AperFunction,SMDPad,CuDef*%
%ADD18RoundRect,0.160000X-0.160000X0.222500X-0.160000X-0.222500X0.160000X-0.222500X0.160000X0.222500X0*%
%TD*%
%TA.AperFunction,SMDPad,CuDef*%
%ADD19RoundRect,0.250000X0.650000X-0.412500X0.650000X0.412500X-0.650000X0.412500X-0.650000X-0.412500X0*%
%TD*%
%TA.AperFunction,ViaPad*%
%ADD20C,0.600000*%
%TD*%
%TA.AperFunction,Conductor*%
%ADD21C,0.200000*%
%TD*%
%TA.AperFunction,Conductor*%
%ADD22C,0.380000*%
%TD*%
G04 APERTURE END LIST*
D10*
%TO.P,J2,1,Pin_1*%
%TO.N,Net-(IC1-RX)*%
X82540000Y-52500000D03*
D11*
%TO.P,J2,2,Pin_2*%
%TO.N,Net-(IC1-1PPS)*%
X80000000Y-52500000D03*
%TO.P,J2,3,Pin_3*%
%TO.N,GND*%
X77460000Y-52500000D03*
%TO.P,J2,4,Pin_4*%
%TO.N,+3V3*%
X74920000Y-52500000D03*
%TO.P,J2,5,Pin_5*%
%TO.N,Net-(IC1-TX)*%
X72380000Y-52500000D03*
%TD*%
D12*
%TO.P,IC1,1,GND*%
%TO.N,GND*%
X81600000Y-58405000D03*
%TO.P,IC1,2,TX*%
%TO.N,Net-(IC1-TX)*%
X80500000Y-58405000D03*
%TO.P,IC1,3,RX*%
%TO.N,Net-(IC1-RX)*%
X79400000Y-58405000D03*
%TO.P,IC1,4,1PPS*%
%TO.N,Net-(IC1-1PPS)*%
X78300000Y-58405000D03*
%TO.P,IC1,5,WAKE-UP*%
%TO.N,unconnected-(IC1-WAKE-UP-Pad5)*%
X77200000Y-58405000D03*
%TO.P,IC1,6,VBATT*%
%TO.N,+3V3*%
X76100000Y-58405000D03*
%TO.P,IC1,7,VCC_IO*%
X75000000Y-58405000D03*
%TO.P,IC1,8,VCC*%
X73900000Y-58405000D03*
%TO.P,IC1,9,NRESET*%
%TO.N,unconnected-(IC1-NRESET-Pad9)*%
X72800000Y-58405000D03*
%TO.P,IC1,10,GND_RF_1*%
%TO.N,GND1*%
X72800000Y-67605000D03*
%TO.P,IC1,11,RF_IN*%
%TO.N,Net-(IC1-RF_IN)*%
X73900000Y-67605000D03*
%TO.P,IC1,12,GND_RF_2*%
%TO.N,GND1*%
X75000000Y-67605000D03*
%TO.P,IC1,13,ANT_OFF*%
%TO.N,unconnected-(IC1-ANT_OFF-Pad13)*%
X76100000Y-67605000D03*
%TO.P,IC1,14,VCC_RF*%
%TO.N,Net-(IC1-VCC_RF)*%
X77200000Y-67605000D03*
%TO.P,IC1,15,RESERVED_1*%
%TO.N,unconnected-(IC1-RESERVED_1-Pad15)*%
X78300000Y-67605000D03*
%TO.P,IC1,16,SDA*%
%TO.N,unconnected-(IC1-SDA-Pad16)*%
X79400000Y-67605000D03*
%TO.P,IC1,17,SCL*%
%TO.N,unconnected-(IC1-SCL-Pad17)*%
X80500000Y-67605000D03*
%TO.P,IC1,18,RESERVED_2*%
%TO.N,unconnected-(IC1-RESERVED_2-Pad18)*%
X81600000Y-67605000D03*
%TD*%
D13*
%TO.P,J1,1,In*%
%TO.N,Net-(IC1-RF_IN)*%
X74025000Y-72975000D03*
D14*
%TO.P,J1,2,Ext*%
%TO.N,GND1*%
X75500000Y-74500000D03*
X72550000Y-74500000D03*
%TD*%
D15*
%TO.P,D1,1,K*%
%TO.N,GND*%
X85000000Y-57512500D03*
%TO.P,D1,2,A*%
%TO.N,Net-(D1-A)*%
X85000000Y-60487500D03*
%TD*%
D16*
%TO.P,C1,1*%
%TO.N,+3V3*%
X83275000Y-55500000D03*
%TO.P,C1,2*%
%TO.N,GND*%
X85000000Y-55500000D03*
%TD*%
D17*
%TO.P,R2,1*%
%TO.N,Net-(L1-Pad2)*%
X83500000Y-75100000D03*
%TO.P,R2,2*%
%TO.N,Net-(IC1-VCC_RF)*%
X83500000Y-72000000D03*
%TD*%
D18*
%TO.P,L1,1,1*%
%TO.N,Net-(IC1-RF_IN)*%
X79000000Y-73355000D03*
%TO.P,L1,2,2*%
%TO.N,Net-(L1-Pad2)*%
X79000000Y-74500000D03*
%TD*%
D19*
%TO.P,R1,1*%
%TO.N,Net-(IC1-1PPS)*%
X85000000Y-68125000D03*
%TO.P,R1,2*%
%TO.N,Net-(D1-A)*%
X85000000Y-65000000D03*
%TD*%
D20*
%TO.N,GND*%
X78200000Y-54600000D03*
X81194265Y-54694265D03*
%TO.N,+3V3*%
X77500000Y-55500000D03*
X82200000Y-55500000D03*
%TO.N,Net-(IC1-TX)*%
X80400000Y-56600000D03*
%TO.N,Net-(IC1-VCC_RF)*%
X81500000Y-72000000D03*
X77500000Y-70500000D03*
%TO.N,GND1*%
X75000000Y-66000000D03*
X73000000Y-66000000D03*
%TD*%
D21*
%TO.N,GND*%
X85000000Y-55500000D02*
X85000000Y-57512500D01*
X81194265Y-54694265D02*
X81600000Y-55100000D01*
X78000000Y-51000000D02*
X83800000Y-51000000D01*
X81600000Y-58405000D02*
X84107500Y-58405000D01*
X77460000Y-52500000D02*
X77460000Y-51540000D01*
X77460000Y-52500000D02*
X77460000Y-53860000D01*
X83800000Y-51000000D02*
X85000000Y-52200000D01*
X85000000Y-52200000D02*
X85000000Y-55500000D01*
X77460000Y-53860000D02*
X78200000Y-54600000D01*
X77460000Y-51540000D02*
X78000000Y-51000000D01*
X84107500Y-58405000D02*
X85000000Y-57512500D01*
X81600000Y-55100000D02*
X81600000Y-58405000D01*
%TO.N,+3V3*%
X76100000Y-56900000D02*
X76100000Y-58405000D01*
X77500000Y-55500000D02*
X76100000Y-56900000D01*
X73900000Y-58405000D02*
X73900000Y-53520000D01*
X75000000Y-58405000D02*
X76100000Y-58405000D01*
X83275000Y-55500000D02*
X82200000Y-55500000D01*
X73900000Y-58405000D02*
X75000000Y-58405000D01*
X73900000Y-53520000D02*
X74920000Y-52500000D01*
X73900000Y-58405000D02*
X76100000Y-58405000D01*
%TO.N,Net-(D1-A)*%
X85000000Y-60487500D02*
X85000000Y-65000000D01*
%TO.N,Net-(IC1-1PPS)*%
X80000000Y-52500000D02*
X80000000Y-53950000D01*
X78300000Y-58405000D02*
X78300000Y-61425000D01*
X80000000Y-53950000D02*
X78300000Y-55650000D01*
X78300000Y-61425000D02*
X85000000Y-68125000D01*
X77960000Y-58065000D02*
X78300000Y-58405000D01*
X78300000Y-55650000D02*
X78300000Y-58405000D01*
%TO.N,Net-(IC1-RX)*%
X79400000Y-55638587D02*
X82538587Y-52500000D01*
X79400000Y-58405000D02*
X79400000Y-55638587D01*
X82538587Y-52500000D02*
X82540000Y-52500000D01*
%TO.N,Net-(IC1-RF_IN)*%
X74025000Y-72975000D02*
X78620000Y-72975000D01*
X78620000Y-72975000D02*
X79000000Y-73355000D01*
D22*
X73900000Y-67605000D02*
X74000000Y-67705000D01*
X74000000Y-72750000D02*
X73900000Y-72850000D01*
X74000000Y-67705000D02*
X74000000Y-72750000D01*
D21*
X73900000Y-72850000D02*
X74025000Y-72975000D01*
%TO.N,Net-(IC1-TX)*%
X80500000Y-58405000D02*
X80500000Y-56700000D01*
X80500000Y-56700000D02*
X80400000Y-56600000D01*
%TO.N,Net-(IC1-VCC_RF)*%
X77200000Y-70200000D02*
X77500000Y-70500000D01*
X77200000Y-67605000D02*
X77200000Y-70200000D01*
X81500000Y-72000000D02*
X83500000Y-72000000D01*
%TO.N,Net-(L1-Pad2)*%
X79000000Y-74500000D02*
X82900000Y-74500000D01*
X82900000Y-74500000D02*
X83500000Y-75100000D01*
%TO.N,GND1*%
X72550000Y-75600000D02*
X72950000Y-76000000D01*
X72550000Y-68550000D02*
X72550000Y-74500000D01*
X72800000Y-67605000D02*
X72800000Y-68300000D01*
X75500000Y-75500000D02*
X75500000Y-74500000D01*
X72950000Y-76000000D02*
X75000000Y-76000000D01*
X75000000Y-76000000D02*
X75500000Y-75500000D01*
X72800000Y-67605000D02*
X72800000Y-66200000D01*
X75000000Y-66000000D02*
X75000000Y-67605000D01*
X72800000Y-66200000D02*
X73000000Y-66000000D01*
X72550000Y-74500000D02*
X72550000Y-75600000D01*
X72800000Y-68300000D02*
X72550000Y-68550000D01*
%TD*%
%TA.AperFunction,Conductor*%
%TO.N,GND1*%
G36*
X71481293Y-65504891D02*
G01*
X71506093Y-65505500D01*
X79549749Y-65505500D01*
X79561902Y-65506096D01*
X79682941Y-65518018D01*
X79706769Y-65522757D01*
X79871001Y-65572576D01*
X79893453Y-65581877D01*
X80044798Y-65662772D01*
X80065010Y-65676277D01*
X80197666Y-65785145D01*
X80214854Y-65802333D01*
X80323722Y-65934989D01*
X80337227Y-65955201D01*
X80418121Y-66106543D01*
X80427424Y-66129001D01*
X80432127Y-66144505D01*
X80432750Y-66214372D01*
X80395501Y-66273485D01*
X80332207Y-66303076D01*
X80313466Y-66304500D01*
X80002131Y-66304500D01*
X80002119Y-66304501D01*
X79963253Y-66308679D01*
X79936748Y-66308679D01*
X79897874Y-66304500D01*
X78902130Y-66304500D01*
X78902119Y-66304501D01*
X78863253Y-66308679D01*
X78836748Y-66308679D01*
X78797874Y-66304500D01*
X77802130Y-66304500D01*
X77802119Y-66304501D01*
X77763253Y-66308679D01*
X77736748Y-66308679D01*
X77697874Y-66304500D01*
X76702130Y-66304500D01*
X76702119Y-66304501D01*
X76663253Y-66308679D01*
X76636748Y-66308679D01*
X76597874Y-66304500D01*
X75602132Y-66304500D01*
X75602117Y-66304501D01*
X75560904Y-66308931D01*
X75534402Y-66308931D01*
X75497834Y-66305000D01*
X75250000Y-66305000D01*
X75250000Y-66462893D01*
X75230315Y-66529932D01*
X75225267Y-66537204D01*
X75206204Y-66562668D01*
X75206202Y-66562671D01*
X75155908Y-66697517D01*
X75149501Y-66757116D01*
X75149500Y-66757127D01*
X75149500Y-67355000D01*
X75149501Y-67605000D01*
X75149501Y-68452876D01*
X75155908Y-68512483D01*
X75206203Y-68647329D01*
X75225266Y-68672794D01*
X75249684Y-68738258D01*
X75250000Y-68747106D01*
X75250000Y-68905000D01*
X75497819Y-68905000D01*
X75497833Y-68904999D01*
X75534395Y-68901068D01*
X75560905Y-68901068D01*
X75602127Y-68905500D01*
X76475500Y-68905499D01*
X76542539Y-68925183D01*
X76588294Y-68977987D01*
X76599500Y-69029499D01*
X76599500Y-70113330D01*
X76599499Y-70113348D01*
X76599499Y-70279054D01*
X76599498Y-70279054D01*
X76640423Y-70431785D01*
X76640424Y-70431788D01*
X76642817Y-70435932D01*
X76642819Y-70435935D01*
X76682887Y-70505335D01*
X76699500Y-70567334D01*
X76699500Y-70578846D01*
X76730261Y-70733489D01*
X76730264Y-70733501D01*
X76790602Y-70879172D01*
X76790609Y-70879185D01*
X76878210Y-71010288D01*
X76878213Y-71010292D01*
X76989707Y-71121786D01*
X76989711Y-71121789D01*
X77120814Y-71209390D01*
X77120827Y-71209397D01*
X77266498Y-71269735D01*
X77266503Y-71269737D01*
X77421153Y-71300499D01*
X77421156Y-71300500D01*
X77421158Y-71300500D01*
X77578844Y-71300500D01*
X77578845Y-71300499D01*
X77733497Y-71269737D01*
X77879179Y-71209394D01*
X78010289Y-71121789D01*
X78121789Y-71010289D01*
X78209394Y-70879179D01*
X78269737Y-70733497D01*
X78300500Y-70578842D01*
X78300500Y-70421158D01*
X78300500Y-70421155D01*
X78300499Y-70421153D01*
X78272234Y-70279057D01*
X78269737Y-70266503D01*
X78269735Y-70266498D01*
X78209397Y-70120827D01*
X78209390Y-70120814D01*
X78121789Y-69989711D01*
X78121786Y-69989707D01*
X78010292Y-69878213D01*
X78010288Y-69878210D01*
X77879185Y-69790609D01*
X77879169Y-69790601D01*
X77877038Y-69789718D01*
X77876094Y-69788957D01*
X77873809Y-69787736D01*
X77874040Y-69787302D01*
X77822638Y-69745873D01*
X77800579Y-69679577D01*
X77800500Y-69675161D01*
X77800500Y-69029499D01*
X77820185Y-68962460D01*
X77872989Y-68916705D01*
X77924495Y-68905499D01*
X78797872Y-68905499D01*
X78797885Y-68905498D01*
X78836744Y-68901320D01*
X78863252Y-68901320D01*
X78902127Y-68905500D01*
X79897872Y-68905499D01*
X79897873Y-68905498D01*
X79897885Y-68905498D01*
X79936744Y-68901320D01*
X79963252Y-68901320D01*
X80002127Y-68905500D01*
X80376001Y-68905499D01*
X80443039Y-68925183D01*
X80488794Y-68977987D01*
X80500000Y-69029499D01*
X80500000Y-70000000D01*
X81913230Y-70000000D01*
X81925383Y-70000597D01*
X81927822Y-70000837D01*
X81944390Y-70002469D01*
X81969139Y-70004294D01*
X81981293Y-70004891D01*
X82006093Y-70005500D01*
X82006110Y-70005500D01*
X84100243Y-70005500D01*
X84132721Y-70001114D01*
X84149312Y-70000000D01*
X84993907Y-70000000D01*
X85006061Y-70000597D01*
X85014025Y-70001381D01*
X85182941Y-70018018D01*
X85206769Y-70022757D01*
X85371001Y-70072576D01*
X85393453Y-70081877D01*
X85452332Y-70113348D01*
X85544798Y-70162772D01*
X85565010Y-70176277D01*
X85697666Y-70285145D01*
X85714854Y-70302333D01*
X85823722Y-70434989D01*
X85837227Y-70455201D01*
X85918121Y-70606543D01*
X85927424Y-70629001D01*
X85977240Y-70793224D01*
X85981982Y-70817065D01*
X85999403Y-70993938D01*
X86000000Y-71006092D01*
X86000000Y-76011758D01*
X85999402Y-76023922D01*
X85981953Y-76200936D01*
X85977203Y-76224794D01*
X85927313Y-76389125D01*
X85917997Y-76411598D01*
X85836978Y-76563033D01*
X85823453Y-76583254D01*
X85714430Y-76715953D01*
X85697217Y-76733145D01*
X85564383Y-76842005D01*
X85544145Y-76855505D01*
X85392611Y-76936336D01*
X85370128Y-76945624D01*
X85205736Y-76995313D01*
X85181871Y-77000034D01*
X85004836Y-77017264D01*
X84992671Y-77017847D01*
X71504854Y-77001236D01*
X71492711Y-77000625D01*
X71315998Y-76983015D01*
X71292180Y-76978251D01*
X71128137Y-76928310D01*
X71105705Y-76918993D01*
X70954546Y-76838031D01*
X70934361Y-76824522D01*
X70801886Y-76715650D01*
X70784721Y-76698464D01*
X70676010Y-76565854D01*
X70662525Y-76545652D01*
X70581751Y-76394394D01*
X70572463Y-76371951D01*
X70522722Y-76207841D01*
X70517990Y-76184032D01*
X70500596Y-76007285D01*
X70500000Y-75995141D01*
X70500000Y-75399986D01*
X71525001Y-75399986D01*
X71535494Y-75502697D01*
X71590641Y-75669119D01*
X71590643Y-75669124D01*
X71682684Y-75818345D01*
X71806654Y-75942315D01*
X71955875Y-76034356D01*
X71955880Y-76034358D01*
X72122302Y-76089505D01*
X72122309Y-76089506D01*
X72225019Y-76099999D01*
X72299999Y-76099998D01*
X72300000Y-76099998D01*
X72300000Y-74750000D01*
X71525001Y-74750000D01*
X71525001Y-75399986D01*
X70500000Y-75399986D01*
X70500000Y-73600013D01*
X71525000Y-73600013D01*
X71525000Y-74250000D01*
X72300000Y-74250000D01*
X72300000Y-72939599D01*
X72800000Y-72939599D01*
X72800000Y-76099999D01*
X72874972Y-76099999D01*
X72874986Y-76099998D01*
X72977697Y-76089505D01*
X73144119Y-76034358D01*
X73144124Y-76034356D01*
X73293345Y-75942315D01*
X73417315Y-75818345D01*
X73513149Y-75662975D01*
X73514862Y-75664032D01*
X73554381Y-75619153D01*
X73620587Y-75600000D01*
X74429413Y-75600000D01*
X74496452Y-75619685D01*
X74535171Y-75664010D01*
X74536851Y-75662975D01*
X74632684Y-75818345D01*
X74756654Y-75942315D01*
X74905875Y-76034356D01*
X74905880Y-76034358D01*
X75072302Y-76089505D01*
X75072309Y-76089506D01*
X75175019Y-76099999D01*
X75750000Y-76099999D01*
X75824972Y-76099999D01*
X75824986Y-76099998D01*
X75927697Y-76089505D01*
X76094119Y-76034358D01*
X76094124Y-76034356D01*
X76243345Y-75942315D01*
X76367315Y-75818345D01*
X76459356Y-75669124D01*
X76459358Y-75669119D01*
X76514505Y-75502697D01*
X76514506Y-75502690D01*
X76524999Y-75399986D01*
X76525000Y-75399973D01*
X76525000Y-74750000D01*
X75750000Y-74750000D01*
X75750000Y-76099999D01*
X75175019Y-76099999D01*
X75249999Y-76099998D01*
X75250000Y-76099998D01*
X75250000Y-74624000D01*
X75269685Y-74556961D01*
X75322489Y-74511206D01*
X75374000Y-74500000D01*
X75500000Y-74500000D01*
X75500000Y-74374000D01*
X75519685Y-74306961D01*
X75572489Y-74261206D01*
X75624000Y-74250000D01*
X76524999Y-74250000D01*
X76524999Y-73699500D01*
X76544684Y-73632461D01*
X76597488Y-73586706D01*
X76648999Y-73575500D01*
X78061225Y-73575500D01*
X78128264Y-73595185D01*
X78174019Y-73647989D01*
X78179221Y-73661384D01*
X78183466Y-73674527D01*
X78185548Y-73697433D01*
X78233267Y-73850569D01*
X78248443Y-73875673D01*
X78252872Y-73889384D01*
X78253438Y-73910491D01*
X78258829Y-73930909D01*
X78254393Y-73946016D01*
X78254748Y-73959228D01*
X78246525Y-73972810D01*
X78240995Y-73991647D01*
X78233265Y-74004433D01*
X78185548Y-74157565D01*
X78179500Y-74224121D01*
X78179500Y-74775888D01*
X78185546Y-74842426D01*
X78185548Y-74842433D01*
X78233265Y-74995566D01*
X78233267Y-74995570D01*
X78316242Y-75132829D01*
X78316246Y-75132834D01*
X78429665Y-75246253D01*
X78429670Y-75246257D01*
X78566929Y-75329232D01*
X78566933Y-75329234D01*
X78621100Y-75346112D01*
X78720067Y-75376952D01*
X78786619Y-75383000D01*
X79213380Y-75382999D01*
X79213388Y-75382999D01*
X79279926Y-75376953D01*
X79279927Y-75376952D01*
X79279933Y-75376952D01*
X79433069Y-75329233D01*
X79503717Y-75286524D01*
X79570329Y-75246257D01*
X79570330Y-75246255D01*
X79570335Y-75246253D01*
X79679769Y-75136819D01*
X79741092Y-75103334D01*
X79767450Y-75100500D01*
X82000501Y-75100500D01*
X82067540Y-75120185D01*
X82113295Y-75172989D01*
X82124501Y-75224500D01*
X82124501Y-75550018D01*
X82135000Y-75652796D01*
X82135001Y-75652799D01*
X82140411Y-75669124D01*
X82190186Y-75819334D01*
X82282288Y-75968656D01*
X82406344Y-76092712D01*
X82555666Y-76184814D01*
X82722203Y-76239999D01*
X82824991Y-76250500D01*
X84175008Y-76250499D01*
X84277797Y-76239999D01*
X84444334Y-76184814D01*
X84593656Y-76092712D01*
X84717712Y-75968656D01*
X84809814Y-75819334D01*
X84864999Y-75652797D01*
X84875500Y-75550009D01*
X84875499Y-74649992D01*
X84864999Y-74547203D01*
X84809814Y-74380666D01*
X84717712Y-74231344D01*
X84593656Y-74107288D01*
X84444334Y-74015186D01*
X84277797Y-73960001D01*
X84277795Y-73960000D01*
X84175016Y-73949500D01*
X84175009Y-73949500D01*
X83178364Y-73949500D01*
X83139820Y-73941834D01*
X83139635Y-73942527D01*
X83131786Y-73940424D01*
X83131785Y-73940423D01*
X82979057Y-73899499D01*
X82820943Y-73899499D01*
X82813347Y-73899499D01*
X82813331Y-73899500D01*
X79920006Y-73899500D01*
X79852967Y-73879815D01*
X79807212Y-73827011D01*
X79797268Y-73757853D01*
X79801617Y-73738618D01*
X79814452Y-73697433D01*
X79820500Y-73630881D01*
X79820499Y-73079120D01*
X79820499Y-73079111D01*
X79814453Y-73012573D01*
X79814452Y-73012570D01*
X79814452Y-73012567D01*
X79779375Y-72900000D01*
X79766734Y-72859433D01*
X79766732Y-72859429D01*
X79683757Y-72722170D01*
X79683753Y-72722165D01*
X79570334Y-72608746D01*
X79570329Y-72608742D01*
X79433070Y-72525767D01*
X79433066Y-72525765D01*
X79279933Y-72478048D01*
X79279935Y-72478048D01*
X79253312Y-72475628D01*
X79213381Y-72472000D01*
X79213378Y-72472000D01*
X78983006Y-72472000D01*
X78967517Y-72467850D01*
X78953773Y-72468505D01*
X78921007Y-72455388D01*
X78864780Y-72422926D01*
X78864779Y-72422925D01*
X78851786Y-72415423D01*
X78813603Y-72405192D01*
X78699057Y-72374499D01*
X78540943Y-72374499D01*
X78533347Y-72374499D01*
X78533331Y-72374500D01*
X75025218Y-72374500D01*
X74958179Y-72354815D01*
X74919679Y-72315597D01*
X74869042Y-72233501D01*
X74867712Y-72231344D01*
X74743656Y-72107288D01*
X74737989Y-72102807D01*
X74738951Y-72101589D01*
X74733297Y-72099007D01*
X74719592Y-72077682D01*
X74702652Y-72058829D01*
X74700017Y-72047222D01*
X74695523Y-72040229D01*
X74690500Y-72005294D01*
X74690500Y-71921153D01*
X80699500Y-71921153D01*
X80699500Y-72078846D01*
X80730261Y-72233489D01*
X80730264Y-72233501D01*
X80790602Y-72379172D01*
X80790609Y-72379185D01*
X80878210Y-72510288D01*
X80878213Y-72510292D01*
X80989707Y-72621786D01*
X80989711Y-72621789D01*
X81120814Y-72709390D01*
X81120827Y-72709397D01*
X81266498Y-72769735D01*
X81266503Y-72769737D01*
X81421153Y-72800499D01*
X81421156Y-72800500D01*
X81421158Y-72800500D01*
X81578844Y-72800500D01*
X81578845Y-72800499D01*
X81733497Y-72769737D01*
X81879179Y-72709394D01*
X81995731Y-72631515D01*
X82062406Y-72610639D01*
X82129786Y-72629123D01*
X82176477Y-72681102D01*
X82182325Y-72695612D01*
X82190184Y-72719330D01*
X82190185Y-72719331D01*
X82190186Y-72719334D01*
X82282288Y-72868656D01*
X82406344Y-72992712D01*
X82555666Y-73084814D01*
X82722203Y-73139999D01*
X82824991Y-73150500D01*
X84175008Y-73150499D01*
X84277797Y-73139999D01*
X84444334Y-73084814D01*
X84593656Y-72992712D01*
X84717712Y-72868656D01*
X84809814Y-72719334D01*
X84864999Y-72552797D01*
X84875500Y-72450009D01*
X84875499Y-71549992D01*
X84864999Y-71447203D01*
X84809814Y-71280666D01*
X84717712Y-71131344D01*
X84593656Y-71007288D01*
X84444334Y-70915186D01*
X84277797Y-70860001D01*
X84277795Y-70860000D01*
X84175010Y-70849500D01*
X82824998Y-70849500D01*
X82824981Y-70849501D01*
X82722203Y-70860000D01*
X82722200Y-70860001D01*
X82555668Y-70915185D01*
X82555663Y-70915187D01*
X82406342Y-71007289D01*
X82282289Y-71131342D01*
X82190187Y-71280663D01*
X82190185Y-71280668D01*
X82182325Y-71304388D01*
X82142550Y-71361831D01*
X82078034Y-71388652D01*
X82009258Y-71376335D01*
X81995729Y-71368482D01*
X81879185Y-71290609D01*
X81879172Y-71290602D01*
X81733501Y-71230264D01*
X81733489Y-71230261D01*
X81578845Y-71199500D01*
X81578842Y-71199500D01*
X81421158Y-71199500D01*
X81421155Y-71199500D01*
X81266510Y-71230261D01*
X81266498Y-71230264D01*
X81120827Y-71290602D01*
X81120814Y-71290609D01*
X80989711Y-71378210D01*
X80989707Y-71378213D01*
X80878213Y-71489707D01*
X80878210Y-71489711D01*
X80790609Y-71620814D01*
X80790602Y-71620827D01*
X80730264Y-71766498D01*
X80730261Y-71766510D01*
X80699500Y-71921153D01*
X74690500Y-71921153D01*
X74690500Y-69015862D01*
X74710185Y-68948823D01*
X74726819Y-68928181D01*
X74750000Y-68905000D01*
X74750000Y-68747106D01*
X74769685Y-68680067D01*
X74774734Y-68672794D01*
X74793796Y-68647331D01*
X74793888Y-68647086D01*
X74844091Y-68512482D01*
X74844103Y-68512372D01*
X74850500Y-68452873D01*
X74850499Y-66757128D01*
X74844091Y-66697517D01*
X74793884Y-66562906D01*
X74793797Y-66562671D01*
X74793795Y-66562668D01*
X74774733Y-66537204D01*
X74750316Y-66471739D01*
X74750000Y-66462893D01*
X74750000Y-66305000D01*
X74502165Y-66305000D01*
X74465598Y-66308931D01*
X74439092Y-66308931D01*
X74397873Y-66304500D01*
X73402132Y-66304500D01*
X73402117Y-66304501D01*
X73360904Y-66308931D01*
X73334402Y-66308931D01*
X73297834Y-66305000D01*
X73050000Y-66305000D01*
X73050000Y-66462893D01*
X73030315Y-66529932D01*
X73025267Y-66537204D01*
X73006204Y-66562668D01*
X73006202Y-66562671D01*
X72955908Y-66697517D01*
X72949501Y-66757116D01*
X72949500Y-66757127D01*
X72949500Y-67355000D01*
X72949501Y-67605000D01*
X72949501Y-68452876D01*
X72955908Y-68512483D01*
X73006203Y-68647329D01*
X73025266Y-68672794D01*
X73049684Y-68738258D01*
X73050000Y-68747106D01*
X73050000Y-68905000D01*
X73185500Y-68905000D01*
X73252539Y-68924685D01*
X73298294Y-68977489D01*
X73309500Y-69029000D01*
X73309500Y-72052770D01*
X73289815Y-72119809D01*
X73273181Y-72140451D01*
X73182289Y-72231342D01*
X73090187Y-72380663D01*
X73090185Y-72380668D01*
X73062349Y-72464670D01*
X73035001Y-72547203D01*
X73035001Y-72547204D01*
X73035000Y-72547204D01*
X73024500Y-72649983D01*
X73024500Y-72777961D01*
X73017381Y-72802203D01*
X73014272Y-72827275D01*
X73007705Y-72835157D01*
X73004815Y-72845000D01*
X72985724Y-72861542D01*
X72969550Y-72880957D01*
X72955567Y-72887672D01*
X72952011Y-72890755D01*
X72947657Y-72891472D01*
X72937736Y-72896238D01*
X72800000Y-72939599D01*
X72300000Y-72939599D01*
X72300000Y-72900000D01*
X72299999Y-72899999D01*
X72225028Y-72900000D01*
X72225011Y-72900001D01*
X72122302Y-72910494D01*
X71955880Y-72965641D01*
X71955875Y-72965643D01*
X71806654Y-73057684D01*
X71682684Y-73181654D01*
X71590643Y-73330875D01*
X71590641Y-73330880D01*
X71535494Y-73497302D01*
X71535493Y-73497309D01*
X71525000Y-73600013D01*
X70500000Y-73600013D01*
X70500000Y-68452844D01*
X71850000Y-68452844D01*
X71856401Y-68512372D01*
X71856403Y-68512379D01*
X71906645Y-68647086D01*
X71906649Y-68647093D01*
X71992809Y-68762187D01*
X71992812Y-68762190D01*
X72107906Y-68848350D01*
X72107913Y-68848354D01*
X72242620Y-68898596D01*
X72242627Y-68898598D01*
X72302155Y-68904999D01*
X72302172Y-68905000D01*
X72550000Y-68905000D01*
X72550000Y-67855000D01*
X71850000Y-67855000D01*
X71850000Y-68452844D01*
X70500000Y-68452844D01*
X70500000Y-66757155D01*
X71850000Y-66757155D01*
X71850000Y-67355000D01*
X72550000Y-67355000D01*
X72550000Y-66305000D01*
X72302155Y-66305000D01*
X72242627Y-66311401D01*
X72242620Y-66311403D01*
X72107913Y-66361645D01*
X72107906Y-66361649D01*
X71992812Y-66447809D01*
X71992809Y-66447812D01*
X71906649Y-66562906D01*
X71906645Y-66562913D01*
X71856403Y-66697620D01*
X71856401Y-66697627D01*
X71850000Y-66757155D01*
X70500000Y-66757155D01*
X70500000Y-66506092D01*
X70500597Y-66493938D01*
X70518018Y-66317056D01*
X70522757Y-66293232D01*
X70572577Y-66128994D01*
X70581875Y-66106549D01*
X70662775Y-65955195D01*
X70676272Y-65934995D01*
X70785149Y-65802328D01*
X70802328Y-65785149D01*
X70934995Y-65676272D01*
X70955195Y-65662775D01*
X71106549Y-65581875D01*
X71128994Y-65572577D01*
X71293232Y-65522757D01*
X71317054Y-65518018D01*
X71451556Y-65504771D01*
X71469757Y-65504324D01*
X71481293Y-65504891D01*
G37*
%TD.AperFunction*%
%TD*%
%TA.AperFunction,Conductor*%
%TO.N,GND*%
G36*
X85506061Y-50500597D02*
G01*
X85682941Y-50518018D01*
X85706769Y-50522757D01*
X85871001Y-50572576D01*
X85893453Y-50581877D01*
X86044798Y-50662772D01*
X86065010Y-50676277D01*
X86197666Y-50785145D01*
X86214854Y-50802333D01*
X86323722Y-50934989D01*
X86337227Y-50955201D01*
X86418121Y-51106543D01*
X86427424Y-51129001D01*
X86477240Y-51293224D01*
X86481982Y-51317065D01*
X86499403Y-51493938D01*
X86500000Y-51506092D01*
X86500000Y-56602720D01*
X86480315Y-56669759D01*
X86427511Y-56715514D01*
X86358353Y-56725458D01*
X86294797Y-56696433D01*
X86270462Y-56667817D01*
X86217319Y-56581660D01*
X86217316Y-56581656D01*
X86093344Y-56457684D01*
X85944113Y-56365637D01*
X85942216Y-56364753D01*
X85941133Y-56363799D01*
X85937974Y-56361851D01*
X85938307Y-56361311D01*
X85889777Y-56318580D01*
X85870626Y-56251386D01*
X85889084Y-56187275D01*
X85972948Y-56051311D01*
X85972953Y-56051300D01*
X86027180Y-55887652D01*
X86037499Y-55786654D01*
X86037500Y-55786641D01*
X86037500Y-55750000D01*
X85250000Y-55750000D01*
X85250000Y-58725000D01*
X85674973Y-58725000D01*
X85674985Y-58724999D01*
X85777689Y-58714506D01*
X85777696Y-58714505D01*
X85944118Y-58659358D01*
X85944123Y-58659356D01*
X86093344Y-58567315D01*
X86217315Y-58443344D01*
X86270461Y-58357182D01*
X86322409Y-58310458D01*
X86391372Y-58299235D01*
X86455454Y-58327079D01*
X86494310Y-58385147D01*
X86500000Y-58422279D01*
X86500000Y-59576769D01*
X86480315Y-59643808D01*
X86427511Y-59689563D01*
X86358353Y-59699507D01*
X86294797Y-59670482D01*
X86270462Y-59641866D01*
X86217713Y-59556348D01*
X86217710Y-59556344D01*
X86093655Y-59432289D01*
X86093651Y-59432286D01*
X85944337Y-59340187D01*
X85944335Y-59340186D01*
X85860397Y-59312372D01*
X85777797Y-59285001D01*
X85777795Y-59285000D01*
X85675015Y-59274500D01*
X85675008Y-59274500D01*
X84324992Y-59274500D01*
X84324984Y-59274500D01*
X84222204Y-59285000D01*
X84222203Y-59285001D01*
X84055664Y-59340186D01*
X84055662Y-59340187D01*
X83906348Y-59432286D01*
X83906344Y-59432289D01*
X83782289Y-59556344D01*
X83782286Y-59556348D01*
X83690187Y-59705662D01*
X83690186Y-59705664D01*
X83635001Y-59872203D01*
X83635000Y-59872204D01*
X83624500Y-59974984D01*
X83624500Y-61000015D01*
X83635000Y-61102795D01*
X83635001Y-61102797D01*
X83659346Y-61176265D01*
X83690186Y-61269335D01*
X83690187Y-61269337D01*
X83782286Y-61418651D01*
X83782289Y-61418655D01*
X83906344Y-61542710D01*
X83906348Y-61542713D01*
X84055662Y-61634812D01*
X84055664Y-61634813D01*
X84055666Y-61634814D01*
X84222203Y-61689999D01*
X84288102Y-61696731D01*
X84352794Y-61723127D01*
X84392945Y-61780307D01*
X84399500Y-61820089D01*
X84399500Y-63714857D01*
X84379815Y-63781896D01*
X84327011Y-63827651D01*
X84288102Y-63838215D01*
X84197202Y-63847501D01*
X84197200Y-63847501D01*
X84030668Y-63902685D01*
X84030663Y-63902687D01*
X83881342Y-63994789D01*
X83757289Y-64118842D01*
X83665187Y-64268163D01*
X83665186Y-64268166D01*
X83610001Y-64434703D01*
X83610001Y-64434704D01*
X83610000Y-64434704D01*
X83599500Y-64537483D01*
X83599500Y-65462501D01*
X83599501Y-65462519D01*
X83610689Y-65572032D01*
X83608711Y-65572234D01*
X83604207Y-65632310D01*
X83562144Y-65688100D01*
X83496596Y-65712292D01*
X83428375Y-65697205D01*
X83400494Y-65676259D01*
X78936819Y-61212584D01*
X78903334Y-61151261D01*
X78900500Y-61124903D01*
X78900500Y-59829499D01*
X78920185Y-59762460D01*
X78972989Y-59716705D01*
X79024495Y-59705499D01*
X79897872Y-59705499D01*
X79897885Y-59705498D01*
X79936744Y-59701320D01*
X79963252Y-59701320D01*
X80002127Y-59705500D01*
X80997872Y-59705499D01*
X81006711Y-59704548D01*
X81039094Y-59701068D01*
X81065606Y-59701068D01*
X81102166Y-59704999D01*
X81102182Y-59705000D01*
X81350000Y-59705000D01*
X81850000Y-59705000D01*
X82097828Y-59705000D01*
X82097844Y-59704999D01*
X82157372Y-59698598D01*
X82157379Y-59698596D01*
X82292086Y-59648354D01*
X82292093Y-59648350D01*
X82407187Y-59562190D01*
X82407190Y-59562187D01*
X82493350Y-59447093D01*
X82493354Y-59447086D01*
X82543596Y-59312379D01*
X82543598Y-59312372D01*
X82549999Y-59252844D01*
X82550000Y-59252827D01*
X82550000Y-58655000D01*
X81850000Y-58655000D01*
X81850000Y-59705000D01*
X81350000Y-59705000D01*
X81350000Y-59547106D01*
X81369685Y-59480067D01*
X81374734Y-59472794D01*
X81393796Y-59447331D01*
X81393888Y-59447086D01*
X81444091Y-59312482D01*
X81444103Y-59312372D01*
X81450500Y-59252873D01*
X81450499Y-58155000D01*
X81850000Y-58155000D01*
X82550000Y-58155000D01*
X82550000Y-58024985D01*
X83625000Y-58024985D01*
X83635493Y-58127689D01*
X83635494Y-58127696D01*
X83690641Y-58294118D01*
X83690643Y-58294123D01*
X83782684Y-58443344D01*
X83906655Y-58567315D01*
X84055876Y-58659356D01*
X84055881Y-58659358D01*
X84222303Y-58714505D01*
X84222310Y-58714506D01*
X84325014Y-58724999D01*
X84325027Y-58725000D01*
X84750000Y-58725000D01*
X84750000Y-57762500D01*
X83625000Y-57762500D01*
X83625000Y-58024985D01*
X82550000Y-58024985D01*
X82550000Y-57557172D01*
X82549999Y-57557155D01*
X82543598Y-57497627D01*
X82543596Y-57497620D01*
X82493354Y-57362913D01*
X82493350Y-57362906D01*
X82407190Y-57247812D01*
X82407187Y-57247809D01*
X82292093Y-57161649D01*
X82292086Y-57161645D01*
X82157379Y-57111403D01*
X82157372Y-57111401D01*
X82097844Y-57105000D01*
X81850000Y-57105000D01*
X81850000Y-58155000D01*
X81450499Y-58155000D01*
X81450499Y-57557128D01*
X81444091Y-57497517D01*
X81393884Y-57362906D01*
X81393797Y-57362671D01*
X81393795Y-57362668D01*
X81374733Y-57337204D01*
X81366994Y-57316456D01*
X81355023Y-57297828D01*
X81351871Y-57275909D01*
X81350316Y-57271739D01*
X81350000Y-57262893D01*
X81350000Y-57105000D01*
X81242856Y-57105000D01*
X81175817Y-57085315D01*
X81130062Y-57032511D01*
X81120118Y-56963353D01*
X81128295Y-56933547D01*
X81169737Y-56833497D01*
X81200500Y-56678842D01*
X81200500Y-56521158D01*
X81200500Y-56521155D01*
X81200499Y-56521153D01*
X81180274Y-56419478D01*
X81169737Y-56366503D01*
X81167810Y-56361851D01*
X81109397Y-56220827D01*
X81109390Y-56220814D01*
X81021789Y-56089711D01*
X81021786Y-56089707D01*
X80910292Y-55978213D01*
X80910288Y-55978210D01*
X80779185Y-55890609D01*
X80779172Y-55890602D01*
X80633501Y-55830264D01*
X80633489Y-55830261D01*
X80478845Y-55799500D01*
X80478842Y-55799500D01*
X80387684Y-55799500D01*
X80320645Y-55779815D01*
X80274890Y-55727011D01*
X80264946Y-55657853D01*
X80293971Y-55594297D01*
X80300003Y-55587819D01*
X80466669Y-55421153D01*
X81399500Y-55421153D01*
X81399500Y-55578846D01*
X81430261Y-55733489D01*
X81430264Y-55733501D01*
X81490602Y-55879172D01*
X81490609Y-55879185D01*
X81578210Y-56010288D01*
X81578213Y-56010292D01*
X81689707Y-56121786D01*
X81689711Y-56121789D01*
X81820814Y-56209390D01*
X81820827Y-56209397D01*
X81922199Y-56251386D01*
X81966503Y-56269737D01*
X82121153Y-56300499D01*
X82121156Y-56300500D01*
X82121158Y-56300500D01*
X82278844Y-56300500D01*
X82393555Y-56277682D01*
X82463147Y-56283909D01*
X82505428Y-56311618D01*
X82514150Y-56320340D01*
X82660984Y-56410908D01*
X82824747Y-56465174D01*
X82925823Y-56475500D01*
X83624176Y-56475499D01*
X83625987Y-56475499D01*
X83693026Y-56495183D01*
X83738781Y-56547987D01*
X83748725Y-56617146D01*
X83731526Y-56664596D01*
X83690643Y-56730876D01*
X83690641Y-56730881D01*
X83635494Y-56897303D01*
X83635493Y-56897310D01*
X83625000Y-57000014D01*
X83625000Y-57262500D01*
X84750000Y-57262500D01*
X84750000Y-55250000D01*
X85250000Y-55250000D01*
X86037499Y-55250000D01*
X86037499Y-55213360D01*
X86037498Y-55213345D01*
X86027180Y-55112347D01*
X85972953Y-54948699D01*
X85972948Y-54948688D01*
X85882447Y-54801965D01*
X85882444Y-54801961D01*
X85760538Y-54680055D01*
X85760534Y-54680052D01*
X85613811Y-54589551D01*
X85613800Y-54589546D01*
X85450152Y-54535319D01*
X85349154Y-54525000D01*
X85250000Y-54525000D01*
X85250000Y-55250000D01*
X84750000Y-55250000D01*
X84750000Y-54524999D01*
X84650860Y-54525000D01*
X84650844Y-54525001D01*
X84549847Y-54535319D01*
X84386199Y-54589546D01*
X84386188Y-54589551D01*
X84239465Y-54680052D01*
X84225532Y-54693985D01*
X84164208Y-54727468D01*
X84094516Y-54722482D01*
X84050172Y-54693982D01*
X84035851Y-54679661D01*
X84035850Y-54679660D01*
X83944629Y-54623395D01*
X83889018Y-54589093D01*
X83889013Y-54589091D01*
X83887569Y-54588612D01*
X83725253Y-54534826D01*
X83725251Y-54534825D01*
X83624178Y-54524500D01*
X82925830Y-54524500D01*
X82925812Y-54524501D01*
X82824747Y-54534825D01*
X82660984Y-54589092D01*
X82660981Y-54589093D01*
X82514145Y-54679663D01*
X82505424Y-54688384D01*
X82444100Y-54721867D01*
X82393555Y-54722317D01*
X82278846Y-54699500D01*
X82278842Y-54699500D01*
X82121158Y-54699500D01*
X82121155Y-54699500D01*
X81966510Y-54730261D01*
X81966498Y-54730264D01*
X81820827Y-54790602D01*
X81820814Y-54790609D01*
X81689711Y-54878210D01*
X81689707Y-54878213D01*
X81578213Y-54989707D01*
X81578210Y-54989711D01*
X81490609Y-55120814D01*
X81490602Y-55120827D01*
X81430264Y-55266498D01*
X81430261Y-55266510D01*
X81399500Y-55421153D01*
X80466669Y-55421153D01*
X80560437Y-55327385D01*
X82001003Y-53886818D01*
X82062326Y-53853333D01*
X82088684Y-53850499D01*
X83437871Y-53850499D01*
X83437872Y-53850499D01*
X83497483Y-53844091D01*
X83632331Y-53793796D01*
X83747546Y-53707546D01*
X83833796Y-53592331D01*
X83884091Y-53457483D01*
X83890500Y-53397873D01*
X83890499Y-51602128D01*
X83884091Y-51542517D01*
X83882810Y-51539083D01*
X83833797Y-51407671D01*
X83833793Y-51407664D01*
X83747547Y-51292455D01*
X83747544Y-51292452D01*
X83632335Y-51206206D01*
X83632328Y-51206202D01*
X83497482Y-51155908D01*
X83497483Y-51155908D01*
X83437883Y-51149501D01*
X83437881Y-51149500D01*
X83437873Y-51149500D01*
X83437864Y-51149500D01*
X81642129Y-51149500D01*
X81642123Y-51149501D01*
X81582516Y-51155908D01*
X81447671Y-51206202D01*
X81447664Y-51206206D01*
X81332455Y-51292452D01*
X81332452Y-51292455D01*
X81246206Y-51407664D01*
X81246203Y-51407669D01*
X81197189Y-51539083D01*
X81155317Y-51595016D01*
X81089853Y-51619433D01*
X81021580Y-51604581D01*
X80993326Y-51583430D01*
X80879786Y-51469890D01*
X80707820Y-51344951D01*
X80518414Y-51248444D01*
X80518413Y-51248443D01*
X80518412Y-51248443D01*
X80316243Y-51182754D01*
X80316241Y-51182753D01*
X80316240Y-51182753D01*
X80154957Y-51157208D01*
X80106287Y-51149500D01*
X79893713Y-51149500D01*
X79845042Y-51157208D01*
X79683760Y-51182753D01*
X79481585Y-51248444D01*
X79292179Y-51344951D01*
X79120213Y-51469890D01*
X78969890Y-51620213D01*
X78844949Y-51792182D01*
X78840202Y-51801499D01*
X78792227Y-51852293D01*
X78724405Y-51869087D01*
X78658271Y-51846548D01*
X78619234Y-51801495D01*
X78614626Y-51792452D01*
X78575270Y-51738282D01*
X78575269Y-51738282D01*
X77942962Y-52370590D01*
X77925925Y-52307007D01*
X77860099Y-52192993D01*
X77767007Y-52099901D01*
X77652993Y-52034075D01*
X77589409Y-52017037D01*
X78221716Y-51384728D01*
X78167550Y-51345375D01*
X77978217Y-51248904D01*
X77776129Y-51183242D01*
X77566246Y-51150000D01*
X77353754Y-51150000D01*
X77143872Y-51183242D01*
X77143869Y-51183242D01*
X76941782Y-51248904D01*
X76752439Y-51345380D01*
X76698282Y-51384727D01*
X76698282Y-51384728D01*
X77330591Y-52017037D01*
X77267007Y-52034075D01*
X77152993Y-52099901D01*
X77059901Y-52192993D01*
X76994075Y-52307007D01*
X76977037Y-52370591D01*
X76344728Y-51738282D01*
X76344727Y-51738282D01*
X76305380Y-51792440D01*
X76305376Y-51792446D01*
X76300760Y-51801505D01*
X76252781Y-51852297D01*
X76184959Y-51869087D01*
X76118826Y-51846543D01*
X76079794Y-51801493D01*
X76075051Y-51792184D01*
X76075049Y-51792181D01*
X76075048Y-51792179D01*
X75950109Y-51620213D01*
X75799786Y-51469890D01*
X75627820Y-51344951D01*
X75438414Y-51248444D01*
X75438413Y-51248443D01*
X75438412Y-51248443D01*
X75236243Y-51182754D01*
X75236241Y-51182753D01*
X75236240Y-51182753D01*
X75074957Y-51157208D01*
X75026287Y-51149500D01*
X74813713Y-51149500D01*
X74765042Y-51157208D01*
X74603760Y-51182753D01*
X74401585Y-51248444D01*
X74212179Y-51344951D01*
X74040213Y-51469890D01*
X73889890Y-51620213D01*
X73764949Y-51792182D01*
X73760484Y-51800946D01*
X73712509Y-51851742D01*
X73644688Y-51868536D01*
X73578553Y-51845998D01*
X73539516Y-51800946D01*
X73535050Y-51792182D01*
X73410109Y-51620213D01*
X73259786Y-51469890D01*
X73087820Y-51344951D01*
X72898414Y-51248444D01*
X72898413Y-51248443D01*
X72898412Y-51248443D01*
X72696243Y-51182754D01*
X72696241Y-51182753D01*
X72696240Y-51182753D01*
X72534957Y-51157208D01*
X72486287Y-51149500D01*
X72273713Y-51149500D01*
X72225042Y-51157208D01*
X72063760Y-51182753D01*
X71861585Y-51248444D01*
X71672179Y-51344951D01*
X71500213Y-51469890D01*
X71349890Y-51620213D01*
X71224951Y-51792179D01*
X71128444Y-51981585D01*
X71062753Y-52183760D01*
X71029500Y-52393713D01*
X71029500Y-52606286D01*
X71062753Y-52816239D01*
X71128444Y-53018414D01*
X71224951Y-53207820D01*
X71349890Y-53379786D01*
X71500213Y-53530109D01*
X71672179Y-53655048D01*
X71672181Y-53655049D01*
X71672184Y-53655051D01*
X71861588Y-53751557D01*
X72063757Y-53817246D01*
X72273713Y-53850500D01*
X72273714Y-53850500D01*
X72486286Y-53850500D01*
X72486287Y-53850500D01*
X72696243Y-53817246D01*
X72898412Y-53751557D01*
X73087816Y-53655051D01*
X73102614Y-53644299D01*
X73168418Y-53620819D01*
X73236473Y-53636643D01*
X73285168Y-53686748D01*
X73299500Y-53744617D01*
X73299500Y-56980500D01*
X73279815Y-57047539D01*
X73227011Y-57093294D01*
X73175500Y-57104500D01*
X72302129Y-57104500D01*
X72302123Y-57104501D01*
X72242516Y-57110908D01*
X72107671Y-57161202D01*
X72107664Y-57161206D01*
X71992455Y-57247452D01*
X71992452Y-57247455D01*
X71906206Y-57362664D01*
X71906202Y-57362671D01*
X71855908Y-57497517D01*
X71849501Y-57557116D01*
X71849501Y-57557123D01*
X71849500Y-57557135D01*
X71849500Y-59252870D01*
X71849501Y-59252876D01*
X71855908Y-59312483D01*
X71906202Y-59447328D01*
X71906206Y-59447335D01*
X71992452Y-59562544D01*
X71992455Y-59562547D01*
X72107664Y-59648793D01*
X72107671Y-59648797D01*
X72242517Y-59699091D01*
X72242516Y-59699091D01*
X72246386Y-59699507D01*
X72302127Y-59705500D01*
X73297872Y-59705499D01*
X73297873Y-59705498D01*
X73297885Y-59705498D01*
X73336744Y-59701320D01*
X73363252Y-59701320D01*
X73402127Y-59705500D01*
X74397872Y-59705499D01*
X74397873Y-59705498D01*
X74397885Y-59705498D01*
X74436744Y-59701320D01*
X74463252Y-59701320D01*
X74502127Y-59705500D01*
X75497872Y-59705499D01*
X75497873Y-59705498D01*
X75497885Y-59705498D01*
X75536744Y-59701320D01*
X75563252Y-59701320D01*
X75602127Y-59705500D01*
X76597872Y-59705499D01*
X76597873Y-59705498D01*
X76597885Y-59705498D01*
X76636744Y-59701320D01*
X76663252Y-59701320D01*
X76702127Y-59705500D01*
X77575500Y-59705499D01*
X77642539Y-59725183D01*
X77688294Y-59777987D01*
X77699500Y-59829499D01*
X77699500Y-61338330D01*
X77699499Y-61338348D01*
X77699499Y-61504054D01*
X77699498Y-61504054D01*
X77740424Y-61656789D01*
X77740425Y-61656790D01*
X77765661Y-61700499D01*
X77765662Y-61700501D01*
X77819475Y-61793709D01*
X77819481Y-61793717D01*
X77938349Y-61912585D01*
X77938355Y-61912590D01*
X80814084Y-64788319D01*
X80847569Y-64849642D01*
X80842585Y-64919334D01*
X80800713Y-64975267D01*
X80735249Y-64999684D01*
X80726403Y-65000000D01*
X71506093Y-65000000D01*
X71493939Y-64999403D01*
X71317065Y-64981982D01*
X71293224Y-64977240D01*
X71129001Y-64927424D01*
X71106543Y-64918121D01*
X70955201Y-64837227D01*
X70934989Y-64823722D01*
X70802333Y-64714854D01*
X70785145Y-64697666D01*
X70676277Y-64565010D01*
X70662772Y-64544798D01*
X70581878Y-64393456D01*
X70572575Y-64370998D01*
X70522757Y-64206769D01*
X70518018Y-64182941D01*
X70500597Y-64006061D01*
X70500000Y-63993907D01*
X70500000Y-51506092D01*
X70500597Y-51493938D01*
X70518018Y-51317056D01*
X70522757Y-51293232D01*
X70572577Y-51128994D01*
X70581875Y-51106549D01*
X70662775Y-50955195D01*
X70676272Y-50934995D01*
X70785149Y-50802328D01*
X70802328Y-50785149D01*
X70934995Y-50676272D01*
X70955195Y-50662775D01*
X71106549Y-50581875D01*
X71128994Y-50572577D01*
X71293232Y-50522757D01*
X71317056Y-50518018D01*
X71493939Y-50500597D01*
X71506093Y-50500000D01*
X85493907Y-50500000D01*
X85506061Y-50500597D01*
G37*
%TD.AperFunction*%
%TA.AperFunction,Conductor*%
G36*
X78575270Y-53261717D02*
G01*
X78575270Y-53261716D01*
X78614622Y-53207555D01*
X78619232Y-53198507D01*
X78667205Y-53147709D01*
X78735025Y-53130912D01*
X78801161Y-53153447D01*
X78840204Y-53198504D01*
X78844949Y-53207817D01*
X78969890Y-53379786D01*
X79120209Y-53530105D01*
X79120214Y-53530109D01*
X79263648Y-53634320D01*
X79306314Y-53689650D01*
X79312293Y-53759263D01*
X79279687Y-53821058D01*
X79278444Y-53822319D01*
X78204102Y-54896661D01*
X78142779Y-54930146D01*
X78073087Y-54925162D01*
X78028740Y-54896661D01*
X78010292Y-54878213D01*
X78010288Y-54878210D01*
X77879185Y-54790609D01*
X77879172Y-54790602D01*
X77733501Y-54730264D01*
X77733489Y-54730261D01*
X77578845Y-54699500D01*
X77578842Y-54699500D01*
X77421158Y-54699500D01*
X77421155Y-54699500D01*
X77266510Y-54730261D01*
X77266498Y-54730264D01*
X77120827Y-54790602D01*
X77120814Y-54790609D01*
X76989711Y-54878210D01*
X76989707Y-54878213D01*
X76878213Y-54989707D01*
X76878210Y-54989711D01*
X76790609Y-55120814D01*
X76790602Y-55120827D01*
X76730264Y-55266498D01*
X76730261Y-55266508D01*
X76699361Y-55421850D01*
X76666976Y-55483761D01*
X76665425Y-55485339D01*
X75619481Y-56531282D01*
X75619479Y-56531285D01*
X75569361Y-56618094D01*
X75569359Y-56618096D01*
X75540425Y-56668209D01*
X75540424Y-56668210D01*
X75540423Y-56668215D01*
X75499499Y-56820943D01*
X75499499Y-56820945D01*
X75499499Y-56980500D01*
X75479814Y-57047539D01*
X75427010Y-57093294D01*
X75375499Y-57104500D01*
X74624500Y-57104500D01*
X74557461Y-57084815D01*
X74511706Y-57032011D01*
X74500500Y-56980500D01*
X74500500Y-53946076D01*
X74520185Y-53879037D01*
X74572989Y-53833282D01*
X74642147Y-53823338D01*
X74643790Y-53823586D01*
X74813713Y-53850500D01*
X74813714Y-53850500D01*
X75026286Y-53850500D01*
X75026287Y-53850500D01*
X75236243Y-53817246D01*
X75438412Y-53751557D01*
X75627816Y-53655051D01*
X75714138Y-53592335D01*
X75799786Y-53530109D01*
X75799788Y-53530106D01*
X75799792Y-53530104D01*
X75950104Y-53379792D01*
X75950106Y-53379788D01*
X75950109Y-53379786D01*
X76035890Y-53261717D01*
X76075051Y-53207816D01*
X76079793Y-53198508D01*
X76127763Y-53147711D01*
X76195583Y-53130911D01*
X76261719Y-53153445D01*
X76300763Y-53198500D01*
X76305373Y-53207547D01*
X76344728Y-53261716D01*
X76977037Y-52629408D01*
X76994075Y-52692993D01*
X77059901Y-52807007D01*
X77152993Y-52900099D01*
X77267007Y-52965925D01*
X77330590Y-52982962D01*
X76698282Y-53615269D01*
X76698282Y-53615270D01*
X76752449Y-53654624D01*
X76941782Y-53751095D01*
X77143870Y-53816757D01*
X77353754Y-53850000D01*
X77566246Y-53850000D01*
X77776127Y-53816757D01*
X77776130Y-53816757D01*
X77978217Y-53751095D01*
X78167554Y-53654622D01*
X78221716Y-53615270D01*
X78221717Y-53615270D01*
X77589408Y-52982962D01*
X77652993Y-52965925D01*
X77767007Y-52900099D01*
X77860099Y-52807007D01*
X77925925Y-52692993D01*
X77942962Y-52629408D01*
X78575270Y-53261717D01*
G37*
%TD.AperFunction*%
%TD*%
M02*
