%TF.GenerationSoftware,KiCad,Pcbnew,9.0.5*%
%TF.CreationDate,2025-11-06T16:02:27+09:00*%
%TF.ProjectId,________2,d6ecc3c9-dcfc-4c95-9f32-2e6b69636164,rev?*%
%TF.SameCoordinates,Original*%
%TF.FileFunction,Soldermask,Top*%
%TF.FilePolarity,Negative*%
%FSLAX46Y46*%
G04 Gerber Fmt 4.6, Leading zero omitted, Abs format (unit mm)*
G04 Created by KiCad (PCBNEW 9.0.5) date 2025-11-06 16:02:27*
%MOMM*%
%LPD*%
G01*
G04 APERTURE LIST*
%ADD10O,2.748280X1.998980*%
%ADD11C,1.300000*%
%ADD12R,1.500000X2.300000*%
%ADD13O,1.500000X2.300000*%
%ADD14R,1.700000X1.700000*%
%ADD15C,1.700000*%
G04 APERTURE END LIST*
D10*
%TO.C,U6*%
X134920000Y-123460000D03*
X134920000Y-118380000D03*
X134920000Y-115840000D03*
X134920000Y-113300000D03*
X134920000Y-110760000D03*
X134920000Y-108220000D03*
X118755440Y-108220000D03*
X118755440Y-110760000D03*
X118755440Y-113300000D03*
X118755440Y-115840000D03*
X118755440Y-118380000D03*
X118755440Y-120920000D03*
X118755440Y-123460000D03*
%TD*%
D11*
%TO.C,J3*%
X67880000Y-116930000D03*
X69880000Y-116930000D03*
%TD*%
D12*
%TO.C,U1*%
X76690000Y-122850000D03*
D13*
X79230000Y-122850000D03*
X81770000Y-122850000D03*
%TD*%
D12*
%TO.C,U4*%
X63483000Y-113047500D03*
D13*
X66023000Y-113047500D03*
X68563000Y-113047500D03*
%TD*%
D12*
%TO.C,U3*%
X102390000Y-122820000D03*
D13*
X104930000Y-122820000D03*
X107470000Y-122820000D03*
%TD*%
D14*
%TO.C,J6*%
X143650000Y-109180000D03*
D15*
X141110000Y-109180000D03*
X143650000Y-111720000D03*
X141110000Y-111720000D03*
X143650000Y-114260000D03*
X141110000Y-114260000D03*
X143650000Y-116800000D03*
X141110000Y-116800000D03*
X143650000Y-119340000D03*
X141110000Y-119340000D03*
X143650000Y-121880000D03*
X141110000Y-121880000D03*
%TD*%
D12*
%TO.C,U2*%
X76703000Y-113017500D03*
D13*
X79243000Y-113017500D03*
X81783000Y-113017500D03*
%TD*%
D14*
%TO.C,J1*%
X57490000Y-109180000D03*
D15*
X54950000Y-109180000D03*
X57490000Y-111720000D03*
X54950000Y-111720000D03*
X57490000Y-114260000D03*
X54950000Y-114260000D03*
X57490000Y-116800000D03*
X54950000Y-116800000D03*
X57490000Y-119340000D03*
X54950000Y-119340000D03*
X57490000Y-121880000D03*
X54950000Y-121880000D03*
%TD*%
D14*
%TO.C,J2*%
X108420000Y-107985000D03*
D15*
X105880000Y-107985000D03*
X103340000Y-107985000D03*
X100800000Y-107985000D03*
%TD*%
D12*
%TO.C,U5*%
X89540000Y-122800000D03*
D13*
X92080000Y-122800000D03*
X94620000Y-122800000D03*
%TD*%
M02*
