%TF.GenerationSoftware,KiCad,Pcbnew,9.0.5*%
%TF.CreationDate,2025-11-06T16:02:27+09:00*%
%TF.ProjectId,________2,d6ecc3c9-dcfc-4c95-9f32-2e6b69636164,rev?*%
%TF.SameCoordinates,Original*%
%TF.FileFunction,Legend,Top*%
%TF.FilePolarity,Positive*%
%FSLAX46Y46*%
G04 Gerber Fmt 4.6, Leading zero omitted, Abs format (unit mm)*
G04 Created by KiCad (PCBNEW 9.0.5) date 2025-11-06 16:02:27*
%MOMM*%
%LPD*%
G01*
G04 APERTURE LIST*
%ADD10C,0.400000*%
%ADD11C,0.050000*%
%ADD12C,0.200000*%
%ADD13C,0.127000*%
%ADD14C,0.066040*%
%ADD15C,0.254000*%
%ADD16C,0.120000*%
G04 APERTURE END LIST*
D10*
X55418271Y-105340800D02*
X50846843Y-105340800D01*
X51989700Y-104197942D02*
X50846843Y-105340800D01*
X50846843Y-105340800D02*
X51989700Y-106483657D01*
D11*
X98630000Y-105970000D02*
X110610000Y-105970000D01*
X110610000Y-115140000D01*
X98630000Y-115140000D01*
X98630000Y-105970000D01*
D12*
X101748720Y-125880314D02*
X102248720Y-125880314D01*
X102463006Y-126666028D02*
X101748720Y-126666028D01*
X101748720Y-126666028D02*
X101748720Y-125166028D01*
X101748720Y-125166028D02*
X102463006Y-125166028D01*
X103034435Y-126594600D02*
X103248721Y-126666028D01*
X103248721Y-126666028D02*
X103605863Y-126666028D01*
X103605863Y-126666028D02*
X103748721Y-126594600D01*
X103748721Y-126594600D02*
X103820149Y-126523171D01*
X103820149Y-126523171D02*
X103891578Y-126380314D01*
X103891578Y-126380314D02*
X103891578Y-126237457D01*
X103891578Y-126237457D02*
X103820149Y-126094600D01*
X103820149Y-126094600D02*
X103748721Y-126023171D01*
X103748721Y-126023171D02*
X103605863Y-125951742D01*
X103605863Y-125951742D02*
X103320149Y-125880314D01*
X103320149Y-125880314D02*
X103177292Y-125808885D01*
X103177292Y-125808885D02*
X103105863Y-125737457D01*
X103105863Y-125737457D02*
X103034435Y-125594600D01*
X103034435Y-125594600D02*
X103034435Y-125451742D01*
X103034435Y-125451742D02*
X103105863Y-125308885D01*
X103105863Y-125308885D02*
X103177292Y-125237457D01*
X103177292Y-125237457D02*
X103320149Y-125166028D01*
X103320149Y-125166028D02*
X103677292Y-125166028D01*
X103677292Y-125166028D02*
X103891578Y-125237457D01*
X104534434Y-126666028D02*
X104534434Y-125166028D01*
X104534434Y-125166028D02*
X105105863Y-125166028D01*
X105105863Y-125166028D02*
X105248720Y-125237457D01*
X105248720Y-125237457D02*
X105320149Y-125308885D01*
X105320149Y-125308885D02*
X105391577Y-125451742D01*
X105391577Y-125451742D02*
X105391577Y-125666028D01*
X105391577Y-125666028D02*
X105320149Y-125808885D01*
X105320149Y-125808885D02*
X105248720Y-125880314D01*
X105248720Y-125880314D02*
X105105863Y-125951742D01*
X105105863Y-125951742D02*
X104534434Y-125951742D01*
X105891577Y-125166028D02*
X106820149Y-125166028D01*
X106820149Y-125166028D02*
X106320149Y-125737457D01*
X106320149Y-125737457D02*
X106534434Y-125737457D01*
X106534434Y-125737457D02*
X106677292Y-125808885D01*
X106677292Y-125808885D02*
X106748720Y-125880314D01*
X106748720Y-125880314D02*
X106820149Y-126023171D01*
X106820149Y-126023171D02*
X106820149Y-126380314D01*
X106820149Y-126380314D02*
X106748720Y-126523171D01*
X106748720Y-126523171D02*
X106677292Y-126594600D01*
X106677292Y-126594600D02*
X106534434Y-126666028D01*
X106534434Y-126666028D02*
X106105863Y-126666028D01*
X106105863Y-126666028D02*
X105963006Y-126594600D01*
X105963006Y-126594600D02*
X105891577Y-126523171D01*
X107391577Y-125308885D02*
X107463005Y-125237457D01*
X107463005Y-125237457D02*
X107605863Y-125166028D01*
X107605863Y-125166028D02*
X107963005Y-125166028D01*
X107963005Y-125166028D02*
X108105863Y-125237457D01*
X108105863Y-125237457D02*
X108177291Y-125308885D01*
X108177291Y-125308885D02*
X108248720Y-125451742D01*
X108248720Y-125451742D02*
X108248720Y-125594600D01*
X108248720Y-125594600D02*
X108177291Y-125808885D01*
X108177291Y-125808885D02*
X107320148Y-126666028D01*
X107320148Y-126666028D02*
X108248720Y-126666028D01*
X89188720Y-125056028D02*
X89188720Y-126270314D01*
X89188720Y-126270314D02*
X89260149Y-126413171D01*
X89260149Y-126413171D02*
X89331578Y-126484600D01*
X89331578Y-126484600D02*
X89474435Y-126556028D01*
X89474435Y-126556028D02*
X89760149Y-126556028D01*
X89760149Y-126556028D02*
X89903006Y-126484600D01*
X89903006Y-126484600D02*
X89974435Y-126413171D01*
X89974435Y-126413171D02*
X90045863Y-126270314D01*
X90045863Y-126270314D02*
X90045863Y-125056028D01*
X90760149Y-125556028D02*
X90760149Y-126556028D01*
X90760149Y-125698885D02*
X90831578Y-125627457D01*
X90831578Y-125627457D02*
X90974435Y-125556028D01*
X90974435Y-125556028D02*
X91188721Y-125556028D01*
X91188721Y-125556028D02*
X91331578Y-125627457D01*
X91331578Y-125627457D02*
X91403007Y-125770314D01*
X91403007Y-125770314D02*
X91403007Y-126556028D01*
X92760150Y-126556028D02*
X92760150Y-125056028D01*
X92760150Y-126484600D02*
X92617292Y-126556028D01*
X92617292Y-126556028D02*
X92331578Y-126556028D01*
X92331578Y-126556028D02*
X92188721Y-126484600D01*
X92188721Y-126484600D02*
X92117292Y-126413171D01*
X92117292Y-126413171D02*
X92045864Y-126270314D01*
X92045864Y-126270314D02*
X92045864Y-125841742D01*
X92045864Y-125841742D02*
X92117292Y-125698885D01*
X92117292Y-125698885D02*
X92188721Y-125627457D01*
X92188721Y-125627457D02*
X92331578Y-125556028D01*
X92331578Y-125556028D02*
X92617292Y-125556028D01*
X92617292Y-125556028D02*
X92760150Y-125627457D01*
X94045864Y-126484600D02*
X93903007Y-126556028D01*
X93903007Y-126556028D02*
X93617293Y-126556028D01*
X93617293Y-126556028D02*
X93474435Y-126484600D01*
X93474435Y-126484600D02*
X93403007Y-126341742D01*
X93403007Y-126341742D02*
X93403007Y-125770314D01*
X93403007Y-125770314D02*
X93474435Y-125627457D01*
X93474435Y-125627457D02*
X93617293Y-125556028D01*
X93617293Y-125556028D02*
X93903007Y-125556028D01*
X93903007Y-125556028D02*
X94045864Y-125627457D01*
X94045864Y-125627457D02*
X94117293Y-125770314D01*
X94117293Y-125770314D02*
X94117293Y-125913171D01*
X94117293Y-125913171D02*
X93403007Y-126056028D01*
X94760149Y-126556028D02*
X94760149Y-125556028D01*
X94760149Y-125841742D02*
X94831578Y-125698885D01*
X94831578Y-125698885D02*
X94903007Y-125627457D01*
X94903007Y-125627457D02*
X95045864Y-125556028D01*
X95045864Y-125556028D02*
X95188721Y-125556028D01*
X63465863Y-106136028D02*
X62965863Y-105421742D01*
X62608720Y-106136028D02*
X62608720Y-104636028D01*
X62608720Y-104636028D02*
X63180149Y-104636028D01*
X63180149Y-104636028D02*
X63323006Y-104707457D01*
X63323006Y-104707457D02*
X63394435Y-104778885D01*
X63394435Y-104778885D02*
X63465863Y-104921742D01*
X63465863Y-104921742D02*
X63465863Y-105136028D01*
X63465863Y-105136028D02*
X63394435Y-105278885D01*
X63394435Y-105278885D02*
X63323006Y-105350314D01*
X63323006Y-105350314D02*
X63180149Y-105421742D01*
X63180149Y-105421742D02*
X62608720Y-105421742D01*
X64751578Y-105136028D02*
X64751578Y-106136028D01*
X64108720Y-105136028D02*
X64108720Y-105921742D01*
X64108720Y-105921742D02*
X64180149Y-106064600D01*
X64180149Y-106064600D02*
X64323006Y-106136028D01*
X64323006Y-106136028D02*
X64537292Y-106136028D01*
X64537292Y-106136028D02*
X64680149Y-106064600D01*
X64680149Y-106064600D02*
X64751578Y-105993171D01*
X66108721Y-106136028D02*
X66108721Y-104636028D01*
X66108721Y-106064600D02*
X65965863Y-106136028D01*
X65965863Y-106136028D02*
X65680149Y-106136028D01*
X65680149Y-106136028D02*
X65537292Y-106064600D01*
X65537292Y-106064600D02*
X65465863Y-105993171D01*
X65465863Y-105993171D02*
X65394435Y-105850314D01*
X65394435Y-105850314D02*
X65394435Y-105421742D01*
X65394435Y-105421742D02*
X65465863Y-105278885D01*
X65465863Y-105278885D02*
X65537292Y-105207457D01*
X65537292Y-105207457D02*
X65680149Y-105136028D01*
X65680149Y-105136028D02*
X65965863Y-105136028D01*
X65965863Y-105136028D02*
X66108721Y-105207457D01*
X67465864Y-106136028D02*
X67465864Y-104636028D01*
X67465864Y-106064600D02*
X67323006Y-106136028D01*
X67323006Y-106136028D02*
X67037292Y-106136028D01*
X67037292Y-106136028D02*
X66894435Y-106064600D01*
X66894435Y-106064600D02*
X66823006Y-105993171D01*
X66823006Y-105993171D02*
X66751578Y-105850314D01*
X66751578Y-105850314D02*
X66751578Y-105421742D01*
X66751578Y-105421742D02*
X66823006Y-105278885D01*
X66823006Y-105278885D02*
X66894435Y-105207457D01*
X66894435Y-105207457D02*
X67037292Y-105136028D01*
X67037292Y-105136028D02*
X67323006Y-105136028D01*
X67323006Y-105136028D02*
X67465864Y-105207457D01*
X68751578Y-106064600D02*
X68608721Y-106136028D01*
X68608721Y-106136028D02*
X68323007Y-106136028D01*
X68323007Y-106136028D02*
X68180149Y-106064600D01*
X68180149Y-106064600D02*
X68108721Y-105921742D01*
X68108721Y-105921742D02*
X68108721Y-105350314D01*
X68108721Y-105350314D02*
X68180149Y-105207457D01*
X68180149Y-105207457D02*
X68323007Y-105136028D01*
X68323007Y-105136028D02*
X68608721Y-105136028D01*
X68608721Y-105136028D02*
X68751578Y-105207457D01*
X68751578Y-105207457D02*
X68823007Y-105350314D01*
X68823007Y-105350314D02*
X68823007Y-105493171D01*
X68823007Y-105493171D02*
X68108721Y-105636028D01*
X69465863Y-106136028D02*
X69465863Y-105136028D01*
X69465863Y-105421742D02*
X69537292Y-105278885D01*
X69537292Y-105278885D02*
X69608721Y-105207457D01*
X69608721Y-105207457D02*
X69751578Y-105136028D01*
X69751578Y-105136028D02*
X69894435Y-105136028D01*
X101368720Y-104960314D02*
X101583006Y-105031742D01*
X101583006Y-105031742D02*
X101654435Y-105103171D01*
X101654435Y-105103171D02*
X101725863Y-105246028D01*
X101725863Y-105246028D02*
X101725863Y-105460314D01*
X101725863Y-105460314D02*
X101654435Y-105603171D01*
X101654435Y-105603171D02*
X101583006Y-105674600D01*
X101583006Y-105674600D02*
X101440149Y-105746028D01*
X101440149Y-105746028D02*
X100868720Y-105746028D01*
X100868720Y-105746028D02*
X100868720Y-104246028D01*
X100868720Y-104246028D02*
X101368720Y-104246028D01*
X101368720Y-104246028D02*
X101511578Y-104317457D01*
X101511578Y-104317457D02*
X101583006Y-104388885D01*
X101583006Y-104388885D02*
X101654435Y-104531742D01*
X101654435Y-104531742D02*
X101654435Y-104674600D01*
X101654435Y-104674600D02*
X101583006Y-104817457D01*
X101583006Y-104817457D02*
X101511578Y-104888885D01*
X101511578Y-104888885D02*
X101368720Y-104960314D01*
X101368720Y-104960314D02*
X100868720Y-104960314D01*
X102368720Y-105746028D02*
X102368720Y-104246028D01*
X102368720Y-104246028D02*
X102868720Y-105317457D01*
X102868720Y-105317457D02*
X103368720Y-104246028D01*
X103368720Y-104246028D02*
X103368720Y-105746028D01*
X104083006Y-105746028D02*
X104083006Y-104246028D01*
X104083006Y-104246028D02*
X104654435Y-104246028D01*
X104654435Y-104246028D02*
X104797292Y-104317457D01*
X104797292Y-104317457D02*
X104868721Y-104388885D01*
X104868721Y-104388885D02*
X104940149Y-104531742D01*
X104940149Y-104531742D02*
X104940149Y-104746028D01*
X104940149Y-104746028D02*
X104868721Y-104888885D01*
X104868721Y-104888885D02*
X104797292Y-104960314D01*
X104797292Y-104960314D02*
X104654435Y-105031742D01*
X104654435Y-105031742D02*
X104083006Y-105031742D01*
X105440149Y-104246028D02*
X106368721Y-104246028D01*
X106368721Y-104246028D02*
X105868721Y-104817457D01*
X105868721Y-104817457D02*
X106083006Y-104817457D01*
X106083006Y-104817457D02*
X106225864Y-104888885D01*
X106225864Y-104888885D02*
X106297292Y-104960314D01*
X106297292Y-104960314D02*
X106368721Y-105103171D01*
X106368721Y-105103171D02*
X106368721Y-105460314D01*
X106368721Y-105460314D02*
X106297292Y-105603171D01*
X106297292Y-105603171D02*
X106225864Y-105674600D01*
X106225864Y-105674600D02*
X106083006Y-105746028D01*
X106083006Y-105746028D02*
X105654435Y-105746028D01*
X105654435Y-105746028D02*
X105511578Y-105674600D01*
X105511578Y-105674600D02*
X105440149Y-105603171D01*
X107083006Y-105746028D02*
X107368720Y-105746028D01*
X107368720Y-105746028D02*
X107511577Y-105674600D01*
X107511577Y-105674600D02*
X107583006Y-105603171D01*
X107583006Y-105603171D02*
X107725863Y-105388885D01*
X107725863Y-105388885D02*
X107797292Y-105103171D01*
X107797292Y-105103171D02*
X107797292Y-104531742D01*
X107797292Y-104531742D02*
X107725863Y-104388885D01*
X107725863Y-104388885D02*
X107654435Y-104317457D01*
X107654435Y-104317457D02*
X107511577Y-104246028D01*
X107511577Y-104246028D02*
X107225863Y-104246028D01*
X107225863Y-104246028D02*
X107083006Y-104317457D01*
X107083006Y-104317457D02*
X107011577Y-104388885D01*
X107011577Y-104388885D02*
X106940149Y-104531742D01*
X106940149Y-104531742D02*
X106940149Y-104888885D01*
X106940149Y-104888885D02*
X107011577Y-105031742D01*
X107011577Y-105031742D02*
X107083006Y-105103171D01*
X107083006Y-105103171D02*
X107225863Y-105174600D01*
X107225863Y-105174600D02*
X107511577Y-105174600D01*
X107511577Y-105174600D02*
X107654435Y-105103171D01*
X107654435Y-105103171D02*
X107725863Y-105031742D01*
X107725863Y-105031742D02*
X107797292Y-104888885D01*
X108725863Y-104246028D02*
X108868720Y-104246028D01*
X108868720Y-104246028D02*
X109011577Y-104317457D01*
X109011577Y-104317457D02*
X109083006Y-104388885D01*
X109083006Y-104388885D02*
X109154434Y-104531742D01*
X109154434Y-104531742D02*
X109225863Y-104817457D01*
X109225863Y-104817457D02*
X109225863Y-105174600D01*
X109225863Y-105174600D02*
X109154434Y-105460314D01*
X109154434Y-105460314D02*
X109083006Y-105603171D01*
X109083006Y-105603171D02*
X109011577Y-105674600D01*
X109011577Y-105674600D02*
X108868720Y-105746028D01*
X108868720Y-105746028D02*
X108725863Y-105746028D01*
X108725863Y-105746028D02*
X108583006Y-105674600D01*
X108583006Y-105674600D02*
X108511577Y-105603171D01*
X108511577Y-105603171D02*
X108440148Y-105460314D01*
X108440148Y-105460314D02*
X108368720Y-105174600D01*
X108368720Y-105174600D02*
X108368720Y-104817457D01*
X108368720Y-104817457D02*
X108440148Y-104531742D01*
X108440148Y-104531742D02*
X108511577Y-104388885D01*
X108511577Y-104388885D02*
X108583006Y-104317457D01*
X108583006Y-104317457D02*
X108725863Y-104246028D01*
X114446028Y-122014136D02*
X115946028Y-121014136D01*
X114446028Y-121014136D02*
X115946028Y-122014136D01*
X115946028Y-120442708D02*
X114446028Y-120442708D01*
X115517457Y-119799850D02*
X115517457Y-119085565D01*
X115946028Y-119942707D02*
X114446028Y-119442707D01*
X114446028Y-119442707D02*
X115946028Y-118942707D01*
X114446028Y-118156993D02*
X114446028Y-117871279D01*
X114446028Y-117871279D02*
X114517457Y-117728422D01*
X114517457Y-117728422D02*
X114660314Y-117585565D01*
X114660314Y-117585565D02*
X114946028Y-117514136D01*
X114946028Y-117514136D02*
X115446028Y-117514136D01*
X115446028Y-117514136D02*
X115731742Y-117585565D01*
X115731742Y-117585565D02*
X115874600Y-117728422D01*
X115874600Y-117728422D02*
X115946028Y-117871279D01*
X115946028Y-117871279D02*
X115946028Y-118156993D01*
X115946028Y-118156993D02*
X115874600Y-118299851D01*
X115874600Y-118299851D02*
X115731742Y-118442708D01*
X115731742Y-118442708D02*
X115446028Y-118514136D01*
X115446028Y-118514136D02*
X114946028Y-118514136D01*
X114946028Y-118514136D02*
X114660314Y-118442708D01*
X114660314Y-118442708D02*
X114517457Y-118299851D01*
X114517457Y-118299851D02*
X114446028Y-118156993D01*
X116088885Y-117228422D02*
X116088885Y-116085564D01*
X115160314Y-115728422D02*
X115160314Y-115228422D01*
X115946028Y-115014136D02*
X115946028Y-115728422D01*
X115946028Y-115728422D02*
X114446028Y-115728422D01*
X114446028Y-115728422D02*
X114446028Y-115014136D01*
X115874600Y-114442707D02*
X115946028Y-114228422D01*
X115946028Y-114228422D02*
X115946028Y-113871279D01*
X115946028Y-113871279D02*
X115874600Y-113728422D01*
X115874600Y-113728422D02*
X115803171Y-113656993D01*
X115803171Y-113656993D02*
X115660314Y-113585564D01*
X115660314Y-113585564D02*
X115517457Y-113585564D01*
X115517457Y-113585564D02*
X115374600Y-113656993D01*
X115374600Y-113656993D02*
X115303171Y-113728422D01*
X115303171Y-113728422D02*
X115231742Y-113871279D01*
X115231742Y-113871279D02*
X115160314Y-114156993D01*
X115160314Y-114156993D02*
X115088885Y-114299850D01*
X115088885Y-114299850D02*
X115017457Y-114371279D01*
X115017457Y-114371279D02*
X114874600Y-114442707D01*
X114874600Y-114442707D02*
X114731742Y-114442707D01*
X114731742Y-114442707D02*
X114588885Y-114371279D01*
X114588885Y-114371279D02*
X114517457Y-114299850D01*
X114517457Y-114299850D02*
X114446028Y-114156993D01*
X114446028Y-114156993D02*
X114446028Y-113799850D01*
X114446028Y-113799850D02*
X114517457Y-113585564D01*
X115946028Y-112942708D02*
X114446028Y-112942708D01*
X114446028Y-112942708D02*
X114446028Y-112371279D01*
X114446028Y-112371279D02*
X114517457Y-112228422D01*
X114517457Y-112228422D02*
X114588885Y-112156993D01*
X114588885Y-112156993D02*
X114731742Y-112085565D01*
X114731742Y-112085565D02*
X114946028Y-112085565D01*
X114946028Y-112085565D02*
X115088885Y-112156993D01*
X115088885Y-112156993D02*
X115160314Y-112228422D01*
X115160314Y-112228422D02*
X115231742Y-112371279D01*
X115231742Y-112371279D02*
X115231742Y-112942708D01*
X114446028Y-111585565D02*
X114446028Y-110656993D01*
X114446028Y-110656993D02*
X115017457Y-111156993D01*
X115017457Y-111156993D02*
X115017457Y-110942708D01*
X115017457Y-110942708D02*
X115088885Y-110799851D01*
X115088885Y-110799851D02*
X115160314Y-110728422D01*
X115160314Y-110728422D02*
X115303171Y-110656993D01*
X115303171Y-110656993D02*
X115660314Y-110656993D01*
X115660314Y-110656993D02*
X115803171Y-110728422D01*
X115803171Y-110728422D02*
X115874600Y-110799851D01*
X115874600Y-110799851D02*
X115946028Y-110942708D01*
X115946028Y-110942708D02*
X115946028Y-111371279D01*
X115946028Y-111371279D02*
X115874600Y-111514136D01*
X115874600Y-111514136D02*
X115803171Y-111585565D01*
X114588885Y-110085565D02*
X114517457Y-110014137D01*
X114517457Y-110014137D02*
X114446028Y-109871280D01*
X114446028Y-109871280D02*
X114446028Y-109514137D01*
X114446028Y-109514137D02*
X114517457Y-109371280D01*
X114517457Y-109371280D02*
X114588885Y-109299851D01*
X114588885Y-109299851D02*
X114731742Y-109228422D01*
X114731742Y-109228422D02*
X114874600Y-109228422D01*
X114874600Y-109228422D02*
X115088885Y-109299851D01*
X115088885Y-109299851D02*
X115946028Y-110156994D01*
X115946028Y-110156994D02*
X115946028Y-109228422D01*
X77828720Y-126726028D02*
X77828720Y-125226028D01*
X79400149Y-126583171D02*
X79328721Y-126654600D01*
X79328721Y-126654600D02*
X79114435Y-126726028D01*
X79114435Y-126726028D02*
X78971578Y-126726028D01*
X78971578Y-126726028D02*
X78757292Y-126654600D01*
X78757292Y-126654600D02*
X78614435Y-126511742D01*
X78614435Y-126511742D02*
X78543006Y-126368885D01*
X78543006Y-126368885D02*
X78471578Y-126083171D01*
X78471578Y-126083171D02*
X78471578Y-125868885D01*
X78471578Y-125868885D02*
X78543006Y-125583171D01*
X78543006Y-125583171D02*
X78614435Y-125440314D01*
X78614435Y-125440314D02*
X78757292Y-125297457D01*
X78757292Y-125297457D02*
X78971578Y-125226028D01*
X78971578Y-125226028D02*
X79114435Y-125226028D01*
X79114435Y-125226028D02*
X79328721Y-125297457D01*
X79328721Y-125297457D02*
X79400149Y-125368885D01*
X79971578Y-126654600D02*
X80185864Y-126726028D01*
X80185864Y-126726028D02*
X80543006Y-126726028D01*
X80543006Y-126726028D02*
X80685864Y-126654600D01*
X80685864Y-126654600D02*
X80757292Y-126583171D01*
X80757292Y-126583171D02*
X80828721Y-126440314D01*
X80828721Y-126440314D02*
X80828721Y-126297457D01*
X80828721Y-126297457D02*
X80757292Y-126154600D01*
X80757292Y-126154600D02*
X80685864Y-126083171D01*
X80685864Y-126083171D02*
X80543006Y-126011742D01*
X80543006Y-126011742D02*
X80257292Y-125940314D01*
X80257292Y-125940314D02*
X80114435Y-125868885D01*
X80114435Y-125868885D02*
X80043006Y-125797457D01*
X80043006Y-125797457D02*
X79971578Y-125654600D01*
X79971578Y-125654600D02*
X79971578Y-125511742D01*
X79971578Y-125511742D02*
X80043006Y-125368885D01*
X80043006Y-125368885D02*
X80114435Y-125297457D01*
X80114435Y-125297457D02*
X80257292Y-125226028D01*
X80257292Y-125226028D02*
X80614435Y-125226028D01*
X80614435Y-125226028D02*
X80828721Y-125297457D01*
X77878720Y-105290314D02*
X78093006Y-105361742D01*
X78093006Y-105361742D02*
X78164435Y-105433171D01*
X78164435Y-105433171D02*
X78235863Y-105576028D01*
X78235863Y-105576028D02*
X78235863Y-105790314D01*
X78235863Y-105790314D02*
X78164435Y-105933171D01*
X78164435Y-105933171D02*
X78093006Y-106004600D01*
X78093006Y-106004600D02*
X77950149Y-106076028D01*
X77950149Y-106076028D02*
X77378720Y-106076028D01*
X77378720Y-106076028D02*
X77378720Y-104576028D01*
X77378720Y-104576028D02*
X77878720Y-104576028D01*
X77878720Y-104576028D02*
X78021578Y-104647457D01*
X78021578Y-104647457D02*
X78093006Y-104718885D01*
X78093006Y-104718885D02*
X78164435Y-104861742D01*
X78164435Y-104861742D02*
X78164435Y-105004600D01*
X78164435Y-105004600D02*
X78093006Y-105147457D01*
X78093006Y-105147457D02*
X78021578Y-105218885D01*
X78021578Y-105218885D02*
X77878720Y-105290314D01*
X77878720Y-105290314D02*
X77378720Y-105290314D01*
X78878720Y-106076028D02*
X78878720Y-105076028D01*
X78878720Y-104576028D02*
X78807292Y-104647457D01*
X78807292Y-104647457D02*
X78878720Y-104718885D01*
X78878720Y-104718885D02*
X78950149Y-104647457D01*
X78950149Y-104647457D02*
X78878720Y-104576028D01*
X78878720Y-104576028D02*
X78878720Y-104718885D01*
X80235864Y-106004600D02*
X80093006Y-106076028D01*
X80093006Y-106076028D02*
X79807292Y-106076028D01*
X79807292Y-106076028D02*
X79664435Y-106004600D01*
X79664435Y-106004600D02*
X79593006Y-105933171D01*
X79593006Y-105933171D02*
X79521578Y-105790314D01*
X79521578Y-105790314D02*
X79521578Y-105361742D01*
X79521578Y-105361742D02*
X79593006Y-105218885D01*
X79593006Y-105218885D02*
X79664435Y-105147457D01*
X79664435Y-105147457D02*
X79807292Y-105076028D01*
X79807292Y-105076028D02*
X80093006Y-105076028D01*
X80093006Y-105076028D02*
X80235864Y-105147457D01*
X81093006Y-106076028D02*
X80950149Y-106004600D01*
X80950149Y-106004600D02*
X80878720Y-105933171D01*
X80878720Y-105933171D02*
X80807292Y-105790314D01*
X80807292Y-105790314D02*
X80807292Y-105361742D01*
X80807292Y-105361742D02*
X80878720Y-105218885D01*
X80878720Y-105218885D02*
X80950149Y-105147457D01*
X80950149Y-105147457D02*
X81093006Y-105076028D01*
X81093006Y-105076028D02*
X81307292Y-105076028D01*
X81307292Y-105076028D02*
X81450149Y-105147457D01*
X81450149Y-105147457D02*
X81521578Y-105218885D01*
X81521578Y-105218885D02*
X81593006Y-105361742D01*
X81593006Y-105361742D02*
X81593006Y-105790314D01*
X81593006Y-105790314D02*
X81521578Y-105933171D01*
X81521578Y-105933171D02*
X81450149Y-106004600D01*
X81450149Y-106004600D02*
X81307292Y-106076028D01*
X81307292Y-106076028D02*
X81093006Y-106076028D01*
D10*
X145561728Y-123639200D02*
X150133157Y-123639200D01*
X148990299Y-124782057D02*
X150133157Y-123639200D01*
X150133157Y-123639200D02*
X148990299Y-122496342D01*
D13*
%TO.C,U6*%
X117955340Y-105342180D02*
X117955340Y-126340360D01*
X117955340Y-126340360D02*
X135082560Y-126340360D01*
D14*
X121656120Y-119690640D02*
X121656120Y-122360180D01*
X121656120Y-123757180D02*
X121656120Y-126424180D01*
D13*
X122359700Y-120412000D02*
X131358920Y-120412000D01*
D14*
X123434120Y-119690640D02*
X121656120Y-119690640D01*
X123434120Y-119690640D02*
X123434120Y-122360180D01*
X123434120Y-122360180D02*
X121656120Y-122360180D01*
X123434120Y-123757180D02*
X121656120Y-123757180D01*
X123434120Y-123757180D02*
X123434120Y-126424180D01*
X123434120Y-126424180D02*
X121656120Y-126424180D01*
X123688120Y-105977180D02*
X123688120Y-108517180D01*
X124323120Y-123122180D02*
X124323120Y-125662180D01*
X129403120Y-105977180D02*
X123688120Y-105977180D01*
X129403120Y-105977180D02*
X129403120Y-108517180D01*
X129403120Y-108517180D02*
X123688120Y-108517180D01*
X129403120Y-123122180D02*
X124323120Y-123122180D01*
X129403120Y-123122180D02*
X129403120Y-125662180D01*
X129403120Y-125662180D02*
X124323120Y-125662180D01*
X130292120Y-119690640D02*
X130292120Y-122360180D01*
X130292120Y-123757180D02*
X130292120Y-126424180D01*
X132070120Y-119690640D02*
X130292120Y-119690640D01*
X132070120Y-119690640D02*
X132070120Y-122360180D01*
X132070120Y-122360180D02*
X130292120Y-122360180D01*
X132070120Y-123757180D02*
X130292120Y-123757180D01*
X132070120Y-123757180D02*
X132070120Y-126424180D01*
X132070120Y-126424180D02*
X130292120Y-126424180D01*
D13*
X135082560Y-126340360D02*
X135753120Y-125669800D01*
X135753120Y-105342180D02*
X117955340Y-105342180D01*
X135753120Y-125669800D02*
X135753120Y-105342180D01*
D15*
X136769120Y-123503180D02*
G75*
G02*
X136515120Y-123503180I-127000J0D01*
G01*
X136515120Y-123503180D02*
G75*
G02*
X136769120Y-123503180I127000J0D01*
G01*
D16*
%TO.C,U1*%
X73079000Y-123910000D02*
X73079000Y-125150000D01*
X73079000Y-125150000D02*
X74319000Y-125150000D01*
X73319000Y-116290000D02*
X73319000Y-124910000D01*
X73319000Y-116290000D02*
X85040000Y-116290000D01*
X73319000Y-124910000D02*
X85040000Y-124910000D01*
X85040000Y-116290000D02*
X85040000Y-124910000D01*
%TO.C,U4*%
X59872000Y-114107500D02*
X59872000Y-115347500D01*
X59872000Y-115347500D02*
X61112000Y-115347500D01*
X60112000Y-106487500D02*
X60112000Y-115107500D01*
X60112000Y-106487500D02*
X71833000Y-106487500D01*
X60112000Y-115107500D02*
X71833000Y-115107500D01*
X71833000Y-106487500D02*
X71833000Y-115107500D01*
%TO.C,U3*%
X98779000Y-123880000D02*
X98779000Y-125120000D01*
X98779000Y-125120000D02*
X100019000Y-125120000D01*
X99019000Y-116260000D02*
X99019000Y-124880000D01*
X99019000Y-116260000D02*
X110740000Y-116260000D01*
X99019000Y-124880000D02*
X110740000Y-124880000D01*
X110740000Y-116260000D02*
X110740000Y-124880000D01*
%TO.C,J6*%
X139780000Y-107850000D02*
X139780000Y-123210000D01*
X139780000Y-107850000D02*
X142380000Y-107850000D01*
X139780000Y-123210000D02*
X144980000Y-123210000D01*
X142380000Y-107850000D02*
X142380000Y-110450000D01*
X142380000Y-110450000D02*
X144980000Y-110450000D01*
X143650000Y-107850000D02*
X144980000Y-107850000D01*
X144980000Y-107850000D02*
X144980000Y-109180000D01*
X144980000Y-110450000D02*
X144980000Y-123210000D01*
%TO.C,U2*%
X73092000Y-114077500D02*
X73092000Y-115317500D01*
X73092000Y-115317500D02*
X74332000Y-115317500D01*
X73332000Y-106457500D02*
X73332000Y-115077500D01*
X73332000Y-106457500D02*
X85053000Y-106457500D01*
X73332000Y-115077500D02*
X85053000Y-115077500D01*
X85053000Y-106457500D02*
X85053000Y-115077500D01*
%TO.C,J1*%
X53620000Y-107850000D02*
X53620000Y-123210000D01*
X53620000Y-107850000D02*
X56220000Y-107850000D01*
X53620000Y-123210000D02*
X58820000Y-123210000D01*
X56220000Y-107850000D02*
X56220000Y-110450000D01*
X56220000Y-110450000D02*
X58820000Y-110450000D01*
X57490000Y-107850000D02*
X58820000Y-107850000D01*
X58820000Y-107850000D02*
X58820000Y-109180000D01*
X58820000Y-110450000D02*
X58820000Y-123210000D01*
%TO.C,J2*%
X99470000Y-106655000D02*
X99470000Y-109315000D01*
X107150000Y-106655000D02*
X99470000Y-106655000D01*
X107150000Y-106655000D02*
X107150000Y-109315000D01*
X107150000Y-109315000D02*
X99470000Y-109315000D01*
X109750000Y-107985000D02*
X109750000Y-109315000D01*
X109750000Y-109315000D02*
X108420000Y-109315000D01*
%TO.C,U5*%
X85929000Y-123860000D02*
X85929000Y-125100000D01*
X85929000Y-125100000D02*
X87169000Y-125100000D01*
X86169000Y-116240000D02*
X86169000Y-124860000D01*
X86169000Y-116240000D02*
X97890000Y-116240000D01*
X86169000Y-124860000D02*
X97890000Y-124860000D01*
X97890000Y-116240000D02*
X97890000Y-124860000D01*
%TD*%
M02*
