M48
; DRILL file {KiCad 9.0.5} date 2025-11-06T16:02:14+0900
; FORMAT={-:-/ absolute / metric / decimal}
; #@! TF.CreationDate,2025-11-06T16:02:14+09:00
; #@! TF.GenerationSoftware,Kicad,Pcbnew,9.0.5
; #@! TF.FileFunction,MixedPlating,1,2
FMAT,2
METRIC
; #@! TA.AperFunction,Plated,PTH,ViaDrill
T1C0.300
; #@! TA.AperFunction,Plated,PTH,ViaDrill
T2C0.350
; #@! TA.AperFunction,Plated,PTH,ComponentDrill
T3C0.700
; #@! TA.AperFunction,Plated,PTH,ComponentDrill
T4C1.000
%
G90
G05
T1
X55.61Y-123.59
X57.4Y-123.3
X58.12Y-118.06
X58.63Y-107.78
X58.8Y-126.79
X58.94Y-109.26
X59.03Y-116.1
X59.11Y-118.47
X59.14Y-113.8
X59.2Y-111.17
X59.3Y-122.63
X59.31Y-119.98
X59.41Y-121.2
X59.64Y-125.5
X60.16Y-107.92
X60.36Y-106.02
X60.38Y-117.17
X60.46Y-114.64
X60.47Y-109.86
X60.49Y-112.34
X61.3Y-124.09
X61.648Y-115.54
X61.72Y-118.54
X61.75Y-108.59
X61.8Y-119.95
X62.01Y-106.02
X62.16Y-112.81
X62.35Y-110.51
X62.36Y-114.64
X62.58Y-121.22
X63.01Y-125.49
X63.03Y-126.85
X63.04Y-122.69
X63.07Y-107.45
X63.314Y-110.614
X63.44Y-109.42
X63.69Y-116.93
X64.11Y-111.26
X64.25Y-114.96
X64.32Y-120.01
X64.66Y-110.36
X64.86Y-115.63
X64.9Y-107.86
X64.91Y-124.15
X64.96Y-118.59
X65.01Y-105.99
X65.82Y-121.2
X66.01Y-116.93
X66.72Y-120.01
X66.81Y-122.65
X66.89Y-125.46
X66.99Y-111.41
X67.01Y-126.85
X67.28Y-115.46
X67.32Y-118.55
X67.33Y-107.85
X67.35Y-106.08
X68.76Y-124.1
X68.98Y-114.82
X69.02Y-121.2
X69.45Y-110.33
X69.46Y-119.94
X69.61Y-107.89
X69.67Y-106.05
X70.25Y-113.48
X70.54Y-122.68
X70.65Y-125.51
X70.7Y-126.85
X71.04Y-116.55
X71.59Y-112.15
X71.65Y-119.84
X71.82Y-107.92
X71.91Y-106.04
X71.91Y-117.71
X72.05Y-115.42
X72.14Y-113.93
X72.57Y-111.28
X72.66Y-120.79
X72.99Y-124.46
X73.06Y-121.18
X73.18Y-116.47
X73.18Y-118.73
X73.4Y-110.33
X74.0Y-117.36
X74.26Y-120.22
X74.53Y-106.01
X74.6Y-107.87
X74.79Y-120.71
X75.01Y-112.17
X75.05Y-113.85
X75.16Y-114.75
X75.2Y-123.55
X75.68Y-126.85
X75.76Y-125.43
X75.79Y-124.67
X76.1Y-116.46
X76.28Y-110.34
X76.31Y-118.84
X76.41Y-117.34
X77.1Y-105.99
X77.16Y-107.89
X77.87Y-120.29
X77.9Y-114.73
X77.935Y-111.355
X78.72Y-116.48
X79.22Y-125.41
X79.23Y-126.85
X79.31Y-117.39
X79.35Y-107.9
X79.37Y-106.02
X79.45Y-110.37
X79.56Y-118.82
X80.58Y-114.62
X80.78Y-111.516
X81.17Y-120.23
X81.54Y-116.45
X81.75Y-110.32
X81.9Y-106.0
X81.92Y-107.87
X82.0Y-117.38
X82.18Y-118.84
X82.44Y-114.79
X82.79Y-111.516
X83.05Y-109.41
X83.09Y-121.9
X83.24Y-125.47
X83.25Y-126.84
X83.73Y-123.64
X84.14Y-112.78
X84.15Y-116.51
X84.25Y-107.87
X84.26Y-106.11
X84.53Y-114.59
X84.54Y-122.78
X84.63Y-120.19
X84.93Y-117.33
X85.38Y-111.516
X85.68Y-118.84
X85.78Y-123.68
X85.86Y-121.93
X86.18Y-114.95
X86.54Y-105.98
X86.54Y-107.87
X86.89Y-110.2
X86.89Y-122.74
X87.12Y-126.82
X87.18Y-113.56
X87.43Y-123.67
X87.81Y-120.21
X88.26Y-121.84
X88.83Y-109.37
X89.0Y-115.04
X89.19Y-108.59
X89.25Y-112.7
X89.32Y-106.01
X89.34Y-107.84
X89.36Y-118.79
X90.24Y-108.68
X90.86Y-111.516
X91.19Y-126.85
X91.49Y-107.86
X91.63Y-106.02
X91.94Y-110.13
X92.03Y-108.48
X92.09Y-115.0
X92.66Y-120.34
X92.86Y-118.8
X93.19Y-113.56
X93.27Y-107.44
X93.28Y-116.08
X93.67Y-112.05
X93.74Y-110.11
X94.18Y-115.02
X94.61Y-106.03
X94.94Y-126.84
X95.09Y-108.33
X95.33Y-116.22
X95.36Y-111.7
X95.485Y-109.725
X95.88Y-121.98
X96.23Y-118.81
X96.39Y-110.65
X96.44Y-107.51
X96.52Y-123.62
X96.78Y-115.04
X97.1Y-112.04
X97.12Y-113.54
X97.38Y-105.95
X97.585Y-107.625
X97.73Y-109.12
X98.23Y-126.85
X98.29Y-109.83
X98.3Y-116.23
X98.32Y-120.37
X98.35Y-123.64
X98.4Y-121.91
X98.53Y-110.63
X99.36Y-107.38
X99.73Y-109.01
X99.87Y-118.83
X100.01Y-115.05
X100.02Y-112.05
X100.02Y-113.63
X100.05Y-110.56
X100.15Y-105.99
X100.39Y-123.56
X100.47Y-116.19
X100.94Y-121.85
X101.54Y-112.08
X101.56Y-110.6
X101.92Y-126.85
X101.98Y-115.1
X102.08Y-108.6
X102.52Y-105.96
X102.52Y-109.14
X103.0Y-116.31
X103.43Y-118.8
X103.63Y-110.57
X103.63Y-113.63
X103.81Y-120.28
X103.96Y-112.04
X104.67Y-109.04
X105.4Y-126.83
X105.41Y-118.8
X105.76Y-105.94
X105.79Y-110.59
X105.97Y-115.1
X106.48Y-112.04
X106.99Y-109.14
X107.22Y-113.59
X107.3Y-118.79
X108.05Y-110.59
X108.93Y-121.9
X109.03Y-112.06
X109.18Y-116.28
X109.25Y-105.98
X109.27Y-126.84
X109.77Y-120.36
X109.9Y-107.51
X110.04Y-110.6
X110.49Y-118.8
X110.52Y-109.13
X110.57Y-113.57
X111.47Y-112.05
X112.16Y-110.5
X112.16Y-115.17
X112.37Y-122.05
X112.39Y-107.4
X112.52Y-105.98
X113.07Y-120.24
X113.17Y-113.79
X113.25Y-126.85
X113.44Y-116.19
X113.44Y-122.62
X113.63Y-112.05
X113.77Y-109.83
X113.83Y-109.01
X114.155Y-120.305
X114.36Y-118.81
X114.42Y-115.05
X114.74Y-120.92
X115.32Y-121.97
X115.43Y-120.23
X115.49Y-107.38
X115.89Y-124.47
X116.13Y-110.54
X116.15Y-115.07
X116.44Y-113.8
X116.56Y-112.01
X116.61Y-105.95
X116.71Y-120.27
X116.98Y-107.4
X117.04Y-122.35
X117.08Y-109.1
X117.44Y-114.61
X118.36Y-126.83
X120.17Y-112.09
X120.54Y-118.84
X120.62Y-107.34
X120.62Y-123.49
X120.66Y-113.78
X120.7Y-116.17
X120.75Y-120.19
X120.75Y-125.53
X120.81Y-110.53
X120.87Y-120.92
X121.12Y-106.0
X121.12Y-113.055
X121.16Y-109.15
X121.46Y-122.66
X121.63Y-107.83
X122.18Y-115.01
X123.04Y-118.83
X123.31Y-113.85
X123.31Y-126.85
X123.43Y-107.89
X123.51Y-111.44
X123.59Y-122.68
X123.82Y-120.92
X124.08Y-125.38
X124.18Y-116.27
X124.48Y-109.13
X124.83Y-107.43
X125.02Y-105.99
X125.44Y-115.11
X125.55Y-118.85
X125.81Y-113.79
X126.29Y-122.87
X126.43Y-107.85
X126.44Y-112.29
X126.46Y-120.92
X126.65Y-110.53
X127.34Y-109.23
X127.46Y-125.44
X127.47Y-126.83
X128.03Y-107.42
X128.31Y-116.21
X128.37Y-118.85
X128.96Y-106.01
X129.0Y-110.81
X129.18Y-120.92
X129.49Y-114.07
X129.62Y-107.73
X129.81Y-122.88
X130.42Y-112.29
X130.56Y-125.52
X130.62Y-116.23
X130.76Y-110.68
X131.1Y-118.86
X131.24Y-109.2
X131.46Y-107.48
X131.63Y-122.85
X131.67Y-120.92
X131.86Y-125.55
X132.41Y-106.07
X132.46Y-110.62
X132.55Y-108.52
X132.78Y-126.83
X132.88Y-113.73
X132.93Y-116.23
X133.03Y-107.77
X133.11Y-124.21
X133.13Y-122.64
X133.54Y-109.52
X133.61Y-112.01
X134.18Y-120.92
X134.37Y-125.04
X134.92Y-108.22
X134.92Y-123.475
X135.73Y-126.78
X136.34Y-120.065
X136.44Y-109.61
X136.45Y-124.78
X136.47Y-105.98
X136.58Y-122.68
X136.585Y-120.895
X136.62Y-112.38
X136.8Y-111.07
X136.8Y-113.77
X136.98Y-116.07
X137.53Y-108.61
X137.89Y-114.7
X137.95Y-118.15
X137.95Y-121.14
X138.1Y-109.78
X138.53Y-116.98
X138.55Y-120.75
X139.0Y-115.52
X139.21Y-111.1
X139.26Y-112.35
X139.43Y-108.7
X139.51Y-106.02
X139.54Y-113.69
X139.67Y-109.59
X140.01Y-106.88
X140.31Y-110.46
X141.16Y-107.26
X142.46Y-122.69
X143.18Y-107.39
X144.94Y-107.47
X144.98Y-104.37
T2
X112.14Y-116.98
X113.56Y-118.15
T3
X67.88Y-116.93
X69.88Y-116.93
T4
X54.95Y-109.18
X54.95Y-111.72
X54.95Y-114.26
X54.95Y-116.8
X54.95Y-119.34
X54.95Y-121.88
X57.49Y-109.18
X57.49Y-111.72
X57.49Y-114.26
X57.49Y-116.8
X57.49Y-119.34
X57.49Y-121.88
X63.483Y-113.047
X66.023Y-113.047
X68.563Y-113.047
X76.69Y-122.85
X76.703Y-113.017
X79.23Y-122.85
X79.243Y-113.017
X81.77Y-122.85
X81.783Y-113.017
X89.54Y-122.8
X92.08Y-122.8
X94.62Y-122.8
X100.8Y-107.985
X102.39Y-122.82
X103.34Y-107.985
X104.93Y-122.82
X105.88Y-107.985
X107.47Y-122.82
X108.42Y-107.985
X141.11Y-109.18
X141.11Y-111.72
X141.11Y-114.26
X141.11Y-116.8
X141.11Y-119.34
X141.11Y-121.88
X143.65Y-109.18
X143.65Y-111.72
X143.65Y-114.26
X143.65Y-116.8
X143.65Y-119.34
X143.65Y-121.88
M30
