%TF.GenerationSoftware,KiCad,Pcbnew,9.0.0*%
%TF.CreationDate,2025-09-15T17:26:31+09:00*%
%TF.ProjectId,ICS,4943532e-6b69-4636-9164-5f7063625858,rev?*%
%TF.SameCoordinates,Original*%
%TF.FileFunction,Legend,Top*%
%TF.FilePolarity,Positive*%
%FSLAX46Y46*%
G04 Gerber Fmt 4.6, Leading zero omitted, Abs format (unit mm)*
G04 Created by KiCad (PCBNEW 9.0.0) date 2025-09-15 17:26:31*
%MOMM*%
%LPD*%
G01*
G04 APERTURE LIST*
%ADD10C,0.153000*%
%ADD11C,0.300000*%
%ADD12C,0.120000*%
%ADD13C,0.100000*%
G04 APERTURE END LIST*
D10*
X120802561Y-87137282D02*
X120707323Y-87089663D01*
X120707323Y-87089663D02*
X120564466Y-87089663D01*
X120564466Y-87089663D02*
X120421609Y-87137282D01*
X120421609Y-87137282D02*
X120326371Y-87232520D01*
X120326371Y-87232520D02*
X120278752Y-87327758D01*
X120278752Y-87327758D02*
X120231133Y-87518234D01*
X120231133Y-87518234D02*
X120231133Y-87661091D01*
X120231133Y-87661091D02*
X120278752Y-87851567D01*
X120278752Y-87851567D02*
X120326371Y-87946805D01*
X120326371Y-87946805D02*
X120421609Y-88042044D01*
X120421609Y-88042044D02*
X120564466Y-88089663D01*
X120564466Y-88089663D02*
X120659704Y-88089663D01*
X120659704Y-88089663D02*
X120802561Y-88042044D01*
X120802561Y-88042044D02*
X120850180Y-87994424D01*
X120850180Y-87994424D02*
X120850180Y-87661091D01*
X120850180Y-87661091D02*
X120659704Y-87661091D01*
X121278752Y-88089663D02*
X121278752Y-87089663D01*
X121278752Y-87089663D02*
X121850180Y-88089663D01*
X121850180Y-88089663D02*
X121850180Y-87089663D01*
X122326371Y-88089663D02*
X122326371Y-87089663D01*
X122326371Y-87089663D02*
X122564466Y-87089663D01*
X122564466Y-87089663D02*
X122707323Y-87137282D01*
X122707323Y-87137282D02*
X122802561Y-87232520D01*
X122802561Y-87232520D02*
X122850180Y-87327758D01*
X122850180Y-87327758D02*
X122897799Y-87518234D01*
X122897799Y-87518234D02*
X122897799Y-87661091D01*
X122897799Y-87661091D02*
X122850180Y-87851567D01*
X122850180Y-87851567D02*
X122802561Y-87946805D01*
X122802561Y-87946805D02*
X122707323Y-88042044D01*
X122707323Y-88042044D02*
X122564466Y-88089663D01*
X122564466Y-88089663D02*
X122326371Y-88089663D01*
X120358752Y-100315853D02*
X120692085Y-100315853D01*
X120834942Y-100839663D02*
X120358752Y-100839663D01*
X120358752Y-100839663D02*
X120358752Y-99839663D01*
X120358752Y-99839663D02*
X120834942Y-99839663D01*
X121263514Y-100839663D02*
X121263514Y-99839663D01*
X121263514Y-99839663D02*
X121834942Y-100839663D01*
X121834942Y-100839663D02*
X121834942Y-99839663D01*
X122073038Y-100934901D02*
X122834942Y-100934901D01*
X123073038Y-100839663D02*
X123073038Y-99839663D01*
X123549228Y-100839663D02*
X123549228Y-99839663D01*
X123549228Y-99839663D02*
X124120656Y-100839663D01*
X124120656Y-100839663D02*
X124120656Y-99839663D01*
X120175895Y-94839663D02*
X120747323Y-94839663D01*
X120461609Y-95839663D02*
X120461609Y-94839663D01*
X120985419Y-94839663D02*
X121652085Y-95839663D01*
X121652085Y-94839663D02*
X120985419Y-95839663D01*
X121794943Y-95934901D02*
X122556847Y-95934901D01*
X125271134Y-94839663D02*
X125461610Y-94839663D01*
X125461610Y-94839663D02*
X125556848Y-94887282D01*
X125556848Y-94887282D02*
X125652086Y-94982520D01*
X125652086Y-94982520D02*
X125699705Y-95172996D01*
X125699705Y-95172996D02*
X125699705Y-95506329D01*
X125699705Y-95506329D02*
X125652086Y-95696805D01*
X125652086Y-95696805D02*
X125556848Y-95792044D01*
X125556848Y-95792044D02*
X125461610Y-95839663D01*
X125461610Y-95839663D02*
X125271134Y-95839663D01*
X125271134Y-95839663D02*
X125175896Y-95792044D01*
X125175896Y-95792044D02*
X125080658Y-95696805D01*
X125080658Y-95696805D02*
X125033039Y-95506329D01*
X125033039Y-95506329D02*
X125033039Y-95172996D01*
X125033039Y-95172996D02*
X125080658Y-94982520D01*
X125080658Y-94982520D02*
X125175896Y-94887282D01*
X125175896Y-94887282D02*
X125271134Y-94839663D01*
X126128277Y-94839663D02*
X126128277Y-95649186D01*
X126128277Y-95649186D02*
X126175896Y-95744424D01*
X126175896Y-95744424D02*
X126223515Y-95792044D01*
X126223515Y-95792044D02*
X126318753Y-95839663D01*
X126318753Y-95839663D02*
X126509229Y-95839663D01*
X126509229Y-95839663D02*
X126604467Y-95792044D01*
X126604467Y-95792044D02*
X126652086Y-95744424D01*
X126652086Y-95744424D02*
X126699705Y-95649186D01*
X126699705Y-95649186D02*
X126699705Y-94839663D01*
X127033039Y-94839663D02*
X127604467Y-94839663D01*
X127318753Y-95839663D02*
X127318753Y-94839663D01*
D11*
X124274510Y-102260828D02*
X124274510Y-100760828D01*
X125845939Y-102117971D02*
X125774511Y-102189400D01*
X125774511Y-102189400D02*
X125560225Y-102260828D01*
X125560225Y-102260828D02*
X125417368Y-102260828D01*
X125417368Y-102260828D02*
X125203082Y-102189400D01*
X125203082Y-102189400D02*
X125060225Y-102046542D01*
X125060225Y-102046542D02*
X124988796Y-101903685D01*
X124988796Y-101903685D02*
X124917368Y-101617971D01*
X124917368Y-101617971D02*
X124917368Y-101403685D01*
X124917368Y-101403685D02*
X124988796Y-101117971D01*
X124988796Y-101117971D02*
X125060225Y-100975114D01*
X125060225Y-100975114D02*
X125203082Y-100832257D01*
X125203082Y-100832257D02*
X125417368Y-100760828D01*
X125417368Y-100760828D02*
X125560225Y-100760828D01*
X125560225Y-100760828D02*
X125774511Y-100832257D01*
X125774511Y-100832257D02*
X125845939Y-100903685D01*
X126417368Y-102189400D02*
X126631654Y-102260828D01*
X126631654Y-102260828D02*
X126988796Y-102260828D01*
X126988796Y-102260828D02*
X127131654Y-102189400D01*
X127131654Y-102189400D02*
X127203082Y-102117971D01*
X127203082Y-102117971D02*
X127274511Y-101975114D01*
X127274511Y-101975114D02*
X127274511Y-101832257D01*
X127274511Y-101832257D02*
X127203082Y-101689400D01*
X127203082Y-101689400D02*
X127131654Y-101617971D01*
X127131654Y-101617971D02*
X126988796Y-101546542D01*
X126988796Y-101546542D02*
X126703082Y-101475114D01*
X126703082Y-101475114D02*
X126560225Y-101403685D01*
X126560225Y-101403685D02*
X126488796Y-101332257D01*
X126488796Y-101332257D02*
X126417368Y-101189400D01*
X126417368Y-101189400D02*
X126417368Y-101046542D01*
X126417368Y-101046542D02*
X126488796Y-100903685D01*
X126488796Y-100903685D02*
X126560225Y-100832257D01*
X126560225Y-100832257D02*
X126703082Y-100760828D01*
X126703082Y-100760828D02*
X127060225Y-100760828D01*
X127060225Y-100760828D02*
X127274511Y-100832257D01*
D10*
X120348752Y-90159663D02*
X120348752Y-89159663D01*
X121396370Y-90064424D02*
X121348751Y-90112044D01*
X121348751Y-90112044D02*
X121205894Y-90159663D01*
X121205894Y-90159663D02*
X121110656Y-90159663D01*
X121110656Y-90159663D02*
X120967799Y-90112044D01*
X120967799Y-90112044D02*
X120872561Y-90016805D01*
X120872561Y-90016805D02*
X120824942Y-89921567D01*
X120824942Y-89921567D02*
X120777323Y-89731091D01*
X120777323Y-89731091D02*
X120777323Y-89588234D01*
X120777323Y-89588234D02*
X120824942Y-89397758D01*
X120824942Y-89397758D02*
X120872561Y-89302520D01*
X120872561Y-89302520D02*
X120967799Y-89207282D01*
X120967799Y-89207282D02*
X121110656Y-89159663D01*
X121110656Y-89159663D02*
X121205894Y-89159663D01*
X121205894Y-89159663D02*
X121348751Y-89207282D01*
X121348751Y-89207282D02*
X121396370Y-89254901D01*
X121777323Y-90112044D02*
X121920180Y-90159663D01*
X121920180Y-90159663D02*
X122158275Y-90159663D01*
X122158275Y-90159663D02*
X122253513Y-90112044D01*
X122253513Y-90112044D02*
X122301132Y-90064424D01*
X122301132Y-90064424D02*
X122348751Y-89969186D01*
X122348751Y-89969186D02*
X122348751Y-89873948D01*
X122348751Y-89873948D02*
X122301132Y-89778710D01*
X122301132Y-89778710D02*
X122253513Y-89731091D01*
X122253513Y-89731091D02*
X122158275Y-89683472D01*
X122158275Y-89683472D02*
X121967799Y-89635853D01*
X121967799Y-89635853D02*
X121872561Y-89588234D01*
X121872561Y-89588234D02*
X121824942Y-89540615D01*
X121824942Y-89540615D02*
X121777323Y-89445377D01*
X121777323Y-89445377D02*
X121777323Y-89350139D01*
X121777323Y-89350139D02*
X121824942Y-89254901D01*
X121824942Y-89254901D02*
X121872561Y-89207282D01*
X121872561Y-89207282D02*
X121967799Y-89159663D01*
X121967799Y-89159663D02*
X122205894Y-89159663D01*
X122205894Y-89159663D02*
X122348751Y-89207282D01*
X122539228Y-90254901D02*
X123301132Y-90254901D01*
X123491609Y-90112044D02*
X123634466Y-90159663D01*
X123634466Y-90159663D02*
X123872561Y-90159663D01*
X123872561Y-90159663D02*
X123967799Y-90112044D01*
X123967799Y-90112044D02*
X124015418Y-90064424D01*
X124015418Y-90064424D02*
X124063037Y-89969186D01*
X124063037Y-89969186D02*
X124063037Y-89873948D01*
X124063037Y-89873948D02*
X124015418Y-89778710D01*
X124015418Y-89778710D02*
X123967799Y-89731091D01*
X123967799Y-89731091D02*
X123872561Y-89683472D01*
X123872561Y-89683472D02*
X123682085Y-89635853D01*
X123682085Y-89635853D02*
X123586847Y-89588234D01*
X123586847Y-89588234D02*
X123539228Y-89540615D01*
X123539228Y-89540615D02*
X123491609Y-89445377D01*
X123491609Y-89445377D02*
X123491609Y-89350139D01*
X123491609Y-89350139D02*
X123539228Y-89254901D01*
X123539228Y-89254901D02*
X123586847Y-89207282D01*
X123586847Y-89207282D02*
X123682085Y-89159663D01*
X123682085Y-89159663D02*
X123920180Y-89159663D01*
X123920180Y-89159663D02*
X124063037Y-89207282D01*
X124491609Y-90159663D02*
X124491609Y-89159663D01*
X125491608Y-89207282D02*
X125396370Y-89159663D01*
X125396370Y-89159663D02*
X125253513Y-89159663D01*
X125253513Y-89159663D02*
X125110656Y-89207282D01*
X125110656Y-89207282D02*
X125015418Y-89302520D01*
X125015418Y-89302520D02*
X124967799Y-89397758D01*
X124967799Y-89397758D02*
X124920180Y-89588234D01*
X124920180Y-89588234D02*
X124920180Y-89731091D01*
X124920180Y-89731091D02*
X124967799Y-89921567D01*
X124967799Y-89921567D02*
X125015418Y-90016805D01*
X125015418Y-90016805D02*
X125110656Y-90112044D01*
X125110656Y-90112044D02*
X125253513Y-90159663D01*
X125253513Y-90159663D02*
X125348751Y-90159663D01*
X125348751Y-90159663D02*
X125491608Y-90112044D01*
X125491608Y-90112044D02*
X125539227Y-90064424D01*
X125539227Y-90064424D02*
X125539227Y-89731091D01*
X125539227Y-89731091D02*
X125348751Y-89731091D01*
X120910180Y-98429663D02*
X120576847Y-97953472D01*
X120338752Y-98429663D02*
X120338752Y-97429663D01*
X120338752Y-97429663D02*
X120719704Y-97429663D01*
X120719704Y-97429663D02*
X120814942Y-97477282D01*
X120814942Y-97477282D02*
X120862561Y-97524901D01*
X120862561Y-97524901D02*
X120910180Y-97620139D01*
X120910180Y-97620139D02*
X120910180Y-97762996D01*
X120910180Y-97762996D02*
X120862561Y-97858234D01*
X120862561Y-97858234D02*
X120814942Y-97905853D01*
X120814942Y-97905853D02*
X120719704Y-97953472D01*
X120719704Y-97953472D02*
X120338752Y-97953472D01*
X121243514Y-97429663D02*
X121910180Y-98429663D01*
X121910180Y-97429663D02*
X121243514Y-98429663D01*
X122053038Y-98524901D02*
X122814942Y-98524901D01*
X125338753Y-98429663D02*
X125338753Y-97429663D01*
X125814943Y-98429663D02*
X125814943Y-97429663D01*
X125814943Y-97429663D02*
X126386371Y-98429663D01*
X126386371Y-98429663D02*
X126386371Y-97429663D01*
X120684942Y-92179663D02*
X120208752Y-92179663D01*
X120208752Y-92179663D02*
X120161133Y-92655853D01*
X120161133Y-92655853D02*
X120208752Y-92608234D01*
X120208752Y-92608234D02*
X120303990Y-92560615D01*
X120303990Y-92560615D02*
X120542085Y-92560615D01*
X120542085Y-92560615D02*
X120637323Y-92608234D01*
X120637323Y-92608234D02*
X120684942Y-92655853D01*
X120684942Y-92655853D02*
X120732561Y-92751091D01*
X120732561Y-92751091D02*
X120732561Y-92989186D01*
X120732561Y-92989186D02*
X120684942Y-93084424D01*
X120684942Y-93084424D02*
X120637323Y-93132044D01*
X120637323Y-93132044D02*
X120542085Y-93179663D01*
X120542085Y-93179663D02*
X120303990Y-93179663D01*
X120303990Y-93179663D02*
X120208752Y-93132044D01*
X120208752Y-93132044D02*
X120161133Y-93084424D01*
X121018276Y-92179663D02*
X121351609Y-93179663D01*
X121351609Y-93179663D02*
X121684942Y-92179663D01*
D12*
%TO.C,R1*%
X123947064Y-90365000D02*
X123492936Y-90365000D01*
X123947064Y-91835000D02*
X123492936Y-91835000D01*
%TO.C,R2*%
X126320000Y-92636359D02*
X126320000Y-92943641D01*
X127080000Y-92636359D02*
X127080000Y-92943641D01*
%TO.C,U1*%
D13*
X125000000Y-85920000D02*
X123400000Y-85920000D01*
X123400000Y-88920000D01*
X125000000Y-88920000D01*
X125000000Y-85920000D01*
D12*
%TO.C,R3*%
X122283641Y-96380000D02*
X121976359Y-96380000D01*
X122283641Y-97140000D02*
X121976359Y-97140000D01*
%TO.C,U3*%
D13*
X124730000Y-99670000D02*
X122430000Y-99670000D01*
X122430000Y-97670000D01*
X124730000Y-97670000D01*
X124730000Y-99670000D01*
X124464132Y-99390000D02*
G75*
G02*
X124220000Y-99390000I-122066J0D01*
G01*
X124220000Y-99390000D02*
G75*
G02*
X124464132Y-99390000I122066J0D01*
G01*
%TO.C,U2*%
X122430000Y-93860000D02*
X124730000Y-93860000D01*
X124730000Y-95860000D01*
X122430000Y-95860000D01*
X122430000Y-93860000D01*
X122978411Y-94151589D02*
G75*
G02*
X122701589Y-94151589I-138411J0D01*
G01*
X122701589Y-94151589D02*
G75*
G02*
X122978411Y-94151589I138411J0D01*
G01*
%TD*%
M02*
