%TF.GenerationSoftware,KiCad,Pcbnew,9.0.0*%
%TF.CreationDate,2025-09-15T17:26:31+09:00*%
%TF.ProjectId,ICS,4943532e-6b69-4636-9164-5f7063625858,rev?*%
%TF.SameCoordinates,Original*%
%TF.FileFunction,Copper,L1,Top*%
%TF.FilePolarity,Positive*%
%FSLAX46Y46*%
G04 Gerber Fmt 4.6, Leading zero omitted, Abs format (unit mm)*
G04 Created by KiCad (PCBNEW 9.0.0) date 2025-09-15 17:26:31*
%MOMM*%
%LPD*%
G01*
G04 APERTURE LIST*
G04 Aperture macros list*
%AMRoundRect*
0 Rectangle with rounded corners*
0 $1 Rounding radius*
0 $2 $3 $4 $5 $6 $7 $8 $9 X,Y pos of 4 corners*
0 Add a 4 corners polygon primitive as box body*
4,1,4,$2,$3,$4,$5,$6,$7,$8,$9,$2,$3,0*
0 Add four circle primitives for the rounded corners*
1,1,$1+$1,$2,$3*
1,1,$1+$1,$4,$5*
1,1,$1+$1,$6,$7*
1,1,$1+$1,$8,$9*
0 Add four rect primitives between the rounded corners*
20,1,$1+$1,$2,$3,$4,$5,0*
20,1,$1+$1,$4,$5,$6,$7,0*
20,1,$1+$1,$6,$7,$8,$9,0*
20,1,$1+$1,$8,$9,$2,$3,0*%
G04 Aperture macros list end*
%TA.AperFunction,SMDPad,CuDef*%
%ADD10RoundRect,0.250000X0.262500X0.450000X-0.262500X0.450000X-0.262500X-0.450000X0.262500X-0.450000X0*%
%TD*%
%TA.AperFunction,SMDPad,CuDef*%
%ADD11RoundRect,0.135000X-0.185000X0.135000X-0.185000X-0.135000X0.185000X-0.135000X0.185000X0.135000X0*%
%TD*%
%TA.AperFunction,SMDPad,CuDef*%
%ADD12RoundRect,0.057000X-0.243000X0.133000X-0.243000X-0.133000X0.243000X-0.133000X0.243000X0.133000X0*%
%TD*%
%TA.AperFunction,ComponentPad*%
%ADD13R,1.700000X1.700000*%
%TD*%
%TA.AperFunction,ComponentPad*%
%ADD14C,1.700000*%
%TD*%
%TA.AperFunction,SMDPad,CuDef*%
%ADD15RoundRect,0.135000X0.135000X0.185000X-0.135000X0.185000X-0.135000X-0.185000X0.135000X-0.185000X0*%
%TD*%
%TA.AperFunction,SMDPad,CuDef*%
%ADD16RoundRect,0.030000X0.170000X0.070000X-0.170000X0.070000X-0.170000X-0.070000X0.170000X-0.070000X0*%
%TD*%
%TA.AperFunction,SMDPad,CuDef*%
%ADD17RoundRect,0.030000X-0.170000X-0.070000X0.170000X-0.070000X0.170000X0.070000X-0.170000X0.070000X0*%
%TD*%
%TA.AperFunction,ViaPad*%
%ADD18C,0.350000*%
%TD*%
%TA.AperFunction,Conductor*%
%ADD19C,0.200000*%
%TD*%
%TA.AperFunction,Conductor*%
%ADD20C,0.380000*%
%TD*%
G04 APERTURE END LIST*
D10*
%TO.P,R1,1*%
%TO.N,+5V*%
X124632500Y-91100000D03*
%TO.P,R1,2*%
%TO.N,Net-(J2-Pin_2)*%
X122807500Y-91100000D03*
%TD*%
D11*
%TO.P,R2,1*%
%TO.N,+5V*%
X126700000Y-92280000D03*
%TO.P,R2,2*%
%TO.N,Net-(U2-A2)*%
X126700000Y-93300000D03*
%TD*%
D12*
%TO.P,U1,1,NoConnectin*%
%TO.N,unconnected-(U1-NoConnectin-Pad1)*%
X125300000Y-88370000D03*
%TO.P,U1,2,A*%
%TO.N,Net-(J2-Pin_6)*%
X125300000Y-87420000D03*
%TO.P,U1,3,GND*%
%TO.N,GND*%
X125300000Y-86470000D03*
%TO.P,U1,4,Y*%
%TO.N,Net-(U1-Y)*%
X123100000Y-86470000D03*
%TO.P,U1,5,Vcc*%
%TO.N,+5V*%
X123100000Y-88370000D03*
%TD*%
D13*
%TO.P,J2,1,Pin_1*%
%TO.N,GND*%
X118680000Y-87590000D03*
D14*
%TO.P,J2,2,Pin_2*%
%TO.N,Net-(J2-Pin_2)*%
X118680000Y-90130000D03*
%TO.P,J2,3,Pin_3*%
%TO.N,+5V*%
X118680000Y-92670000D03*
%TO.P,J2,4,Pin_4*%
%TO.N,Net-(J2-Pin_4)*%
X118680000Y-95210000D03*
%TO.P,J2,5,Pin_5*%
%TO.N,Net-(J2-Pin_5)*%
X118680000Y-97750000D03*
%TO.P,J2,6,Pin_6*%
%TO.N,Net-(J2-Pin_6)*%
X118680000Y-100290000D03*
%TD*%
D15*
%TO.P,R3,1*%
%TO.N,Net-(U3-A2)*%
X122640000Y-96760000D03*
%TO.P,R3,2*%
%TO.N,+5V*%
X121620000Y-96760000D03*
%TD*%
D16*
%TO.P,U3,1,G'*%
%TO.N,Net-(J2-Pin_6)*%
X124930000Y-99420000D03*
%TO.P,U3,2,A1*%
%TO.N,Net-(J2-Pin_2)*%
X124930000Y-98920000D03*
%TO.P,U3,3,Y2*%
%TO.N,unconnected-(U3-Y2-Pad3)*%
X124930000Y-98420000D03*
%TO.P,U3,4,GND*%
%TO.N,GND*%
X124930000Y-97920000D03*
%TO.P,U3,5,A2*%
%TO.N,Net-(U3-A2)*%
X122230000Y-97920000D03*
%TO.P,U3,6,Y1*%
%TO.N,Net-(J2-Pin_4)*%
X122230000Y-98420000D03*
%TO.P,U3,7,G*%
%TO.N,Net-(U3-A2)*%
X122230000Y-98920000D03*
%TO.P,U3,8,Vcc*%
%TO.N,+5V*%
X122230000Y-99420000D03*
%TD*%
D17*
%TO.P,U2,1,G'*%
%TO.N,Net-(U1-Y)*%
X122230000Y-94110000D03*
%TO.P,U2,2,A1*%
%TO.N,Net-(J2-Pin_5)*%
X122230000Y-94610000D03*
%TO.P,U2,3,Y2*%
%TO.N,unconnected-(U2-Y2-Pad3)*%
X122230000Y-95110000D03*
%TO.P,U2,4,GND*%
%TO.N,GND*%
X122230000Y-95610000D03*
%TO.P,U2,5,A2*%
%TO.N,Net-(U2-A2)*%
X124930000Y-95610000D03*
%TO.P,U2,6,Y1*%
%TO.N,Net-(J2-Pin_2)*%
X124930000Y-95110000D03*
%TO.P,U2,7,G*%
%TO.N,Net-(U2-A2)*%
X124930000Y-94610000D03*
%TO.P,U2,8,Vcc*%
%TO.N,+5V*%
X124930000Y-94110000D03*
%TD*%
D18*
%TO.N,+5V*%
X120580000Y-89260000D03*
X120605876Y-95920000D03*
%TO.N,Net-(U1-Y)*%
X121740000Y-92700000D03*
X122200000Y-87050000D03*
%TO.N,Net-(J2-Pin_2)*%
X122807500Y-92830000D03*
X124005876Y-94805876D03*
%TO.N,Net-(J2-Pin_4)*%
X121700000Y-98420000D03*
%TO.N,GND*%
X122000000Y-102500000D03*
X124670000Y-97190000D03*
X126710000Y-95400000D03*
X126290000Y-86670000D03*
X124460000Y-88050000D03*
X124180000Y-93630000D03*
X126220000Y-88350000D03*
X126770000Y-90370000D03*
X123130000Y-99570000D03*
X117950000Y-93940000D03*
X125190000Y-92360000D03*
X124810000Y-100140000D03*
X123930000Y-89640000D03*
X122880000Y-87560000D03*
X127590000Y-85420000D03*
X125730000Y-96270000D03*
X117910000Y-96500000D03*
X116470000Y-102460000D03*
X117920000Y-99020000D03*
X121240000Y-89910000D03*
X127920000Y-98710000D03*
X123670000Y-92150000D03*
X127860000Y-88060000D03*
X121240000Y-95100000D03*
X127900000Y-102480000D03*
X117970000Y-91410000D03*
X126280000Y-98420000D03*
X125530000Y-89190000D03*
%TD*%
D19*
%TO.N,+5V*%
X122230000Y-99420000D02*
X121580000Y-99420000D01*
X121580000Y-99420000D02*
X120770000Y-98610000D01*
X126300000Y-92280000D02*
X126700000Y-92280000D01*
X124930000Y-94110000D02*
X125210000Y-94110000D01*
X121470000Y-88370000D02*
X123100000Y-88370000D01*
X120580000Y-89260000D02*
X121470000Y-88370000D01*
X120770000Y-98610000D02*
X120770000Y-97070000D01*
X123760000Y-88370000D02*
X124632500Y-89242500D01*
X120770000Y-97070000D02*
X120790000Y-97070000D01*
X125210000Y-94110000D02*
X125370000Y-93950000D01*
X121100000Y-96760000D02*
X121620000Y-96760000D01*
X120605876Y-96265876D02*
X121100000Y-96760000D01*
X125370000Y-93210000D02*
X126300000Y-92280000D01*
X125370000Y-93950000D02*
X125370000Y-93210000D01*
X124632500Y-89242500D02*
X126700000Y-91310000D01*
X126700000Y-91310000D02*
X126700000Y-92280000D01*
X120790000Y-97070000D02*
X121100000Y-96760000D01*
X120605876Y-95920000D02*
X120605876Y-96265876D01*
X124632500Y-89242500D02*
X124632500Y-91100000D01*
X123100000Y-88370000D02*
X123760000Y-88370000D01*
%TO.N,Net-(U2-A2)*%
X126700000Y-94430000D02*
X126700000Y-93870000D01*
X125960000Y-94610000D02*
X126700000Y-93870000D01*
X124930000Y-95610000D02*
X125520000Y-95610000D01*
X124930000Y-94610000D02*
X125960000Y-94610000D01*
X125520000Y-95610000D02*
X126700000Y-94430000D01*
X126700000Y-93870000D02*
X126700000Y-93300000D01*
%TO.N,Net-(U3-A2)*%
X122600000Y-98920000D02*
X122230000Y-98920000D01*
X122640000Y-97170000D02*
X122640000Y-96760000D01*
X122820000Y-98230000D02*
X122820000Y-97350000D01*
X122510000Y-97920000D02*
X122820000Y-98230000D01*
X122820000Y-97350000D02*
X122640000Y-97170000D01*
X122230000Y-97920000D02*
X122510000Y-97920000D01*
X122820000Y-98700000D02*
X122600000Y-98920000D01*
X122820000Y-98230000D02*
X122820000Y-98700000D01*
%TO.N,Net-(U1-Y)*%
X122780000Y-86470000D02*
X122200000Y-87050000D01*
X121950000Y-94110000D02*
X121740000Y-93900000D01*
X121740000Y-93900000D02*
X121740000Y-92700000D01*
X123100000Y-86470000D02*
X122780000Y-86470000D01*
X122230000Y-94110000D02*
X121950000Y-94110000D01*
%TO.N,Net-(J2-Pin_2)*%
X125570000Y-97090000D02*
X124320000Y-95840000D01*
X122807500Y-92830000D02*
X122807500Y-91100000D01*
X124930000Y-95110000D02*
X124310000Y-95110000D01*
D20*
X118680000Y-90130000D02*
X119650000Y-91100000D01*
D19*
X125570000Y-98690000D02*
X125570000Y-97090000D01*
D20*
X119650000Y-91100000D02*
X122807500Y-91100000D01*
D19*
X124310000Y-95110000D02*
X124005876Y-94805876D01*
X124310000Y-95830000D02*
X124320000Y-95840000D01*
X125340000Y-98920000D02*
X125570000Y-98690000D01*
X124310000Y-95110000D02*
X124310000Y-95830000D01*
X124930000Y-98920000D02*
X125340000Y-98920000D01*
%TO.N,Net-(J2-Pin_6)*%
X127450000Y-98250000D02*
X127450000Y-88580000D01*
X124490000Y-99420000D02*
X124930000Y-99420000D01*
X127450000Y-88580000D02*
X126290000Y-87420000D01*
X124930000Y-99420000D02*
X126280000Y-99420000D01*
X126290000Y-87420000D02*
X125300000Y-87420000D01*
X126280000Y-99420000D02*
X127450000Y-98250000D01*
X118680000Y-100290000D02*
X123620000Y-100290000D01*
X123620000Y-100290000D02*
X124490000Y-99420000D01*
%TO.N,Net-(J2-Pin_4)*%
X121700000Y-98420000D02*
X122230000Y-98420000D01*
%TO.N,Net-(J2-Pin_5)*%
X118680000Y-97750000D02*
X118680000Y-96910000D01*
X120980000Y-94610000D02*
X122230000Y-94610000D01*
X118680000Y-96910000D02*
X120980000Y-94610000D01*
%TO.N,GND*%
X121240000Y-95160000D02*
X121690000Y-95610000D01*
X122230000Y-95610000D02*
X122760000Y-95610000D01*
X124040000Y-85640000D02*
X124870000Y-86470000D01*
X121690000Y-95610000D02*
X122230000Y-95610000D01*
X124610000Y-97920000D02*
X124930000Y-97920000D01*
X123810000Y-97120000D02*
X124610000Y-97920000D01*
X121240000Y-95100000D02*
X121240000Y-95160000D01*
X123810000Y-96660000D02*
X123810000Y-97120000D01*
X122760000Y-95610000D02*
X123810000Y-96660000D01*
X120630000Y-85640000D02*
X124040000Y-85640000D01*
X118680000Y-87590000D02*
X120630000Y-85640000D01*
X124870000Y-86470000D02*
X125300000Y-86470000D01*
%TD*%
%TA.AperFunction,Conductor*%
%TO.N,Net-(J2-Pin_6)*%
G36*
X120363667Y-100390000D02*
G01*
X120363667Y-100190000D01*
X119152235Y-99583251D01*
X118679000Y-100290000D01*
X119152235Y-100996749D01*
X120363667Y-100390000D01*
G37*
%TD.AperFunction*%
%TD*%
%TA.AperFunction,Conductor*%
%TO.N,Net-(U1-Y)*%
G36*
X121640000Y-93046637D02*
G01*
X121840000Y-93046637D01*
X121911637Y-92734141D01*
X121740000Y-92699000D01*
X121568363Y-92734141D01*
X121640000Y-93046637D01*
G37*
%TD.AperFunction*%
%TD*%
%TA.AperFunction,Conductor*%
%TO.N,+5V*%
G36*
X126800000Y-91740000D02*
G01*
X126600000Y-91740000D01*
X126430000Y-92042552D01*
X126700000Y-92281000D01*
X126970000Y-92042552D01*
X126800000Y-91740000D01*
G37*
%TD.AperFunction*%
%TD*%
%TA.AperFunction,Conductor*%
%TO.N,+5V*%
G36*
X120535704Y-96337124D02*
G01*
X120677124Y-96195704D01*
X120751383Y-96017225D01*
X120605169Y-95919293D01*
X120434239Y-95954141D01*
X120535704Y-96337124D01*
G37*
%TD.AperFunction*%
%TD*%
%TA.AperFunction,Conductor*%
%TO.N,Net-(U1-Y)*%
G36*
X122515820Y-86875601D02*
G01*
X122374399Y-86734180D01*
X122102775Y-86904493D01*
X122199293Y-87050707D01*
X122345507Y-87147225D01*
X122515820Y-86875601D01*
G37*
%TD.AperFunction*%
%TD*%
%TA.AperFunction,Conductor*%
%TO.N,Net-(U3-A2)*%
G36*
X122696568Y-97367989D02*
G01*
X122837989Y-97226568D01*
X122899724Y-96996662D01*
X122639293Y-96759293D01*
X122432258Y-97055638D01*
X122696568Y-97367989D01*
G37*
%TD.AperFunction*%
%TD*%
%TA.AperFunction,Conductor*%
%TO.N,Net-(U2-A2)*%
G36*
X126600000Y-93840000D02*
G01*
X126800000Y-93840000D01*
X126970000Y-93537447D01*
X126700000Y-93299000D01*
X126430000Y-93537447D01*
X126600000Y-93840000D01*
G37*
%TD.AperFunction*%
%TD*%
%TA.AperFunction,Conductor*%
%TO.N,Net-(J2-Pin_4)*%
G36*
X122046637Y-98520000D02*
G01*
X122046637Y-98320000D01*
X121734141Y-98248363D01*
X121699000Y-98420000D01*
X121734141Y-98591637D01*
X122046637Y-98520000D01*
G37*
%TD.AperFunction*%
%TD*%
%TA.AperFunction,Conductor*%
%TO.N,Net-(U1-Y)*%
G36*
X122589082Y-86519497D02*
G01*
X122730503Y-86660918D01*
X123123711Y-86660000D01*
X123100707Y-86469293D01*
X122800000Y-86354742D01*
X122589082Y-86519497D01*
G37*
%TD.AperFunction*%
%TD*%
%TA.AperFunction,Conductor*%
%TO.N,+5V*%
G36*
X123590000Y-88470000D02*
G01*
X123590000Y-88270000D01*
X123364813Y-88184339D01*
X123099000Y-88370000D01*
X123364813Y-88555661D01*
X123590000Y-88470000D01*
G37*
%TD.AperFunction*%
%TD*%
%TA.AperFunction,Conductor*%
%TO.N,Net-(J2-Pin_2)*%
G36*
X119961880Y-91290000D02*
G01*
X119961880Y-90910000D01*
X119386749Y-89657765D01*
X118679000Y-90130000D01*
X118514173Y-90963667D01*
X119961880Y-91290000D01*
G37*
%TD.AperFunction*%
%TD*%
%TA.AperFunction,Conductor*%
%TO.N,Net-(J2-Pin_2)*%
G36*
X122707500Y-92312500D02*
G01*
X122907500Y-92312500D01*
X123300970Y-91645671D01*
X122807500Y-91099000D01*
X122314030Y-91645671D01*
X122707500Y-92312500D01*
G37*
%TD.AperFunction*%
%TD*%
%TA.AperFunction,Conductor*%
%TO.N,+5V*%
G36*
X122610000Y-88270000D02*
G01*
X122610000Y-88470000D01*
X122835187Y-88555661D01*
X123101000Y-88370000D01*
X122835187Y-88184339D01*
X122610000Y-88270000D01*
G37*
%TD.AperFunction*%
%TD*%
%TA.AperFunction,Conductor*%
%TO.N,+5V*%
G36*
X121156568Y-96675148D02*
G01*
X121015148Y-96816568D01*
X121378602Y-97024089D01*
X121620707Y-96760707D01*
X121386494Y-96484100D01*
X121156568Y-96675148D01*
G37*
%TD.AperFunction*%
%TD*%
%TA.AperFunction,Conductor*%
%TO.N,Net-(J2-Pin_6)*%
G36*
X125790000Y-87520000D02*
G01*
X125790000Y-87320000D01*
X125564813Y-87234339D01*
X125299000Y-87420000D01*
X125564813Y-87605661D01*
X125790000Y-87520000D01*
G37*
%TD.AperFunction*%
%TD*%
%TA.AperFunction,Conductor*%
%TO.N,+5V*%
G36*
X120895820Y-89085601D02*
G01*
X120754399Y-88944180D01*
X120482775Y-89114493D01*
X120579293Y-89260707D01*
X120725507Y-89357225D01*
X120895820Y-89085601D01*
G37*
%TD.AperFunction*%
%TD*%
%TA.AperFunction,Conductor*%
%TO.N,+5V*%
G36*
X124732500Y-89887500D02*
G01*
X124532500Y-89887500D01*
X124139030Y-90554329D01*
X124632500Y-91101000D01*
X125125970Y-90554329D01*
X124732500Y-89887500D01*
G37*
%TD.AperFunction*%
%TD*%
%TA.AperFunction,Conductor*%
%TO.N,GND*%
G36*
X121381972Y-95443393D02*
G01*
X121523393Y-95301972D01*
X121385507Y-95002775D01*
X121239293Y-95099293D01*
X121142775Y-95245507D01*
X121381972Y-95443393D01*
G37*
%TD.AperFunction*%
%TD*%
%TA.AperFunction,Conductor*%
%TO.N,+5V*%
G36*
X126094940Y-92343639D02*
G01*
X126236361Y-92485060D01*
X126463338Y-92539724D01*
X126700707Y-92279293D01*
X126401653Y-92076310D01*
X126094940Y-92343639D01*
G37*
%TD.AperFunction*%
%TD*%
%TA.AperFunction,Conductor*%
%TO.N,Net-(J2-Pin_2)*%
G36*
X124180275Y-95121696D02*
G01*
X124321696Y-94980275D01*
X124151383Y-94708651D01*
X124005169Y-94805169D01*
X123908651Y-94951383D01*
X124180275Y-95121696D01*
G37*
%TD.AperFunction*%
%TD*%
%TA.AperFunction,Conductor*%
%TO.N,Net-(J2-Pin_2)*%
G36*
X122907500Y-92483363D02*
G01*
X122707500Y-92483363D01*
X122635863Y-92795859D01*
X122807500Y-92831000D01*
X122979137Y-92795859D01*
X122907500Y-92483363D01*
G37*
%TD.AperFunction*%
%TD*%
%TA.AperFunction,Conductor*%
%TO.N,Net-(J2-Pin_2)*%
G36*
X121782500Y-90910000D02*
G01*
X121782500Y-91290000D01*
X122307432Y-91612500D01*
X122808500Y-91100000D01*
X122307432Y-90587500D01*
X121782500Y-90910000D01*
G37*
%TD.AperFunction*%
%TD*%
%TA.AperFunction,Conductor*%
%TO.N,GND*%
G36*
X128062539Y-85030185D02*
G01*
X128108294Y-85082989D01*
X128119500Y-85134500D01*
X128119500Y-88100902D01*
X128099815Y-88167941D01*
X128047011Y-88213696D01*
X127977853Y-88223640D01*
X127914297Y-88194615D01*
X127907819Y-88188583D01*
X126777590Y-87058355D01*
X126777588Y-87058352D01*
X126658717Y-86939481D01*
X126658716Y-86939480D01*
X126553623Y-86878805D01*
X126553622Y-86878804D01*
X126521783Y-86860422D01*
X126465881Y-86845443D01*
X126369057Y-86819499D01*
X126219020Y-86819499D01*
X126151981Y-86799814D01*
X126106226Y-86747010D01*
X126095904Y-86680716D01*
X126099999Y-86646603D01*
X126099999Y-86293397D01*
X126089251Y-86203884D01*
X126033078Y-86061439D01*
X126009005Y-86029694D01*
X126009004Y-86029693D01*
X125434352Y-86604346D01*
X125434350Y-86604350D01*
X125345517Y-86693182D01*
X125284193Y-86726666D01*
X125257836Y-86729500D01*
X125071162Y-86729500D01*
X125004123Y-86709815D01*
X124958368Y-86657011D01*
X124948424Y-86587853D01*
X124977449Y-86524297D01*
X124983481Y-86517818D01*
X125031299Y-86469999D01*
X124590994Y-86029694D01*
X124590993Y-86029694D01*
X124566920Y-86061441D01*
X124510748Y-86203883D01*
X124500000Y-86293397D01*
X124500000Y-86646602D01*
X124510748Y-86736115D01*
X124566921Y-86878560D01*
X124569817Y-86883710D01*
X124585516Y-86951793D01*
X124569820Y-87005255D01*
X124566483Y-87011189D01*
X124510258Y-87153764D01*
X124507399Y-87177578D01*
X124499500Y-87243357D01*
X124499500Y-87243362D01*
X124499500Y-87243363D01*
X124499500Y-87596636D01*
X124510258Y-87686235D01*
X124566481Y-87828806D01*
X124569529Y-87834226D01*
X124570225Y-87837244D01*
X124572336Y-87839513D01*
X124578023Y-87871066D01*
X124585227Y-87902309D01*
X124584345Y-87906143D01*
X124584730Y-87908275D01*
X124581627Y-87917969D01*
X124575996Y-87942471D01*
X124570352Y-87956089D01*
X124566481Y-87961195D01*
X124531948Y-88048761D01*
X124531507Y-88049828D01*
X124510230Y-88076222D01*
X124489402Y-88102992D01*
X124488354Y-88103360D01*
X124487658Y-88104225D01*
X124455460Y-88114935D01*
X124423494Y-88126184D01*
X124422414Y-88125928D01*
X124421360Y-88126279D01*
X124388475Y-88117880D01*
X124355509Y-88110063D01*
X124354322Y-88109157D01*
X124353663Y-88108989D01*
X124352586Y-88107832D01*
X124329273Y-88090038D01*
X124247590Y-88008355D01*
X124247588Y-88008352D01*
X124128717Y-87889481D01*
X124128716Y-87889480D01*
X124023623Y-87828805D01*
X124023622Y-87828804D01*
X123991783Y-87810422D01*
X123935881Y-87795443D01*
X123839057Y-87769499D01*
X123839054Y-87769499D01*
X123718829Y-87769499D01*
X123714245Y-87768705D01*
X123711709Y-87769294D01*
X123686254Y-87763856D01*
X123677120Y-87762274D01*
X123675922Y-87761846D01*
X123550320Y-87714067D01*
X123505064Y-87699251D01*
X123502955Y-87698669D01*
X123495455Y-87697389D01*
X123485301Y-87693762D01*
X123484680Y-87693310D01*
X123481529Y-87692345D01*
X123476239Y-87690259D01*
X123453838Y-87687569D01*
X123386643Y-87679500D01*
X123386637Y-87679500D01*
X122823642Y-87679500D01*
X122813761Y-87676598D01*
X122803542Y-87677860D01*
X122780806Y-87666922D01*
X122756603Y-87659815D01*
X122749860Y-87652033D01*
X122740580Y-87647569D01*
X122727366Y-87626074D01*
X122710848Y-87607011D01*
X122709382Y-87596819D01*
X122703990Y-87588047D01*
X122704494Y-87562825D01*
X122700904Y-87537853D01*
X122705219Y-87526628D01*
X122705388Y-87518191D01*
X122715952Y-87498706D01*
X122720689Y-87486387D01*
X122724314Y-87480986D01*
X122724695Y-87480606D01*
X122751095Y-87441093D01*
X122751145Y-87441052D01*
X122759433Y-87430056D01*
X122780143Y-87405612D01*
X122894068Y-87223917D01*
X122899991Y-87218667D01*
X122903067Y-87211374D01*
X122925765Y-87195826D01*
X122946357Y-87177578D01*
X122955646Y-87175359D01*
X122960710Y-87171891D01*
X122989355Y-87167307D01*
X122995483Y-87165844D01*
X122997110Y-87165796D01*
X123111725Y-87165529D01*
X123141391Y-87164588D01*
X123142765Y-87164504D01*
X123168557Y-87160760D01*
X123175670Y-87160552D01*
X123176297Y-87160716D01*
X123179310Y-87160499D01*
X123386637Y-87160499D01*
X123386642Y-87160499D01*
X123476237Y-87149741D01*
X123618805Y-87093519D01*
X123740918Y-87000918D01*
X123833519Y-86878805D01*
X123889741Y-86736237D01*
X123900500Y-86646643D01*
X123900499Y-86293358D01*
X123889741Y-86203763D01*
X123833519Y-86061195D01*
X123833518Y-86061194D01*
X123833518Y-86061193D01*
X123740918Y-85939081D01*
X123618806Y-85846481D01*
X123502171Y-85800486D01*
X124899186Y-85800486D01*
X124899186Y-85800487D01*
X125300000Y-86201300D01*
X125300001Y-86201300D01*
X125700811Y-85800487D01*
X125700811Y-85800486D01*
X125676117Y-85790749D01*
X125586602Y-85780000D01*
X125013397Y-85780000D01*
X124923880Y-85790749D01*
X124923879Y-85790749D01*
X124899186Y-85800486D01*
X123502171Y-85800486D01*
X123476235Y-85790258D01*
X123433696Y-85785150D01*
X123386643Y-85779500D01*
X123386636Y-85779500D01*
X122813363Y-85779500D01*
X122723764Y-85790258D01*
X122581193Y-85846481D01*
X122459083Y-85939081D01*
X122459080Y-85939083D01*
X122443448Y-85959698D01*
X122430971Y-85973787D01*
X122419946Y-85984478D01*
X122411284Y-85989480D01*
X122299480Y-86101284D01*
X122299478Y-86101286D01*
X122298815Y-86101948D01*
X122298782Y-86101981D01*
X122289086Y-86111677D01*
X122280733Y-86119301D01*
X122264297Y-86132979D01*
X122263242Y-86133914D01*
X122263237Y-86133919D01*
X122200418Y-86199737D01*
X122196268Y-86204495D01*
X122086282Y-86314481D01*
X122064474Y-86331856D01*
X121844341Y-86469883D01*
X121837554Y-86474215D01*
X121837355Y-86474344D01*
X121790697Y-86508599D01*
X121786731Y-86512172D01*
X121772642Y-86523134D01*
X121769397Y-86525302D01*
X121769386Y-86525311D01*
X121675307Y-86619390D01*
X121675301Y-86619398D01*
X121601386Y-86730020D01*
X121601376Y-86730038D01*
X121550461Y-86852959D01*
X121550458Y-86852969D01*
X121524500Y-86983466D01*
X121524500Y-86983469D01*
X121524500Y-87116531D01*
X121524500Y-87116533D01*
X121524499Y-87116533D01*
X121550458Y-87247030D01*
X121550460Y-87247036D01*
X121601376Y-87369961D01*
X121601386Y-87369979D01*
X121675301Y-87480601D01*
X121675307Y-87480609D01*
X121752517Y-87557819D01*
X121786002Y-87619142D01*
X121781018Y-87688834D01*
X121739146Y-87744767D01*
X121673682Y-87769184D01*
X121664836Y-87769500D01*
X121390943Y-87769500D01*
X121238213Y-87810423D01*
X121206377Y-87828805D01*
X121206376Y-87828805D01*
X121101287Y-87889477D01*
X121101282Y-87889481D01*
X120989478Y-88001286D01*
X120395865Y-88594898D01*
X120393870Y-88596345D01*
X120393207Y-88597478D01*
X120384937Y-88602826D01*
X120364334Y-88617776D01*
X120360060Y-88619946D01*
X120260031Y-88661380D01*
X120201585Y-88700431D01*
X120194993Y-88703780D01*
X120167619Y-88708883D01*
X120141055Y-88717201D01*
X120133752Y-88715197D01*
X120126307Y-88716586D01*
X120100524Y-88706081D01*
X120073675Y-88698716D01*
X120068613Y-88693080D01*
X120061601Y-88690224D01*
X120045591Y-88667450D01*
X120026986Y-88646737D01*
X120025774Y-88639260D01*
X120021419Y-88633065D01*
X120020262Y-88605246D01*
X120015810Y-88577766D01*
X120018642Y-88566242D01*
X120018518Y-88563256D01*
X120019996Y-88560730D01*
X120022662Y-88549885D01*
X120023597Y-88547377D01*
X120023598Y-88547372D01*
X120029999Y-88487844D01*
X120030000Y-88487827D01*
X120030000Y-87840000D01*
X119113012Y-87840000D01*
X119145925Y-87782993D01*
X119180000Y-87655826D01*
X119180000Y-87524174D01*
X119145925Y-87397007D01*
X119113012Y-87340000D01*
X120030000Y-87340000D01*
X120030000Y-86692172D01*
X120029999Y-86692155D01*
X120023598Y-86632627D01*
X120023596Y-86632620D01*
X119973354Y-86497913D01*
X119973350Y-86497906D01*
X119887190Y-86382812D01*
X119887187Y-86382809D01*
X119772093Y-86296649D01*
X119772086Y-86296645D01*
X119637379Y-86246403D01*
X119637372Y-86246401D01*
X119577844Y-86240000D01*
X118930000Y-86240000D01*
X118930000Y-87156988D01*
X118872993Y-87124075D01*
X118745826Y-87090000D01*
X118614174Y-87090000D01*
X118487007Y-87124075D01*
X118430000Y-87156988D01*
X118430000Y-86240000D01*
X117782155Y-86240000D01*
X117722627Y-86246401D01*
X117722620Y-86246403D01*
X117587913Y-86296645D01*
X117587906Y-86296649D01*
X117472812Y-86382809D01*
X117472809Y-86382812D01*
X117386649Y-86497906D01*
X117386645Y-86497913D01*
X117336403Y-86632620D01*
X117336401Y-86632627D01*
X117330000Y-86692155D01*
X117330000Y-87340000D01*
X118246988Y-87340000D01*
X118214075Y-87397007D01*
X118180000Y-87524174D01*
X118180000Y-87655826D01*
X118214075Y-87782993D01*
X118246988Y-87840000D01*
X117330000Y-87840000D01*
X117330000Y-88487844D01*
X117336401Y-88547372D01*
X117336403Y-88547379D01*
X117386645Y-88682086D01*
X117386649Y-88682093D01*
X117472809Y-88797187D01*
X117472812Y-88797190D01*
X117587906Y-88883350D01*
X117587913Y-88883354D01*
X117719470Y-88932422D01*
X117775404Y-88974293D01*
X117799821Y-89039758D01*
X117784969Y-89108031D01*
X117763819Y-89136285D01*
X117649889Y-89250215D01*
X117524951Y-89422179D01*
X117428444Y-89611585D01*
X117362753Y-89813760D01*
X117329500Y-90023713D01*
X117329500Y-90236286D01*
X117362753Y-90446239D01*
X117428444Y-90648414D01*
X117524951Y-90837820D01*
X117649890Y-91009786D01*
X117800213Y-91160109D01*
X117972182Y-91285050D01*
X117980946Y-91289516D01*
X118031742Y-91337491D01*
X118048536Y-91405312D01*
X118025998Y-91471447D01*
X117980946Y-91510484D01*
X117972182Y-91514949D01*
X117800213Y-91639890D01*
X117649890Y-91790213D01*
X117524951Y-91962179D01*
X117428444Y-92151585D01*
X117362753Y-92353760D01*
X117346634Y-92455531D01*
X117329500Y-92563713D01*
X117329500Y-92776287D01*
X117362754Y-92986243D01*
X117415955Y-93149979D01*
X117428444Y-93188414D01*
X117524951Y-93377820D01*
X117649890Y-93549786D01*
X117800213Y-93700109D01*
X117972182Y-93825050D01*
X117980946Y-93829516D01*
X118031742Y-93877491D01*
X118048536Y-93945312D01*
X118025998Y-94011447D01*
X117980946Y-94050484D01*
X117972182Y-94054949D01*
X117800213Y-94179890D01*
X117649890Y-94330213D01*
X117524951Y-94502179D01*
X117428444Y-94691585D01*
X117362753Y-94893760D01*
X117360895Y-94905493D01*
X117329500Y-95103713D01*
X117329500Y-95316287D01*
X117336542Y-95360746D01*
X117362753Y-95526239D01*
X117428444Y-95728414D01*
X117524951Y-95917820D01*
X117649890Y-96089786D01*
X117800213Y-96240109D01*
X117972182Y-96365050D01*
X117980946Y-96369516D01*
X118031742Y-96417491D01*
X118048536Y-96485312D01*
X118025998Y-96551447D01*
X117980946Y-96590484D01*
X117972182Y-96594949D01*
X117800213Y-96719890D01*
X117649890Y-96870213D01*
X117524951Y-97042179D01*
X117428444Y-97231585D01*
X117428443Y-97231587D01*
X117428443Y-97231588D01*
X117397925Y-97325513D01*
X117362753Y-97433760D01*
X117349094Y-97520000D01*
X117329500Y-97643713D01*
X117329500Y-97856287D01*
X117362754Y-98066243D01*
X117413757Y-98223214D01*
X117428444Y-98268414D01*
X117524951Y-98457820D01*
X117649890Y-98629786D01*
X117800213Y-98780109D01*
X117972182Y-98905050D01*
X117980946Y-98909516D01*
X118031742Y-98957491D01*
X118048536Y-99025312D01*
X118025998Y-99091447D01*
X117980946Y-99130484D01*
X117972182Y-99134949D01*
X117800213Y-99259890D01*
X117649890Y-99410213D01*
X117524951Y-99582179D01*
X117428444Y-99771585D01*
X117362753Y-99973760D01*
X117349598Y-100056819D01*
X117329500Y-100183713D01*
X117329500Y-100396287D01*
X117362754Y-100606243D01*
X117376486Y-100648507D01*
X117428444Y-100808414D01*
X117524951Y-100997820D01*
X117649890Y-101169786D01*
X117800213Y-101320109D01*
X117972179Y-101445048D01*
X117972181Y-101445049D01*
X117972184Y-101445051D01*
X118161588Y-101541557D01*
X118363757Y-101607246D01*
X118573713Y-101640500D01*
X118573714Y-101640500D01*
X118786286Y-101640500D01*
X118786287Y-101640500D01*
X118996243Y-101607246D01*
X119198412Y-101541557D01*
X119387816Y-101445051D01*
X119387829Y-101445041D01*
X119391632Y-101442711D01*
X119400897Y-101437563D01*
X120466951Y-100903629D01*
X120522481Y-100890500D01*
X123533331Y-100890500D01*
X123533347Y-100890501D01*
X123540943Y-100890501D01*
X123699054Y-100890501D01*
X123699057Y-100890501D01*
X123851785Y-100849577D01*
X123901904Y-100820639D01*
X123988716Y-100770520D01*
X124100520Y-100658716D01*
X124100520Y-100658714D01*
X124110728Y-100648507D01*
X124110729Y-100648504D01*
X124702417Y-100056819D01*
X124763740Y-100023334D01*
X124790098Y-100020500D01*
X124850943Y-100020500D01*
X126193331Y-100020500D01*
X126193347Y-100020501D01*
X126200943Y-100020501D01*
X126359054Y-100020501D01*
X126359057Y-100020501D01*
X126511785Y-99979577D01*
X126561904Y-99950639D01*
X126648716Y-99900520D01*
X126760520Y-99788716D01*
X126760520Y-99788714D01*
X126770728Y-99778507D01*
X126770730Y-99778504D01*
X127818713Y-98730521D01*
X127818716Y-98730520D01*
X127907822Y-98641413D01*
X127969144Y-98607931D01*
X128007598Y-98610682D01*
X128038834Y-98612916D01*
X128088608Y-98650177D01*
X128094768Y-98654789D01*
X128094801Y-98654878D01*
X128119184Y-98720252D01*
X128119500Y-98729098D01*
X128119500Y-102595500D01*
X128099815Y-102662539D01*
X128047011Y-102708294D01*
X127995500Y-102719500D01*
X116274500Y-102719500D01*
X116207461Y-102699815D01*
X116161706Y-102647011D01*
X116150500Y-102595500D01*
X116150500Y-85134500D01*
X116170185Y-85067461D01*
X116222989Y-85021706D01*
X116274500Y-85010500D01*
X127995500Y-85010500D01*
X128062539Y-85030185D01*
G37*
%TD.AperFunction*%
%TA.AperFunction,Conductor*%
G36*
X123811492Y-92053910D02*
G01*
X123821600Y-92062968D01*
X123901344Y-92142712D01*
X124050666Y-92234814D01*
X124217203Y-92289999D01*
X124319991Y-92300500D01*
X124945008Y-92300499D01*
X124945016Y-92300498D01*
X124945019Y-92300498D01*
X125016970Y-92293148D01*
X125047797Y-92289999D01*
X125138874Y-92259818D01*
X125208699Y-92257417D01*
X125268742Y-92293148D01*
X125299935Y-92355668D01*
X125292375Y-92425128D01*
X125265557Y-92465206D01*
X125001286Y-92729478D01*
X124889481Y-92841282D01*
X124889480Y-92841284D01*
X124841909Y-92923680D01*
X124810423Y-92978215D01*
X124769499Y-93130943D01*
X124769499Y-93130945D01*
X124769499Y-93299046D01*
X124769500Y-93299059D01*
X124769500Y-93393371D01*
X124749815Y-93460410D01*
X124697011Y-93506165D01*
X124660283Y-93516486D01*
X124657441Y-93516828D01*
X124633216Y-93519736D01*
X124497550Y-93573236D01*
X124381352Y-93661352D01*
X124293236Y-93777550D01*
X124239736Y-93913217D01*
X124234306Y-93958443D01*
X124229500Y-93998463D01*
X124229500Y-93998464D01*
X124229500Y-93998468D01*
X124229500Y-94010529D01*
X124209815Y-94077568D01*
X124157011Y-94123323D01*
X124087853Y-94133267D01*
X124081309Y-94132146D01*
X124072411Y-94130376D01*
X124072407Y-94130376D01*
X123939345Y-94130376D01*
X123939343Y-94130376D01*
X123808845Y-94156334D01*
X123808835Y-94156337D01*
X123685914Y-94207252D01*
X123685896Y-94207262D01*
X123575274Y-94281177D01*
X123575266Y-94281183D01*
X123481183Y-94375266D01*
X123481177Y-94375274D01*
X123407262Y-94485896D01*
X123407252Y-94485914D01*
X123356337Y-94608835D01*
X123356334Y-94608845D01*
X123330376Y-94739342D01*
X123330376Y-94739345D01*
X123330376Y-94872407D01*
X123330376Y-94872409D01*
X123330375Y-94872409D01*
X123356334Y-95002906D01*
X123356337Y-95002916D01*
X123407252Y-95125837D01*
X123407262Y-95125855D01*
X123481177Y-95236477D01*
X123481183Y-95236485D01*
X123575267Y-95330569D01*
X123614561Y-95356824D01*
X123623103Y-95363075D01*
X123624473Y-95364170D01*
X123650263Y-95386019D01*
X123657391Y-95390488D01*
X123662933Y-95394919D01*
X123679055Y-95417950D01*
X123697706Y-95438989D01*
X123699544Y-95447218D01*
X123703002Y-95452157D01*
X123703508Y-95464957D01*
X123709500Y-95491770D01*
X123709500Y-95743330D01*
X123709499Y-95743348D01*
X123709499Y-95909054D01*
X123709498Y-95909054D01*
X123750424Y-96061789D01*
X123750425Y-96061790D01*
X123770541Y-96096631D01*
X123770542Y-96096632D01*
X123829477Y-96198712D01*
X123829481Y-96198717D01*
X123948349Y-96317585D01*
X123948355Y-96317590D01*
X124745482Y-97114717D01*
X124778967Y-97176040D01*
X124773983Y-97245732D01*
X124732111Y-97301665D01*
X124672587Y-97325513D01*
X124633340Y-97330226D01*
X124497798Y-97383676D01*
X124381710Y-97471710D01*
X124293676Y-97587798D01*
X124240227Y-97723336D01*
X124230000Y-97808512D01*
X124230000Y-98031487D01*
X124240228Y-98116666D01*
X124243052Y-98123827D01*
X124249334Y-98193413D01*
X124243054Y-98214803D01*
X124239737Y-98223214D01*
X124239736Y-98223216D01*
X124234309Y-98268414D01*
X124229500Y-98308463D01*
X124229500Y-98308467D01*
X124229500Y-98308468D01*
X124229500Y-98531530D01*
X124239737Y-98616785D01*
X124242784Y-98624512D01*
X124249834Y-98689823D01*
X124247694Y-98703037D01*
X124239737Y-98723215D01*
X124229500Y-98808463D01*
X124229500Y-98815383D01*
X124227905Y-98825232D01*
X124216960Y-98848114D01*
X124209815Y-98872448D01*
X124201553Y-98880325D01*
X124197757Y-98888263D01*
X124184896Y-98896209D01*
X124167502Y-98912795D01*
X124121287Y-98939478D01*
X124121281Y-98939482D01*
X123407584Y-99653181D01*
X123390591Y-99662459D01*
X123376560Y-99675799D01*
X123357897Y-99680312D01*
X123346261Y-99686666D01*
X123334963Y-99685858D01*
X123319903Y-99689500D01*
X123051312Y-99689500D01*
X122984273Y-99669815D01*
X122938518Y-99617011D01*
X122928196Y-99550719D01*
X122930500Y-99531537D01*
X122930499Y-99490098D01*
X122950182Y-99423061D01*
X122966818Y-99402416D01*
X122968711Y-99400522D01*
X122968716Y-99400520D01*
X123080520Y-99288716D01*
X123080521Y-99288713D01*
X123178506Y-99190728D01*
X123178511Y-99190724D01*
X123188714Y-99180520D01*
X123188716Y-99180520D01*
X123300520Y-99068716D01*
X123360749Y-98964396D01*
X123379577Y-98931785D01*
X123420501Y-98779057D01*
X123420501Y-98620943D01*
X123420501Y-98613348D01*
X123420500Y-98613330D01*
X123420500Y-97270943D01*
X123418411Y-97263148D01*
X123418410Y-97263144D01*
X123416574Y-97256293D01*
X123405929Y-97216563D01*
X123392507Y-97166475D01*
X123390400Y-97111567D01*
X123392938Y-97098009D01*
X123395746Y-97086226D01*
X123407664Y-97045206D01*
X123407665Y-97045203D01*
X123410499Y-97009188D01*
X123410500Y-97009181D01*
X123410499Y-96510820D01*
X123407665Y-96474796D01*
X123362869Y-96320607D01*
X123281135Y-96182402D01*
X123281133Y-96182400D01*
X123281130Y-96182396D01*
X123167603Y-96068869D01*
X123167595Y-96068863D01*
X123029393Y-95987131D01*
X123029388Y-95987129D01*
X122997872Y-95977973D01*
X122938986Y-95940367D01*
X122909780Y-95876895D01*
X122917114Y-95813402D01*
X122919772Y-95806661D01*
X122930000Y-95721487D01*
X122930000Y-95498512D01*
X122919772Y-95413338D01*
X122916948Y-95406177D01*
X122910664Y-95336590D01*
X122916946Y-95315195D01*
X122920263Y-95306785D01*
X122930500Y-95221537D01*
X122930499Y-94998464D01*
X122920263Y-94913215D01*
X122917218Y-94905493D01*
X122910934Y-94835906D01*
X122917218Y-94814507D01*
X122918149Y-94812143D01*
X122920263Y-94806785D01*
X122930500Y-94721537D01*
X122930499Y-94498464D01*
X122920263Y-94413215D01*
X122917218Y-94405493D01*
X122910934Y-94335906D01*
X122917218Y-94314507D01*
X122918149Y-94312143D01*
X122920263Y-94306785D01*
X122930500Y-94221537D01*
X122930499Y-93998464D01*
X122920263Y-93913215D01*
X122866764Y-93777552D01*
X122808180Y-93700298D01*
X122783358Y-93634988D01*
X122797786Y-93566624D01*
X122846883Y-93516913D01*
X122882793Y-93503757D01*
X123004536Y-93479540D01*
X123127469Y-93428620D01*
X123238106Y-93354695D01*
X123332195Y-93260606D01*
X123406120Y-93149969D01*
X123457040Y-93027036D01*
X123466752Y-92978213D01*
X123483000Y-92896533D01*
X123483000Y-92763469D01*
X123472403Y-92710199D01*
X123469180Y-92671235D01*
X123427719Y-92490374D01*
X123427409Y-92488845D01*
X123430253Y-92455531D01*
X123432269Y-92422125D01*
X123433292Y-92419947D01*
X123433354Y-92419229D01*
X123434064Y-92418307D01*
X123442133Y-92401146D01*
X123627125Y-92087634D01*
X123678147Y-92039900D01*
X123746876Y-92027328D01*
X123811492Y-92053910D01*
G37*
%TD.AperFunction*%
%TA.AperFunction,Conductor*%
G36*
X126768834Y-95312914D02*
G01*
X126824767Y-95354786D01*
X126849184Y-95420250D01*
X126849500Y-95429096D01*
X126849500Y-97949903D01*
X126829815Y-98016942D01*
X126813181Y-98037584D01*
X126382181Y-98468584D01*
X126320858Y-98502069D01*
X126251166Y-98497085D01*
X126195233Y-98455213D01*
X126170816Y-98389749D01*
X126170500Y-98380903D01*
X126170500Y-97179059D01*
X126170501Y-97179046D01*
X126170501Y-97010945D01*
X126170501Y-97010943D01*
X126129577Y-96858215D01*
X126090437Y-96790423D01*
X126050520Y-96721284D01*
X125938716Y-96609480D01*
X125938715Y-96609479D01*
X125934385Y-96605149D01*
X125934374Y-96605139D01*
X125704130Y-96374895D01*
X125691579Y-96351909D01*
X125675802Y-96331007D01*
X125675101Y-96321733D01*
X125670645Y-96313572D01*
X125672513Y-96287451D01*
X125670541Y-96261336D01*
X125674965Y-96253155D01*
X125675629Y-96243880D01*
X125691322Y-96222916D01*
X125703783Y-96199880D01*
X125713397Y-96193428D01*
X125717501Y-96187947D01*
X125731954Y-96178618D01*
X125745112Y-96171364D01*
X125751785Y-96169577D01*
X125822897Y-96128520D01*
X125888716Y-96090520D01*
X126000520Y-95978716D01*
X126000520Y-95978714D01*
X126010724Y-95968511D01*
X126010727Y-95968506D01*
X126637820Y-95341414D01*
X126699142Y-95307930D01*
X126768834Y-95312914D01*
G37*
%TD.AperFunction*%
%TA.AperFunction,Conductor*%
G36*
X126305701Y-88285383D02*
G01*
X126312180Y-88291415D01*
X126813181Y-88792416D01*
X126846666Y-88853739D01*
X126849500Y-88880097D01*
X126849500Y-90310902D01*
X126829815Y-90377941D01*
X126777011Y-90423696D01*
X126707853Y-90433640D01*
X126644297Y-90404615D01*
X126637819Y-90398583D01*
X125510874Y-89271639D01*
X125477389Y-89210316D01*
X125482373Y-89140624D01*
X125524245Y-89084691D01*
X125583774Y-89060842D01*
X125586631Y-89060499D01*
X125586642Y-89060499D01*
X125676237Y-89049741D01*
X125818805Y-88993519D01*
X125940918Y-88900918D01*
X126033519Y-88778805D01*
X126089741Y-88636237D01*
X126100500Y-88546643D01*
X126100499Y-88379095D01*
X126120183Y-88312057D01*
X126172987Y-88266302D01*
X126242145Y-88256358D01*
X126305701Y-88285383D01*
G37*
%TD.AperFunction*%
%TA.AperFunction,Conductor*%
G36*
X122485632Y-88971320D02*
G01*
X122488287Y-88970704D01*
X122522876Y-88977725D01*
X122524106Y-88978164D01*
X122649673Y-89025930D01*
X122694856Y-89040726D01*
X122696971Y-89041310D01*
X122704503Y-89042594D01*
X122714668Y-89046225D01*
X122718437Y-89047640D01*
X122723763Y-89049741D01*
X122813357Y-89060500D01*
X123386642Y-89060499D01*
X123476237Y-89049741D01*
X123482518Y-89047263D01*
X123552100Y-89040975D01*
X123614040Y-89073305D01*
X123615698Y-89074933D01*
X123995681Y-89454916D01*
X124010384Y-89481843D01*
X124026977Y-89507662D01*
X124027868Y-89513862D01*
X124029166Y-89516239D01*
X124032000Y-89542597D01*
X124032000Y-89707148D01*
X124014794Y-89770164D01*
X123812873Y-90112365D01*
X123761851Y-90160099D01*
X123693122Y-90172670D01*
X123628506Y-90146088D01*
X123618398Y-90137030D01*
X123538657Y-90057289D01*
X123538656Y-90057288D01*
X123389334Y-89965186D01*
X123222797Y-89910001D01*
X123222795Y-89910000D01*
X123120010Y-89899500D01*
X122494998Y-89899500D01*
X122494980Y-89899501D01*
X122392203Y-89910000D01*
X122392200Y-89910001D01*
X122225668Y-89965185D01*
X122225663Y-89965187D01*
X122076342Y-90057289D01*
X121952288Y-90181343D01*
X121936923Y-90206253D01*
X121896297Y-90246806D01*
X121661347Y-90391153D01*
X121596436Y-90409500D01*
X120367777Y-90409500D01*
X120300738Y-90389815D01*
X120255094Y-90337254D01*
X120192738Y-90201488D01*
X120114410Y-90030945D01*
X120104318Y-89961810D01*
X120133207Y-89898192D01*
X120191903Y-89860291D01*
X120261773Y-89860141D01*
X120274536Y-89864628D01*
X120382964Y-89909540D01*
X120382968Y-89909540D01*
X120382969Y-89909541D01*
X120513466Y-89935500D01*
X120513469Y-89935500D01*
X120646533Y-89935500D01*
X120774718Y-89910001D01*
X120777036Y-89909540D01*
X120899969Y-89858620D01*
X121010606Y-89784695D01*
X121104695Y-89690606D01*
X121178620Y-89579969D01*
X121218221Y-89484359D01*
X121245098Y-89444135D01*
X121682416Y-89006819D01*
X121743739Y-88973334D01*
X121770097Y-88970500D01*
X122481169Y-88970500D01*
X122485632Y-88971320D01*
G37*
%TD.AperFunction*%
%TD*%
M02*
