M48
; DRILL file {KiCad 9.0.0} date 2025-09-15T17:26:27+0900
; FORMAT={-:-/ absolute / metric / decimal}
; #@! TF.CreationDate,2025-09-15T17:26:27+09:00
; #@! TF.GenerationSoftware,Kicad,Pcbnew,9.0.0
; #@! TF.FileFunction,MixedPlating,1,2
FMAT,2
METRIC
; #@! TA.AperFunction,Plated,PTH,ViaDrill
T1C0.200
; #@! TA.AperFunction,Plated,PTH,ComponentDrill
T2C1.000
%
G90
G05
T1
X116.47Y-102.46
X117.91Y-96.5
X117.92Y-99.02
X117.95Y-93.94
X117.97Y-91.41
X120.58Y-89.26
X120.606Y-95.92
X121.24Y-89.91
X121.24Y-95.1
X121.7Y-98.42
X121.74Y-92.7
X122.0Y-102.5
X122.2Y-87.05
X122.807Y-92.83
X122.88Y-87.56
X123.13Y-99.57
X123.67Y-92.15
X123.93Y-89.64
X124.006Y-94.806
X124.18Y-93.63
X124.46Y-88.05
X124.67Y-97.19
X124.81Y-100.14
X125.19Y-92.36
X125.53Y-89.19
X125.73Y-96.27
X126.22Y-88.35
X126.28Y-98.42
X126.29Y-86.67
X126.71Y-95.4
X126.77Y-90.37
X127.59Y-85.42
X127.86Y-88.06
X127.9Y-102.48
X127.92Y-98.71
T2
X118.68Y-87.59
X118.68Y-90.13
X118.68Y-92.67
X118.68Y-95.21
X118.68Y-97.75
X118.68Y-100.29
M30
