%TF.GenerationSoftware,KiCad,Pcbnew,9.0.5*%
%TF.CreationDate,2025-11-06T16:05:17+09:00*%
%TF.ProjectId,________3,d6ecc3c9-dcfc-4c95-9f33-2e6b69636164,rev?*%
%TF.SameCoordinates,Original*%
%TF.FileFunction,Copper,L2,Bot*%
%TF.FilePolarity,Positive*%
%FSLAX46Y46*%
G04 Gerber Fmt 4.6, Leading zero omitted, Abs format (unit mm)*
G04 Created by KiCad (PCBNEW 9.0.5) date 2025-11-06 16:05:17*
%MOMM*%
%LPD*%
G01*
G04 APERTURE LIST*
%TA.AperFunction,ComponentPad*%
%ADD10R,1.700000X1.700000*%
%TD*%
%TA.AperFunction,ComponentPad*%
%ADD11C,1.700000*%
%TD*%
%TA.AperFunction,ComponentPad*%
%ADD12C,1.300000*%
%TD*%
%TA.AperFunction,ViaPad*%
%ADD13C,0.450000*%
%TD*%
%TA.AperFunction,Conductor*%
%ADD14C,0.300000*%
%TD*%
%TA.AperFunction,Conductor*%
%ADD15C,0.400000*%
%TD*%
G04 APERTURE END LIST*
D10*
%TO.P,J6,1,Pin_1*%
%TO.N,/RX_ICS*%
X108450000Y-153070000D03*
D11*
%TO.P,J6,2,Pin_2*%
%TO.N,/DC_GND*%
X110990000Y-153070000D03*
%TO.P,J6,3,Pin_3*%
%TO.N,/TX_ICS*%
X113530000Y-153070000D03*
%TO.P,J6,4,Pin_4*%
%TO.N,/3V3_BNO*%
X116070000Y-153070000D03*
%TD*%
D10*
%TO.P,J2,1,Pin_1*%
%TO.N,/3V3_BNO*%
X180265000Y-141140000D03*
D11*
%TO.P,J2,2,Pin_2*%
%TO.N,/DC_GND*%
X180265000Y-143680000D03*
%TO.P,J2,3,Pin_3*%
%TO.N,/SCL_AS0*%
X180265000Y-146220000D03*
%TO.P,J2,4,Pin_4*%
%TO.N,/SCL_BNO*%
X180265000Y-148760000D03*
%TD*%
D10*
%TO.P,J3,1,Pin_1*%
%TO.N,/CLK_SD0*%
X161640000Y-154010000D03*
D11*
%TO.P,J3,2,Pin_2*%
%TO.N,/CS_SD0*%
X164180000Y-154010000D03*
%TO.P,J3,3,Pin_3*%
%TO.N,/MISO_SD0*%
X166720000Y-154010000D03*
%TO.P,J3,4,Pin_4*%
%TO.N,/MOSI_SD0*%
X169260000Y-154010000D03*
%TO.P,J3,5,Pin_5*%
%TO.N,/3V3_BNO*%
X171800000Y-154010000D03*
%TO.P,J3,6,Pin_6*%
%TO.N,/DC_GND*%
X174340000Y-154010000D03*
%TD*%
D10*
%TO.P,J1,1,Pin_1*%
%TO.N,/5V_DC_Under*%
X103630000Y-151095000D03*
D11*
%TO.P,J1,2,Pin_2*%
%TO.N,/3V3_BNO*%
X101090000Y-151095000D03*
%TO.P,J1,3,Pin_3*%
%TO.N,/5V_DC_Rudder*%
X103630000Y-148555000D03*
%TO.P,J1,4,Pin_4*%
%TO.N,/5V_DC_ICS*%
X101090000Y-148555000D03*
%TO.P,J1,5,Pin_5*%
%TO.N,/5V_DC_Bico*%
X103630000Y-146015000D03*
%TO.P,J1,6,Pin_6*%
%TO.N,/DC_GND*%
X101090000Y-146015000D03*
%TO.P,J1,7,Pin_7*%
%TO.N,/SCL_AS0*%
X103630000Y-143475000D03*
%TO.P,J1,8,Pin_8*%
%TO.N,/SCL_BNO*%
X101090000Y-143475000D03*
%TO.P,J1,9,Pin_9*%
%TO.N,/SDA_SDP_AS1*%
X103630000Y-140935000D03*
%TO.P,J1,10,Pin_10*%
%TO.N,/SCL_SDP_AS1*%
X101090000Y-140935000D03*
%TO.P,J1,11,Pin_11*%
%TO.N,/RX_ESP*%
X103630000Y-138395000D03*
%TO.P,J1,12,Pin_12*%
%TO.N,/TX_ESP*%
X101090000Y-138395000D03*
%TD*%
D10*
%TO.P,J7,1,Pin_1*%
%TO.N,/5V_DC_Bico*%
X133457430Y-134590000D03*
D11*
%TO.P,J7,2,Pin_2*%
%TO.N,/3V3_BNO*%
X135997430Y-134590000D03*
%TO.P,J7,3,Pin_3*%
%TO.N,/SCL_BNO*%
X138537430Y-134590000D03*
%TO.P,J7,4,Pin_4*%
%TO.N,/SCL_AS0*%
X141077430Y-134590000D03*
%TO.P,J7,5,Pin_5*%
%TO.N,/SDA_SDP_AS1*%
X143617430Y-134590000D03*
%TO.P,J7,6,Pin_6*%
%TO.N,/SCL_SDP_AS1*%
X146157430Y-134590000D03*
%TO.P,J7,7,Pin_7*%
%TO.N,/RX_ESP*%
X148697430Y-134590000D03*
%TO.P,J7,8,Pin_8*%
%TO.N,/TX_ESP*%
X151237430Y-134590000D03*
%TD*%
D10*
%TO.P,J8,1,Pin_1*%
%TO.N,/5V_DC_ICS*%
X110990000Y-145870000D03*
D11*
%TO.P,J8,2,Pin_2*%
%TO.N,/SIG_ICS*%
X113530000Y-145870000D03*
%TO.P,J8,3,Pin_3*%
%TO.N,/EN_ICS*%
X116070000Y-145870000D03*
%TD*%
D10*
%TO.P,J4,1,Pin_1*%
%TO.N,/3V3_BNO*%
X163950000Y-135880000D03*
D11*
%TO.P,J4,2,Pin_2*%
%TO.N,/DC_GND*%
X166490000Y-135880000D03*
%TO.P,J4,3,Pin_3*%
%TO.N,/RX_GPS*%
X169030000Y-135880000D03*
%TO.P,J4,4,Pin_4*%
%TO.N,/TX_GPS*%
X171570000Y-135880000D03*
%TD*%
D10*
%TO.P,J5,1,Pin_1*%
%TO.N,/RX_ICS*%
X125837430Y-154910000D03*
D11*
%TO.P,J5,2,Pin_2*%
%TO.N,/TX_ICS*%
X128377430Y-154910000D03*
%TO.P,J5,3,Pin_3*%
%TO.N,/RX_GPS*%
X130917430Y-154910000D03*
%TO.P,J5,4,Pin_4*%
%TO.N,/TX_GPS*%
X133457430Y-154910000D03*
%TO.P,J5,5,Pin_5*%
%TO.N,/TX_Under*%
X135997430Y-154910000D03*
%TO.P,J5,6,Pin_6*%
%TO.N,/RX_Under*%
X138537430Y-154910000D03*
%TO.P,J5,7,Pin_7*%
%TO.N,/MOSI_SD0*%
X141077430Y-154910000D03*
%TO.P,J5,8,Pin_8*%
%TO.N,/MISO_SD0*%
X143617430Y-154910000D03*
%TO.P,J5,9,Pin_9*%
%TO.N,/CS_SD0*%
X146157430Y-154910000D03*
%TO.P,J5,10,Pin_10*%
%TO.N,/CLK_SD0*%
X148697430Y-154910000D03*
%TO.P,J5,11,Pin_11*%
%TO.N,/SPK*%
X151237430Y-154910000D03*
%TD*%
D12*
%TO.P,J9,1,Pin_1*%
%TO.N,/SPK*%
X158620000Y-144745000D03*
%TO.P,J9,2,Pin_2*%
%TO.N,/DC_GND*%
X156620000Y-144745000D03*
%TD*%
%TO.P,J10,1,Pin_1*%
%TO.N,/DC_GND*%
X126620000Y-144745000D03*
%TO.P,J10,2,Pin_2*%
%TO.N,/5V_DC_Rudder*%
X124620000Y-144745000D03*
%TO.P,J10,3,Pin_3*%
%TO.N,/EN_ICS*%
X122620000Y-144745000D03*
%TO.P,J10,4,Pin_4*%
%TO.N,/SIG_ICS*%
X120620000Y-144745000D03*
%TD*%
%TO.P,J11,1,Pin_1*%
%TO.N,/DC_GND*%
X145620000Y-144745000D03*
%TO.P,J11,2,Pin_2*%
%TO.N,/RX_Under*%
X143620000Y-144745000D03*
%TO.P,J11,3,Pin_3*%
%TO.N,/TX_Under*%
X141620000Y-144745000D03*
%TO.P,J11,4,Pin_4*%
%TO.N,/5V_DC_Under*%
X139620000Y-144745000D03*
%TD*%
D13*
%TO.N,/SDA_SDP_AS1*%
X108370000Y-138370000D03*
%TO.N,/DC_GND*%
X118970000Y-140430000D03*
X160420000Y-135170000D03*
X157720000Y-141370000D03*
X148440000Y-140170000D03*
X112110000Y-151950000D03*
X118920000Y-137140000D03*
X146030000Y-153530000D03*
X112100000Y-135880000D03*
X111530000Y-139030000D03*
X126420000Y-147870000D03*
X102220000Y-150260000D03*
X113360000Y-137220000D03*
X145830000Y-137960000D03*
X169140000Y-147640000D03*
X156760000Y-150420000D03*
X156280000Y-140180000D03*
X174340000Y-150720000D03*
X149580000Y-146900000D03*
X110190000Y-147800000D03*
X148480000Y-153530000D03*
X149710000Y-138860000D03*
X176050000Y-149560000D03*
X147880000Y-136670000D03*
X130100000Y-151860000D03*
X158040000Y-151700000D03*
X159860000Y-140190000D03*
X151770000Y-136700000D03*
X106690000Y-146540000D03*
X119550000Y-146700000D03*
X143410000Y-153520000D03*
X123520000Y-143910000D03*
X166840000Y-152580000D03*
X151290000Y-145250000D03*
X115970000Y-144490000D03*
X145350000Y-151900000D03*
X177830000Y-155790000D03*
X122910000Y-147550000D03*
X135380000Y-147840000D03*
X177215000Y-143085000D03*
X152750000Y-140180000D03*
X164290000Y-152590000D03*
X180310000Y-137690000D03*
X172490000Y-149970000D03*
X171960000Y-140320000D03*
X147560000Y-145520000D03*
X134030000Y-139110000D03*
X170780000Y-152810000D03*
X117490000Y-152310000D03*
X105410000Y-151060000D03*
X105910000Y-155650000D03*
X116270000Y-137330000D03*
X131010000Y-144190000D03*
X150580000Y-153040000D03*
X133640000Y-151110000D03*
X128010000Y-144230000D03*
X166310000Y-140170000D03*
X130460000Y-135510000D03*
X137780000Y-151670000D03*
X137070000Y-139020000D03*
X165690000Y-147770000D03*
X126890000Y-135500000D03*
X117420000Y-153390000D03*
X169790000Y-138850000D03*
X123010000Y-140430000D03*
X109150000Y-146510000D03*
X108190000Y-144300000D03*
X104170000Y-156060000D03*
X165520000Y-151510000D03*
X156850000Y-147740000D03*
X149330000Y-153120000D03*
X146250000Y-140190000D03*
X178410000Y-144890000D03*
X142050000Y-139040000D03*
X156460000Y-154410000D03*
X158340000Y-148910000D03*
X100630000Y-137110000D03*
X106980000Y-140320000D03*
X107310000Y-145580000D03*
X140380000Y-140460000D03*
X136100000Y-145010000D03*
X105060000Y-138340000D03*
X109010000Y-155700000D03*
X171540000Y-137470000D03*
X144330000Y-136640000D03*
X127250000Y-152950000D03*
X110380000Y-137670000D03*
X129690000Y-154060000D03*
X120640000Y-154040000D03*
X119280000Y-145120000D03*
X165340000Y-133440000D03*
X137370000Y-137120000D03*
X114180000Y-147770000D03*
X139510000Y-153710000D03*
X171120000Y-149280000D03*
X172940000Y-153220000D03*
X140440000Y-145500000D03*
X168860000Y-143520000D03*
X177980000Y-152440000D03*
X147660000Y-138870000D03*
X162260000Y-134970000D03*
X102370000Y-141530000D03*
X142010000Y-141880000D03*
X103530000Y-152490000D03*
X137320000Y-145920000D03*
X126970000Y-140460000D03*
X152150000Y-150340000D03*
X164150000Y-134240000D03*
X117400000Y-155390000D03*
X174080000Y-146340000D03*
X159020000Y-150400000D03*
X108220000Y-134150000D03*
X177340000Y-133620000D03*
X144490000Y-143830000D03*
X147720000Y-148840000D03*
X144130000Y-137430000D03*
X146850000Y-150370000D03*
X174340000Y-152400000D03*
X104950000Y-152490000D03*
X140810000Y-152460000D03*
X180410000Y-133620000D03*
X110430000Y-156060000D03*
X135220000Y-149560000D03*
X148010000Y-142570000D03*
X167090000Y-141540000D03*
X164770000Y-138870000D03*
X122170000Y-152190000D03*
X153410000Y-151740000D03*
X120280000Y-147770000D03*
X139470000Y-139040000D03*
X171270000Y-141770000D03*
X123920000Y-150860000D03*
X177340000Y-136600000D03*
X123060000Y-137140000D03*
X163230000Y-151820000D03*
X132030000Y-135650000D03*
X119420000Y-142680000D03*
X145580000Y-149220000D03*
X169040000Y-141140000D03*
X119250000Y-152540000D03*
X137550000Y-141900000D03*
X154750000Y-150330000D03*
X141370000Y-153190000D03*
X160460000Y-151690000D03*
X153590000Y-147130000D03*
X102410000Y-144660000D03*
X149360000Y-141470000D03*
X128250000Y-149340000D03*
X136740000Y-152790000D03*
X168370000Y-140310000D03*
X126510000Y-146570000D03*
X152060000Y-153040000D03*
X110410000Y-144250000D03*
X121680000Y-143810000D03*
X115600000Y-142880000D03*
X150800000Y-148870000D03*
X172560000Y-151520000D03*
X146860000Y-136640000D03*
X116430000Y-150840000D03*
X154240000Y-138800000D03*
X180370000Y-135270000D03*
X120432500Y-150812500D03*
X108780000Y-139030000D03*
X157130000Y-146170000D03*
X161040000Y-138810000D03*
X181530000Y-139680000D03*
X129200000Y-143100000D03*
X173510000Y-138740000D03*
X149510000Y-137830000D03*
X154570000Y-155330000D03*
X122590000Y-141950000D03*
X133660000Y-147190000D03*
X174080000Y-148330000D03*
X104330000Y-133450000D03*
X118900000Y-139020000D03*
X122270000Y-155360000D03*
X117540000Y-147750000D03*
X106070000Y-144180000D03*
X123940000Y-155270000D03*
X152520000Y-155470000D03*
X173760000Y-133480000D03*
X142360000Y-150080000D03*
X137130000Y-140430000D03*
X105180000Y-145380000D03*
X125490000Y-143780000D03*
X113880000Y-134120000D03*
X150550000Y-151740000D03*
X144560000Y-146240000D03*
X105940000Y-135920000D03*
X105310000Y-149340000D03*
X140350000Y-149130000D03*
X112310000Y-143750000D03*
X121000000Y-149290000D03*
X105740000Y-139290000D03*
X151980000Y-138850000D03*
X131170000Y-153330000D03*
X136330000Y-146890000D03*
X103290000Y-136510000D03*
X156100000Y-142700000D03*
X159570000Y-136650000D03*
X142300000Y-146080000D03*
X152820000Y-154760000D03*
X101600000Y-136070000D03*
X161160000Y-142750000D03*
X133870000Y-145750000D03*
X133780000Y-149660000D03*
X132420000Y-141950000D03*
X172530000Y-134740000D03*
X105850000Y-147930000D03*
X113700000Y-150870000D03*
X146820000Y-144020000D03*
X172890000Y-147260000D03*
X127840000Y-150960000D03*
X131700000Y-149300000D03*
X125682500Y-145682500D03*
X150700000Y-140170000D03*
X126810000Y-141920000D03*
X152030000Y-133440000D03*
X165700000Y-145270000D03*
X178950000Y-149690000D03*
X128220000Y-153430000D03*
X104970000Y-146560000D03*
X126880000Y-137150000D03*
X175990000Y-146460000D03*
X107100000Y-154180000D03*
X162440000Y-141370000D03*
X145120000Y-141490000D03*
X159860000Y-154630000D03*
X105400000Y-142830000D03*
X122330000Y-146010000D03*
X175430000Y-135150000D03*
X159230000Y-143760000D03*
X155530000Y-138290000D03*
X143140000Y-151660000D03*
X102360000Y-149150000D03*
X132040000Y-152700000D03*
X105660000Y-134110000D03*
X161960000Y-147710000D03*
X130440000Y-146030000D03*
X130020000Y-147900000D03*
X153290000Y-141360000D03*
X158710000Y-155370000D03*
X117200000Y-141910000D03*
X137760000Y-149300000D03*
X168030000Y-149190000D03*
X150430000Y-142600000D03*
X164300000Y-150360000D03*
X156090000Y-148970000D03*
X106910000Y-138100000D03*
X137260000Y-154290000D03*
X125940000Y-151960000D03*
X108780000Y-136060000D03*
X152100000Y-142210000D03*
X110910000Y-150890000D03*
X111370000Y-142260000D03*
X123060000Y-138990000D03*
X119310000Y-155400000D03*
X110120000Y-140450000D03*
X158960000Y-138200000D03*
X124590000Y-141970000D03*
X177620000Y-139690000D03*
X110960000Y-134170000D03*
X124560000Y-152980000D03*
X151710000Y-137930000D03*
X143410000Y-140440000D03*
X156260000Y-152990000D03*
X177080000Y-145410000D03*
X154750000Y-133550000D03*
X174040000Y-136320000D03*
X175740000Y-137850000D03*
X146700000Y-147600000D03*
X148030000Y-151820000D03*
X152830000Y-143690000D03*
X168600000Y-137670000D03*
X126870000Y-139060000D03*
X159740000Y-153020000D03*
X134070000Y-144170000D03*
X113610000Y-144360000D03*
X132310000Y-150810000D03*
X178700000Y-143680000D03*
X149480000Y-136600000D03*
X176010000Y-144360000D03*
X114190000Y-141930000D03*
X161740000Y-150430000D03*
X123100000Y-135550000D03*
X175150000Y-147310000D03*
X154230000Y-136690000D03*
X115190000Y-135550000D03*
X124860000Y-149340000D03*
X114500000Y-139030000D03*
X107390000Y-156050000D03*
X164880000Y-142820000D03*
X169010000Y-152410000D03*
X179550000Y-147460000D03*
X130460000Y-139060000D03*
X123280000Y-154050000D03*
X161910000Y-145180000D03*
X135280000Y-151720000D03*
X178340000Y-141330000D03*
X118080000Y-154050000D03*
X146750000Y-137750000D03*
X157027500Y-143647500D03*
X167230000Y-138590000D03*
X134080000Y-137150000D03*
X114850000Y-155340000D03*
X145160000Y-136620000D03*
X134000000Y-140430000D03*
X108390000Y-149320000D03*
X180120000Y-139450000D03*
X143860000Y-147680000D03*
X156810000Y-136620000D03*
X177450000Y-147580000D03*
X173970000Y-142380000D03*
X102810000Y-134680000D03*
X162080000Y-136730000D03*
X179410000Y-145060000D03*
X158260000Y-153040000D03*
X108775000Y-150855000D03*
X105260000Y-154160000D03*
X162270000Y-133490000D03*
X136770000Y-150360000D03*
X156630000Y-135170000D03*
X112740000Y-149320000D03*
X116850000Y-149340000D03*
X175540000Y-140550000D03*
X157130000Y-138870000D03*
X167640000Y-151080000D03*
X145510000Y-138850000D03*
X152560000Y-135100000D03*
X118220000Y-144390000D03*
X130460000Y-137180000D03*
X117620000Y-146830000D03*
X134970000Y-143240000D03*
X171710000Y-143920000D03*
X149640000Y-150360000D03*
X130510000Y-140460000D03*
X173720000Y-144170000D03*
X155440000Y-151730000D03*
X165070000Y-148880000D03*
X158460000Y-133490000D03*
X152270000Y-146170000D03*
X176110000Y-151110000D03*
X163150000Y-138540000D03*
X113060000Y-140420000D03*
X133340000Y-153530000D03*
X114780000Y-152220000D03*
X107090000Y-151670000D03*
X153380000Y-148920000D03*
X169810000Y-140400000D03*
X115630000Y-140500000D03*
X118880000Y-135510000D03*
X117440000Y-144910000D03*
X177360000Y-135120000D03*
X141270000Y-147725000D03*
X129650000Y-155450000D03*
X154110000Y-153040000D03*
X170940000Y-151040000D03*
X170790000Y-145480000D03*
X163260000Y-140190000D03*
%TO.N,/SCL_AS0*%
X111125000Y-143475000D03*
X142160000Y-136505000D03*
%TO.N,/5V_DC_Under*%
X111680000Y-150090000D03*
%TO.N,/TX_GPS*%
X165410000Y-142040000D03*
%TO.N,/RX_GPS*%
X150080000Y-141830000D03*
%TO.N,/SCL_BNO*%
X141410000Y-137410000D03*
X108540000Y-142210000D03*
%TO.N,/3V3_BNO*%
X139830000Y-137290000D03*
%TD*%
D14*
%TO.N,/SDA_SDP_AS1*%
X107670000Y-138370000D02*
X105105000Y-140935000D01*
X108370000Y-138370000D02*
X107670000Y-138370000D01*
X105105000Y-140935000D02*
X103630000Y-140935000D01*
D15*
%TO.N,/5V_DC_Rudder*%
X120810000Y-148555000D02*
X124620000Y-144745000D01*
X103630000Y-148555000D02*
X120810000Y-148555000D01*
%TO.N,/DC_GND*%
X112690000Y-151370000D02*
X119995000Y-151370000D01*
X112110000Y-151950000D02*
X112690000Y-151370000D01*
X163830000Y-138540000D02*
X166490000Y-135880000D01*
X112110000Y-151950000D02*
X110990000Y-153070000D01*
D14*
X177810000Y-143680000D02*
X178700000Y-143680000D01*
D15*
X163150000Y-138540000D02*
X163830000Y-138540000D01*
X119995000Y-151370000D02*
X126620000Y-144745000D01*
D14*
X178700000Y-143680000D02*
X180265000Y-143680000D01*
X171800000Y-137670000D02*
X177215000Y-143085000D01*
X177215000Y-143085000D02*
X177810000Y-143680000D01*
X168280000Y-137670000D02*
X168600000Y-137670000D01*
X166490000Y-135880000D02*
X168280000Y-137670000D01*
X168600000Y-137670000D02*
X171800000Y-137670000D01*
D15*
%TO.N,/5V_DC_Bico*%
X103630000Y-146015000D02*
X103630000Y-145520000D01*
X114560000Y-134590000D02*
X133457430Y-134590000D01*
X103630000Y-145520000D02*
X114560000Y-134590000D01*
D14*
%TO.N,/SCL_AS0*%
X111535000Y-143475000D02*
X117100000Y-137910000D01*
X142160000Y-136505000D02*
X145215000Y-139560000D01*
X117100000Y-137910000D02*
X137757430Y-137910000D01*
X111125000Y-143475000D02*
X111535000Y-143475000D01*
X176790000Y-146220000D02*
X180265000Y-146220000D01*
X137757430Y-137910000D02*
X141077430Y-134590000D01*
X145215000Y-139560000D02*
X170130000Y-139560000D01*
X170130000Y-139560000D02*
X176790000Y-146220000D01*
D15*
%TO.N,/5V_DC_Under*%
X111680000Y-150090000D02*
X104635000Y-150090000D01*
X104635000Y-150090000D02*
X103630000Y-151095000D01*
D14*
%TO.N,/MISO_SD0*%
X147447430Y-151080000D02*
X163790000Y-151080000D01*
X143617430Y-154910000D02*
X147447430Y-151080000D01*
X163790000Y-151080000D02*
X166720000Y-154010000D01*
%TO.N,/MOSI_SD0*%
X141077430Y-154910000D02*
X146327430Y-149660000D01*
X146327430Y-149660000D02*
X164910000Y-149660000D01*
X164910000Y-149660000D02*
X169260000Y-154010000D01*
%TO.N,/CS_SD0*%
X146157430Y-154910000D02*
X148687430Y-152380000D01*
X162550000Y-152380000D02*
X164180000Y-154010000D01*
X148687430Y-152380000D02*
X162550000Y-152380000D01*
%TO.N,/CLK_SD0*%
X161339000Y-153709000D02*
X149898430Y-153709000D01*
X161640000Y-154010000D02*
X161339000Y-153709000D01*
X149898430Y-153709000D02*
X148697430Y-154910000D01*
D15*
%TO.N,/TX_GPS*%
X165410000Y-142040000D02*
X165407761Y-142042239D01*
X153347761Y-142042239D02*
X147040000Y-148350000D01*
X140017430Y-148350000D02*
X133457430Y-154910000D01*
X165407761Y-142042239D02*
X153347761Y-142042239D01*
X147040000Y-148350000D02*
X140017430Y-148350000D01*
%TO.N,/RX_GPS*%
X144890000Y-147020000D02*
X138807430Y-147020000D01*
X150080000Y-141830000D02*
X144890000Y-147020000D01*
X138807430Y-147020000D02*
X130917430Y-154910000D01*
%TO.N,/5V_DC_ICS*%
X102341000Y-147304000D02*
X109556000Y-147304000D01*
X109556000Y-147304000D02*
X110990000Y-145870000D01*
X101090000Y-148555000D02*
X102341000Y-147304000D01*
D14*
%TO.N,/SCL_BNO*%
X109980000Y-142210000D02*
X115850000Y-136340000D01*
X108540000Y-142210000D02*
X109980000Y-142210000D01*
X175560000Y-148760000D02*
X180265000Y-148760000D01*
X144780000Y-140780000D02*
X167580000Y-140780000D01*
X167580000Y-140780000D02*
X175560000Y-148760000D01*
X115850000Y-136340000D02*
X136787430Y-136340000D01*
X141410000Y-137410000D02*
X144780000Y-140780000D01*
X136787430Y-136340000D02*
X138537430Y-134590000D01*
D15*
%TO.N,/3V3_BNO*%
X114200000Y-154940000D02*
X116070000Y-153070000D01*
X101090000Y-151095000D02*
X104935000Y-154940000D01*
X104935000Y-154940000D02*
X114200000Y-154940000D01*
D14*
X171800000Y-154010000D02*
X169699000Y-156111000D01*
D15*
X139830000Y-137290000D02*
X141240000Y-135880000D01*
D14*
X119111000Y-156111000D02*
X116070000Y-153070000D01*
X169699000Y-156111000D02*
X119111000Y-156111000D01*
D15*
X141240000Y-135880000D02*
X163950000Y-135880000D01*
%TD*%
%TA.AperFunction,Conductor*%
%TO.N,/DC_GND*%
G36*
X196733691Y-133214407D02*
G01*
X196769655Y-133263907D01*
X196774500Y-133294500D01*
X196774500Y-156195500D01*
X196755593Y-156253691D01*
X196706093Y-156289655D01*
X196675500Y-156294500D01*
X170391611Y-156294500D01*
X170333420Y-156275593D01*
X170297456Y-156226093D01*
X170297456Y-156164907D01*
X170321607Y-156125496D01*
X170857750Y-155589352D01*
X170893373Y-155566519D01*
X172055535Y-155136219D01*
X172066789Y-155132800D01*
X172069400Y-155132172D01*
X172069409Y-155132171D01*
X172241639Y-155076211D01*
X172241642Y-155076209D01*
X172241646Y-155076208D01*
X172345608Y-155023235D01*
X172392527Y-154999329D01*
X172392530Y-154999328D01*
X172396166Y-154997474D01*
X172402994Y-154993996D01*
X172549501Y-154887553D01*
X172677553Y-154759501D01*
X172783996Y-154612994D01*
X172866211Y-154451639D01*
X172870155Y-154439500D01*
X172870962Y-154437018D01*
X172906924Y-154387517D01*
X172965115Y-154368608D01*
X173023306Y-154387514D01*
X173059271Y-154437013D01*
X173059272Y-154437015D01*
X173088904Y-154528215D01*
X173185376Y-154717553D01*
X173185380Y-154717559D01*
X173224728Y-154771716D01*
X173224729Y-154771716D01*
X173857037Y-154139407D01*
X173874075Y-154202993D01*
X173939901Y-154317007D01*
X174032993Y-154410099D01*
X174147007Y-154475925D01*
X174210589Y-154492962D01*
X173578282Y-155125269D01*
X173578282Y-155125270D01*
X173632440Y-155164619D01*
X173632446Y-155164623D01*
X173821784Y-155261095D01*
X174023878Y-155326759D01*
X174233750Y-155360000D01*
X174446250Y-155360000D01*
X174656121Y-155326759D01*
X174858215Y-155261095D01*
X175047556Y-155164620D01*
X175101716Y-155125270D01*
X174469408Y-154492962D01*
X174532993Y-154475925D01*
X174647007Y-154410099D01*
X174740099Y-154317007D01*
X174805925Y-154202993D01*
X174822962Y-154139408D01*
X175455270Y-154771716D01*
X175494620Y-154717556D01*
X175591095Y-154528215D01*
X175656759Y-154326121D01*
X175690000Y-154116250D01*
X175690000Y-153903749D01*
X175656759Y-153693878D01*
X175591095Y-153491784D01*
X175494623Y-153302446D01*
X175494619Y-153302440D01*
X175455270Y-153248282D01*
X175455269Y-153248282D01*
X174822962Y-153880589D01*
X174805925Y-153817007D01*
X174740099Y-153702993D01*
X174647007Y-153609901D01*
X174532993Y-153544075D01*
X174469407Y-153527037D01*
X175101716Y-152894729D01*
X175101716Y-152894728D01*
X175047559Y-152855380D01*
X175047553Y-152855376D01*
X174858215Y-152758904D01*
X174656121Y-152693240D01*
X174446250Y-152660000D01*
X174233750Y-152660000D01*
X174023878Y-152693240D01*
X173821784Y-152758904D01*
X173632446Y-152855376D01*
X173632442Y-152855378D01*
X173578282Y-152894728D01*
X174210591Y-153527037D01*
X174147007Y-153544075D01*
X174032993Y-153609901D01*
X173939901Y-153702993D01*
X173874075Y-153817007D01*
X173857037Y-153880591D01*
X173224728Y-153248282D01*
X173185378Y-153302442D01*
X173185376Y-153302446D01*
X173088904Y-153491784D01*
X173059272Y-153582984D01*
X173023308Y-153632484D01*
X172965117Y-153651391D01*
X172906926Y-153632484D01*
X172870962Y-153582984D01*
X172870962Y-153582983D01*
X172868305Y-153574806D01*
X172866211Y-153568361D01*
X172783996Y-153407006D01*
X172677553Y-153260499D01*
X172549501Y-153132447D01*
X172402994Y-153026004D01*
X172402990Y-153026001D01*
X172402988Y-153026000D01*
X172392527Y-153020670D01*
X172392526Y-153020670D01*
X172241637Y-152943788D01*
X172069406Y-152887828D01*
X171890549Y-152859500D01*
X171890546Y-152859500D01*
X171709454Y-152859500D01*
X171709451Y-152859500D01*
X171530593Y-152887828D01*
X171358362Y-152943788D01*
X171197008Y-153026002D01*
X171175351Y-153041737D01*
X171050499Y-153132447D01*
X170922447Y-153260499D01*
X170871485Y-153330643D01*
X170816002Y-153407008D01*
X170733788Y-153568362D01*
X170706811Y-153651391D01*
X170678432Y-153738737D01*
X170677825Y-153740604D01*
X170677194Y-153743231D01*
X170673775Y-153754473D01*
X170602175Y-153947851D01*
X170564239Y-153995856D01*
X170505332Y-154012395D01*
X170447953Y-153991150D01*
X170414020Y-153940236D01*
X170410639Y-153921226D01*
X170410499Y-153919446D01*
X170389653Y-153787829D01*
X170382171Y-153740591D01*
X170326211Y-153568361D01*
X170243996Y-153407006D01*
X170137553Y-153260499D01*
X170009501Y-153132447D01*
X169862994Y-153026004D01*
X169862993Y-153026003D01*
X169862991Y-153026002D01*
X169701637Y-152943788D01*
X169529398Y-152887825D01*
X169526765Y-152887193D01*
X169515520Y-152883774D01*
X168353375Y-152453480D01*
X168317746Y-152430643D01*
X166864150Y-150977047D01*
X165186614Y-149299511D01*
X165186611Y-149299509D01*
X165186610Y-149299508D01*
X165186609Y-149299507D01*
X165083890Y-149240202D01*
X165083886Y-149240200D01*
X165059673Y-149233712D01*
X165059673Y-149233713D01*
X164969309Y-149209500D01*
X146268121Y-149209500D01*
X146230632Y-149219545D01*
X146177755Y-149233713D01*
X146177754Y-149233712D01*
X146153542Y-149240201D01*
X146153539Y-149240202D01*
X146050820Y-149299507D01*
X146050819Y-149299508D01*
X142019682Y-153330643D01*
X141984053Y-153353480D01*
X140821899Y-153783777D01*
X140810642Y-153787199D01*
X140808026Y-153787827D01*
X140635792Y-153843788D01*
X140474438Y-153926002D01*
X140414139Y-153969812D01*
X140327929Y-154032447D01*
X140199877Y-154160499D01*
X140153288Y-154224624D01*
X140093432Y-154307008D01*
X140011218Y-154468362D01*
X139955258Y-154640593D01*
X139926930Y-154819450D01*
X139926930Y-155000549D01*
X139955258Y-155179406D01*
X140011218Y-155351637D01*
X140095200Y-155516460D01*
X140093332Y-155517411D01*
X140105730Y-155569431D01*
X140082222Y-155625920D01*
X140030000Y-155657803D01*
X140007048Y-155660500D01*
X139607812Y-155660500D01*
X139549621Y-155641593D01*
X139513657Y-155592093D01*
X139513657Y-155530907D01*
X139520180Y-155516725D01*
X139519660Y-155516460D01*
X139521780Y-155512297D01*
X139603641Y-155351639D01*
X139659601Y-155179409D01*
X139687930Y-155000546D01*
X139687930Y-154819454D01*
X139687930Y-154819450D01*
X139659601Y-154640593D01*
X139659601Y-154640591D01*
X139603641Y-154468361D01*
X139521426Y-154307006D01*
X139414983Y-154160499D01*
X139286931Y-154032447D01*
X139140424Y-153926004D01*
X139140423Y-153926003D01*
X139140421Y-153926002D01*
X138979067Y-153843788D01*
X138806836Y-153787828D01*
X138627979Y-153759500D01*
X138627976Y-153759500D01*
X138446884Y-153759500D01*
X138446881Y-153759500D01*
X138268023Y-153787828D01*
X138095792Y-153843788D01*
X137934438Y-153926002D01*
X137874139Y-153969812D01*
X137787929Y-154032447D01*
X137659877Y-154160499D01*
X137613288Y-154224624D01*
X137553432Y-154307008D01*
X137471218Y-154468362D01*
X137415258Y-154640593D01*
X137386930Y-154819450D01*
X137386930Y-155000549D01*
X137415258Y-155179406D01*
X137471218Y-155351637D01*
X137555200Y-155516460D01*
X137553332Y-155517411D01*
X137565730Y-155569431D01*
X137542222Y-155625920D01*
X137490000Y-155657803D01*
X137467048Y-155660500D01*
X137067812Y-155660500D01*
X137009621Y-155641593D01*
X136973657Y-155592093D01*
X136973657Y-155530907D01*
X136980180Y-155516725D01*
X136979660Y-155516460D01*
X136981780Y-155512297D01*
X137063641Y-155351639D01*
X137119601Y-155179409D01*
X137147930Y-155000546D01*
X137147930Y-154819454D01*
X137147930Y-154819450D01*
X137119601Y-154640593D01*
X137119601Y-154640591D01*
X137063641Y-154468361D01*
X136981426Y-154307006D01*
X136874983Y-154160499D01*
X136746931Y-154032447D01*
X136600424Y-153926004D01*
X136600423Y-153926003D01*
X136600421Y-153926002D01*
X136439067Y-153843788D01*
X136266836Y-153787828D01*
X136087979Y-153759500D01*
X136087976Y-153759500D01*
X135906884Y-153759500D01*
X135906881Y-153759500D01*
X135728023Y-153787828D01*
X135555792Y-153843788D01*
X135451454Y-153896951D01*
X135391022Y-153906522D01*
X135336505Y-153878744D01*
X135308728Y-153824228D01*
X135318299Y-153763796D01*
X135336502Y-153738740D01*
X140195748Y-148879496D01*
X140250265Y-148851719D01*
X140265752Y-148850500D01*
X147105890Y-148850500D01*
X147105892Y-148850500D01*
X147233186Y-148816392D01*
X147233188Y-148816390D01*
X147233190Y-148816390D01*
X147347309Y-148750503D01*
X147347309Y-148750502D01*
X147347314Y-148750500D01*
X149726733Y-146371081D01*
X159369500Y-146371081D01*
X159369500Y-146518918D01*
X159398342Y-146663914D01*
X159440159Y-146764869D01*
X159454916Y-146800495D01*
X159537049Y-146923416D01*
X159641584Y-147027951D01*
X159764505Y-147110084D01*
X159901087Y-147166658D01*
X160046082Y-147195500D01*
X160046083Y-147195500D01*
X160193917Y-147195500D01*
X160193918Y-147195500D01*
X160338913Y-147166658D01*
X160475495Y-147110084D01*
X160598416Y-147027951D01*
X160702951Y-146923416D01*
X160785084Y-146800495D01*
X160841658Y-146663913D01*
X160870500Y-146518918D01*
X160870500Y-146371082D01*
X160841658Y-146226087D01*
X160785084Y-146089505D01*
X160702951Y-145966584D01*
X160598416Y-145862049D01*
X160475495Y-145779916D01*
X160474370Y-145779450D01*
X160338914Y-145723342D01*
X160193918Y-145694500D01*
X160046082Y-145694500D01*
X160046081Y-145694500D01*
X159901085Y-145723342D01*
X159764506Y-145779915D01*
X159641585Y-145862048D01*
X159537048Y-145966585D01*
X159454915Y-146089506D01*
X159398342Y-146226085D01*
X159369500Y-146371081D01*
X149726733Y-146371081D01*
X150380727Y-145717087D01*
X156001466Y-145717087D01*
X156017266Y-145728566D01*
X156178559Y-145810749D01*
X156350710Y-145866683D01*
X156529490Y-145895000D01*
X156710510Y-145895000D01*
X156889289Y-145866683D01*
X157061440Y-145810749D01*
X157222730Y-145728568D01*
X157222735Y-145728564D01*
X157238532Y-145717087D01*
X157238532Y-145717086D01*
X156620000Y-145098554D01*
X156001466Y-145717087D01*
X150380727Y-145717087D01*
X151443325Y-144654489D01*
X155470000Y-144654489D01*
X155470000Y-144835510D01*
X155498316Y-145014289D01*
X155554250Y-145186440D01*
X155636432Y-145347730D01*
X155647911Y-145363531D01*
X156266444Y-144744999D01*
X156220367Y-144698922D01*
X156270000Y-144698922D01*
X156270000Y-144791078D01*
X156293852Y-144880095D01*
X156339930Y-144959905D01*
X156405095Y-145025070D01*
X156484905Y-145071148D01*
X156573922Y-145095000D01*
X156666078Y-145095000D01*
X156755095Y-145071148D01*
X156834905Y-145025070D01*
X156900070Y-144959905D01*
X156946148Y-144880095D01*
X156970000Y-144791078D01*
X156970000Y-144745000D01*
X156973554Y-144745000D01*
X157592086Y-145363532D01*
X157592087Y-145363532D01*
X157603564Y-145347735D01*
X157603568Y-145347730D01*
X157646297Y-145263870D01*
X157689562Y-145220605D01*
X157749994Y-145211034D01*
X157804510Y-145238811D01*
X157816817Y-145253806D01*
X157881698Y-145350908D01*
X158014092Y-145483302D01*
X158076402Y-145524936D01*
X158169761Y-145587318D01*
X158169767Y-145587320D01*
X158169769Y-145587322D01*
X158342749Y-145658973D01*
X158526384Y-145695500D01*
X158526385Y-145695500D01*
X158713615Y-145695500D01*
X158713616Y-145695500D01*
X158897251Y-145658973D01*
X159070231Y-145587322D01*
X159070234Y-145587319D01*
X159070238Y-145587318D01*
X159115187Y-145557282D01*
X159225908Y-145483302D01*
X159358302Y-145350908D01*
X159451763Y-145211034D01*
X159462318Y-145195238D01*
X159462319Y-145195234D01*
X159462322Y-145195231D01*
X159533973Y-145022251D01*
X159570500Y-144838616D01*
X159570500Y-144651384D01*
X159533973Y-144467749D01*
X159462322Y-144294769D01*
X159462320Y-144294767D01*
X159462318Y-144294761D01*
X159397807Y-144198215D01*
X159358302Y-144139092D01*
X159225908Y-144006698D01*
X159163034Y-143964687D01*
X159070238Y-143902681D01*
X159070229Y-143902677D01*
X158897249Y-143831026D01*
X158713618Y-143794500D01*
X158713616Y-143794500D01*
X158526384Y-143794500D01*
X158526381Y-143794500D01*
X158342750Y-143831026D01*
X158169770Y-143902677D01*
X158169761Y-143902681D01*
X158014092Y-144006698D01*
X158014088Y-144006701D01*
X157881701Y-144139088D01*
X157881698Y-144139092D01*
X157816822Y-144236186D01*
X157768772Y-144274065D01*
X157707634Y-144276467D01*
X157656760Y-144242474D01*
X157646297Y-144226129D01*
X157603566Y-144142266D01*
X157592087Y-144126466D01*
X156973554Y-144745000D01*
X156970000Y-144745000D01*
X156970000Y-144698922D01*
X156946148Y-144609905D01*
X156900070Y-144530095D01*
X156834905Y-144464930D01*
X156755095Y-144418852D01*
X156666078Y-144395000D01*
X156573922Y-144395000D01*
X156484905Y-144418852D01*
X156405095Y-144464930D01*
X156339930Y-144530095D01*
X156293852Y-144609905D01*
X156270000Y-144698922D01*
X156220367Y-144698922D01*
X155647911Y-144126466D01*
X155636434Y-144142264D01*
X155554250Y-144303559D01*
X155498316Y-144475710D01*
X155470000Y-144654489D01*
X151443325Y-144654489D01*
X152324903Y-143772911D01*
X156001466Y-143772911D01*
X156619999Y-144391444D01*
X157238532Y-143772911D01*
X157222730Y-143761432D01*
X157061440Y-143679250D01*
X156889289Y-143623316D01*
X156710510Y-143595000D01*
X156529490Y-143595000D01*
X156350710Y-143623316D01*
X156178559Y-143679250D01*
X156017264Y-143761434D01*
X156001466Y-143772911D01*
X152324903Y-143772911D01*
X153526079Y-142571735D01*
X153580596Y-142543958D01*
X153596083Y-142542739D01*
X164927909Y-142542739D01*
X164950543Y-142545361D01*
X164961483Y-142547930D01*
X165334711Y-142565056D01*
X165339702Y-142565500D01*
X165340817Y-142565500D01*
X165479181Y-142565500D01*
X165479183Y-142565500D01*
X165612836Y-142529688D01*
X165732665Y-142460505D01*
X165830505Y-142362665D01*
X165899688Y-142242836D01*
X165935500Y-142109183D01*
X165935500Y-141970817D01*
X165899688Y-141837164D01*
X165830505Y-141717335D01*
X165732665Y-141619495D01*
X165612836Y-141550312D01*
X165479183Y-141514500D01*
X165340817Y-141514500D01*
X165333559Y-141515182D01*
X164957963Y-141536604D01*
X164957953Y-141536606D01*
X164948454Y-141538922D01*
X164925007Y-141541739D01*
X153413653Y-141541739D01*
X153281868Y-141541739D01*
X153203961Y-141562613D01*
X153154570Y-141575848D01*
X153040451Y-141641735D01*
X153040450Y-141641736D01*
X148028576Y-146653609D01*
X147974059Y-146681386D01*
X147913627Y-146671815D01*
X147870362Y-146628550D01*
X147860791Y-146568118D01*
X147861475Y-146564289D01*
X147870499Y-146518926D01*
X147870500Y-146518916D01*
X147870500Y-146371083D01*
X147870500Y-146371082D01*
X147841658Y-146226087D01*
X147785084Y-146089505D01*
X147702951Y-145966584D01*
X147598416Y-145862049D01*
X147475495Y-145779916D01*
X147474370Y-145779450D01*
X147338914Y-145723342D01*
X147193918Y-145694500D01*
X147162321Y-145694500D01*
X147104130Y-145675593D01*
X147068166Y-145626093D01*
X147068166Y-145564907D01*
X147092317Y-145525496D01*
X148584260Y-144033553D01*
X150092033Y-142525779D01*
X150110359Y-142511343D01*
X150119165Y-142505955D01*
X150397531Y-142254836D01*
X150402298Y-142250870D01*
X150402660Y-142250507D01*
X150402665Y-142250505D01*
X150500505Y-142152665D01*
X150569688Y-142032836D01*
X150605500Y-141899183D01*
X150605500Y-141760817D01*
X150569688Y-141627164D01*
X150500505Y-141507335D01*
X150402665Y-141409495D01*
X150402660Y-141409492D01*
X150400774Y-141408045D01*
X150399806Y-141406637D01*
X150398076Y-141404907D01*
X150398396Y-141404586D01*
X150366116Y-141357622D01*
X150367715Y-141296457D01*
X150404960Y-141247914D01*
X150461038Y-141230500D01*
X167352389Y-141230500D01*
X167410580Y-141249407D01*
X167422393Y-141259496D01*
X175283386Y-149120489D01*
X175283388Y-149120490D01*
X175283389Y-149120491D01*
X175283390Y-149120492D01*
X175386107Y-149179796D01*
X175386109Y-149179797D01*
X175386113Y-149179799D01*
X175410322Y-149186284D01*
X175410325Y-149186287D01*
X175410326Y-149186286D01*
X175500688Y-149210499D01*
X175500690Y-149210500D01*
X175500691Y-149210500D01*
X178481954Y-149210500D01*
X178523295Y-149219545D01*
X179649337Y-149737051D01*
X179659719Y-149742593D01*
X179661991Y-149743985D01*
X179662006Y-149743996D01*
X179823361Y-149826211D01*
X179995591Y-149882171D01*
X180067136Y-149893502D01*
X180174451Y-149910500D01*
X180174454Y-149910500D01*
X180355549Y-149910500D01*
X180444977Y-149896335D01*
X180534409Y-149882171D01*
X180706639Y-149826211D01*
X180867994Y-149743996D01*
X181014501Y-149637553D01*
X181142553Y-149509501D01*
X181248996Y-149362994D01*
X181331211Y-149201639D01*
X181387171Y-149029409D01*
X181410915Y-148879496D01*
X181415500Y-148850549D01*
X181415500Y-148669450D01*
X181387171Y-148490593D01*
X181387171Y-148490591D01*
X181331211Y-148318361D01*
X181248996Y-148157006D01*
X181142553Y-148010499D01*
X181014501Y-147882447D01*
X180867994Y-147776004D01*
X180867993Y-147776003D01*
X180867991Y-147776002D01*
X180706637Y-147693788D01*
X180534406Y-147637828D01*
X180355549Y-147609500D01*
X180355546Y-147609500D01*
X180174454Y-147609500D01*
X180174451Y-147609500D01*
X179995593Y-147637828D01*
X179823359Y-147693789D01*
X179823353Y-147693791D01*
X179662007Y-147776002D01*
X179659697Y-147777418D01*
X179649327Y-147782952D01*
X179286936Y-147949500D01*
X178523292Y-148300455D01*
X178481952Y-148309500D01*
X175787611Y-148309500D01*
X175729420Y-148290593D01*
X175717607Y-148280504D01*
X171789653Y-144352550D01*
X167856614Y-140419511D01*
X167856611Y-140419509D01*
X167856610Y-140419508D01*
X167856609Y-140419507D01*
X167753890Y-140360202D01*
X167753886Y-140360200D01*
X167729673Y-140353712D01*
X167729673Y-140353713D01*
X167639309Y-140329500D01*
X167639307Y-140329500D01*
X145007612Y-140329500D01*
X144949421Y-140310593D01*
X144937608Y-140300504D01*
X142088754Y-137451651D01*
X142087807Y-137449907D01*
X142077685Y-137438464D01*
X142075751Y-137435704D01*
X142075750Y-137435702D01*
X141927720Y-137224477D01*
X141909808Y-137165973D01*
X141929705Y-137108113D01*
X141979811Y-137072999D01*
X142040987Y-137074042D01*
X142065607Y-137086586D01*
X142185702Y-137170750D01*
X142185705Y-137170751D01*
X142188464Y-137172685D01*
X142196892Y-137179760D01*
X142197931Y-137180223D01*
X142198387Y-137181014D01*
X142201651Y-137183754D01*
X144938386Y-139920489D01*
X144991240Y-139951004D01*
X145041114Y-139979799D01*
X145155691Y-140010500D01*
X169902389Y-140010500D01*
X169960580Y-140029407D01*
X169972393Y-140039496D01*
X176513386Y-146580489D01*
X176572696Y-146614731D01*
X176616114Y-146639799D01*
X176730691Y-146670500D01*
X178481954Y-146670500D01*
X178523295Y-146679545D01*
X179649337Y-147197051D01*
X179659719Y-147202593D01*
X179661991Y-147203985D01*
X179662006Y-147203996D01*
X179823361Y-147286211D01*
X179995591Y-147342171D01*
X180049896Y-147350772D01*
X180174451Y-147370500D01*
X180174454Y-147370500D01*
X180355549Y-147370500D01*
X180444977Y-147356335D01*
X180534409Y-147342171D01*
X180706639Y-147286211D01*
X180867994Y-147203996D01*
X181014501Y-147097553D01*
X181142553Y-146969501D01*
X181248996Y-146822994D01*
X181331211Y-146661639D01*
X181387171Y-146489409D01*
X181405912Y-146371081D01*
X181415500Y-146310549D01*
X181415500Y-146129450D01*
X181389704Y-145966584D01*
X181387171Y-145950591D01*
X181331211Y-145778361D01*
X181248996Y-145617006D01*
X181142553Y-145470499D01*
X181014501Y-145342447D01*
X180867994Y-145236004D01*
X180867993Y-145236003D01*
X180867991Y-145236002D01*
X180706637Y-145153788D01*
X180692013Y-145149036D01*
X180642514Y-145113071D01*
X180623608Y-145054880D01*
X180642517Y-144996689D01*
X180692016Y-144960727D01*
X180783213Y-144931096D01*
X180972556Y-144834620D01*
X181026716Y-144795270D01*
X180394408Y-144162962D01*
X180457993Y-144145925D01*
X180572007Y-144080099D01*
X180665099Y-143987007D01*
X180730925Y-143872993D01*
X180747962Y-143809408D01*
X181380270Y-144441716D01*
X181419620Y-144387556D01*
X181516095Y-144198215D01*
X181581759Y-143996121D01*
X181615000Y-143786250D01*
X181615000Y-143573749D01*
X181581759Y-143363878D01*
X181516095Y-143161784D01*
X181419623Y-142972446D01*
X181419619Y-142972440D01*
X181380270Y-142918282D01*
X181380269Y-142918282D01*
X180747962Y-143550589D01*
X180730925Y-143487007D01*
X180665099Y-143372993D01*
X180572007Y-143279901D01*
X180457993Y-143214075D01*
X180394407Y-143197037D01*
X181026716Y-142564729D01*
X181026716Y-142564728D01*
X180972559Y-142525380D01*
X180972553Y-142525376D01*
X180879000Y-142477709D01*
X180835735Y-142434444D01*
X180826164Y-142374012D01*
X180853941Y-142319496D01*
X180908458Y-142291718D01*
X180923943Y-142290499D01*
X181159864Y-142290499D01*
X181184991Y-142287585D01*
X181287765Y-142242206D01*
X181367206Y-142162765D01*
X181412585Y-142059991D01*
X181415500Y-142034865D01*
X181415499Y-140245136D01*
X181412585Y-140220009D01*
X181367206Y-140117235D01*
X181287765Y-140037794D01*
X181184991Y-139992415D01*
X181184990Y-139992414D01*
X181184988Y-139992414D01*
X181159868Y-139989500D01*
X179370139Y-139989500D01*
X179370136Y-139989501D01*
X179345009Y-139992414D01*
X179242235Y-140037794D01*
X179162794Y-140117235D01*
X179117414Y-140220011D01*
X179114500Y-140245130D01*
X179114500Y-142034860D01*
X179114501Y-142034863D01*
X179117414Y-142059990D01*
X179126765Y-142081167D01*
X179162794Y-142162765D01*
X179242235Y-142242206D01*
X179345009Y-142287585D01*
X179370135Y-142290500D01*
X179606055Y-142290499D01*
X179664243Y-142309406D01*
X179700207Y-142358906D01*
X179700208Y-142420091D01*
X179664244Y-142469591D01*
X179650999Y-142477708D01*
X179557451Y-142525373D01*
X179557442Y-142525378D01*
X179503282Y-142564728D01*
X180135591Y-143197037D01*
X180072007Y-143214075D01*
X179957993Y-143279901D01*
X179864901Y-143372993D01*
X179799075Y-143487007D01*
X179782037Y-143550591D01*
X179149728Y-142918282D01*
X179110378Y-142972442D01*
X179110376Y-142972446D01*
X179013904Y-143161784D01*
X178948240Y-143363878D01*
X178915000Y-143573749D01*
X178915000Y-143786250D01*
X178948240Y-143996121D01*
X179013904Y-144198215D01*
X179110376Y-144387553D01*
X179110380Y-144387559D01*
X179149728Y-144441716D01*
X179149729Y-144441716D01*
X179782037Y-143809407D01*
X179799075Y-143872993D01*
X179864901Y-143987007D01*
X179957993Y-144080099D01*
X180072007Y-144145925D01*
X180135589Y-144162962D01*
X179503282Y-144795269D01*
X179503282Y-144795270D01*
X179557440Y-144834619D01*
X179557446Y-144834623D01*
X179746786Y-144931096D01*
X179837983Y-144960727D01*
X179887483Y-144996691D01*
X179906391Y-145054881D01*
X179887484Y-145113072D01*
X179837988Y-145149035D01*
X179823366Y-145153786D01*
X179823353Y-145153791D01*
X179662007Y-145236002D01*
X179659697Y-145237418D01*
X179649327Y-145242952D01*
X179154213Y-145470497D01*
X178523292Y-145760455D01*
X178481952Y-145769500D01*
X177017611Y-145769500D01*
X176959420Y-145750593D01*
X176947607Y-145740504D01*
X174846970Y-143639867D01*
X173184573Y-141977470D01*
X170406614Y-139199511D01*
X170406611Y-139199509D01*
X170406609Y-139199507D01*
X170303890Y-139140202D01*
X170303886Y-139140200D01*
X170279673Y-139133712D01*
X170279673Y-139133713D01*
X170189309Y-139109500D01*
X170189307Y-139109500D01*
X145442611Y-139109500D01*
X145384420Y-139090593D01*
X145372607Y-139080504D01*
X142841607Y-136549504D01*
X142813830Y-136494987D01*
X142823401Y-136434555D01*
X142866666Y-136391290D01*
X142911611Y-136380500D01*
X162106525Y-136380500D01*
X162164716Y-136399407D01*
X162166663Y-136400859D01*
X162906286Y-136966453D01*
X162906288Y-136966454D01*
X162906292Y-136966457D01*
X162917416Y-136972387D01*
X162927235Y-136982206D01*
X162977292Y-137004308D01*
X162993819Y-137013119D01*
X163000919Y-137015525D01*
X163000923Y-137015525D01*
X163004375Y-137016695D01*
X163012587Y-137019892D01*
X163030009Y-137027585D01*
X163055135Y-137030500D01*
X163098605Y-137030499D01*
X163105847Y-137031610D01*
X163111124Y-137030499D01*
X164844864Y-137030499D01*
X164869991Y-137027585D01*
X164972765Y-136982206D01*
X165052206Y-136902765D01*
X165097585Y-136799991D01*
X165100500Y-136774865D01*
X165100499Y-136538943D01*
X165119406Y-136480756D01*
X165168906Y-136444792D01*
X165230091Y-136444791D01*
X165279591Y-136480755D01*
X165287709Y-136494001D01*
X165335376Y-136587553D01*
X165335380Y-136587559D01*
X165374728Y-136641716D01*
X165374729Y-136641716D01*
X166007037Y-136009407D01*
X166024075Y-136072993D01*
X166089901Y-136187007D01*
X166182993Y-136280099D01*
X166297007Y-136345925D01*
X166360589Y-136362962D01*
X165728282Y-136995269D01*
X165728282Y-136995270D01*
X165782440Y-137034619D01*
X165782446Y-137034623D01*
X165971784Y-137131095D01*
X166173878Y-137196759D01*
X166383750Y-137230000D01*
X166596250Y-137230000D01*
X166806121Y-137196759D01*
X167008215Y-137131095D01*
X167197556Y-137034620D01*
X167251716Y-136995270D01*
X166619408Y-136362962D01*
X166682993Y-136345925D01*
X166797007Y-136280099D01*
X166890099Y-136187007D01*
X166955925Y-136072993D01*
X166972962Y-136009408D01*
X167605270Y-136641716D01*
X167644620Y-136587556D01*
X167741096Y-136398213D01*
X167770727Y-136307016D01*
X167806690Y-136257516D01*
X167864881Y-136238608D01*
X167923072Y-136257515D01*
X167959036Y-136307013D01*
X167963788Y-136321637D01*
X168044863Y-136480756D01*
X168046004Y-136482994D01*
X168152447Y-136629501D01*
X168280499Y-136757553D01*
X168427006Y-136863996D01*
X168588361Y-136946211D01*
X168760591Y-137002171D01*
X168820616Y-137011678D01*
X168939451Y-137030500D01*
X168939454Y-137030500D01*
X169120549Y-137030500D01*
X169215095Y-137015525D01*
X169299409Y-137002171D01*
X169471639Y-136946211D01*
X169632994Y-136863996D01*
X169779501Y-136757553D01*
X169907553Y-136629501D01*
X170013996Y-136482994D01*
X170096211Y-136321639D01*
X170152171Y-136149409D01*
X170166335Y-136059977D01*
X170180500Y-135970549D01*
X170180500Y-135789450D01*
X170419500Y-135789450D01*
X170419500Y-135970549D01*
X170447828Y-136149406D01*
X170503788Y-136321637D01*
X170584863Y-136480756D01*
X170586004Y-136482994D01*
X170692447Y-136629501D01*
X170820499Y-136757553D01*
X170967006Y-136863996D01*
X171128361Y-136946211D01*
X171300591Y-137002171D01*
X171360616Y-137011678D01*
X171479451Y-137030500D01*
X171479454Y-137030500D01*
X171660549Y-137030500D01*
X171755095Y-137015525D01*
X171839409Y-137002171D01*
X172011639Y-136946211D01*
X172172994Y-136863996D01*
X172319501Y-136757553D01*
X172447553Y-136629501D01*
X172553996Y-136482994D01*
X172636211Y-136321639D01*
X172692171Y-136149409D01*
X172706335Y-136059977D01*
X172720500Y-135970549D01*
X172720500Y-135789450D01*
X172692171Y-135610593D01*
X172692171Y-135610591D01*
X172636211Y-135438361D01*
X172553996Y-135277006D01*
X172447553Y-135130499D01*
X172319501Y-135002447D01*
X172172994Y-134896004D01*
X172172993Y-134896003D01*
X172172991Y-134896002D01*
X172011637Y-134813788D01*
X171839406Y-134757828D01*
X171660549Y-134729500D01*
X171660546Y-134729500D01*
X171479454Y-134729500D01*
X171479451Y-134729500D01*
X171300593Y-134757828D01*
X171128362Y-134813788D01*
X170967008Y-134896002D01*
X170893752Y-134949225D01*
X170820499Y-135002447D01*
X170692447Y-135130499D01*
X170661975Y-135172440D01*
X170586002Y-135277008D01*
X170503788Y-135438362D01*
X170447828Y-135610593D01*
X170419500Y-135789450D01*
X170180500Y-135789450D01*
X170152171Y-135610593D01*
X170152171Y-135610591D01*
X170096211Y-135438361D01*
X170013996Y-135277006D01*
X169907553Y-135130499D01*
X169779501Y-135002447D01*
X169632994Y-134896004D01*
X169632993Y-134896003D01*
X169632991Y-134896002D01*
X169471637Y-134813788D01*
X169299406Y-134757828D01*
X169120549Y-134729500D01*
X169120546Y-134729500D01*
X168939454Y-134729500D01*
X168939451Y-134729500D01*
X168760593Y-134757828D01*
X168588362Y-134813788D01*
X168427008Y-134896002D01*
X168353752Y-134949225D01*
X168280499Y-135002447D01*
X168152447Y-135130499D01*
X168121975Y-135172440D01*
X168046002Y-135277008D01*
X167963787Y-135438364D01*
X167963786Y-135438366D01*
X167959035Y-135452988D01*
X167923069Y-135502486D01*
X167864878Y-135521391D01*
X167806688Y-135502481D01*
X167770727Y-135452983D01*
X167741096Y-135361786D01*
X167644623Y-135172446D01*
X167644619Y-135172440D01*
X167605270Y-135118282D01*
X167605269Y-135118282D01*
X166972962Y-135750589D01*
X166955925Y-135687007D01*
X166890099Y-135572993D01*
X166797007Y-135479901D01*
X166682993Y-135414075D01*
X166619407Y-135397037D01*
X167251716Y-134764729D01*
X167251716Y-134764728D01*
X167197559Y-134725380D01*
X167197553Y-134725376D01*
X167008215Y-134628904D01*
X166806121Y-134563240D01*
X166596250Y-134530000D01*
X166383750Y-134530000D01*
X166173878Y-134563240D01*
X165971784Y-134628904D01*
X165782446Y-134725376D01*
X165782442Y-134725378D01*
X165728282Y-134764728D01*
X166360591Y-135397037D01*
X166297007Y-135414075D01*
X166182993Y-135479901D01*
X166089901Y-135572993D01*
X166024075Y-135687007D01*
X166007037Y-135750591D01*
X165374728Y-135118282D01*
X165335378Y-135172442D01*
X165335376Y-135172446D01*
X165287709Y-135265999D01*
X165244444Y-135309264D01*
X165184012Y-135318835D01*
X165129495Y-135291057D01*
X165101718Y-135236541D01*
X165100499Y-135221054D01*
X165100499Y-134985139D01*
X165100499Y-134985136D01*
X165097585Y-134960009D01*
X165052206Y-134857235D01*
X164972765Y-134777794D01*
X164869991Y-134732415D01*
X164869990Y-134732414D01*
X164869988Y-134732414D01*
X164844868Y-134729500D01*
X163055139Y-134729500D01*
X163055136Y-134729501D01*
X163030009Y-134732414D01*
X162927235Y-134777793D01*
X162921955Y-134781410D01*
X162909668Y-134790314D01*
X162910167Y-134791109D01*
X162906296Y-134793538D01*
X162166662Y-135359141D01*
X162108952Y-135379470D01*
X162106524Y-135379500D01*
X152280220Y-135379500D01*
X152222029Y-135360593D01*
X152186065Y-135311093D01*
X152186065Y-135249907D01*
X152200125Y-135222311D01*
X152221426Y-135192994D01*
X152303641Y-135031639D01*
X152359601Y-134859409D01*
X152379715Y-134732414D01*
X152387930Y-134680549D01*
X152387930Y-134499450D01*
X152369044Y-134380212D01*
X152359601Y-134320591D01*
X152303641Y-134148361D01*
X152221426Y-133987006D01*
X152114983Y-133840499D01*
X151986931Y-133712447D01*
X151840424Y-133606004D01*
X151840423Y-133606003D01*
X151840421Y-133606002D01*
X151679067Y-133523788D01*
X151506836Y-133467828D01*
X151327979Y-133439500D01*
X151327976Y-133439500D01*
X151146884Y-133439500D01*
X151146881Y-133439500D01*
X150968023Y-133467828D01*
X150795792Y-133523788D01*
X150634438Y-133606002D01*
X150561182Y-133659225D01*
X150487929Y-133712447D01*
X150359877Y-133840499D01*
X150306655Y-133913752D01*
X150253432Y-133987008D01*
X150171218Y-134148362D01*
X150115258Y-134320593D01*
X150086930Y-134499450D01*
X150086930Y-134680549D01*
X150115258Y-134859406D01*
X150171218Y-135031637D01*
X150215984Y-135119496D01*
X150253434Y-135192994D01*
X150274733Y-135222310D01*
X150293640Y-135280500D01*
X150274733Y-135338691D01*
X150225233Y-135374655D01*
X150194640Y-135379500D01*
X149740220Y-135379500D01*
X149682029Y-135360593D01*
X149646065Y-135311093D01*
X149646065Y-135249907D01*
X149660125Y-135222311D01*
X149681426Y-135192994D01*
X149763641Y-135031639D01*
X149819601Y-134859409D01*
X149839715Y-134732414D01*
X149847930Y-134680549D01*
X149847930Y-134499450D01*
X149829044Y-134380212D01*
X149819601Y-134320591D01*
X149763641Y-134148361D01*
X149681426Y-133987006D01*
X149574983Y-133840499D01*
X149446931Y-133712447D01*
X149300424Y-133606004D01*
X149300423Y-133606003D01*
X149300421Y-133606002D01*
X149139067Y-133523788D01*
X148966836Y-133467828D01*
X148787979Y-133439500D01*
X148787976Y-133439500D01*
X148606884Y-133439500D01*
X148606881Y-133439500D01*
X148428023Y-133467828D01*
X148255792Y-133523788D01*
X148094438Y-133606002D01*
X148021182Y-133659225D01*
X147947929Y-133712447D01*
X147819877Y-133840499D01*
X147766655Y-133913752D01*
X147713432Y-133987008D01*
X147631218Y-134148362D01*
X147575258Y-134320593D01*
X147546930Y-134499450D01*
X147546930Y-134680549D01*
X147575258Y-134859406D01*
X147631218Y-135031637D01*
X147675984Y-135119496D01*
X147713434Y-135192994D01*
X147734733Y-135222310D01*
X147753640Y-135280500D01*
X147734733Y-135338691D01*
X147685233Y-135374655D01*
X147654640Y-135379500D01*
X147200220Y-135379500D01*
X147142029Y-135360593D01*
X147106065Y-135311093D01*
X147106065Y-135249907D01*
X147120125Y-135222311D01*
X147141426Y-135192994D01*
X147223641Y-135031639D01*
X147279601Y-134859409D01*
X147299715Y-134732414D01*
X147307930Y-134680549D01*
X147307930Y-134499450D01*
X147289044Y-134380212D01*
X147279601Y-134320591D01*
X147223641Y-134148361D01*
X147141426Y-133987006D01*
X147034983Y-133840499D01*
X146906931Y-133712447D01*
X146760424Y-133606004D01*
X146760423Y-133606003D01*
X146760421Y-133606002D01*
X146599067Y-133523788D01*
X146426836Y-133467828D01*
X146247979Y-133439500D01*
X146247976Y-133439500D01*
X146066884Y-133439500D01*
X146066881Y-133439500D01*
X145888023Y-133467828D01*
X145715792Y-133523788D01*
X145554438Y-133606002D01*
X145481182Y-133659225D01*
X145407929Y-133712447D01*
X145279877Y-133840499D01*
X145226655Y-133913752D01*
X145173432Y-133987008D01*
X145091218Y-134148362D01*
X145035258Y-134320593D01*
X145006930Y-134499450D01*
X145006930Y-134680549D01*
X145035258Y-134859406D01*
X145091218Y-135031637D01*
X145135984Y-135119496D01*
X145173434Y-135192994D01*
X145194733Y-135222310D01*
X145213640Y-135280500D01*
X145194733Y-135338691D01*
X145145233Y-135374655D01*
X145114640Y-135379500D01*
X144660220Y-135379500D01*
X144602029Y-135360593D01*
X144566065Y-135311093D01*
X144566065Y-135249907D01*
X144580125Y-135222311D01*
X144601426Y-135192994D01*
X144683641Y-135031639D01*
X144739601Y-134859409D01*
X144759715Y-134732414D01*
X144767930Y-134680549D01*
X144767930Y-134499450D01*
X144749044Y-134380212D01*
X144739601Y-134320591D01*
X144683641Y-134148361D01*
X144601426Y-133987006D01*
X144494983Y-133840499D01*
X144366931Y-133712447D01*
X144220424Y-133606004D01*
X144220423Y-133606003D01*
X144220421Y-133606002D01*
X144059067Y-133523788D01*
X143886836Y-133467828D01*
X143707979Y-133439500D01*
X143707976Y-133439500D01*
X143526884Y-133439500D01*
X143526881Y-133439500D01*
X143348023Y-133467828D01*
X143175792Y-133523788D01*
X143014438Y-133606002D01*
X142941182Y-133659225D01*
X142867929Y-133712447D01*
X142739877Y-133840499D01*
X142686655Y-133913752D01*
X142633432Y-133987008D01*
X142551218Y-134148362D01*
X142495258Y-134320593D01*
X142466930Y-134499450D01*
X142466930Y-134680549D01*
X142495258Y-134859406D01*
X142551218Y-135031637D01*
X142580561Y-135089226D01*
X142590132Y-135149658D01*
X142562355Y-135204175D01*
X142507838Y-135231952D01*
X142488124Y-135233081D01*
X142204458Y-135220958D01*
X142147128Y-135199583D01*
X142113310Y-135148593D01*
X142115923Y-135087463D01*
X142120476Y-135077102D01*
X142143640Y-135031640D01*
X142143641Y-135031639D01*
X142199601Y-134859409D01*
X142219715Y-134732414D01*
X142227930Y-134680549D01*
X142227930Y-134499450D01*
X142209044Y-134380212D01*
X142199601Y-134320591D01*
X142143641Y-134148361D01*
X142061426Y-133987006D01*
X141954983Y-133840499D01*
X141826931Y-133712447D01*
X141680424Y-133606004D01*
X141680423Y-133606003D01*
X141680421Y-133606002D01*
X141519067Y-133523788D01*
X141346836Y-133467828D01*
X141167979Y-133439500D01*
X141167976Y-133439500D01*
X140986884Y-133439500D01*
X140986881Y-133439500D01*
X140808023Y-133467828D01*
X140635792Y-133523788D01*
X140474438Y-133606002D01*
X140401182Y-133659225D01*
X140327929Y-133712447D01*
X140199877Y-133840499D01*
X140146655Y-133913752D01*
X140093432Y-133987008D01*
X140011218Y-134148362D01*
X139955255Y-134320604D01*
X139954624Y-134323231D01*
X139951205Y-134334473D01*
X139879605Y-134527851D01*
X139841669Y-134575856D01*
X139782762Y-134592395D01*
X139725383Y-134571150D01*
X139691450Y-134520236D01*
X139688069Y-134501226D01*
X139687929Y-134499446D01*
X139674970Y-134417631D01*
X139659601Y-134320591D01*
X139603641Y-134148361D01*
X139521426Y-133987006D01*
X139414983Y-133840499D01*
X139286931Y-133712447D01*
X139140424Y-133606004D01*
X139140423Y-133606003D01*
X139140421Y-133606002D01*
X138979067Y-133523788D01*
X138806836Y-133467828D01*
X138627979Y-133439500D01*
X138627976Y-133439500D01*
X138446884Y-133439500D01*
X138446881Y-133439500D01*
X138268023Y-133467828D01*
X138095792Y-133523788D01*
X137934438Y-133606002D01*
X137861182Y-133659225D01*
X137787929Y-133712447D01*
X137659877Y-133840499D01*
X137606655Y-133913752D01*
X137553432Y-133987008D01*
X137471218Y-134148362D01*
X137415255Y-134320604D01*
X137414624Y-134323231D01*
X137411205Y-134334473D01*
X137339605Y-134527851D01*
X137301669Y-134575856D01*
X137242762Y-134592395D01*
X137185383Y-134571150D01*
X137151450Y-134520236D01*
X137148069Y-134501226D01*
X137147929Y-134499446D01*
X137134970Y-134417631D01*
X137119601Y-134320591D01*
X137063641Y-134148361D01*
X136981426Y-133987006D01*
X136874983Y-133840499D01*
X136746931Y-133712447D01*
X136600424Y-133606004D01*
X136600423Y-133606003D01*
X136600421Y-133606002D01*
X136439067Y-133523788D01*
X136266836Y-133467828D01*
X136087979Y-133439500D01*
X136087976Y-133439500D01*
X135906884Y-133439500D01*
X135906881Y-133439500D01*
X135728023Y-133467828D01*
X135555792Y-133523788D01*
X135394438Y-133606002D01*
X135321182Y-133659225D01*
X135247929Y-133712447D01*
X135119877Y-133840499D01*
X135066655Y-133913752D01*
X135013432Y-133987008D01*
X134931218Y-134148362D01*
X134875258Y-134320593D01*
X134846930Y-134499450D01*
X134846930Y-134680549D01*
X134875258Y-134859406D01*
X134931218Y-135031637D01*
X134975984Y-135119496D01*
X135013434Y-135192994D01*
X135119877Y-135339501D01*
X135247929Y-135467553D01*
X135394436Y-135573996D01*
X135555791Y-135656211D01*
X135616656Y-135675987D01*
X135679312Y-135696345D01*
X135728812Y-135732309D01*
X135747720Y-135790500D01*
X135728813Y-135848690D01*
X135679313Y-135884654D01*
X135648720Y-135889500D01*
X134502677Y-135889500D01*
X134444486Y-135870593D01*
X134408522Y-135821093D01*
X134408522Y-135759907D01*
X134444486Y-135710407D01*
X134462684Y-135699937D01*
X134480195Y-135692206D01*
X134559636Y-135612765D01*
X134605015Y-135509991D01*
X134607930Y-135484865D01*
X134607929Y-133695136D01*
X134605015Y-133670009D01*
X134559636Y-133567235D01*
X134480195Y-133487794D01*
X134377421Y-133442415D01*
X134377420Y-133442414D01*
X134377418Y-133442414D01*
X134352298Y-133439500D01*
X132562569Y-133439500D01*
X132562566Y-133439501D01*
X132537439Y-133442414D01*
X132434665Y-133487793D01*
X132429385Y-133491410D01*
X132417098Y-133500314D01*
X132417597Y-133501109D01*
X132413726Y-133503538D01*
X131674092Y-134069141D01*
X131616382Y-134089470D01*
X131613954Y-134089500D01*
X114625892Y-134089500D01*
X114494107Y-134089500D01*
X114370124Y-134122721D01*
X114370117Y-134122723D01*
X114366811Y-134123608D01*
X114252690Y-134189496D01*
X114252685Y-134189500D01*
X114159499Y-134282685D01*
X114159500Y-134282686D01*
X114159498Y-134282688D01*
X104949504Y-143492681D01*
X104894987Y-143520458D01*
X104834555Y-143510887D01*
X104791290Y-143467622D01*
X104780500Y-143422677D01*
X104780500Y-143384450D01*
X104761614Y-143265212D01*
X104752171Y-143205591D01*
X104696211Y-143033361D01*
X104613996Y-142872006D01*
X104507553Y-142725499D01*
X104379501Y-142597447D01*
X104232994Y-142491004D01*
X104232993Y-142491003D01*
X104232991Y-142491002D01*
X104071637Y-142408788D01*
X103899406Y-142352828D01*
X103720549Y-142324500D01*
X103720546Y-142324500D01*
X103539454Y-142324500D01*
X103539451Y-142324500D01*
X103360593Y-142352828D01*
X103188362Y-142408788D01*
X103027008Y-142491002D01*
X102954121Y-142543958D01*
X102880499Y-142597447D01*
X102752447Y-142725499D01*
X102745181Y-142735500D01*
X102646002Y-142872008D01*
X102563788Y-143033362D01*
X102507828Y-143205593D01*
X102479500Y-143384450D01*
X102479500Y-143565549D01*
X102507828Y-143744406D01*
X102563788Y-143916637D01*
X102609676Y-144006698D01*
X102646004Y-144077994D01*
X102752447Y-144224501D01*
X102880499Y-144352553D01*
X103027006Y-144458996D01*
X103188361Y-144541211D01*
X103360591Y-144597171D01*
X103360779Y-144597200D01*
X103361074Y-144597248D01*
X103361221Y-144597323D01*
X103364374Y-144598080D01*
X103364192Y-144598836D01*
X103415590Y-144625025D01*
X103443368Y-144679542D01*
X103433797Y-144739974D01*
X103400758Y-144777230D01*
X103031493Y-145025070D01*
X102997172Y-145048105D01*
X102991779Y-145051810D01*
X102991772Y-145051816D01*
X102981563Y-145062273D01*
X102968917Y-145073206D01*
X102880501Y-145137445D01*
X102880499Y-145137447D01*
X102752447Y-145265499D01*
X102751351Y-145267008D01*
X102646002Y-145412008D01*
X102563787Y-145573364D01*
X102563786Y-145573366D01*
X102559035Y-145587988D01*
X102523069Y-145637486D01*
X102464878Y-145656391D01*
X102406688Y-145637481D01*
X102370727Y-145587983D01*
X102341096Y-145496786D01*
X102244623Y-145307446D01*
X102244619Y-145307440D01*
X102205270Y-145253282D01*
X102205269Y-145253282D01*
X101572962Y-145885590D01*
X101555925Y-145822007D01*
X101490099Y-145707993D01*
X101397007Y-145614901D01*
X101282993Y-145549075D01*
X101219407Y-145532037D01*
X101851716Y-144899729D01*
X101851716Y-144899728D01*
X101797559Y-144860380D01*
X101797553Y-144860376D01*
X101608215Y-144763904D01*
X101517015Y-144734272D01*
X101467515Y-144698308D01*
X101448608Y-144640117D01*
X101467515Y-144581926D01*
X101517013Y-144545962D01*
X101517017Y-144545962D01*
X101517018Y-144545962D01*
X101531633Y-144541213D01*
X101531633Y-144541212D01*
X101531639Y-144541211D01*
X101692994Y-144458996D01*
X101839501Y-144352553D01*
X101967553Y-144224501D01*
X102073996Y-144077994D01*
X102156211Y-143916639D01*
X102212171Y-143744409D01*
X102240500Y-143565546D01*
X102240500Y-143384454D01*
X102240500Y-143384450D01*
X102221614Y-143265212D01*
X102212171Y-143205591D01*
X102156211Y-143033361D01*
X102073996Y-142872006D01*
X101967553Y-142725499D01*
X101839501Y-142597447D01*
X101692994Y-142491004D01*
X101692993Y-142491003D01*
X101692991Y-142491002D01*
X101531637Y-142408788D01*
X101359406Y-142352828D01*
X101180549Y-142324500D01*
X101180546Y-142324500D01*
X100999454Y-142324500D01*
X100999451Y-142324500D01*
X100820593Y-142352828D01*
X100648362Y-142408788D01*
X100487008Y-142491002D01*
X100414121Y-142543958D01*
X100340499Y-142597447D01*
X100212447Y-142725499D01*
X100205181Y-142735500D01*
X100106002Y-142872008D01*
X100023788Y-143033362D01*
X99967828Y-143205593D01*
X99939500Y-143384450D01*
X99939500Y-143565549D01*
X99967828Y-143744406D01*
X100023788Y-143916637D01*
X100069676Y-144006698D01*
X100106004Y-144077994D01*
X100212447Y-144224501D01*
X100340499Y-144352553D01*
X100487006Y-144458996D01*
X100648361Y-144541211D01*
X100659483Y-144544824D01*
X100662983Y-144545962D01*
X100712483Y-144581926D01*
X100731391Y-144640116D01*
X100712484Y-144698307D01*
X100662985Y-144734271D01*
X100662984Y-144734272D01*
X100571784Y-144763904D01*
X100382446Y-144860376D01*
X100382442Y-144860378D01*
X100328282Y-144899728D01*
X100960591Y-145532037D01*
X100897007Y-145549075D01*
X100782993Y-145614901D01*
X100689901Y-145707993D01*
X100624075Y-145822007D01*
X100607037Y-145885591D01*
X99974728Y-145253282D01*
X99935378Y-145307442D01*
X99935376Y-145307446D01*
X99838904Y-145496784D01*
X99773240Y-145698878D01*
X99740000Y-145908749D01*
X99740000Y-146121250D01*
X99773240Y-146331121D01*
X99838904Y-146533215D01*
X99935376Y-146722553D01*
X99935380Y-146722559D01*
X99974728Y-146776716D01*
X99974729Y-146776716D01*
X100607037Y-146144407D01*
X100624075Y-146207993D01*
X100689901Y-146322007D01*
X100782993Y-146415099D01*
X100897007Y-146480925D01*
X100960590Y-146497962D01*
X100328282Y-147130269D01*
X100328282Y-147130270D01*
X100382440Y-147169619D01*
X100382446Y-147169623D01*
X100571786Y-147266096D01*
X100662983Y-147295727D01*
X100712483Y-147331691D01*
X100731391Y-147389881D01*
X100712484Y-147448072D01*
X100662988Y-147484035D01*
X100648366Y-147488786D01*
X100648364Y-147488787D01*
X100487008Y-147571002D01*
X100413752Y-147624225D01*
X100340499Y-147677447D01*
X100212447Y-147805499D01*
X100181364Y-147848281D01*
X100106002Y-147952008D01*
X100023788Y-148113362D01*
X99967828Y-148285593D01*
X99939500Y-148464450D01*
X99939500Y-148645549D01*
X99967828Y-148824406D01*
X100023788Y-148996637D01*
X100086895Y-149120492D01*
X100106004Y-149157994D01*
X100212447Y-149304501D01*
X100340499Y-149432553D01*
X100487006Y-149538996D01*
X100648361Y-149621211D01*
X100820591Y-149677171D01*
X100892136Y-149688502D01*
X100999451Y-149705500D01*
X100999454Y-149705500D01*
X101180549Y-149705500D01*
X101281566Y-149689500D01*
X101359409Y-149677171D01*
X101531639Y-149621211D01*
X101692994Y-149538996D01*
X101839501Y-149432553D01*
X101967553Y-149304501D01*
X102073996Y-149157994D01*
X102156211Y-148996639D01*
X102212171Y-148824409D01*
X102212171Y-148824408D01*
X102213375Y-148820703D01*
X102213578Y-148820769D01*
X102216174Y-148812716D01*
X102291146Y-148629915D01*
X102330719Y-148583255D01*
X102390163Y-148568765D01*
X102446772Y-148591982D01*
X102478923Y-148644039D01*
X102480521Y-148651999D01*
X102507828Y-148824406D01*
X102563788Y-148996637D01*
X102626895Y-149120492D01*
X102646004Y-149157994D01*
X102752447Y-149304501D01*
X102880499Y-149432553D01*
X103027006Y-149538996D01*
X103188361Y-149621211D01*
X103360591Y-149677171D01*
X103432136Y-149688502D01*
X103539451Y-149705500D01*
X103541291Y-149705500D01*
X103541879Y-149705691D01*
X103543327Y-149705805D01*
X103543299Y-149706152D01*
X103599482Y-149724407D01*
X103635446Y-149773907D01*
X103635446Y-149835093D01*
X103599482Y-149884593D01*
X103559690Y-149901775D01*
X103343575Y-149942651D01*
X103343548Y-149942512D01*
X103324591Y-149944500D01*
X102735139Y-149944500D01*
X102735136Y-149944501D01*
X102710009Y-149947414D01*
X102607235Y-149992794D01*
X102527794Y-150072235D01*
X102482414Y-150175011D01*
X102479500Y-150200130D01*
X102479500Y-150977047D01*
X102475781Y-150988491D01*
X102476684Y-151000493D01*
X102466551Y-151016899D01*
X102460593Y-151035238D01*
X102450856Y-151042311D01*
X102444533Y-151052551D01*
X102426693Y-151059867D01*
X102411093Y-151071202D01*
X102399057Y-151071202D01*
X102387924Y-151075768D01*
X102369192Y-151071202D01*
X102349907Y-151071202D01*
X102340170Y-151064127D01*
X102328479Y-151061278D01*
X102316007Y-151046572D01*
X102300407Y-151035238D01*
X102288904Y-151014614D01*
X102284737Y-151004454D01*
X102216173Y-150837279D01*
X102213576Y-150829228D01*
X102213374Y-150829294D01*
X102156211Y-150653361D01*
X102073997Y-150492008D01*
X102073996Y-150492006D01*
X101967553Y-150345499D01*
X101839501Y-150217447D01*
X101692994Y-150111004D01*
X101692993Y-150111003D01*
X101692991Y-150111002D01*
X101531637Y-150028788D01*
X101359406Y-149972828D01*
X101180549Y-149944500D01*
X101180546Y-149944500D01*
X100999454Y-149944500D01*
X100999451Y-149944500D01*
X100820593Y-149972828D01*
X100648362Y-150028788D01*
X100487008Y-150111002D01*
X100461676Y-150129407D01*
X100340499Y-150217447D01*
X100212447Y-150345499D01*
X100163649Y-150412664D01*
X100106002Y-150492008D01*
X100023789Y-150653361D01*
X99967828Y-150825593D01*
X99939500Y-151004450D01*
X99939500Y-151185549D01*
X99967828Y-151364406D01*
X99967829Y-151364409D01*
X100023789Y-151536639D01*
X100106004Y-151697994D01*
X100212447Y-151844501D01*
X100340499Y-151972553D01*
X100487006Y-152078996D01*
X100648361Y-152161211D01*
X100820591Y-152217171D01*
X100824294Y-152218374D01*
X100824228Y-152218576D01*
X100832283Y-152221175D01*
X101960050Y-152683710D01*
X101992487Y-152705301D01*
X104627686Y-155340500D01*
X104627688Y-155340501D01*
X104627689Y-155340502D01*
X104627690Y-155340503D01*
X104741810Y-155406390D01*
X104741808Y-155406390D01*
X104741812Y-155406391D01*
X104741814Y-155406392D01*
X104869107Y-155440500D01*
X104869108Y-155440500D01*
X104869109Y-155440500D01*
X114265890Y-155440500D01*
X114265892Y-155440500D01*
X114393186Y-155406392D01*
X114393188Y-155406390D01*
X114393190Y-155406390D01*
X114507309Y-155340503D01*
X114507309Y-155340502D01*
X114507314Y-155340500D01*
X115167515Y-154680297D01*
X115199946Y-154658710D01*
X116048417Y-154310723D01*
X116109430Y-154306137D01*
X116120355Y-154309478D01*
X116976625Y-154626519D01*
X117012252Y-154649355D01*
X118488393Y-156125496D01*
X118516170Y-156180013D01*
X118506599Y-156240445D01*
X118463334Y-156283710D01*
X118418389Y-156294500D01*
X97274500Y-156294500D01*
X97216309Y-156275593D01*
X97180345Y-156226093D01*
X97175500Y-156195500D01*
X97175500Y-140844450D01*
X99939500Y-140844450D01*
X99939500Y-141025549D01*
X99967828Y-141204406D01*
X100023788Y-141376637D01*
X100105296Y-141536606D01*
X100106004Y-141537994D01*
X100212447Y-141684501D01*
X100340499Y-141812553D01*
X100487006Y-141918996D01*
X100648361Y-142001211D01*
X100820591Y-142057171D01*
X100892136Y-142068502D01*
X100999451Y-142085500D01*
X100999454Y-142085500D01*
X101180549Y-142085500D01*
X101269977Y-142071335D01*
X101359409Y-142057171D01*
X101531639Y-142001211D01*
X101692994Y-141918996D01*
X101839501Y-141812553D01*
X101967553Y-141684501D01*
X102073996Y-141537994D01*
X102156211Y-141376639D01*
X102212171Y-141204409D01*
X102240500Y-141025546D01*
X102240500Y-140844454D01*
X102240500Y-140844450D01*
X102479500Y-140844450D01*
X102479500Y-141025549D01*
X102507828Y-141204406D01*
X102563788Y-141376637D01*
X102645296Y-141536606D01*
X102646004Y-141537994D01*
X102752447Y-141684501D01*
X102880499Y-141812553D01*
X103027006Y-141918996D01*
X103188361Y-142001211D01*
X103360591Y-142057171D01*
X103432136Y-142068502D01*
X103539451Y-142085500D01*
X103539454Y-142085500D01*
X103720549Y-142085500D01*
X103809977Y-142071335D01*
X103899409Y-142057171D01*
X104071639Y-142001211D01*
X104071642Y-142001209D01*
X104071646Y-142001208D01*
X104155125Y-141958672D01*
X104232994Y-141918996D01*
X104242891Y-141911804D01*
X104263974Y-141900551D01*
X104263958Y-141900516D01*
X104264737Y-141900144D01*
X104266932Y-141898972D01*
X104268086Y-141898549D01*
X104867217Y-141541739D01*
X105106153Y-141399442D01*
X105135224Y-141387882D01*
X105145886Y-141385500D01*
X105164309Y-141385500D01*
X105254673Y-141361286D01*
X105278887Y-141354799D01*
X105381614Y-141295489D01*
X105545667Y-141131435D01*
X105568932Y-141110410D01*
X105573119Y-141103983D01*
X107822071Y-138855031D01*
X107876587Y-138827256D01*
X107909224Y-138827533D01*
X108261956Y-138889583D01*
X108264921Y-138890090D01*
X108265432Y-138890079D01*
X108266467Y-138890204D01*
X108269619Y-138890440D01*
X108269608Y-138890585D01*
X108293102Y-138893432D01*
X108300817Y-138895500D01*
X108439181Y-138895500D01*
X108439183Y-138895500D01*
X108572836Y-138859688D01*
X108692665Y-138790505D01*
X108790505Y-138692665D01*
X108859688Y-138572836D01*
X108895500Y-138439183D01*
X108895500Y-138300817D01*
X108859688Y-138167164D01*
X108790505Y-138047335D01*
X108692665Y-137949495D01*
X108572836Y-137880312D01*
X108439183Y-137844500D01*
X108300817Y-137844500D01*
X108300815Y-137844500D01*
X108291198Y-137847077D01*
X108264527Y-137850443D01*
X108261964Y-137850415D01*
X108261956Y-137850416D01*
X108011356Y-137894498D01*
X107881067Y-137917418D01*
X107881065Y-137917418D01*
X107877743Y-137918003D01*
X107860591Y-137919500D01*
X107610691Y-137919500D01*
X107565508Y-137931606D01*
X107520325Y-137943713D01*
X107520324Y-137943712D01*
X107496115Y-137950200D01*
X107393386Y-138009510D01*
X105129985Y-140272910D01*
X105075468Y-140300687D01*
X105020572Y-140293724D01*
X104244770Y-139957078D01*
X104236465Y-139952758D01*
X104236460Y-139952770D01*
X104071637Y-139868788D01*
X103899406Y-139812828D01*
X103720549Y-139784500D01*
X103720546Y-139784500D01*
X103539454Y-139784500D01*
X103539451Y-139784500D01*
X103360593Y-139812828D01*
X103188362Y-139868788D01*
X103027008Y-139951002D01*
X102974019Y-139989501D01*
X102880499Y-140057447D01*
X102752447Y-140185499D01*
X102709116Y-140245139D01*
X102646002Y-140332008D01*
X102563788Y-140493362D01*
X102507828Y-140665593D01*
X102479500Y-140844450D01*
X102240500Y-140844450D01*
X102212171Y-140665593D01*
X102212171Y-140665591D01*
X102156211Y-140493361D01*
X102073996Y-140332006D01*
X101967553Y-140185499D01*
X101839501Y-140057447D01*
X101692994Y-139951004D01*
X101692993Y-139951003D01*
X101692991Y-139951002D01*
X101531637Y-139868788D01*
X101359406Y-139812828D01*
X101180549Y-139784500D01*
X101180546Y-139784500D01*
X100999454Y-139784500D01*
X100999451Y-139784500D01*
X100820593Y-139812828D01*
X100648362Y-139868788D01*
X100487008Y-139951002D01*
X100434019Y-139989501D01*
X100340499Y-140057447D01*
X100212447Y-140185499D01*
X100169116Y-140245139D01*
X100106002Y-140332008D01*
X100023788Y-140493362D01*
X99967828Y-140665593D01*
X99939500Y-140844450D01*
X97175500Y-140844450D01*
X97175500Y-138304450D01*
X99939500Y-138304450D01*
X99939500Y-138485549D01*
X99967828Y-138664406D01*
X100020830Y-138827534D01*
X100023789Y-138836639D01*
X100106004Y-138997994D01*
X100212447Y-139144501D01*
X100340499Y-139272553D01*
X100487006Y-139378996D01*
X100648361Y-139461211D01*
X100820591Y-139517171D01*
X100892136Y-139528502D01*
X100999451Y-139545500D01*
X100999454Y-139545500D01*
X101180549Y-139545500D01*
X101269977Y-139531335D01*
X101359409Y-139517171D01*
X101531639Y-139461211D01*
X101692994Y-139378996D01*
X101839501Y-139272553D01*
X101967553Y-139144501D01*
X102073996Y-138997994D01*
X102156211Y-138836639D01*
X102212171Y-138664409D01*
X102240500Y-138485546D01*
X102240500Y-138304454D01*
X102240500Y-138304450D01*
X102479500Y-138304450D01*
X102479500Y-138485549D01*
X102507828Y-138664406D01*
X102560830Y-138827534D01*
X102563789Y-138836639D01*
X102646004Y-138997994D01*
X102752447Y-139144501D01*
X102880499Y-139272553D01*
X103027006Y-139378996D01*
X103188361Y-139461211D01*
X103360591Y-139517171D01*
X103432136Y-139528502D01*
X103539451Y-139545500D01*
X103539454Y-139545500D01*
X103720549Y-139545500D01*
X103809977Y-139531335D01*
X103899409Y-139517171D01*
X104071639Y-139461211D01*
X104232994Y-139378996D01*
X104379501Y-139272553D01*
X104507553Y-139144501D01*
X104613996Y-138997994D01*
X104696211Y-138836639D01*
X104752171Y-138664409D01*
X104780500Y-138485546D01*
X104780500Y-138304454D01*
X104780500Y-138304450D01*
X104752171Y-138125593D01*
X104752171Y-138125591D01*
X104696211Y-137953361D01*
X104613996Y-137792006D01*
X104507553Y-137645499D01*
X104379501Y-137517447D01*
X104232994Y-137411004D01*
X104232993Y-137411003D01*
X104232991Y-137411002D01*
X104071637Y-137328788D01*
X103899406Y-137272828D01*
X103720549Y-137244500D01*
X103720546Y-137244500D01*
X103539454Y-137244500D01*
X103539451Y-137244500D01*
X103360593Y-137272828D01*
X103188362Y-137328788D01*
X103027008Y-137411002D01*
X102973460Y-137449907D01*
X102880499Y-137517447D01*
X102752447Y-137645499D01*
X102705218Y-137710504D01*
X102646002Y-137792008D01*
X102563788Y-137953362D01*
X102507828Y-138125593D01*
X102479500Y-138304450D01*
X102240500Y-138304450D01*
X102212171Y-138125593D01*
X102212171Y-138125591D01*
X102156211Y-137953361D01*
X102073996Y-137792006D01*
X101967553Y-137645499D01*
X101839501Y-137517447D01*
X101692994Y-137411004D01*
X101692993Y-137411003D01*
X101692991Y-137411002D01*
X101531637Y-137328788D01*
X101359406Y-137272828D01*
X101180549Y-137244500D01*
X101180546Y-137244500D01*
X100999454Y-137244500D01*
X100999451Y-137244500D01*
X100820593Y-137272828D01*
X100648362Y-137328788D01*
X100487008Y-137411002D01*
X100433460Y-137449907D01*
X100340499Y-137517447D01*
X100212447Y-137645499D01*
X100165218Y-137710504D01*
X100106002Y-137792008D01*
X100023788Y-137953362D01*
X99967828Y-138125593D01*
X99939500Y-138304450D01*
X97175500Y-138304450D01*
X97175500Y-133294500D01*
X97194407Y-133236309D01*
X97243907Y-133200345D01*
X97274500Y-133195500D01*
X196675500Y-133195500D01*
X196733691Y-133214407D01*
G37*
%TD.AperFunction*%
%TA.AperFunction,Conductor*%
G36*
X139394357Y-135474057D02*
G01*
X139430321Y-135523557D01*
X139430322Y-135584742D01*
X139406171Y-135624154D01*
X137599823Y-137430504D01*
X137545306Y-137458281D01*
X137529819Y-137459500D01*
X117040691Y-137459500D01*
X116983402Y-137474850D01*
X116926112Y-137490201D01*
X116882696Y-137515266D01*
X116882697Y-137515267D01*
X116823388Y-137549509D01*
X111416738Y-142956157D01*
X111398914Y-142965238D01*
X111383555Y-142978051D01*
X111372961Y-142978461D01*
X111362221Y-142983934D01*
X111322507Y-142982143D01*
X111319794Y-142981458D01*
X111272630Y-142966680D01*
X111257096Y-142962260D01*
X111255921Y-142961959D01*
X111233492Y-142957103D01*
X111223651Y-142957192D01*
X111211281Y-142954070D01*
X111210912Y-142953838D01*
X111209889Y-142953708D01*
X111194183Y-142949500D01*
X111055817Y-142949500D01*
X110922164Y-142985312D01*
X110802335Y-143054495D01*
X110704495Y-143152335D01*
X110635312Y-143272164D01*
X110599500Y-143405817D01*
X110599500Y-143544183D01*
X110635312Y-143677836D01*
X110704495Y-143797665D01*
X110802335Y-143895505D01*
X110922164Y-143964688D01*
X111055817Y-144000500D01*
X111055819Y-144000500D01*
X111194182Y-144000500D01*
X111194183Y-144000500D01*
X111230268Y-143990830D01*
X111247055Y-143987854D01*
X111263708Y-143986364D01*
X111467054Y-143929194D01*
X111493848Y-143925500D01*
X111594309Y-143925500D01*
X111684669Y-143901287D01*
X111684672Y-143901287D01*
X111697903Y-143897741D01*
X111708887Y-143894799D01*
X111811614Y-143835489D01*
X111874192Y-143772911D01*
X126001466Y-143772911D01*
X126619999Y-144391444D01*
X127238532Y-143772911D01*
X145001466Y-143772911D01*
X145619999Y-144391444D01*
X146238532Y-143772911D01*
X146222730Y-143761432D01*
X146061440Y-143679250D01*
X145889289Y-143623316D01*
X145710510Y-143595000D01*
X145529490Y-143595000D01*
X145350710Y-143623316D01*
X145178559Y-143679250D01*
X145017264Y-143761434D01*
X145001466Y-143772911D01*
X127238532Y-143772911D01*
X127222730Y-143761432D01*
X127061440Y-143679250D01*
X126889289Y-143623316D01*
X126710510Y-143595000D01*
X126529490Y-143595000D01*
X126350710Y-143623316D01*
X126178559Y-143679250D01*
X126017264Y-143761434D01*
X126001466Y-143772911D01*
X111874192Y-143772911D01*
X117257607Y-138389496D01*
X117312124Y-138361719D01*
X117327611Y-138360500D01*
X137816739Y-138360500D01*
X137907099Y-138336287D01*
X137907102Y-138336287D01*
X137920333Y-138332741D01*
X137931317Y-138329799D01*
X138034044Y-138270489D01*
X139135496Y-137169035D01*
X139190013Y-137141259D01*
X139250445Y-137150830D01*
X139293710Y-137194095D01*
X139304500Y-137239040D01*
X139304500Y-137359183D01*
X139340312Y-137492836D01*
X139409495Y-137612665D01*
X139507335Y-137710505D01*
X139627164Y-137779688D01*
X139760817Y-137815500D01*
X139760819Y-137815500D01*
X139899181Y-137815500D01*
X139899183Y-137815500D01*
X140032836Y-137779688D01*
X140152665Y-137710505D01*
X140250505Y-137612665D01*
X140250507Y-137612660D01*
X140250870Y-137612298D01*
X140254836Y-137607531D01*
X140505955Y-137329165D01*
X140511453Y-137320206D01*
X140525821Y-137301991D01*
X140797930Y-137029882D01*
X140852445Y-137002107D01*
X140912877Y-137011678D01*
X140956142Y-137054943D01*
X140965713Y-137115375D01*
X140953669Y-137149387D01*
X140920312Y-137207162D01*
X140914193Y-137230000D01*
X140884500Y-137340817D01*
X140884500Y-137479183D01*
X140920312Y-137612836D01*
X140989495Y-137732665D01*
X141087335Y-137830505D01*
X141095956Y-137835482D01*
X141117202Y-137851966D01*
X141118996Y-137853798D01*
X141118997Y-137853799D01*
X141118999Y-137853801D01*
X141261065Y-137953362D01*
X141435702Y-138075750D01*
X141435705Y-138075751D01*
X141438464Y-138077685D01*
X141451650Y-138088753D01*
X144503386Y-141140490D01*
X144606113Y-141199799D01*
X144630320Y-141206284D01*
X144630325Y-141206287D01*
X144630326Y-141206286D01*
X144720688Y-141230499D01*
X144720690Y-141230500D01*
X144720691Y-141230500D01*
X149698962Y-141230500D01*
X149721138Y-141237705D01*
X149744156Y-141241418D01*
X149749688Y-141246981D01*
X149757153Y-141249407D01*
X149770860Y-141268273D01*
X149787298Y-141284804D01*
X149788503Y-141292557D01*
X149793117Y-141298907D01*
X149793117Y-141322226D01*
X149796699Y-141345263D01*
X149793117Y-141351264D01*
X149793117Y-141360093D01*
X149768767Y-141399701D01*
X149761108Y-141407316D01*
X149757335Y-141409495D01*
X149659495Y-141507335D01*
X149658967Y-141508247D01*
X149653409Y-141514407D01*
X149653391Y-141514426D01*
X149404043Y-141790834D01*
X149398537Y-141799804D01*
X149384171Y-141818013D01*
X146852190Y-144349994D01*
X146797673Y-144377771D01*
X146737241Y-144368200D01*
X146693976Y-144324935D01*
X146688031Y-144310582D01*
X146685749Y-144303559D01*
X146603566Y-144142266D01*
X146592087Y-144126466D01*
X145970000Y-144748553D01*
X145970000Y-144698922D01*
X145946148Y-144609905D01*
X145900070Y-144530095D01*
X145834905Y-144464930D01*
X145755095Y-144418852D01*
X145666078Y-144395000D01*
X145573922Y-144395000D01*
X145484905Y-144418852D01*
X145405095Y-144464930D01*
X145339930Y-144530095D01*
X145293852Y-144609905D01*
X145270000Y-144698922D01*
X145270000Y-144791078D01*
X145293852Y-144880095D01*
X145339930Y-144959905D01*
X145405095Y-145025070D01*
X145484905Y-145071148D01*
X145573922Y-145095000D01*
X145623553Y-145095000D01*
X145001466Y-145717087D01*
X145017266Y-145728566D01*
X145178559Y-145810749D01*
X145185582Y-145813031D01*
X145235082Y-145848995D01*
X145253990Y-145907185D01*
X145235083Y-145965376D01*
X145224994Y-145977189D01*
X144711682Y-146490503D01*
X144657165Y-146518281D01*
X144641678Y-146519500D01*
X138873322Y-146519500D01*
X138741538Y-146519500D01*
X138663630Y-146540375D01*
X138614239Y-146553609D01*
X138500120Y-146619496D01*
X138500119Y-146619497D01*
X131819918Y-153299696D01*
X131787480Y-153321288D01*
X130659702Y-153783826D01*
X130651648Y-153786432D01*
X130651713Y-153786630D01*
X130648024Y-153787828D01*
X130648021Y-153787829D01*
X130586574Y-153807794D01*
X130475792Y-153843788D01*
X130314438Y-153926002D01*
X130254139Y-153969812D01*
X130167929Y-154032447D01*
X130039877Y-154160499D01*
X129993288Y-154224624D01*
X129933432Y-154307008D01*
X129851218Y-154468362D01*
X129795258Y-154640593D01*
X129766930Y-154819450D01*
X129766930Y-155000549D01*
X129795258Y-155179406D01*
X129851218Y-155351637D01*
X129935200Y-155516460D01*
X129933332Y-155517411D01*
X129945730Y-155569431D01*
X129922222Y-155625920D01*
X129870000Y-155657803D01*
X129847048Y-155660500D01*
X129447812Y-155660500D01*
X129389621Y-155641593D01*
X129353657Y-155592093D01*
X129353657Y-155530907D01*
X129360180Y-155516725D01*
X129359660Y-155516460D01*
X129361780Y-155512297D01*
X129443641Y-155351639D01*
X129499601Y-155179409D01*
X129527930Y-155000546D01*
X129527930Y-154819454D01*
X129527930Y-154819450D01*
X129499601Y-154640593D01*
X129499601Y-154640591D01*
X129443641Y-154468361D01*
X129361426Y-154307006D01*
X129254983Y-154160499D01*
X129126931Y-154032447D01*
X128980424Y-153926004D01*
X128980423Y-153926003D01*
X128980421Y-153926002D01*
X128819067Y-153843788D01*
X128646836Y-153787828D01*
X128467979Y-153759500D01*
X128467976Y-153759500D01*
X128286884Y-153759500D01*
X128286881Y-153759500D01*
X128108023Y-153787828D01*
X127935792Y-153843788D01*
X127774438Y-153926002D01*
X127714139Y-153969812D01*
X127627929Y-154032447D01*
X127499877Y-154160499D01*
X127453288Y-154224624D01*
X127393432Y-154307008D01*
X127311218Y-154468362D01*
X127255258Y-154640593D01*
X127226930Y-154819450D01*
X127226930Y-155000549D01*
X127255258Y-155179406D01*
X127311218Y-155351637D01*
X127395200Y-155516460D01*
X127393332Y-155517411D01*
X127405730Y-155569431D01*
X127382222Y-155625920D01*
X127330000Y-155657803D01*
X127307048Y-155660500D01*
X127086930Y-155660500D01*
X127028739Y-155641593D01*
X126992775Y-155592093D01*
X126987930Y-155561500D01*
X126987929Y-154015139D01*
X126987929Y-154015136D01*
X126985015Y-153990009D01*
X126939636Y-153887235D01*
X126860195Y-153807794D01*
X126757421Y-153762415D01*
X126757420Y-153762414D01*
X126757418Y-153762414D01*
X126732298Y-153759500D01*
X124942569Y-153759500D01*
X124942566Y-153759501D01*
X124917439Y-153762414D01*
X124814665Y-153807794D01*
X124735224Y-153887235D01*
X124689844Y-153990011D01*
X124686930Y-154015130D01*
X124686930Y-154015132D01*
X124686930Y-154015135D01*
X124686930Y-154823924D01*
X124686931Y-155561500D01*
X124668024Y-155619691D01*
X124618524Y-155655655D01*
X124587931Y-155660500D01*
X119338611Y-155660500D01*
X119280420Y-155641593D01*
X119268607Y-155631504D01*
X117649355Y-154012252D01*
X117626519Y-153976625D01*
X117511408Y-153665730D01*
X117458417Y-153574811D01*
X117453296Y-153568741D01*
X117372543Y-153501165D01*
X117365352Y-153497013D01*
X117357605Y-153492540D01*
X117337102Y-153476808D01*
X117333189Y-153472895D01*
X117317462Y-153452400D01*
X117314694Y-153447606D01*
X117304799Y-153423717D01*
X117303368Y-153418375D01*
X117300000Y-153392770D01*
X117300000Y-153387229D01*
X117303373Y-153361607D01*
X117317304Y-153309614D01*
X117327385Y-153216387D01*
X117327056Y-153209297D01*
X117308377Y-153117383D01*
X117196221Y-152814467D01*
X117192798Y-152803206D01*
X117192173Y-152800606D01*
X117192171Y-152800591D01*
X117136211Y-152628361D01*
X117053996Y-152467006D01*
X116947553Y-152320499D01*
X116819501Y-152192447D01*
X116672994Y-152086004D01*
X116672993Y-152086003D01*
X116672991Y-152086002D01*
X116511637Y-152003788D01*
X116339406Y-151947828D01*
X116160549Y-151919500D01*
X116160546Y-151919500D01*
X115979454Y-151919500D01*
X115979451Y-151919500D01*
X115800593Y-151947828D01*
X115628362Y-152003788D01*
X115467008Y-152086002D01*
X115393752Y-152139225D01*
X115320499Y-152192447D01*
X115192447Y-152320499D01*
X115163758Y-152359986D01*
X115086002Y-152467008D01*
X115003788Y-152628362D01*
X114983355Y-152691251D01*
X114947829Y-152800591D01*
X114947829Y-152800593D01*
X114946630Y-152804283D01*
X114946432Y-152804218D01*
X114943826Y-152812272D01*
X114868854Y-152995073D01*
X114829280Y-153041737D01*
X114769835Y-153056228D01*
X114713226Y-153033011D01*
X114681075Y-152980954D01*
X114679477Y-152972994D01*
X114661501Y-152859500D01*
X114652171Y-152800591D01*
X114596211Y-152628361D01*
X114513996Y-152467006D01*
X114407553Y-152320499D01*
X114279501Y-152192447D01*
X114132994Y-152086004D01*
X114132993Y-152086003D01*
X114132991Y-152086002D01*
X113971637Y-152003788D01*
X113799406Y-151947828D01*
X113620549Y-151919500D01*
X113620546Y-151919500D01*
X113439454Y-151919500D01*
X113439451Y-151919500D01*
X113260593Y-151947828D01*
X113088362Y-152003788D01*
X112927008Y-152086002D01*
X112853752Y-152139225D01*
X112780499Y-152192447D01*
X112652447Y-152320499D01*
X112623758Y-152359986D01*
X112546002Y-152467008D01*
X112463787Y-152628364D01*
X112463786Y-152628366D01*
X112459035Y-152642988D01*
X112423069Y-152692486D01*
X112364878Y-152711391D01*
X112306688Y-152692481D01*
X112270727Y-152642983D01*
X112241096Y-152551786D01*
X112144623Y-152362446D01*
X112144619Y-152362440D01*
X112105270Y-152308282D01*
X112105269Y-152308282D01*
X111472962Y-152940589D01*
X111455925Y-152877007D01*
X111390099Y-152762993D01*
X111297007Y-152669901D01*
X111182993Y-152604075D01*
X111119407Y-152587037D01*
X111751716Y-151954729D01*
X111751716Y-151954728D01*
X111697559Y-151915380D01*
X111697553Y-151915376D01*
X111508215Y-151818904D01*
X111306121Y-151753240D01*
X111096250Y-151720000D01*
X110883750Y-151720000D01*
X110673878Y-151753240D01*
X110471784Y-151818904D01*
X110282446Y-151915376D01*
X110282442Y-151915378D01*
X110228282Y-151954728D01*
X110860591Y-152587037D01*
X110797007Y-152604075D01*
X110682993Y-152669901D01*
X110589901Y-152762993D01*
X110524075Y-152877007D01*
X110507037Y-152940591D01*
X109874728Y-152308282D01*
X109835378Y-152362442D01*
X109835376Y-152362446D01*
X109787709Y-152455999D01*
X109744444Y-152499264D01*
X109684012Y-152508835D01*
X109629495Y-152481057D01*
X109601718Y-152426541D01*
X109600499Y-152411054D01*
X109600499Y-152175139D01*
X109600499Y-152175136D01*
X109597585Y-152150009D01*
X109552206Y-152047235D01*
X109472765Y-151967794D01*
X109369991Y-151922415D01*
X109369990Y-151922414D01*
X109369988Y-151922414D01*
X109344868Y-151919500D01*
X107555139Y-151919500D01*
X107555136Y-151919501D01*
X107530009Y-151922414D01*
X107427235Y-151967794D01*
X107347794Y-152047235D01*
X107302414Y-152150011D01*
X107299500Y-152175130D01*
X107299500Y-153964860D01*
X107299501Y-153964863D01*
X107302414Y-153989990D01*
X107325486Y-154042242D01*
X107347794Y-154092765D01*
X107427235Y-154172206D01*
X107530009Y-154217585D01*
X107555135Y-154220500D01*
X109344864Y-154220499D01*
X109369991Y-154217585D01*
X109472765Y-154172206D01*
X109552206Y-154092765D01*
X109597585Y-153989991D01*
X109600500Y-153964865D01*
X109600499Y-153728943D01*
X109619406Y-153670756D01*
X109668906Y-153634792D01*
X109730091Y-153634791D01*
X109779591Y-153670755D01*
X109787709Y-153684001D01*
X109835376Y-153777553D01*
X109835380Y-153777559D01*
X109874728Y-153831716D01*
X109874729Y-153831716D01*
X110507037Y-153199407D01*
X110524075Y-153262993D01*
X110589901Y-153377007D01*
X110682993Y-153470099D01*
X110797007Y-153535925D01*
X110860589Y-153552962D01*
X110228282Y-154185269D01*
X110228282Y-154185270D01*
X110282440Y-154224619D01*
X110282446Y-154224623D01*
X110336746Y-154252290D01*
X110380010Y-154295555D01*
X110389582Y-154355987D01*
X110361805Y-154410503D01*
X110307288Y-154438281D01*
X110291801Y-154439500D01*
X105183322Y-154439500D01*
X105125131Y-154420593D01*
X105113318Y-154410504D01*
X103117317Y-152414503D01*
X103089540Y-152359986D01*
X103099111Y-152299554D01*
X103142376Y-152256289D01*
X103187321Y-152245499D01*
X104524861Y-152245499D01*
X104524864Y-152245499D01*
X104549991Y-152242585D01*
X104652765Y-152197206D01*
X104732206Y-152117765D01*
X104777585Y-152014991D01*
X104780500Y-151989865D01*
X104780499Y-151692324D01*
X104795131Y-151640528D01*
X104861934Y-151531719D01*
X105410808Y-150637702D01*
X105457366Y-150598005D01*
X105495176Y-150590500D01*
X111196508Y-150590500D01*
X111219675Y-150593248D01*
X111229721Y-150595667D01*
X111604129Y-150614934D01*
X111610308Y-150615500D01*
X111610817Y-150615500D01*
X111749181Y-150615500D01*
X111749183Y-150615500D01*
X111882836Y-150579688D01*
X112002665Y-150510505D01*
X112100505Y-150412665D01*
X112169688Y-150292836D01*
X112205500Y-150159183D01*
X112205500Y-150020817D01*
X112169688Y-149887164D01*
X112100505Y-149767335D01*
X112002665Y-149669495D01*
X111882836Y-149600312D01*
X111749183Y-149564500D01*
X111610817Y-149564500D01*
X111610312Y-149564500D01*
X111604145Y-149565063D01*
X111496689Y-149570593D01*
X111229718Y-149584332D01*
X111219492Y-149586780D01*
X111196447Y-149589500D01*
X104603570Y-149589500D01*
X104545379Y-149570593D01*
X104509415Y-149521093D01*
X104509415Y-149459907D01*
X104545379Y-149410407D01*
X104565366Y-149399169D01*
X104791677Y-149304502D01*
X105368608Y-149063168D01*
X105406812Y-149055500D01*
X120875890Y-149055500D01*
X120875892Y-149055500D01*
X121003186Y-149021392D01*
X121003188Y-149021390D01*
X121003190Y-149021390D01*
X121117309Y-148955503D01*
X121117309Y-148955502D01*
X121117314Y-148955500D01*
X123701731Y-146371081D01*
X127369500Y-146371081D01*
X127369500Y-146518918D01*
X127398342Y-146663914D01*
X127440159Y-146764869D01*
X127454916Y-146800495D01*
X127537049Y-146923416D01*
X127641584Y-147027951D01*
X127764505Y-147110084D01*
X127901087Y-147166658D01*
X128046082Y-147195500D01*
X128046083Y-147195500D01*
X128193917Y-147195500D01*
X128193918Y-147195500D01*
X128338913Y-147166658D01*
X128475495Y-147110084D01*
X128598416Y-147027951D01*
X128702951Y-146923416D01*
X128785084Y-146800495D01*
X128841658Y-146663913D01*
X128870500Y-146518918D01*
X128870500Y-146371082D01*
X128841658Y-146226087D01*
X128785084Y-146089505D01*
X128702951Y-145966584D01*
X128598416Y-145862049D01*
X128475495Y-145779916D01*
X128474370Y-145779450D01*
X128338914Y-145723342D01*
X128193918Y-145694500D01*
X128046082Y-145694500D01*
X128046081Y-145694500D01*
X127901085Y-145723342D01*
X127764506Y-145779915D01*
X127641585Y-145862048D01*
X127537048Y-145966585D01*
X127454915Y-146089506D01*
X127398342Y-146226085D01*
X127369500Y-146371081D01*
X123701731Y-146371081D01*
X124002009Y-146070803D01*
X124031193Y-146050616D01*
X124768275Y-145717087D01*
X126001466Y-145717087D01*
X126017266Y-145728566D01*
X126178559Y-145810749D01*
X126350710Y-145866683D01*
X126529490Y-145895000D01*
X126710510Y-145895000D01*
X126889289Y-145866683D01*
X127061440Y-145810749D01*
X127222730Y-145728568D01*
X127222735Y-145728564D01*
X127238532Y-145717087D01*
X127238532Y-145717086D01*
X126620000Y-145098554D01*
X126001466Y-145717087D01*
X124768275Y-145717087D01*
X124889743Y-145662123D01*
X124892639Y-145660869D01*
X124897186Y-145658985D01*
X124897251Y-145658973D01*
X125070231Y-145587322D01*
X125099257Y-145567927D01*
X125109814Y-145561779D01*
X125116647Y-145558348D01*
X125118309Y-145557427D01*
X125118321Y-145557419D01*
X125118334Y-145557412D01*
X125145376Y-145540522D01*
X125145376Y-145540521D01*
X125145384Y-145540517D01*
X125147897Y-145537952D01*
X125163597Y-145524936D01*
X125225906Y-145483304D01*
X125358294Y-145350916D01*
X125358302Y-145350908D01*
X125423179Y-145253812D01*
X125471227Y-145215934D01*
X125532365Y-145213532D01*
X125583239Y-145247525D01*
X125593703Y-145263870D01*
X125636432Y-145347730D01*
X125647911Y-145363531D01*
X126266444Y-144744999D01*
X126220367Y-144698922D01*
X126270000Y-144698922D01*
X126270000Y-144791078D01*
X126293852Y-144880095D01*
X126339930Y-144959905D01*
X126405095Y-145025070D01*
X126484905Y-145071148D01*
X126573922Y-145095000D01*
X126666078Y-145095000D01*
X126755095Y-145071148D01*
X126834905Y-145025070D01*
X126900070Y-144959905D01*
X126946148Y-144880095D01*
X126970000Y-144791078D01*
X126970000Y-144745000D01*
X126973554Y-144745000D01*
X127592086Y-145363532D01*
X127592087Y-145363532D01*
X127603564Y-145347735D01*
X127603568Y-145347730D01*
X127685749Y-145186440D01*
X127741683Y-145014289D01*
X127770000Y-144835510D01*
X127770000Y-144654489D01*
X127769508Y-144651381D01*
X138669500Y-144651381D01*
X138669500Y-144838618D01*
X138706026Y-145022249D01*
X138777677Y-145195229D01*
X138777681Y-145195238D01*
X138852065Y-145306559D01*
X138881698Y-145350908D01*
X139014092Y-145483302D01*
X139076402Y-145524936D01*
X139169761Y-145587318D01*
X139169767Y-145587320D01*
X139169769Y-145587322D01*
X139342749Y-145658973D01*
X139526384Y-145695500D01*
X139526385Y-145695500D01*
X139713615Y-145695500D01*
X139713616Y-145695500D01*
X139897251Y-145658973D01*
X140070231Y-145587322D01*
X140070234Y-145587319D01*
X140070238Y-145587318D01*
X140115187Y-145557282D01*
X140225908Y-145483302D01*
X140358302Y-145350908D01*
X140451763Y-145211034D01*
X140462318Y-145195238D01*
X140462323Y-145195229D01*
X140528536Y-145035375D01*
X140568272Y-144988850D01*
X140627767Y-144974566D01*
X140684295Y-144997981D01*
X140711463Y-145035374D01*
X140719543Y-145054881D01*
X140777675Y-145195226D01*
X140777681Y-145195238D01*
X140852065Y-145306559D01*
X140881698Y-145350908D01*
X141014092Y-145483302D01*
X141076402Y-145524936D01*
X141169761Y-145587318D01*
X141169767Y-145587320D01*
X141169769Y-145587322D01*
X141342749Y-145658973D01*
X141526384Y-145695500D01*
X141526385Y-145695500D01*
X141713615Y-145695500D01*
X141713616Y-145695500D01*
X141897251Y-145658973D01*
X142070231Y-145587322D01*
X142070234Y-145587319D01*
X142070238Y-145587318D01*
X142115187Y-145557282D01*
X142225908Y-145483302D01*
X142358302Y-145350908D01*
X142451763Y-145211034D01*
X142462318Y-145195238D01*
X142462323Y-145195229D01*
X142528536Y-145035375D01*
X142568272Y-144988850D01*
X142627767Y-144974566D01*
X142684295Y-144997981D01*
X142711463Y-145035374D01*
X142719543Y-145054881D01*
X142777675Y-145195226D01*
X142777681Y-145195238D01*
X142852065Y-145306559D01*
X142881698Y-145350908D01*
X143014092Y-145483302D01*
X143076402Y-145524936D01*
X143169761Y-145587318D01*
X143169767Y-145587320D01*
X143169769Y-145587322D01*
X143342749Y-145658973D01*
X143526384Y-145695500D01*
X143526385Y-145695500D01*
X143713615Y-145695500D01*
X143713616Y-145695500D01*
X143897251Y-145658973D01*
X144070231Y-145587322D01*
X144070234Y-145587319D01*
X144070238Y-145587318D01*
X144115187Y-145557282D01*
X144225908Y-145483302D01*
X144358302Y-145350908D01*
X144423179Y-145253812D01*
X144471227Y-145215934D01*
X144532365Y-145213532D01*
X144583239Y-145247525D01*
X144593703Y-145263870D01*
X144636432Y-145347730D01*
X144647911Y-145363531D01*
X145266444Y-144744999D01*
X144647911Y-144126466D01*
X144636433Y-144142266D01*
X144593702Y-144226129D01*
X144550437Y-144269393D01*
X144490005Y-144278964D01*
X144435489Y-144251186D01*
X144423178Y-144236185D01*
X144397807Y-144198215D01*
X144358302Y-144139092D01*
X144225908Y-144006698D01*
X144163034Y-143964687D01*
X144070238Y-143902681D01*
X144070231Y-143902678D01*
X144068852Y-143902107D01*
X144068851Y-143902106D01*
X144068850Y-143902106D01*
X144052911Y-143895504D01*
X144042140Y-143891042D01*
X143897249Y-143831026D01*
X143713618Y-143794500D01*
X143713616Y-143794500D01*
X143526384Y-143794500D01*
X143526381Y-143794500D01*
X143342750Y-143831026D01*
X143169770Y-143902677D01*
X143169761Y-143902681D01*
X143014092Y-144006698D01*
X143014088Y-144006701D01*
X142881701Y-144139088D01*
X142881698Y-144139092D01*
X142777681Y-144294761D01*
X142777677Y-144294770D01*
X142754803Y-144349994D01*
X142716811Y-144441716D01*
X142711464Y-144454624D01*
X142671727Y-144501149D01*
X142612233Y-144515433D01*
X142555705Y-144492018D01*
X142528536Y-144454624D01*
X142523189Y-144441716D01*
X142462322Y-144294769D01*
X142462320Y-144294767D01*
X142462318Y-144294761D01*
X142397807Y-144198215D01*
X142358302Y-144139092D01*
X142225908Y-144006698D01*
X142163034Y-143964687D01*
X142070238Y-143902681D01*
X142070229Y-143902677D01*
X141897249Y-143831026D01*
X141713618Y-143794500D01*
X141713616Y-143794500D01*
X141526384Y-143794500D01*
X141526381Y-143794500D01*
X141342750Y-143831026D01*
X141169770Y-143902677D01*
X141169761Y-143902681D01*
X141014092Y-144006698D01*
X141014088Y-144006701D01*
X140881701Y-144139088D01*
X140881698Y-144139092D01*
X140777681Y-144294761D01*
X140777677Y-144294770D01*
X140754803Y-144349994D01*
X140716811Y-144441716D01*
X140711464Y-144454624D01*
X140671727Y-144501149D01*
X140612233Y-144515433D01*
X140555705Y-144492018D01*
X140528536Y-144454624D01*
X140523189Y-144441716D01*
X140462322Y-144294769D01*
X140462320Y-144294767D01*
X140462318Y-144294761D01*
X140397807Y-144198215D01*
X140358302Y-144139092D01*
X140225908Y-144006698D01*
X140163034Y-143964687D01*
X140070238Y-143902681D01*
X140070229Y-143902677D01*
X139897249Y-143831026D01*
X139713618Y-143794500D01*
X139713616Y-143794500D01*
X139526384Y-143794500D01*
X139526381Y-143794500D01*
X139342750Y-143831026D01*
X139169770Y-143902677D01*
X139169761Y-143902681D01*
X139014092Y-144006698D01*
X139014088Y-144006701D01*
X138881701Y-144139088D01*
X138881698Y-144139092D01*
X138777681Y-144294761D01*
X138777677Y-144294770D01*
X138706026Y-144467750D01*
X138669500Y-144651381D01*
X127769508Y-144651381D01*
X127741683Y-144475710D01*
X127685749Y-144303559D01*
X127603566Y-144142266D01*
X127592087Y-144126466D01*
X126973554Y-144745000D01*
X126970000Y-144745000D01*
X126970000Y-144698922D01*
X126946148Y-144609905D01*
X126900070Y-144530095D01*
X126834905Y-144464930D01*
X126755095Y-144418852D01*
X126666078Y-144395000D01*
X126573922Y-144395000D01*
X126484905Y-144418852D01*
X126405095Y-144464930D01*
X126339930Y-144530095D01*
X126293852Y-144609905D01*
X126270000Y-144698922D01*
X126220367Y-144698922D01*
X125647911Y-144126466D01*
X125636433Y-144142266D01*
X125593702Y-144226129D01*
X125550437Y-144269393D01*
X125490005Y-144278964D01*
X125435489Y-144251186D01*
X125423178Y-144236185D01*
X125397807Y-144198215D01*
X125358302Y-144139092D01*
X125225908Y-144006698D01*
X125163034Y-143964687D01*
X125070238Y-143902681D01*
X125070231Y-143902678D01*
X125068852Y-143902107D01*
X125068851Y-143902106D01*
X125068850Y-143902106D01*
X125052911Y-143895504D01*
X125042140Y-143891042D01*
X124897249Y-143831026D01*
X124713618Y-143794500D01*
X124713616Y-143794500D01*
X124526384Y-143794500D01*
X124526381Y-143794500D01*
X124342750Y-143831026D01*
X124169770Y-143902677D01*
X124169761Y-143902681D01*
X124014092Y-144006698D01*
X124014088Y-144006701D01*
X123881701Y-144139088D01*
X123881698Y-144139092D01*
X123777681Y-144294761D01*
X123777677Y-144294770D01*
X123754803Y-144349994D01*
X123716811Y-144441716D01*
X123711464Y-144454624D01*
X123671727Y-144501149D01*
X123612233Y-144515433D01*
X123555705Y-144492018D01*
X123528536Y-144454624D01*
X123523189Y-144441716D01*
X123462322Y-144294769D01*
X123462320Y-144294767D01*
X123462318Y-144294761D01*
X123397807Y-144198215D01*
X123358302Y-144139092D01*
X123225908Y-144006698D01*
X123163034Y-143964687D01*
X123070238Y-143902681D01*
X123070229Y-143902677D01*
X122897249Y-143831026D01*
X122713618Y-143794500D01*
X122713616Y-143794500D01*
X122526384Y-143794500D01*
X122526381Y-143794500D01*
X122342750Y-143831026D01*
X122169770Y-143902677D01*
X122169761Y-143902681D01*
X122014092Y-144006698D01*
X122014088Y-144006701D01*
X121881701Y-144139088D01*
X121881698Y-144139092D01*
X121777681Y-144294761D01*
X121777677Y-144294770D01*
X121754803Y-144349994D01*
X121716811Y-144441716D01*
X121711464Y-144454624D01*
X121671727Y-144501149D01*
X121612233Y-144515433D01*
X121555705Y-144492018D01*
X121528536Y-144454624D01*
X121523189Y-144441716D01*
X121462322Y-144294769D01*
X121462320Y-144294767D01*
X121462318Y-144294761D01*
X121397807Y-144198215D01*
X121358302Y-144139092D01*
X121225908Y-144006698D01*
X121163034Y-143964687D01*
X121070238Y-143902681D01*
X121070229Y-143902677D01*
X120897249Y-143831026D01*
X120713618Y-143794500D01*
X120713616Y-143794500D01*
X120526384Y-143794500D01*
X120526381Y-143794500D01*
X120342750Y-143831026D01*
X120169770Y-143902677D01*
X120169761Y-143902681D01*
X120014092Y-144006698D01*
X120014088Y-144006701D01*
X119881701Y-144139088D01*
X119881698Y-144139092D01*
X119777681Y-144294761D01*
X119777677Y-144294770D01*
X119706026Y-144467750D01*
X119669500Y-144651381D01*
X119669500Y-144838618D01*
X119706026Y-145022249D01*
X119777677Y-145195229D01*
X119777681Y-145195238D01*
X119852065Y-145306559D01*
X119881698Y-145350908D01*
X120014092Y-145483302D01*
X120076402Y-145524936D01*
X120169761Y-145587318D01*
X120169767Y-145587320D01*
X120169769Y-145587322D01*
X120342749Y-145658973D01*
X120526384Y-145695500D01*
X120526385Y-145695500D01*
X120713615Y-145695500D01*
X120713616Y-145695500D01*
X120897251Y-145658973D01*
X121070231Y-145587322D01*
X121070234Y-145587319D01*
X121070238Y-145587318D01*
X121115187Y-145557282D01*
X121225908Y-145483302D01*
X121358302Y-145350908D01*
X121451763Y-145211034D01*
X121462318Y-145195238D01*
X121462323Y-145195229D01*
X121528536Y-145035375D01*
X121568272Y-144988850D01*
X121627767Y-144974566D01*
X121684295Y-144997981D01*
X121711463Y-145035374D01*
X121719543Y-145054881D01*
X121777675Y-145195226D01*
X121777681Y-145195238D01*
X121852065Y-145306559D01*
X121881698Y-145350908D01*
X122014092Y-145483302D01*
X122076402Y-145524936D01*
X122169761Y-145587318D01*
X122169767Y-145587320D01*
X122169769Y-145587322D01*
X122342749Y-145658973D01*
X122526384Y-145695500D01*
X122526385Y-145695500D01*
X122718480Y-145695500D01*
X122718480Y-145696628D01*
X122773186Y-145708625D01*
X122813833Y-145754357D01*
X122819837Y-145815247D01*
X122793139Y-145864045D01*
X120631682Y-148025504D01*
X120577165Y-148053281D01*
X120561678Y-148054500D01*
X105406815Y-148054500D01*
X105368611Y-148046831D01*
X105244300Y-147994831D01*
X105197913Y-147954933D01*
X105183837Y-147895388D01*
X105207449Y-147838942D01*
X105259729Y-147807155D01*
X105282504Y-147804500D01*
X109621890Y-147804500D01*
X109621892Y-147804500D01*
X109749186Y-147770392D01*
X109749188Y-147770390D01*
X109749190Y-147770390D01*
X109794837Y-147744035D01*
X109863314Y-147704500D01*
X109869922Y-147697891D01*
X109900520Y-147677073D01*
X111394859Y-147028679D01*
X111434265Y-147020499D01*
X111884861Y-147020499D01*
X111884864Y-147020499D01*
X111909991Y-147017585D01*
X112012765Y-146972206D01*
X112092206Y-146892765D01*
X112137585Y-146789991D01*
X112140500Y-146764865D01*
X112140499Y-145779450D01*
X112379500Y-145779450D01*
X112379500Y-145960549D01*
X112407828Y-146139406D01*
X112463788Y-146311637D01*
X112537670Y-146456639D01*
X112546004Y-146472994D01*
X112652447Y-146619501D01*
X112780499Y-146747553D01*
X112927006Y-146853996D01*
X113088361Y-146936211D01*
X113260591Y-146992171D01*
X113332136Y-147003502D01*
X113439451Y-147020500D01*
X113439454Y-147020500D01*
X113620549Y-147020500D01*
X113709977Y-147006335D01*
X113799409Y-146992171D01*
X113971639Y-146936211D01*
X114132994Y-146853996D01*
X114279501Y-146747553D01*
X114407553Y-146619501D01*
X114513996Y-146472994D01*
X114596211Y-146311639D01*
X114652171Y-146139409D01*
X114666335Y-146049977D01*
X114680500Y-145960549D01*
X114680500Y-145779450D01*
X114919500Y-145779450D01*
X114919500Y-145960549D01*
X114947828Y-146139406D01*
X115003788Y-146311637D01*
X115077670Y-146456639D01*
X115086004Y-146472994D01*
X115192447Y-146619501D01*
X115320499Y-146747553D01*
X115467006Y-146853996D01*
X115628361Y-146936211D01*
X115800591Y-146992171D01*
X115872136Y-147003502D01*
X115979451Y-147020500D01*
X115979454Y-147020500D01*
X116160549Y-147020500D01*
X116249977Y-147006335D01*
X116339409Y-146992171D01*
X116511639Y-146936211D01*
X116672994Y-146853996D01*
X116819501Y-146747553D01*
X116947553Y-146619501D01*
X117053996Y-146472994D01*
X117136211Y-146311639D01*
X117192171Y-146139409D01*
X117206335Y-146049977D01*
X117220500Y-145960549D01*
X117220500Y-145779450D01*
X117201009Y-145656391D01*
X117192171Y-145600591D01*
X117136211Y-145428361D01*
X117053996Y-145267006D01*
X116947553Y-145120499D01*
X116819501Y-144992447D01*
X116672994Y-144886004D01*
X116672993Y-144886003D01*
X116672991Y-144886002D01*
X116511637Y-144803788D01*
X116339406Y-144747828D01*
X116160549Y-144719500D01*
X116160546Y-144719500D01*
X115979454Y-144719500D01*
X115979451Y-144719500D01*
X115800593Y-144747828D01*
X115628362Y-144803788D01*
X115467008Y-144886002D01*
X115437053Y-144907766D01*
X115320499Y-144992447D01*
X115192447Y-145120499D01*
X115168261Y-145153789D01*
X115086002Y-145267008D01*
X115003788Y-145428362D01*
X114947828Y-145600593D01*
X114919500Y-145779450D01*
X114680500Y-145779450D01*
X114661009Y-145656391D01*
X114652171Y-145600591D01*
X114596211Y-145428361D01*
X114513996Y-145267006D01*
X114407553Y-145120499D01*
X114279501Y-144992447D01*
X114132994Y-144886004D01*
X114132993Y-144886003D01*
X114132991Y-144886002D01*
X113971637Y-144803788D01*
X113799406Y-144747828D01*
X113620549Y-144719500D01*
X113620546Y-144719500D01*
X113439454Y-144719500D01*
X113439451Y-144719500D01*
X113260593Y-144747828D01*
X113088362Y-144803788D01*
X112927008Y-144886002D01*
X112897053Y-144907766D01*
X112780499Y-144992447D01*
X112652447Y-145120499D01*
X112628261Y-145153789D01*
X112546002Y-145267008D01*
X112463788Y-145428362D01*
X112407828Y-145600593D01*
X112379500Y-145779450D01*
X112140499Y-145779450D01*
X112140499Y-144975136D01*
X112137585Y-144950009D01*
X112092206Y-144847235D01*
X112012765Y-144767794D01*
X111909991Y-144722415D01*
X111909990Y-144722414D01*
X111909988Y-144722414D01*
X111884868Y-144719500D01*
X110095139Y-144719500D01*
X110095136Y-144719501D01*
X110070009Y-144722414D01*
X109967235Y-144767794D01*
X109887794Y-144847235D01*
X109842414Y-144950011D01*
X109839500Y-144975130D01*
X109839500Y-145426765D01*
X109832964Y-145462141D01*
X109642278Y-145960549D01*
X109350744Y-146722553D01*
X109344116Y-146739876D01*
X109305664Y-146787468D01*
X109251652Y-146803500D01*
X104673516Y-146803500D01*
X104615325Y-146784593D01*
X104579361Y-146735093D01*
X104579361Y-146673907D01*
X104593422Y-146646311D01*
X104613996Y-146617994D01*
X104696211Y-146456639D01*
X104752171Y-146284409D01*
X104752171Y-146284406D01*
X104752172Y-146284406D01*
X104758845Y-146242270D01*
X104762767Y-146226268D01*
X104762828Y-146226085D01*
X104767940Y-146210848D01*
X104945456Y-144940614D01*
X104972235Y-144885601D01*
X104973446Y-144884366D01*
X107862138Y-141995674D01*
X107916653Y-141967899D01*
X107977085Y-141977470D01*
X108020350Y-142020735D01*
X108029921Y-142081167D01*
X108027767Y-142091302D01*
X108014500Y-142140817D01*
X108014500Y-142279183D01*
X108050312Y-142412836D01*
X108119495Y-142532665D01*
X108217335Y-142630505D01*
X108337164Y-142699688D01*
X108470817Y-142735500D01*
X108470819Y-142735500D01*
X108609181Y-142735500D01*
X108609183Y-142735500D01*
X108618798Y-142732923D01*
X108645486Y-142729555D01*
X108648043Y-142729583D01*
X109028932Y-142662581D01*
X109028934Y-142662580D01*
X109032250Y-142661997D01*
X109049402Y-142660500D01*
X110039307Y-142660500D01*
X110039309Y-142660500D01*
X110143026Y-142632709D01*
X110153887Y-142629799D01*
X110256614Y-142570489D01*
X116007608Y-136819496D01*
X116062125Y-136791719D01*
X116077612Y-136790500D01*
X136846737Y-136790500D01*
X136846739Y-136790500D01*
X136943772Y-136764500D01*
X136961317Y-136759799D01*
X136961319Y-136759797D01*
X136961321Y-136759797D01*
X137064039Y-136700492D01*
X137064039Y-136700491D01*
X137064044Y-136700489D01*
X137595179Y-136169352D01*
X137630802Y-136146519D01*
X138792965Y-135716219D01*
X138804219Y-135712800D01*
X138806830Y-135712172D01*
X138806839Y-135712171D01*
X138979069Y-135656211D01*
X139140424Y-135573996D01*
X139277978Y-135474057D01*
X139336166Y-135455150D01*
X139394357Y-135474057D01*
G37*
%TD.AperFunction*%
%TA.AperFunction,Conductor*%
G36*
X168007203Y-154015052D02*
G01*
X168053737Y-154054780D01*
X168062175Y-154072148D01*
X168133774Y-154265523D01*
X168137196Y-154276775D01*
X168137828Y-154279406D01*
X168193788Y-154451637D01*
X168232806Y-154528215D01*
X168276004Y-154612994D01*
X168382447Y-154759501D01*
X168510499Y-154887553D01*
X168657006Y-154993996D01*
X168818361Y-155076211D01*
X168990591Y-155132171D01*
X169062136Y-155143502D01*
X169169451Y-155160500D01*
X169169454Y-155160500D01*
X169350549Y-155160500D01*
X169439977Y-155146335D01*
X169529409Y-155132171D01*
X169701639Y-155076211D01*
X169862994Y-154993996D01*
X170000550Y-154894055D01*
X170058737Y-154875149D01*
X170116928Y-154894056D01*
X170152892Y-154943556D01*
X170152893Y-155004741D01*
X170128742Y-155044152D01*
X169541394Y-155631503D01*
X169486877Y-155659281D01*
X169471390Y-155660500D01*
X152307812Y-155660500D01*
X152249621Y-155641593D01*
X152213657Y-155592093D01*
X152213657Y-155530907D01*
X152220180Y-155516725D01*
X152219660Y-155516460D01*
X152221780Y-155512297D01*
X152303641Y-155351639D01*
X152359601Y-155179409D01*
X152387930Y-155000546D01*
X152387930Y-154819454D01*
X152387930Y-154819450D01*
X152359601Y-154640593D01*
X152359601Y-154640591D01*
X152303641Y-154468361D01*
X152221426Y-154307006D01*
X152219660Y-154303540D01*
X152221527Y-154302588D01*
X152209130Y-154250569D01*
X152232638Y-154194080D01*
X152284860Y-154162197D01*
X152307812Y-154159500D01*
X159765644Y-154159500D01*
X159823835Y-154178407D01*
X159836202Y-154189055D01*
X160461058Y-154823924D01*
X160488401Y-154878660D01*
X160489500Y-154893362D01*
X160489500Y-154904857D01*
X160489501Y-154904865D01*
X160492414Y-154929990D01*
X160517756Y-154987385D01*
X160537794Y-155032765D01*
X160617235Y-155112206D01*
X160720009Y-155157585D01*
X160745135Y-155160500D01*
X162534864Y-155160499D01*
X162559991Y-155157585D01*
X162662765Y-155112206D01*
X162742206Y-155032765D01*
X162787585Y-154929991D01*
X162790500Y-154904865D01*
X162790499Y-154106963D01*
X162809406Y-154048774D01*
X162858906Y-154012810D01*
X162920092Y-154012810D01*
X162969592Y-154048774D01*
X162982340Y-154072590D01*
X163053775Y-154265523D01*
X163057196Y-154276775D01*
X163057828Y-154279406D01*
X163113788Y-154451637D01*
X163152806Y-154528215D01*
X163196004Y-154612994D01*
X163302447Y-154759501D01*
X163430499Y-154887553D01*
X163577006Y-154993996D01*
X163738361Y-155076211D01*
X163910591Y-155132171D01*
X163982136Y-155143502D01*
X164089451Y-155160500D01*
X164089454Y-155160500D01*
X164270549Y-155160500D01*
X164359977Y-155146335D01*
X164449409Y-155132171D01*
X164621639Y-155076211D01*
X164782994Y-154993996D01*
X164929501Y-154887553D01*
X165057553Y-154759501D01*
X165163996Y-154612994D01*
X165246211Y-154451639D01*
X165302171Y-154279409D01*
X165330500Y-154100546D01*
X165330500Y-154100540D01*
X165330639Y-154098774D01*
X165330869Y-154098217D01*
X165331109Y-154096704D01*
X165331472Y-154096761D01*
X165354043Y-154042242D01*
X165406206Y-154010263D01*
X165467203Y-154015052D01*
X165513737Y-154054780D01*
X165522175Y-154072148D01*
X165593774Y-154265523D01*
X165597196Y-154276775D01*
X165597828Y-154279406D01*
X165653788Y-154451637D01*
X165692806Y-154528215D01*
X165736004Y-154612994D01*
X165842447Y-154759501D01*
X165970499Y-154887553D01*
X166117006Y-154993996D01*
X166278361Y-155076211D01*
X166450591Y-155132171D01*
X166522136Y-155143502D01*
X166629451Y-155160500D01*
X166629454Y-155160500D01*
X166810549Y-155160500D01*
X166899977Y-155146335D01*
X166989409Y-155132171D01*
X167161639Y-155076211D01*
X167322994Y-154993996D01*
X167469501Y-154887553D01*
X167597553Y-154759501D01*
X167703996Y-154612994D01*
X167786211Y-154451639D01*
X167842171Y-154279409D01*
X167870500Y-154100546D01*
X167870500Y-154100540D01*
X167870639Y-154098774D01*
X167870869Y-154098217D01*
X167871109Y-154096704D01*
X167871472Y-154096761D01*
X167894043Y-154042242D01*
X167946206Y-154010263D01*
X168007203Y-154015052D01*
G37*
%TD.AperFunction*%
%TA.AperFunction,Conductor*%
G36*
X112105270Y-153831716D02*
G01*
X112144620Y-153777556D01*
X112241096Y-153588213D01*
X112270727Y-153497016D01*
X112306690Y-153447516D01*
X112364881Y-153428608D01*
X112423072Y-153447515D01*
X112459036Y-153497013D01*
X112463788Y-153511637D01*
X112544863Y-153670756D01*
X112546004Y-153672994D01*
X112652447Y-153819501D01*
X112780499Y-153947553D01*
X112927006Y-154053996D01*
X113088361Y-154136211D01*
X113260591Y-154192171D01*
X113328919Y-154202993D01*
X113439451Y-154220500D01*
X113439454Y-154220500D01*
X113620549Y-154220500D01*
X113731081Y-154202993D01*
X113799409Y-154192171D01*
X113971639Y-154136211D01*
X113971642Y-154136209D01*
X113971646Y-154136208D01*
X114075974Y-154083050D01*
X114136406Y-154073478D01*
X114190922Y-154101255D01*
X114218700Y-154155772D01*
X114209129Y-154216204D01*
X114190923Y-154241262D01*
X114021683Y-154410503D01*
X113967166Y-154438281D01*
X113951679Y-154439500D01*
X111688198Y-154439500D01*
X111630007Y-154420593D01*
X111594043Y-154371093D01*
X111594043Y-154309907D01*
X111630007Y-154260407D01*
X111643253Y-154252291D01*
X111697551Y-154224624D01*
X111751716Y-154185270D01*
X111119408Y-153552962D01*
X111182993Y-153535925D01*
X111297007Y-153470099D01*
X111390099Y-153377007D01*
X111455925Y-153262993D01*
X111472962Y-153199408D01*
X112105270Y-153831716D01*
G37*
%TD.AperFunction*%
%TA.AperFunction,Conductor*%
G36*
X164740580Y-150129407D02*
G01*
X164752393Y-150139496D01*
X167588744Y-152975847D01*
X167616521Y-153030364D01*
X167606950Y-153090796D01*
X167563685Y-153134061D01*
X167503253Y-153143632D01*
X167460552Y-153125945D01*
X167322994Y-153026004D01*
X167322993Y-153026003D01*
X167322991Y-153026002D01*
X167161637Y-152943788D01*
X166989398Y-152887825D01*
X166986765Y-152887193D01*
X166975520Y-152883774D01*
X166909960Y-152859500D01*
X166612836Y-152749487D01*
X165813376Y-152453480D01*
X165777747Y-152430643D01*
X165350892Y-152003788D01*
X164066614Y-150719511D01*
X164066611Y-150719509D01*
X164066610Y-150719508D01*
X164066609Y-150719507D01*
X163963890Y-150660202D01*
X163963888Y-150660201D01*
X163938359Y-150653360D01*
X163938359Y-150653361D01*
X163849309Y-150629500D01*
X147388121Y-150629500D01*
X147299071Y-150653361D01*
X147299070Y-150653360D01*
X147273539Y-150660202D01*
X147170820Y-150719507D01*
X147170819Y-150719508D01*
X144559682Y-153330643D01*
X144524053Y-153353480D01*
X143361899Y-153783777D01*
X143350642Y-153787199D01*
X143348026Y-153787827D01*
X143175792Y-153843788D01*
X143014438Y-153926002D01*
X142962593Y-153963669D01*
X142960493Y-153964351D01*
X142959121Y-153966080D01*
X142931580Y-153973744D01*
X142904402Y-153982575D01*
X142900176Y-153982485D01*
X142877697Y-153981524D01*
X142820366Y-153960148D01*
X142786550Y-153909157D01*
X142789163Y-153848028D01*
X142811919Y-153812612D01*
X146485037Y-150139496D01*
X146539554Y-150111719D01*
X146555041Y-150110500D01*
X164682389Y-150110500D01*
X164740580Y-150129407D01*
G37*
%TD.AperFunction*%
%TA.AperFunction,Conductor*%
G36*
X163620580Y-151549407D02*
G01*
X163632393Y-151559496D01*
X165048744Y-152975847D01*
X165076521Y-153030364D01*
X165066950Y-153090796D01*
X165023685Y-153134061D01*
X164963253Y-153143632D01*
X164920552Y-153125945D01*
X164782994Y-153026004D01*
X164782993Y-153026003D01*
X164782991Y-153026002D01*
X164621637Y-152943788D01*
X164449398Y-152887825D01*
X164446765Y-152887193D01*
X164435520Y-152883774D01*
X163273375Y-152453480D01*
X163237747Y-152430643D01*
X162826614Y-152019511D01*
X162826609Y-152019507D01*
X162723892Y-151960203D01*
X162723889Y-151960202D01*
X162723887Y-151960201D01*
X162685192Y-151949833D01*
X162685190Y-151949832D01*
X162637083Y-151936942D01*
X162609309Y-151929500D01*
X148628121Y-151929500D01*
X148513544Y-151960201D01*
X148513543Y-151960201D01*
X148513538Y-151960203D01*
X148500392Y-151967794D01*
X148500391Y-151967793D01*
X148410816Y-152019510D01*
X147099681Y-153330643D01*
X147064053Y-153353480D01*
X145901899Y-153783777D01*
X145890642Y-153787199D01*
X145888026Y-153787827D01*
X145715792Y-153843788D01*
X145554436Y-153926003D01*
X145554432Y-153926005D01*
X145520038Y-153950995D01*
X145517936Y-153951677D01*
X145516563Y-153953408D01*
X145489022Y-153961072D01*
X145461847Y-153969902D01*
X145457621Y-153969812D01*
X145455020Y-153969700D01*
X145430564Y-153968655D01*
X145373234Y-153947278D01*
X145339418Y-153896287D01*
X145342033Y-153835157D01*
X145364788Y-153799743D01*
X147605037Y-151559496D01*
X147659554Y-151531719D01*
X147675041Y-151530500D01*
X163562389Y-151530500D01*
X163620580Y-151549407D01*
G37*
%TD.AperFunction*%
%TA.AperFunction,Conductor*%
G36*
X160387296Y-152849407D02*
G01*
X160423260Y-152898907D01*
X160423260Y-152960093D01*
X160387296Y-153009593D01*
X160371176Y-153019115D01*
X159882979Y-153248282D01*
X159881198Y-153249118D01*
X159839130Y-153258500D01*
X149839121Y-153258500D01*
X149724544Y-153289201D01*
X149724543Y-153289201D01*
X149724541Y-153289202D01*
X149706366Y-153299696D01*
X149701604Y-153302446D01*
X149699785Y-153303496D01*
X149699783Y-153303497D01*
X149636838Y-153339837D01*
X149621714Y-153346941D01*
X148441899Y-153783777D01*
X148430642Y-153787199D01*
X148428026Y-153787827D01*
X148255789Y-153843789D01*
X148255783Y-153843791D01*
X148094441Y-153926000D01*
X148094437Y-153926003D01*
X148089921Y-153929284D01*
X148087824Y-153929965D01*
X148086454Y-153931691D01*
X148058914Y-153939356D01*
X148031729Y-153948187D01*
X148027510Y-153948097D01*
X147992617Y-153946606D01*
X147935286Y-153925231D01*
X147901468Y-153874241D01*
X147904080Y-153813112D01*
X147926840Y-153777692D01*
X148845038Y-152859496D01*
X148899554Y-152831719D01*
X148915041Y-152830500D01*
X160329105Y-152830500D01*
X160387296Y-152849407D01*
G37*
%TD.AperFunction*%
%TA.AperFunction,Conductor*%
G36*
X146315445Y-146399111D02*
G01*
X146358710Y-146442376D01*
X146369500Y-146487321D01*
X146369500Y-146518918D01*
X146398342Y-146663914D01*
X146440159Y-146764869D01*
X146454916Y-146800495D01*
X146537049Y-146923416D01*
X146641584Y-147027951D01*
X146764505Y-147110084D01*
X146901087Y-147166658D01*
X147046082Y-147195500D01*
X147046083Y-147195500D01*
X147193917Y-147195500D01*
X147193918Y-147195500D01*
X147193919Y-147195499D01*
X147193926Y-147195499D01*
X147239289Y-147186475D01*
X147300051Y-147193665D01*
X147344981Y-147235197D01*
X147356919Y-147295206D01*
X147331304Y-147350772D01*
X147328609Y-147353575D01*
X146861682Y-147820503D01*
X146807165Y-147848281D01*
X146791678Y-147849500D01*
X140083322Y-147849500D01*
X139951538Y-147849500D01*
X139873630Y-147870375D01*
X139824239Y-147883609D01*
X139710120Y-147949496D01*
X139710119Y-147949497D01*
X134359918Y-153299696D01*
X134327480Y-153321288D01*
X133199702Y-153783826D01*
X133191648Y-153786432D01*
X133191713Y-153786630D01*
X133188024Y-153787828D01*
X133188021Y-153787829D01*
X133126866Y-153807699D01*
X133015791Y-153843788D01*
X132911454Y-153896951D01*
X132851022Y-153906522D01*
X132796505Y-153878744D01*
X132768728Y-153824228D01*
X132778299Y-153763796D01*
X132796502Y-153738740D01*
X138985748Y-147549496D01*
X139040265Y-147521719D01*
X139055752Y-147520500D01*
X144955890Y-147520500D01*
X144955892Y-147520500D01*
X145083186Y-147486392D01*
X145083188Y-147486390D01*
X145083190Y-147486390D01*
X145197309Y-147420503D01*
X145197309Y-147420502D01*
X145197314Y-147420500D01*
X146200496Y-146417316D01*
X146255013Y-146389540D01*
X146315445Y-146399111D01*
G37*
%TD.AperFunction*%
%TA.AperFunction,Conductor*%
G36*
X131672146Y-135109407D02*
G01*
X131674093Y-135110859D01*
X131855925Y-135249907D01*
X132413722Y-135676457D01*
X132414728Y-135676993D01*
X132417492Y-135678710D01*
X132419593Y-135681200D01*
X132431858Y-135690283D01*
X132434663Y-135692204D01*
X132434665Y-135692206D01*
X132452172Y-135699936D01*
X132497767Y-135740736D01*
X132510672Y-135800545D01*
X132485958Y-135856517D01*
X132433065Y-135887273D01*
X132412183Y-135889500D01*
X115790691Y-135889500D01*
X115676114Y-135920201D01*
X115573386Y-135979510D01*
X112693209Y-138859688D01*
X109822393Y-141730504D01*
X109767876Y-141758281D01*
X109752389Y-141759500D01*
X109049409Y-141759500D01*
X109032258Y-141758003D01*
X108648142Y-141690434D01*
X108648040Y-141690416D01*
X108645062Y-141689907D01*
X108645060Y-141689907D01*
X108645055Y-141689906D01*
X108644545Y-141689917D01*
X108643496Y-141689789D01*
X108640372Y-141689557D01*
X108640382Y-141689412D01*
X108616896Y-141686566D01*
X108609185Y-141684500D01*
X108609183Y-141684500D01*
X108470817Y-141684500D01*
X108463107Y-141686566D01*
X108421302Y-141697767D01*
X108360200Y-141694564D01*
X108312651Y-141656058D01*
X108296816Y-141596958D01*
X108318743Y-141539836D01*
X108325666Y-141532146D01*
X114738317Y-135119496D01*
X114792834Y-135091719D01*
X114808321Y-135090500D01*
X131613955Y-135090500D01*
X131672146Y-135109407D01*
G37*
%TD.AperFunction*%
%TD*%
%TA.AperFunction,Conductor*%
%TO.N,/SDA_SDP_AS1*%
G36*
X108323626Y-138153238D02*
G01*
X108328376Y-138160487D01*
X108370525Y-138367668D01*
X108370525Y-138372332D01*
X108328376Y-138579512D01*
X108323369Y-138586936D01*
X108314884Y-138588703D01*
X107933996Y-138521701D01*
X107926442Y-138516893D01*
X107924323Y-138510178D01*
X107924323Y-138229821D01*
X107927750Y-138221548D01*
X107933994Y-138218298D01*
X108314886Y-138151296D01*
X108323626Y-138153238D01*
G37*
%TD.AperFunction*%
%TD*%
%TA.AperFunction,Conductor*%
%TO.N,/SDA_SDP_AS1*%
G36*
X104111189Y-140232136D02*
G01*
X105144441Y-140680499D01*
X105148056Y-140682958D01*
X105347983Y-140882885D01*
X105351410Y-140891158D01*
X105347983Y-140899431D01*
X105345697Y-140901210D01*
X104111768Y-141636071D01*
X104102906Y-141637360D01*
X104096060Y-141632530D01*
X103633650Y-140942211D01*
X103631893Y-140933431D01*
X103633644Y-140929198D01*
X104096809Y-140236367D01*
X104104255Y-140231394D01*
X104111189Y-140232136D01*
G37*
%TD.AperFunction*%
%TD*%
%TA.AperFunction,Conductor*%
%TO.N,/5V_DC_Rudder*%
G36*
X124089347Y-144390593D02*
G01*
X124091009Y-144391514D01*
X124618754Y-144742992D01*
X124622007Y-144746245D01*
X124973485Y-145273990D01*
X124975219Y-145282775D01*
X124970232Y-145290213D01*
X124968570Y-145291134D01*
X123858387Y-145793491D01*
X123849437Y-145793780D01*
X123845291Y-145791105D01*
X123573894Y-145519708D01*
X123570467Y-145511435D01*
X123571507Y-145506615D01*
X124073866Y-144396427D01*
X124080397Y-144390304D01*
X124089347Y-144390593D01*
G37*
%TD.AperFunction*%
%TD*%
%TA.AperFunction,Conductor*%
%TO.N,/5V_DC_Rudder*%
G36*
X104111113Y-147851964D02*
G01*
X105306482Y-148351994D01*
X105312792Y-148358348D01*
X105313667Y-148362788D01*
X105313667Y-148747211D01*
X105310240Y-148755484D01*
X105306482Y-148758005D01*
X104111115Y-149258034D01*
X104102160Y-149258065D01*
X104096880Y-149253751D01*
X103633358Y-148561509D01*
X103631604Y-148552729D01*
X103633359Y-148548490D01*
X103760677Y-148358348D01*
X104096880Y-147856247D01*
X104104329Y-147851282D01*
X104111113Y-147851964D01*
G37*
%TD.AperFunction*%
%TD*%
%TA.AperFunction,Conductor*%
%TO.N,/DC_GND*%
G36*
X112566562Y-151776281D02*
G01*
X112297081Y-152075003D01*
X112109293Y-151950707D01*
X111984997Y-151762919D01*
X112283719Y-151493438D01*
X112566562Y-151776281D01*
G37*
%TD.AperFunction*%
%TD*%
%TA.AperFunction,Conductor*%
%TO.N,/DC_GND*%
G36*
X112110707Y-151949293D02*
G01*
X112235003Y-152137081D01*
X111936281Y-152406562D01*
X111653438Y-152123719D01*
X111922919Y-151824997D01*
X112110707Y-151949293D01*
G37*
%TD.AperFunction*%
%TD*%
%TA.AperFunction,Conductor*%
%TO.N,/DC_GND*%
G36*
X178701000Y-143680000D02*
G01*
X178656105Y-143900677D01*
X178254323Y-143830000D01*
X178254323Y-143530000D01*
X178656105Y-143459323D01*
X178701000Y-143680000D01*
G37*
%TD.AperFunction*%
%TD*%
%TA.AperFunction,Conductor*%
%TO.N,/DC_GND*%
G36*
X163595677Y-138340000D02*
G01*
X163595677Y-138740000D01*
X163193895Y-138760677D01*
X163149000Y-138540000D01*
X163193895Y-138319323D01*
X163595677Y-138340000D01*
G37*
%TD.AperFunction*%
%TD*%
%TA.AperFunction,Conductor*%
%TO.N,/DC_GND*%
G36*
X120449587Y-150924101D02*
G01*
X120453562Y-150928665D01*
X120457629Y-150936982D01*
X120476355Y-151032976D01*
X120476305Y-151032993D01*
X120433339Y-150945131D01*
X120431567Y-150936045D01*
X120433347Y-150927269D01*
X120440811Y-150922321D01*
X120449587Y-150924101D01*
G37*
%TD.AperFunction*%
%TA.AperFunction,Conductor*%
G36*
X120653177Y-150856395D02*
G01*
X120618869Y-151028974D01*
X120440846Y-150850951D01*
X120433207Y-150811793D01*
X120653177Y-150856395D01*
G37*
%TD.AperFunction*%
%TA.AperFunction,Conductor*%
G36*
X120440846Y-150850951D02*
G01*
X120449551Y-150895578D01*
X120419199Y-150865225D01*
X120416617Y-150858992D01*
X120416538Y-150859008D01*
X120416461Y-150858617D01*
X120415772Y-150856952D01*
X120416020Y-150856353D01*
X120408722Y-150818939D01*
X120408722Y-150818827D01*
X120440846Y-150850951D01*
G37*
%TD.AperFunction*%
%TA.AperFunction,Conductor*%
G36*
X120391358Y-150801463D02*
G01*
X120394923Y-150808753D01*
X120395479Y-150817691D01*
X120389552Y-150824404D01*
X120380614Y-150824960D01*
X120376139Y-150822166D01*
X120370403Y-150816430D01*
X120336168Y-150746422D01*
X120336255Y-150746360D01*
X120391358Y-150801463D01*
G37*
%TD.AperFunction*%
%TD*%
%TA.AperFunction,Conductor*%
%TO.N,/DC_GND*%
G36*
X125676942Y-145683055D02*
G01*
X125820865Y-145826978D01*
X125461823Y-145726395D01*
X125538022Y-145544135D01*
X125676942Y-145683055D01*
G37*
%TD.AperFunction*%
%TD*%
%TA.AperFunction,Conductor*%
%TO.N,/DC_GND*%
G36*
X179145677Y-143530000D02*
G01*
X179145677Y-143830000D01*
X178743895Y-143900677D01*
X178699000Y-143680000D01*
X178743895Y-143459323D01*
X179145677Y-143530000D01*
G37*
%TD.AperFunction*%
%TD*%
%TA.AperFunction,Conductor*%
%TO.N,/DC_GND*%
G36*
X177340003Y-142897919D02*
G01*
X177215707Y-143085707D01*
X177027919Y-143210003D01*
X176793793Y-142875925D01*
X177005925Y-142663793D01*
X177340003Y-142897919D01*
G37*
%TD.AperFunction*%
%TD*%
%TA.AperFunction,Conductor*%
%TO.N,/DC_GND*%
G36*
X177636207Y-143294075D02*
G01*
X177424075Y-143506207D01*
X177089997Y-143272081D01*
X177214293Y-143084293D01*
X177402081Y-142959997D01*
X177636207Y-143294075D01*
G37*
%TD.AperFunction*%
%TD*%
%TA.AperFunction,Conductor*%
%TO.N,/DC_GND*%
G36*
X168600707Y-137670707D02*
G01*
X168474997Y-137857081D01*
X168085067Y-137687198D01*
X168297198Y-137475067D01*
X168556105Y-137449323D01*
X168600707Y-137670707D01*
G37*
%TD.AperFunction*%
%TD*%
%TA.AperFunction,Conductor*%
%TO.N,/DC_GND*%
G36*
X171665003Y-137657081D02*
G01*
X171408814Y-137820000D01*
X171408814Y-137520000D01*
X171319323Y-137513895D01*
X171541000Y-137470000D01*
X171665003Y-137657081D01*
G37*
%TD.AperFunction*%
%TD*%
%TA.AperFunction,Conductor*%
%TO.N,/DC_GND*%
G36*
X169045677Y-137520000D02*
G01*
X169045677Y-137820000D01*
X168643895Y-137890677D01*
X168599000Y-137670000D01*
X168643895Y-137449323D01*
X169045677Y-137520000D01*
G37*
%TD.AperFunction*%
%TD*%
%TA.AperFunction,Conductor*%
%TO.N,/5V_DC_Bico*%
G36*
X132614673Y-133747234D02*
G01*
X133450142Y-134581722D01*
X133453574Y-134589993D01*
X133450152Y-134598268D01*
X133450142Y-134598278D01*
X132614673Y-135432765D01*
X132606398Y-135436187D01*
X132599298Y-135433781D01*
X131762023Y-134793512D01*
X131757533Y-134785764D01*
X131757430Y-134784218D01*
X131757430Y-134395781D01*
X131760857Y-134387508D01*
X131762016Y-134386492D01*
X132599299Y-133746217D01*
X132607951Y-133743915D01*
X132614673Y-133747234D01*
G37*
%TD.AperFunction*%
%TD*%
%TA.AperFunction,Conductor*%
%TO.N,/5V_DC_Bico*%
G36*
X104384465Y-144496298D02*
G01*
X104656384Y-144768217D01*
X104659811Y-144776490D01*
X104659698Y-144778109D01*
X104465380Y-146168565D01*
X104460841Y-146176285D01*
X104452174Y-146178533D01*
X104451522Y-146178423D01*
X103634062Y-146016650D01*
X103626611Y-146011683D01*
X103626597Y-146011662D01*
X103164233Y-145317955D01*
X103162496Y-145309170D01*
X103167448Y-145301751D01*
X104369675Y-144494855D01*
X104378451Y-144493091D01*
X104384465Y-144496298D01*
G37*
%TD.AperFunction*%
%TD*%
%TA.AperFunction,Conductor*%
%TO.N,/SCL_AS0*%
G36*
X142353618Y-136389325D02*
G01*
X142570375Y-136698619D01*
X142575570Y-136706031D01*
X142577512Y-136714773D01*
X142574262Y-136721019D01*
X142376019Y-136919262D01*
X142367746Y-136922689D01*
X142361031Y-136920570D01*
X142067376Y-136714773D01*
X142044325Y-136698618D01*
X142039518Y-136691065D01*
X142041284Y-136682581D01*
X142157981Y-136506274D01*
X142161274Y-136502981D01*
X142337581Y-136386284D01*
X142346371Y-136384576D01*
X142353618Y-136389325D01*
G37*
%TD.AperFunction*%
%TD*%
%TA.AperFunction,Conductor*%
%TO.N,/SCL_AS0*%
G36*
X111181284Y-143258204D02*
G01*
X111451420Y-143342848D01*
X111456194Y-143345739D01*
X111652164Y-143541709D01*
X111655591Y-143549982D01*
X111652164Y-143558255D01*
X111647058Y-143561245D01*
X111181025Y-143692266D01*
X111172133Y-143691206D01*
X111166595Y-143684170D01*
X111166391Y-143683328D01*
X111124763Y-143478024D01*
X111124760Y-143473388D01*
X111166328Y-143267060D01*
X111171322Y-143259629D01*
X111180109Y-143257903D01*
X111181284Y-143258204D01*
G37*
%TD.AperFunction*%
%TD*%
%TA.AperFunction,Conductor*%
%TO.N,/SCL_AS0*%
G36*
X179798312Y-145521535D02*
G01*
X180261640Y-146213490D01*
X180263395Y-146222271D01*
X180261640Y-146226510D01*
X179798312Y-146918464D01*
X179790861Y-146923431D01*
X179783704Y-146922585D01*
X179423039Y-146756830D01*
X178588147Y-146373131D01*
X178582061Y-146366562D01*
X178581333Y-146362500D01*
X178581333Y-146077499D01*
X178584760Y-146069226D01*
X178588145Y-146066869D01*
X179783706Y-145517413D01*
X179792652Y-145517073D01*
X179798312Y-145521535D01*
G37*
%TD.AperFunction*%
%TD*%
%TA.AperFunction,Conductor*%
%TO.N,/SCL_AS0*%
G36*
X141008631Y-134575538D02*
G01*
X141070451Y-134587772D01*
X141077902Y-134592739D01*
X141079657Y-134596978D01*
X141241321Y-135413886D01*
X141239566Y-135422667D01*
X141233906Y-135427129D01*
X139999996Y-135883994D01*
X139991048Y-135883653D01*
X139987661Y-135881295D01*
X139786134Y-135679768D01*
X139782707Y-135671495D01*
X139783434Y-135667438D01*
X140240301Y-134433521D01*
X140246386Y-134426954D01*
X140253541Y-134426108D01*
X141008631Y-134575538D01*
G37*
%TD.AperFunction*%
%TD*%
%TA.AperFunction,Conductor*%
%TO.N,/5V_DC_Under*%
G36*
X111634485Y-149872838D02*
G01*
X111638113Y-149879193D01*
X111680525Y-150087668D01*
X111680525Y-150092332D01*
X111638113Y-150300806D01*
X111633106Y-150308230D01*
X111626047Y-150310159D01*
X111245422Y-150290571D01*
X111237336Y-150286723D01*
X111234323Y-150278886D01*
X111234323Y-149901113D01*
X111237750Y-149892840D01*
X111245419Y-149889428D01*
X111626048Y-149869840D01*
X111634485Y-149872838D01*
G37*
%TD.AperFunction*%
%TD*%
%TA.AperFunction,Conductor*%
%TO.N,/5V_DC_Under*%
G36*
X105260689Y-149894453D02*
G01*
X105265593Y-149901946D01*
X105265797Y-149904120D01*
X105265797Y-150286694D01*
X105264068Y-150292816D01*
X104485872Y-151560356D01*
X104478623Y-151565613D01*
X104470199Y-151564451D01*
X103633237Y-151097364D01*
X103627683Y-151090341D01*
X103392349Y-150257300D01*
X103393397Y-150248408D01*
X103400427Y-150242861D01*
X103401425Y-150242626D01*
X105251923Y-149892624D01*
X105260689Y-149894453D01*
G37*
%TD.AperFunction*%
%TD*%
%TA.AperFunction,Conductor*%
%TO.N,/MISO_SD0*%
G36*
X144703811Y-153616346D02*
G01*
X144707198Y-153618704D01*
X144908725Y-153820231D01*
X144912152Y-153828504D01*
X144911424Y-153832566D01*
X144454559Y-155066476D01*
X144448473Y-155073045D01*
X144441316Y-155073891D01*
X143624408Y-154912227D01*
X143616957Y-154907260D01*
X143615202Y-154903021D01*
X143453538Y-154086113D01*
X143455293Y-154077332D01*
X143460950Y-154072872D01*
X144694865Y-153616005D01*
X144703811Y-153616346D01*
G37*
%TD.AperFunction*%
%TD*%
%TA.AperFunction,Conductor*%
%TO.N,/MISO_SD0*%
G36*
X165642562Y-152716004D02*
G01*
X166876477Y-153172871D01*
X166883045Y-153178956D01*
X166883891Y-153186113D01*
X166722227Y-154003021D01*
X166717260Y-154010472D01*
X166713021Y-154012227D01*
X165896113Y-154173891D01*
X165887332Y-154172136D01*
X165882871Y-154166477D01*
X165426005Y-152932564D01*
X165426346Y-152923618D01*
X165428701Y-152920234D01*
X165630232Y-152718703D01*
X165638504Y-152715277D01*
X165642562Y-152716004D01*
G37*
%TD.AperFunction*%
%TD*%
%TA.AperFunction,Conductor*%
%TO.N,/MOSI_SD0*%
G36*
X142163811Y-153616346D02*
G01*
X142167198Y-153618704D01*
X142368725Y-153820231D01*
X142372152Y-153828504D01*
X142371424Y-153832566D01*
X141914559Y-155066476D01*
X141908473Y-155073045D01*
X141901316Y-155073891D01*
X141084408Y-154912227D01*
X141076957Y-154907260D01*
X141075202Y-154903021D01*
X140913538Y-154086113D01*
X140915293Y-154077332D01*
X140920950Y-154072872D01*
X142154865Y-153616005D01*
X142163811Y-153616346D01*
G37*
%TD.AperFunction*%
%TD*%
%TA.AperFunction,Conductor*%
%TO.N,/MOSI_SD0*%
G36*
X168182562Y-152716004D02*
G01*
X169416477Y-153172871D01*
X169423045Y-153178956D01*
X169423891Y-153186113D01*
X169262227Y-154003021D01*
X169257260Y-154010472D01*
X169253021Y-154012227D01*
X168436113Y-154173891D01*
X168427332Y-154172136D01*
X168422871Y-154166477D01*
X167966005Y-152932564D01*
X167966346Y-152923618D01*
X167968701Y-152920234D01*
X168170232Y-152718703D01*
X168178504Y-152715277D01*
X168182562Y-152716004D01*
G37*
%TD.AperFunction*%
%TD*%
%TA.AperFunction,Conductor*%
%TO.N,/CS_SD0*%
G36*
X147243811Y-153616346D02*
G01*
X147247198Y-153618704D01*
X147448725Y-153820231D01*
X147452152Y-153828504D01*
X147451424Y-153832566D01*
X146994559Y-155066476D01*
X146988473Y-155073045D01*
X146981316Y-155073891D01*
X146164408Y-154912227D01*
X146156957Y-154907260D01*
X146155202Y-154903021D01*
X145993538Y-154086113D01*
X145995293Y-154077332D01*
X146000950Y-154072872D01*
X147234865Y-153616005D01*
X147243811Y-153616346D01*
G37*
%TD.AperFunction*%
%TD*%
%TA.AperFunction,Conductor*%
%TO.N,/CS_SD0*%
G36*
X163102562Y-152716004D02*
G01*
X164336477Y-153172871D01*
X164343045Y-153178956D01*
X164343891Y-153186113D01*
X164182227Y-154003021D01*
X164177260Y-154010472D01*
X164173021Y-154012227D01*
X163356113Y-154173891D01*
X163347332Y-154172136D01*
X163342871Y-154166477D01*
X162886005Y-152932564D01*
X162886346Y-152923618D01*
X162888701Y-152920234D01*
X163090232Y-152718703D01*
X163098504Y-152715277D01*
X163102562Y-152716004D01*
G37*
%TD.AperFunction*%
%TD*%
%TA.AperFunction,Conductor*%
%TO.N,/CLK_SD0*%
G36*
X160795808Y-153165801D02*
G01*
X161631951Y-154000962D01*
X161635383Y-154009233D01*
X161631961Y-154017508D01*
X161631195Y-154018210D01*
X160798277Y-154715685D01*
X160789734Y-154718369D01*
X160782426Y-154714922D01*
X159943361Y-153862414D01*
X159940000Y-153854207D01*
X159940000Y-153566432D01*
X159943427Y-153558159D01*
X159946724Y-153555843D01*
X160782569Y-153163487D01*
X160791514Y-153163074D01*
X160795808Y-153165801D01*
G37*
%TD.AperFunction*%
%TD*%
%TA.AperFunction,Conductor*%
%TO.N,/CLK_SD0*%
G36*
X149783811Y-153616346D02*
G01*
X149787198Y-153618704D01*
X149988725Y-153820231D01*
X149992152Y-153828504D01*
X149991424Y-153832566D01*
X149534559Y-155066476D01*
X149528473Y-155073045D01*
X149521316Y-155073891D01*
X148704408Y-154912227D01*
X148696957Y-154907260D01*
X148695202Y-154903021D01*
X148533538Y-154086113D01*
X148535293Y-154077332D01*
X148540950Y-154072872D01*
X149774865Y-153616005D01*
X149783811Y-153616346D01*
G37*
%TD.AperFunction*%
%TD*%
%TA.AperFunction,Conductor*%
%TO.N,/TX_GPS*%
G36*
X134508290Y-153581032D02*
G01*
X134512048Y-153583553D01*
X134783876Y-153855381D01*
X134787303Y-153863654D01*
X134786428Y-153868094D01*
X134294749Y-155066921D01*
X134288439Y-155073275D01*
X134281653Y-155073958D01*
X133464408Y-154912227D01*
X133456957Y-154907260D01*
X133455202Y-154903021D01*
X133447836Y-154865801D01*
X133293471Y-154085774D01*
X133295226Y-154076995D01*
X133300506Y-154072681D01*
X134499336Y-153581001D01*
X134508290Y-153581032D01*
G37*
%TD.AperFunction*%
%TD*%
%TA.AperFunction,Conductor*%
%TO.N,/TX_GPS*%
G36*
X165364448Y-141822849D02*
G01*
X165368124Y-141829248D01*
X165410525Y-142037668D01*
X165410525Y-142042333D01*
X165368101Y-142250862D01*
X165363094Y-142258285D01*
X165356100Y-142260217D01*
X164975487Y-142242751D01*
X164967379Y-142238948D01*
X164964323Y-142231063D01*
X164964323Y-141853290D01*
X164967750Y-141845017D01*
X164975355Y-141841609D01*
X165355994Y-141819899D01*
X165364448Y-141822849D01*
G37*
%TD.AperFunction*%
%TD*%
%TA.AperFunction,Conductor*%
%TO.N,/RX_GPS*%
G36*
X149901317Y-141710556D02*
G01*
X150078722Y-141827979D01*
X150082020Y-141831277D01*
X150199443Y-142008682D01*
X150201152Y-142017473D01*
X150197524Y-142023827D01*
X149914532Y-142279117D01*
X149906094Y-142282115D01*
X149898422Y-142278703D01*
X149631296Y-142011577D01*
X149627869Y-142003304D01*
X149630882Y-141995467D01*
X149886173Y-141712474D01*
X149894258Y-141708627D01*
X149901317Y-141710556D01*
G37*
%TD.AperFunction*%
%TD*%
%TA.AperFunction,Conductor*%
%TO.N,/RX_GPS*%
G36*
X131968290Y-153581032D02*
G01*
X131972048Y-153583553D01*
X132243876Y-153855381D01*
X132247303Y-153863654D01*
X132246428Y-153868094D01*
X131754749Y-155066921D01*
X131748439Y-155073275D01*
X131741653Y-155073958D01*
X130924408Y-154912227D01*
X130916957Y-154907260D01*
X130915202Y-154903021D01*
X130907836Y-154865801D01*
X130753471Y-154085774D01*
X130755226Y-154076995D01*
X130760506Y-154072681D01*
X131959336Y-153581001D01*
X131968290Y-153581032D01*
G37*
%TD.AperFunction*%
%TD*%
%TA.AperFunction,Conductor*%
%TO.N,/5V_DC_ICS*%
G36*
X110151082Y-145519202D02*
G01*
X110986518Y-145868128D01*
X110992831Y-145874478D01*
X110992838Y-145874494D01*
X111334431Y-146709397D01*
X111334392Y-146718351D01*
X111328259Y-146724560D01*
X109548258Y-147496902D01*
X109539305Y-147497052D01*
X109532868Y-147490826D01*
X109531901Y-147486169D01*
X109531901Y-147106163D01*
X109532673Y-147101982D01*
X109678816Y-146720000D01*
X110135691Y-145525835D01*
X110141848Y-145519334D01*
X110150800Y-145519089D01*
X110151082Y-145519202D01*
G37*
%TD.AperFunction*%
%TD*%
%TA.AperFunction,Conductor*%
%TO.N,/5V_DC_ICS*%
G36*
X102140860Y-147226032D02*
G01*
X102144618Y-147228553D01*
X102416446Y-147500381D01*
X102419873Y-147508654D01*
X102418998Y-147513094D01*
X101927319Y-148711921D01*
X101921009Y-148718275D01*
X101914223Y-148718958D01*
X101096978Y-148557227D01*
X101089527Y-148552260D01*
X101087772Y-148548021D01*
X101080406Y-148510801D01*
X100926041Y-147730774D01*
X100927796Y-147721995D01*
X100933076Y-147717681D01*
X102131906Y-147226001D01*
X102140860Y-147226032D01*
G37*
%TD.AperFunction*%
%TD*%
%TA.AperFunction,Conductor*%
%TO.N,/SCL_BNO*%
G36*
X108976004Y-142058298D02*
G01*
X108983558Y-142063106D01*
X108985677Y-142069821D01*
X108985677Y-142350178D01*
X108982250Y-142358451D01*
X108976004Y-142361701D01*
X108595115Y-142428703D01*
X108586373Y-142426761D01*
X108581623Y-142419513D01*
X108539474Y-142212329D01*
X108539474Y-142207668D01*
X108569516Y-142060000D01*
X108581624Y-142000485D01*
X108586630Y-141993063D01*
X108595113Y-141991296D01*
X108976004Y-142058298D01*
G37*
%TD.AperFunction*%
%TD*%
%TA.AperFunction,Conductor*%
%TO.N,/SCL_BNO*%
G36*
X179798312Y-148061535D02*
G01*
X180261640Y-148753490D01*
X180263395Y-148762271D01*
X180261640Y-148766510D01*
X179798312Y-149458464D01*
X179790861Y-149463431D01*
X179783704Y-149462585D01*
X179423039Y-149296830D01*
X178588147Y-148913131D01*
X178582061Y-148906562D01*
X178581333Y-148902500D01*
X178581333Y-148617499D01*
X178584760Y-148609226D01*
X178588145Y-148606869D01*
X179783706Y-148057413D01*
X179792652Y-148057073D01*
X179798312Y-148061535D01*
G37*
%TD.AperFunction*%
%TD*%
%TA.AperFunction,Conductor*%
%TO.N,/SCL_BNO*%
G36*
X141603618Y-137294325D02*
G01*
X141820375Y-137603619D01*
X141825570Y-137611031D01*
X141827512Y-137619773D01*
X141824262Y-137626019D01*
X141626019Y-137824262D01*
X141617746Y-137827689D01*
X141611031Y-137825570D01*
X141317376Y-137619773D01*
X141294325Y-137603618D01*
X141289518Y-137596065D01*
X141291284Y-137587581D01*
X141407981Y-137411274D01*
X141411274Y-137407981D01*
X141587581Y-137291284D01*
X141596371Y-137289576D01*
X141603618Y-137294325D01*
G37*
%TD.AperFunction*%
%TD*%
%TA.AperFunction,Conductor*%
%TO.N,/SCL_BNO*%
G36*
X138468631Y-134575538D02*
G01*
X138530451Y-134587772D01*
X138537902Y-134592739D01*
X138539657Y-134596978D01*
X138701321Y-135413886D01*
X138699566Y-135422667D01*
X138693906Y-135427129D01*
X137459996Y-135883994D01*
X137451048Y-135883653D01*
X137447661Y-135881295D01*
X137246134Y-135679768D01*
X137242707Y-135671495D01*
X137243434Y-135667438D01*
X137700301Y-134433521D01*
X137706386Y-134426954D01*
X137713541Y-134426108D01*
X138468631Y-134575538D01*
G37*
%TD.AperFunction*%
%TD*%
%TA.AperFunction,Conductor*%
%TO.N,/3V3_BNO*%
G36*
X116025801Y-153060406D02*
G01*
X116063021Y-153067772D01*
X116070472Y-153072739D01*
X116072227Y-153076978D01*
X116233958Y-153894223D01*
X116232203Y-153903004D01*
X116226921Y-153907319D01*
X115028094Y-154398998D01*
X115019139Y-154398967D01*
X115015381Y-154396446D01*
X114743553Y-154124618D01*
X114740126Y-154116345D01*
X114741001Y-154111905D01*
X114824909Y-153907319D01*
X115232681Y-152913076D01*
X115238990Y-152906724D01*
X115245773Y-152906041D01*
X116025801Y-153060406D01*
G37*
%TD.AperFunction*%
%TD*%
%TA.AperFunction,Conductor*%
%TO.N,/3V3_BNO*%
G36*
X101923004Y-150932796D02*
G01*
X101927319Y-150938078D01*
X102418998Y-152136905D01*
X102418967Y-152145860D01*
X102416446Y-152149618D01*
X102144618Y-152421446D01*
X102136345Y-152424873D01*
X102131905Y-152423998D01*
X100933078Y-151932319D01*
X100926724Y-151926009D01*
X100926041Y-151919226D01*
X101087772Y-151101977D01*
X101092739Y-151094527D01*
X101096977Y-151092772D01*
X101914225Y-150931041D01*
X101923004Y-150932796D01*
G37*
%TD.AperFunction*%
%TD*%
%TA.AperFunction,Conductor*%
%TO.N,/3V3_BNO*%
G36*
X171731201Y-153995538D02*
G01*
X171793021Y-154007772D01*
X171800472Y-154012739D01*
X171802227Y-154016978D01*
X171963891Y-154833886D01*
X171962136Y-154842667D01*
X171956476Y-154847129D01*
X170722566Y-155303994D01*
X170713618Y-155303653D01*
X170710231Y-155301295D01*
X170508704Y-155099768D01*
X170505277Y-155091495D01*
X170506004Y-155087438D01*
X170962871Y-153853521D01*
X170968956Y-153846954D01*
X170976111Y-153846108D01*
X171731201Y-153995538D01*
G37*
%TD.AperFunction*%
%TD*%
%TA.AperFunction,Conductor*%
%TO.N,/3V3_BNO*%
G36*
X140011577Y-136841296D02*
G01*
X140278703Y-137108422D01*
X140282130Y-137116695D01*
X140279117Y-137124532D01*
X140023827Y-137407524D01*
X140015741Y-137411372D01*
X140008682Y-137409443D01*
X139831277Y-137292020D01*
X139827979Y-137288722D01*
X139710556Y-137111317D01*
X139708847Y-137102526D01*
X139712473Y-137096174D01*
X139995467Y-136840881D01*
X140003905Y-136837884D01*
X140011577Y-136841296D01*
G37*
%TD.AperFunction*%
%TD*%
%TA.AperFunction,Conductor*%
%TO.N,/3V3_BNO*%
G36*
X116902667Y-152907863D02*
G01*
X116907129Y-152913523D01*
X117021884Y-153223458D01*
X117022213Y-153230548D01*
X116994500Y-153333979D01*
X116994500Y-153446020D01*
X117023495Y-153554235D01*
X117023497Y-153554239D01*
X117079512Y-153651259D01*
X117079514Y-153651262D01*
X117079515Y-153651263D01*
X117158737Y-153730485D01*
X117219794Y-153765736D01*
X117224915Y-153771806D01*
X117363994Y-154147433D01*
X117363653Y-154156381D01*
X117361295Y-154159768D01*
X117159768Y-154361295D01*
X117151495Y-154364722D01*
X117147433Y-154363994D01*
X115913522Y-153907128D01*
X115906954Y-153901043D01*
X115906108Y-153893887D01*
X116067772Y-153076977D01*
X116072739Y-153069527D01*
X116076977Y-153067772D01*
X116893887Y-152906108D01*
X116902667Y-152907863D01*
G37*
%TD.AperFunction*%
%TD*%
%TA.AperFunction,Conductor*%
%TO.N,/3V3_BNO*%
G36*
X163107243Y-135037234D02*
G01*
X163942712Y-135871722D01*
X163946144Y-135879993D01*
X163942722Y-135888268D01*
X163942712Y-135888278D01*
X163107243Y-136722765D01*
X163098968Y-136726187D01*
X163091868Y-136723781D01*
X162254593Y-136083512D01*
X162250103Y-136075764D01*
X162250000Y-136074218D01*
X162250000Y-135685781D01*
X162253427Y-135677508D01*
X162254586Y-135676492D01*
X163091869Y-135036217D01*
X163100521Y-135033915D01*
X163107243Y-135037234D01*
G37*
%TD.AperFunction*%
%TD*%
M02*
