M48
; DRILL file {KiCad 9.0.5} date 2025-11-06T16:05:15+0900
; FORMAT={-:-/ absolute / metric / decimal}
; #@! TF.CreationDate,2025-11-06T16:05:15+09:00
; #@! TF.GenerationSoftware,Kicad,Pcbnew,9.0.5
; #@! TF.FileFunction,MixedPlating,1,2
FMAT,2
METRIC
; #@! TA.AperFunction,Plated,PTH,ViaDrill
T1C0.300
; #@! TA.AperFunction,Plated,PTH,ComponentDrill
T2C0.700
; #@! TA.AperFunction,Plated,PTH,ComponentDrill
T3C1.000
%
G90
G05
T1
X100.63Y-137.11
X101.6Y-136.07
X102.22Y-150.26
X102.36Y-149.15
X102.37Y-141.53
X102.41Y-144.66
X102.81Y-134.68
X103.29Y-136.51
X103.53Y-152.49
X104.17Y-156.06
X104.33Y-133.45
X104.95Y-152.49
X104.97Y-146.56
X105.06Y-138.34
X105.18Y-145.38
X105.26Y-154.16
X105.31Y-149.34
X105.4Y-142.83
X105.41Y-151.06
X105.66Y-134.11
X105.74Y-139.29
X105.85Y-147.93
X105.91Y-155.65
X105.94Y-135.92
X106.07Y-144.18
X106.69Y-146.54
X106.91Y-138.1
X106.98Y-140.32
X107.09Y-151.67
X107.1Y-154.18
X107.31Y-145.58
X107.39Y-156.05
X108.19Y-144.3
X108.22Y-134.15
X108.37Y-138.37
X108.39Y-149.32
X108.54Y-142.21
X108.775Y-150.855
X108.78Y-136.06
X108.78Y-139.03
X109.01Y-155.7
X109.15Y-146.51
X110.12Y-140.45
X110.19Y-147.8
X110.38Y-137.67
X110.41Y-144.25
X110.43Y-156.06
X110.91Y-150.89
X110.96Y-134.17
X111.125Y-143.475
X111.37Y-142.26
X111.53Y-139.03
X111.68Y-150.09
X112.1Y-135.88
X112.11Y-151.95
X112.31Y-143.75
X112.74Y-149.32
X113.06Y-140.42
X113.36Y-137.22
X113.61Y-144.36
X113.7Y-150.87
X113.88Y-134.12
X114.18Y-147.77
X114.19Y-141.93
X114.5Y-139.03
X114.78Y-152.22
X114.85Y-155.34
X115.19Y-135.55
X115.6Y-142.88
X115.63Y-140.5
X115.97Y-144.49
X116.27Y-137.33
X116.43Y-150.84
X116.85Y-149.34
X117.2Y-141.91
X117.4Y-155.39
X117.42Y-153.39
X117.44Y-144.91
X117.49Y-152.31
X117.54Y-147.75
X117.62Y-146.83
X118.08Y-154.05
X118.22Y-144.39
X118.88Y-135.51
X118.9Y-139.02
X118.92Y-137.14
X118.97Y-140.43
X119.25Y-152.54
X119.28Y-145.12
X119.31Y-155.4
X119.42Y-142.68
X119.55Y-146.7
X120.28Y-147.77
X120.432Y-150.812
X120.64Y-154.04
X121.0Y-149.29
X121.68Y-143.81
X122.17Y-152.19
X122.27Y-155.36
X122.33Y-146.01
X122.59Y-141.95
X122.91Y-147.55
X123.01Y-140.43
X123.06Y-137.14
X123.06Y-138.99
X123.1Y-135.55
X123.28Y-154.05
X123.52Y-143.91
X123.92Y-150.86
X123.94Y-155.27
X124.56Y-152.98
X124.59Y-141.97
X124.86Y-149.34
X125.49Y-143.78
X125.682Y-145.683
X125.94Y-151.96
X126.42Y-147.87
X126.51Y-146.57
X126.81Y-141.92
X126.87Y-139.06
X126.88Y-137.15
X126.89Y-135.5
X126.97Y-140.46
X127.25Y-152.95
X127.84Y-150.96
X128.01Y-144.23
X128.22Y-153.43
X128.25Y-149.34
X129.2Y-143.1
X129.65Y-155.45
X129.69Y-154.06
X130.02Y-147.9
X130.1Y-151.86
X130.44Y-146.03
X130.46Y-135.51
X130.46Y-137.18
X130.46Y-139.06
X130.51Y-140.46
X131.01Y-144.19
X131.17Y-153.33
X131.7Y-149.3
X132.03Y-135.65
X132.04Y-152.7
X132.31Y-150.81
X132.42Y-141.95
X133.34Y-153.53
X133.64Y-151.11
X133.66Y-147.19
X133.78Y-149.66
X133.87Y-145.75
X134.0Y-140.43
X134.03Y-139.11
X134.07Y-144.17
X134.08Y-137.15
X134.97Y-143.24
X135.22Y-149.56
X135.28Y-151.72
X135.38Y-147.84
X136.1Y-145.01
X136.33Y-146.89
X136.74Y-152.79
X136.77Y-150.36
X137.07Y-139.02
X137.13Y-140.43
X137.26Y-154.29
X137.32Y-145.92
X137.37Y-137.12
X137.55Y-141.9
X137.76Y-149.3
X137.78Y-151.67
X139.47Y-139.04
X139.51Y-153.71
X139.83Y-137.29
X140.35Y-149.13
X140.38Y-140.46
X140.44Y-145.5
X140.81Y-152.46
X141.27Y-147.725
X141.37Y-153.19
X141.41Y-137.41
X142.01Y-141.88
X142.05Y-139.04
X142.16Y-136.505
X142.3Y-146.08
X142.36Y-150.08
X143.14Y-151.66
X143.41Y-140.44
X143.41Y-153.52
X143.86Y-147.68
X144.13Y-137.43
X144.33Y-136.64
X144.49Y-143.83
X144.56Y-146.24
X145.12Y-141.49
X145.16Y-136.62
X145.35Y-151.9
X145.51Y-138.85
X145.58Y-149.22
X145.83Y-137.96
X146.03Y-153.53
X146.25Y-140.19
X146.7Y-147.6
X146.75Y-137.75
X146.82Y-144.02
X146.85Y-150.37
X146.86Y-136.64
X147.56Y-145.52
X147.66Y-138.87
X147.72Y-148.84
X147.88Y-136.67
X148.01Y-142.57
X148.03Y-151.82
X148.44Y-140.17
X148.48Y-153.53
X149.33Y-153.12
X149.36Y-141.47
X149.48Y-136.6
X149.51Y-137.83
X149.58Y-146.9
X149.64Y-150.36
X149.71Y-138.86
X150.08Y-141.83
X150.43Y-142.6
X150.55Y-151.74
X150.58Y-153.04
X150.7Y-140.17
X150.8Y-148.87
X151.29Y-145.25
X151.71Y-137.93
X151.77Y-136.7
X151.98Y-138.85
X152.03Y-133.44
X152.06Y-153.04
X152.1Y-142.21
X152.15Y-150.34
X152.27Y-146.17
X152.52Y-155.47
X152.56Y-135.1
X152.75Y-140.18
X152.82Y-154.76
X152.83Y-143.69
X153.29Y-141.36
X153.38Y-148.92
X153.41Y-151.74
X153.59Y-147.13
X154.11Y-153.04
X154.23Y-136.69
X154.24Y-138.8
X154.57Y-155.33
X154.75Y-133.55
X154.75Y-150.33
X155.44Y-151.73
X155.53Y-138.29
X156.09Y-148.97
X156.1Y-142.7
X156.26Y-152.99
X156.28Y-140.18
X156.46Y-154.41
X156.63Y-135.17
X156.76Y-150.42
X156.81Y-136.62
X156.85Y-147.74
X157.028Y-143.647
X157.13Y-138.87
X157.13Y-146.17
X157.72Y-141.37
X158.04Y-151.7
X158.26Y-153.04
X158.34Y-148.91
X158.46Y-133.49
X158.71Y-155.37
X158.96Y-138.2
X159.02Y-150.4
X159.23Y-143.76
X159.57Y-136.65
X159.74Y-153.02
X159.86Y-140.19
X159.86Y-154.63
X160.42Y-135.17
X160.46Y-151.69
X161.04Y-138.81
X161.16Y-142.75
X161.74Y-150.43
X161.91Y-145.18
X161.96Y-147.71
X162.08Y-136.73
X162.26Y-134.97
X162.27Y-133.49
X162.44Y-141.37
X163.15Y-138.54
X163.23Y-151.82
X163.26Y-140.19
X164.15Y-134.24
X164.29Y-152.59
X164.3Y-150.36
X164.77Y-138.87
X164.88Y-142.82
X165.07Y-148.88
X165.34Y-133.44
X165.41Y-142.04
X165.52Y-151.51
X165.69Y-147.77
X165.7Y-145.27
X166.31Y-140.17
X166.84Y-152.58
X167.09Y-141.54
X167.23Y-138.59
X167.64Y-151.08
X168.03Y-149.19
X168.37Y-140.31
X168.6Y-137.67
X168.86Y-143.52
X169.01Y-152.41
X169.04Y-141.14
X169.14Y-147.64
X169.79Y-138.85
X169.81Y-140.4
X170.78Y-152.81
X170.79Y-145.48
X170.94Y-151.04
X171.12Y-149.28
X171.27Y-141.77
X171.54Y-137.47
X171.71Y-143.92
X171.96Y-140.32
X172.49Y-149.97
X172.53Y-134.74
X172.56Y-151.52
X172.89Y-147.26
X172.94Y-153.22
X173.51Y-138.74
X173.72Y-144.17
X173.76Y-133.48
X173.97Y-142.38
X174.04Y-136.32
X174.08Y-146.34
X174.08Y-148.33
X174.34Y-150.72
X174.34Y-152.4
X175.15Y-147.31
X175.43Y-135.15
X175.54Y-140.55
X175.74Y-137.85
X175.99Y-146.46
X176.01Y-144.36
X176.05Y-149.56
X176.11Y-151.11
X177.08Y-145.41
X177.215Y-143.085
X177.34Y-133.62
X177.34Y-136.6
X177.36Y-135.12
X177.45Y-147.58
X177.62Y-139.69
X177.83Y-155.79
X177.98Y-152.44
X178.34Y-141.33
X178.41Y-144.89
X178.7Y-143.68
X178.95Y-149.69
X179.41Y-145.06
X179.55Y-147.46
X180.12Y-139.45
X180.31Y-137.69
X180.37Y-135.27
X180.41Y-133.62
X181.53Y-139.68
T2
X120.62Y-144.745
X122.62Y-144.745
X124.62Y-144.745
X126.62Y-144.745
X139.62Y-144.745
X141.62Y-144.745
X143.62Y-144.745
X145.62Y-144.745
X156.62Y-144.745
X158.62Y-144.745
T3
X101.09Y-138.395
X101.09Y-140.935
X101.09Y-143.475
X101.09Y-146.015
X101.09Y-148.555
X101.09Y-151.095
X103.63Y-138.395
X103.63Y-140.935
X103.63Y-143.475
X103.63Y-146.015
X103.63Y-148.555
X103.63Y-151.095
X108.45Y-153.07
X110.99Y-145.87
X110.99Y-153.07
X113.53Y-145.87
X113.53Y-153.07
X116.07Y-145.87
X116.07Y-153.07
X125.837Y-154.91
X128.377Y-154.91
X130.917Y-154.91
X133.457Y-134.59
X133.457Y-154.91
X135.997Y-134.59
X135.997Y-154.91
X138.537Y-134.59
X138.537Y-154.91
X141.077Y-134.59
X141.077Y-154.91
X143.617Y-134.59
X143.617Y-154.91
X146.157Y-134.59
X146.157Y-154.91
X148.697Y-134.59
X148.697Y-154.91
X151.237Y-134.59
X151.237Y-154.91
X161.64Y-154.01
X163.95Y-135.88
X164.18Y-154.01
X166.49Y-135.88
X166.72Y-154.01
X169.03Y-135.88
X169.26Y-154.01
X171.57Y-135.88
X171.8Y-154.01
X174.34Y-154.01
X180.265Y-141.14
X180.265Y-143.68
X180.265Y-146.22
X180.265Y-148.76
M30
