%TF.GenerationSoftware,KiCad,Pcbnew,9.0.8*%
%TF.CreationDate,2026-04-07T19:05:52+09:00*%
%TF.ProjectId,Teseo-LIV3FL(GNSS module),54657365-6f2d-44c4-9956-33464c28474e,rev?*%
%TF.SameCoordinates,Original*%
%TF.FileFunction,Legend,Top*%
%TF.FilePolarity,Positive*%
%FSLAX46Y46*%
G04 Gerber Fmt 4.6, Leading zero omitted, Abs format (unit mm)*
G04 Created by KiCad (PCBNEW 9.0.8) date 2026-04-07 19:05:52*
%MOMM*%
%LPD*%
G01*
G04 APERTURE LIST*
%ADD10C,0.160000*%
%ADD11C,0.153000*%
%ADD12C,0.254000*%
%ADD13C,0.120000*%
%ADD14C,0.200000*%
%ADD15C,0.100000*%
G04 APERTURE END LIST*
D10*
X76299498Y-75869299D02*
X76870926Y-75869299D01*
X76585212Y-76869299D02*
X76585212Y-75869299D01*
X77585212Y-76821680D02*
X77489974Y-76869299D01*
X77489974Y-76869299D02*
X77299498Y-76869299D01*
X77299498Y-76869299D02*
X77204260Y-76821680D01*
X77204260Y-76821680D02*
X77156641Y-76726441D01*
X77156641Y-76726441D02*
X77156641Y-76345489D01*
X77156641Y-76345489D02*
X77204260Y-76250251D01*
X77204260Y-76250251D02*
X77299498Y-76202632D01*
X77299498Y-76202632D02*
X77489974Y-76202632D01*
X77489974Y-76202632D02*
X77585212Y-76250251D01*
X77585212Y-76250251D02*
X77632831Y-76345489D01*
X77632831Y-76345489D02*
X77632831Y-76440727D01*
X77632831Y-76440727D02*
X77156641Y-76535965D01*
X78013784Y-76821680D02*
X78109022Y-76869299D01*
X78109022Y-76869299D02*
X78299498Y-76869299D01*
X78299498Y-76869299D02*
X78394736Y-76821680D01*
X78394736Y-76821680D02*
X78442355Y-76726441D01*
X78442355Y-76726441D02*
X78442355Y-76678822D01*
X78442355Y-76678822D02*
X78394736Y-76583584D01*
X78394736Y-76583584D02*
X78299498Y-76535965D01*
X78299498Y-76535965D02*
X78156641Y-76535965D01*
X78156641Y-76535965D02*
X78061403Y-76488346D01*
X78061403Y-76488346D02*
X78013784Y-76393108D01*
X78013784Y-76393108D02*
X78013784Y-76345489D01*
X78013784Y-76345489D02*
X78061403Y-76250251D01*
X78061403Y-76250251D02*
X78156641Y-76202632D01*
X78156641Y-76202632D02*
X78299498Y-76202632D01*
X78299498Y-76202632D02*
X78394736Y-76250251D01*
X79251879Y-76821680D02*
X79156641Y-76869299D01*
X79156641Y-76869299D02*
X78966165Y-76869299D01*
X78966165Y-76869299D02*
X78870927Y-76821680D01*
X78870927Y-76821680D02*
X78823308Y-76726441D01*
X78823308Y-76726441D02*
X78823308Y-76345489D01*
X78823308Y-76345489D02*
X78870927Y-76250251D01*
X78870927Y-76250251D02*
X78966165Y-76202632D01*
X78966165Y-76202632D02*
X79156641Y-76202632D01*
X79156641Y-76202632D02*
X79251879Y-76250251D01*
X79251879Y-76250251D02*
X79299498Y-76345489D01*
X79299498Y-76345489D02*
X79299498Y-76440727D01*
X79299498Y-76440727D02*
X78823308Y-76535965D01*
X79870927Y-76869299D02*
X79775689Y-76821680D01*
X79775689Y-76821680D02*
X79728070Y-76774060D01*
X79728070Y-76774060D02*
X79680451Y-76678822D01*
X79680451Y-76678822D02*
X79680451Y-76393108D01*
X79680451Y-76393108D02*
X79728070Y-76297870D01*
X79728070Y-76297870D02*
X79775689Y-76250251D01*
X79775689Y-76250251D02*
X79870927Y-76202632D01*
X79870927Y-76202632D02*
X80013784Y-76202632D01*
X80013784Y-76202632D02*
X80109022Y-76250251D01*
X80109022Y-76250251D02*
X80156641Y-76297870D01*
X80156641Y-76297870D02*
X80204260Y-76393108D01*
X80204260Y-76393108D02*
X80204260Y-76678822D01*
X80204260Y-76678822D02*
X80156641Y-76774060D01*
X80156641Y-76774060D02*
X80109022Y-76821680D01*
X80109022Y-76821680D02*
X80013784Y-76869299D01*
X80013784Y-76869299D02*
X79870927Y-76869299D01*
X80632832Y-76488346D02*
X81394737Y-76488346D01*
X82347117Y-76869299D02*
X81870927Y-76869299D01*
X81870927Y-76869299D02*
X81870927Y-75869299D01*
X82680451Y-76869299D02*
X82680451Y-75869299D01*
X83013784Y-75869299D02*
X83347117Y-76869299D01*
X83347117Y-76869299D02*
X83680450Y-75869299D01*
X83918546Y-75869299D02*
X84537593Y-75869299D01*
X84537593Y-75869299D02*
X84204260Y-76250251D01*
X84204260Y-76250251D02*
X84347117Y-76250251D01*
X84347117Y-76250251D02*
X84442355Y-76297870D01*
X84442355Y-76297870D02*
X84489974Y-76345489D01*
X84489974Y-76345489D02*
X84537593Y-76440727D01*
X84537593Y-76440727D02*
X84537593Y-76678822D01*
X84537593Y-76678822D02*
X84489974Y-76774060D01*
X84489974Y-76774060D02*
X84442355Y-76821680D01*
X84442355Y-76821680D02*
X84347117Y-76869299D01*
X84347117Y-76869299D02*
X84061403Y-76869299D01*
X84061403Y-76869299D02*
X83966165Y-76821680D01*
X83966165Y-76821680D02*
X83918546Y-76774060D01*
X85299498Y-76345489D02*
X84966165Y-76345489D01*
X84966165Y-76869299D02*
X84966165Y-75869299D01*
X84966165Y-75869299D02*
X85442355Y-75869299D01*
X86299498Y-76869299D02*
X85823308Y-76869299D01*
X85823308Y-76869299D02*
X85823308Y-75869299D01*
D11*
X84954663Y-52833333D02*
X85668948Y-52833333D01*
X85668948Y-52833333D02*
X85811805Y-52880952D01*
X85811805Y-52880952D02*
X85907044Y-52976190D01*
X85907044Y-52976190D02*
X85954663Y-53119047D01*
X85954663Y-53119047D02*
X85954663Y-53214285D01*
X85049901Y-52404761D02*
X85002282Y-52357142D01*
X85002282Y-52357142D02*
X84954663Y-52261904D01*
X84954663Y-52261904D02*
X84954663Y-52023809D01*
X84954663Y-52023809D02*
X85002282Y-51928571D01*
X85002282Y-51928571D02*
X85049901Y-51880952D01*
X85049901Y-51880952D02*
X85145139Y-51833333D01*
X85145139Y-51833333D02*
X85240377Y-51833333D01*
X85240377Y-51833333D02*
X85383234Y-51880952D01*
X85383234Y-51880952D02*
X85954663Y-52452380D01*
X85954663Y-52452380D02*
X85954663Y-51833333D01*
D12*
X75960237Y-63579318D02*
X75960237Y-62309318D01*
X77290714Y-63458365D02*
X77230238Y-63518842D01*
X77230238Y-63518842D02*
X77048809Y-63579318D01*
X77048809Y-63579318D02*
X76927857Y-63579318D01*
X76927857Y-63579318D02*
X76746428Y-63518842D01*
X76746428Y-63518842D02*
X76625476Y-63397889D01*
X76625476Y-63397889D02*
X76564999Y-63276937D01*
X76564999Y-63276937D02*
X76504523Y-63035032D01*
X76504523Y-63035032D02*
X76504523Y-62853603D01*
X76504523Y-62853603D02*
X76564999Y-62611699D01*
X76564999Y-62611699D02*
X76625476Y-62490746D01*
X76625476Y-62490746D02*
X76746428Y-62369794D01*
X76746428Y-62369794D02*
X76927857Y-62309318D01*
X76927857Y-62309318D02*
X77048809Y-62309318D01*
X77048809Y-62309318D02*
X77230238Y-62369794D01*
X77230238Y-62369794D02*
X77290714Y-62430270D01*
X78500238Y-63579318D02*
X77774523Y-63579318D01*
X78137380Y-63579318D02*
X78137380Y-62309318D01*
X78137380Y-62309318D02*
X78016428Y-62490746D01*
X78016428Y-62490746D02*
X77895476Y-62611699D01*
X77895476Y-62611699D02*
X77774523Y-62672175D01*
D11*
X74666666Y-70454663D02*
X74666666Y-71168948D01*
X74666666Y-71168948D02*
X74619047Y-71311805D01*
X74619047Y-71311805D02*
X74523809Y-71407044D01*
X74523809Y-71407044D02*
X74380952Y-71454663D01*
X74380952Y-71454663D02*
X74285714Y-71454663D01*
X75666666Y-71454663D02*
X75095238Y-71454663D01*
X75380952Y-71454663D02*
X75380952Y-70454663D01*
X75380952Y-70454663D02*
X75285714Y-70597520D01*
X75285714Y-70597520D02*
X75190476Y-70692758D01*
X75190476Y-70692758D02*
X75095238Y-70740377D01*
X85454663Y-63238094D02*
X84454663Y-63238094D01*
X84454663Y-63238094D02*
X84454663Y-62999999D01*
X84454663Y-62999999D02*
X84502282Y-62857142D01*
X84502282Y-62857142D02*
X84597520Y-62761904D01*
X84597520Y-62761904D02*
X84692758Y-62714285D01*
X84692758Y-62714285D02*
X84883234Y-62666666D01*
X84883234Y-62666666D02*
X85026091Y-62666666D01*
X85026091Y-62666666D02*
X85216567Y-62714285D01*
X85216567Y-62714285D02*
X85311805Y-62761904D01*
X85311805Y-62761904D02*
X85407044Y-62857142D01*
X85407044Y-62857142D02*
X85454663Y-62999999D01*
X85454663Y-62999999D02*
X85454663Y-63238094D01*
X85454663Y-61714285D02*
X85454663Y-62285713D01*
X85454663Y-61999999D02*
X84454663Y-61999999D01*
X84454663Y-61999999D02*
X84597520Y-62095237D01*
X84597520Y-62095237D02*
X84692758Y-62190475D01*
X84692758Y-62190475D02*
X84740377Y-62285713D01*
X80970833Y-55859424D02*
X80923214Y-55907044D01*
X80923214Y-55907044D02*
X80780357Y-55954663D01*
X80780357Y-55954663D02*
X80685119Y-55954663D01*
X80685119Y-55954663D02*
X80542262Y-55907044D01*
X80542262Y-55907044D02*
X80447024Y-55811805D01*
X80447024Y-55811805D02*
X80399405Y-55716567D01*
X80399405Y-55716567D02*
X80351786Y-55526091D01*
X80351786Y-55526091D02*
X80351786Y-55383234D01*
X80351786Y-55383234D02*
X80399405Y-55192758D01*
X80399405Y-55192758D02*
X80447024Y-55097520D01*
X80447024Y-55097520D02*
X80542262Y-55002282D01*
X80542262Y-55002282D02*
X80685119Y-54954663D01*
X80685119Y-54954663D02*
X80780357Y-54954663D01*
X80780357Y-54954663D02*
X80923214Y-55002282D01*
X80923214Y-55002282D02*
X80970833Y-55049901D01*
X81923214Y-55954663D02*
X81351786Y-55954663D01*
X81637500Y-55954663D02*
X81637500Y-54954663D01*
X81637500Y-54954663D02*
X81542262Y-55097520D01*
X81542262Y-55097520D02*
X81447024Y-55192758D01*
X81447024Y-55192758D02*
X81351786Y-55240377D01*
X85954663Y-73716666D02*
X85478472Y-74049999D01*
X85954663Y-74288094D02*
X84954663Y-74288094D01*
X84954663Y-74288094D02*
X84954663Y-73907142D01*
X84954663Y-73907142D02*
X85002282Y-73811904D01*
X85002282Y-73811904D02*
X85049901Y-73764285D01*
X85049901Y-73764285D02*
X85145139Y-73716666D01*
X85145139Y-73716666D02*
X85287996Y-73716666D01*
X85287996Y-73716666D02*
X85383234Y-73764285D01*
X85383234Y-73764285D02*
X85430853Y-73811904D01*
X85430853Y-73811904D02*
X85478472Y-73907142D01*
X85478472Y-73907142D02*
X85478472Y-74288094D01*
X85049901Y-73335713D02*
X85002282Y-73288094D01*
X85002282Y-73288094D02*
X84954663Y-73192856D01*
X84954663Y-73192856D02*
X84954663Y-72954761D01*
X84954663Y-72954761D02*
X85002282Y-72859523D01*
X85002282Y-72859523D02*
X85049901Y-72811904D01*
X85049901Y-72811904D02*
X85145139Y-72764285D01*
X85145139Y-72764285D02*
X85240377Y-72764285D01*
X85240377Y-72764285D02*
X85383234Y-72811904D01*
X85383234Y-72811904D02*
X85954663Y-73383332D01*
X85954663Y-73383332D02*
X85954663Y-72764285D01*
X80333333Y-75454663D02*
X79857143Y-75454663D01*
X79857143Y-75454663D02*
X79857143Y-74454663D01*
X81190476Y-75454663D02*
X80619048Y-75454663D01*
X80904762Y-75454663D02*
X80904762Y-74454663D01*
X80904762Y-74454663D02*
X80809524Y-74597520D01*
X80809524Y-74597520D02*
X80714286Y-74692758D01*
X80714286Y-74692758D02*
X80619048Y-74740377D01*
X83454663Y-66666666D02*
X82978472Y-66999999D01*
X83454663Y-67238094D02*
X82454663Y-67238094D01*
X82454663Y-67238094D02*
X82454663Y-66857142D01*
X82454663Y-66857142D02*
X82502282Y-66761904D01*
X82502282Y-66761904D02*
X82549901Y-66714285D01*
X82549901Y-66714285D02*
X82645139Y-66666666D01*
X82645139Y-66666666D02*
X82787996Y-66666666D01*
X82787996Y-66666666D02*
X82883234Y-66714285D01*
X82883234Y-66714285D02*
X82930853Y-66761904D01*
X82930853Y-66761904D02*
X82978472Y-66857142D01*
X82978472Y-66857142D02*
X82978472Y-67238094D01*
X83454663Y-65714285D02*
X83454663Y-66285713D01*
X83454663Y-65999999D02*
X82454663Y-65999999D01*
X82454663Y-65999999D02*
X82597520Y-66095237D01*
X82597520Y-66095237D02*
X82692758Y-66190475D01*
X82692758Y-66190475D02*
X82740377Y-66285713D01*
D13*
%TO.C,J2*%
X71000000Y-51120000D02*
X71000000Y-53880000D01*
X81270000Y-51120000D02*
X71000000Y-51120000D01*
X81270000Y-51120000D02*
X81270000Y-53880000D01*
X81270000Y-53880000D02*
X71000000Y-53880000D01*
X82540000Y-51120000D02*
X83920000Y-51120000D01*
X83920000Y-51120000D02*
X83920000Y-52500000D01*
D14*
%TO.C,IC1*%
X72150000Y-59605000D02*
X72150000Y-66405000D01*
D15*
X81600000Y-57005000D02*
X81600000Y-57005000D01*
X81600000Y-57005000D02*
X81600000Y-57005000D01*
X81600000Y-57105000D02*
X81600000Y-57105000D01*
D14*
X82250000Y-66405000D02*
X82250000Y-59605000D01*
D15*
X81600000Y-57005000D02*
G75*
G02*
X81600000Y-57105000I0J-50000D01*
G01*
X81600000Y-57105000D02*
G75*
G02*
X81600000Y-57005000I0J50000D01*
G01*
X81600000Y-57105000D02*
G75*
G02*
X81600000Y-57005000I0J50000D01*
G01*
D13*
%TO.C,J1*%
X72625000Y-73140000D02*
X73265000Y-73140000D01*
X74785000Y-73140000D02*
X74785000Y-72510000D01*
X75375000Y-75860000D02*
X72675000Y-75860000D01*
X75425000Y-73140000D02*
X74785000Y-73140000D01*
%TO.C,D1*%
X83865000Y-56540000D02*
X83865000Y-60600000D01*
X86135000Y-56540000D02*
X83865000Y-56540000D01*
X86135000Y-60600000D02*
X86135000Y-56540000D01*
%TO.C,C1*%
X83991233Y-54990000D02*
X84283767Y-54990000D01*
X83991233Y-56010000D02*
X84283767Y-56010000D01*
%TO.C,R2*%
X82590000Y-74277064D02*
X82590000Y-72822936D01*
X84410000Y-74277064D02*
X84410000Y-72822936D01*
%TO.C,L1*%
X78640000Y-73827300D02*
X78640000Y-74027700D01*
X79360000Y-73827300D02*
X79360000Y-74027700D01*
%TO.C,R1*%
X84090000Y-67273752D02*
X84090000Y-65851248D01*
X85910000Y-67273752D02*
X85910000Y-65851248D01*
%TD*%
M02*
