%TF.GenerationSoftware,KiCad,Pcbnew,9.0.8*%
%TF.CreationDate,2026-04-07T19:05:52+09:00*%
%TF.ProjectId,Teseo-LIV3FL(GNSS module),54657365-6f2d-44c4-9956-33464c28474e,rev?*%
%TF.SameCoordinates,Original*%
%TF.FileFunction,Legend,Bot*%
%TF.FilePolarity,Positive*%
%FSLAX46Y46*%
G04 Gerber Fmt 4.6, Leading zero omitted, Abs format (unit mm)*
G04 Created by KiCad (PCBNEW 9.0.8) date 2026-04-07 19:05:52*
%MOMM*%
%LPD*%
G01*
G04 APERTURE LIST*
%ADD10C,0.200000*%
%ADD11C,0.000000*%
G04 APERTURE END LIST*
D10*
X71867219Y-55774435D02*
X71867219Y-56393482D01*
X71867219Y-56393482D02*
X72248171Y-56060149D01*
X72248171Y-56060149D02*
X72248171Y-56203006D01*
X72248171Y-56203006D02*
X72295790Y-56298244D01*
X72295790Y-56298244D02*
X72343409Y-56345863D01*
X72343409Y-56345863D02*
X72438647Y-56393482D01*
X72438647Y-56393482D02*
X72676742Y-56393482D01*
X72676742Y-56393482D02*
X72771980Y-56345863D01*
X72771980Y-56345863D02*
X72819600Y-56298244D01*
X72819600Y-56298244D02*
X72867219Y-56203006D01*
X72867219Y-56203006D02*
X72867219Y-55917292D01*
X72867219Y-55917292D02*
X72819600Y-55822054D01*
X72819600Y-55822054D02*
X72771980Y-55774435D01*
X71867219Y-56679197D02*
X72867219Y-57012530D01*
X72867219Y-57012530D02*
X71867219Y-57345863D01*
X71867219Y-57583959D02*
X71867219Y-58203006D01*
X71867219Y-58203006D02*
X72248171Y-57869673D01*
X72248171Y-57869673D02*
X72248171Y-58012530D01*
X72248171Y-58012530D02*
X72295790Y-58107768D01*
X72295790Y-58107768D02*
X72343409Y-58155387D01*
X72343409Y-58155387D02*
X72438647Y-58203006D01*
X72438647Y-58203006D02*
X72676742Y-58203006D01*
X72676742Y-58203006D02*
X72771980Y-58155387D01*
X72771980Y-58155387D02*
X72819600Y-58107768D01*
X72819600Y-58107768D02*
X72867219Y-58012530D01*
X72867219Y-58012530D02*
X72867219Y-57726816D01*
X72867219Y-57726816D02*
X72819600Y-57631578D01*
X72819600Y-57631578D02*
X72771980Y-57583959D01*
X74414838Y-56393482D02*
X74367219Y-56298244D01*
X74367219Y-56298244D02*
X74367219Y-56155387D01*
X74367219Y-56155387D02*
X74414838Y-56012530D01*
X74414838Y-56012530D02*
X74510076Y-55917292D01*
X74510076Y-55917292D02*
X74605314Y-55869673D01*
X74605314Y-55869673D02*
X74795790Y-55822054D01*
X74795790Y-55822054D02*
X74938647Y-55822054D01*
X74938647Y-55822054D02*
X75129123Y-55869673D01*
X75129123Y-55869673D02*
X75224361Y-55917292D01*
X75224361Y-55917292D02*
X75319600Y-56012530D01*
X75319600Y-56012530D02*
X75367219Y-56155387D01*
X75367219Y-56155387D02*
X75367219Y-56250625D01*
X75367219Y-56250625D02*
X75319600Y-56393482D01*
X75319600Y-56393482D02*
X75271980Y-56441101D01*
X75271980Y-56441101D02*
X74938647Y-56441101D01*
X74938647Y-56441101D02*
X74938647Y-56250625D01*
X75367219Y-56869673D02*
X74367219Y-56869673D01*
X74367219Y-56869673D02*
X75367219Y-57441101D01*
X75367219Y-57441101D02*
X74367219Y-57441101D01*
X75367219Y-57917292D02*
X74367219Y-57917292D01*
X74367219Y-57917292D02*
X74367219Y-58155387D01*
X74367219Y-58155387D02*
X74414838Y-58298244D01*
X74414838Y-58298244D02*
X74510076Y-58393482D01*
X74510076Y-58393482D02*
X74605314Y-58441101D01*
X74605314Y-58441101D02*
X74795790Y-58488720D01*
X74795790Y-58488720D02*
X74938647Y-58488720D01*
X74938647Y-58488720D02*
X75129123Y-58441101D01*
X75129123Y-58441101D02*
X75224361Y-58393482D01*
X75224361Y-58393482D02*
X75319600Y-58298244D01*
X75319600Y-58298244D02*
X75367219Y-58155387D01*
X75367219Y-58155387D02*
X75367219Y-57917292D01*
X77867219Y-56393482D02*
X77867219Y-55822054D01*
X77867219Y-56107768D02*
X76867219Y-56107768D01*
X76867219Y-56107768D02*
X77010076Y-56012530D01*
X77010076Y-56012530D02*
X77105314Y-55917292D01*
X77105314Y-55917292D02*
X77152933Y-55822054D01*
X77867219Y-56822054D02*
X76867219Y-56822054D01*
X76867219Y-56822054D02*
X76867219Y-57203006D01*
X76867219Y-57203006D02*
X76914838Y-57298244D01*
X76914838Y-57298244D02*
X76962457Y-57345863D01*
X76962457Y-57345863D02*
X77057695Y-57393482D01*
X77057695Y-57393482D02*
X77200552Y-57393482D01*
X77200552Y-57393482D02*
X77295790Y-57345863D01*
X77295790Y-57345863D02*
X77343409Y-57298244D01*
X77343409Y-57298244D02*
X77391028Y-57203006D01*
X77391028Y-57203006D02*
X77391028Y-56822054D01*
X77867219Y-57822054D02*
X76867219Y-57822054D01*
X76867219Y-57822054D02*
X76867219Y-58203006D01*
X76867219Y-58203006D02*
X76914838Y-58298244D01*
X76914838Y-58298244D02*
X76962457Y-58345863D01*
X76962457Y-58345863D02*
X77057695Y-58393482D01*
X77057695Y-58393482D02*
X77200552Y-58393482D01*
X77200552Y-58393482D02*
X77295790Y-58345863D01*
X77295790Y-58345863D02*
X77343409Y-58298244D01*
X77343409Y-58298244D02*
X77391028Y-58203006D01*
X77391028Y-58203006D02*
X77391028Y-57822054D01*
X77819600Y-58774435D02*
X77867219Y-58917292D01*
X77867219Y-58917292D02*
X77867219Y-59155387D01*
X77867219Y-59155387D02*
X77819600Y-59250625D01*
X77819600Y-59250625D02*
X77771980Y-59298244D01*
X77771980Y-59298244D02*
X77676742Y-59345863D01*
X77676742Y-59345863D02*
X77581504Y-59345863D01*
X77581504Y-59345863D02*
X77486266Y-59298244D01*
X77486266Y-59298244D02*
X77438647Y-59250625D01*
X77438647Y-59250625D02*
X77391028Y-59155387D01*
X77391028Y-59155387D02*
X77343409Y-58964911D01*
X77343409Y-58964911D02*
X77295790Y-58869673D01*
X77295790Y-58869673D02*
X77248171Y-58822054D01*
X77248171Y-58822054D02*
X77152933Y-58774435D01*
X77152933Y-58774435D02*
X77057695Y-58774435D01*
X77057695Y-58774435D02*
X76962457Y-58822054D01*
X76962457Y-58822054D02*
X76914838Y-58869673D01*
X76914838Y-58869673D02*
X76867219Y-58964911D01*
X76867219Y-58964911D02*
X76867219Y-59203006D01*
X76867219Y-59203006D02*
X76914838Y-59345863D01*
X79414838Y-56393482D02*
X79367219Y-56298244D01*
X79367219Y-56298244D02*
X79367219Y-56155387D01*
X79367219Y-56155387D02*
X79414838Y-56012530D01*
X79414838Y-56012530D02*
X79510076Y-55917292D01*
X79510076Y-55917292D02*
X79605314Y-55869673D01*
X79605314Y-55869673D02*
X79795790Y-55822054D01*
X79795790Y-55822054D02*
X79938647Y-55822054D01*
X79938647Y-55822054D02*
X80129123Y-55869673D01*
X80129123Y-55869673D02*
X80224361Y-55917292D01*
X80224361Y-55917292D02*
X80319600Y-56012530D01*
X80319600Y-56012530D02*
X80367219Y-56155387D01*
X80367219Y-56155387D02*
X80367219Y-56250625D01*
X80367219Y-56250625D02*
X80319600Y-56393482D01*
X80319600Y-56393482D02*
X80271980Y-56441101D01*
X80271980Y-56441101D02*
X79938647Y-56441101D01*
X79938647Y-56441101D02*
X79938647Y-56250625D01*
X80367219Y-56869673D02*
X79367219Y-56869673D01*
X79367219Y-56869673D02*
X80367219Y-57441101D01*
X80367219Y-57441101D02*
X79367219Y-57441101D01*
X80319600Y-57869673D02*
X80367219Y-58012530D01*
X80367219Y-58012530D02*
X80367219Y-58250625D01*
X80367219Y-58250625D02*
X80319600Y-58345863D01*
X80319600Y-58345863D02*
X80271980Y-58393482D01*
X80271980Y-58393482D02*
X80176742Y-58441101D01*
X80176742Y-58441101D02*
X80081504Y-58441101D01*
X80081504Y-58441101D02*
X79986266Y-58393482D01*
X79986266Y-58393482D02*
X79938647Y-58345863D01*
X79938647Y-58345863D02*
X79891028Y-58250625D01*
X79891028Y-58250625D02*
X79843409Y-58060149D01*
X79843409Y-58060149D02*
X79795790Y-57964911D01*
X79795790Y-57964911D02*
X79748171Y-57917292D01*
X79748171Y-57917292D02*
X79652933Y-57869673D01*
X79652933Y-57869673D02*
X79557695Y-57869673D01*
X79557695Y-57869673D02*
X79462457Y-57917292D01*
X79462457Y-57917292D02*
X79414838Y-57964911D01*
X79414838Y-57964911D02*
X79367219Y-58060149D01*
X79367219Y-58060149D02*
X79367219Y-58298244D01*
X79367219Y-58298244D02*
X79414838Y-58441101D01*
X80319600Y-58822054D02*
X80367219Y-58964911D01*
X80367219Y-58964911D02*
X80367219Y-59203006D01*
X80367219Y-59203006D02*
X80319600Y-59298244D01*
X80319600Y-59298244D02*
X80271980Y-59345863D01*
X80271980Y-59345863D02*
X80176742Y-59393482D01*
X80176742Y-59393482D02*
X80081504Y-59393482D01*
X80081504Y-59393482D02*
X79986266Y-59345863D01*
X79986266Y-59345863D02*
X79938647Y-59298244D01*
X79938647Y-59298244D02*
X79891028Y-59203006D01*
X79891028Y-59203006D02*
X79843409Y-59012530D01*
X79843409Y-59012530D02*
X79795790Y-58917292D01*
X79795790Y-58917292D02*
X79748171Y-58869673D01*
X79748171Y-58869673D02*
X79652933Y-58822054D01*
X79652933Y-58822054D02*
X79557695Y-58822054D01*
X79557695Y-58822054D02*
X79462457Y-58869673D01*
X79462457Y-58869673D02*
X79414838Y-58917292D01*
X79414838Y-58917292D02*
X79367219Y-59012530D01*
X79367219Y-59012530D02*
X79367219Y-59250625D01*
X79367219Y-59250625D02*
X79414838Y-59393482D01*
X79986266Y-59822054D02*
X79986266Y-60583959D01*
X80367219Y-61631577D02*
X79891028Y-61298244D01*
X80367219Y-61060149D02*
X79367219Y-61060149D01*
X79367219Y-61060149D02*
X79367219Y-61441101D01*
X79367219Y-61441101D02*
X79414838Y-61536339D01*
X79414838Y-61536339D02*
X79462457Y-61583958D01*
X79462457Y-61583958D02*
X79557695Y-61631577D01*
X79557695Y-61631577D02*
X79700552Y-61631577D01*
X79700552Y-61631577D02*
X79795790Y-61583958D01*
X79795790Y-61583958D02*
X79843409Y-61536339D01*
X79843409Y-61536339D02*
X79891028Y-61441101D01*
X79891028Y-61441101D02*
X79891028Y-61060149D01*
X79367219Y-61964911D02*
X80367219Y-62631577D01*
X79367219Y-62631577D02*
X80367219Y-61964911D01*
X79700552Y-63774435D02*
X79986266Y-63012530D01*
X79986266Y-63012530D02*
X80271980Y-63774435D01*
X79986266Y-64250625D02*
X79986266Y-65012530D01*
X79700552Y-65488720D02*
X79986266Y-66250625D01*
X79986266Y-66250625D02*
X80271980Y-65488720D01*
X80367219Y-66726815D02*
X79367219Y-66726815D01*
X79367219Y-66726815D02*
X80081504Y-67060148D01*
X80081504Y-67060148D02*
X79367219Y-67393481D01*
X79367219Y-67393481D02*
X80367219Y-67393481D01*
X80271980Y-68441100D02*
X80319600Y-68393481D01*
X80319600Y-68393481D02*
X80367219Y-68250624D01*
X80367219Y-68250624D02*
X80367219Y-68155386D01*
X80367219Y-68155386D02*
X80319600Y-68012529D01*
X80319600Y-68012529D02*
X80224361Y-67917291D01*
X80224361Y-67917291D02*
X80129123Y-67869672D01*
X80129123Y-67869672D02*
X79938647Y-67822053D01*
X79938647Y-67822053D02*
X79795790Y-67822053D01*
X79795790Y-67822053D02*
X79605314Y-67869672D01*
X79605314Y-67869672D02*
X79510076Y-67917291D01*
X79510076Y-67917291D02*
X79414838Y-68012529D01*
X79414838Y-68012529D02*
X79367219Y-68155386D01*
X79367219Y-68155386D02*
X79367219Y-68250624D01*
X79367219Y-68250624D02*
X79414838Y-68393481D01*
X79414838Y-68393481D02*
X79462457Y-68441100D01*
X79367219Y-68869672D02*
X80176742Y-68869672D01*
X80176742Y-68869672D02*
X80271980Y-68917291D01*
X80271980Y-68917291D02*
X80319600Y-68964910D01*
X80319600Y-68964910D02*
X80367219Y-69060148D01*
X80367219Y-69060148D02*
X80367219Y-69250624D01*
X80367219Y-69250624D02*
X80319600Y-69345862D01*
X80319600Y-69345862D02*
X80271980Y-69393481D01*
X80271980Y-69393481D02*
X80176742Y-69441100D01*
X80176742Y-69441100D02*
X79367219Y-69441100D01*
X79986266Y-69917291D02*
X79986266Y-70679196D01*
X79367219Y-71012529D02*
X79367219Y-71583957D01*
X80367219Y-71298243D02*
X79367219Y-71298243D01*
X79367219Y-71822053D02*
X80367219Y-72488719D01*
X79367219Y-72488719D02*
X80367219Y-71822053D01*
X82414838Y-56393482D02*
X82367219Y-56298244D01*
X82367219Y-56298244D02*
X82367219Y-56155387D01*
X82367219Y-56155387D02*
X82414838Y-56012530D01*
X82414838Y-56012530D02*
X82510076Y-55917292D01*
X82510076Y-55917292D02*
X82605314Y-55869673D01*
X82605314Y-55869673D02*
X82795790Y-55822054D01*
X82795790Y-55822054D02*
X82938647Y-55822054D01*
X82938647Y-55822054D02*
X83129123Y-55869673D01*
X83129123Y-55869673D02*
X83224361Y-55917292D01*
X83224361Y-55917292D02*
X83319600Y-56012530D01*
X83319600Y-56012530D02*
X83367219Y-56155387D01*
X83367219Y-56155387D02*
X83367219Y-56250625D01*
X83367219Y-56250625D02*
X83319600Y-56393482D01*
X83319600Y-56393482D02*
X83271980Y-56441101D01*
X83271980Y-56441101D02*
X82938647Y-56441101D01*
X82938647Y-56441101D02*
X82938647Y-56250625D01*
X83367219Y-56869673D02*
X82367219Y-56869673D01*
X82367219Y-56869673D02*
X83367219Y-57441101D01*
X83367219Y-57441101D02*
X82367219Y-57441101D01*
X83319600Y-57869673D02*
X83367219Y-58012530D01*
X83367219Y-58012530D02*
X83367219Y-58250625D01*
X83367219Y-58250625D02*
X83319600Y-58345863D01*
X83319600Y-58345863D02*
X83271980Y-58393482D01*
X83271980Y-58393482D02*
X83176742Y-58441101D01*
X83176742Y-58441101D02*
X83081504Y-58441101D01*
X83081504Y-58441101D02*
X82986266Y-58393482D01*
X82986266Y-58393482D02*
X82938647Y-58345863D01*
X82938647Y-58345863D02*
X82891028Y-58250625D01*
X82891028Y-58250625D02*
X82843409Y-58060149D01*
X82843409Y-58060149D02*
X82795790Y-57964911D01*
X82795790Y-57964911D02*
X82748171Y-57917292D01*
X82748171Y-57917292D02*
X82652933Y-57869673D01*
X82652933Y-57869673D02*
X82557695Y-57869673D01*
X82557695Y-57869673D02*
X82462457Y-57917292D01*
X82462457Y-57917292D02*
X82414838Y-57964911D01*
X82414838Y-57964911D02*
X82367219Y-58060149D01*
X82367219Y-58060149D02*
X82367219Y-58298244D01*
X82367219Y-58298244D02*
X82414838Y-58441101D01*
X83319600Y-58822054D02*
X83367219Y-58964911D01*
X83367219Y-58964911D02*
X83367219Y-59203006D01*
X83367219Y-59203006D02*
X83319600Y-59298244D01*
X83319600Y-59298244D02*
X83271980Y-59345863D01*
X83271980Y-59345863D02*
X83176742Y-59393482D01*
X83176742Y-59393482D02*
X83081504Y-59393482D01*
X83081504Y-59393482D02*
X82986266Y-59345863D01*
X82986266Y-59345863D02*
X82938647Y-59298244D01*
X82938647Y-59298244D02*
X82891028Y-59203006D01*
X82891028Y-59203006D02*
X82843409Y-59012530D01*
X82843409Y-59012530D02*
X82795790Y-58917292D01*
X82795790Y-58917292D02*
X82748171Y-58869673D01*
X82748171Y-58869673D02*
X82652933Y-58822054D01*
X82652933Y-58822054D02*
X82557695Y-58822054D01*
X82557695Y-58822054D02*
X82462457Y-58869673D01*
X82462457Y-58869673D02*
X82414838Y-58917292D01*
X82414838Y-58917292D02*
X82367219Y-59012530D01*
X82367219Y-59012530D02*
X82367219Y-59250625D01*
X82367219Y-59250625D02*
X82414838Y-59393482D01*
X82986266Y-59822054D02*
X82986266Y-60583959D01*
X82367219Y-60917292D02*
X82367219Y-61488720D01*
X83367219Y-61203006D02*
X82367219Y-61203006D01*
X82367219Y-61726816D02*
X83367219Y-62393482D01*
X82367219Y-62393482D02*
X83367219Y-61726816D01*
X82700552Y-63536340D02*
X82986266Y-62774435D01*
X82986266Y-62774435D02*
X83271980Y-63536340D01*
X82986266Y-64012530D02*
X82986266Y-64774435D01*
X82700552Y-65250625D02*
X82986266Y-66012530D01*
X82986266Y-66012530D02*
X83271980Y-65250625D01*
X83367219Y-66488720D02*
X82367219Y-66488720D01*
X82367219Y-66488720D02*
X83081504Y-66822053D01*
X83081504Y-66822053D02*
X82367219Y-67155386D01*
X82367219Y-67155386D02*
X83367219Y-67155386D01*
X83271980Y-68203005D02*
X83319600Y-68155386D01*
X83319600Y-68155386D02*
X83367219Y-68012529D01*
X83367219Y-68012529D02*
X83367219Y-67917291D01*
X83367219Y-67917291D02*
X83319600Y-67774434D01*
X83319600Y-67774434D02*
X83224361Y-67679196D01*
X83224361Y-67679196D02*
X83129123Y-67631577D01*
X83129123Y-67631577D02*
X82938647Y-67583958D01*
X82938647Y-67583958D02*
X82795790Y-67583958D01*
X82795790Y-67583958D02*
X82605314Y-67631577D01*
X82605314Y-67631577D02*
X82510076Y-67679196D01*
X82510076Y-67679196D02*
X82414838Y-67774434D01*
X82414838Y-67774434D02*
X82367219Y-67917291D01*
X82367219Y-67917291D02*
X82367219Y-68012529D01*
X82367219Y-68012529D02*
X82414838Y-68155386D01*
X82414838Y-68155386D02*
X82462457Y-68203005D01*
X82367219Y-68631577D02*
X83176742Y-68631577D01*
X83176742Y-68631577D02*
X83271980Y-68679196D01*
X83271980Y-68679196D02*
X83319600Y-68726815D01*
X83319600Y-68726815D02*
X83367219Y-68822053D01*
X83367219Y-68822053D02*
X83367219Y-69012529D01*
X83367219Y-69012529D02*
X83319600Y-69107767D01*
X83319600Y-69107767D02*
X83271980Y-69155386D01*
X83271980Y-69155386D02*
X83176742Y-69203005D01*
X83176742Y-69203005D02*
X82367219Y-69203005D01*
X82986266Y-69679196D02*
X82986266Y-70441101D01*
X83367219Y-71488719D02*
X82891028Y-71155386D01*
X83367219Y-70917291D02*
X82367219Y-70917291D01*
X82367219Y-70917291D02*
X82367219Y-71298243D01*
X82367219Y-71298243D02*
X82414838Y-71393481D01*
X82414838Y-71393481D02*
X82462457Y-71441100D01*
X82462457Y-71441100D02*
X82557695Y-71488719D01*
X82557695Y-71488719D02*
X82700552Y-71488719D01*
X82700552Y-71488719D02*
X82795790Y-71441100D01*
X82795790Y-71441100D02*
X82843409Y-71393481D01*
X82843409Y-71393481D02*
X82891028Y-71298243D01*
X82891028Y-71298243D02*
X82891028Y-70917291D01*
X82367219Y-71822053D02*
X83367219Y-72488719D01*
X82367219Y-72488719D02*
X83367219Y-71822053D01*
D11*
%TO.C,G\u002A\u002A\u002A*%
G36*
X74618456Y-68397641D02*
G01*
X74622378Y-68399900D01*
X74640436Y-68420280D01*
X74659044Y-68452382D01*
X74660667Y-68455865D01*
X74669602Y-68479588D01*
X74674907Y-68506917D01*
X74676936Y-68543443D01*
X74676041Y-68594758D01*
X74672576Y-68666451D01*
X74671944Y-68678355D01*
X74669677Y-68775108D01*
X74674724Y-68854232D01*
X74688427Y-68922739D01*
X74712130Y-68987643D01*
X74747176Y-69055955D01*
X74752345Y-69064817D01*
X74781444Y-69110716D01*
X74819530Y-69166735D01*
X74861981Y-69226468D01*
X74904177Y-69283509D01*
X74941496Y-69331453D01*
X74969317Y-69363893D01*
X74975180Y-69370330D01*
X75000904Y-69401234D01*
X75035485Y-69445046D01*
X75074211Y-69495567D01*
X75112372Y-69546601D01*
X75145255Y-69591948D01*
X75168147Y-69625413D01*
X75168403Y-69625813D01*
X75221304Y-69715352D01*
X75268928Y-69809182D01*
X75300334Y-69882525D01*
X75307472Y-69899195D01*
X75333137Y-69977285D01*
X75341037Y-70009372D01*
X75350177Y-70057069D01*
X75354537Y-70104062D01*
X75354757Y-70159220D01*
X75351477Y-70231416D01*
X75348035Y-70282550D01*
X75342344Y-70347395D01*
X75336070Y-70402588D01*
X75330056Y-70439933D01*
X75326556Y-70456209D01*
X75318828Y-70493953D01*
X75314426Y-70518127D01*
X75314916Y-70524079D01*
X75323593Y-70530746D01*
X75345663Y-70534411D01*
X75385338Y-70535605D01*
X75446829Y-70534860D01*
X75460949Y-70534480D01*
X75535715Y-70529803D01*
X75603726Y-70521461D01*
X75655346Y-70510577D01*
X75706144Y-70497986D01*
X75813532Y-70487281D01*
X75816228Y-70487012D01*
X75929649Y-70498640D01*
X76050775Y-70533118D01*
X76068968Y-70539906D01*
X76133889Y-70566856D01*
X76192184Y-70595007D01*
X76239372Y-70621871D01*
X76270971Y-70644960D01*
X76282499Y-70661784D01*
X76282505Y-70661901D01*
X76294887Y-70667875D01*
X76326440Y-70674144D01*
X76370467Y-70679369D01*
X76421845Y-70684334D01*
X76491609Y-70691844D01*
X76556178Y-70699491D01*
X76611615Y-70706311D01*
X76677194Y-70714061D01*
X76732114Y-70720240D01*
X76804032Y-70731193D01*
X76902326Y-70752446D01*
X77012801Y-70781362D01*
X77129402Y-70816124D01*
X77246073Y-70854915D01*
X77356760Y-70895917D01*
X77455408Y-70937314D01*
X77465104Y-70941791D01*
X77546258Y-70985372D01*
X77630963Y-71040252D01*
X77714717Y-71102655D01*
X77793017Y-71168807D01*
X77861360Y-71234935D01*
X77915243Y-71297264D01*
X77950164Y-71352020D01*
X77965680Y-71383237D01*
X77990717Y-71430588D01*
X78011703Y-71467027D01*
X78023593Y-71488990D01*
X78036843Y-71523132D01*
X78049807Y-71569508D01*
X78063720Y-71632652D01*
X78079818Y-71717101D01*
X78082283Y-71735391D01*
X78085572Y-71784475D01*
X78086940Y-71845554D01*
X78086092Y-71909514D01*
X78085403Y-71926542D01*
X78071700Y-72045966D01*
X78041819Y-72148762D01*
X77993961Y-72239589D01*
X77926326Y-72323104D01*
X77921727Y-72327927D01*
X77880242Y-72373832D01*
X77841710Y-72420123D01*
X77813941Y-72457464D01*
X77800052Y-72477111D01*
X77774454Y-72508018D01*
X77754886Y-72525247D01*
X77754382Y-72525528D01*
X77735566Y-72542143D01*
X77707792Y-72573281D01*
X77676881Y-72612436D01*
X77668694Y-72623153D01*
X77624399Y-72675847D01*
X77568048Y-72736981D01*
X77504475Y-72801848D01*
X77438511Y-72865737D01*
X77374988Y-72923940D01*
X77318737Y-72971749D01*
X77274592Y-73004455D01*
X77267650Y-73009043D01*
X77219975Y-73043939D01*
X77166159Y-73087569D01*
X77116568Y-73131592D01*
X77110593Y-73137137D01*
X77056637Y-73182558D01*
X76996817Y-73226727D01*
X76943016Y-73260799D01*
X76905429Y-73281992D01*
X76876325Y-73300746D01*
X76862210Y-73316165D01*
X76858769Y-73333382D01*
X76861689Y-73357525D01*
X76865532Y-73390517D01*
X76869362Y-73441609D01*
X76871837Y-73496013D01*
X76872064Y-73547108D01*
X76867296Y-73583319D01*
X76854755Y-73615331D01*
X76831669Y-73654048D01*
X76831128Y-73654892D01*
X76805534Y-73690793D01*
X76778246Y-73717603D01*
X76741675Y-73741355D01*
X76688234Y-73768081D01*
X76670864Y-73776146D01*
X76625956Y-73796150D01*
X76591940Y-73810078D01*
X76575106Y-73815305D01*
X76562265Y-73820488D01*
X76533746Y-73837566D01*
X76497491Y-73862433D01*
X76494277Y-73864747D01*
X76427800Y-73907038D01*
X76356827Y-73940493D01*
X76275982Y-73966886D01*
X76179887Y-73987989D01*
X76063163Y-74005573D01*
X76034819Y-74009546D01*
X76008825Y-74016006D01*
X75999818Y-74025712D01*
X76002334Y-74041930D01*
X76002392Y-74042116D01*
X76009171Y-74065358D01*
X76021084Y-74107697D01*
X76036468Y-74163173D01*
X76053658Y-74225823D01*
X76069428Y-74282219D01*
X76091643Y-74358333D01*
X76113309Y-74429406D01*
X76131403Y-74485351D01*
X76136249Y-74499961D01*
X76150943Y-74549586D01*
X76160336Y-74589979D01*
X76162576Y-74613527D01*
X76152421Y-74628984D01*
X76116835Y-74653141D01*
X76055968Y-74682435D01*
X75969960Y-74716803D01*
X75858949Y-74756178D01*
X75802504Y-74775052D01*
X75755082Y-74791907D01*
X75725619Y-74806810D01*
X75710755Y-74824016D01*
X75707132Y-74847784D01*
X75711390Y-74882370D01*
X75720170Y-74932030D01*
X75724364Y-74956430D01*
X75732913Y-75003748D01*
X75739601Y-75037518D01*
X75743253Y-75051654D01*
X75754195Y-75049786D01*
X75785268Y-75040695D01*
X75831649Y-75025842D01*
X75888546Y-75006870D01*
X75951166Y-74985423D01*
X76014717Y-74963142D01*
X76074407Y-74941672D01*
X76125442Y-74922654D01*
X76163031Y-74907734D01*
X76180065Y-74900873D01*
X76215032Y-74888754D01*
X76236845Y-74883955D01*
X76237781Y-74884059D01*
X76253370Y-74896460D01*
X76276263Y-74925499D01*
X76301857Y-74965407D01*
X76327612Y-75007866D01*
X76365628Y-75067162D01*
X76400601Y-75118537D01*
X76425164Y-75156732D01*
X76442921Y-75192105D01*
X76448541Y-75214817D01*
X76447768Y-75218166D01*
X76437036Y-75231591D01*
X76411471Y-75246580D01*
X76367624Y-75264859D01*
X76302048Y-75288153D01*
X76230171Y-75313030D01*
X76154784Y-75340966D01*
X76092639Y-75367116D01*
X76037094Y-75394559D01*
X75981511Y-75426374D01*
X75919248Y-75465640D01*
X75885181Y-75487812D01*
X75843601Y-75515066D01*
X75814225Y-75534561D01*
X75801896Y-75543103D01*
X75801421Y-75548812D01*
X75806168Y-75573475D01*
X75816385Y-75610001D01*
X75821600Y-75627005D01*
X75836354Y-75676280D01*
X75854132Y-75736700D01*
X75872161Y-75798874D01*
X75882587Y-75834435D01*
X75897241Y-75879637D01*
X75908664Y-75905457D01*
X75918740Y-75915689D01*
X75929350Y-75914128D01*
X75930884Y-75913200D01*
X75950304Y-75897732D01*
X75983443Y-75868432D01*
X76026078Y-75829115D01*
X76073982Y-75783594D01*
X76137256Y-75723062D01*
X76202097Y-75662818D01*
X76257905Y-75613959D01*
X76309722Y-75572485D01*
X76362592Y-75534398D01*
X76421558Y-75495698D01*
X76491665Y-75452386D01*
X76504356Y-75444695D01*
X76571087Y-75404972D01*
X76620019Y-75377799D01*
X76654665Y-75361787D01*
X76678539Y-75355546D01*
X76695153Y-75357687D01*
X76708021Y-75366820D01*
X76730080Y-75379331D01*
X76770819Y-75393161D01*
X76821255Y-75405598D01*
X76873040Y-75414600D01*
X76917825Y-75418126D01*
X76951307Y-75420888D01*
X76971198Y-75432224D01*
X76967039Y-75453119D01*
X76939103Y-75484429D01*
X76918526Y-75507173D01*
X76885240Y-75550264D01*
X76844498Y-75607294D01*
X76799428Y-75673752D01*
X76753152Y-75745127D01*
X76708797Y-75816907D01*
X76708189Y-75817915D01*
X76688631Y-75847396D01*
X76663091Y-75880243D01*
X76629630Y-75918436D01*
X76586308Y-75963953D01*
X76531182Y-76018775D01*
X76462315Y-76084882D01*
X76377764Y-76164252D01*
X76275591Y-76258866D01*
X76209258Y-76319197D01*
X76143304Y-76376444D01*
X76086826Y-76421344D01*
X76035136Y-76457371D01*
X75983544Y-76487996D01*
X75927360Y-76516690D01*
X75923337Y-76518616D01*
X75809427Y-76565302D01*
X75702225Y-76594274D01*
X75606530Y-76604222D01*
X75586903Y-76604007D01*
X75554553Y-76600467D01*
X75535661Y-76589599D01*
X75521389Y-76567601D01*
X75511507Y-76544143D01*
X75495536Y-76496067D01*
X75477965Y-76435028D01*
X75460720Y-76368196D01*
X75445728Y-76302741D01*
X75434916Y-76245833D01*
X75431377Y-76224144D01*
X75422713Y-76172071D01*
X75412063Y-76108902D01*
X75400973Y-76043832D01*
X75400630Y-76041822D01*
X75394046Y-75999370D01*
X75388869Y-75955752D01*
X75384970Y-75907412D01*
X75382219Y-75850794D01*
X75380486Y-75782341D01*
X75379643Y-75698496D01*
X75379559Y-75595705D01*
X75380106Y-75470410D01*
X75380320Y-75421971D01*
X75379640Y-75231867D01*
X75376540Y-75056220D01*
X75371108Y-74898871D01*
X75363437Y-74763659D01*
X75361730Y-74739705D01*
X75356139Y-74660971D01*
X75351314Y-74592614D01*
X75347529Y-74538540D01*
X75345057Y-74502653D01*
X75344172Y-74488860D01*
X75342724Y-74488127D01*
X75323276Y-74486484D01*
X75285897Y-74485748D01*
X75236655Y-74486076D01*
X75218017Y-74486611D01*
X75136590Y-74495073D01*
X75073355Y-74512581D01*
X75030673Y-74538247D01*
X75010904Y-74571180D01*
X75005322Y-74595882D01*
X74994940Y-74639851D01*
X74981277Y-74696690D01*
X74965825Y-74760148D01*
X74953448Y-74813899D01*
X74936856Y-74895475D01*
X74922884Y-74974766D01*
X74913659Y-75040343D01*
X74900834Y-75134176D01*
X74868217Y-75302000D01*
X74823073Y-75476926D01*
X74813458Y-75510535D01*
X74793920Y-75580871D01*
X74775033Y-75651234D01*
X74758086Y-75716602D01*
X74744367Y-75771955D01*
X74735166Y-75812271D01*
X74731772Y-75832528D01*
X74736370Y-75839178D01*
X74760463Y-75856343D01*
X74801073Y-75879691D01*
X74853531Y-75906979D01*
X74913172Y-75935964D01*
X74975328Y-75964403D01*
X75035335Y-75990054D01*
X75088523Y-76010674D01*
X75130229Y-76024020D01*
X75164615Y-76034172D01*
X75201614Y-76048228D01*
X75222181Y-76060142D01*
X75226711Y-76068544D01*
X75235680Y-76099893D01*
X75244829Y-76146862D01*
X75252755Y-76202892D01*
X75254765Y-76218963D01*
X75266628Y-76295127D01*
X75282031Y-76375067D01*
X75298172Y-76443904D01*
X75304760Y-76469379D01*
X75315819Y-76517077D01*
X75322194Y-76552119D01*
X75322663Y-76568297D01*
X75316095Y-76572651D01*
X75285679Y-76576277D01*
X75234145Y-76573995D01*
X75164199Y-76566230D01*
X75078546Y-76553407D01*
X74979890Y-76535949D01*
X74870938Y-76514283D01*
X74754394Y-76488831D01*
X74632964Y-76460021D01*
X74412361Y-76405576D01*
X74073520Y-76414194D01*
X73966941Y-76416366D01*
X73855146Y-76417248D01*
X73761029Y-76416340D01*
X73687367Y-76413676D01*
X73636937Y-76409285D01*
X73585777Y-76402169D01*
X73511552Y-76391588D01*
X73457708Y-76383378D01*
X73420727Y-76376893D01*
X73397093Y-76371486D01*
X73383289Y-76366513D01*
X73375798Y-76361328D01*
X73374219Y-76359090D01*
X73371522Y-76334729D01*
X73376483Y-76292304D01*
X73387612Y-76237016D01*
X73403420Y-76174060D01*
X73422418Y-76108636D01*
X73443114Y-76045940D01*
X73464020Y-75991172D01*
X73483646Y-75949528D01*
X73500502Y-75926206D01*
X73513851Y-75920714D01*
X73549585Y-75912995D01*
X73600288Y-75905614D01*
X73659701Y-75899616D01*
X73661569Y-75899463D01*
X73729875Y-75891425D01*
X73805754Y-75878647D01*
X73882511Y-75862654D01*
X73953450Y-75844967D01*
X74011875Y-75827110D01*
X74051090Y-75810604D01*
X74052436Y-75809700D01*
X74067534Y-75790621D01*
X74087882Y-75755151D01*
X74109473Y-75710181D01*
X74133157Y-75658918D01*
X74157612Y-75610078D01*
X74177348Y-75574669D01*
X74182260Y-75566290D01*
X74204389Y-75521734D01*
X74231779Y-75458801D01*
X74262431Y-75382580D01*
X74294348Y-75298157D01*
X74325530Y-75210619D01*
X74353979Y-75125053D01*
X74383225Y-75033798D01*
X74416563Y-74931677D01*
X74444876Y-74847811D01*
X74469537Y-74778364D01*
X74491920Y-74719497D01*
X74513397Y-74667373D01*
X74535342Y-74618154D01*
X74550007Y-74585969D01*
X74569233Y-74542195D01*
X74581732Y-74511602D01*
X74585315Y-74499392D01*
X74579747Y-74497047D01*
X74554575Y-74489038D01*
X74515297Y-74477552D01*
X74468437Y-74464382D01*
X74420517Y-74451321D01*
X74378057Y-74440163D01*
X74347580Y-74432701D01*
X74335607Y-74430728D01*
X74322067Y-74460441D01*
X74297873Y-74507839D01*
X74268331Y-74562511D01*
X74237681Y-74616803D01*
X74210160Y-74663062D01*
X74190006Y-74693637D01*
X74167544Y-74723752D01*
X74131787Y-74771714D01*
X74096702Y-74818794D01*
X74079242Y-74843754D01*
X74045590Y-74896769D01*
X74009123Y-74958729D01*
X73975159Y-75020795D01*
X73954180Y-75060475D01*
X73926682Y-75109963D01*
X73899916Y-75153544D01*
X73870291Y-75196310D01*
X73834212Y-75243353D01*
X73788087Y-75299766D01*
X73728322Y-75370642D01*
X73685849Y-75420771D01*
X73593329Y-75531282D01*
X73515856Y-75626509D01*
X73451665Y-75709293D01*
X73398988Y-75782476D01*
X73356061Y-75848899D01*
X73321117Y-75911404D01*
X73292390Y-75972832D01*
X73268113Y-76036026D01*
X73246520Y-76103826D01*
X73225846Y-76179074D01*
X73219015Y-76204479D01*
X73204562Y-76253288D01*
X73191983Y-76289636D01*
X73183410Y-76307088D01*
X73169945Y-76313265D01*
X73134512Y-76311484D01*
X73085247Y-76297704D01*
X73026538Y-76273979D01*
X72962770Y-76242360D01*
X72898330Y-76204900D01*
X72837605Y-76163651D01*
X72784981Y-76120666D01*
X72756022Y-76093786D01*
X72724842Y-76062454D01*
X72707995Y-76039907D01*
X72702118Y-76021198D01*
X72703843Y-76001377D01*
X72716134Y-75961579D01*
X72739038Y-75905983D01*
X72769404Y-75841053D01*
X72804091Y-75773199D01*
X72839955Y-75708835D01*
X72873857Y-75654373D01*
X72891863Y-75628036D01*
X72927204Y-75579821D01*
X72963760Y-75536051D01*
X73006328Y-75491558D01*
X73059702Y-75441174D01*
X73128677Y-75379730D01*
X73188770Y-75326596D01*
X73285445Y-75238064D01*
X73367844Y-75157051D01*
X73439500Y-75079072D01*
X73503944Y-74999642D01*
X73564708Y-74914274D01*
X73625324Y-74818484D01*
X73689326Y-74707787D01*
X73760243Y-74577696D01*
X73777708Y-74545481D01*
X73856561Y-74411232D01*
X73945892Y-74277649D01*
X73957885Y-74259192D01*
X73966218Y-74236486D01*
X73966122Y-74207980D01*
X73958696Y-74163919D01*
X73949075Y-74124972D01*
X73934593Y-74097153D01*
X73914055Y-74088422D01*
X73884809Y-74099018D01*
X73844205Y-74129180D01*
X73789590Y-74179146D01*
X73785440Y-74183124D01*
X73742758Y-74223468D01*
X73703593Y-74259009D01*
X73663072Y-74293833D01*
X73616318Y-74332030D01*
X73558459Y-74377686D01*
X73484619Y-74434889D01*
X73441918Y-74468477D01*
X73412529Y-74495031D01*
X73394934Y-74518466D01*
X73384419Y-74545162D01*
X73376270Y-74581498D01*
X73358036Y-74661504D01*
X73314044Y-74802423D01*
X73258222Y-74932849D01*
X73193499Y-75045341D01*
X73186803Y-75054932D01*
X73143641Y-75108623D01*
X73085877Y-75171472D01*
X73018027Y-75239351D01*
X72944608Y-75308129D01*
X72870137Y-75373678D01*
X72799130Y-75431868D01*
X72736105Y-75478572D01*
X72685578Y-75509660D01*
X72674532Y-75515029D01*
X72588847Y-75541141D01*
X72493554Y-75546878D01*
X72393646Y-75532872D01*
X72294119Y-75499758D01*
X72199964Y-75448166D01*
X72179496Y-75434030D01*
X72118333Y-75386955D01*
X72061766Y-75334502D01*
X72006701Y-75273009D01*
X71950046Y-75198813D01*
X71888709Y-75108251D01*
X71819597Y-74997660D01*
X71808810Y-74980366D01*
X71779091Y-74936832D01*
X71742766Y-74889391D01*
X71697406Y-74835204D01*
X71640584Y-74771430D01*
X71569870Y-74695229D01*
X71482837Y-74603760D01*
X71460490Y-74578946D01*
X71418572Y-74526509D01*
X71373417Y-74464263D01*
X71363607Y-74449723D01*
X71989133Y-74449723D01*
X71995113Y-74465963D01*
X72013980Y-74492830D01*
X72047884Y-74534808D01*
X72092973Y-74589834D01*
X72143382Y-74651999D01*
X72188087Y-74707709D01*
X72209387Y-74733579D01*
X72258164Y-74783686D01*
X72302312Y-74812847D01*
X72345879Y-74823222D01*
X72392918Y-74816974D01*
X72437652Y-74795618D01*
X72488387Y-74755572D01*
X72536596Y-74704067D01*
X72576142Y-74647710D01*
X72600889Y-74593107D01*
X72607926Y-74568189D01*
X72616450Y-74533091D01*
X72619308Y-74513427D01*
X72611470Y-74468385D01*
X72596315Y-74415187D01*
X72577559Y-74365194D01*
X72558913Y-74329694D01*
X72550930Y-74318186D01*
X72524306Y-74277951D01*
X72497592Y-74235597D01*
X72484924Y-74216959D01*
X72461000Y-74190572D01*
X72442142Y-74180210D01*
X72439740Y-74180399D01*
X72413733Y-74188912D01*
X72371663Y-74208060D01*
X72318671Y-74235053D01*
X72259899Y-74267102D01*
X72200487Y-74301418D01*
X72145578Y-74335210D01*
X72100311Y-74365688D01*
X72098623Y-74366903D01*
X72057192Y-74396356D01*
X72021850Y-74420853D01*
X72000087Y-74435199D01*
X71993888Y-74439628D01*
X71989133Y-74449723D01*
X71363607Y-74449723D01*
X71327747Y-74396571D01*
X71284281Y-74327794D01*
X71245740Y-74262294D01*
X71214842Y-74204435D01*
X71194309Y-74158578D01*
X71186861Y-74129085D01*
X71189674Y-74118218D01*
X71211486Y-74089367D01*
X71252071Y-74053408D01*
X71308060Y-74012697D01*
X71376082Y-73969593D01*
X71452770Y-73926454D01*
X71534753Y-73885637D01*
X71546566Y-73880153D01*
X71601083Y-73855445D01*
X71651047Y-73834289D01*
X71700728Y-73815303D01*
X71754397Y-73797106D01*
X71790280Y-73786218D01*
X73148897Y-73786218D01*
X73153796Y-73812008D01*
X73163954Y-73844575D01*
X73184788Y-73892241D01*
X73208500Y-73919565D01*
X73237788Y-73930348D01*
X73239804Y-73930551D01*
X73283970Y-73927140D01*
X73339928Y-73912817D01*
X73398117Y-73890604D01*
X73448978Y-73863528D01*
X73458450Y-73857073D01*
X73482876Y-73836477D01*
X73492101Y-73821821D01*
X73490115Y-73816723D01*
X73475788Y-73793412D01*
X73450749Y-73757555D01*
X73418685Y-73714538D01*
X73346426Y-73620288D01*
X73293774Y-73649377D01*
X73278427Y-73658516D01*
X73233058Y-73690396D01*
X73191675Y-73725071D01*
X73174811Y-73741379D01*
X73154643Y-73765565D01*
X73148897Y-73786218D01*
X71790280Y-73786218D01*
X71816322Y-73778316D01*
X71890774Y-73757552D01*
X71982023Y-73733431D01*
X72094338Y-73704574D01*
X72120468Y-73697681D01*
X72287605Y-73643917D01*
X72442142Y-73580488D01*
X72458322Y-73573847D01*
X72622862Y-73491827D01*
X72771467Y-73402215D01*
X72799647Y-73383580D01*
X72870532Y-73337958D01*
X72946085Y-73290644D01*
X73014100Y-73249328D01*
X73140621Y-73174159D01*
X73108226Y-73112207D01*
X73090343Y-73072080D01*
X73069820Y-73014703D01*
X73053383Y-72957191D01*
X73051733Y-72950494D01*
X73039068Y-72906715D01*
X73026885Y-72875786D01*
X73017614Y-72864037D01*
X73011201Y-72866250D01*
X72984964Y-72879521D01*
X72943041Y-72902773D01*
X72889560Y-72933693D01*
X72828646Y-72969969D01*
X72694649Y-73049731D01*
X72545551Y-73135030D01*
X72408973Y-73208645D01*
X72280379Y-73272821D01*
X72155231Y-73329807D01*
X72028991Y-73381848D01*
X71897122Y-73431192D01*
X71766751Y-73479439D01*
X71637086Y-73532089D01*
X71527650Y-73582937D01*
X71435580Y-73633751D01*
X71358015Y-73686301D01*
X71292093Y-73742355D01*
X71234951Y-73803681D01*
X71183727Y-73872049D01*
X71159927Y-73905915D01*
X71139769Y-73929617D01*
X71125907Y-73936798D01*
X71114503Y-73930712D01*
X71101309Y-73909320D01*
X71083550Y-73864255D01*
X71063998Y-73801333D01*
X71043697Y-73724793D01*
X71023691Y-73638879D01*
X71005023Y-73547832D01*
X70988738Y-73455893D01*
X70975878Y-73367303D01*
X70969549Y-73314582D01*
X70966227Y-73274104D01*
X70967274Y-73248297D01*
X70972998Y-73231259D01*
X70983707Y-73217091D01*
X70985714Y-73214988D01*
X71016448Y-73191990D01*
X71064611Y-73164565D01*
X71123508Y-73135801D01*
X71186442Y-73108786D01*
X71246717Y-73086607D01*
X71297635Y-73072353D01*
X71324623Y-73066565D01*
X71450650Y-73037023D01*
X71576376Y-73003807D01*
X71693285Y-72969268D01*
X71792864Y-72935754D01*
X71820715Y-72925606D01*
X71894989Y-72898830D01*
X71970094Y-72872079D01*
X72033393Y-72849865D01*
X72079187Y-72833454D01*
X72128843Y-72813397D01*
X72153542Y-72799645D01*
X72153499Y-72792236D01*
X72128926Y-72791211D01*
X72080035Y-72796610D01*
X72007041Y-72808472D01*
X71910155Y-72826837D01*
X71824503Y-72842754D01*
X71687056Y-72861915D01*
X71563604Y-72868972D01*
X71448106Y-72863488D01*
X71334524Y-72845026D01*
X71216818Y-72813149D01*
X71088947Y-72767420D01*
X71083772Y-72765397D01*
X71016897Y-72739281D01*
X70970195Y-72719820D01*
X70940063Y-72703743D01*
X70922898Y-72687781D01*
X70915098Y-72668662D01*
X70913060Y-72643118D01*
X70913182Y-72607877D01*
X70913182Y-72606827D01*
X70914489Y-72540882D01*
X70918005Y-72466209D01*
X70921307Y-72416985D01*
X72061216Y-72416985D01*
X72073491Y-72424088D01*
X72106699Y-72429134D01*
X72157183Y-72432213D01*
X72221286Y-72433416D01*
X72295353Y-72432834D01*
X72375727Y-72430555D01*
X72458751Y-72426672D01*
X72540769Y-72421274D01*
X72618125Y-72414452D01*
X72687162Y-72406296D01*
X72744223Y-72396896D01*
X72747833Y-72396173D01*
X72859318Y-72374022D01*
X72947824Y-72356876D01*
X73015790Y-72344298D01*
X73065654Y-72335853D01*
X73099855Y-72331106D01*
X73120830Y-72329620D01*
X73126826Y-72329475D01*
X73150290Y-72323712D01*
X73168016Y-72306139D01*
X73183237Y-72272107D01*
X73199190Y-72216964D01*
X73208031Y-72182685D01*
X73215985Y-72150080D01*
X73218868Y-72132513D01*
X73217511Y-72123933D01*
X73212746Y-72118290D01*
X73212003Y-72117743D01*
X73192495Y-72117506D01*
X73152897Y-72125160D01*
X73097103Y-72139567D01*
X73029006Y-72159588D01*
X72952500Y-72184084D01*
X72871479Y-72211917D01*
X72789836Y-72241949D01*
X72770925Y-72249135D01*
X72675600Y-72284238D01*
X72594335Y-72311388D01*
X72519128Y-72332658D01*
X72441977Y-72350125D01*
X72354878Y-72365861D01*
X72249830Y-72381942D01*
X72226433Y-72385378D01*
X72163571Y-72395019D01*
X72112149Y-72403503D01*
X72076957Y-72410015D01*
X72062788Y-72413741D01*
X72061216Y-72416985D01*
X70921307Y-72416985D01*
X70923267Y-72387774D01*
X70929808Y-72310546D01*
X70937165Y-72239491D01*
X70944872Y-72179577D01*
X70952465Y-72135773D01*
X70959479Y-72113044D01*
X70960105Y-72112100D01*
X70981588Y-72093116D01*
X71019300Y-72070184D01*
X71065488Y-72048058D01*
X71091897Y-72037166D01*
X71121908Y-72026350D01*
X71151291Y-72018998D01*
X71185385Y-72014465D01*
X71229528Y-72012105D01*
X71289058Y-72011275D01*
X71369313Y-72011327D01*
X71382793Y-72011390D01*
X71507768Y-72014413D01*
X71612861Y-72021648D01*
X71695121Y-72032901D01*
X71703549Y-72034475D01*
X71767953Y-72045607D01*
X71832396Y-72055470D01*
X71884090Y-72062089D01*
X71918134Y-72065911D01*
X71967749Y-72072172D01*
X72004639Y-72077629D01*
X72007171Y-72078044D01*
X72035745Y-72079026D01*
X72046994Y-72071874D01*
X72046160Y-72069331D01*
X72029477Y-72058813D01*
X71998123Y-72050237D01*
X71988382Y-72048454D01*
X71934474Y-72035963D01*
X71876265Y-72017586D01*
X71809169Y-71991570D01*
X71756595Y-71968467D01*
X74245618Y-71968467D01*
X74249065Y-71984021D01*
X74250400Y-71985142D01*
X74259579Y-72005992D01*
X74269001Y-72046175D01*
X74277827Y-72099879D01*
X74285220Y-72161293D01*
X74290341Y-72224606D01*
X74292351Y-72284007D01*
X74293915Y-72333323D01*
X74300028Y-72384265D01*
X74310165Y-72413972D01*
X74320263Y-72428366D01*
X74327036Y-72431962D01*
X74328985Y-72413972D01*
X74328985Y-72413965D01*
X74331348Y-72405842D01*
X74337140Y-72417098D01*
X74347087Y-72449760D01*
X74361914Y-72505851D01*
X74360180Y-72528048D01*
X74346040Y-72568809D01*
X74320815Y-72620784D01*
X74299687Y-72662232D01*
X74284731Y-72698502D01*
X74282219Y-72716785D01*
X74292276Y-72715512D01*
X74315028Y-72693113D01*
X74342155Y-72661944D01*
X74325618Y-72694525D01*
X74315253Y-72719407D01*
X74312172Y-72737849D01*
X74312281Y-72741469D01*
X74301909Y-72740338D01*
X74295828Y-72737156D01*
X74288704Y-72739670D01*
X74295726Y-72755588D01*
X74315192Y-72779845D01*
X74324905Y-72792106D01*
X74346907Y-72828901D01*
X74366711Y-72871911D01*
X74377261Y-72896605D01*
X74388588Y-72916346D01*
X74393918Y-72916074D01*
X74394555Y-72913066D01*
X74398656Y-72917660D01*
X74404302Y-72942139D01*
X74404389Y-72942625D01*
X74415544Y-72975684D01*
X74431909Y-72988123D01*
X74432503Y-72988138D01*
X74458950Y-72991599D01*
X74494436Y-72999070D01*
X74510664Y-73003621D01*
X74527377Y-73013470D01*
X74523419Y-73026508D01*
X74521674Y-73029007D01*
X74521721Y-73044149D01*
X74538011Y-73066754D01*
X74573075Y-73100599D01*
X74603213Y-73130059D01*
X74637210Y-73169077D01*
X74659234Y-73201352D01*
X74667443Y-73215695D01*
X74685027Y-73232847D01*
X74698937Y-73224204D01*
X74709226Y-73189753D01*
X74711786Y-73178763D01*
X74714942Y-73181197D01*
X74716946Y-73209302D01*
X74717362Y-73218363D01*
X74722690Y-73249005D01*
X74738588Y-73270096D01*
X74771709Y-73291637D01*
X74801699Y-73307193D01*
X74826190Y-73313373D01*
X74843286Y-73306332D01*
X74851965Y-73298190D01*
X74861003Y-73277837D01*
X74845686Y-73264257D01*
X74840502Y-73261617D01*
X74852232Y-73262089D01*
X74866795Y-73260465D01*
X74888396Y-73243929D01*
X74892224Y-73237855D01*
X74899260Y-73230838D01*
X74898139Y-73248063D01*
X74898112Y-73248254D01*
X74885987Y-73274716D01*
X74862098Y-73302217D01*
X74829640Y-73330641D01*
X74894679Y-73402714D01*
X74927463Y-73438149D01*
X74953658Y-73459868D01*
X74979439Y-73467705D01*
X75013361Y-73464131D01*
X75063977Y-73451617D01*
X75093804Y-73445558D01*
X75164804Y-73439309D01*
X75241631Y-73440641D01*
X75311591Y-73449652D01*
X75325635Y-73452814D01*
X75345365Y-73459093D01*
X75344172Y-73462560D01*
X75343726Y-73462622D01*
X75345108Y-73469352D01*
X75365560Y-73484181D01*
X75400863Y-73504024D01*
X75405031Y-73506160D01*
X75446758Y-73525559D01*
X75474257Y-73534931D01*
X75485053Y-73534314D01*
X75476673Y-73523751D01*
X75446642Y-73503280D01*
X75436169Y-73496584D01*
X75418260Y-73482249D01*
X75418654Y-73476513D01*
X75424801Y-73478040D01*
X75448834Y-73491921D01*
X75479047Y-73515585D01*
X75501180Y-73532281D01*
X75536344Y-73551687D01*
X75569862Y-73564036D01*
X75594949Y-73567022D01*
X75604818Y-73558340D01*
X75603958Y-73555426D01*
X75588476Y-73539844D01*
X75559720Y-73521443D01*
X75550004Y-73515997D01*
X75526835Y-73500454D01*
X75520358Y-73491419D01*
X75526334Y-73491878D01*
X75548986Y-73502527D01*
X75581401Y-73522282D01*
X75610345Y-73539561D01*
X75646286Y-73555948D01*
X75674641Y-73563807D01*
X75691315Y-73562707D01*
X75692212Y-73552219D01*
X75673238Y-73531914D01*
X75666656Y-73526161D01*
X75665702Y-73522737D01*
X75685812Y-73533735D01*
X75718087Y-73547926D01*
X75750974Y-73554252D01*
X75755922Y-73554116D01*
X75767352Y-73551202D01*
X75759971Y-73542138D01*
X75752533Y-73537282D01*
X75804647Y-73537282D01*
X75806558Y-73538842D01*
X75822024Y-73537282D01*
X75824063Y-73533362D01*
X75813336Y-73528594D01*
X75806436Y-73529534D01*
X75804647Y-73537282D01*
X75752533Y-73537282D01*
X75731763Y-73523722D01*
X75707173Y-73508096D01*
X75681955Y-73490260D01*
X75673528Y-73481728D01*
X75683401Y-73484400D01*
X75713080Y-73500174D01*
X75726890Y-73508013D01*
X75753746Y-73522747D01*
X75765885Y-73528594D01*
X75766121Y-73528478D01*
X75768318Y-73515093D01*
X75769401Y-73486239D01*
X75767166Y-73456147D01*
X75800303Y-73456147D01*
X75800354Y-73460134D01*
X75804522Y-73491715D01*
X75813336Y-73509045D01*
X75816193Y-73509822D01*
X75823620Y-73497232D01*
X75826368Y-73464201D01*
X75826006Y-73451833D01*
X75821448Y-73422875D01*
X75813336Y-73411303D01*
X75811788Y-73411619D01*
X75803629Y-73426305D01*
X75800303Y-73456147D01*
X75767166Y-73456147D01*
X75765598Y-73435044D01*
X75740277Y-73340384D01*
X75730303Y-73319011D01*
X75774239Y-73319011D01*
X75776820Y-73345145D01*
X75787076Y-73373712D01*
X75801698Y-73385238D01*
X75803782Y-73385075D01*
X75811383Y-73375464D01*
X75808667Y-73359625D01*
X75804001Y-73329851D01*
X75800594Y-73315013D01*
X75789864Y-73296628D01*
X75779123Y-73297249D01*
X75774239Y-73319011D01*
X75730303Y-73319011D01*
X75691271Y-73235366D01*
X75687738Y-73228967D01*
X75648127Y-73156210D01*
X75618246Y-73098598D01*
X75594852Y-73049333D01*
X75574706Y-73001618D01*
X75554566Y-72948655D01*
X75552591Y-72943254D01*
X75542491Y-72914293D01*
X75534811Y-72887413D01*
X75529211Y-72858592D01*
X75525356Y-72823809D01*
X75522906Y-72779045D01*
X75521523Y-72720278D01*
X75521328Y-72697400D01*
X75545790Y-72697400D01*
X75546980Y-72744142D01*
X75550316Y-72778569D01*
X75555193Y-72793815D01*
X75561874Y-72805216D01*
X75565721Y-72832133D01*
X75568872Y-72852816D01*
X75578754Y-72863945D01*
X75582105Y-72863591D01*
X75588528Y-72854171D01*
X75588320Y-72853465D01*
X75592744Y-72845355D01*
X75598302Y-72850913D01*
X75604818Y-72844397D01*
X75600249Y-72839827D01*
X75607471Y-72838008D01*
X75613564Y-72843305D01*
X75598742Y-72863460D01*
X75585527Y-72885286D01*
X75583557Y-72909793D01*
X75585215Y-72913515D01*
X75594489Y-72919922D01*
X75612257Y-72912219D01*
X75643783Y-72888549D01*
X75669757Y-72865320D01*
X75691473Y-72837818D01*
X75695099Y-72818872D01*
X75679103Y-72811816D01*
X75673797Y-72812216D01*
X75649504Y-72821590D01*
X75647622Y-72821954D01*
X75661336Y-72808588D01*
X75674956Y-72791161D01*
X75676323Y-72762975D01*
X75673127Y-72750376D01*
X75669645Y-72714663D01*
X75669391Y-72670730D01*
X75670571Y-72636361D01*
X75668165Y-72615673D01*
X75657344Y-72611938D01*
X75633441Y-72623936D01*
X75591786Y-72650446D01*
X75572647Y-72662366D01*
X75573235Y-72660418D01*
X75594034Y-72643471D01*
X75626049Y-72617795D01*
X75657788Y-72592207D01*
X75676188Y-72571688D01*
X75681351Y-72552701D01*
X75677490Y-72548730D01*
X75656269Y-72554059D01*
X75617597Y-72578479D01*
X75613857Y-72581151D01*
X75585374Y-72600355D01*
X75576134Y-72603502D01*
X75585239Y-72590937D01*
X75611092Y-72567132D01*
X75645042Y-72544391D01*
X75698829Y-72544391D01*
X75700389Y-72559858D01*
X75704309Y-72561896D01*
X75709077Y-72551169D01*
X75708137Y-72544270D01*
X75700389Y-72542481D01*
X75698829Y-72544391D01*
X75645042Y-72544391D01*
X75647143Y-72542984D01*
X75659705Y-72534711D01*
X75677564Y-72513655D01*
X75684556Y-72492496D01*
X75679248Y-72478334D01*
X75660206Y-72478269D01*
X75656708Y-72479349D01*
X75653199Y-72476042D01*
X75669980Y-72460404D01*
X75675273Y-72456238D01*
X75700389Y-72439349D01*
X75702879Y-72437675D01*
X75715043Y-72437884D01*
X75713889Y-72456685D01*
X75713376Y-72460324D01*
X75715363Y-72488199D01*
X75722880Y-72531520D01*
X75734658Y-72582577D01*
X75736685Y-72590595D01*
X75749115Y-72646930D01*
X75757885Y-72698935D01*
X75761206Y-72736256D01*
X75761292Y-72743961D01*
X75766522Y-72805386D01*
X75778439Y-72871961D01*
X75795061Y-72935890D01*
X75814407Y-72989377D01*
X75834495Y-73024625D01*
X75840431Y-73031987D01*
X75856284Y-73056643D01*
X75858776Y-73070463D01*
X75855108Y-73072392D01*
X75841950Y-73064618D01*
X75834369Y-73056704D01*
X75810078Y-73042598D01*
X75797896Y-73035521D01*
X75787144Y-73017484D01*
X75782858Y-72998925D01*
X75770829Y-72967492D01*
X75754512Y-72931359D01*
X75737391Y-72897754D01*
X75722948Y-72873906D01*
X75714666Y-72867045D01*
X75714537Y-72878959D01*
X75721538Y-72909140D01*
X75734492Y-72949939D01*
X75744361Y-72978196D01*
X75756094Y-73013725D01*
X75759743Y-73030451D01*
X75755839Y-73032077D01*
X75744916Y-73022300D01*
X75736765Y-73009836D01*
X75722489Y-72976751D01*
X75708744Y-72934332D01*
X75688862Y-72862642D01*
X75637066Y-72908364D01*
X75617166Y-72927196D01*
X75600812Y-72946805D01*
X75600791Y-72954629D01*
X75605400Y-72954271D01*
X75624324Y-72942209D01*
X75635458Y-72931128D01*
X75660932Y-72915087D01*
X75668278Y-72912202D01*
X75666867Y-72917742D01*
X75647049Y-72935608D01*
X75639737Y-72941815D01*
X75616727Y-72967443D01*
X75613677Y-72982627D01*
X75629003Y-72983792D01*
X75661121Y-72967363D01*
X75702561Y-72939985D01*
X75666722Y-72970874D01*
X75662309Y-72974792D01*
X75639978Y-72998977D01*
X75630883Y-73016795D01*
X75638152Y-73036007D01*
X75659036Y-73039965D01*
X75687092Y-73024961D01*
X75702373Y-73012740D01*
X75701789Y-73015945D01*
X75683837Y-73036889D01*
X75672849Y-73050086D01*
X75661175Y-73072427D01*
X75667374Y-73088101D01*
X75671610Y-73091698D01*
X75688499Y-73093139D01*
X75713002Y-73074896D01*
X75713694Y-73074250D01*
X75738326Y-73054576D01*
X75755530Y-73046462D01*
X75757137Y-73046965D01*
X75751744Y-73057006D01*
X75731070Y-73075858D01*
X75710953Y-73095757D01*
X75702687Y-73122100D01*
X75718370Y-73149026D01*
X75758717Y-73179210D01*
X75761939Y-73181168D01*
X75789864Y-73194148D01*
X75797347Y-73197626D01*
X75813336Y-73200872D01*
X75839343Y-73206153D01*
X75897522Y-73208796D01*
X75947138Y-73207541D01*
X75989394Y-73201152D01*
X76032395Y-73186941D01*
X76087014Y-73162233D01*
X76149986Y-73127274D01*
X76224336Y-73071611D01*
X76282243Y-73010159D01*
X76318980Y-72947297D01*
X76321468Y-72940244D01*
X76331167Y-72897652D01*
X76338799Y-72840809D01*
X76343004Y-72779235D01*
X76339761Y-72674825D01*
X76317721Y-72560121D01*
X76276623Y-72460324D01*
X76217320Y-72376918D01*
X76140668Y-72311390D01*
X76047520Y-72265225D01*
X75976240Y-72239855D01*
X75955090Y-72267238D01*
X75950320Y-72272337D01*
X75922517Y-72287919D01*
X75883269Y-72298401D01*
X75838722Y-72303682D01*
X75795022Y-72303666D01*
X75758318Y-72298253D01*
X75734754Y-72287344D01*
X75730480Y-72270842D01*
X75731552Y-72264802D01*
X75761838Y-72264802D01*
X75771645Y-72270903D01*
X75797727Y-72271026D01*
X75844864Y-72266436D01*
X75853663Y-72265401D01*
X75901496Y-72256462D01*
X75925769Y-72245936D01*
X75926071Y-72235874D01*
X75901988Y-72228332D01*
X75853110Y-72225361D01*
X75805906Y-72227143D01*
X75777840Y-72233461D01*
X75765703Y-72245472D01*
X75763526Y-72251455D01*
X75761838Y-72264802D01*
X75731552Y-72264802D01*
X75732246Y-72260895D01*
X75723504Y-72251426D01*
X75721359Y-72251587D01*
X75708566Y-72264954D01*
X75707857Y-72294750D01*
X75707450Y-72298365D01*
X75696155Y-72297107D01*
X75691790Y-72293288D01*
X75690085Y-72276590D01*
X75693305Y-72266231D01*
X75680116Y-72268136D01*
X75649318Y-72285934D01*
X75628321Y-72305812D01*
X75623563Y-72325708D01*
X75625330Y-72334019D01*
X75617701Y-72336044D01*
X75611354Y-72334634D01*
X75604818Y-72347313D01*
X75603735Y-72355918D01*
X75593509Y-72370889D01*
X75584079Y-72380790D01*
X75572593Y-72406098D01*
X75571684Y-72409095D01*
X75569178Y-72429372D01*
X75580644Y-72431076D01*
X75587826Y-72427156D01*
X75598302Y-72407640D01*
X75604053Y-72398072D01*
X75625651Y-72378836D01*
X75656428Y-72356596D01*
X75689030Y-72336210D01*
X75716105Y-72322536D01*
X75730299Y-72320433D01*
X75725729Y-72326292D01*
X75703753Y-72341362D01*
X75669166Y-72361386D01*
X75638537Y-72379494D01*
X75615893Y-72396369D01*
X75610240Y-72405323D01*
X75622874Y-72403796D01*
X75655089Y-72389226D01*
X75687718Y-72373386D01*
X75703368Y-72368182D01*
X75699398Y-72374028D01*
X75677011Y-72389337D01*
X75637410Y-72412523D01*
X75600020Y-72434374D01*
X75572758Y-72455147D01*
X75558507Y-72476153D01*
X75551510Y-72503490D01*
X75548693Y-72523006D01*
X75548694Y-72550601D01*
X75559538Y-72558345D01*
X75583725Y-72549836D01*
X75596294Y-72544165D01*
X75597920Y-72546296D01*
X75579191Y-72562253D01*
X75575194Y-72565546D01*
X75560124Y-72581667D01*
X75551458Y-72602705D01*
X75547326Y-72635705D01*
X75545856Y-72687713D01*
X75545790Y-72697400D01*
X75521328Y-72697400D01*
X75520870Y-72643487D01*
X75520609Y-72544653D01*
X75520657Y-72476596D01*
X75521549Y-72379410D01*
X75523571Y-72304120D01*
X75526845Y-72248105D01*
X75531496Y-72208747D01*
X75537647Y-72183424D01*
X75543233Y-72166042D01*
X75548441Y-72134137D01*
X75546944Y-72095173D01*
X75538815Y-72040068D01*
X75538805Y-72040011D01*
X75530915Y-71986293D01*
X75525958Y-71936666D01*
X75525006Y-71901867D01*
X75524966Y-71887547D01*
X75518039Y-71859828D01*
X75499084Y-71827756D01*
X75464624Y-71784576D01*
X75445594Y-71761870D01*
X75501889Y-71761870D01*
X75512371Y-71761951D01*
X75534092Y-71749961D01*
X75547513Y-71737214D01*
X75546173Y-71730747D01*
X75542750Y-71730914D01*
X75521744Y-71738162D01*
X75504704Y-71750884D01*
X75501889Y-71761870D01*
X75445594Y-71761870D01*
X75436500Y-71751020D01*
X75400940Y-71705127D01*
X75392893Y-71692430D01*
X75448431Y-71692430D01*
X75451925Y-71699040D01*
X75469822Y-71698648D01*
X75472022Y-71697819D01*
X75484088Y-71695923D01*
X75475706Y-71709126D01*
X75468438Y-71727514D01*
X75479918Y-71738516D01*
X75505900Y-71735297D01*
X75521194Y-71725081D01*
X75526092Y-71710937D01*
X75513592Y-71704068D01*
X75507186Y-71701345D01*
X75500560Y-71683125D01*
X75497369Y-71671303D01*
X75479945Y-71670093D01*
X75469200Y-71673949D01*
X75453881Y-71678004D01*
X75452298Y-71678628D01*
X75448431Y-71692430D01*
X75392893Y-71692430D01*
X75375358Y-71664761D01*
X75354745Y-71621576D01*
X75343257Y-71591351D01*
X75384207Y-71591351D01*
X75396301Y-71599810D01*
X75399480Y-71600114D01*
X75407924Y-71609584D01*
X75408026Y-71618140D01*
X75414175Y-71643245D01*
X75424554Y-71667276D01*
X75434427Y-71678004D01*
X75445832Y-71673684D01*
X75468746Y-71658870D01*
X75479945Y-71649961D01*
X75482476Y-71647947D01*
X75483984Y-71640740D01*
X75461463Y-71639122D01*
X75457022Y-71638995D01*
X75439962Y-71635672D01*
X75446842Y-71627132D01*
X75450565Y-71624292D01*
X75457208Y-71607587D01*
X75448923Y-71594289D01*
X75431240Y-71595583D01*
X75424248Y-71597478D01*
X75432773Y-71583923D01*
X75441080Y-71564162D01*
X75430360Y-71552317D01*
X75403993Y-71555549D01*
X75399723Y-71557608D01*
X75386003Y-71573513D01*
X75384207Y-71591351D01*
X75343257Y-71591351D01*
X75334088Y-71567229D01*
X75308969Y-71493686D01*
X75354803Y-71493686D01*
X75363361Y-71504435D01*
X75391867Y-71501209D01*
X75395879Y-71500020D01*
X75403042Y-71500102D01*
X75387097Y-71511095D01*
X75370204Y-71526178D01*
X75367636Y-71543473D01*
X75379945Y-71551934D01*
X75403368Y-71543320D01*
X75417010Y-71533717D01*
X75423368Y-71516893D01*
X75416086Y-71487112D01*
X75414439Y-71482203D01*
X75404541Y-71458116D01*
X75393455Y-71455100D01*
X75372988Y-71469879D01*
X75368862Y-71473393D01*
X75354803Y-71493686D01*
X75308969Y-71493686D01*
X75308653Y-71492761D01*
X75296430Y-71450396D01*
X75344172Y-71450396D01*
X75347927Y-71465434D01*
X75363191Y-71466312D01*
X75387765Y-71445654D01*
X75393455Y-71438800D01*
X75398084Y-71433224D01*
X75409041Y-71412260D01*
X75401961Y-71404325D01*
X75377746Y-71412525D01*
X75354529Y-71431013D01*
X75344172Y-71450396D01*
X75296430Y-71450396D01*
X75287698Y-71420132D01*
X75274584Y-71354624D01*
X75267596Y-71287345D01*
X75265213Y-71215356D01*
X75315612Y-71215356D01*
X75323395Y-71312032D01*
X75324012Y-71319511D01*
X75328512Y-71365597D01*
X75332989Y-71399411D01*
X75336559Y-71414088D01*
X75350061Y-71416420D01*
X75370535Y-71403901D01*
X75375740Y-71397547D01*
X75425150Y-71397547D01*
X75426710Y-71413013D01*
X75430360Y-71414912D01*
X75430630Y-71415052D01*
X75432502Y-71410841D01*
X75448431Y-71410841D01*
X75454947Y-71417357D01*
X75461463Y-71410841D01*
X75454947Y-71404325D01*
X75448431Y-71410841D01*
X75432502Y-71410841D01*
X75435398Y-71404325D01*
X75434458Y-71397426D01*
X75426710Y-71395637D01*
X75425150Y-71397547D01*
X75375740Y-71397547D01*
X75388556Y-71381903D01*
X75396301Y-71357795D01*
X75395742Y-71343016D01*
X75388582Y-71331917D01*
X75366979Y-71339424D01*
X75351612Y-71346692D01*
X75346231Y-71347397D01*
X75361966Y-71334088D01*
X75380548Y-71305953D01*
X75390356Y-71259831D01*
X75391517Y-71249171D01*
X75401494Y-71210326D01*
X75401961Y-71209526D01*
X75416768Y-71184173D01*
X75427338Y-71174551D01*
X75434800Y-71171574D01*
X75429400Y-71189291D01*
X75423050Y-71213363D01*
X75416986Y-71252598D01*
X75412962Y-71296253D01*
X75411443Y-71336781D01*
X75412894Y-71366632D01*
X75417778Y-71378260D01*
X75423594Y-71369013D01*
X75426710Y-71352147D01*
X75428939Y-71340082D01*
X75431739Y-71298315D01*
X75434079Y-71261154D01*
X75439894Y-71224172D01*
X75447575Y-71204482D01*
X75454947Y-71189361D01*
X75457682Y-71183751D01*
X75463238Y-71150846D01*
X75464061Y-71136935D01*
X75466549Y-71125978D01*
X75470558Y-71139642D01*
X75471636Y-71156675D01*
X75469126Y-71195942D01*
X75462486Y-71241852D01*
X75457761Y-71272693D01*
X75456405Y-71302411D01*
X75459464Y-71334771D01*
X75467870Y-71374130D01*
X75482560Y-71424846D01*
X75504467Y-71491277D01*
X75534526Y-71577780D01*
X75534688Y-71578241D01*
X75546173Y-71614154D01*
X75550326Y-71627140D01*
X75561472Y-71670265D01*
X75565721Y-71698329D01*
X75568871Y-71719004D01*
X75578754Y-71730133D01*
X75581869Y-71730512D01*
X75591786Y-71743165D01*
X75587247Y-71750592D01*
X75566491Y-71756198D01*
X75560620Y-71756387D01*
X75536964Y-71764504D01*
X75536099Y-71779725D01*
X75559269Y-71795319D01*
X75577764Y-71801436D01*
X75617441Y-71808001D01*
X75645993Y-71803726D01*
X75649146Y-71799496D01*
X75685161Y-71799496D01*
X75699810Y-71804376D01*
X75715093Y-71804920D01*
X75751021Y-71799410D01*
X75794295Y-71788048D01*
X75824668Y-71777412D01*
X75854090Y-71764073D01*
X75865465Y-71754414D01*
X75857650Y-71745010D01*
X75833595Y-71744002D01*
X75800983Y-71752475D01*
X75767722Y-71769230D01*
X75765053Y-71770963D01*
X75731013Y-71788587D01*
X75702561Y-71796720D01*
X75695477Y-71797203D01*
X75685161Y-71799496D01*
X75649146Y-71799496D01*
X75656948Y-71789027D01*
X75666807Y-71773478D01*
X75692787Y-71761412D01*
X75721684Y-71752156D01*
X75758104Y-71734696D01*
X75761691Y-71732594D01*
X75796276Y-71720175D01*
X75833595Y-71715293D01*
X75835818Y-71715002D01*
X75870473Y-71717551D01*
X75890395Y-71728297D01*
X75902374Y-71732690D01*
X75927363Y-71722144D01*
X75959596Y-71698163D01*
X75994468Y-71664768D01*
X76027372Y-71625978D01*
X76053702Y-71585811D01*
X76063257Y-71567630D01*
X76078271Y-71532879D01*
X76087781Y-71496308D01*
X76093544Y-71449837D01*
X76097319Y-71385383D01*
X76103111Y-71254453D01*
X76045434Y-71143678D01*
X76031029Y-71116422D01*
X76004235Y-71070222D01*
X75979999Y-71038219D01*
X75952775Y-71013790D01*
X75917016Y-70990311D01*
X75867997Y-70962832D01*
X75808955Y-70937824D01*
X75746018Y-70922359D01*
X75668171Y-70913018D01*
X75571404Y-70913749D01*
X75486319Y-70932226D01*
X75416158Y-70966961D01*
X75363211Y-71016385D01*
X75329765Y-71078929D01*
X75318107Y-71153024D01*
X75318107Y-71198284D01*
X75376753Y-71163916D01*
X75406356Y-71147267D01*
X75429860Y-71136271D01*
X75432484Y-71138580D01*
X75414331Y-71152997D01*
X75375505Y-71178321D01*
X75315612Y-71215356D01*
X75265213Y-71215356D01*
X75265016Y-71209403D01*
X75264805Y-71176078D01*
X75265951Y-71118268D01*
X75270059Y-71076410D01*
X75278037Y-71043584D01*
X75290793Y-71012865D01*
X75299144Y-70994758D01*
X75312740Y-70960489D01*
X75318107Y-70939229D01*
X75316873Y-70933638D01*
X75300334Y-70923641D01*
X75271070Y-70924487D01*
X75237478Y-70936464D01*
X75236258Y-70937094D01*
X75203804Y-70946795D01*
X75164099Y-70950800D01*
X75156717Y-70951459D01*
X75120899Y-70961311D01*
X75070531Y-70980825D01*
X75011574Y-71007230D01*
X74949991Y-71037758D01*
X74891741Y-71069638D01*
X74842786Y-71100101D01*
X74834323Y-71106026D01*
X74824495Y-71114875D01*
X74831808Y-71115627D01*
X74858696Y-71107958D01*
X74907589Y-71091549D01*
X74943094Y-71079955D01*
X74978421Y-71069907D01*
X74997598Y-71066392D01*
X74997304Y-71069699D01*
X74978999Y-71079096D01*
X74947244Y-71092300D01*
X74908116Y-71107035D01*
X74867691Y-71121025D01*
X74832046Y-71131995D01*
X74807258Y-71137669D01*
X74803180Y-71138368D01*
X74771093Y-71147878D01*
X74725739Y-71165097D01*
X74675562Y-71186869D01*
X74674332Y-71187437D01*
X74622048Y-71213506D01*
X74584834Y-71238574D01*
X74553410Y-71270292D01*
X74518492Y-71316311D01*
X74512555Y-71324568D01*
X74481100Y-71366443D01*
X74453673Y-71400149D01*
X74435642Y-71419030D01*
X74432747Y-71420886D01*
X74434641Y-71413599D01*
X74449635Y-71390610D01*
X74475514Y-71355454D01*
X74484148Y-71343977D01*
X74509138Y-71308317D01*
X74523729Y-71283384D01*
X74524992Y-71274002D01*
X74521395Y-71275107D01*
X74502532Y-71291202D01*
X74475412Y-71322402D01*
X74444344Y-71363475D01*
X74413638Y-71409187D01*
X74410039Y-71415098D01*
X74400829Y-71434470D01*
X74404493Y-71437741D01*
X74413304Y-71433132D01*
X74417093Y-71435554D01*
X74411513Y-71450229D01*
X74395189Y-71480507D01*
X74366748Y-71529738D01*
X74361837Y-71538269D01*
X74337866Y-71584013D01*
X74320996Y-71623050D01*
X74314618Y-71647705D01*
X74312330Y-71666266D01*
X74303090Y-71683590D01*
X74298929Y-71689147D01*
X74290084Y-71714940D01*
X74282606Y-71752779D01*
X74279965Y-71770344D01*
X74272607Y-71814056D01*
X74266169Y-71846110D01*
X74264649Y-71852930D01*
X74264593Y-71869427D01*
X74276879Y-71866414D01*
X74277399Y-71866102D01*
X74288383Y-71861621D01*
X74280670Y-71874245D01*
X74279120Y-71876336D01*
X74263350Y-71905232D01*
X74251281Y-71939073D01*
X74245618Y-71968467D01*
X71756595Y-71968467D01*
X71728596Y-71956163D01*
X71629960Y-71909613D01*
X71563342Y-71876489D01*
X71486805Y-71836640D01*
X71406879Y-71793537D01*
X71326872Y-71749099D01*
X71250095Y-71705246D01*
X71179856Y-71663896D01*
X71119465Y-71626970D01*
X71072231Y-71596386D01*
X71041464Y-71574064D01*
X71030473Y-71561924D01*
X71031300Y-71556678D01*
X71037251Y-71530435D01*
X71047687Y-71488238D01*
X71061113Y-71436217D01*
X71079707Y-71371936D01*
X71104409Y-71297130D01*
X71132775Y-71218731D01*
X71163113Y-71140790D01*
X71193732Y-71067354D01*
X71222941Y-71002474D01*
X71249050Y-70950196D01*
X71270367Y-70914572D01*
X71285202Y-70899648D01*
X71291374Y-70901338D01*
X71314098Y-70917659D01*
X71348554Y-70948038D01*
X71391237Y-70988851D01*
X71438645Y-71036475D01*
X71487274Y-71087287D01*
X71533621Y-71137665D01*
X71574182Y-71183984D01*
X71605453Y-71222621D01*
X71623933Y-71249955D01*
X71624347Y-71250715D01*
X71645235Y-71278043D01*
X71681853Y-71316285D01*
X71729179Y-71361008D01*
X71782192Y-71407775D01*
X71835871Y-71452151D01*
X71885193Y-71489700D01*
X71925136Y-71515988D01*
X71950434Y-71530798D01*
X71985846Y-71552792D01*
X72007897Y-71568130D01*
X72008669Y-71568734D01*
X72031703Y-71581014D01*
X72071056Y-71597337D01*
X72118672Y-71614344D01*
X72128377Y-71617515D01*
X72156506Y-71625934D01*
X72184627Y-71632450D01*
X72216466Y-71637337D01*
X72255745Y-71640868D01*
X72306191Y-71643317D01*
X72371527Y-71644959D01*
X72455479Y-71646066D01*
X72561771Y-71646913D01*
X72693059Y-71648513D01*
X72832138Y-71652322D01*
X72948429Y-71658280D01*
X73043696Y-71666511D01*
X73119708Y-71677140D01*
X73178231Y-71690290D01*
X73185821Y-71692366D01*
X73192495Y-71693240D01*
X73214304Y-71696095D01*
X73225593Y-71687064D01*
X73226295Y-71684616D01*
X73233509Y-71660751D01*
X73245812Y-71620836D01*
X73260994Y-71572049D01*
X73292072Y-71472611D01*
X73122406Y-71425290D01*
X73106376Y-71420833D01*
X73045078Y-71404044D01*
X72994049Y-71390464D01*
X72958227Y-71381390D01*
X72942548Y-71378115D01*
X72940549Y-71377930D01*
X72919322Y-71371731D01*
X72887311Y-71359440D01*
X72842268Y-71340619D01*
X72868627Y-71277988D01*
X72875088Y-71262835D01*
X72903249Y-71201163D01*
X72929340Y-71150547D01*
X72950946Y-71115415D01*
X72965649Y-71100195D01*
X72966079Y-71100078D01*
X72984583Y-71102053D01*
X73022460Y-71110030D01*
X73074424Y-71122795D01*
X73135193Y-71139135D01*
X73234858Y-71163542D01*
X73346426Y-71184698D01*
X73358544Y-71186996D01*
X73484694Y-71204575D01*
X73677808Y-71226305D01*
X73744720Y-71159392D01*
X73749296Y-71154787D01*
X73779857Y-71122204D01*
X73799875Y-71097622D01*
X73805210Y-71086058D01*
X73805195Y-71086043D01*
X73790309Y-71082497D01*
X73754767Y-71077603D01*
X73703872Y-71072005D01*
X73642927Y-71066346D01*
X73570383Y-71059295D01*
X73467606Y-71044869D01*
X73379608Y-71025499D01*
X73299426Y-70999522D01*
X73220101Y-70965273D01*
X73204638Y-70957778D01*
X73138240Y-70923053D01*
X73078155Y-70886215D01*
X73019774Y-70843688D01*
X72958488Y-70791899D01*
X72889689Y-70727272D01*
X72808767Y-70646234D01*
X72755429Y-70591492D01*
X72707410Y-70541725D01*
X72668630Y-70501022D01*
X72642106Y-70472552D01*
X72630857Y-70459481D01*
X72630616Y-70459014D01*
X72639824Y-70452152D01*
X72672814Y-70447687D01*
X72727508Y-70445912D01*
X72766952Y-70445487D01*
X72805531Y-70443163D01*
X72830595Y-70436833D01*
X72849495Y-70424297D01*
X72869579Y-70403351D01*
X72878167Y-70393115D01*
X72898853Y-70361748D01*
X72907127Y-70337790D01*
X72901828Y-70300855D01*
X72882018Y-70244425D01*
X72851546Y-70186148D01*
X72814687Y-70135387D01*
X72803794Y-70124108D01*
X72768773Y-70093863D01*
X72724107Y-70060179D01*
X72675760Y-70027042D01*
X72629700Y-69998437D01*
X72591891Y-69978350D01*
X72568301Y-69970769D01*
X72565716Y-69970081D01*
X72548286Y-69956757D01*
X72524783Y-69931802D01*
X72524155Y-69931048D01*
X72497199Y-69883649D01*
X72477808Y-69820561D01*
X72468113Y-69751394D01*
X72470243Y-69685762D01*
X72471192Y-69679542D01*
X72479508Y-69636137D01*
X72491198Y-69585445D01*
X72504146Y-69535677D01*
X72516238Y-69495046D01*
X72525358Y-69471767D01*
X72531451Y-69473969D01*
X72546213Y-69493723D01*
X72565336Y-69527403D01*
X72570460Y-69536713D01*
X72609233Y-69589970D01*
X72663679Y-69647367D01*
X72727192Y-69703016D01*
X72793167Y-69751033D01*
X72854998Y-69785530D01*
X72868781Y-69791339D01*
X72913029Y-69807433D01*
X72966830Y-69824599D01*
X73024464Y-69841299D01*
X73080214Y-69855996D01*
X73128361Y-69867150D01*
X73163189Y-69873225D01*
X73178980Y-69872681D01*
X73179543Y-69870505D01*
X73170941Y-69854102D01*
X73150061Y-69829330D01*
X73131954Y-69805311D01*
X73108428Y-69764543D01*
X73086328Y-69718565D01*
X73069931Y-69676386D01*
X73063515Y-69647017D01*
X73063894Y-69646540D01*
X73075873Y-69654445D01*
X73102167Y-69677131D01*
X73139368Y-69711555D01*
X73184069Y-69754673D01*
X73261604Y-69826270D01*
X73347896Y-69893522D01*
X73444697Y-69955516D01*
X73461503Y-69965514D01*
X73583459Y-70044469D01*
X73693006Y-70126724D01*
X73785904Y-70208873D01*
X73857913Y-70287509D01*
X73896365Y-70340694D01*
X73956817Y-70442124D01*
X74018892Y-70566937D01*
X74081793Y-70713612D01*
X74097457Y-70750971D01*
X74118000Y-70794886D01*
X74134515Y-70824315D01*
X74144428Y-70834303D01*
X74156358Y-70829043D01*
X74157282Y-70828538D01*
X75357204Y-70828538D01*
X75359293Y-70845137D01*
X75368871Y-70862639D01*
X75377642Y-70864788D01*
X75385261Y-70855924D01*
X75467979Y-70855924D01*
X75516081Y-70856445D01*
X75544141Y-70854279D01*
X75568284Y-70846020D01*
X75575412Y-70834615D01*
X75562466Y-70824386D01*
X75591786Y-70824386D01*
X75598302Y-70830903D01*
X75604818Y-70824386D01*
X75598302Y-70817870D01*
X75591786Y-70824386D01*
X75562466Y-70824386D01*
X75561109Y-70823314D01*
X75560884Y-70823230D01*
X75536423Y-70824009D01*
X75504895Y-70835916D01*
X75467979Y-70855924D01*
X75385261Y-70855924D01*
X75386606Y-70854359D01*
X75386591Y-70835060D01*
X75375978Y-70817227D01*
X75372881Y-70814737D01*
X75360284Y-70810317D01*
X75357204Y-70828538D01*
X74157282Y-70828538D01*
X74185506Y-70813106D01*
X74222965Y-70790830D01*
X74254633Y-70769596D01*
X74280187Y-70744807D01*
X74287197Y-70722268D01*
X74285193Y-70707764D01*
X74276115Y-70671754D01*
X74262027Y-70627272D01*
X74245394Y-70581015D01*
X74228681Y-70539682D01*
X74214352Y-70509971D01*
X74204874Y-70498578D01*
X74198530Y-70505179D01*
X74188261Y-70531213D01*
X74178462Y-70570256D01*
X74171662Y-70601774D01*
X74159104Y-70644786D01*
X74145735Y-70667733D01*
X74129731Y-70674515D01*
X74127972Y-70674248D01*
X74121414Y-70658951D01*
X74124258Y-70621637D01*
X74124858Y-70617574D01*
X74127127Y-70559632D01*
X74121776Y-70486173D01*
X74109990Y-70405453D01*
X74092947Y-70325728D01*
X74071831Y-70255256D01*
X74020234Y-70140741D01*
X73937343Y-70015232D01*
X73829845Y-69897733D01*
X73827101Y-69895145D01*
X73779591Y-69852961D01*
X73727080Y-69810303D01*
X73719860Y-69804860D01*
X74437504Y-69804860D01*
X74439906Y-69822966D01*
X74450873Y-69857233D01*
X74468379Y-69901167D01*
X74484528Y-69939988D01*
X74515516Y-70024778D01*
X74543097Y-70117045D01*
X74569019Y-70222963D01*
X74595030Y-70348707D01*
X74608179Y-70414654D01*
X74624336Y-70491388D01*
X74640620Y-70564915D01*
X74655985Y-70630765D01*
X74669385Y-70684467D01*
X74679771Y-70721551D01*
X74686097Y-70737546D01*
X74697308Y-70732592D01*
X74723162Y-70715003D01*
X74741794Y-70700858D01*
X75321945Y-70700858D01*
X75338042Y-70727015D01*
X75360284Y-70753425D01*
X75368934Y-70763696D01*
X75418650Y-70820296D01*
X75473620Y-70792252D01*
X75490550Y-70784300D01*
X75526272Y-70771714D01*
X75550414Y-70768870D01*
X75552939Y-70773376D01*
X75536873Y-70783667D01*
X75503818Y-70796748D01*
X75475807Y-70807310D01*
X75446690Y-70821543D01*
X75435398Y-70831950D01*
X75435398Y-70832847D01*
X75436313Y-70840061D01*
X75442221Y-70842133D01*
X75457874Y-70837804D01*
X75488020Y-70825816D01*
X75537411Y-70804909D01*
X75545268Y-70801617D01*
X75558432Y-70796688D01*
X75707269Y-70796688D01*
X75712583Y-70800837D01*
X75725809Y-70802932D01*
X75751680Y-70800354D01*
X75752842Y-70799835D01*
X75750882Y-70795755D01*
X75728626Y-70794346D01*
X75724578Y-70794432D01*
X75707269Y-70796688D01*
X75558432Y-70796688D01*
X75560884Y-70795770D01*
X75590706Y-70784603D01*
X75598302Y-70782435D01*
X75626983Y-70774247D01*
X75646849Y-70772686D01*
X75651116Y-70773751D01*
X75679022Y-70773552D01*
X75716150Y-70767408D01*
X75726342Y-70764997D01*
X75728626Y-70764381D01*
X75748699Y-70758963D01*
X75777023Y-70758963D01*
X75778583Y-70774429D01*
X75782503Y-70776468D01*
X75787271Y-70765741D01*
X75786330Y-70758842D01*
X75778583Y-70757053D01*
X75777023Y-70758963D01*
X75748699Y-70758963D01*
X75750281Y-70758536D01*
X75750728Y-70755419D01*
X75729277Y-70754018D01*
X75716401Y-70753257D01*
X75700794Y-70748315D01*
X75706471Y-70737070D01*
X75709152Y-70734285D01*
X75721417Y-70714962D01*
X75717478Y-70706466D01*
X75699303Y-70714880D01*
X75694703Y-70718069D01*
X75693465Y-70715081D01*
X75708091Y-70696927D01*
X75709322Y-70695601D01*
X75722109Y-70695601D01*
X75722958Y-70697384D01*
X75735142Y-70694063D01*
X75739000Y-70691386D01*
X75748174Y-70679493D01*
X75747325Y-70677710D01*
X75735142Y-70681031D01*
X75731284Y-70683708D01*
X75722109Y-70695601D01*
X75709322Y-70695601D01*
X75711390Y-70693373D01*
X75739984Y-70670737D01*
X75747325Y-70668100D01*
X75765750Y-70661482D01*
X75766381Y-70661483D01*
X75782728Y-70662829D01*
X75781912Y-70670868D01*
X75763478Y-70691645D01*
X75762424Y-70692771D01*
X75743120Y-70715153D01*
X75735142Y-70727811D01*
X75738141Y-70729632D01*
X75759654Y-70732236D01*
X75778583Y-70732544D01*
X75795081Y-70732813D01*
X75800066Y-70732695D01*
X75844662Y-70726459D01*
X75866756Y-70710841D01*
X75867660Y-70709122D01*
X75868491Y-70694448D01*
X75852807Y-70679261D01*
X75816591Y-70659443D01*
X75795797Y-70649006D01*
X75773280Y-70635710D01*
X75770784Y-70628514D01*
X75785787Y-70624562D01*
X75787065Y-70624404D01*
X75819805Y-70629861D01*
X75854975Y-70648269D01*
X75870775Y-70659164D01*
X75893958Y-70668207D01*
X75911703Y-70660964D01*
X75920571Y-70650402D01*
X75922330Y-70632537D01*
X75922153Y-70632216D01*
X75929770Y-70626924D01*
X75953473Y-70625315D01*
X75984022Y-70626923D01*
X76012176Y-70631279D01*
X76028696Y-70637917D01*
X76027393Y-70643214D01*
X76012397Y-70662056D01*
X75985846Y-70688438D01*
X75964731Y-70707750D01*
X75950895Y-70719691D01*
X75954282Y-70714489D01*
X75973815Y-70692509D01*
X75979531Y-70686117D01*
X75997979Y-70662951D01*
X76000047Y-70650684D01*
X75987465Y-70643044D01*
X75966829Y-70642295D01*
X75935483Y-70656432D01*
X75908088Y-70681565D01*
X75893979Y-70710917D01*
X75880707Y-70733850D01*
X75841849Y-70754294D01*
X75793787Y-70770399D01*
X75858949Y-70786070D01*
X75891614Y-70794109D01*
X75908373Y-70799526D01*
X75902932Y-70802038D01*
X75877018Y-70803290D01*
X75857802Y-70804609D01*
X75809753Y-70810697D01*
X75759727Y-70819666D01*
X75733054Y-70825019D01*
X75687213Y-70833083D01*
X75653690Y-70837585D01*
X75624576Y-70840247D01*
X75601667Y-70843691D01*
X75594850Y-70848603D01*
X75598332Y-70857015D01*
X75609848Y-70863550D01*
X75635862Y-70862705D01*
X75643750Y-70861467D01*
X75668171Y-70862521D01*
X75682057Y-70863121D01*
X75733867Y-70871888D01*
X75791003Y-70885856D01*
X75845289Y-70903115D01*
X75888549Y-70921754D01*
X75894973Y-70925275D01*
X75936267Y-70951115D01*
X75970939Y-70977265D01*
X75987567Y-70993746D01*
X76027346Y-71045942D01*
X76065897Y-71111582D01*
X76098605Y-71182283D01*
X76120858Y-71249661D01*
X76142132Y-71336096D01*
X76233055Y-71240378D01*
X76270638Y-71202142D01*
X76314635Y-71163148D01*
X76354742Y-71136476D01*
X76397706Y-71117075D01*
X76492884Y-71090973D01*
X76613923Y-71081539D01*
X76738631Y-71096233D01*
X76741295Y-71096803D01*
X76795935Y-71107842D01*
X76846368Y-71116999D01*
X76881986Y-71122341D01*
X76889770Y-71123386D01*
X76885686Y-71123986D01*
X76860345Y-71122948D01*
X76816825Y-71120367D01*
X76729110Y-71115315D01*
X76625070Y-71111933D01*
X76540441Y-71113543D01*
X76471497Y-71120840D01*
X76414508Y-71134519D01*
X76365749Y-71155275D01*
X76321492Y-71183803D01*
X76278009Y-71220796D01*
X76230591Y-71268178D01*
X76179010Y-71333017D01*
X76145821Y-71397212D01*
X76127634Y-71466299D01*
X76106199Y-71550988D01*
X76058421Y-71647476D01*
X75986725Y-71734149D01*
X75933877Y-71781947D01*
X75854446Y-71836888D01*
X75777459Y-71868208D01*
X75700769Y-71876977D01*
X75633815Y-71875116D01*
X75618791Y-71929689D01*
X75613410Y-71959270D01*
X75613413Y-72025281D01*
X75625301Y-72095456D01*
X75647616Y-72158232D01*
X75648431Y-72159879D01*
X75662840Y-72180989D01*
X75683801Y-72189689D01*
X75720912Y-72190162D01*
X75733326Y-72189129D01*
X75773251Y-72180260D01*
X75800895Y-72166180D01*
X75817664Y-72155310D01*
X75852124Y-72153586D01*
X75853110Y-72153703D01*
X75871158Y-72155836D01*
X75898986Y-72146387D01*
X75911231Y-72138881D01*
X75926597Y-72138794D01*
X75928649Y-72142046D01*
X75919766Y-72147167D01*
X75914732Y-72147932D01*
X75904562Y-72160658D01*
X75909127Y-72167354D01*
X75930333Y-72160357D01*
X75934556Y-72158147D01*
X75950024Y-72153242D01*
X75949167Y-72164642D01*
X75953309Y-72179807D01*
X75976240Y-72188487D01*
X75982041Y-72190683D01*
X76044096Y-72210719D01*
X76114780Y-72248004D01*
X76183639Y-72296940D01*
X76244868Y-72352807D01*
X76292664Y-72410887D01*
X76321221Y-72466459D01*
X76338385Y-72511637D01*
X76358129Y-72541815D01*
X76378722Y-72549317D01*
X76392512Y-72551691D01*
X76424394Y-72562582D01*
X76464952Y-72579581D01*
X76573950Y-72621019D01*
X76687146Y-72649068D01*
X76792437Y-72660235D01*
X76818967Y-72660426D01*
X76857484Y-72657897D01*
X76892454Y-72649630D01*
X76932587Y-72633197D01*
X76986594Y-72606176D01*
X77012714Y-72592851D01*
X77055585Y-72572111D01*
X77086173Y-72558839D01*
X77099126Y-72555447D01*
X77099533Y-72555906D01*
X77096964Y-72564933D01*
X77077682Y-72580232D01*
X77039375Y-72603362D01*
X76979729Y-72635882D01*
X76973819Y-72639017D01*
X76931218Y-72660828D01*
X76898674Y-72673785D01*
X76867170Y-72679691D01*
X76827688Y-72680348D01*
X76771211Y-72677560D01*
X76761598Y-72676963D01*
X76650512Y-72662305D01*
X76540652Y-72631624D01*
X76427383Y-72592436D01*
X76421878Y-72620674D01*
X76416372Y-72648912D01*
X76414597Y-72620048D01*
X76407583Y-72599134D01*
X76384968Y-72576276D01*
X76368104Y-72568446D01*
X76361308Y-72573368D01*
X76365576Y-72598624D01*
X76379832Y-72681957D01*
X76383869Y-72800417D01*
X76368356Y-72910712D01*
X76333678Y-73007886D01*
X76328759Y-73017086D01*
X76288224Y-73070634D01*
X76229749Y-73125122D01*
X76159547Y-73175952D01*
X76083833Y-73218529D01*
X76008820Y-73248252D01*
X76000701Y-73250867D01*
X75963810Y-73264682D01*
X75922637Y-73282045D01*
X75888518Y-73300316D01*
X75869978Y-73321877D01*
X75860876Y-73355428D01*
X75855834Y-73389828D01*
X75852335Y-73445780D01*
X75858769Y-73479018D01*
X75875239Y-73490526D01*
X75886327Y-73492390D01*
X75881755Y-73498128D01*
X75879938Y-73498971D01*
X75867762Y-73514086D01*
X75866681Y-73532595D01*
X75877850Y-73541626D01*
X75884774Y-73539529D01*
X75900656Y-73523284D01*
X75900676Y-73523250D01*
X75917077Y-73510396D01*
X75951446Y-73491800D01*
X75997166Y-73470294D01*
X76047620Y-73448710D01*
X76096191Y-73429878D01*
X76136261Y-73416630D01*
X76161213Y-73411798D01*
X76163874Y-73412753D01*
X76154145Y-73420518D01*
X76125802Y-73434359D01*
X76082884Y-73452194D01*
X76064646Y-73459455D01*
X76022890Y-73477142D01*
X75994983Y-73490571D01*
X75986199Y-73497284D01*
X75987468Y-73497667D01*
X76006155Y-73494434D01*
X76019016Y-73490854D01*
X76165208Y-73490854D01*
X76172764Y-73490700D01*
X76199457Y-73481589D01*
X76240881Y-73464459D01*
X76292274Y-73441173D01*
X76293620Y-73440540D01*
X76355597Y-73410937D01*
X76399872Y-73388803D01*
X76424941Y-73374969D01*
X76429296Y-73370265D01*
X76411430Y-73375520D01*
X76390734Y-73383292D01*
X76345784Y-73401766D01*
X76296111Y-73423612D01*
X76247467Y-73446138D01*
X76205602Y-73466649D01*
X76176265Y-73482452D01*
X76165208Y-73490854D01*
X76019016Y-73490854D01*
X76041626Y-73484560D01*
X76087580Y-73469756D01*
X76097662Y-73466375D01*
X76143666Y-73452222D01*
X76179131Y-73443319D01*
X76197069Y-73441471D01*
X76199869Y-73441654D01*
X76222623Y-73435777D01*
X76260451Y-73421542D01*
X76306836Y-73401332D01*
X76337677Y-73387499D01*
X76381017Y-73370932D01*
X76410254Y-73365311D01*
X76429296Y-73368919D01*
X76430871Y-73369217D01*
X76440117Y-73375375D01*
X76438832Y-73383673D01*
X76422707Y-73395749D01*
X76388722Y-73413806D01*
X76333854Y-73440051D01*
X76297438Y-73457670D01*
X76244883Y-73485056D01*
X76202639Y-73509401D01*
X76177466Y-73526949D01*
X76163322Y-73539456D01*
X76128257Y-73569836D01*
X76090273Y-73602194D01*
X76068540Y-73622445D01*
X76044309Y-73651519D01*
X76034885Y-73672697D01*
X76033004Y-73686046D01*
X76021667Y-73704645D01*
X76018909Y-73706631D01*
X76000104Y-73731296D01*
X75982177Y-73768941D01*
X75969605Y-73808578D01*
X75966864Y-73839216D01*
X75981447Y-73865824D01*
X76015323Y-73887989D01*
X76060798Y-73900065D01*
X76110508Y-73898987D01*
X76129200Y-73895237D01*
X76188341Y-73880101D01*
X76257589Y-73859168D01*
X76327032Y-73835547D01*
X76386758Y-73812347D01*
X76420588Y-73795299D01*
X76463425Y-73769184D01*
X76506769Y-73739351D01*
X76544859Y-73710004D01*
X76571937Y-73685351D01*
X76582243Y-73669595D01*
X76581259Y-73665559D01*
X76569210Y-73665433D01*
X76564578Y-73667848D01*
X76556178Y-73666661D01*
X76562547Y-73658905D01*
X76583815Y-73645043D01*
X76602785Y-73637139D01*
X76602595Y-73644584D01*
X76600192Y-73651791D01*
X76610979Y-73658292D01*
X76638860Y-73654435D01*
X76679390Y-73640457D01*
X76688797Y-73636192D01*
X76734572Y-73600830D01*
X76762084Y-73548281D01*
X76771563Y-73477859D01*
X76763238Y-73388875D01*
X76754105Y-73347544D01*
X76742698Y-73313965D01*
X76732132Y-73298731D01*
X76714131Y-73299870D01*
X76679358Y-73309554D01*
X76636292Y-73325784D01*
X76617514Y-73333592D01*
X76571015Y-73351658D01*
X76546856Y-73358909D01*
X76544378Y-73356158D01*
X76562922Y-73344217D01*
X76601828Y-73323900D01*
X76660437Y-73296019D01*
X76755249Y-73247954D01*
X76878507Y-73175060D01*
X77006395Y-73089658D01*
X77132718Y-72996147D01*
X77251277Y-72898926D01*
X77355875Y-72802393D01*
X77372086Y-72786198D01*
X77425983Y-72730937D01*
X77483804Y-72669880D01*
X77542807Y-72606106D01*
X77600252Y-72542697D01*
X77653399Y-72482733D01*
X77699507Y-72429295D01*
X77735834Y-72385464D01*
X77759640Y-72354321D01*
X77768184Y-72338945D01*
X77770539Y-72331527D01*
X77783502Y-72306437D01*
X77804180Y-72271238D01*
X77828433Y-72232472D01*
X77852124Y-72196682D01*
X77871112Y-72170411D01*
X77881259Y-72160200D01*
X77883173Y-72163568D01*
X77876880Y-72177013D01*
X77859831Y-72204276D01*
X77829872Y-72249084D01*
X77815832Y-72270973D01*
X77801081Y-72298323D01*
X77797938Y-72311588D01*
X77800815Y-72311346D01*
X77815779Y-72298719D01*
X77837545Y-72274846D01*
X77860295Y-72246746D01*
X77878210Y-72221440D01*
X77885475Y-72205949D01*
X77885763Y-72204233D01*
X77895060Y-72185605D01*
X77913384Y-72157610D01*
X77916263Y-72153471D01*
X77934812Y-72121561D01*
X77943678Y-72096953D01*
X77944135Y-72093910D01*
X77952259Y-72065559D01*
X77966248Y-72029876D01*
X77971863Y-72016677D01*
X77986420Y-71972887D01*
X77993929Y-71926775D01*
X77994569Y-71872600D01*
X77988519Y-71804622D01*
X77975957Y-71717101D01*
X77955141Y-71602802D01*
X77931808Y-71509749D01*
X77905026Y-71436296D01*
X77873610Y-71379202D01*
X77836376Y-71335226D01*
X77822437Y-71324408D01*
X77776214Y-71299388D01*
X77706555Y-71270145D01*
X77614884Y-71237208D01*
X77502627Y-71201105D01*
X77371208Y-71162368D01*
X77336134Y-71151955D01*
X77290136Y-71136621D01*
X77258598Y-71123910D01*
X77246891Y-71115835D01*
X77246923Y-71114455D01*
X77251136Y-71104581D01*
X77264574Y-71108076D01*
X77298147Y-71117673D01*
X77346999Y-71131929D01*
X77406282Y-71149402D01*
X77471147Y-71168649D01*
X77536748Y-71188228D01*
X77598235Y-71206694D01*
X77650762Y-71222607D01*
X77689479Y-71234522D01*
X77709539Y-71240998D01*
X77721143Y-71244503D01*
X77722159Y-71240487D01*
X77703023Y-71223375D01*
X77702178Y-71222680D01*
X77675387Y-71203999D01*
X77656054Y-71196097D01*
X77653577Y-71195701D01*
X77632853Y-71184422D01*
X77605758Y-71162528D01*
X77593668Y-71152809D01*
X77552870Y-71126838D01*
X77495200Y-71095165D01*
X77425718Y-71060206D01*
X77349483Y-71024377D01*
X77271558Y-70990093D01*
X77197001Y-70959771D01*
X77130873Y-70935825D01*
X77130809Y-70935803D01*
X77034212Y-70905624D01*
X76928179Y-70875579D01*
X76819519Y-70847359D01*
X76715042Y-70822656D01*
X76621555Y-70803161D01*
X76545869Y-70790562D01*
X76538538Y-70789644D01*
X76476354Y-70784504D01*
X76396571Y-70781265D01*
X76306506Y-70780131D01*
X76213477Y-70781304D01*
X76147294Y-70782954D01*
X76085992Y-70784066D01*
X76045106Y-70783880D01*
X76021512Y-70782123D01*
X76012085Y-70778523D01*
X76013699Y-70772806D01*
X76023232Y-70764701D01*
X76047939Y-70751317D01*
X76070086Y-70749001D01*
X76080628Y-70750398D01*
X76104670Y-70741247D01*
X76114988Y-70735150D01*
X76131257Y-70736134D01*
X76135049Y-70737270D01*
X76131922Y-70722989D01*
X76129413Y-70710303D01*
X76136663Y-70700579D01*
X76141984Y-70701729D01*
X76155822Y-70716870D01*
X76159514Y-70722946D01*
X76172821Y-70722677D01*
X76175800Y-70715042D01*
X76164831Y-70700070D01*
X76155968Y-70693271D01*
X76156365Y-70687747D01*
X76158189Y-70687555D01*
X76158683Y-70680008D01*
X76143979Y-70665327D01*
X76120376Y-70648786D01*
X76094172Y-70635661D01*
X76080666Y-70630752D01*
X76047938Y-70620943D01*
X76008039Y-70612278D01*
X75954715Y-70603513D01*
X75881710Y-70593404D01*
X75867814Y-70591607D01*
X75813532Y-70586151D01*
X75770527Y-70586455D01*
X75726939Y-70593312D01*
X75670908Y-70607517D01*
X75606944Y-70623101D01*
X75532352Y-70638151D01*
X75466023Y-70648698D01*
X75448127Y-70650987D01*
X75383735Y-70660289D01*
X75342661Y-70670019D01*
X75322775Y-70682701D01*
X75321945Y-70700858D01*
X74741794Y-70700858D01*
X74757928Y-70688609D01*
X74792837Y-70663245D01*
X74831689Y-70639705D01*
X74859972Y-70627746D01*
X74886239Y-70621671D01*
X74910847Y-70615190D01*
X74916804Y-70612119D01*
X74925741Y-70593472D01*
X74921094Y-70559906D01*
X74911024Y-70505360D01*
X74897095Y-70437836D01*
X74880746Y-70363666D01*
X74863414Y-70289181D01*
X74846535Y-70220714D01*
X74831549Y-70164595D01*
X74819890Y-70127157D01*
X74800419Y-70082054D01*
X74766750Y-70017867D01*
X74725902Y-69948980D01*
X74682346Y-69882507D01*
X74640556Y-69825564D01*
X74605004Y-69785269D01*
X74567761Y-69749640D01*
X74506950Y-69772723D01*
X74485916Y-69781005D01*
X74454084Y-69794903D01*
X74438034Y-69803912D01*
X74437504Y-69804860D01*
X73719860Y-69804860D01*
X73673710Y-69770068D01*
X73623622Y-69735148D01*
X73580956Y-69708440D01*
X73549855Y-69692839D01*
X73534458Y-69691239D01*
X73534745Y-69695136D01*
X73547854Y-69713985D01*
X73574685Y-69743710D01*
X73611411Y-69779901D01*
X73624778Y-69792619D01*
X73670064Y-69838246D01*
X73707394Y-69879689D01*
X73734014Y-69913528D01*
X73747169Y-69936340D01*
X73744103Y-69944704D01*
X73729304Y-69937286D01*
X73707377Y-69917187D01*
X73706553Y-69916288D01*
X73678389Y-69891505D01*
X73632481Y-69857243D01*
X73573617Y-69816578D01*
X73506583Y-69772585D01*
X73436166Y-69728341D01*
X73367152Y-69686922D01*
X73304330Y-69651404D01*
X73252484Y-69624862D01*
X73208904Y-69603794D01*
X73129260Y-69560426D01*
X73068057Y-69518278D01*
X73020590Y-69473846D01*
X72982152Y-69423628D01*
X72962205Y-69394933D01*
X72940899Y-69368695D01*
X72928119Y-69358484D01*
X72924366Y-69362289D01*
X72921951Y-69384101D01*
X72923913Y-69417920D01*
X72929235Y-69455252D01*
X72936896Y-69487600D01*
X72945878Y-69506472D01*
X72955269Y-69517987D01*
X72956001Y-69534637D01*
X72933230Y-69540702D01*
X72912724Y-69534834D01*
X72877217Y-69511624D01*
X72837289Y-69475549D01*
X72798474Y-69431759D01*
X72766309Y-69385405D01*
X72745722Y-69344764D01*
X72734687Y-69301914D01*
X72732478Y-69247475D01*
X72739593Y-69181929D01*
X72755223Y-69137175D01*
X73404305Y-69137175D01*
X73405758Y-69171023D01*
X73427304Y-69218795D01*
X73468118Y-69264436D01*
X73524257Y-69305656D01*
X73591776Y-69340164D01*
X73666732Y-69365668D01*
X73745180Y-69379877D01*
X73823178Y-69380501D01*
X73862729Y-69374877D01*
X73925021Y-69361227D01*
X73983036Y-69343976D01*
X73984197Y-69343565D01*
X74025762Y-69326861D01*
X74054994Y-69311390D01*
X74065630Y-69300452D01*
X74063892Y-69295601D01*
X74048484Y-69274417D01*
X74022658Y-69247475D01*
X74019843Y-69244819D01*
X74001749Y-69227104D01*
X73981530Y-69205896D01*
X73956261Y-69177898D01*
X73923016Y-69139816D01*
X73878870Y-69088356D01*
X73820899Y-69020221D01*
X73782861Y-68975420D01*
X73634977Y-69017659D01*
X73599822Y-69027883D01*
X73524083Y-69051961D01*
X73469721Y-69073344D01*
X73433677Y-69093618D01*
X73412891Y-69114366D01*
X73404305Y-69137175D01*
X72755223Y-69137175D01*
X72762696Y-69115778D01*
X72804425Y-69050197D01*
X72867476Y-68979840D01*
X72912842Y-68939103D01*
X72971659Y-68897017D01*
X73042816Y-68856341D01*
X73129607Y-68815389D01*
X73235323Y-68772475D01*
X73363259Y-68725910D01*
X73399680Y-68713061D01*
X73489275Y-68680608D01*
X73580917Y-68646426D01*
X73665690Y-68613867D01*
X73734680Y-68586283D01*
X73782861Y-68566542D01*
X73783022Y-68566476D01*
X73882425Y-68526976D01*
X73965103Y-68496325D01*
X74035845Y-68472890D01*
X74099445Y-68455039D01*
X74160692Y-68441140D01*
X74171917Y-68438969D01*
X74225086Y-68430311D01*
X74289645Y-68421641D01*
X74360277Y-68413463D01*
X74431665Y-68406283D01*
X74498493Y-68400605D01*
X74555446Y-68396936D01*
X74567761Y-68396595D01*
X74597205Y-68395779D01*
X74618456Y-68397641D01*
G37*
G36*
X72297235Y-70446513D02*
G01*
X72317870Y-70466105D01*
X72346579Y-70500200D01*
X72379489Y-70544434D01*
X72392796Y-70563206D01*
X72436580Y-70622198D01*
X72474110Y-70665953D01*
X72511207Y-70700006D01*
X72553691Y-70729891D01*
X72607384Y-70761144D01*
X72654667Y-70788554D01*
X72702422Y-70818620D01*
X72737707Y-70843362D01*
X72764757Y-70862100D01*
X72811983Y-70890167D01*
X72861514Y-70915792D01*
X72900816Y-70935003D01*
X72937167Y-70954107D01*
X72958077Y-70966754D01*
X72961649Y-70971985D01*
X72951149Y-70977764D01*
X72919712Y-70981781D01*
X72864782Y-70984522D01*
X72859940Y-70984695D01*
X72801609Y-70988731D01*
X72760522Y-70995421D01*
X72741074Y-71004071D01*
X72738352Y-71008339D01*
X72725252Y-71034069D01*
X72706505Y-71074886D01*
X72685210Y-71124130D01*
X72677452Y-71142319D01*
X72656410Y-71189104D01*
X72638744Y-71224914D01*
X72627645Y-71243152D01*
X72607861Y-71252425D01*
X72568248Y-71262287D01*
X72515290Y-71271653D01*
X72455366Y-71279549D01*
X72394858Y-71285000D01*
X72340144Y-71287034D01*
X72288235Y-71283791D01*
X72220412Y-71269591D01*
X72144128Y-71242467D01*
X72053510Y-71200649D01*
X72015091Y-71180257D01*
X71962350Y-71146511D01*
X71928575Y-71116233D01*
X71916671Y-71091734D01*
X71921487Y-71085038D01*
X71943099Y-71064711D01*
X71978102Y-71035165D01*
X72022113Y-71000204D01*
X72026975Y-70996432D01*
X72098754Y-70936566D01*
X72152930Y-70880173D01*
X72192760Y-70821353D01*
X72221498Y-70754204D01*
X72242399Y-70672826D01*
X72258719Y-70571318D01*
X72263295Y-70540383D01*
X72272545Y-70492117D01*
X72281933Y-70457880D01*
X72290003Y-70443615D01*
X72297235Y-70446513D01*
G37*
G36*
X72717548Y-69029662D02*
G01*
X72724675Y-69039003D01*
X72723274Y-69040358D01*
X72706713Y-69052711D01*
X72675430Y-69074930D01*
X72634395Y-69103467D01*
X72561701Y-69161752D01*
X72469924Y-69260166D01*
X72382639Y-69382811D01*
X72300575Y-69528761D01*
X72287846Y-69554269D01*
X72250473Y-69633882D01*
X72224641Y-69699753D01*
X72208451Y-69758346D01*
X72200001Y-69816122D01*
X72197390Y-69879543D01*
X72197378Y-69882381D01*
X72198474Y-69941367D01*
X72203582Y-69984817D01*
X72214666Y-70022781D01*
X72233690Y-70065309D01*
X72273921Y-70129736D01*
X72334691Y-70194414D01*
X72365510Y-70221662D01*
X72389628Y-70245679D01*
X72398867Y-70258722D01*
X72395752Y-70262420D01*
X72374143Y-70270655D01*
X72338731Y-70277933D01*
X72320637Y-70280038D01*
X72271997Y-70277345D01*
X72223704Y-70259368D01*
X72167542Y-70223495D01*
X72157389Y-70216347D01*
X72142412Y-70210698D01*
X72131250Y-70221497D01*
X72117186Y-70252632D01*
X72116876Y-70253374D01*
X72100121Y-70291218D01*
X72076723Y-70341398D01*
X72051644Y-70393261D01*
X72013930Y-70489054D01*
X71986966Y-70601779D01*
X71985976Y-70607464D01*
X71971616Y-70673493D01*
X71954105Y-70731698D01*
X71936138Y-70773007D01*
X71908776Y-70811966D01*
X71862387Y-70863969D01*
X71808812Y-70914165D01*
X71756284Y-70954258D01*
X71753666Y-70955969D01*
X71730034Y-70968756D01*
X71711816Y-70966684D01*
X71686363Y-70948758D01*
X71668444Y-70936151D01*
X71617773Y-70907241D01*
X71553737Y-70876373D01*
X71484090Y-70847154D01*
X71416586Y-70823196D01*
X71384165Y-70811826D01*
X71354635Y-70798494D01*
X71343248Y-70788988D01*
X71348238Y-70776727D01*
X71364329Y-70746194D01*
X71388892Y-70702729D01*
X71419201Y-70651271D01*
X71445950Y-70605257D01*
X71488053Y-70529008D01*
X71530556Y-70448426D01*
X71567423Y-70374771D01*
X71594658Y-70321153D01*
X71636659Y-70245382D01*
X71680241Y-70172946D01*
X71719411Y-70114125D01*
X71721227Y-70111600D01*
X71760588Y-70056162D01*
X71808306Y-69987969D01*
X71858526Y-69915431D01*
X71905390Y-69846962D01*
X71919430Y-69826383D01*
X71958109Y-69770558D01*
X71992025Y-69722817D01*
X72017930Y-69687685D01*
X72032580Y-69669687D01*
X72034884Y-69667317D01*
X72054264Y-69646110D01*
X72085936Y-69610487D01*
X72126061Y-69564790D01*
X72170801Y-69513361D01*
X72223999Y-69452502D01*
X72320821Y-69345420D01*
X72405758Y-69257114D01*
X72480687Y-69185753D01*
X72547487Y-69129501D01*
X72608038Y-69086524D01*
X72632484Y-69071318D01*
X72673721Y-69047467D01*
X72703699Y-69032547D01*
X72717189Y-69029300D01*
X72717548Y-69029662D01*
G37*
G36*
X77930814Y-72108035D02*
G01*
X77911540Y-72127619D01*
X77893615Y-72142044D01*
X77885475Y-72144691D01*
X77892266Y-72134170D01*
X77911540Y-72114586D01*
X77929465Y-72100161D01*
X77937604Y-72097514D01*
X77930814Y-72108035D01*
G37*
G36*
X77674291Y-72427024D02*
G01*
X77657837Y-72446079D01*
X77631345Y-72472975D01*
X77615186Y-72488212D01*
X77594019Y-72506371D01*
X77585732Y-72510669D01*
X77588398Y-72505895D01*
X77604853Y-72486840D01*
X77631345Y-72459943D01*
X77647504Y-72444706D01*
X77668671Y-72426548D01*
X77676958Y-72422249D01*
X77674291Y-72427024D01*
G37*
G36*
X77415714Y-71100281D02*
G01*
X77452375Y-71110601D01*
X77499470Y-71125681D01*
X77515542Y-71131171D01*
X77557852Y-71146591D01*
X77586250Y-71158448D01*
X77595288Y-71164531D01*
X77593388Y-71164892D01*
X77573297Y-71161011D01*
X77536636Y-71150691D01*
X77489541Y-71135611D01*
X77473469Y-71130121D01*
X77431159Y-71114701D01*
X77402761Y-71102844D01*
X77393723Y-71096761D01*
X77395623Y-71096400D01*
X77415714Y-71100281D01*
G37*
G36*
X77580198Y-72531758D02*
G01*
X77563413Y-72553168D01*
X77536110Y-72585011D01*
X77502305Y-72622806D01*
X77466013Y-72662074D01*
X77431252Y-72698334D01*
X77402037Y-72727106D01*
X77394838Y-72733632D01*
X77389717Y-72736282D01*
X77400206Y-72722374D01*
X77424846Y-72693731D01*
X77462175Y-72652170D01*
X77471626Y-72641812D01*
X77513769Y-72596117D01*
X77548666Y-72559050D01*
X77572916Y-72534187D01*
X77583113Y-72525105D01*
X77580198Y-72531758D01*
G37*
G36*
X76750894Y-71216924D02*
G01*
X76768784Y-71219683D01*
X76799767Y-71227565D01*
X76853267Y-71238866D01*
X76905883Y-71248091D01*
X76908051Y-71248471D01*
X76938539Y-71253962D01*
X77028727Y-71281522D01*
X77115358Y-71327152D01*
X77204847Y-71393997D01*
X77258103Y-71442219D01*
X77344633Y-71540845D01*
X77406355Y-71643617D01*
X77442696Y-71749681D01*
X77450557Y-71812481D01*
X77449333Y-71892112D01*
X77438338Y-71969917D01*
X77418547Y-72034375D01*
X77392923Y-72082675D01*
X77350935Y-72146124D01*
X77300440Y-72212174D01*
X77246664Y-72274442D01*
X77194834Y-72326546D01*
X77150176Y-72362106D01*
X77119750Y-72382593D01*
X77084948Y-72408751D01*
X77063879Y-72428037D01*
X77036809Y-72453446D01*
X76988140Y-72473397D01*
X76933607Y-72469622D01*
X76875448Y-72442443D01*
X76815899Y-72392185D01*
X76788188Y-72361957D01*
X76739655Y-72296320D01*
X76706237Y-72226523D01*
X76685030Y-72145532D01*
X76673130Y-72046310D01*
X76670245Y-72013730D01*
X76660630Y-71936045D01*
X76648017Y-71858998D01*
X76634368Y-71795295D01*
X76616106Y-71721505D01*
X76593892Y-71618848D01*
X76580807Y-71534159D01*
X76576714Y-71463499D01*
X76578799Y-71436991D01*
X76598357Y-71436991D01*
X76598468Y-71492833D01*
X76606743Y-71563662D01*
X76623596Y-71652586D01*
X76649437Y-71762714D01*
X76662121Y-71817896D01*
X76677490Y-71897584D01*
X76689349Y-71974054D01*
X76695849Y-72036393D01*
X76703657Y-72114314D01*
X76723632Y-72203386D01*
X76756135Y-72277653D01*
X76803104Y-72342652D01*
X76819855Y-72361564D01*
X76842995Y-72386099D01*
X76852125Y-72390460D01*
X76849314Y-72374319D01*
X76836634Y-72337348D01*
X76834988Y-72331683D01*
X76895019Y-72331683D01*
X76895019Y-72331700D01*
X76904067Y-72351629D01*
X76930628Y-72353011D01*
X76973860Y-72335801D01*
X76976089Y-72334616D01*
X77001745Y-72315363D01*
X77012309Y-72296704D01*
X77011279Y-72284747D01*
X77003898Y-72278864D01*
X76983993Y-72281603D01*
X76945402Y-72292586D01*
X76940300Y-72294171D01*
X76905954Y-72310799D01*
X76895019Y-72331683D01*
X76834988Y-72331683D01*
X76823881Y-72293455D01*
X76818559Y-72267699D01*
X76883992Y-72267699D01*
X76885394Y-72272393D01*
X76893559Y-72280025D01*
X76913011Y-72278804D01*
X76950406Y-72268845D01*
X76984913Y-72256863D01*
X77003898Y-72243954D01*
X77006390Y-72242260D01*
X77012309Y-72223262D01*
X77009490Y-72206134D01*
X76995929Y-72200299D01*
X76964341Y-72203670D01*
X76962683Y-72203946D01*
X76917246Y-72218132D01*
X76889654Y-72240468D01*
X76883992Y-72267699D01*
X76818559Y-72267699D01*
X76808603Y-72219514D01*
X76799020Y-72156863D01*
X76860562Y-72156863D01*
X76871733Y-72181205D01*
X76883660Y-72188773D01*
X76908624Y-72190751D01*
X76950406Y-72183212D01*
X76957534Y-72181524D01*
X76992217Y-72170803D01*
X76995929Y-72167825D01*
X77008349Y-72157861D01*
X77012309Y-72138046D01*
X77012075Y-72132065D01*
X77008439Y-72123983D01*
X77171804Y-72123983D01*
X77179222Y-72134135D01*
X77190000Y-72123293D01*
X77199019Y-72096558D01*
X77205755Y-72064873D01*
X77215093Y-72024881D01*
X77217759Y-72001599D01*
X77209798Y-71990779D01*
X77207123Y-71991605D01*
X77196243Y-72008280D01*
X77187698Y-72039651D01*
X77186765Y-72045098D01*
X77179513Y-72083442D01*
X77173197Y-72111328D01*
X77171804Y-72123983D01*
X77008439Y-72123983D01*
X77000327Y-72105953D01*
X76970352Y-72097485D01*
X76921453Y-72106420D01*
X76905639Y-72111980D01*
X76872695Y-72132538D01*
X76860562Y-72156863D01*
X76799020Y-72156863D01*
X76794690Y-72128556D01*
X76787235Y-72062875D01*
X76821919Y-72062875D01*
X76839319Y-72080095D01*
X76847250Y-72083215D01*
X76883929Y-72085936D01*
X76928467Y-72079094D01*
X76969588Y-72065112D01*
X76970352Y-72064572D01*
X76996019Y-72046414D01*
X77002590Y-72037038D01*
X77013283Y-72007097D01*
X77000455Y-71987824D01*
X76964408Y-71979434D01*
X76905445Y-71982143D01*
X76886989Y-71984296D01*
X76854202Y-71988901D01*
X76837369Y-71995535D01*
X76829412Y-72008498D01*
X76823256Y-72032090D01*
X76822709Y-72034336D01*
X76821919Y-72062875D01*
X76787235Y-72062875D01*
X76783002Y-72025584D01*
X76778713Y-71990020D01*
X76768718Y-71947228D01*
X76755457Y-71929286D01*
X76743602Y-71921822D01*
X76753765Y-71911286D01*
X76757094Y-71909023D01*
X76761742Y-71897128D01*
X76757673Y-71892835D01*
X76783631Y-71892835D01*
X76793971Y-71922738D01*
X76795492Y-71925823D01*
X76806691Y-71943723D01*
X76822200Y-71953100D01*
X76849256Y-71956315D01*
X76895099Y-71955730D01*
X76945047Y-71952320D01*
X76964408Y-71947577D01*
X76977591Y-71944348D01*
X76995616Y-71930433D01*
X77001584Y-71921767D01*
X77009889Y-71900936D01*
X77006716Y-71876053D01*
X77001879Y-71863714D01*
X77181873Y-71863714D01*
X77181966Y-71867925D01*
X77185406Y-71902267D01*
X77192243Y-71938109D01*
X77200399Y-71966315D01*
X77207797Y-71977747D01*
X77209798Y-71975284D01*
X77211358Y-71973363D01*
X77216319Y-71949771D01*
X77218889Y-71912585D01*
X77218387Y-71877715D01*
X77212987Y-71854173D01*
X77201044Y-71847424D01*
X77192212Y-71849245D01*
X77181873Y-71863714D01*
X77001879Y-71863714D01*
X76991661Y-71837650D01*
X76987945Y-71829402D01*
X76973522Y-71806827D01*
X76952662Y-71797271D01*
X76915596Y-71795295D01*
X76880650Y-71796246D01*
X76841600Y-71803173D01*
X76815987Y-71819744D01*
X76796264Y-71849381D01*
X76788587Y-71865611D01*
X76783631Y-71892835D01*
X76757673Y-71892835D01*
X76745083Y-71879553D01*
X76732190Y-71867578D01*
X76737587Y-71868144D01*
X76749895Y-71870797D01*
X76747362Y-71855012D01*
X76742931Y-71841798D01*
X76738631Y-71820293D01*
X76735195Y-71813859D01*
X76715824Y-71807411D01*
X76711842Y-71807232D01*
X76700420Y-71804861D01*
X76714201Y-71797637D01*
X76728176Y-71784816D01*
X76724395Y-71759456D01*
X76714197Y-71740883D01*
X76699185Y-71730133D01*
X76694288Y-71729099D01*
X76693018Y-71717101D01*
X76695082Y-71712077D01*
X76687680Y-71704068D01*
X76681967Y-71701522D01*
X76681916Y-71699507D01*
X76753954Y-71699507D01*
X76759272Y-71736995D01*
X76786855Y-71761212D01*
X76836513Y-71772053D01*
X76908051Y-71769413D01*
X76914759Y-71768619D01*
X76915596Y-71768459D01*
X76941189Y-71763570D01*
X77168697Y-71763570D01*
X77168927Y-71768461D01*
X77176992Y-71797817D01*
X77192131Y-71823430D01*
X77201044Y-71829490D01*
X77208253Y-71834392D01*
X77215432Y-71829964D01*
X77218818Y-71806175D01*
X77211843Y-71765972D01*
X77209417Y-71759399D01*
X77194094Y-71745087D01*
X77176871Y-71746275D01*
X77168697Y-71763570D01*
X76941189Y-71763570D01*
X76948450Y-71762183D01*
X76964361Y-71750892D01*
X76969738Y-71730133D01*
X76966269Y-71697640D01*
X76960212Y-71681360D01*
X77149523Y-71681360D01*
X77156343Y-71706458D01*
X77176608Y-71717101D01*
X77189195Y-71715052D01*
X77192129Y-71703506D01*
X77185778Y-71674746D01*
X77179556Y-71660324D01*
X77165039Y-71652819D01*
X77152155Y-71668229D01*
X77149523Y-71681360D01*
X76960212Y-71681360D01*
X76952587Y-71660867D01*
X76945125Y-71648449D01*
X76925434Y-71630848D01*
X76897417Y-71630666D01*
X76895300Y-71631056D01*
X76856768Y-71637864D01*
X76813672Y-71645115D01*
X76794086Y-71649170D01*
X76768479Y-71662372D01*
X76756365Y-71687108D01*
X76753954Y-71699507D01*
X76681916Y-71699507D01*
X76681549Y-71685144D01*
X76683597Y-71675833D01*
X76678248Y-71649305D01*
X76676516Y-71646567D01*
X76672095Y-71639247D01*
X76668390Y-71630295D01*
X76664220Y-71614929D01*
X76659073Y-71591409D01*
X76755653Y-71591409D01*
X76761549Y-71600311D01*
X76784202Y-71609982D01*
X76826957Y-71612842D01*
X76846348Y-71612095D01*
X76886765Y-71605965D01*
X76897417Y-71601866D01*
X76913521Y-71595670D01*
X76921695Y-71589266D01*
X77129800Y-71589266D01*
X77131293Y-71600760D01*
X77142633Y-71619358D01*
X77152232Y-71622052D01*
X77154145Y-71610655D01*
X77142633Y-71586777D01*
X77140918Y-71584155D01*
X77131909Y-71574681D01*
X77129800Y-71589266D01*
X76921695Y-71589266D01*
X76924276Y-71587244D01*
X76929721Y-71574504D01*
X76915081Y-71556573D01*
X76887214Y-71540324D01*
X76850278Y-71534405D01*
X76811819Y-71538047D01*
X76778672Y-71549757D01*
X76757671Y-71568043D01*
X76755653Y-71591409D01*
X76659073Y-71591409D01*
X76658407Y-71588366D01*
X76649773Y-71545823D01*
X76637138Y-71482519D01*
X76635182Y-71472737D01*
X76634153Y-71467745D01*
X76733191Y-71467745D01*
X76734493Y-71484732D01*
X76753260Y-71502706D01*
X76781882Y-71515965D01*
X76812414Y-71519335D01*
X76841506Y-71509705D01*
X76850278Y-71492306D01*
X76853570Y-71485777D01*
X76854424Y-71478222D01*
X76851319Y-71463844D01*
X76834956Y-71457730D01*
X76798952Y-71456454D01*
X76781986Y-71456920D01*
X76749345Y-71460941D01*
X76733191Y-71467745D01*
X76634153Y-71467745D01*
X76624386Y-71420364D01*
X76621789Y-71409859D01*
X76717534Y-71409859D01*
X76726561Y-71425034D01*
X76727295Y-71425864D01*
X76751161Y-71438293D01*
X76785840Y-71443422D01*
X76787187Y-71443418D01*
X76798952Y-71441658D01*
X76819582Y-71438573D01*
X76829857Y-71423873D01*
X76826405Y-71413273D01*
X76807050Y-71402395D01*
X76796145Y-71401501D01*
X76749078Y-71399007D01*
X76723957Y-71401488D01*
X76717534Y-71409859D01*
X76621789Y-71409859D01*
X76616988Y-71390434D01*
X76611706Y-71380192D01*
X76607260Y-71386882D01*
X76602367Y-71407747D01*
X76598357Y-71436991D01*
X76578799Y-71436991D01*
X76581477Y-71402931D01*
X76590818Y-71365228D01*
X76706050Y-71365228D01*
X76706935Y-71366378D01*
X76726487Y-71374807D01*
X76749078Y-71377210D01*
X76758948Y-71378260D01*
X76764273Y-71378168D01*
X76792350Y-71373900D01*
X76803792Y-71365228D01*
X76802323Y-71362181D01*
X76783820Y-71355047D01*
X76750894Y-71352196D01*
X76739446Y-71352439D01*
X76711916Y-71356672D01*
X76706050Y-71365228D01*
X76590818Y-71365228D01*
X76594958Y-71348516D01*
X76608290Y-71316973D01*
X76694638Y-71316973D01*
X76696276Y-71321730D01*
X76702175Y-71323451D01*
X76728856Y-71321730D01*
X76731067Y-71317204D01*
X76712566Y-71315156D01*
X76694638Y-71316973D01*
X76608290Y-71316973D01*
X76611706Y-71308890D01*
X76617021Y-71296315D01*
X76631233Y-71272116D01*
X76895428Y-71272116D01*
X76905859Y-71287596D01*
X76929970Y-71304865D01*
X76956787Y-71317212D01*
X76975343Y-71318298D01*
X76981549Y-71315431D01*
X76982410Y-71321793D01*
X76984266Y-71338419D01*
X77001708Y-71357215D01*
X77025948Y-71370853D01*
X77047961Y-71372369D01*
X77049552Y-71371767D01*
X77061121Y-71370037D01*
X77052617Y-71383318D01*
X77045295Y-71402382D01*
X77057926Y-71412729D01*
X77086069Y-71409654D01*
X77089560Y-71408539D01*
X77101638Y-71406258D01*
X77090968Y-71415365D01*
X77088425Y-71417289D01*
X77081600Y-71429135D01*
X77088632Y-71447463D01*
X77111552Y-71478498D01*
X77120310Y-71489991D01*
X77131909Y-71507707D01*
X77150949Y-71536789D01*
X77165039Y-71563498D01*
X77174982Y-71582346D01*
X77182722Y-71598368D01*
X77194094Y-71615775D01*
X77199787Y-71624489D01*
X77213043Y-71633354D01*
X77217790Y-71632543D01*
X77217569Y-71635612D01*
X77213975Y-71638606D01*
X77207878Y-71661230D01*
X77211932Y-71694733D01*
X77223431Y-71730089D01*
X77239669Y-71758273D01*
X77257940Y-71770259D01*
X77268636Y-71772056D01*
X77263182Y-71777861D01*
X77251724Y-71784985D01*
X77249354Y-71800249D01*
X77269698Y-71812376D01*
X77276505Y-71814180D01*
X77285759Y-71818027D01*
X77269698Y-71819847D01*
X77258038Y-71823960D01*
X77251020Y-71838151D01*
X77247717Y-71867728D01*
X77246891Y-71918016D01*
X77246919Y-71925305D01*
X77248475Y-71971481D01*
X77251944Y-72005391D01*
X77256666Y-72020138D01*
X77259284Y-72021930D01*
X77252680Y-72022605D01*
X77251507Y-72022661D01*
X77241274Y-72036195D01*
X77228319Y-72068222D01*
X77215154Y-72112709D01*
X77200211Y-72163995D01*
X77179628Y-72222477D01*
X77159617Y-72269012D01*
X77147654Y-72294882D01*
X77136909Y-72325285D01*
X77136164Y-72340528D01*
X77137541Y-72341003D01*
X77152647Y-72332320D01*
X77178997Y-72309412D01*
X77212025Y-72276919D01*
X77247167Y-72239482D01*
X77279859Y-72201740D01*
X77305537Y-72168336D01*
X77332894Y-72130878D01*
X77362265Y-72093184D01*
X77367462Y-72086329D01*
X77391205Y-72045261D01*
X77409116Y-72000337D01*
X77419879Y-71950111D01*
X77425652Y-71889550D01*
X77425781Y-71827860D01*
X77420758Y-71770440D01*
X77411077Y-71722691D01*
X77397228Y-71690013D01*
X77379706Y-71677804D01*
X77366251Y-71675574D01*
X77374711Y-71666795D01*
X77382083Y-71658706D01*
X77380272Y-71640570D01*
X77363649Y-71608349D01*
X77356539Y-71597268D01*
X77333598Y-71570773D01*
X77314024Y-71559684D01*
X77302378Y-71557744D01*
X77309592Y-71551816D01*
X77313393Y-71549612D01*
X77315511Y-71535578D01*
X77302287Y-71517603D01*
X77279930Y-71502068D01*
X77254646Y-71495352D01*
X77237945Y-71492840D01*
X77244134Y-71484498D01*
X77246498Y-71481753D01*
X77241527Y-71464814D01*
X77220162Y-71438715D01*
X77186667Y-71407225D01*
X77145302Y-71374115D01*
X77100331Y-71343153D01*
X77056016Y-71318111D01*
X77019954Y-71301845D01*
X76974162Y-71284540D01*
X76934134Y-71272668D01*
X76905883Y-71267952D01*
X76895428Y-71272116D01*
X76631233Y-71272116D01*
X76639942Y-71257288D01*
X76674514Y-71223322D01*
X76712566Y-71212507D01*
X76715971Y-71211539D01*
X76750894Y-71216924D01*
G37*
G36*
X77318878Y-72796327D02*
G01*
X77314143Y-72801497D01*
X77286864Y-72826472D01*
X77247133Y-72859025D01*
X77201791Y-72893478D01*
X77190309Y-72901926D01*
X77132506Y-72945585D01*
X77069252Y-72994748D01*
X77012309Y-73040300D01*
X76981844Y-73064873D01*
X76941257Y-73096631D01*
X76908484Y-73121177D01*
X76886670Y-73136256D01*
X76878961Y-73139615D01*
X76888502Y-73129000D01*
X76896800Y-73121287D01*
X76935689Y-73087569D01*
X76987719Y-73044758D01*
X77046843Y-72997692D01*
X77107013Y-72951206D01*
X77162181Y-72910139D01*
X77186471Y-72892366D01*
X77235507Y-72855646D01*
X77277492Y-72823162D01*
X77305333Y-72800351D01*
X77307659Y-72798311D01*
X77328588Y-72780580D01*
X77331859Y-72780058D01*
X77318878Y-72796327D01*
G37*
G36*
X77200774Y-70995417D02*
G01*
X77211204Y-71000754D01*
X77215850Y-71009644D01*
X77207560Y-71010548D01*
X77185965Y-71001914D01*
X77171091Y-70991065D01*
X77176028Y-70988033D01*
X77200774Y-70995417D01*
G37*
G36*
X77149532Y-70975199D02*
G01*
X77151321Y-70982946D01*
X77149411Y-70984506D01*
X77133944Y-70982946D01*
X77131906Y-70979026D01*
X77142633Y-70974258D01*
X77149532Y-70975199D01*
G37*
G36*
X77110435Y-70962166D02*
G01*
X77112224Y-70969914D01*
X77110314Y-70971474D01*
X77094848Y-70969914D01*
X77092809Y-70965994D01*
X77103536Y-70961226D01*
X77110435Y-70962166D01*
G37*
G36*
X77071338Y-70949134D02*
G01*
X77073127Y-70956882D01*
X77071217Y-70958441D01*
X77055751Y-70956882D01*
X77053712Y-70952962D01*
X77064439Y-70948193D01*
X77071338Y-70949134D01*
G37*
G36*
X77048192Y-72626514D02*
G01*
X77028927Y-72640524D01*
X76999207Y-72658774D01*
X76967105Y-72676649D01*
X76940698Y-72689534D01*
X76928058Y-72692811D01*
X76932139Y-72687289D01*
X76953402Y-72672272D01*
X76987292Y-72652135D01*
X77014737Y-72637389D01*
X77041184Y-72624789D01*
X77051406Y-72622302D01*
X77048192Y-72626514D01*
G37*
G36*
X77032241Y-70936102D02*
G01*
X77034030Y-70943849D01*
X77032120Y-70945409D01*
X77016654Y-70943849D01*
X77014615Y-70939929D01*
X77025342Y-70935161D01*
X77032241Y-70936102D01*
G37*
G36*
X76993144Y-70923069D02*
G01*
X76994933Y-70930817D01*
X76993023Y-70932377D01*
X76977557Y-70930817D01*
X76975518Y-70926897D01*
X76986245Y-70922129D01*
X76993144Y-70923069D01*
G37*
G36*
X76973212Y-72530083D02*
G01*
X76972626Y-72532374D01*
X76960180Y-72544653D01*
X76955566Y-72547081D01*
X76947148Y-72546191D01*
X76947734Y-72543900D01*
X76960180Y-72531621D01*
X76964794Y-72529193D01*
X76973212Y-72530083D01*
G37*
G36*
X76952043Y-70912971D02*
G01*
X76950406Y-70917728D01*
X76944507Y-70919449D01*
X76917825Y-70917728D01*
X76915614Y-70913202D01*
X76934116Y-70911154D01*
X76952043Y-70912971D01*
G37*
G36*
X76919070Y-72530376D02*
G01*
X76924859Y-72534399D01*
X76934116Y-72545422D01*
X76933989Y-72547244D01*
X76926445Y-72550114D01*
X76913323Y-72536123D01*
X76910152Y-72528840D01*
X76919070Y-72530376D01*
G37*
G36*
X76901918Y-72695465D02*
G01*
X76903707Y-72703213D01*
X76901797Y-72704773D01*
X76886330Y-72703213D01*
X76884291Y-72699293D01*
X76895019Y-72694525D01*
X76901918Y-72695465D01*
G37*
G36*
X76888885Y-70897005D02*
G01*
X76890674Y-70904752D01*
X76888764Y-70906312D01*
X76873298Y-70904752D01*
X76871259Y-70900832D01*
X76881986Y-70896064D01*
X76888885Y-70897005D01*
G37*
G36*
X76859861Y-72711827D02*
G01*
X76859428Y-72716106D01*
X76848719Y-72718496D01*
X76820331Y-72716589D01*
X76818090Y-72715944D01*
X76816161Y-72711977D01*
X76836373Y-72710098D01*
X76839459Y-72710080D01*
X76859861Y-72711827D01*
G37*
G36*
X76861862Y-73151587D02*
G01*
X76859978Y-73153872D01*
X76842467Y-73166979D01*
X76814824Y-73183533D01*
X76785105Y-73199215D01*
X76761366Y-73209704D01*
X76751663Y-73210681D01*
X76755978Y-73206147D01*
X76777356Y-73191649D01*
X76810617Y-73172064D01*
X76833648Y-73159884D01*
X76856253Y-73150215D01*
X76861862Y-73151587D01*
G37*
G36*
X76836756Y-70883972D02*
G01*
X76838545Y-70891720D01*
X76836635Y-70893280D01*
X76821169Y-70891720D01*
X76819130Y-70887800D01*
X76829857Y-70883032D01*
X76836756Y-70883972D01*
G37*
G36*
X76783344Y-70871950D02*
G01*
X76787230Y-70877873D01*
X76782620Y-70880456D01*
X76762252Y-70878902D01*
X76756220Y-70874211D01*
X76770125Y-70871028D01*
X76783344Y-70871950D01*
G37*
G36*
X76750634Y-73442798D02*
G01*
X76749713Y-73456016D01*
X76743789Y-73459902D01*
X76741207Y-73455292D01*
X76742760Y-73434924D01*
X76747451Y-73428892D01*
X76750634Y-73442798D01*
G37*
G36*
X76730494Y-70860842D02*
G01*
X76728856Y-70865598D01*
X76722957Y-70867320D01*
X76696276Y-70865598D01*
X76694065Y-70861073D01*
X76712566Y-70859025D01*
X76730494Y-70860842D01*
G37*
G36*
X76730494Y-72698399D02*
G01*
X76728856Y-72703156D01*
X76722957Y-72704877D01*
X76696276Y-72703156D01*
X76694065Y-72698631D01*
X76712566Y-72696583D01*
X76730494Y-72698399D01*
G37*
G36*
X76738631Y-73222334D02*
G01*
X76732114Y-73228850D01*
X76725598Y-73222334D01*
X76732114Y-73215818D01*
X76738631Y-73222334D01*
G37*
G36*
X76736573Y-73359173D02*
G01*
X76734756Y-73377101D01*
X76730000Y-73375464D01*
X76728278Y-73369565D01*
X76730000Y-73342883D01*
X76734525Y-73340672D01*
X76736573Y-73359173D01*
G37*
G36*
X76739160Y-73507147D02*
G01*
X76737906Y-73525964D01*
X76732743Y-73549325D01*
X76725003Y-73567691D01*
X76721061Y-73572970D01*
X76716556Y-73572109D01*
X76720520Y-73548142D01*
X76720529Y-73548099D01*
X76728076Y-73518919D01*
X76733948Y-73503615D01*
X76735173Y-73502414D01*
X76739160Y-73507147D01*
G37*
G36*
X76707859Y-73230757D02*
G01*
X76698744Y-73239559D01*
X76673469Y-73254915D01*
X76664673Y-73259604D01*
X76633804Y-73274063D01*
X76614824Y-73279887D01*
X76613015Y-73279073D01*
X76622129Y-73270271D01*
X76647404Y-73254915D01*
X76656201Y-73250226D01*
X76687070Y-73235767D01*
X76706050Y-73229943D01*
X76707859Y-73230757D01*
G37*
G36*
X76699368Y-73587255D02*
G01*
X76686824Y-73597940D01*
X76660437Y-73613304D01*
X76655949Y-73615582D01*
X76631365Y-73626166D01*
X76621340Y-73627005D01*
X76621505Y-73626320D01*
X76634049Y-73615636D01*
X76660437Y-73600271D01*
X76664925Y-73597994D01*
X76689508Y-73587409D01*
X76699534Y-73586570D01*
X76699368Y-73587255D01*
G37*
G36*
X76665332Y-70847809D02*
G01*
X76663695Y-70852566D01*
X76657796Y-70854287D01*
X76631114Y-70852566D01*
X76628903Y-70848041D01*
X76647404Y-70845993D01*
X76665332Y-70847809D01*
G37*
G36*
X76666053Y-72683443D02*
G01*
X76669939Y-72689366D01*
X76665329Y-72691949D01*
X76644961Y-72690395D01*
X76638929Y-72685704D01*
X76652835Y-72682521D01*
X76666053Y-72683443D01*
G37*
G36*
X76670868Y-73427041D02*
G01*
X76660437Y-73437367D01*
X76649273Y-73443512D01*
X76627856Y-73450001D01*
X76623941Y-73447694D01*
X76634372Y-73437367D01*
X76645536Y-73431223D01*
X76666953Y-73424734D01*
X76670868Y-73427041D01*
G37*
G36*
X76650685Y-71176088D02*
G01*
X76637630Y-71193636D01*
X76621304Y-71208391D01*
X76609708Y-71213499D01*
X76608706Y-71209497D01*
X76617534Y-71194066D01*
X76633953Y-71177487D01*
X76649000Y-71169743D01*
X76650685Y-71176088D01*
G37*
G36*
X76608307Y-72674976D02*
G01*
X76601791Y-72681493D01*
X76595275Y-72674976D01*
X76601791Y-72668460D01*
X76608307Y-72674976D01*
G37*
G36*
X76592662Y-73430600D02*
G01*
X76564850Y-73444262D01*
X76517358Y-73463328D01*
X76479447Y-73478765D01*
X76450116Y-73493360D01*
X76438887Y-73502724D01*
X76439427Y-73506282D01*
X76453343Y-73518643D01*
X76475820Y-73521651D01*
X76493033Y-73512745D01*
X76501144Y-73502733D01*
X76503849Y-73512583D01*
X76512524Y-73527628D01*
X76536630Y-73543997D01*
X76555342Y-73556567D01*
X76569595Y-73584004D01*
X76562971Y-73612365D01*
X76535570Y-73633255D01*
X76521293Y-73641475D01*
X76509169Y-73658322D01*
X76511086Y-73672411D01*
X76513875Y-73672859D01*
X76528484Y-73675207D01*
X76540150Y-73674449D01*
X76541187Y-73683423D01*
X76523065Y-73702719D01*
X76487480Y-73730071D01*
X76465847Y-73744290D01*
X76449424Y-73752239D01*
X76450257Y-73746362D01*
X76458900Y-73731992D01*
X76454284Y-73724079D01*
X76451218Y-73724345D01*
X76433005Y-73736086D01*
X76431161Y-73738036D01*
X76409770Y-73749376D01*
X76370377Y-73764827D01*
X76318788Y-73782481D01*
X76260808Y-73800426D01*
X76202240Y-73816754D01*
X76148891Y-73829554D01*
X76084513Y-73838084D01*
X76040164Y-73832504D01*
X76016021Y-73813842D01*
X76011663Y-73783251D01*
X76012875Y-73779909D01*
X76034913Y-73779909D01*
X76039365Y-73798064D01*
X76048209Y-73803314D01*
X76074951Y-73808812D01*
X76103512Y-73808166D01*
X76120440Y-73800906D01*
X76123756Y-73797286D01*
X76141009Y-73796909D01*
X76142952Y-73797690D01*
X76162567Y-73792669D01*
X76188980Y-73774510D01*
X76196215Y-73768293D01*
X76210005Y-73757783D01*
X76207563Y-73762719D01*
X76201996Y-73769513D01*
X76191394Y-73789762D01*
X76198130Y-73795120D01*
X76219578Y-73781486D01*
X76221462Y-73779853D01*
X76236904Y-73769003D01*
X76237494Y-73774346D01*
X76235422Y-73778190D01*
X76236819Y-73786645D01*
X76258061Y-73782459D01*
X76269260Y-73778962D01*
X76346042Y-73752295D01*
X76403939Y-73725771D01*
X76411050Y-73721101D01*
X76470662Y-73721101D01*
X76481475Y-73720475D01*
X76501101Y-73705490D01*
X76513589Y-73691983D01*
X76513875Y-73687643D01*
X76493158Y-73697547D01*
X76474620Y-73710267D01*
X76470662Y-73721101D01*
X76411050Y-73721101D01*
X76449087Y-73696119D01*
X76487619Y-73660070D01*
X76513408Y-73631280D01*
X76534299Y-73605962D01*
X76541978Y-73593755D01*
X76541232Y-73590376D01*
X76534515Y-73570949D01*
X76524999Y-73557022D01*
X76513604Y-73557987D01*
X76512691Y-73578375D01*
X76511880Y-73596152D01*
X76495181Y-73620730D01*
X76485641Y-73628107D01*
X76477883Y-73632334D01*
X76487013Y-73619383D01*
X76493693Y-73607262D01*
X76490888Y-73580515D01*
X76480630Y-73571767D01*
X76464237Y-73577501D01*
X76436246Y-73600473D01*
X76393274Y-73639314D01*
X76434641Y-73593728D01*
X76476007Y-73548142D01*
X76443518Y-73524050D01*
X76413812Y-73509164D01*
X76385861Y-73506540D01*
X76371085Y-73508555D01*
X76360693Y-73503481D01*
X76357307Y-73495565D01*
X76339451Y-73494420D01*
X76312013Y-73506443D01*
X76281552Y-73529478D01*
X76266293Y-73545328D01*
X76249301Y-73568405D01*
X76241856Y-73585365D01*
X76245795Y-73591156D01*
X76262951Y-73580723D01*
X76274509Y-73573153D01*
X76282499Y-73574883D01*
X76282618Y-73575691D01*
X76292309Y-73573301D01*
X76312789Y-73556811D01*
X76314522Y-73555215D01*
X76325011Y-73548142D01*
X76334629Y-73548142D01*
X76341145Y-73554658D01*
X76347661Y-73548142D01*
X76341145Y-73541626D01*
X76334629Y-73548142D01*
X76325011Y-73548142D01*
X76338151Y-73539281D01*
X76341145Y-73539086D01*
X76353975Y-73538249D01*
X76357848Y-73541179D01*
X76357483Y-73535065D01*
X76363050Y-73525611D01*
X76387697Y-73521488D01*
X76394870Y-73521393D01*
X76425300Y-73520988D01*
X76397714Y-73550352D01*
X76394085Y-73554117D01*
X76369745Y-73571081D01*
X76348046Y-73567592D01*
X76361547Y-73567592D01*
X76376984Y-73556321D01*
X76382029Y-73552258D01*
X76398771Y-73534933D01*
X76394870Y-73528594D01*
X76388140Y-73533351D01*
X76372063Y-73551400D01*
X76364783Y-73560843D01*
X76361547Y-73567592D01*
X76348046Y-73567592D01*
X76347231Y-73567461D01*
X76330191Y-73562252D01*
X76308456Y-73574337D01*
X76297306Y-73583557D01*
X76279009Y-73585082D01*
X76273180Y-73582701D01*
X76274760Y-73591777D01*
X76284997Y-73599830D01*
X76309062Y-73593489D01*
X76313779Y-73591032D01*
X76328197Y-73586983D01*
X76326425Y-73599970D01*
X76324853Y-73603234D01*
X76303341Y-73617129D01*
X76267694Y-73617884D01*
X76225390Y-73605116D01*
X76210972Y-73599545D01*
X76186917Y-73599780D01*
X76158841Y-73617375D01*
X76128918Y-73644166D01*
X76099290Y-73676467D01*
X76084774Y-73695971D01*
X76082780Y-73705108D01*
X76096806Y-73704115D01*
X76110671Y-73701506D01*
X76161818Y-73693990D01*
X76203268Y-73691047D01*
X76229734Y-73692848D01*
X76235926Y-73699567D01*
X76234967Y-73707668D01*
X76252963Y-73705632D01*
X76270475Y-73703948D01*
X76296321Y-73720526D01*
X76301982Y-73728089D01*
X76307070Y-73736683D01*
X76295555Y-73727337D01*
X76290710Y-73723238D01*
X76270551Y-73711861D01*
X76262175Y-73715558D01*
X76271129Y-73733035D01*
X76277537Y-73741169D01*
X76280747Y-73750213D01*
X76262951Y-73744958D01*
X76233102Y-73734591D01*
X76188739Y-73727353D01*
X76156113Y-73737389D01*
X76129369Y-73765605D01*
X76121943Y-73775974D01*
X76106284Y-73793724D01*
X76100047Y-73793910D01*
X76103127Y-73783559D01*
X76119595Y-73763176D01*
X76137421Y-73742484D01*
X76130932Y-73730253D01*
X76100047Y-73726933D01*
X76099633Y-73726946D01*
X76072298Y-73730784D01*
X76060950Y-73738346D01*
X76066225Y-73743488D01*
X76087363Y-73743560D01*
X76102152Y-73742903D01*
X76106637Y-73750023D01*
X76097614Y-73755756D01*
X76073060Y-73756482D01*
X76069452Y-73756015D01*
X76047488Y-73762751D01*
X76034913Y-73779909D01*
X76012875Y-73779909D01*
X76026669Y-73741886D01*
X76060619Y-73690900D01*
X76113093Y-73631448D01*
X76183670Y-73564682D01*
X76271931Y-73491758D01*
X76290662Y-73483583D01*
X76329229Y-73475217D01*
X76339451Y-73474153D01*
X76376189Y-73470331D01*
X76411294Y-73467018D01*
X76475892Y-73455832D01*
X76532979Y-73440567D01*
X76548948Y-73435242D01*
X76585617Y-73424769D01*
X76599886Y-73423662D01*
X76592662Y-73430600D01*
G37*
G36*
X76605706Y-73453106D02*
G01*
X76595275Y-73463432D01*
X76584111Y-73469576D01*
X76562694Y-73476065D01*
X76558779Y-73473758D01*
X76569210Y-73463432D01*
X76580374Y-73457288D01*
X76601791Y-73450799D01*
X76605706Y-73453106D01*
G37*
G36*
X76586182Y-70835173D02*
G01*
X76585749Y-70839451D01*
X76575040Y-70841842D01*
X76546652Y-70839934D01*
X76544411Y-70839289D01*
X76542482Y-70835322D01*
X76562694Y-70833443D01*
X76565781Y-70833425D01*
X76586182Y-70835173D01*
G37*
G36*
X76560817Y-71056606D02*
G01*
X76577892Y-71058574D01*
X76572648Y-71061626D01*
X76546028Y-71063948D01*
X76507486Y-71061804D01*
X76498411Y-71059490D01*
X76507060Y-71057155D01*
X76536630Y-71056179D01*
X76560817Y-71056606D01*
G37*
G36*
X76240942Y-71483444D02*
G01*
X76265259Y-71490194D01*
X76284905Y-71508363D01*
X76308732Y-71543528D01*
X76325759Y-71571186D01*
X76337597Y-71596067D01*
X76337385Y-71612331D01*
X76326717Y-71627417D01*
X76316517Y-71644139D01*
X76314531Y-71663687D01*
X76322751Y-71673670D01*
X76338706Y-71666107D01*
X76345800Y-71660223D01*
X76366199Y-71651939D01*
X76367680Y-71657339D01*
X76351744Y-71671397D01*
X76340966Y-71679653D01*
X76330980Y-71697277D01*
X76339070Y-71723425D01*
X76344673Y-71734885D01*
X76358695Y-71752372D01*
X76377797Y-71752003D01*
X76410023Y-71735103D01*
X76445403Y-71714008D01*
X76413017Y-71740727D01*
X76400130Y-71752710D01*
X76389155Y-71771737D01*
X76399109Y-71778637D01*
X76427997Y-71769567D01*
X76444150Y-71761913D01*
X76449566Y-71761206D01*
X76434324Y-71774160D01*
X76431302Y-71776671D01*
X76415317Y-71797004D01*
X76419486Y-71808609D01*
X76439020Y-71808690D01*
X76469125Y-71794453D01*
X76510565Y-71767076D01*
X76471977Y-71800157D01*
X76449513Y-71822506D01*
X76442192Y-71839251D01*
X76456085Y-71841984D01*
X76489805Y-71828502D01*
X76495324Y-71825709D01*
X76520063Y-71815078D01*
X76530113Y-71814174D01*
X76529914Y-71814931D01*
X76517150Y-71825693D01*
X76490590Y-71841128D01*
X76485996Y-71843620D01*
X76463787Y-71860584D01*
X76458910Y-71874256D01*
X76462017Y-71877948D01*
X76478047Y-71879966D01*
X76478906Y-71879528D01*
X76482817Y-71887195D01*
X76478056Y-71912334D01*
X76472009Y-71936898D01*
X76474571Y-71949007D01*
X76491059Y-71944562D01*
X76525317Y-71924555D01*
X76540348Y-71915051D01*
X76562647Y-71897292D01*
X76566995Y-71881757D01*
X76556972Y-71861294D01*
X76553484Y-71856170D01*
X76541146Y-71849290D01*
X76521332Y-71861070D01*
X76507816Y-71871324D01*
X76505132Y-71871165D01*
X76519845Y-71853235D01*
X76531667Y-71833528D01*
X76534616Y-71798072D01*
X76532877Y-71777902D01*
X76545844Y-71769230D01*
X76549255Y-71769909D01*
X76564954Y-71786202D01*
X76578297Y-71818101D01*
X76585495Y-71849549D01*
X76591635Y-71894896D01*
X76593257Y-71936151D01*
X76590185Y-71966155D01*
X76582243Y-71977747D01*
X76573581Y-71969271D01*
X76569210Y-71944428D01*
X76569210Y-71911108D01*
X76513823Y-71944178D01*
X76495153Y-71956320D01*
X76468696Y-71978235D01*
X76458206Y-71994340D01*
X76458188Y-71994825D01*
X76449227Y-72016028D01*
X76428883Y-72042661D01*
X76410441Y-72070428D01*
X76398161Y-72123560D01*
X76398129Y-72124548D01*
X76396511Y-72172660D01*
X76394903Y-72218845D01*
X76393460Y-72237851D01*
X76386306Y-72260760D01*
X76374801Y-72258653D01*
X76360371Y-72231029D01*
X76348032Y-72177650D01*
X76356025Y-72116532D01*
X76389173Y-72054675D01*
X76404867Y-72031701D01*
X76424047Y-71998769D01*
X76432145Y-71977555D01*
X76433328Y-71969229D01*
X76442805Y-71942855D01*
X76443656Y-71941406D01*
X76447464Y-71917033D01*
X76435944Y-71898699D01*
X76415002Y-71896300D01*
X76405579Y-71899530D01*
X76400331Y-71897373D01*
X76412823Y-71880005D01*
X76421667Y-71868556D01*
X76424321Y-71860057D01*
X76407721Y-71864831D01*
X76398796Y-71868006D01*
X76390168Y-71867716D01*
X76401205Y-71852077D01*
X76410650Y-71838994D01*
X76405959Y-71834474D01*
X76380242Y-71839605D01*
X76356482Y-71844845D01*
X76351342Y-71842717D01*
X76366300Y-71830450D01*
X76380245Y-71819390D01*
X76382766Y-71808946D01*
X76363042Y-71796552D01*
X76339305Y-71789936D01*
X76310576Y-71794005D01*
X76290370Y-71808027D01*
X76287393Y-71828347D01*
X76287952Y-71834556D01*
X76275061Y-71834317D01*
X76242791Y-71819515D01*
X76210224Y-71801611D01*
X76193631Y-71789799D01*
X76199911Y-71788044D01*
X76229399Y-71796909D01*
X76234079Y-71798478D01*
X76268295Y-71802776D01*
X76300965Y-71788289D01*
X76319744Y-71773063D01*
X76327303Y-71756956D01*
X76314632Y-71752393D01*
X76285078Y-71764405D01*
X76249918Y-71785355D01*
X76279380Y-71760842D01*
X76293913Y-71747623D01*
X76301155Y-71731025D01*
X76290646Y-71710351D01*
X76284837Y-71701237D01*
X76267915Y-71664319D01*
X76256157Y-71623881D01*
X76251703Y-71588881D01*
X76256694Y-71568273D01*
X76265579Y-71565496D01*
X76269467Y-71584580D01*
X76269575Y-71587837D01*
X76280227Y-71613393D01*
X76301808Y-71623966D01*
X76325079Y-71614572D01*
X76333140Y-71604200D01*
X76325081Y-71599810D01*
X76315735Y-71595885D01*
X76302777Y-71576042D01*
X76290889Y-71552799D01*
X76268751Y-71523850D01*
X76251419Y-71508500D01*
X76226706Y-71500766D01*
X76188711Y-71503989D01*
X76167693Y-71506835D01*
X76145781Y-71506243D01*
X76144433Y-71497536D01*
X76149152Y-71493455D01*
X76174628Y-71485627D01*
X76211878Y-71482519D01*
X76240942Y-71483444D01*
G37*
G36*
X76589142Y-73281920D02*
G01*
X76590931Y-73289668D01*
X76589021Y-73291227D01*
X76573555Y-73289668D01*
X76571516Y-73285748D01*
X76582243Y-73280980D01*
X76589142Y-73281920D01*
G37*
G36*
X76554940Y-71991139D02*
G01*
X76550981Y-71998312D01*
X76527485Y-72014440D01*
X76487758Y-72037204D01*
X76485775Y-72038269D01*
X76461798Y-72049524D01*
X76451920Y-72051047D01*
X76458914Y-72043853D01*
X76481358Y-72028570D01*
X76510631Y-72011120D01*
X76537734Y-71996819D01*
X76553665Y-71990979D01*
X76554940Y-71991139D01*
G37*
G36*
X76550045Y-73294952D02*
G01*
X76551834Y-73302700D01*
X76549924Y-73304260D01*
X76534458Y-73302700D01*
X76532419Y-73298780D01*
X76543146Y-73294012D01*
X76550045Y-73294952D01*
G37*
G36*
X76536355Y-71886485D02*
G01*
X76517081Y-71906069D01*
X76499156Y-71920495D01*
X76491016Y-71923141D01*
X76497807Y-71912621D01*
X76517081Y-71893037D01*
X76535006Y-71878611D01*
X76543146Y-71875965D01*
X76536355Y-71886485D01*
G37*
G36*
X76537508Y-71963293D02*
G01*
X76526482Y-71974789D01*
X76505977Y-71989400D01*
X76486592Y-71999500D01*
X76477984Y-71999253D01*
X76478003Y-71999060D01*
X76488403Y-71988500D01*
X76512170Y-71971378D01*
X76515805Y-71969045D01*
X76534588Y-71959505D01*
X76537508Y-71963293D01*
G37*
G36*
X76537013Y-73477405D02*
G01*
X76538802Y-73485153D01*
X76536892Y-73486712D01*
X76521425Y-73485153D01*
X76519386Y-73481233D01*
X76530113Y-73476464D01*
X76537013Y-73477405D01*
G37*
G36*
X76530113Y-72047887D02*
G01*
X76529527Y-72050178D01*
X76517081Y-72062457D01*
X76512467Y-72064885D01*
X76504049Y-72063995D01*
X76504635Y-72061704D01*
X76517081Y-72049425D01*
X76521695Y-72046997D01*
X76530113Y-72047887D01*
G37*
G36*
X76482278Y-72082777D02*
G01*
X76456831Y-72101407D01*
X76453195Y-72103740D01*
X76434413Y-72113280D01*
X76431492Y-72109492D01*
X76441127Y-72098860D01*
X76465678Y-72081617D01*
X76479633Y-72074809D01*
X76490296Y-72072976D01*
X76482278Y-72082777D01*
G37*
G36*
X76491016Y-72127619D02*
G01*
X76484500Y-72134135D01*
X76477984Y-72127619D01*
X76484500Y-72121103D01*
X76491016Y-72127619D01*
G37*
G36*
X76457536Y-70819821D02*
G01*
X76461422Y-70825744D01*
X76456812Y-70828326D01*
X76436444Y-70826773D01*
X76430411Y-70822082D01*
X76444317Y-70818899D01*
X76457536Y-70819821D01*
G37*
G36*
X76464952Y-72140651D02*
G01*
X76458436Y-72147167D01*
X76451920Y-72140651D01*
X76458436Y-72134135D01*
X76464952Y-72140651D01*
G37*
G36*
X76453804Y-72175080D02*
G01*
X76457714Y-72196880D01*
X76457112Y-72199987D01*
X76451782Y-72229965D01*
X76445395Y-72268443D01*
X76443707Y-72277384D01*
X76425184Y-72324299D01*
X76395626Y-72356656D01*
X76359924Y-72368717D01*
X76345135Y-72365942D01*
X76341145Y-72355684D01*
X76348627Y-72349017D01*
X76372914Y-72342652D01*
X76383974Y-72340009D01*
X76405043Y-72317328D01*
X76420348Y-72274902D01*
X76428042Y-72216943D01*
X76428571Y-72208621D01*
X76434796Y-72176139D01*
X76446431Y-72168913D01*
X76453804Y-72175080D01*
G37*
G36*
X76308272Y-71880005D02*
G01*
X76309773Y-71896015D01*
X76309574Y-71917442D01*
X76311558Y-71922235D01*
X76327580Y-71920700D01*
X76347703Y-71912892D01*
X76370217Y-71905848D01*
X76371838Y-71908557D01*
X76350919Y-71920998D01*
X76344953Y-71924314D01*
X76319072Y-71943453D01*
X76308564Y-71959807D01*
X76310053Y-71963816D01*
X76327455Y-71962515D01*
X76363951Y-71944568D01*
X76382641Y-71934287D01*
X76414176Y-71918938D01*
X76432371Y-71912898D01*
X76432906Y-71912948D01*
X76427334Y-71919590D01*
X76403889Y-71935228D01*
X76367209Y-71956741D01*
X76365243Y-71957843D01*
X76326596Y-71979180D01*
X76298831Y-71993924D01*
X76287843Y-71998941D01*
X76288176Y-71991827D01*
X76290990Y-71965096D01*
X76295782Y-71925618D01*
X76300280Y-71895988D01*
X76305103Y-71877128D01*
X76308272Y-71880005D01*
G37*
G36*
X76434321Y-72679370D02*
G01*
X76435338Y-72707557D01*
X76434958Y-72726682D01*
X76432913Y-72743056D01*
X76429690Y-72736880D01*
X76427534Y-72716210D01*
X76429690Y-72678235D01*
X76431722Y-72671633D01*
X76434321Y-72679370D01*
G37*
G36*
X76437858Y-72882408D02*
G01*
X76436937Y-72895626D01*
X76431014Y-72899513D01*
X76428431Y-72894902D01*
X76429985Y-72874534D01*
X76434676Y-72868502D01*
X76437858Y-72882408D01*
G37*
G36*
X76425855Y-72942139D02*
G01*
X76424914Y-72949038D01*
X76417167Y-72950827D01*
X76415607Y-72948917D01*
X76417167Y-72933451D01*
X76421087Y-72931412D01*
X76425855Y-72942139D01*
G37*
G36*
X76424429Y-73767615D02*
G01*
X76407074Y-73782005D01*
X76386981Y-73794350D01*
X76361460Y-73801244D01*
X76360910Y-73801215D01*
X76348161Y-73799082D01*
X76360693Y-73792966D01*
X76375679Y-73787028D01*
X76406306Y-73773728D01*
X76421165Y-73767067D01*
X76424429Y-73767615D01*
G37*
G36*
X76407239Y-71690610D02*
G01*
X76386758Y-71704068D01*
X76370271Y-71711413D01*
X76360693Y-71711501D01*
X76366277Y-71704495D01*
X76386758Y-71691036D01*
X76403245Y-71683691D01*
X76412823Y-71683603D01*
X76407239Y-71690610D01*
G37*
G36*
X76412823Y-71971231D02*
G01*
X76406306Y-71977747D01*
X76399790Y-71971231D01*
X76406306Y-71964715D01*
X76412823Y-71971231D01*
G37*
G36*
X76412823Y-72974720D02*
G01*
X76406306Y-72981236D01*
X76399790Y-72974720D01*
X76406306Y-72968204D01*
X76412823Y-72974720D01*
G37*
G36*
X76324511Y-70822327D02*
G01*
X76357016Y-70823259D01*
X76368898Y-70825033D01*
X76357435Y-70827364D01*
X76308628Y-70829473D01*
X76259693Y-70827364D01*
X76252792Y-70826492D01*
X76249909Y-70824326D01*
X76269406Y-70822818D01*
X76308564Y-70822252D01*
X76324511Y-70822327D01*
G37*
G36*
X76399790Y-72999246D02*
G01*
X76399204Y-73001538D01*
X76386758Y-73013817D01*
X76382144Y-73016244D01*
X76373726Y-73015355D01*
X76374312Y-73013064D01*
X76386758Y-73000785D01*
X76391372Y-72998357D01*
X76399790Y-72999246D01*
G37*
G36*
X76384157Y-71980453D02*
G01*
X76373726Y-71990779D01*
X76362562Y-71996924D01*
X76341145Y-72003413D01*
X76337230Y-72001106D01*
X76347661Y-71990779D01*
X76358825Y-71984635D01*
X76380242Y-71978146D01*
X76384157Y-71980453D01*
G37*
G36*
X76368771Y-71874177D02*
G01*
X76371844Y-71880977D01*
X76353500Y-71891493D01*
X76343335Y-71893777D01*
X76341237Y-71886372D01*
X76343790Y-71882954D01*
X76361462Y-71873488D01*
X76368771Y-71874177D01*
G37*
G36*
X76346956Y-73124847D02*
G01*
X76360117Y-73131003D01*
X76348561Y-73143584D01*
X76343862Y-73145355D01*
X76328244Y-73137837D01*
X76326953Y-73131004D01*
X76340376Y-73124592D01*
X76346956Y-73124847D01*
G37*
G36*
X76198267Y-72256293D02*
G01*
X76233854Y-72287671D01*
X76274295Y-72333306D01*
X76313753Y-72386826D01*
X76323754Y-72402465D01*
X76340662Y-72433221D01*
X76347085Y-72451987D01*
X76345543Y-72453952D01*
X76335642Y-72442834D01*
X76319727Y-72415674D01*
X76300723Y-72385823D01*
X76267100Y-72342701D01*
X76229426Y-72301370D01*
X76224798Y-72296714D01*
X76198547Y-72268832D01*
X76185476Y-72252113D01*
X76188364Y-72250032D01*
X76198267Y-72256293D01*
G37*
G36*
X76334629Y-71813305D02*
G01*
X76334042Y-71815596D01*
X76321596Y-71827875D01*
X76316982Y-71830303D01*
X76308564Y-71829414D01*
X76309150Y-71827122D01*
X76321596Y-71814843D01*
X76326210Y-71812416D01*
X76334629Y-71813305D01*
G37*
G36*
X76334629Y-71853940D02*
G01*
X76328112Y-71860456D01*
X76321596Y-71853940D01*
X76328112Y-71847424D01*
X76334629Y-71853940D01*
G37*
G36*
X76328496Y-73803213D02*
G01*
X76330284Y-73810961D01*
X76328374Y-73812520D01*
X76312908Y-73810961D01*
X76310869Y-73807041D01*
X76321596Y-73802272D01*
X76328496Y-73803213D01*
G37*
G36*
X76321596Y-72010328D02*
G01*
X76315080Y-72016844D01*
X76308564Y-72010328D01*
X76315080Y-72003812D01*
X76321596Y-72010328D01*
G37*
G36*
X76288115Y-73817255D02*
G01*
X76292002Y-73823179D01*
X76287391Y-73825761D01*
X76267023Y-73824207D01*
X76260991Y-73819516D01*
X76274897Y-73816334D01*
X76288115Y-73817255D01*
G37*
G36*
X76278567Y-72016845D02*
G01*
X76281708Y-72021039D01*
X76269753Y-72035482D01*
X76240144Y-72063277D01*
X76197789Y-72101554D01*
X76236066Y-72059199D01*
X76246748Y-72047554D01*
X76268065Y-72025569D01*
X76278421Y-72016844D01*
X76278567Y-72016845D01*
G37*
G36*
X76240800Y-73831358D02*
G01*
X76230370Y-73841369D01*
X76219094Y-73847132D01*
X76191273Y-73853286D01*
X76185922Y-73849983D01*
X76196149Y-73842089D01*
X76215830Y-73833839D01*
X76236886Y-73829453D01*
X76240800Y-73831358D01*
G37*
G36*
X76225317Y-72027509D02*
G01*
X76213766Y-72036483D01*
X76185432Y-72048898D01*
X76151054Y-72059653D01*
X76120574Y-72065745D01*
X76103932Y-72064170D01*
X76104711Y-72061404D01*
X76121824Y-72052722D01*
X76154119Y-72042445D01*
X76169682Y-72038123D01*
X76203605Y-72027590D01*
X76222609Y-72020026D01*
X76227058Y-72018371D01*
X76225317Y-72027509D01*
G37*
G36*
X76204305Y-72121103D02*
G01*
X76203365Y-72128002D01*
X76195617Y-72129791D01*
X76194057Y-72127881D01*
X76195617Y-72112414D01*
X76199537Y-72110376D01*
X76204305Y-72121103D01*
G37*
G36*
X76161018Y-70821020D02*
G01*
X76179039Y-70823076D01*
X76174983Y-70826854D01*
X76162422Y-70828881D01*
X76129369Y-70826854D01*
X76125672Y-70825635D01*
X76128466Y-70822252D01*
X76152176Y-70820894D01*
X76161018Y-70821020D01*
G37*
G36*
X76178241Y-71775746D02*
G01*
X76171725Y-71782262D01*
X76165208Y-71775746D01*
X76171725Y-71769230D01*
X76178241Y-71775746D01*
G37*
G36*
X76160254Y-72147855D02*
G01*
X76163327Y-72154656D01*
X76144983Y-72165172D01*
X76134818Y-72167456D01*
X76132720Y-72160050D01*
X76135273Y-72156632D01*
X76152945Y-72147167D01*
X76160254Y-72147855D01*
G37*
G36*
X76162607Y-72188970D02*
G01*
X76152176Y-72199297D01*
X76141012Y-72205441D01*
X76119595Y-72211930D01*
X76115680Y-72209623D01*
X76126111Y-72199297D01*
X76137275Y-72193152D01*
X76158692Y-72186663D01*
X76162607Y-72188970D01*
G37*
G36*
X76157792Y-73856352D02*
G01*
X76161679Y-73862275D01*
X76157068Y-73864858D01*
X76136700Y-73863304D01*
X76130668Y-73858613D01*
X76144574Y-73855431D01*
X76157792Y-73856352D01*
G37*
G36*
X76098346Y-70656746D02*
G01*
X76104543Y-70664740D01*
X76104293Y-70669673D01*
X76118826Y-70674515D01*
X76129994Y-70674926D01*
X76137161Y-70679101D01*
X76126767Y-70690729D01*
X76096789Y-70713372D01*
X76072446Y-70730288D01*
X76066465Y-70731766D01*
X76077240Y-70718055D01*
X76080632Y-70714128D01*
X76098374Y-70689647D01*
X76097882Y-70681302D01*
X76081408Y-70689416D01*
X76051203Y-70714313D01*
X76033876Y-70730155D01*
X76018278Y-70743694D01*
X76020047Y-70739981D01*
X76038171Y-70719415D01*
X76054000Y-70700730D01*
X76070533Y-70676591D01*
X76073422Y-70664389D01*
X76060950Y-70667998D01*
X76055983Y-70670125D01*
X76047917Y-70663630D01*
X76055418Y-70656037D01*
X76079248Y-70653087D01*
X76098346Y-70656746D01*
G37*
G36*
X75993030Y-72104355D02*
G01*
X76031090Y-72107731D01*
X76057505Y-72114295D01*
X76077787Y-72124661D01*
X76090979Y-72133442D01*
X76109453Y-72148619D01*
X76106197Y-72156964D01*
X76081688Y-72163162D01*
X76077187Y-72163965D01*
X76057938Y-72163230D01*
X76057838Y-72149511D01*
X76060082Y-72139078D01*
X76051033Y-72138726D01*
X76044783Y-72141126D01*
X76028479Y-72134312D01*
X76019530Y-72128158D01*
X75993425Y-72135400D01*
X75976989Y-72142131D01*
X75974717Y-72136599D01*
X75974862Y-72134137D01*
X75958121Y-72129168D01*
X75916104Y-72127589D01*
X75849235Y-72129423D01*
X75791906Y-72131372D01*
X75750567Y-72130906D01*
X75730725Y-72127500D01*
X75730044Y-72120988D01*
X75740108Y-72116553D01*
X75774114Y-72110730D01*
X75826733Y-72106410D01*
X75893483Y-72104057D01*
X75937815Y-72103551D01*
X75993030Y-72104355D01*
G37*
G36*
X76103522Y-72187881D02*
G01*
X76093940Y-72195318D01*
X76080153Y-72196780D01*
X76080268Y-72190910D01*
X76096227Y-72180586D01*
X76098699Y-72179658D01*
X76111758Y-72176924D01*
X76103522Y-72187881D01*
G37*
G36*
X76105663Y-73869384D02*
G01*
X76109550Y-73875308D01*
X76104939Y-73877890D01*
X76084571Y-73876337D01*
X76078539Y-73871646D01*
X76092445Y-73868463D01*
X76105663Y-73869384D01*
G37*
G36*
X76033198Y-70677259D02*
G01*
X76023679Y-70696595D01*
X76020207Y-70702857D01*
X76003242Y-70725941D01*
X75988838Y-70736341D01*
X75982756Y-70729433D01*
X75990372Y-70714609D01*
X76010717Y-70692825D01*
X76029131Y-70676977D01*
X76033198Y-70677259D01*
G37*
G36*
X76001881Y-70834832D02*
G01*
X76018254Y-70836877D01*
X76012079Y-70840100D01*
X75991409Y-70842256D01*
X75953433Y-70840100D01*
X75946831Y-70838068D01*
X75954569Y-70835469D01*
X75982756Y-70834452D01*
X76001881Y-70834832D01*
G37*
G36*
X76034885Y-72179748D02*
G01*
X76028369Y-72186264D01*
X76021853Y-72179748D01*
X76028369Y-72173232D01*
X76034885Y-72179748D01*
G37*
G36*
X76016898Y-72147855D02*
G01*
X76019971Y-72154656D01*
X76001627Y-72165172D01*
X75991462Y-72167456D01*
X75989364Y-72160050D01*
X75991918Y-72156632D01*
X76009590Y-72147167D01*
X76016898Y-72147855D01*
G37*
G36*
X75956691Y-70679493D02*
G01*
X75956105Y-70681784D01*
X75943659Y-70694063D01*
X75939045Y-70696491D01*
X75930627Y-70695601D01*
X75931213Y-70693310D01*
X75943659Y-70681031D01*
X75948273Y-70678603D01*
X75956691Y-70679493D01*
G37*
G36*
X75904562Y-70615869D02*
G01*
X75898046Y-70622385D01*
X75891530Y-70615869D01*
X75898046Y-70609353D01*
X75904562Y-70615869D01*
G37*
G36*
X75865465Y-70850451D02*
G01*
X75858949Y-70856967D01*
X75852433Y-70850451D01*
X75858949Y-70843935D01*
X75865465Y-70850451D01*
G37*
G36*
X75809819Y-70671338D02*
G01*
X75813090Y-70677591D01*
X75825309Y-70681685D01*
X75829816Y-70680999D01*
X75835056Y-70694063D01*
X75833944Y-70701885D01*
X75825309Y-70706441D01*
X75820738Y-70705427D01*
X75809819Y-70716789D01*
X75809353Y-70717988D01*
X75805611Y-70716225D01*
X75804076Y-70694063D01*
X75804095Y-70690945D01*
X75805921Y-70670675D01*
X75809819Y-70671338D01*
G37*
G36*
X75820235Y-70844875D02*
G01*
X75822024Y-70852623D01*
X75820114Y-70854183D01*
X75804647Y-70852623D01*
X75802609Y-70848703D01*
X75813336Y-70843935D01*
X75820235Y-70844875D01*
G37*
G36*
X75797543Y-72139491D02*
G01*
X75781522Y-72152965D01*
X75762640Y-72165782D01*
X75743511Y-72173232D01*
X75735328Y-72171477D01*
X75743802Y-72163766D01*
X75774239Y-72148214D01*
X75793163Y-72139467D01*
X75797543Y-72139491D01*
G37*
G36*
X75787271Y-70707095D02*
G01*
X75780755Y-70713612D01*
X75774239Y-70707095D01*
X75780755Y-70700579D01*
X75787271Y-70707095D01*
G37*
G36*
X75669980Y-70645860D02*
G01*
X75669728Y-70646869D01*
X75654743Y-70655426D01*
X75621196Y-70665029D01*
X75575496Y-70673785D01*
X75522589Y-70682005D01*
X75473139Y-70689708D01*
X75438656Y-70695102D01*
X75407827Y-70703927D01*
X75396457Y-70717547D01*
X75409334Y-70733160D01*
X75417686Y-70740958D01*
X75421496Y-70757440D01*
X75409792Y-70765741D01*
X75398544Y-70759532D01*
X75382455Y-70738156D01*
X75376888Y-70725016D01*
X75378275Y-70703333D01*
X75398451Y-70686667D01*
X75439840Y-70673518D01*
X75504865Y-70662385D01*
X75512932Y-70661270D01*
X75565672Y-70653477D01*
X75610500Y-70646067D01*
X75638446Y-70640507D01*
X75659330Y-70638453D01*
X75669980Y-70645860D01*
G37*
G36*
X75565721Y-70704617D02*
G01*
X75562030Y-70717989D01*
X75542915Y-70737415D01*
X75518626Y-70747819D01*
X75485347Y-70757179D01*
X75459089Y-70759875D01*
X75448431Y-70754370D01*
X75458378Y-70743702D01*
X75484269Y-70733558D01*
X75512593Y-70723008D01*
X75542915Y-70704060D01*
X75552900Y-70695375D01*
X75563625Y-70690659D01*
X75565721Y-70704617D01*
G37*
G36*
X75841274Y-72486507D02*
G01*
X75860802Y-72502662D01*
X75884264Y-72537829D01*
X75909259Y-72586885D01*
X75933387Y-72644713D01*
X75954246Y-72706192D01*
X75969437Y-72766203D01*
X75972392Y-72782447D01*
X75978323Y-72829877D01*
X75981032Y-72876468D01*
X75980508Y-72915965D01*
X75976742Y-72942112D01*
X75969724Y-72948655D01*
X75964063Y-72937491D01*
X75958745Y-72906344D01*
X75956691Y-72863849D01*
X75953329Y-72816898D01*
X75939232Y-72741748D01*
X75916828Y-72663134D01*
X75889045Y-72590897D01*
X75858811Y-72534879D01*
X75848799Y-72519247D01*
X75837045Y-72495400D01*
X75838043Y-72486008D01*
X75841274Y-72486507D01*
G37*
G36*
X75910049Y-72936015D02*
G01*
X75926317Y-72960847D01*
X75945968Y-72997526D01*
X75962451Y-73033223D01*
X75972949Y-73063430D01*
X75971338Y-73074678D01*
X75957303Y-73065077D01*
X75951722Y-73057883D01*
X75937532Y-73032360D01*
X75922339Y-72998907D01*
X75909302Y-72965338D01*
X75901579Y-72939467D01*
X75902330Y-72929107D01*
X75910049Y-72936015D01*
G37*
G36*
X75733988Y-72369000D02*
G01*
X75759771Y-72382428D01*
X75784730Y-72414330D01*
X75790138Y-72424334D01*
X75799418Y-72451104D01*
X75790529Y-72459391D01*
X75789504Y-72459173D01*
X75776916Y-72447862D01*
X75759794Y-72425191D01*
X75743264Y-72399150D01*
X75732452Y-72377729D01*
X75732484Y-72368916D01*
X75733988Y-72369000D01*
G37*
G36*
X75800303Y-73064408D02*
G01*
X75799717Y-73066699D01*
X75787271Y-73078978D01*
X75782657Y-73081406D01*
X75774239Y-73080517D01*
X75774825Y-73078225D01*
X75787271Y-73065946D01*
X75791885Y-73063519D01*
X75800303Y-73064408D01*
G37*
G36*
X75791584Y-73147477D02*
G01*
X75799274Y-73167716D01*
X75797680Y-73175541D01*
X75791645Y-73166865D01*
X75787436Y-73160659D01*
X75771112Y-73159105D01*
X75764860Y-73161683D01*
X75766609Y-73152457D01*
X75771692Y-73146751D01*
X75788171Y-73144697D01*
X75791584Y-73147477D01*
G37*
G36*
X75760940Y-73089107D02*
G01*
X75759127Y-73104044D01*
X75748323Y-73117983D01*
X75742291Y-73119173D01*
X75743201Y-73105720D01*
X75747715Y-73095717D01*
X75756084Y-73085495D01*
X75760940Y-73089107D01*
G37*
G36*
X75675056Y-72300304D02*
G01*
X75681630Y-72310940D01*
X75664128Y-72321046D01*
X75653096Y-72322640D01*
X75652461Y-72309482D01*
X75657462Y-72301241D01*
X75671346Y-72297883D01*
X75675056Y-72300304D01*
G37*
G36*
X75639495Y-72752299D02*
G01*
X75625512Y-72769461D01*
X75615322Y-72782865D01*
X75610547Y-72796891D01*
X75622854Y-72794853D01*
X75649405Y-72775977D01*
X75666908Y-72761508D01*
X75668482Y-72762270D01*
X75652485Y-72781592D01*
X75629863Y-72800201D01*
X75603614Y-72808142D01*
X75589662Y-72806836D01*
X75578754Y-72804798D01*
X75579208Y-72804163D01*
X75591234Y-72792652D01*
X75614499Y-72771732D01*
X75617782Y-72768834D01*
X75637433Y-72751984D01*
X75639495Y-72752299D01*
G37*
G36*
X75643506Y-72452711D02*
G01*
X75611335Y-72478608D01*
X75597657Y-72488563D01*
X75574830Y-72502283D01*
X75565883Y-72502961D01*
X75567172Y-72499720D01*
X75583152Y-72483706D01*
X75611496Y-72463081D01*
X75617786Y-72459042D01*
X75646741Y-72442033D01*
X75655311Y-72440221D01*
X75643506Y-72452711D01*
G37*
G36*
X75651993Y-72512761D02*
G01*
X75655066Y-72519561D01*
X75636722Y-72530077D01*
X75626557Y-72532361D01*
X75624459Y-72524955D01*
X75627012Y-72521538D01*
X75644685Y-72512072D01*
X75651993Y-72512761D01*
G37*
G36*
X75654281Y-72661606D02*
G01*
X75637826Y-72680661D01*
X75611335Y-72707557D01*
X75595176Y-72722794D01*
X75574009Y-72740953D01*
X75565721Y-72745251D01*
X75568388Y-72740476D01*
X75584843Y-72721422D01*
X75611335Y-72694525D01*
X75627493Y-72679288D01*
X75648661Y-72661129D01*
X75656948Y-72656831D01*
X75654281Y-72661606D01*
G37*
G36*
X75628249Y-72486222D02*
G01*
X75628338Y-72494713D01*
X75608077Y-72513735D01*
X75598634Y-72521015D01*
X75591885Y-72524251D01*
X75603156Y-72508814D01*
X75615084Y-72494914D01*
X75625963Y-72486008D01*
X75628249Y-72486222D01*
G37*
G36*
X75578754Y-72531621D02*
G01*
X75572238Y-72538137D01*
X75565721Y-72531621D01*
X75572238Y-72525105D01*
X75578754Y-72531621D01*
G37*
G36*
X75674729Y-71462102D02*
G01*
X75679001Y-71488676D01*
X75681927Y-71532073D01*
X75683012Y-71586777D01*
X75682584Y-71624650D01*
X75680570Y-71672334D01*
X75677281Y-71704990D01*
X75673135Y-71717101D01*
X75670187Y-71711458D01*
X75666205Y-71684886D01*
X75663131Y-71641486D01*
X75661457Y-71586777D01*
X75661441Y-71548871D01*
X75663164Y-71501203D01*
X75666601Y-71468560D01*
X75671335Y-71456454D01*
X75674729Y-71462102D01*
G37*
G36*
X75561442Y-71161163D02*
G01*
X75562082Y-71178403D01*
X75553358Y-71207225D01*
X75547837Y-71221956D01*
X75545261Y-71249894D01*
X75559394Y-71278976D01*
X75563964Y-71286505D01*
X75582533Y-71324854D01*
X75598704Y-71368142D01*
X75607184Y-71396328D01*
X75615426Y-71431529D01*
X75614967Y-71451497D01*
X75606278Y-71462068D01*
X75602676Y-71461834D01*
X75593767Y-71445840D01*
X75586396Y-71413966D01*
X75583479Y-71399123D01*
X75567733Y-71349328D01*
X75546059Y-71302380D01*
X75533365Y-71279384D01*
X75522296Y-71252066D01*
X75522802Y-71229110D01*
X75533531Y-71199379D01*
X75537942Y-71189475D01*
X75551662Y-71166177D01*
X75561131Y-71160808D01*
X75561442Y-71161163D01*
G37*
G36*
X75433046Y-71096770D02*
G01*
X75415957Y-71110651D01*
X75376764Y-71137996D01*
X75358356Y-71149742D01*
X75342226Y-71157202D01*
X75343574Y-71150915D01*
X75343791Y-71150655D01*
X75368452Y-71129245D01*
X75401868Y-71108581D01*
X75428158Y-71096206D01*
X75433046Y-71096770D01*
G37*
G36*
X75380635Y-71078731D02*
G01*
X75380723Y-71087222D01*
X75360462Y-71106244D01*
X75351020Y-71113524D01*
X75344271Y-71116760D01*
X75355542Y-71101323D01*
X75367470Y-71087423D01*
X75378349Y-71078517D01*
X75380635Y-71078731D01*
G37*
G36*
X75383269Y-71215356D02*
G01*
X75376753Y-71221872D01*
X75370237Y-71215356D01*
X75376753Y-71208840D01*
X75383269Y-71215356D01*
G37*
G36*
X75371645Y-71266853D02*
G01*
X75364859Y-71280733D01*
X75348845Y-71292454D01*
X75344712Y-71293989D01*
X75334416Y-71294945D01*
X75343924Y-71280816D01*
X75354085Y-71269615D01*
X75365316Y-71260969D01*
X75371645Y-71266853D01*
G37*
G36*
X75344172Y-71241421D02*
G01*
X75337656Y-71247937D01*
X75331140Y-71241421D01*
X75337656Y-71234905D01*
X75344172Y-71241421D01*
G37*
G36*
X75742041Y-73477405D02*
G01*
X75743830Y-73485153D01*
X75741920Y-73486712D01*
X75726453Y-73485153D01*
X75724415Y-73481233D01*
X75735142Y-73476464D01*
X75742041Y-73477405D01*
G37*
G36*
X75650815Y-73464373D02*
G01*
X75652604Y-73472120D01*
X75650694Y-73473680D01*
X75635227Y-73472120D01*
X75633188Y-73468200D01*
X75643915Y-73463432D01*
X75650815Y-73464373D01*
G37*
G36*
X75578746Y-73471169D02*
G01*
X75604818Y-73482981D01*
X75608418Y-73484869D01*
X75633604Y-73499984D01*
X75643915Y-73509715D01*
X75643658Y-73510329D01*
X75630891Y-73507825D01*
X75604818Y-73496013D01*
X75601219Y-73494124D01*
X75576033Y-73479009D01*
X75565721Y-73469279D01*
X75565979Y-73468664D01*
X75578746Y-73471169D01*
G37*
G36*
X75487519Y-73419039D02*
G01*
X75513592Y-73430851D01*
X75517191Y-73432740D01*
X75542378Y-73447855D01*
X75552689Y-73457585D01*
X75552431Y-73458200D01*
X75539665Y-73455695D01*
X75513592Y-73443884D01*
X75509993Y-73441995D01*
X75484807Y-73426880D01*
X75474495Y-73417150D01*
X75474753Y-73416535D01*
X75487519Y-73419039D01*
G37*
G36*
X75486660Y-73469412D02*
G01*
X75495248Y-73475542D01*
X75498813Y-73484296D01*
X75480449Y-73480962D01*
X75470947Y-73476067D01*
X75466550Y-73467033D01*
X75469604Y-73465406D01*
X75486660Y-73469412D01*
G37*
G36*
X75474495Y-73222334D02*
G01*
X75467979Y-73228850D01*
X75461463Y-73222334D01*
X75467979Y-73215818D01*
X75474495Y-73222334D01*
G37*
G36*
X75416869Y-72550571D02*
G01*
X75412676Y-72562573D01*
X75409423Y-72565163D01*
X75392569Y-72587038D01*
X75377103Y-72615944D01*
X75370587Y-72638281D01*
X75373004Y-72639199D01*
X75387534Y-72627833D01*
X75410767Y-72603299D01*
X75450597Y-72557686D01*
X75410417Y-72618679D01*
X75396467Y-72640272D01*
X75377044Y-72673162D01*
X75371795Y-72687366D01*
X75380876Y-72681925D01*
X75404439Y-72655877D01*
X75412991Y-72646033D01*
X75435622Y-72624553D01*
X75444387Y-72623325D01*
X75437925Y-72640145D01*
X75414877Y-72672807D01*
X75395424Y-72693795D01*
X75369179Y-72709545D01*
X75350981Y-72704256D01*
X75344172Y-72677697D01*
X75344373Y-72673161D01*
X75351321Y-72642845D01*
X75365375Y-72607570D01*
X75382707Y-72574762D01*
X75399493Y-72551844D01*
X75411906Y-72546243D01*
X75416869Y-72550571D01*
G37*
G36*
X75441617Y-72681437D02*
G01*
X75441199Y-72690680D01*
X75426006Y-72710815D01*
X75419630Y-72718048D01*
X75392906Y-72751777D01*
X75365778Y-72789813D01*
X75332517Y-72839488D01*
X75335469Y-72793340D01*
X75335745Y-72789776D01*
X75343323Y-72754309D01*
X75356247Y-72730633D01*
X75360516Y-72726783D01*
X75369418Y-72722742D01*
X75365521Y-72740138D01*
X75363862Y-72748008D01*
X75371321Y-72746748D01*
X75392926Y-72723730D01*
X75402143Y-72713285D01*
X75425758Y-72690433D01*
X75440928Y-72681375D01*
X75441617Y-72681437D01*
G37*
G36*
X75445171Y-72973154D02*
G01*
X75435398Y-73000785D01*
X75427203Y-73015094D01*
X75423481Y-73007301D01*
X75424593Y-72996024D01*
X75435398Y-72968204D01*
X75439100Y-72962933D01*
X75446405Y-72958898D01*
X75445171Y-72973154D01*
G37*
G36*
X75448431Y-73111559D02*
G01*
X75447490Y-73118459D01*
X75439742Y-73120248D01*
X75438183Y-73118337D01*
X75439742Y-73102871D01*
X75443662Y-73100832D01*
X75448431Y-73111559D01*
G37*
G36*
X75425350Y-72758277D02*
G01*
X75410204Y-72787453D01*
X75407101Y-72792774D01*
X75393798Y-72823530D01*
X75391736Y-72844780D01*
X75393102Y-72852024D01*
X75384157Y-72869912D01*
X75375698Y-72878128D01*
X75369669Y-72899844D01*
X75375857Y-72919722D01*
X75392571Y-72926420D01*
X75406690Y-72928264D01*
X75419336Y-72948655D01*
X75419386Y-72948951D01*
X75420062Y-72964944D01*
X75411848Y-72957337D01*
X75400786Y-72947681D01*
X75391599Y-72961661D01*
X75385582Y-72980425D01*
X75384779Y-73000449D01*
X75395862Y-73001056D01*
X75395924Y-73001018D01*
X75402234Y-73008895D01*
X75405498Y-73039734D01*
X75405402Y-73090599D01*
X75405232Y-73096144D01*
X75404506Y-73143166D01*
X75406409Y-73168771D01*
X75411758Y-73177164D01*
X75421375Y-73172549D01*
X75431186Y-73166058D01*
X75432244Y-73170827D01*
X75429793Y-73179945D01*
X75436059Y-73203408D01*
X75441504Y-73213716D01*
X75448231Y-73238215D01*
X75442903Y-73249278D01*
X75427273Y-73245230D01*
X75407091Y-73227474D01*
X75388227Y-73199772D01*
X75385411Y-73194172D01*
X75377554Y-73172736D01*
X75383589Y-73170402D01*
X75384865Y-73171160D01*
X75393354Y-73170339D01*
X75388991Y-73149030D01*
X75388924Y-73148825D01*
X75382308Y-73113603D01*
X75380492Y-73072462D01*
X75380759Y-73051929D01*
X75378289Y-73041048D01*
X75371578Y-73052914D01*
X75365689Y-73066534D01*
X75359333Y-73069709D01*
X75351540Y-73049030D01*
X75348196Y-73027097D01*
X75353822Y-73003417D01*
X75360472Y-72991158D01*
X75366491Y-72964000D01*
X75364703Y-72939659D01*
X75354944Y-72929107D01*
X75348156Y-72923427D01*
X75347182Y-72900246D01*
X75354509Y-72865708D01*
X75368470Y-72826901D01*
X75387402Y-72790911D01*
X75394048Y-72780978D01*
X75414316Y-72755488D01*
X75425735Y-72747771D01*
X75425350Y-72758277D01*
G37*
G36*
X75428378Y-73445494D02*
G01*
X75438808Y-73450831D01*
X75443454Y-73459720D01*
X75435164Y-73460625D01*
X75413569Y-73451991D01*
X75398695Y-73441142D01*
X75403632Y-73438110D01*
X75428378Y-73445494D01*
G37*
G36*
X75435398Y-72388265D02*
G01*
X75428882Y-72394781D01*
X75422366Y-72388265D01*
X75428882Y-72381749D01*
X75435398Y-72388265D01*
G37*
G36*
X75435398Y-72810278D02*
G01*
X75434912Y-72814100D01*
X75422366Y-72831364D01*
X75417363Y-72833452D01*
X75409334Y-72826386D01*
X75409820Y-72822564D01*
X75422366Y-72805300D01*
X75427369Y-72803212D01*
X75435398Y-72810278D01*
G37*
G36*
X75425869Y-72878022D02*
G01*
X75418814Y-72894817D01*
X75412100Y-72891791D01*
X75410984Y-72883457D01*
X75420171Y-72860927D01*
X75420785Y-72860323D01*
X75428829Y-72857904D01*
X75425869Y-72878022D01*
G37*
G36*
X75390168Y-73464373D02*
G01*
X75391957Y-73472120D01*
X75390047Y-73473680D01*
X75374581Y-73472120D01*
X75372542Y-73468200D01*
X75383269Y-73463432D01*
X75390168Y-73464373D01*
G37*
G36*
X75336129Y-73412655D02*
G01*
X75363217Y-73419429D01*
X75373748Y-73424594D01*
X75379207Y-73432741D01*
X75367952Y-73433035D01*
X75342806Y-73425441D01*
X75325460Y-73416566D01*
X75326816Y-73412129D01*
X75336129Y-73412655D01*
G37*
G36*
X75370237Y-72414330D02*
G01*
X75363720Y-72420846D01*
X75357204Y-72414330D01*
X75363720Y-72407814D01*
X75370237Y-72414330D01*
G37*
G36*
X75357204Y-72583750D02*
G01*
X75350688Y-72590266D01*
X75344172Y-72583750D01*
X75350688Y-72577234D01*
X75357204Y-72583750D01*
G37*
G36*
X75295982Y-73402540D02*
G01*
X75295549Y-73406819D01*
X75284840Y-73409210D01*
X75256452Y-73407302D01*
X75254211Y-73406657D01*
X75252282Y-73402690D01*
X75272494Y-73400811D01*
X75275580Y-73400793D01*
X75295982Y-73402540D01*
G37*
G36*
X75232497Y-71067435D02*
G01*
X75236384Y-71073358D01*
X75231773Y-71075941D01*
X75211405Y-71074387D01*
X75205373Y-71069696D01*
X75219279Y-71066513D01*
X75232497Y-71067435D01*
G37*
G36*
X75239913Y-71723617D02*
G01*
X75233397Y-71730133D01*
X75226881Y-71723617D01*
X75233397Y-71717101D01*
X75239913Y-71723617D01*
G37*
G36*
X75083525Y-71410262D02*
G01*
X75084591Y-71416635D01*
X75096075Y-71443690D01*
X75096903Y-71445077D01*
X75116106Y-71477242D01*
X75124276Y-71489927D01*
X75141731Y-71522744D01*
X75148687Y-71545401D01*
X75155433Y-71566150D01*
X75174400Y-71592919D01*
X75189775Y-71610158D01*
X75191653Y-71618795D01*
X75175881Y-71620289D01*
X75162971Y-71617847D01*
X75156838Y-71606764D01*
X75152631Y-71592884D01*
X75132551Y-71574883D01*
X75116920Y-71565445D01*
X75110320Y-71564008D01*
X75120960Y-71578167D01*
X75129982Y-71591666D01*
X75129139Y-71599810D01*
X75126528Y-71603533D01*
X75135536Y-71619215D01*
X75146990Y-71628643D01*
X75165411Y-71630109D01*
X75172407Y-71628409D01*
X75171273Y-71642206D01*
X75169669Y-71653845D01*
X75176105Y-71662215D01*
X75182091Y-71670000D01*
X75192207Y-71677851D01*
X75200816Y-71702064D01*
X75204272Y-71718567D01*
X75221794Y-71744351D01*
X75232598Y-71756399D01*
X75228229Y-71766609D01*
X75222799Y-71770304D01*
X75223165Y-71786633D01*
X75224600Y-71789050D01*
X75234053Y-71814119D01*
X75236293Y-71837210D01*
X75230057Y-71847224D01*
X75221450Y-71845850D01*
X75192583Y-71824544D01*
X75162546Y-71777367D01*
X75160783Y-71773747D01*
X75176105Y-71773747D01*
X75190732Y-71789804D01*
X75207052Y-71803689D01*
X75219462Y-71807058D01*
X75216190Y-71798408D01*
X75196966Y-71783571D01*
X75180878Y-71774157D01*
X75176105Y-71773747D01*
X75160783Y-71773747D01*
X75154768Y-71761398D01*
X75148261Y-71742025D01*
X75156228Y-71744016D01*
X75167099Y-71750789D01*
X75174752Y-71746357D01*
X75171631Y-71736724D01*
X75155203Y-71717101D01*
X75144810Y-71705851D01*
X75135655Y-71683855D01*
X75133288Y-71672880D01*
X75118496Y-71649612D01*
X75101727Y-71630691D01*
X75078970Y-71597794D01*
X75064469Y-71568060D01*
X75062767Y-71549638D01*
X75063582Y-71547732D01*
X75062381Y-71525740D01*
X75053595Y-71497376D01*
X75096903Y-71497376D01*
X75109160Y-71515100D01*
X75122234Y-71533017D01*
X75131967Y-71546594D01*
X75133093Y-71547600D01*
X75135655Y-71538416D01*
X75131146Y-71526780D01*
X75112848Y-71506921D01*
X75101440Y-71498219D01*
X75096903Y-71497376D01*
X75053595Y-71497376D01*
X75052449Y-71493677D01*
X75048266Y-71482588D01*
X75040965Y-71452427D01*
X75057660Y-71452427D01*
X75058102Y-71456970D01*
X75070493Y-71476003D01*
X75077800Y-71480019D01*
X75082215Y-71477249D01*
X75070493Y-71456454D01*
X75062748Y-71447288D01*
X75057660Y-71452427D01*
X75040965Y-71452427D01*
X75038560Y-71442490D01*
X75038456Y-71410503D01*
X75048287Y-71394551D01*
X75048853Y-71394352D01*
X75062748Y-71393583D01*
X75074308Y-71392944D01*
X75083525Y-71410262D01*
G37*
G36*
X75220748Y-71027328D02*
G01*
X75222537Y-71035076D01*
X75220627Y-71036635D01*
X75205160Y-71035076D01*
X75203122Y-71031156D01*
X75213849Y-71026387D01*
X75220748Y-71027328D01*
G37*
G36*
X75219465Y-71132596D02*
G01*
X75223351Y-71138520D01*
X75218741Y-71141102D01*
X75198373Y-71139549D01*
X75192341Y-71134858D01*
X75206247Y-71131675D01*
X75219465Y-71132596D01*
G37*
G36*
X75181651Y-71040360D02*
G01*
X75183440Y-71048108D01*
X75181530Y-71049668D01*
X75166064Y-71048108D01*
X75164025Y-71044188D01*
X75174752Y-71039420D01*
X75181651Y-71040360D01*
G37*
G36*
X75182830Y-71079205D02*
G01*
X75185903Y-71086005D01*
X75167559Y-71096522D01*
X75157393Y-71098805D01*
X75155296Y-71091400D01*
X75157849Y-71087982D01*
X75175521Y-71078517D01*
X75182830Y-71079205D01*
G37*
G36*
X75120760Y-71125769D02*
G01*
X75113991Y-71138562D01*
X75110110Y-71144629D01*
X75100972Y-71164572D01*
X75110267Y-71168066D01*
X75139770Y-71156334D01*
X75152518Y-71150656D01*
X75154806Y-71151841D01*
X75135938Y-71166108D01*
X75094870Y-71198729D01*
X75066753Y-71230584D01*
X75061966Y-71253912D01*
X75062656Y-71256427D01*
X75061030Y-71282275D01*
X75051981Y-71318226D01*
X75038961Y-71352860D01*
X75025423Y-71374759D01*
X75023587Y-71375825D01*
X75020577Y-71366058D01*
X75024171Y-71339163D01*
X75031761Y-71300448D01*
X75035058Y-71271612D01*
X75031451Y-71259105D01*
X75020733Y-71258008D01*
X75017133Y-71257209D01*
X75020215Y-71243502D01*
X75037023Y-71217681D01*
X75045129Y-71206793D01*
X75063258Y-71179959D01*
X75070493Y-71165067D01*
X75070461Y-71164835D01*
X75058870Y-71166403D01*
X75030420Y-71177722D01*
X74990980Y-71196473D01*
X74989645Y-71197147D01*
X74949631Y-71216468D01*
X74920112Y-71229158D01*
X74907392Y-71232500D01*
X74911284Y-71228633D01*
X74933396Y-71214777D01*
X74970821Y-71193621D01*
X75018868Y-71167885D01*
X75064269Y-71144417D01*
X75099045Y-71127727D01*
X75116827Y-71121834D01*
X75120760Y-71125769D01*
G37*
G36*
X75145927Y-70966582D02*
G01*
X75129906Y-70980055D01*
X75111024Y-70992873D01*
X75091895Y-71000323D01*
X75083712Y-70998568D01*
X75092186Y-70990857D01*
X75122622Y-70975304D01*
X75141546Y-70966558D01*
X75145927Y-70966582D01*
G37*
G36*
X75142554Y-71053393D02*
G01*
X75144343Y-71061140D01*
X75142433Y-71062700D01*
X75126967Y-71061140D01*
X75124928Y-71057220D01*
X75135655Y-71052452D01*
X75142554Y-71053393D01*
G37*
G36*
X75148687Y-71606326D02*
G01*
X75142171Y-71612842D01*
X75135655Y-71606326D01*
X75142171Y-71599810D01*
X75148687Y-71606326D01*
G37*
G36*
X75103457Y-71066425D02*
G01*
X75105246Y-71074173D01*
X75103336Y-71075732D01*
X75087870Y-71074173D01*
X75085831Y-71070253D01*
X75096558Y-71065484D01*
X75103457Y-71066425D01*
G37*
G36*
X75080925Y-71042126D02*
G01*
X75070493Y-71052452D01*
X75059329Y-71058596D01*
X75037912Y-71065085D01*
X75033997Y-71062779D01*
X75044429Y-71052452D01*
X75055592Y-71046308D01*
X75077009Y-71039819D01*
X75080925Y-71042126D01*
G37*
G36*
X75070307Y-71002077D02*
G01*
X75061833Y-71009789D01*
X75031396Y-71025341D01*
X75012472Y-71034087D01*
X75008091Y-71034064D01*
X75024113Y-71020590D01*
X75042995Y-71007773D01*
X75062124Y-71000323D01*
X75070307Y-71002077D01*
G37*
G36*
X75070493Y-71085033D02*
G01*
X75063977Y-71091549D01*
X75057461Y-71085033D01*
X75063977Y-71078517D01*
X75070493Y-71085033D01*
G37*
G36*
X75044429Y-71098065D02*
G01*
X75037912Y-71104581D01*
X75031396Y-71098065D01*
X75037912Y-71091549D01*
X75044429Y-71098065D01*
G37*
G36*
X75044429Y-71521616D02*
G01*
X75043488Y-71528515D01*
X75035740Y-71530304D01*
X75034181Y-71528394D01*
X75035740Y-71512928D01*
X75039660Y-71510889D01*
X75044429Y-71521616D01*
G37*
G36*
X75011835Y-71117336D02*
G01*
X74988431Y-71131540D01*
X74955576Y-71148877D01*
X74921298Y-71165345D01*
X74893628Y-71176943D01*
X74880593Y-71179672D01*
X74886579Y-71173367D01*
X74910511Y-71158834D01*
X74947050Y-71139840D01*
X74980282Y-71124255D01*
X75007798Y-71112988D01*
X75018364Y-71111020D01*
X75011835Y-71117336D01*
G37*
G36*
X75018364Y-71410841D02*
G01*
X75011848Y-71417357D01*
X75005332Y-71410841D01*
X75011848Y-71404325D01*
X75018364Y-71410841D01*
G37*
G36*
X74999748Y-71299640D02*
G01*
X74979267Y-71313099D01*
X74962780Y-71320443D01*
X74953202Y-71320532D01*
X74958786Y-71313525D01*
X74979267Y-71300066D01*
X74995754Y-71292722D01*
X75005332Y-71292633D01*
X74999748Y-71299640D01*
G37*
G36*
X74925940Y-73281448D02*
G01*
X74947113Y-73291358D01*
X74973343Y-73312968D01*
X74976464Y-73316139D01*
X74996857Y-73339967D01*
X75005042Y-73355323D01*
X74998419Y-73354677D01*
X74982235Y-73338065D01*
X74962403Y-73317631D01*
X74933654Y-73296106D01*
X74920667Y-73286533D01*
X74924472Y-73281376D01*
X74925940Y-73281448D01*
G37*
G36*
X74989698Y-71263675D02*
G01*
X74979267Y-71274002D01*
X74968103Y-71280146D01*
X74946686Y-71286635D01*
X74942771Y-71284328D01*
X74953202Y-71274002D01*
X74964366Y-71267857D01*
X74985783Y-71261368D01*
X74989698Y-71263675D01*
G37*
G36*
X74936255Y-71326147D02*
G01*
X74940189Y-71329193D01*
X74926165Y-71338922D01*
X74891299Y-71357389D01*
X74884127Y-71360942D01*
X74859069Y-71371480D01*
X74848944Y-71372413D01*
X74849705Y-71370727D01*
X74864482Y-71359388D01*
X74890420Y-71344544D01*
X74917369Y-71331642D01*
X74935179Y-71326131D01*
X74936255Y-71326147D01*
G37*
G36*
X74923779Y-71289937D02*
G01*
X74907467Y-71299559D01*
X74876367Y-71314292D01*
X74857039Y-71322442D01*
X74827718Y-71332766D01*
X74813922Y-71334551D01*
X74813730Y-71334243D01*
X74822928Y-71326710D01*
X74847294Y-71314626D01*
X74878101Y-71301680D01*
X74906626Y-71291560D01*
X74924143Y-71287954D01*
X74923779Y-71289937D01*
G37*
G36*
X74913076Y-73195183D02*
G01*
X74912155Y-73208402D01*
X74906232Y-73212288D01*
X74903649Y-73207678D01*
X74905203Y-73187310D01*
X74909894Y-73181277D01*
X74913076Y-73195183D01*
G37*
G36*
X74878484Y-71249554D02*
G01*
X74868901Y-71256990D01*
X74855115Y-71258452D01*
X74855230Y-71252583D01*
X74871188Y-71242259D01*
X74873661Y-71241331D01*
X74886719Y-71238596D01*
X74878484Y-71249554D01*
G37*
G36*
X74859375Y-71185481D02*
G01*
X74848944Y-71195808D01*
X74837780Y-71201952D01*
X74816363Y-71208441D01*
X74812448Y-71206134D01*
X74822879Y-71195808D01*
X74834043Y-71189663D01*
X74855460Y-71183174D01*
X74859375Y-71185481D01*
G37*
G36*
X74833310Y-71263675D02*
G01*
X74822879Y-71274002D01*
X74811715Y-71280146D01*
X74790298Y-71286635D01*
X74786383Y-71284328D01*
X74796814Y-71274002D01*
X74807978Y-71267857D01*
X74829395Y-71261368D01*
X74833310Y-71263675D01*
G37*
G36*
X74835911Y-71384776D02*
G01*
X74829395Y-71391292D01*
X74822879Y-71384776D01*
X74829395Y-71378260D01*
X74835911Y-71384776D01*
G37*
G36*
X74809847Y-71397809D02*
G01*
X74803331Y-71404325D01*
X74796814Y-71397809D01*
X74803331Y-71391292D01*
X74809847Y-71397809D01*
G37*
G36*
X74796814Y-71215356D02*
G01*
X74790298Y-71221872D01*
X74783782Y-71215356D01*
X74790298Y-71208840D01*
X74796814Y-71215356D01*
G37*
G36*
X74788677Y-73245757D02*
G01*
X74787040Y-73250514D01*
X74781141Y-73252235D01*
X74754459Y-73250514D01*
X74752249Y-73245988D01*
X74770750Y-73243940D01*
X74788677Y-73245757D01*
G37*
G36*
X74778828Y-71405013D02*
G01*
X74781900Y-71411813D01*
X74763557Y-71422330D01*
X74753391Y-71424614D01*
X74751293Y-71417208D01*
X74753847Y-71413790D01*
X74771519Y-71404325D01*
X74778828Y-71405013D01*
G37*
G36*
X74764617Y-71222813D02*
G01*
X74766406Y-71230560D01*
X74764495Y-71232120D01*
X74749029Y-71230560D01*
X74746990Y-71226641D01*
X74757717Y-71221872D01*
X74764617Y-71222813D01*
G37*
G36*
X74761193Y-71301683D02*
G01*
X74751610Y-71309120D01*
X74737824Y-71310582D01*
X74737939Y-71304712D01*
X74753897Y-71294388D01*
X74756370Y-71293460D01*
X74769428Y-71290726D01*
X74761193Y-71301683D01*
G37*
G36*
X74757717Y-71358712D02*
G01*
X74751201Y-71365228D01*
X74744685Y-71358712D01*
X74751201Y-71352196D01*
X74757717Y-71358712D01*
G37*
G36*
X74729052Y-71237610D02*
G01*
X74718620Y-71247937D01*
X74707457Y-71254081D01*
X74686040Y-71260570D01*
X74682124Y-71258263D01*
X74692556Y-71247937D01*
X74703720Y-71241793D01*
X74725137Y-71235304D01*
X74729052Y-71237610D01*
G37*
G36*
X74729052Y-71367934D02*
G01*
X74718620Y-71378260D01*
X74707457Y-71384404D01*
X74686040Y-71390893D01*
X74682124Y-71388587D01*
X74692556Y-71378260D01*
X74703720Y-71372116D01*
X74725137Y-71365627D01*
X74729052Y-71367934D01*
G37*
G36*
X74729052Y-71433095D02*
G01*
X74718620Y-71443422D01*
X74707457Y-71449566D01*
X74686040Y-71456055D01*
X74682124Y-71453748D01*
X74692556Y-71443422D01*
X74703720Y-71437277D01*
X74725137Y-71430789D01*
X74729052Y-71433095D01*
G37*
G36*
X74712482Y-71314031D02*
G01*
X74711540Y-71319680D01*
X74692556Y-71332647D01*
X74666960Y-71345288D01*
X74646943Y-71351272D01*
X74646565Y-71351264D01*
X74647507Y-71345614D01*
X74666491Y-71332647D01*
X74692087Y-71320006D01*
X74712104Y-71314022D01*
X74712482Y-71314031D01*
G37*
G36*
X74594034Y-73033620D02*
G01*
X74620315Y-73042490D01*
X74655283Y-73062933D01*
X74689298Y-73089395D01*
X74709556Y-73113656D01*
X74718428Y-73136638D01*
X74718408Y-73137533D01*
X74713665Y-73142760D01*
X74701891Y-73124868D01*
X74696578Y-73116431D01*
X74669490Y-73088500D01*
X74633663Y-73063178D01*
X74617231Y-73053525D01*
X74596041Y-73039278D01*
X74592412Y-73033580D01*
X74594034Y-73033620D01*
G37*
G36*
X74682821Y-71523774D02*
G01*
X74677581Y-71530138D01*
X74653459Y-71541164D01*
X74644660Y-71544482D01*
X74611911Y-71555194D01*
X74595020Y-71558104D01*
X74597003Y-71553256D01*
X74620878Y-71540694D01*
X74621308Y-71540497D01*
X74654445Y-71528105D01*
X74679523Y-71523195D01*
X74682821Y-71523774D01*
G37*
G36*
X74660358Y-71261910D02*
G01*
X74662147Y-71269657D01*
X74660237Y-71271217D01*
X74644771Y-71269657D01*
X74642732Y-71265738D01*
X74653459Y-71260969D01*
X74660358Y-71261910D01*
G37*
G36*
X74664474Y-71392382D02*
G01*
X74655824Y-71398779D01*
X74629149Y-71412769D01*
X74589638Y-71431609D01*
X74586311Y-71433135D01*
X74545121Y-71451027D01*
X74514672Y-71462478D01*
X74501343Y-71465070D01*
X74501557Y-71463948D01*
X74515441Y-71454911D01*
X74544248Y-71440396D01*
X74580749Y-71423638D01*
X74617710Y-71407872D01*
X74647902Y-71396334D01*
X74664092Y-71392258D01*
X74664474Y-71392382D01*
G37*
G36*
X74666491Y-71462970D02*
G01*
X74659975Y-71469486D01*
X74653459Y-71462970D01*
X74659975Y-71456454D01*
X74666491Y-71462970D01*
G37*
G36*
X74640426Y-71476003D02*
G01*
X74633910Y-71482519D01*
X74627394Y-71476003D01*
X74633910Y-71469486D01*
X74640426Y-71476003D01*
G37*
G36*
X74624793Y-71276707D02*
G01*
X74614362Y-71287034D01*
X74603198Y-71293178D01*
X74581781Y-71299667D01*
X74577866Y-71297360D01*
X74588297Y-71287034D01*
X74599461Y-71280890D01*
X74620878Y-71274401D01*
X74624793Y-71276707D01*
G37*
G36*
X74621256Y-71353128D02*
G01*
X74620314Y-71358777D01*
X74601329Y-71371744D01*
X74575734Y-71384385D01*
X74555716Y-71390369D01*
X74555339Y-71390360D01*
X74556281Y-71384711D01*
X74575265Y-71371744D01*
X74600861Y-71359103D01*
X74620878Y-71353119D01*
X74621256Y-71353128D01*
G37*
G36*
X74611761Y-71485225D02*
G01*
X74601329Y-71495551D01*
X74590166Y-71501695D01*
X74568749Y-71508184D01*
X74564833Y-71505878D01*
X74575265Y-71495551D01*
X74586429Y-71489407D01*
X74607846Y-71482918D01*
X74611761Y-71485225D01*
G37*
G36*
X74560972Y-73060946D02*
G01*
X74581369Y-73081510D01*
X74602394Y-73106472D01*
X74612661Y-73121841D01*
X74605798Y-73119510D01*
X74581781Y-73098527D01*
X74578997Y-73095870D01*
X74557863Y-73072349D01*
X74549200Y-73056432D01*
X74549876Y-73054859D01*
X74560972Y-73060946D01*
G37*
G36*
X74572664Y-71563419D02*
G01*
X74562233Y-71573745D01*
X74551069Y-71579889D01*
X74529652Y-71586378D01*
X74525736Y-71584071D01*
X74536168Y-71573745D01*
X74547332Y-71567601D01*
X74568749Y-71561112D01*
X74572664Y-71563419D01*
G37*
G36*
X74569132Y-73021274D02*
G01*
X74570921Y-73029021D01*
X74569011Y-73030581D01*
X74553544Y-73029021D01*
X74551505Y-73025101D01*
X74562233Y-73020333D01*
X74569132Y-73021274D01*
G37*
G36*
X74562233Y-71306582D02*
G01*
X74555716Y-71313099D01*
X74549200Y-71306582D01*
X74555716Y-71300066D01*
X74562233Y-71306582D01*
G37*
G36*
X74543067Y-71509524D02*
G01*
X74544856Y-71517272D01*
X74542946Y-71518831D01*
X74527480Y-71517272D01*
X74525441Y-71513352D01*
X74536168Y-71508583D01*
X74543067Y-71509524D01*
G37*
G36*
X74526611Y-71405942D02*
G01*
X74517029Y-71413378D01*
X74503242Y-71414840D01*
X74503357Y-71408971D01*
X74519315Y-71398647D01*
X74521788Y-71397719D01*
X74534846Y-71394984D01*
X74526611Y-71405942D01*
G37*
G36*
X74507502Y-71524322D02*
G01*
X74497071Y-71534648D01*
X74485907Y-71540792D01*
X74464490Y-71547281D01*
X74460575Y-71544974D01*
X74471006Y-71534648D01*
X74482170Y-71528504D01*
X74503587Y-71522015D01*
X74507502Y-71524322D01*
G37*
G36*
X74503970Y-71587718D02*
G01*
X74505759Y-71595466D01*
X74503849Y-71597025D01*
X74488383Y-71595466D01*
X74486344Y-71591546D01*
X74497071Y-71586777D01*
X74503970Y-71587718D01*
G37*
G36*
X74483852Y-71471241D02*
G01*
X74475378Y-71478953D01*
X74444942Y-71494505D01*
X74426018Y-71503251D01*
X74421637Y-71503228D01*
X74437658Y-71489754D01*
X74456540Y-71476937D01*
X74475669Y-71469486D01*
X74483852Y-71471241D01*
G37*
G36*
X74446210Y-71613104D02*
G01*
X74419516Y-71626431D01*
X74401133Y-71635178D01*
X74366091Y-71653530D01*
X74344580Y-71667145D01*
X74333122Y-71674416D01*
X74327651Y-71666742D01*
X74333890Y-71656870D01*
X74359632Y-71640110D01*
X74399234Y-71622676D01*
X74446077Y-71607857D01*
X74453817Y-71606882D01*
X74446210Y-71613104D01*
G37*
G36*
X74438809Y-71548621D02*
G01*
X74440597Y-71556369D01*
X74438687Y-71557928D01*
X74423221Y-71556369D01*
X74421182Y-71552449D01*
X74431909Y-71547680D01*
X74438809Y-71548621D01*
G37*
G36*
X74415936Y-72288426D02*
G01*
X74417246Y-72313849D01*
X74417276Y-72314997D01*
X74413090Y-72345181D01*
X74401979Y-72383016D01*
X74387197Y-72420254D01*
X74371997Y-72448646D01*
X74359632Y-72459943D01*
X74358824Y-72459289D01*
X74362543Y-72444902D01*
X74375390Y-72417588D01*
X74377293Y-72413857D01*
X74394661Y-72369722D01*
X74406674Y-72323104D01*
X74409477Y-72306925D01*
X74413822Y-72285702D01*
X74415936Y-72288426D01*
G37*
G36*
X74403244Y-71563419D02*
G01*
X74392812Y-71573745D01*
X74381649Y-71579889D01*
X74360231Y-71586378D01*
X74356316Y-71584071D01*
X74366748Y-71573745D01*
X74377911Y-71567601D01*
X74399328Y-71561112D01*
X74403244Y-71563419D01*
G37*
G36*
X74401131Y-71724023D02*
G01*
X74401939Y-71756198D01*
X74401316Y-71785321D01*
X74399351Y-71800122D01*
X74396510Y-71792036D01*
X74394329Y-71762454D01*
X74396510Y-71720359D01*
X74399027Y-71711965D01*
X74401131Y-71724023D01*
G37*
G36*
X74392812Y-71860456D02*
G01*
X74391872Y-71867355D01*
X74384124Y-71869144D01*
X74382564Y-71867234D01*
X74384124Y-71851768D01*
X74388044Y-71849729D01*
X74392812Y-71860456D01*
G37*
G36*
X74377766Y-72230633D02*
G01*
X74380419Y-72232364D01*
X74392422Y-72245241D01*
X74387065Y-72251426D01*
X74384134Y-72250261D01*
X74372019Y-72236380D01*
X74368848Y-72229097D01*
X74377766Y-72230633D01*
G37*
G36*
X74372545Y-72804532D02*
G01*
X74384889Y-72824626D01*
X74391783Y-72850146D01*
X74391755Y-72850696D01*
X74389622Y-72863445D01*
X74383506Y-72850913D01*
X74377567Y-72835927D01*
X74364268Y-72805300D01*
X74357607Y-72790441D01*
X74358155Y-72787177D01*
X74372545Y-72804532D01*
G37*
G36*
X74379780Y-71912585D02*
G01*
X74378839Y-71919485D01*
X74371092Y-71921274D01*
X74369532Y-71919364D01*
X74371092Y-71903897D01*
X74375012Y-71901858D01*
X74379780Y-71912585D01*
G37*
G36*
X74366748Y-71951682D02*
G01*
X74365807Y-71958582D01*
X74358059Y-71960371D01*
X74356500Y-71958461D01*
X74358059Y-71942994D01*
X74361979Y-71940955D01*
X74366748Y-71951682D01*
G37*
G36*
X74364690Y-72603299D02*
G01*
X74362873Y-72621226D01*
X74358117Y-72619589D01*
X74356395Y-72613690D01*
X74358117Y-72587008D01*
X74362642Y-72584798D01*
X74364690Y-72603299D01*
G37*
G36*
X74353316Y-71984263D02*
G01*
X74351711Y-71993086D01*
X74340683Y-72016844D01*
X74333428Y-72025691D01*
X74328050Y-72023360D01*
X74329655Y-72014538D01*
X74340683Y-71990779D01*
X74347938Y-71981932D01*
X74353316Y-71984263D01*
G37*
G36*
X74327651Y-72192780D02*
G01*
X74329334Y-72194313D01*
X74348901Y-72214521D01*
X74352719Y-72223528D01*
X74339226Y-72217945D01*
X74330442Y-72215890D01*
X74313361Y-72226950D01*
X74311302Y-72229920D01*
X74304140Y-72230734D01*
X74301786Y-72207051D01*
X74302560Y-72182695D01*
X74309209Y-72177814D01*
X74327651Y-72192780D01*
G37*
G36*
X74353715Y-72648912D02*
G01*
X74347199Y-72655428D01*
X74340683Y-72648912D01*
X74347199Y-72642396D01*
X74353715Y-72648912D01*
G37*
G36*
X74338669Y-72751926D02*
G01*
X74341322Y-72753657D01*
X74353325Y-72766534D01*
X74347968Y-72772719D01*
X74345037Y-72771554D01*
X74332922Y-72757673D01*
X74329751Y-72750390D01*
X74338669Y-72751926D01*
G37*
G36*
X74338142Y-71736649D02*
G01*
X74338160Y-71739735D01*
X74336413Y-71760137D01*
X74332135Y-71759704D01*
X74329744Y-71748995D01*
X74331652Y-71720607D01*
X74332297Y-71718366D01*
X74336263Y-71716437D01*
X74338142Y-71736649D01*
G37*
G36*
X74324238Y-71796228D02*
G01*
X74319601Y-71827875D01*
X74314666Y-71856767D01*
X74309144Y-71879348D01*
X74304276Y-71880528D01*
X74298464Y-71862956D01*
X74298669Y-71839195D01*
X74310036Y-71807051D01*
X74314779Y-71798909D01*
X74323052Y-71787490D01*
X74324238Y-71796228D01*
G37*
G36*
X74316552Y-72032559D02*
G01*
X74326652Y-72062385D01*
X74314778Y-72095038D01*
X74309777Y-72101041D01*
X74304624Y-72094985D01*
X74304078Y-72065140D01*
X74304664Y-72054249D01*
X74309034Y-72031256D01*
X74316552Y-72032559D01*
G37*
G36*
X74327651Y-72368717D02*
G01*
X74326710Y-72375616D01*
X74318962Y-72377405D01*
X74317403Y-72375495D01*
X74318962Y-72360029D01*
X74322882Y-72357990D01*
X74327651Y-72368717D01*
G37*
G36*
X74314618Y-72336136D02*
G01*
X74308102Y-72342652D01*
X74301586Y-72336136D01*
X74308102Y-72329620D01*
X74314618Y-72336136D01*
G37*
G36*
X74293911Y-71901503D02*
G01*
X74295328Y-71921094D01*
X74296230Y-71954941D01*
X74296189Y-71971310D01*
X74294678Y-71990193D01*
X74291765Y-71987362D01*
X74286902Y-71975772D01*
X74275057Y-71971518D01*
X74273900Y-71972054D01*
X74271072Y-71963729D01*
X74277319Y-71939096D01*
X74278179Y-71936640D01*
X74288028Y-71910365D01*
X74293307Y-71899553D01*
X74293911Y-71901503D01*
G37*
G36*
X77403279Y-71788778D02*
G01*
X77396763Y-71795295D01*
X77390247Y-71788778D01*
X77396763Y-71782262D01*
X77403279Y-71788778D01*
G37*
G36*
X77397146Y-71926558D02*
G01*
X77398935Y-71934306D01*
X77397025Y-71935866D01*
X77381559Y-71934306D01*
X77379520Y-71930386D01*
X77390247Y-71925618D01*
X77397146Y-71926558D01*
G37*
G36*
X77384114Y-71744106D02*
G01*
X77385903Y-71751853D01*
X77383993Y-71753413D01*
X77368526Y-71751853D01*
X77366487Y-71747934D01*
X77377215Y-71743165D01*
X77384114Y-71744106D01*
G37*
G36*
X77345017Y-71613783D02*
G01*
X77346806Y-71621530D01*
X77344896Y-71623090D01*
X77329429Y-71621530D01*
X77327390Y-71617610D01*
X77338118Y-71612842D01*
X77345017Y-71613783D01*
G37*
G36*
X77279855Y-71926558D02*
G01*
X77281644Y-71934306D01*
X77279734Y-71935866D01*
X77264268Y-71934306D01*
X77262229Y-71930386D01*
X77272956Y-71925618D01*
X77279855Y-71926558D01*
G37*
G36*
X77272956Y-71515100D02*
G01*
X77266440Y-71521616D01*
X77259924Y-71515100D01*
X77266440Y-71508583D01*
X77272956Y-71515100D01*
G37*
G36*
X77259924Y-71697552D02*
G01*
X77253407Y-71704068D01*
X77246891Y-71697552D01*
X77253407Y-71691036D01*
X77259924Y-71697552D01*
G37*
G36*
X77220827Y-72179748D02*
G01*
X77214310Y-72186264D01*
X77207794Y-72179748D01*
X77214310Y-72173232D01*
X77220827Y-72179748D01*
G37*
G36*
X77207794Y-71567229D02*
G01*
X77201278Y-71573745D01*
X77194762Y-71567229D01*
X77201278Y-71560713D01*
X77207794Y-71567229D01*
G37*
G36*
X77181730Y-71528132D02*
G01*
X77175214Y-71534648D01*
X77168697Y-71528132D01*
X77175214Y-71521616D01*
X77181730Y-71528132D01*
G37*
G36*
X77168697Y-71502067D02*
G01*
X77162181Y-71508583D01*
X77155665Y-71502067D01*
X77162181Y-71495551D01*
X77168697Y-71502067D01*
G37*
G36*
X76725598Y-71840908D02*
G01*
X76719082Y-71847424D01*
X76712566Y-71840908D01*
X76719082Y-71834392D01*
X76725598Y-71840908D01*
G37*
G36*
X76458241Y-73623485D02*
G01*
X76456080Y-73626827D01*
X76439014Y-73647812D01*
X76428072Y-73652445D01*
X76427656Y-73651901D01*
X76432304Y-73637991D01*
X76450957Y-73616200D01*
X76481126Y-73587239D01*
X76458241Y-73623485D01*
G37*
G36*
X76451762Y-73544387D02*
G01*
X76441257Y-73558426D01*
X76419339Y-73580723D01*
X76415062Y-73584684D01*
X76394941Y-73601434D01*
X76386758Y-73604815D01*
X76386915Y-73604027D01*
X76397420Y-73589988D01*
X76419339Y-73567691D01*
X76423615Y-73563729D01*
X76443737Y-73546979D01*
X76451920Y-73543599D01*
X76451762Y-73544387D01*
G37*
G36*
X76327838Y-73515526D02*
G01*
X76308564Y-73535110D01*
X76290639Y-73549535D01*
X76282499Y-73552182D01*
X76289290Y-73541661D01*
X76308564Y-73522078D01*
X76326489Y-73507652D01*
X76334629Y-73505005D01*
X76327838Y-73515526D01*
G37*
G36*
X76183857Y-73673900D02*
G01*
X76187743Y-73679823D01*
X76183133Y-73682405D01*
X76162765Y-73680852D01*
X76156733Y-73676161D01*
X76170639Y-73672978D01*
X76183857Y-73673900D01*
G37*
G36*
X76184482Y-73750108D02*
G01*
X76165208Y-73769692D01*
X76147283Y-73784117D01*
X76139144Y-73786764D01*
X76145934Y-73776243D01*
X76165208Y-73756659D01*
X76183134Y-73742234D01*
X76191273Y-73739587D01*
X76184482Y-73750108D01*
G37*
G36*
X76139144Y-73678465D02*
G01*
X76132628Y-73684982D01*
X76126111Y-73678465D01*
X76132628Y-73671949D01*
X76139144Y-73678465D01*
G37*
G36*
X76072855Y-73780629D02*
G01*
X76086264Y-73784502D01*
X76074883Y-73795200D01*
X76071019Y-73796911D01*
X76055907Y-73791625D01*
X76054969Y-73786303D01*
X76068039Y-73780552D01*
X76072855Y-73780629D01*
G37*
%TD*%
M02*
