%TF.GenerationSoftware,KiCad,Pcbnew,9.0.5*%
%TF.CreationDate,2025-11-06T16:03:36+09:00*%
%TF.ProjectId,________1,d6ecc3c9-dcfc-4c95-9f31-2e6b69636164,rev?*%
%TF.SameCoordinates,Original*%
%TF.FileFunction,Legend,Top*%
%TF.FilePolarity,Positive*%
%FSLAX46Y46*%
G04 Gerber Fmt 4.6, Leading zero omitted, Abs format (unit mm)*
G04 Created by KiCad (PCBNEW 9.0.5) date 2025-11-06 16:03:36*
%MOMM*%
%LPD*%
G01*
G04 APERTURE LIST*
%ADD10C,0.400000*%
%ADD11C,0.200000*%
%ADD12C,0.100000*%
%ADD13C,0.120000*%
G04 APERTURE END LIST*
D10*
X175666728Y-86234200D02*
X180238157Y-86234200D01*
X179095299Y-87377057D02*
X180238157Y-86234200D01*
X180238157Y-86234200D02*
X179095299Y-85091342D01*
D11*
X157692292Y-88377457D02*
X158406578Y-88377457D01*
X157549435Y-88806028D02*
X158049435Y-87306028D01*
X158049435Y-87306028D02*
X158549435Y-88806028D01*
X158978006Y-88734600D02*
X159192292Y-88806028D01*
X159192292Y-88806028D02*
X159549434Y-88806028D01*
X159549434Y-88806028D02*
X159692292Y-88734600D01*
X159692292Y-88734600D02*
X159763720Y-88663171D01*
X159763720Y-88663171D02*
X159835149Y-88520314D01*
X159835149Y-88520314D02*
X159835149Y-88377457D01*
X159835149Y-88377457D02*
X159763720Y-88234600D01*
X159763720Y-88234600D02*
X159692292Y-88163171D01*
X159692292Y-88163171D02*
X159549434Y-88091742D01*
X159549434Y-88091742D02*
X159263720Y-88020314D01*
X159263720Y-88020314D02*
X159120863Y-87948885D01*
X159120863Y-87948885D02*
X159049434Y-87877457D01*
X159049434Y-87877457D02*
X158978006Y-87734600D01*
X158978006Y-87734600D02*
X158978006Y-87591742D01*
X158978006Y-87591742D02*
X159049434Y-87448885D01*
X159049434Y-87448885D02*
X159120863Y-87377457D01*
X159120863Y-87377457D02*
X159263720Y-87306028D01*
X159263720Y-87306028D02*
X159620863Y-87306028D01*
X159620863Y-87306028D02*
X159835149Y-87377457D01*
X161192291Y-87306028D02*
X160478005Y-87306028D01*
X160478005Y-87306028D02*
X160406577Y-88020314D01*
X160406577Y-88020314D02*
X160478005Y-87948885D01*
X160478005Y-87948885D02*
X160620863Y-87877457D01*
X160620863Y-87877457D02*
X160978005Y-87877457D01*
X160978005Y-87877457D02*
X161120863Y-87948885D01*
X161120863Y-87948885D02*
X161192291Y-88020314D01*
X161192291Y-88020314D02*
X161263720Y-88163171D01*
X161263720Y-88163171D02*
X161263720Y-88520314D01*
X161263720Y-88520314D02*
X161192291Y-88663171D01*
X161192291Y-88663171D02*
X161120863Y-88734600D01*
X161120863Y-88734600D02*
X160978005Y-88806028D01*
X160978005Y-88806028D02*
X160620863Y-88806028D01*
X160620863Y-88806028D02*
X160478005Y-88734600D01*
X160478005Y-88734600D02*
X160406577Y-88663171D01*
X162549434Y-87306028D02*
X162263719Y-87306028D01*
X162263719Y-87306028D02*
X162120862Y-87377457D01*
X162120862Y-87377457D02*
X162049434Y-87448885D01*
X162049434Y-87448885D02*
X161906576Y-87663171D01*
X161906576Y-87663171D02*
X161835148Y-87948885D01*
X161835148Y-87948885D02*
X161835148Y-88520314D01*
X161835148Y-88520314D02*
X161906576Y-88663171D01*
X161906576Y-88663171D02*
X161978005Y-88734600D01*
X161978005Y-88734600D02*
X162120862Y-88806028D01*
X162120862Y-88806028D02*
X162406576Y-88806028D01*
X162406576Y-88806028D02*
X162549434Y-88734600D01*
X162549434Y-88734600D02*
X162620862Y-88663171D01*
X162620862Y-88663171D02*
X162692291Y-88520314D01*
X162692291Y-88520314D02*
X162692291Y-88163171D01*
X162692291Y-88163171D02*
X162620862Y-88020314D01*
X162620862Y-88020314D02*
X162549434Y-87948885D01*
X162549434Y-87948885D02*
X162406576Y-87877457D01*
X162406576Y-87877457D02*
X162120862Y-87877457D01*
X162120862Y-87877457D02*
X161978005Y-87948885D01*
X161978005Y-87948885D02*
X161906576Y-88020314D01*
X161906576Y-88020314D02*
X161835148Y-88163171D01*
X163620862Y-87306028D02*
X163763719Y-87306028D01*
X163763719Y-87306028D02*
X163906576Y-87377457D01*
X163906576Y-87377457D02*
X163978005Y-87448885D01*
X163978005Y-87448885D02*
X164049433Y-87591742D01*
X164049433Y-87591742D02*
X164120862Y-87877457D01*
X164120862Y-87877457D02*
X164120862Y-88234600D01*
X164120862Y-88234600D02*
X164049433Y-88520314D01*
X164049433Y-88520314D02*
X163978005Y-88663171D01*
X163978005Y-88663171D02*
X163906576Y-88734600D01*
X163906576Y-88734600D02*
X163763719Y-88806028D01*
X163763719Y-88806028D02*
X163620862Y-88806028D01*
X163620862Y-88806028D02*
X163478005Y-88734600D01*
X163478005Y-88734600D02*
X163406576Y-88663171D01*
X163406576Y-88663171D02*
X163335147Y-88520314D01*
X163335147Y-88520314D02*
X163263719Y-88234600D01*
X163263719Y-88234600D02*
X163263719Y-87877457D01*
X163263719Y-87877457D02*
X163335147Y-87591742D01*
X163335147Y-87591742D02*
X163406576Y-87448885D01*
X163406576Y-87448885D02*
X163478005Y-87377457D01*
X163478005Y-87377457D02*
X163620862Y-87306028D01*
X165049433Y-87306028D02*
X165192290Y-87306028D01*
X165192290Y-87306028D02*
X165335147Y-87377457D01*
X165335147Y-87377457D02*
X165406576Y-87448885D01*
X165406576Y-87448885D02*
X165478004Y-87591742D01*
X165478004Y-87591742D02*
X165549433Y-87877457D01*
X165549433Y-87877457D02*
X165549433Y-88234600D01*
X165549433Y-88234600D02*
X165478004Y-88520314D01*
X165478004Y-88520314D02*
X165406576Y-88663171D01*
X165406576Y-88663171D02*
X165335147Y-88734600D01*
X165335147Y-88734600D02*
X165192290Y-88806028D01*
X165192290Y-88806028D02*
X165049433Y-88806028D01*
X165049433Y-88806028D02*
X164906576Y-88734600D01*
X164906576Y-88734600D02*
X164835147Y-88663171D01*
X164835147Y-88663171D02*
X164763718Y-88520314D01*
X164763718Y-88520314D02*
X164692290Y-88234600D01*
X164692290Y-88234600D02*
X164692290Y-87877457D01*
X164692290Y-87877457D02*
X164763718Y-87591742D01*
X164763718Y-87591742D02*
X164835147Y-87448885D01*
X164835147Y-87448885D02*
X164906576Y-87377457D01*
X164906576Y-87377457D02*
X165049433Y-87306028D01*
X165835147Y-88948885D02*
X166978004Y-88948885D01*
X167263718Y-88377457D02*
X167978004Y-88377457D01*
X167120861Y-88806028D02*
X167620861Y-87306028D01*
X167620861Y-87306028D02*
X168120861Y-88806028D01*
X168835146Y-88806028D02*
X168692289Y-88734600D01*
X168692289Y-88734600D02*
X168620860Y-88663171D01*
X168620860Y-88663171D02*
X168549432Y-88520314D01*
X168549432Y-88520314D02*
X168549432Y-88091742D01*
X168549432Y-88091742D02*
X168620860Y-87948885D01*
X168620860Y-87948885D02*
X168692289Y-87877457D01*
X168692289Y-87877457D02*
X168835146Y-87806028D01*
X168835146Y-87806028D02*
X169049432Y-87806028D01*
X169049432Y-87806028D02*
X169192289Y-87877457D01*
X169192289Y-87877457D02*
X169263718Y-87948885D01*
X169263718Y-87948885D02*
X169335146Y-88091742D01*
X169335146Y-88091742D02*
X169335146Y-88520314D01*
X169335146Y-88520314D02*
X169263718Y-88663171D01*
X169263718Y-88663171D02*
X169192289Y-88734600D01*
X169192289Y-88734600D02*
X169049432Y-88806028D01*
X169049432Y-88806028D02*
X168835146Y-88806028D01*
X169906575Y-88734600D02*
X170120861Y-88806028D01*
X170120861Y-88806028D02*
X170478003Y-88806028D01*
X170478003Y-88806028D02*
X170620861Y-88734600D01*
X170620861Y-88734600D02*
X170692289Y-88663171D01*
X170692289Y-88663171D02*
X170763718Y-88520314D01*
X170763718Y-88520314D02*
X170763718Y-88377457D01*
X170763718Y-88377457D02*
X170692289Y-88234600D01*
X170692289Y-88234600D02*
X170620861Y-88163171D01*
X170620861Y-88163171D02*
X170478003Y-88091742D01*
X170478003Y-88091742D02*
X170192289Y-88020314D01*
X170192289Y-88020314D02*
X170049432Y-87948885D01*
X170049432Y-87948885D02*
X169978003Y-87877457D01*
X169978003Y-87877457D02*
X169906575Y-87734600D01*
X169906575Y-87734600D02*
X169906575Y-87591742D01*
X169906575Y-87591742D02*
X169978003Y-87448885D01*
X169978003Y-87448885D02*
X170049432Y-87377457D01*
X170049432Y-87377457D02*
X170192289Y-87306028D01*
X170192289Y-87306028D02*
X170549432Y-87306028D01*
X170549432Y-87306028D02*
X170763718Y-87377457D01*
X140467292Y-99659600D02*
X140681578Y-99731028D01*
X140681578Y-99731028D02*
X141038720Y-99731028D01*
X141038720Y-99731028D02*
X141181578Y-99659600D01*
X141181578Y-99659600D02*
X141253006Y-99588171D01*
X141253006Y-99588171D02*
X141324435Y-99445314D01*
X141324435Y-99445314D02*
X141324435Y-99302457D01*
X141324435Y-99302457D02*
X141253006Y-99159600D01*
X141253006Y-99159600D02*
X141181578Y-99088171D01*
X141181578Y-99088171D02*
X141038720Y-99016742D01*
X141038720Y-99016742D02*
X140753006Y-98945314D01*
X140753006Y-98945314D02*
X140610149Y-98873885D01*
X140610149Y-98873885D02*
X140538720Y-98802457D01*
X140538720Y-98802457D02*
X140467292Y-98659600D01*
X140467292Y-98659600D02*
X140467292Y-98516742D01*
X140467292Y-98516742D02*
X140538720Y-98373885D01*
X140538720Y-98373885D02*
X140610149Y-98302457D01*
X140610149Y-98302457D02*
X140753006Y-98231028D01*
X140753006Y-98231028D02*
X141110149Y-98231028D01*
X141110149Y-98231028D02*
X141324435Y-98302457D01*
X141967291Y-99731028D02*
X141967291Y-98231028D01*
X141967291Y-98231028D02*
X142324434Y-98231028D01*
X142324434Y-98231028D02*
X142538720Y-98302457D01*
X142538720Y-98302457D02*
X142681577Y-98445314D01*
X142681577Y-98445314D02*
X142753006Y-98588171D01*
X142753006Y-98588171D02*
X142824434Y-98873885D01*
X142824434Y-98873885D02*
X142824434Y-99088171D01*
X142824434Y-99088171D02*
X142753006Y-99373885D01*
X142753006Y-99373885D02*
X142681577Y-99516742D01*
X142681577Y-99516742D02*
X142538720Y-99659600D01*
X142538720Y-99659600D02*
X142324434Y-99731028D01*
X142324434Y-99731028D02*
X141967291Y-99731028D01*
X143110149Y-99873885D02*
X144253006Y-99873885D01*
X145467291Y-99588171D02*
X145395863Y-99659600D01*
X145395863Y-99659600D02*
X145181577Y-99731028D01*
X145181577Y-99731028D02*
X145038720Y-99731028D01*
X145038720Y-99731028D02*
X144824434Y-99659600D01*
X144824434Y-99659600D02*
X144681577Y-99516742D01*
X144681577Y-99516742D02*
X144610148Y-99373885D01*
X144610148Y-99373885D02*
X144538720Y-99088171D01*
X144538720Y-99088171D02*
X144538720Y-98873885D01*
X144538720Y-98873885D02*
X144610148Y-98588171D01*
X144610148Y-98588171D02*
X144681577Y-98445314D01*
X144681577Y-98445314D02*
X144824434Y-98302457D01*
X144824434Y-98302457D02*
X145038720Y-98231028D01*
X145038720Y-98231028D02*
X145181577Y-98231028D01*
X145181577Y-98231028D02*
X145395863Y-98302457D01*
X145395863Y-98302457D02*
X145467291Y-98373885D01*
X146753006Y-99731028D02*
X146753006Y-98945314D01*
X146753006Y-98945314D02*
X146681577Y-98802457D01*
X146681577Y-98802457D02*
X146538720Y-98731028D01*
X146538720Y-98731028D02*
X146253006Y-98731028D01*
X146253006Y-98731028D02*
X146110148Y-98802457D01*
X146753006Y-99659600D02*
X146610148Y-99731028D01*
X146610148Y-99731028D02*
X146253006Y-99731028D01*
X146253006Y-99731028D02*
X146110148Y-99659600D01*
X146110148Y-99659600D02*
X146038720Y-99516742D01*
X146038720Y-99516742D02*
X146038720Y-99373885D01*
X146038720Y-99373885D02*
X146110148Y-99231028D01*
X146110148Y-99231028D02*
X146253006Y-99159600D01*
X146253006Y-99159600D02*
X146610148Y-99159600D01*
X146610148Y-99159600D02*
X146753006Y-99088171D01*
X147467291Y-99731028D02*
X147467291Y-98731028D01*
X147467291Y-99016742D02*
X147538720Y-98873885D01*
X147538720Y-98873885D02*
X147610149Y-98802457D01*
X147610149Y-98802457D02*
X147753006Y-98731028D01*
X147753006Y-98731028D02*
X147895863Y-98731028D01*
X149038720Y-99731028D02*
X149038720Y-98231028D01*
X149038720Y-99659600D02*
X148895862Y-99731028D01*
X148895862Y-99731028D02*
X148610148Y-99731028D01*
X148610148Y-99731028D02*
X148467291Y-99659600D01*
X148467291Y-99659600D02*
X148395862Y-99588171D01*
X148395862Y-99588171D02*
X148324434Y-99445314D01*
X148324434Y-99445314D02*
X148324434Y-99016742D01*
X148324434Y-99016742D02*
X148395862Y-98873885D01*
X148395862Y-98873885D02*
X148467291Y-98802457D01*
X148467291Y-98802457D02*
X148610148Y-98731028D01*
X148610148Y-98731028D02*
X148895862Y-98731028D01*
X148895862Y-98731028D02*
X149038720Y-98802457D01*
X149395863Y-99873885D02*
X150538720Y-99873885D01*
X151681577Y-99731028D02*
X150824434Y-99731028D01*
X151253005Y-99731028D02*
X151253005Y-98231028D01*
X151253005Y-98231028D02*
X151110148Y-98445314D01*
X151110148Y-98445314D02*
X150967291Y-98588171D01*
X150967291Y-98588171D02*
X150824434Y-98659600D01*
X139917292Y-89877457D02*
X140631578Y-89877457D01*
X139774435Y-90306028D02*
X140274435Y-88806028D01*
X140274435Y-88806028D02*
X140774435Y-90306028D01*
X141203006Y-90234600D02*
X141417292Y-90306028D01*
X141417292Y-90306028D02*
X141774434Y-90306028D01*
X141774434Y-90306028D02*
X141917292Y-90234600D01*
X141917292Y-90234600D02*
X141988720Y-90163171D01*
X141988720Y-90163171D02*
X142060149Y-90020314D01*
X142060149Y-90020314D02*
X142060149Y-89877457D01*
X142060149Y-89877457D02*
X141988720Y-89734600D01*
X141988720Y-89734600D02*
X141917292Y-89663171D01*
X141917292Y-89663171D02*
X141774434Y-89591742D01*
X141774434Y-89591742D02*
X141488720Y-89520314D01*
X141488720Y-89520314D02*
X141345863Y-89448885D01*
X141345863Y-89448885D02*
X141274434Y-89377457D01*
X141274434Y-89377457D02*
X141203006Y-89234600D01*
X141203006Y-89234600D02*
X141203006Y-89091742D01*
X141203006Y-89091742D02*
X141274434Y-88948885D01*
X141274434Y-88948885D02*
X141345863Y-88877457D01*
X141345863Y-88877457D02*
X141488720Y-88806028D01*
X141488720Y-88806028D02*
X141845863Y-88806028D01*
X141845863Y-88806028D02*
X142060149Y-88877457D01*
X143417291Y-88806028D02*
X142703005Y-88806028D01*
X142703005Y-88806028D02*
X142631577Y-89520314D01*
X142631577Y-89520314D02*
X142703005Y-89448885D01*
X142703005Y-89448885D02*
X142845863Y-89377457D01*
X142845863Y-89377457D02*
X143203005Y-89377457D01*
X143203005Y-89377457D02*
X143345863Y-89448885D01*
X143345863Y-89448885D02*
X143417291Y-89520314D01*
X143417291Y-89520314D02*
X143488720Y-89663171D01*
X143488720Y-89663171D02*
X143488720Y-90020314D01*
X143488720Y-90020314D02*
X143417291Y-90163171D01*
X143417291Y-90163171D02*
X143345863Y-90234600D01*
X143345863Y-90234600D02*
X143203005Y-90306028D01*
X143203005Y-90306028D02*
X142845863Y-90306028D01*
X142845863Y-90306028D02*
X142703005Y-90234600D01*
X142703005Y-90234600D02*
X142631577Y-90163171D01*
X144774434Y-88806028D02*
X144488719Y-88806028D01*
X144488719Y-88806028D02*
X144345862Y-88877457D01*
X144345862Y-88877457D02*
X144274434Y-88948885D01*
X144274434Y-88948885D02*
X144131576Y-89163171D01*
X144131576Y-89163171D02*
X144060148Y-89448885D01*
X144060148Y-89448885D02*
X144060148Y-90020314D01*
X144060148Y-90020314D02*
X144131576Y-90163171D01*
X144131576Y-90163171D02*
X144203005Y-90234600D01*
X144203005Y-90234600D02*
X144345862Y-90306028D01*
X144345862Y-90306028D02*
X144631576Y-90306028D01*
X144631576Y-90306028D02*
X144774434Y-90234600D01*
X144774434Y-90234600D02*
X144845862Y-90163171D01*
X144845862Y-90163171D02*
X144917291Y-90020314D01*
X144917291Y-90020314D02*
X144917291Y-89663171D01*
X144917291Y-89663171D02*
X144845862Y-89520314D01*
X144845862Y-89520314D02*
X144774434Y-89448885D01*
X144774434Y-89448885D02*
X144631576Y-89377457D01*
X144631576Y-89377457D02*
X144345862Y-89377457D01*
X144345862Y-89377457D02*
X144203005Y-89448885D01*
X144203005Y-89448885D02*
X144131576Y-89520314D01*
X144131576Y-89520314D02*
X144060148Y-89663171D01*
X145845862Y-88806028D02*
X145988719Y-88806028D01*
X145988719Y-88806028D02*
X146131576Y-88877457D01*
X146131576Y-88877457D02*
X146203005Y-88948885D01*
X146203005Y-88948885D02*
X146274433Y-89091742D01*
X146274433Y-89091742D02*
X146345862Y-89377457D01*
X146345862Y-89377457D02*
X146345862Y-89734600D01*
X146345862Y-89734600D02*
X146274433Y-90020314D01*
X146274433Y-90020314D02*
X146203005Y-90163171D01*
X146203005Y-90163171D02*
X146131576Y-90234600D01*
X146131576Y-90234600D02*
X145988719Y-90306028D01*
X145988719Y-90306028D02*
X145845862Y-90306028D01*
X145845862Y-90306028D02*
X145703005Y-90234600D01*
X145703005Y-90234600D02*
X145631576Y-90163171D01*
X145631576Y-90163171D02*
X145560147Y-90020314D01*
X145560147Y-90020314D02*
X145488719Y-89734600D01*
X145488719Y-89734600D02*
X145488719Y-89377457D01*
X145488719Y-89377457D02*
X145560147Y-89091742D01*
X145560147Y-89091742D02*
X145631576Y-88948885D01*
X145631576Y-88948885D02*
X145703005Y-88877457D01*
X145703005Y-88877457D02*
X145845862Y-88806028D01*
X147274433Y-88806028D02*
X147417290Y-88806028D01*
X147417290Y-88806028D02*
X147560147Y-88877457D01*
X147560147Y-88877457D02*
X147631576Y-88948885D01*
X147631576Y-88948885D02*
X147703004Y-89091742D01*
X147703004Y-89091742D02*
X147774433Y-89377457D01*
X147774433Y-89377457D02*
X147774433Y-89734600D01*
X147774433Y-89734600D02*
X147703004Y-90020314D01*
X147703004Y-90020314D02*
X147631576Y-90163171D01*
X147631576Y-90163171D02*
X147560147Y-90234600D01*
X147560147Y-90234600D02*
X147417290Y-90306028D01*
X147417290Y-90306028D02*
X147274433Y-90306028D01*
X147274433Y-90306028D02*
X147131576Y-90234600D01*
X147131576Y-90234600D02*
X147060147Y-90163171D01*
X147060147Y-90163171D02*
X146988718Y-90020314D01*
X146988718Y-90020314D02*
X146917290Y-89734600D01*
X146917290Y-89734600D02*
X146917290Y-89377457D01*
X146917290Y-89377457D02*
X146988718Y-89091742D01*
X146988718Y-89091742D02*
X147060147Y-88948885D01*
X147060147Y-88948885D02*
X147131576Y-88877457D01*
X147131576Y-88877457D02*
X147274433Y-88806028D01*
X148060147Y-90448885D02*
X149203004Y-90448885D01*
X149488718Y-89877457D02*
X150203004Y-89877457D01*
X149345861Y-90306028D02*
X149845861Y-88806028D01*
X149845861Y-88806028D02*
X150345861Y-90306028D01*
X151060146Y-90306028D02*
X150917289Y-90234600D01*
X150917289Y-90234600D02*
X150845860Y-90163171D01*
X150845860Y-90163171D02*
X150774432Y-90020314D01*
X150774432Y-90020314D02*
X150774432Y-89591742D01*
X150774432Y-89591742D02*
X150845860Y-89448885D01*
X150845860Y-89448885D02*
X150917289Y-89377457D01*
X150917289Y-89377457D02*
X151060146Y-89306028D01*
X151060146Y-89306028D02*
X151274432Y-89306028D01*
X151274432Y-89306028D02*
X151417289Y-89377457D01*
X151417289Y-89377457D02*
X151488718Y-89448885D01*
X151488718Y-89448885D02*
X151560146Y-89591742D01*
X151560146Y-89591742D02*
X151560146Y-90020314D01*
X151560146Y-90020314D02*
X151488718Y-90163171D01*
X151488718Y-90163171D02*
X151417289Y-90234600D01*
X151417289Y-90234600D02*
X151274432Y-90306028D01*
X151274432Y-90306028D02*
X151060146Y-90306028D01*
X152131575Y-89877457D02*
X152845861Y-89877457D01*
X151988718Y-90306028D02*
X152488718Y-88806028D01*
X152488718Y-88806028D02*
X152988718Y-90306028D01*
X131134600Y-102582707D02*
X131206028Y-102368422D01*
X131206028Y-102368422D02*
X131206028Y-102011279D01*
X131206028Y-102011279D02*
X131134600Y-101868422D01*
X131134600Y-101868422D02*
X131063171Y-101796993D01*
X131063171Y-101796993D02*
X130920314Y-101725564D01*
X130920314Y-101725564D02*
X130777457Y-101725564D01*
X130777457Y-101725564D02*
X130634600Y-101796993D01*
X130634600Y-101796993D02*
X130563171Y-101868422D01*
X130563171Y-101868422D02*
X130491742Y-102011279D01*
X130491742Y-102011279D02*
X130420314Y-102296993D01*
X130420314Y-102296993D02*
X130348885Y-102439850D01*
X130348885Y-102439850D02*
X130277457Y-102511279D01*
X130277457Y-102511279D02*
X130134600Y-102582707D01*
X130134600Y-102582707D02*
X129991742Y-102582707D01*
X129991742Y-102582707D02*
X129848885Y-102511279D01*
X129848885Y-102511279D02*
X129777457Y-102439850D01*
X129777457Y-102439850D02*
X129706028Y-102296993D01*
X129706028Y-102296993D02*
X129706028Y-101939850D01*
X129706028Y-101939850D02*
X129777457Y-101725564D01*
X131206028Y-101082708D02*
X129706028Y-101082708D01*
X129706028Y-101082708D02*
X129706028Y-100725565D01*
X129706028Y-100725565D02*
X129777457Y-100511279D01*
X129777457Y-100511279D02*
X129920314Y-100368422D01*
X129920314Y-100368422D02*
X130063171Y-100296993D01*
X130063171Y-100296993D02*
X130348885Y-100225565D01*
X130348885Y-100225565D02*
X130563171Y-100225565D01*
X130563171Y-100225565D02*
X130848885Y-100296993D01*
X130848885Y-100296993D02*
X130991742Y-100368422D01*
X130991742Y-100368422D02*
X131134600Y-100511279D01*
X131134600Y-100511279D02*
X131206028Y-100725565D01*
X131206028Y-100725565D02*
X131206028Y-101082708D01*
X131206028Y-99582708D02*
X129706028Y-99582708D01*
X129706028Y-99582708D02*
X129706028Y-99011279D01*
X129706028Y-99011279D02*
X129777457Y-98868422D01*
X129777457Y-98868422D02*
X129848885Y-98796993D01*
X129848885Y-98796993D02*
X129991742Y-98725565D01*
X129991742Y-98725565D02*
X130206028Y-98725565D01*
X130206028Y-98725565D02*
X130348885Y-98796993D01*
X130348885Y-98796993D02*
X130420314Y-98868422D01*
X130420314Y-98868422D02*
X130491742Y-99011279D01*
X130491742Y-99011279D02*
X130491742Y-99582708D01*
X129706028Y-98225565D02*
X129706028Y-97296993D01*
X129706028Y-97296993D02*
X130277457Y-97796993D01*
X130277457Y-97796993D02*
X130277457Y-97582708D01*
X130277457Y-97582708D02*
X130348885Y-97439851D01*
X130348885Y-97439851D02*
X130420314Y-97368422D01*
X130420314Y-97368422D02*
X130563171Y-97296993D01*
X130563171Y-97296993D02*
X130920314Y-97296993D01*
X130920314Y-97296993D02*
X131063171Y-97368422D01*
X131063171Y-97368422D02*
X131134600Y-97439851D01*
X131134600Y-97439851D02*
X131206028Y-97582708D01*
X131206028Y-97582708D02*
X131206028Y-98011279D01*
X131206028Y-98011279D02*
X131134600Y-98154136D01*
X131134600Y-98154136D02*
X131063171Y-98225565D01*
X131206028Y-95868422D02*
X131206028Y-96725565D01*
X131206028Y-96296994D02*
X129706028Y-96296994D01*
X129706028Y-96296994D02*
X129920314Y-96439851D01*
X129920314Y-96439851D02*
X130063171Y-96582708D01*
X130063171Y-96582708D02*
X130134600Y-96725565D01*
X130634600Y-95225566D02*
X130634600Y-94082709D01*
X129706028Y-92654137D02*
X129706028Y-93368423D01*
X129706028Y-93368423D02*
X130420314Y-93439851D01*
X130420314Y-93439851D02*
X130348885Y-93368423D01*
X130348885Y-93368423D02*
X130277457Y-93225566D01*
X130277457Y-93225566D02*
X130277457Y-92868423D01*
X130277457Y-92868423D02*
X130348885Y-92725566D01*
X130348885Y-92725566D02*
X130420314Y-92654137D01*
X130420314Y-92654137D02*
X130563171Y-92582708D01*
X130563171Y-92582708D02*
X130920314Y-92582708D01*
X130920314Y-92582708D02*
X131063171Y-92654137D01*
X131063171Y-92654137D02*
X131134600Y-92725566D01*
X131134600Y-92725566D02*
X131206028Y-92868423D01*
X131206028Y-92868423D02*
X131206028Y-93225566D01*
X131206028Y-93225566D02*
X131134600Y-93368423D01*
X131134600Y-93368423D02*
X131063171Y-93439851D01*
X129706028Y-91654137D02*
X129706028Y-91511280D01*
X129706028Y-91511280D02*
X129777457Y-91368423D01*
X129777457Y-91368423D02*
X129848885Y-91296995D01*
X129848885Y-91296995D02*
X129991742Y-91225566D01*
X129991742Y-91225566D02*
X130277457Y-91154137D01*
X130277457Y-91154137D02*
X130634600Y-91154137D01*
X130634600Y-91154137D02*
X130920314Y-91225566D01*
X130920314Y-91225566D02*
X131063171Y-91296995D01*
X131063171Y-91296995D02*
X131134600Y-91368423D01*
X131134600Y-91368423D02*
X131206028Y-91511280D01*
X131206028Y-91511280D02*
X131206028Y-91654137D01*
X131206028Y-91654137D02*
X131134600Y-91796995D01*
X131134600Y-91796995D02*
X131063171Y-91868423D01*
X131063171Y-91868423D02*
X130920314Y-91939852D01*
X130920314Y-91939852D02*
X130634600Y-92011280D01*
X130634600Y-92011280D02*
X130277457Y-92011280D01*
X130277457Y-92011280D02*
X129991742Y-91939852D01*
X129991742Y-91939852D02*
X129848885Y-91868423D01*
X129848885Y-91868423D02*
X129777457Y-91796995D01*
X129777457Y-91796995D02*
X129706028Y-91654137D01*
X129706028Y-90225566D02*
X129706028Y-90082709D01*
X129706028Y-90082709D02*
X129777457Y-89939852D01*
X129777457Y-89939852D02*
X129848885Y-89868424D01*
X129848885Y-89868424D02*
X129991742Y-89796995D01*
X129991742Y-89796995D02*
X130277457Y-89725566D01*
X130277457Y-89725566D02*
X130634600Y-89725566D01*
X130634600Y-89725566D02*
X130920314Y-89796995D01*
X130920314Y-89796995D02*
X131063171Y-89868424D01*
X131063171Y-89868424D02*
X131134600Y-89939852D01*
X131134600Y-89939852D02*
X131206028Y-90082709D01*
X131206028Y-90082709D02*
X131206028Y-90225566D01*
X131206028Y-90225566D02*
X131134600Y-90368424D01*
X131134600Y-90368424D02*
X131063171Y-90439852D01*
X131063171Y-90439852D02*
X130920314Y-90511281D01*
X130920314Y-90511281D02*
X130634600Y-90582709D01*
X130634600Y-90582709D02*
X130277457Y-90582709D01*
X130277457Y-90582709D02*
X129991742Y-90511281D01*
X129991742Y-90511281D02*
X129848885Y-90439852D01*
X129848885Y-90439852D02*
X129777457Y-90368424D01*
X129777457Y-90368424D02*
X129706028Y-90225566D01*
D12*
X138175000Y-91490000D02*
X154575000Y-91490000D01*
X154575000Y-95710000D01*
X138175000Y-95710000D01*
X138175000Y-91490000D01*
X138435000Y-100305000D02*
X154695000Y-100305000D01*
X154695000Y-105945000D01*
X138435000Y-105945000D01*
X138435000Y-100305000D01*
X171945000Y-103180000D02*
X155545000Y-103180000D01*
X155545000Y-90240000D01*
X171945000Y-90240000D01*
X171945000Y-103180000D01*
X131760000Y-89355000D02*
X135980000Y-89355000D01*
X135980000Y-102885000D01*
X131760000Y-102885000D01*
X131760000Y-89355000D01*
D13*
%TO.C,J2*%
X138735000Y-91490000D02*
X140065000Y-91490000D01*
X138735000Y-92820000D02*
X138735000Y-91490000D01*
X141335000Y-91490000D02*
X154095000Y-91490000D01*
X141335000Y-94150000D02*
X141335000Y-91490000D01*
X141335000Y-94150000D02*
X154095000Y-94150000D01*
X154095000Y-94150000D02*
X154095000Y-91490000D01*
%TO.C,J1*%
X135980000Y-93580000D02*
X135980000Y-101260000D01*
X135980000Y-90980000D02*
X135980000Y-92310000D01*
X134650000Y-90980000D02*
X135980000Y-90980000D01*
X133320000Y-101260000D02*
X135980000Y-101260000D01*
X133320000Y-93580000D02*
X135980000Y-93580000D01*
X133320000Y-93580000D02*
X133320000Y-101260000D01*
%TO.C,J3*%
X154260000Y-105560000D02*
X154260000Y-102900000D01*
X141500000Y-105560000D02*
X154260000Y-105560000D01*
X141500000Y-105560000D02*
X141500000Y-102900000D01*
X141500000Y-102900000D02*
X154260000Y-102900000D01*
X138900000Y-104230000D02*
X138900000Y-102900000D01*
X138900000Y-102900000D02*
X140230000Y-102900000D01*
%TO.C,J5*%
X172920000Y-88500000D02*
X174190000Y-88500000D01*
X172920000Y-89770000D02*
X172920000Y-88500000D01*
X175267358Y-91880000D02*
X175652642Y-91880000D01*
X175267358Y-92740000D02*
X175652642Y-92740000D01*
X175267358Y-94420000D02*
X175652642Y-94420000D01*
X175267358Y-95280000D02*
X175652642Y-95280000D01*
X175267358Y-96960000D02*
X175652642Y-96960000D01*
X175267358Y-97820000D02*
X175652642Y-97820000D01*
X175267358Y-99500000D02*
X175652642Y-99500000D01*
X175267358Y-100360000D02*
X175652642Y-100360000D01*
X175267358Y-102040000D02*
X175652642Y-102040000D01*
X175267358Y-102900000D02*
X175652642Y-102900000D01*
X175350000Y-89340000D02*
X175652642Y-89340000D01*
X175350000Y-90200000D02*
X175652642Y-90200000D01*
X177807358Y-89340000D02*
X178120000Y-89340000D01*
X177807358Y-90200000D02*
X178120000Y-90200000D01*
X177807358Y-91880000D02*
X178120000Y-91880000D01*
X177807358Y-92740000D02*
X178120000Y-92740000D01*
X177807358Y-94420000D02*
X178120000Y-94420000D01*
X177807358Y-95280000D02*
X178120000Y-95280000D01*
X177807358Y-96960000D02*
X178120000Y-96960000D01*
X177807358Y-97820000D02*
X178120000Y-97820000D01*
X177807358Y-99500000D02*
X178120000Y-99500000D01*
X177807358Y-100360000D02*
X178120000Y-100360000D01*
X177807358Y-102040000D02*
X178120000Y-102040000D01*
X177807358Y-102900000D02*
X178120000Y-102900000D01*
X178120000Y-88390000D02*
X178120000Y-103850000D01*
%TO.C,J4*%
X171405000Y-102680000D02*
X170075000Y-102680000D01*
X171405000Y-101350000D02*
X171405000Y-102680000D01*
X168805000Y-102680000D02*
X156045000Y-102680000D01*
X168805000Y-100020000D02*
X168805000Y-102680000D01*
X168805000Y-100020000D02*
X156045000Y-100020000D01*
X156045000Y-100020000D02*
X156045000Y-102680000D01*
%TD*%
M02*
