%TF.GenerationSoftware,KiCad,Pcbnew,9.0.5*%
%TF.CreationDate,2025-11-06T16:03:36+09:00*%
%TF.ProjectId,________1,d6ecc3c9-dcfc-4c95-9f31-2e6b69636164,rev?*%
%TF.SameCoordinates,Original*%
%TF.FileFunction,Copper,L2,Bot*%
%TF.FilePolarity,Positive*%
%FSLAX46Y46*%
G04 Gerber Fmt 4.6, Leading zero omitted, Abs format (unit mm)*
G04 Created by KiCad (PCBNEW 9.0.5) date 2025-11-06 16:03:36*
%MOMM*%
%LPD*%
G01*
G04 APERTURE LIST*
%TA.AperFunction,ComponentPad*%
%ADD10R,1.700000X1.700000*%
%TD*%
%TA.AperFunction,ComponentPad*%
%ADD11C,1.700000*%
%TD*%
%TA.AperFunction,ViaPad*%
%ADD12C,0.450000*%
%TD*%
%TA.AperFunction,Conductor*%
%ADD13C,0.400000*%
%TD*%
%TA.AperFunction,Conductor*%
%ADD14C,0.300000*%
%TD*%
G04 APERTURE END LIST*
D10*
%TO.P,J2,1,Pin_1*%
%TO.N,/3V3_AS0*%
X140065000Y-92820000D03*
D11*
%TO.P,J2,2,Pin_2*%
X142605000Y-92820000D03*
%TO.P,J2,3,Pin_3*%
%TO.N,/DC_GND*%
X145145000Y-92820000D03*
%TO.P,J2,4,Pin_4*%
%TO.N,/SCL_AS1*%
X147685000Y-92820000D03*
%TO.P,J2,5,Pin_5*%
%TO.N,/SDA_AS1*%
X150225000Y-92820000D03*
%TO.P,J2,6,Pin_6*%
%TO.N,unconnected-(J2-Pin_6-Pad6)*%
X152765000Y-92820000D03*
%TD*%
%TO.P,J1,4,Pin_4*%
%TO.N,/DC_GND*%
X134650000Y-99930000D03*
%TO.P,J1,3,Pin_3*%
%TO.N,/SDA_AS1*%
X134650000Y-97390000D03*
%TO.P,J1,2,Pin_2*%
%TO.N,/3V3_AS0*%
X134650000Y-94850000D03*
D10*
%TO.P,J1,1,Pin_1*%
%TO.N,/SCL_AS1*%
X134650000Y-92310000D03*
%TD*%
D11*
%TO.P,J3,6,Pin_6*%
%TO.N,/MISO_SD1*%
X152930000Y-104230000D03*
%TO.P,J3,5,Pin_5*%
%TO.N,/3V3_AS0*%
X150390000Y-104230000D03*
%TO.P,J3,4,Pin_4*%
%TO.N,/CLK_SD1*%
X147850000Y-104230000D03*
%TO.P,J3,3,Pin_3*%
%TO.N,/DC_GND*%
X145310000Y-104230000D03*
%TO.P,J3,2,Pin_2*%
%TO.N,/MOSI_SD1*%
X142770000Y-104230000D03*
D10*
%TO.P,J3,1,Pin_1*%
%TO.N,/CS_SD1*%
X140230000Y-104230000D03*
%TD*%
%TO.P,J5,1,Pin_1*%
%TO.N,/SCL_AS1*%
X174190000Y-89770000D03*
D11*
%TO.P,J5,2,Pin_2*%
%TO.N,unconnected-(J5-Pin_2-Pad2)*%
X176730000Y-89770000D03*
%TO.P,J5,3,Pin_3*%
%TO.N,/SDA_AS1*%
X174190000Y-92310000D03*
%TO.P,J5,4,Pin_4*%
%TO.N,/DC_GND*%
X176730000Y-92310000D03*
%TO.P,J5,5,Pin_5*%
%TO.N,/CLK_SD1*%
X174190000Y-94850000D03*
%TO.P,J5,6,Pin_6*%
%TO.N,/MISO_SD1*%
X176730000Y-94850000D03*
%TO.P,J5,7,Pin_7*%
%TO.N,/MOSI_SD1*%
X174190000Y-97390000D03*
%TO.P,J5,8,Pin_8*%
%TO.N,unconnected-(J5-Pin_8-Pad8)*%
X176730000Y-97390000D03*
%TO.P,J5,9,Pin_9*%
%TO.N,/SCL_AS0*%
X174190000Y-99930000D03*
%TO.P,J5,10,Pin_10*%
%TO.N,/SDA_AS0*%
X176730000Y-99930000D03*
%TO.P,J5,11,Pin_11*%
%TO.N,/3V3_AS0*%
X174190000Y-102470000D03*
%TO.P,J5,12,Pin_12*%
%TO.N,/CS_SD1*%
X176730000Y-102470000D03*
%TD*%
D10*
%TO.P,J4,1,Pin_1*%
%TO.N,/3V3_AS0*%
X170075000Y-101350000D03*
D11*
%TO.P,J4,2,Pin_2*%
X167535000Y-101350000D03*
%TO.P,J4,3,Pin_3*%
%TO.N,/DC_GND*%
X164995000Y-101350000D03*
%TO.P,J4,4,Pin_4*%
%TO.N,/SCL_AS0*%
X162455000Y-101350000D03*
%TO.P,J4,5,Pin_5*%
%TO.N,/SDA_AS0*%
X159915000Y-101350000D03*
%TO.P,J4,6,Pin_6*%
%TO.N,unconnected-(J4-Pin_6-Pad6)*%
X157375000Y-101350000D03*
%TD*%
D12*
%TO.N,/DC_GND*%
X174800000Y-86300000D03*
X165300000Y-86225000D03*
X142725000Y-85925000D03*
X154225000Y-86350000D03*
X179675000Y-103725000D03*
X179700000Y-99425000D03*
X179750000Y-95350000D03*
X179725000Y-91100000D03*
X179675000Y-86475000D03*
X169575000Y-86200000D03*
X160925000Y-86250000D03*
X147925000Y-86075000D03*
X138575000Y-85800000D03*
X164375000Y-89075000D03*
X157300000Y-89050000D03*
X150600000Y-89050000D03*
X145525000Y-89650000D03*
X140600000Y-89575000D03*
X136375000Y-89600000D03*
X172750000Y-89025000D03*
X177900000Y-88700000D03*
X175675000Y-88750000D03*
X177775000Y-90950000D03*
X175425000Y-91175000D03*
X177750000Y-93750000D03*
X175482500Y-93557500D03*
X177550000Y-96125000D03*
X177775000Y-98700000D03*
X177825000Y-101250000D03*
X175450000Y-101250000D03*
X173200000Y-101175000D03*
X169525000Y-99225000D03*
X164475000Y-99225000D03*
X167110000Y-99235000D03*
X171700000Y-99250000D03*
X162325000Y-99950000D03*
X170925000Y-96850000D03*
X172650000Y-97975000D03*
X159750000Y-98550000D03*
X157500000Y-98425000D03*
X160350000Y-99975000D03*
X165475000Y-96775000D03*
X162400000Y-97850000D03*
X158675000Y-100575000D03*
X158975000Y-96850000D03*
X155775000Y-100150000D03*
X155950000Y-101850000D03*
X153975000Y-101925000D03*
X156600000Y-96925000D03*
X155275000Y-98175000D03*
X153725000Y-99725000D03*
X152200000Y-101275000D03*
X150450000Y-102800000D03*
X169625000Y-95475000D03*
X165500000Y-95475000D03*
X161175000Y-95475000D03*
X157550000Y-95550000D03*
X172975000Y-95500000D03*
X177000000Y-107050000D03*
X174825000Y-105525000D03*
X180100000Y-107100000D03*
X176425000Y-103875000D03*
X173225000Y-107100000D03*
X174325000Y-103875000D03*
X172850000Y-103225000D03*
X171775000Y-103750000D03*
X173525000Y-104650000D03*
X170900000Y-104700000D03*
X172575000Y-105500000D03*
X169850000Y-105575000D03*
X171725000Y-106400000D03*
X167475000Y-106425000D03*
X163850000Y-106450000D03*
X160625000Y-106425000D03*
X157075000Y-106450000D03*
X153400000Y-106350000D03*
X149350000Y-106375000D03*
X145675000Y-106375000D03*
X167225000Y-102725000D03*
X170100000Y-103125000D03*
X168625000Y-102250000D03*
X167425000Y-104850000D03*
X165800000Y-103550000D03*
X162650000Y-103550000D03*
X161075000Y-104700000D03*
X159400000Y-103500000D03*
X157925000Y-104875000D03*
X156500000Y-103500000D03*
X154250000Y-103500000D03*
X154250000Y-104775000D03*
X170075000Y-90475000D03*
X167850000Y-91000000D03*
X165400000Y-90425000D03*
X162925000Y-90950000D03*
X160900000Y-90450000D03*
X158475000Y-90975000D03*
X156250000Y-90500000D03*
X153925000Y-90975000D03*
X151800000Y-90475000D03*
X150175000Y-91375000D03*
X172775000Y-90625000D03*
X173325000Y-93561000D03*
X171425000Y-92325000D03*
X169625000Y-94150000D03*
X167700000Y-92375000D03*
X165550000Y-94150000D03*
X163475000Y-92325000D03*
X161175000Y-94100000D03*
X158700000Y-92325000D03*
X149875000Y-98850000D03*
X152475000Y-96250000D03*
X150500000Y-95650000D03*
X153900000Y-93850000D03*
X154250000Y-96525000D03*
X152125000Y-98675000D03*
X156800000Y-94075000D03*
X154250000Y-92375000D03*
X151500000Y-93500000D03*
X149925000Y-101175000D03*
X148575000Y-97500000D03*
X147650000Y-94600000D03*
X146525000Y-95400000D03*
X148675000Y-95175000D03*
X147575000Y-96425000D03*
X148925000Y-93550000D03*
X145525000Y-94425000D03*
X146550000Y-93700000D03*
X147675000Y-91400000D03*
X144925000Y-91150000D03*
X143750000Y-91750000D03*
X141450000Y-91725000D03*
X138925000Y-91250000D03*
X137900000Y-92100000D03*
X136725000Y-91300000D03*
X136025000Y-92425000D03*
X141475000Y-93700000D03*
X139725000Y-94550000D03*
X141550000Y-94500000D03*
X143420000Y-94545000D03*
X145145000Y-96625000D03*
X144375000Y-95550000D03*
X143600000Y-96575000D03*
X141395000Y-96570000D03*
X142470000Y-95495000D03*
X139825000Y-96650000D03*
X140450000Y-95425000D03*
X137775000Y-96550000D03*
X138825000Y-95425000D03*
X136975000Y-95325000D03*
X137875000Y-94525000D03*
X138725000Y-93675000D03*
X136100000Y-94550000D03*
X135975000Y-96625000D03*
X137000000Y-93650000D03*
X135325000Y-96100000D03*
X136175000Y-105475000D03*
X137725000Y-104150000D03*
X138875000Y-105400000D03*
X142725000Y-105675000D03*
X140625000Y-105675000D03*
X136200000Y-102800000D03*
X139300000Y-102500000D03*
X142525000Y-102475000D03*
X145145000Y-102425000D03*
X146950000Y-101150000D03*
X143925000Y-101000000D03*
X141000000Y-100975000D03*
X137550000Y-100850000D03*
X136200000Y-99930000D03*
X139300000Y-99350000D03*
X142525000Y-99375000D03*
X145550000Y-99350000D03*
X143900000Y-98225000D03*
X141075000Y-98150000D03*
X137650000Y-98225000D03*
X135650000Y-98550000D03*
X141650000Y-103225000D03*
X143925000Y-103325000D03*
X146675000Y-103400000D03*
X148275000Y-102800000D03*
X148325000Y-99500000D03*
X146975000Y-98100000D03*
X164175000Y-104825000D03*
X168960000Y-97385000D03*
%TO.N,/3V3_AS0*%
X145950000Y-96000000D03*
%TD*%
D13*
%TO.N,/DC_GND*%
X175482500Y-93557500D02*
X176730000Y-92310000D01*
X173325000Y-93561000D02*
X175479000Y-93561000D01*
D14*
X143420000Y-94545000D02*
X145145000Y-92820000D01*
X145145000Y-96625000D02*
X145145000Y-102425000D01*
X141395000Y-96570000D02*
X142470000Y-95495000D01*
X142470000Y-95495000D02*
X143420000Y-94545000D01*
X145145000Y-102425000D02*
X145145000Y-104065000D01*
X136200000Y-99930000D02*
X138035000Y-99930000D01*
X163569000Y-105431000D02*
X164175000Y-104825000D01*
X146511000Y-105431000D02*
X163569000Y-105431000D01*
X145310000Y-104230000D02*
X146511000Y-105431000D01*
D13*
X172814000Y-93561000D02*
X173325000Y-93561000D01*
X168990000Y-97385000D02*
X172814000Y-93561000D01*
X168960000Y-97385000D02*
X168990000Y-97385000D01*
X175479000Y-93561000D02*
X175482500Y-93557500D01*
%TO.N,/3V3_AS0*%
X149125000Y-99175000D02*
X149125000Y-102965000D01*
X145950000Y-96000000D02*
X149125000Y-99175000D01*
X149125000Y-102965000D02*
X150390000Y-104230000D01*
X166210000Y-102675000D02*
X167535000Y-101350000D01*
X151945000Y-102675000D02*
X166210000Y-102675000D01*
X150390000Y-104230000D02*
X151945000Y-102675000D01*
D14*
%TO.N,/SDA_AS0*%
X175391000Y-98591000D02*
X176730000Y-99930000D01*
X162674000Y-98591000D02*
X175391000Y-98591000D01*
X159915000Y-101350000D02*
X162674000Y-98591000D01*
%TO.N,/SCL_AS0*%
X162455000Y-101350000D02*
X163875000Y-99930000D01*
X163875000Y-99930000D02*
X174190000Y-99930000D01*
D13*
%TO.N,/3V3_AS0*%
X167535000Y-101350000D02*
X170075000Y-101350000D01*
X174185000Y-102475000D02*
X174190000Y-102470000D01*
X170075000Y-102050000D02*
X170500000Y-102475000D01*
X170500000Y-102475000D02*
X174185000Y-102475000D01*
X170075000Y-101350000D02*
X170075000Y-102050000D01*
D14*
%TO.N,/DC_GND*%
X145145000Y-104065000D02*
X145310000Y-104230000D01*
X145145000Y-92820000D02*
X145145000Y-96625000D01*
X138035000Y-99930000D02*
X141395000Y-96570000D01*
X134650000Y-99930000D02*
X136200000Y-99930000D01*
%TD*%
%TA.AperFunction,Conductor*%
%TO.N,/DC_GND*%
G36*
X180358691Y-84889407D02*
G01*
X180394655Y-84938907D01*
X180399500Y-84969500D01*
X180399500Y-107270500D01*
X180380593Y-107328691D01*
X180331093Y-107364655D01*
X180300500Y-107369500D01*
X129299500Y-107369500D01*
X129241309Y-107350593D01*
X129205345Y-107301093D01*
X129200500Y-107270500D01*
X129200500Y-103335130D01*
X139079500Y-103335130D01*
X139079500Y-105124860D01*
X139079501Y-105124863D01*
X139082414Y-105149990D01*
X139107756Y-105207385D01*
X139127794Y-105252765D01*
X139207235Y-105332206D01*
X139310009Y-105377585D01*
X139335135Y-105380500D01*
X141124864Y-105380499D01*
X141149991Y-105377585D01*
X141252765Y-105332206D01*
X141332206Y-105252765D01*
X141377585Y-105149991D01*
X141380500Y-105124865D01*
X141380499Y-104139450D01*
X141619500Y-104139450D01*
X141619500Y-104320549D01*
X141647828Y-104499406D01*
X141703788Y-104671637D01*
X141742806Y-104748215D01*
X141786004Y-104832994D01*
X141892447Y-104979501D01*
X142020499Y-105107553D01*
X142167006Y-105213996D01*
X142328361Y-105296211D01*
X142500591Y-105352171D01*
X142572136Y-105363502D01*
X142679451Y-105380500D01*
X142679454Y-105380500D01*
X142860549Y-105380500D01*
X142949977Y-105366335D01*
X143039409Y-105352171D01*
X143211639Y-105296211D01*
X143211642Y-105296209D01*
X143211646Y-105296208D01*
X143315608Y-105243235D01*
X143362527Y-105219329D01*
X143362530Y-105219328D01*
X143366166Y-105217474D01*
X143372994Y-105213996D01*
X143519501Y-105107553D01*
X143647553Y-104979501D01*
X143753996Y-104832994D01*
X143836211Y-104671639D01*
X143840962Y-104657018D01*
X143876924Y-104607517D01*
X143935115Y-104588608D01*
X143993306Y-104607514D01*
X144029271Y-104657013D01*
X144029272Y-104657015D01*
X144058904Y-104748215D01*
X144155376Y-104937553D01*
X144155380Y-104937559D01*
X144194728Y-104991716D01*
X144194729Y-104991716D01*
X144827037Y-104359407D01*
X144844075Y-104422993D01*
X144909901Y-104537007D01*
X145002993Y-104630099D01*
X145117007Y-104695925D01*
X145180589Y-104712962D01*
X144548282Y-105345269D01*
X144548282Y-105345270D01*
X144602440Y-105384619D01*
X144602446Y-105384623D01*
X144791784Y-105481095D01*
X144993878Y-105546759D01*
X145203750Y-105580000D01*
X145416250Y-105580000D01*
X145626121Y-105546759D01*
X145828215Y-105481095D01*
X146017556Y-105384620D01*
X146071716Y-105345270D01*
X145439408Y-104712962D01*
X145502993Y-104695925D01*
X145617007Y-104630099D01*
X145710099Y-104537007D01*
X145775925Y-104422993D01*
X145792962Y-104359408D01*
X146425270Y-104991716D01*
X146464620Y-104937556D01*
X146561096Y-104748213D01*
X146590727Y-104657016D01*
X146626690Y-104607516D01*
X146684881Y-104588608D01*
X146743072Y-104607515D01*
X146779036Y-104657013D01*
X146783788Y-104671637D01*
X146822806Y-104748215D01*
X146866004Y-104832994D01*
X146972447Y-104979501D01*
X147100499Y-105107553D01*
X147247006Y-105213996D01*
X147408361Y-105296211D01*
X147580591Y-105352171D01*
X147652136Y-105363502D01*
X147759451Y-105380500D01*
X147759454Y-105380500D01*
X147940549Y-105380500D01*
X148029977Y-105366335D01*
X148119409Y-105352171D01*
X148291639Y-105296211D01*
X148452994Y-105213996D01*
X148599501Y-105107553D01*
X148727553Y-104979501D01*
X148833996Y-104832994D01*
X148916211Y-104671639D01*
X148972171Y-104499409D01*
X149000500Y-104320546D01*
X149000500Y-104139454D01*
X149000500Y-104139450D01*
X148981614Y-104020212D01*
X148972171Y-103960591D01*
X148916211Y-103788361D01*
X148863049Y-103684025D01*
X148853478Y-103623593D01*
X148881255Y-103569076D01*
X148935772Y-103541299D01*
X148996204Y-103550870D01*
X149021263Y-103569077D01*
X149260477Y-103808292D01*
X149288254Y-103862808D01*
X149284628Y-103908887D01*
X149267828Y-103960593D01*
X149239500Y-104139450D01*
X149239500Y-104320549D01*
X149267828Y-104499406D01*
X149323788Y-104671637D01*
X149362806Y-104748215D01*
X149406004Y-104832994D01*
X149512447Y-104979501D01*
X149640499Y-105107553D01*
X149787006Y-105213996D01*
X149948361Y-105296211D01*
X150120591Y-105352171D01*
X150192136Y-105363502D01*
X150299451Y-105380500D01*
X150299454Y-105380500D01*
X150480549Y-105380500D01*
X150569977Y-105366335D01*
X150659409Y-105352171D01*
X150831639Y-105296211D01*
X150992994Y-105213996D01*
X151139501Y-105107553D01*
X151267553Y-104979501D01*
X151373996Y-104832994D01*
X151456211Y-104671639D01*
X151512171Y-104499409D01*
X151540500Y-104320546D01*
X151540500Y-104139454D01*
X151540500Y-104139450D01*
X151512172Y-103960595D01*
X151499954Y-103922993D01*
X151495371Y-103908886D01*
X151495371Y-103847702D01*
X151519520Y-103808292D01*
X151758738Y-103569074D01*
X151813253Y-103541299D01*
X151873685Y-103550870D01*
X151916950Y-103594135D01*
X151926521Y-103654567D01*
X151916950Y-103684024D01*
X151863789Y-103788358D01*
X151863789Y-103788359D01*
X151807828Y-103960593D01*
X151779500Y-104139450D01*
X151779500Y-104320549D01*
X151807828Y-104499406D01*
X151863788Y-104671637D01*
X151902806Y-104748215D01*
X151946004Y-104832994D01*
X152052447Y-104979501D01*
X152180499Y-105107553D01*
X152327006Y-105213996D01*
X152488361Y-105296211D01*
X152660591Y-105352171D01*
X152732136Y-105363502D01*
X152839451Y-105380500D01*
X152839454Y-105380500D01*
X153020549Y-105380500D01*
X153109977Y-105366335D01*
X153199409Y-105352171D01*
X153371639Y-105296211D01*
X153532994Y-105213996D01*
X153679501Y-105107553D01*
X153807553Y-104979501D01*
X153913996Y-104832994D01*
X153996211Y-104671639D01*
X154052171Y-104499409D01*
X154080500Y-104320546D01*
X154080500Y-104139454D01*
X154080500Y-104139450D01*
X154061614Y-104020212D01*
X154052171Y-103960591D01*
X153996211Y-103788361D01*
X153913996Y-103627006D01*
X153807553Y-103480499D01*
X153679501Y-103352447D01*
X153679495Y-103352442D01*
X153676548Y-103349926D01*
X153677904Y-103348337D01*
X153646484Y-103305077D01*
X153646495Y-103243891D01*
X153682467Y-103194397D01*
X153740644Y-103175500D01*
X166275890Y-103175500D01*
X166275892Y-103175500D01*
X166403186Y-103141392D01*
X166403188Y-103141390D01*
X166403190Y-103141390D01*
X166517309Y-103075503D01*
X166517309Y-103075502D01*
X166517314Y-103075500D01*
X167113292Y-102479520D01*
X167167807Y-102451745D01*
X167213885Y-102455370D01*
X167265591Y-102472171D01*
X167265592Y-102472171D01*
X167265595Y-102472172D01*
X167444451Y-102500500D01*
X167444454Y-102500500D01*
X167625549Y-102500500D01*
X167714977Y-102486335D01*
X167804409Y-102472171D01*
X167976639Y-102416211D01*
X168137994Y-102333996D01*
X168284501Y-102227553D01*
X168412553Y-102099501D01*
X168518996Y-101952994D01*
X168543677Y-101904554D01*
X168560068Y-101888163D01*
X168573696Y-101869407D01*
X168581293Y-101866938D01*
X168586942Y-101861290D01*
X168631887Y-101850500D01*
X168825501Y-101850500D01*
X168883692Y-101869407D01*
X168919656Y-101918907D01*
X168924501Y-101949500D01*
X168924501Y-102244863D01*
X168927414Y-102269990D01*
X168952756Y-102327385D01*
X168972794Y-102372765D01*
X169052235Y-102452206D01*
X169155009Y-102497585D01*
X169180135Y-102500500D01*
X169776677Y-102500499D01*
X169834868Y-102519406D01*
X169846681Y-102529495D01*
X170099500Y-102782314D01*
X170099499Y-102782314D01*
X170192685Y-102875499D01*
X170192690Y-102875503D01*
X170306810Y-102941390D01*
X170306808Y-102941390D01*
X170306812Y-102941391D01*
X170306814Y-102941392D01*
X170434108Y-102975500D01*
X173095661Y-102975500D01*
X173153852Y-102994407D01*
X173183871Y-103029555D01*
X173206002Y-103072992D01*
X173225971Y-103100477D01*
X173312447Y-103219501D01*
X173440499Y-103347553D01*
X173587006Y-103453996D01*
X173748361Y-103536211D01*
X173920591Y-103592171D01*
X173992136Y-103603502D01*
X174099451Y-103620500D01*
X174099454Y-103620500D01*
X174280549Y-103620500D01*
X174369977Y-103606335D01*
X174459409Y-103592171D01*
X174631639Y-103536211D01*
X174792994Y-103453996D01*
X174939501Y-103347553D01*
X175067553Y-103219501D01*
X175173996Y-103072994D01*
X175256211Y-102911639D01*
X175312171Y-102739409D01*
X175340500Y-102560546D01*
X175340500Y-102379454D01*
X175340500Y-102379450D01*
X175579500Y-102379450D01*
X175579500Y-102560549D01*
X175607828Y-102739406D01*
X175663788Y-102911637D01*
X175724551Y-103030892D01*
X175746004Y-103072994D01*
X175852447Y-103219501D01*
X175980499Y-103347553D01*
X176127006Y-103453996D01*
X176288361Y-103536211D01*
X176460591Y-103592171D01*
X176532136Y-103603502D01*
X176639451Y-103620500D01*
X176639454Y-103620500D01*
X176820549Y-103620500D01*
X176909977Y-103606335D01*
X176999409Y-103592171D01*
X177171639Y-103536211D01*
X177332994Y-103453996D01*
X177479501Y-103347553D01*
X177607553Y-103219501D01*
X177713996Y-103072994D01*
X177796211Y-102911639D01*
X177852171Y-102739409D01*
X177880500Y-102560546D01*
X177880500Y-102379454D01*
X177880500Y-102379450D01*
X177853441Y-102208609D01*
X177852171Y-102200591D01*
X177796211Y-102028361D01*
X177713996Y-101867006D01*
X177607553Y-101720499D01*
X177479501Y-101592447D01*
X177332994Y-101486004D01*
X177332993Y-101486003D01*
X177332991Y-101486002D01*
X177171637Y-101403788D01*
X176999406Y-101347828D01*
X176820549Y-101319500D01*
X176820546Y-101319500D01*
X176639454Y-101319500D01*
X176639451Y-101319500D01*
X176460593Y-101347828D01*
X176288362Y-101403788D01*
X176127008Y-101486002D01*
X176053752Y-101539225D01*
X175980499Y-101592447D01*
X175852447Y-101720499D01*
X175800761Y-101791639D01*
X175746002Y-101867008D01*
X175663788Y-102028362D01*
X175607828Y-102200593D01*
X175579500Y-102379450D01*
X175340500Y-102379450D01*
X175313441Y-102208609D01*
X175312171Y-102200591D01*
X175256211Y-102028361D01*
X175173996Y-101867006D01*
X175067553Y-101720499D01*
X174939501Y-101592447D01*
X174792994Y-101486004D01*
X174792993Y-101486003D01*
X174792991Y-101486002D01*
X174631637Y-101403788D01*
X174459406Y-101347828D01*
X174280549Y-101319500D01*
X174280546Y-101319500D01*
X174099454Y-101319500D01*
X174099451Y-101319500D01*
X173920593Y-101347828D01*
X173748362Y-101403788D01*
X173587008Y-101486002D01*
X173513752Y-101539225D01*
X173440499Y-101592447D01*
X173312447Y-101720499D01*
X173280825Y-101764023D01*
X173206001Y-101867009D01*
X173206000Y-101867011D01*
X173178774Y-101920446D01*
X173135510Y-101963710D01*
X173090565Y-101974500D01*
X171324500Y-101974500D01*
X171266309Y-101955593D01*
X171230345Y-101906093D01*
X171225500Y-101875500D01*
X171225499Y-100479500D01*
X171244406Y-100421309D01*
X171293906Y-100385345D01*
X171324499Y-100380500D01*
X173067637Y-100380500D01*
X173125828Y-100399407D01*
X173155845Y-100434553D01*
X173206004Y-100532994D01*
X173312447Y-100679501D01*
X173440499Y-100807553D01*
X173587006Y-100913996D01*
X173748361Y-100996211D01*
X173920591Y-101052171D01*
X173992136Y-101063502D01*
X174099451Y-101080500D01*
X174099454Y-101080500D01*
X174280549Y-101080500D01*
X174369977Y-101066335D01*
X174459409Y-101052171D01*
X174631639Y-100996211D01*
X174792994Y-100913996D01*
X174939501Y-100807553D01*
X175067553Y-100679501D01*
X175173996Y-100532994D01*
X175256211Y-100371639D01*
X175312171Y-100199409D01*
X175340500Y-100020546D01*
X175340500Y-99839454D01*
X175340500Y-99839450D01*
X175312171Y-99660593D01*
X175312171Y-99660591D01*
X175256211Y-99488361D01*
X175173996Y-99327006D01*
X175080768Y-99198688D01*
X175075923Y-99183778D01*
X175066707Y-99171093D01*
X175066707Y-99155411D01*
X175061862Y-99140500D01*
X175066707Y-99125588D01*
X175066707Y-99109907D01*
X175075923Y-99097221D01*
X175080769Y-99082309D01*
X175093454Y-99073092D01*
X175102671Y-99060407D01*
X175117583Y-99055561D01*
X175130269Y-99046345D01*
X175160862Y-99041500D01*
X175163389Y-99041500D01*
X175221580Y-99060407D01*
X175233393Y-99070496D01*
X175617817Y-99454920D01*
X175645594Y-99509437D01*
X175641968Y-99555515D01*
X175607829Y-99660587D01*
X175607827Y-99660598D01*
X175579500Y-99839450D01*
X175579500Y-100020549D01*
X175607828Y-100199406D01*
X175663788Y-100371637D01*
X175721474Y-100484853D01*
X175746004Y-100532994D01*
X175852447Y-100679501D01*
X175980499Y-100807553D01*
X176127006Y-100913996D01*
X176288361Y-100996211D01*
X176460591Y-101052171D01*
X176532136Y-101063502D01*
X176639451Y-101080500D01*
X176639454Y-101080500D01*
X176820549Y-101080500D01*
X176909977Y-101066335D01*
X176999409Y-101052171D01*
X177171639Y-100996211D01*
X177332994Y-100913996D01*
X177479501Y-100807553D01*
X177607553Y-100679501D01*
X177713996Y-100532994D01*
X177796211Y-100371639D01*
X177852171Y-100199409D01*
X177880500Y-100020546D01*
X177880500Y-99839454D01*
X177880500Y-99839450D01*
X177852171Y-99660593D01*
X177852171Y-99660591D01*
X177796211Y-99488361D01*
X177713996Y-99327006D01*
X177607553Y-99180499D01*
X177479501Y-99052447D01*
X177332994Y-98946004D01*
X177332993Y-98946003D01*
X177332991Y-98946002D01*
X177171637Y-98863788D01*
X176999406Y-98807828D01*
X176820549Y-98779500D01*
X176820546Y-98779500D01*
X176639454Y-98779500D01*
X176639451Y-98779500D01*
X176460598Y-98807827D01*
X176460587Y-98807829D01*
X176355515Y-98841968D01*
X176294330Y-98841967D01*
X176254921Y-98817817D01*
X175861253Y-98424150D01*
X175833475Y-98369633D01*
X175843046Y-98309201D01*
X175886311Y-98265936D01*
X175946743Y-98256365D01*
X175989443Y-98274051D01*
X176127006Y-98373996D01*
X176288361Y-98456211D01*
X176460591Y-98512171D01*
X176532136Y-98523502D01*
X176639451Y-98540500D01*
X176639454Y-98540500D01*
X176820549Y-98540500D01*
X176909977Y-98526335D01*
X176999409Y-98512171D01*
X177171639Y-98456211D01*
X177332994Y-98373996D01*
X177479501Y-98267553D01*
X177607553Y-98139501D01*
X177713996Y-97992994D01*
X177796211Y-97831639D01*
X177852171Y-97659409D01*
X177880500Y-97480546D01*
X177880500Y-97299454D01*
X177880500Y-97299450D01*
X177852171Y-97120593D01*
X177852171Y-97120591D01*
X177796211Y-96948361D01*
X177713996Y-96787006D01*
X177607553Y-96640499D01*
X177479501Y-96512447D01*
X177332994Y-96406004D01*
X177332993Y-96406003D01*
X177332991Y-96406002D01*
X177171637Y-96323788D01*
X176999406Y-96267828D01*
X176820549Y-96239500D01*
X176820546Y-96239500D01*
X176639454Y-96239500D01*
X176639451Y-96239500D01*
X176460593Y-96267828D01*
X176288362Y-96323788D01*
X176127008Y-96406002D01*
X176053752Y-96459225D01*
X175980499Y-96512447D01*
X175852447Y-96640499D01*
X175799225Y-96713752D01*
X175746002Y-96787008D01*
X175663788Y-96948362D01*
X175607828Y-97120593D01*
X175579500Y-97299450D01*
X175579500Y-97480549D01*
X175607828Y-97659406D01*
X175607829Y-97659409D01*
X175663789Y-97831639D01*
X175746004Y-97992994D01*
X175845947Y-98130555D01*
X175864854Y-98188744D01*
X175845947Y-98246935D01*
X175796447Y-98282899D01*
X175735261Y-98282899D01*
X175695852Y-98258749D01*
X175667614Y-98230511D01*
X175667611Y-98230509D01*
X175667609Y-98230507D01*
X175564890Y-98171202D01*
X175564886Y-98171200D01*
X175540673Y-98164712D01*
X175540673Y-98164713D01*
X175450309Y-98140500D01*
X175450307Y-98140500D01*
X175260382Y-98140500D01*
X175202191Y-98121593D01*
X175166227Y-98072093D01*
X175166227Y-98010907D01*
X175172750Y-97996725D01*
X175172230Y-97996460D01*
X175174350Y-97992297D01*
X175256211Y-97831639D01*
X175312171Y-97659409D01*
X175340500Y-97480546D01*
X175340500Y-97299454D01*
X175340500Y-97299450D01*
X175312171Y-97120593D01*
X175312171Y-97120591D01*
X175256211Y-96948361D01*
X175173996Y-96787006D01*
X175067553Y-96640499D01*
X174939501Y-96512447D01*
X174792994Y-96406004D01*
X174792993Y-96406003D01*
X174792991Y-96406002D01*
X174631637Y-96323788D01*
X174459406Y-96267828D01*
X174280549Y-96239500D01*
X174280546Y-96239500D01*
X174099454Y-96239500D01*
X174099451Y-96239500D01*
X173920593Y-96267828D01*
X173748362Y-96323788D01*
X173587008Y-96406002D01*
X173513752Y-96459225D01*
X173440499Y-96512447D01*
X173312447Y-96640499D01*
X173259225Y-96713752D01*
X173206002Y-96787008D01*
X173123788Y-96948362D01*
X173067828Y-97120593D01*
X173039500Y-97299450D01*
X173039500Y-97480549D01*
X173067828Y-97659406D01*
X173123788Y-97831637D01*
X173207770Y-97996460D01*
X173205902Y-97997411D01*
X173218300Y-98049431D01*
X173194792Y-98105920D01*
X173142570Y-98137803D01*
X173119618Y-98140500D01*
X162614691Y-98140500D01*
X162569508Y-98152606D01*
X162524325Y-98164713D01*
X162524324Y-98164712D01*
X162500112Y-98171201D01*
X162500109Y-98171202D01*
X162397390Y-98230507D01*
X162397389Y-98230508D01*
X160390078Y-100237817D01*
X160335561Y-100265594D01*
X160289482Y-100261968D01*
X160184406Y-100227828D01*
X160005549Y-100199500D01*
X160005546Y-100199500D01*
X159824454Y-100199500D01*
X159824451Y-100199500D01*
X159645593Y-100227828D01*
X159473362Y-100283788D01*
X159312008Y-100366002D01*
X159270823Y-100395925D01*
X159165499Y-100472447D01*
X159037447Y-100600499D01*
X159006970Y-100642447D01*
X158931002Y-100747008D01*
X158848788Y-100908362D01*
X158792828Y-101080593D01*
X158764500Y-101259450D01*
X158764500Y-101440549D01*
X158792828Y-101619406D01*
X158848788Y-101791637D01*
X158929223Y-101949500D01*
X158931004Y-101952994D01*
X158977732Y-102017310D01*
X158996639Y-102075500D01*
X158977732Y-102133691D01*
X158928232Y-102169655D01*
X158897639Y-102174500D01*
X158392361Y-102174500D01*
X158334170Y-102155593D01*
X158298206Y-102106093D01*
X158298206Y-102044907D01*
X158312266Y-102017312D01*
X158358996Y-101952994D01*
X158441211Y-101791639D01*
X158497171Y-101619409D01*
X158525500Y-101440546D01*
X158525500Y-101259454D01*
X158525500Y-101259450D01*
X158506614Y-101140212D01*
X158497171Y-101080591D01*
X158441211Y-100908361D01*
X158358996Y-100747006D01*
X158252553Y-100600499D01*
X158124501Y-100472447D01*
X157977994Y-100366004D01*
X157977993Y-100366003D01*
X157977991Y-100366002D01*
X157816637Y-100283788D01*
X157644406Y-100227828D01*
X157465549Y-100199500D01*
X157465546Y-100199500D01*
X157284454Y-100199500D01*
X157284451Y-100199500D01*
X157105593Y-100227828D01*
X156933362Y-100283788D01*
X156772008Y-100366002D01*
X156730823Y-100395925D01*
X156625499Y-100472447D01*
X156497447Y-100600499D01*
X156466970Y-100642447D01*
X156391002Y-100747008D01*
X156308788Y-100908362D01*
X156252828Y-101080593D01*
X156224500Y-101259450D01*
X156224500Y-101440549D01*
X156252828Y-101619406D01*
X156308788Y-101791637D01*
X156389223Y-101949500D01*
X156391004Y-101952994D01*
X156437732Y-102017310D01*
X156456639Y-102075500D01*
X156437732Y-102133691D01*
X156388232Y-102169655D01*
X156357639Y-102174500D01*
X152010892Y-102174500D01*
X151879107Y-102174500D01*
X151801200Y-102195374D01*
X151751809Y-102208609D01*
X151637690Y-102274496D01*
X151637685Y-102274500D01*
X150811707Y-103100477D01*
X150757191Y-103128254D01*
X150711112Y-103124628D01*
X150659406Y-103107828D01*
X150480549Y-103079500D01*
X150480546Y-103079500D01*
X150299454Y-103079500D01*
X150299451Y-103079500D01*
X150120593Y-103107828D01*
X150068887Y-103124628D01*
X150007702Y-103124627D01*
X149968291Y-103100477D01*
X149654496Y-102786682D01*
X149626719Y-102732165D01*
X149625500Y-102716678D01*
X149625500Y-99109109D01*
X149618319Y-99082309D01*
X149591392Y-98981814D01*
X149591390Y-98981811D01*
X149591390Y-98981809D01*
X149525503Y-98867690D01*
X149525499Y-98867685D01*
X149432314Y-98774499D01*
X149432314Y-98774500D01*
X146428016Y-95770202D01*
X146412284Y-95749698D01*
X146370506Y-95677337D01*
X146370505Y-95677335D01*
X146272665Y-95579495D01*
X146152836Y-95510312D01*
X146019183Y-95474500D01*
X145880817Y-95474500D01*
X145747164Y-95510312D01*
X145627335Y-95579495D01*
X145529495Y-95677335D01*
X145460312Y-95797164D01*
X145424500Y-95930817D01*
X145424500Y-96069183D01*
X145460312Y-96202836D01*
X145529495Y-96322665D01*
X145627335Y-96420505D01*
X145627337Y-96420506D01*
X145699698Y-96462284D01*
X145720202Y-96478016D01*
X148595504Y-99353318D01*
X148623281Y-99407835D01*
X148624500Y-99423322D01*
X148624500Y-102899108D01*
X148624500Y-103030892D01*
X148658608Y-103158186D01*
X148658609Y-103158189D01*
X148661636Y-103163432D01*
X148674354Y-103223280D01*
X148649466Y-103279175D01*
X148596476Y-103309765D01*
X148535626Y-103303367D01*
X148517706Y-103293020D01*
X148452999Y-103246007D01*
X148452993Y-103246003D01*
X148291637Y-103163788D01*
X148119406Y-103107828D01*
X147940549Y-103079500D01*
X147940546Y-103079500D01*
X147759454Y-103079500D01*
X147759451Y-103079500D01*
X147580593Y-103107828D01*
X147408362Y-103163788D01*
X147247008Y-103246002D01*
X147210793Y-103272314D01*
X147100499Y-103352447D01*
X146972447Y-103480499D01*
X146921320Y-103550870D01*
X146866002Y-103627008D01*
X146783787Y-103788364D01*
X146783786Y-103788366D01*
X146779035Y-103802988D01*
X146743069Y-103852486D01*
X146684878Y-103871391D01*
X146626688Y-103852481D01*
X146590727Y-103802983D01*
X146561096Y-103711786D01*
X146464623Y-103522446D01*
X146464619Y-103522440D01*
X146425270Y-103468282D01*
X146425269Y-103468282D01*
X145792962Y-104100589D01*
X145775925Y-104037007D01*
X145710099Y-103922993D01*
X145617007Y-103829901D01*
X145502993Y-103764075D01*
X145439407Y-103747037D01*
X146071716Y-103114729D01*
X146071716Y-103114728D01*
X146017559Y-103075380D01*
X146017553Y-103075376D01*
X145828215Y-102978904D01*
X145626121Y-102913240D01*
X145416250Y-102880000D01*
X145203750Y-102880000D01*
X144993878Y-102913240D01*
X144791784Y-102978904D01*
X144602446Y-103075376D01*
X144602442Y-103075378D01*
X144548282Y-103114728D01*
X145180591Y-103747037D01*
X145117007Y-103764075D01*
X145002993Y-103829901D01*
X144909901Y-103922993D01*
X144844075Y-104037007D01*
X144827037Y-104100591D01*
X144194728Y-103468282D01*
X144155378Y-103522442D01*
X144155376Y-103522446D01*
X144058904Y-103711784D01*
X144029272Y-103802984D01*
X143993308Y-103852484D01*
X143935117Y-103871391D01*
X143876926Y-103852484D01*
X143840962Y-103802984D01*
X143840962Y-103802983D01*
X143839824Y-103799483D01*
X143836211Y-103788361D01*
X143753996Y-103627006D01*
X143647553Y-103480499D01*
X143519501Y-103352447D01*
X143372994Y-103246004D01*
X143372990Y-103246001D01*
X143372988Y-103246000D01*
X143362527Y-103240670D01*
X143362526Y-103240670D01*
X143211637Y-103163788D01*
X143039406Y-103107828D01*
X142860549Y-103079500D01*
X142860546Y-103079500D01*
X142679454Y-103079500D01*
X142679451Y-103079500D01*
X142500593Y-103107828D01*
X142328362Y-103163788D01*
X142167008Y-103246002D01*
X142130793Y-103272314D01*
X142020499Y-103352447D01*
X141892447Y-103480499D01*
X141841320Y-103550870D01*
X141786002Y-103627008D01*
X141703788Y-103788362D01*
X141647828Y-103960593D01*
X141619500Y-104139450D01*
X141380499Y-104139450D01*
X141380499Y-103335136D01*
X141377585Y-103310009D01*
X141332206Y-103207235D01*
X141252765Y-103127794D01*
X141149991Y-103082415D01*
X141149990Y-103082414D01*
X141149988Y-103082414D01*
X141124868Y-103079500D01*
X139335139Y-103079500D01*
X139335136Y-103079501D01*
X139310009Y-103082414D01*
X139207235Y-103127794D01*
X139127794Y-103207235D01*
X139082414Y-103310011D01*
X139079500Y-103335130D01*
X129200500Y-103335130D01*
X129200500Y-99823749D01*
X133300000Y-99823749D01*
X133300000Y-100036250D01*
X133333240Y-100246121D01*
X133398904Y-100448215D01*
X133495376Y-100637553D01*
X133495380Y-100637559D01*
X133534728Y-100691716D01*
X133534729Y-100691716D01*
X134167037Y-100059407D01*
X134184075Y-100122993D01*
X134249901Y-100237007D01*
X134342993Y-100330099D01*
X134457007Y-100395925D01*
X134520589Y-100412962D01*
X133888282Y-101045269D01*
X133888282Y-101045270D01*
X133942440Y-101084619D01*
X133942446Y-101084623D01*
X134131784Y-101181095D01*
X134333878Y-101246759D01*
X134543750Y-101280000D01*
X134756250Y-101280000D01*
X134966121Y-101246759D01*
X135168215Y-101181095D01*
X135357556Y-101084620D01*
X135411716Y-101045270D01*
X134779408Y-100412962D01*
X134842993Y-100395925D01*
X134957007Y-100330099D01*
X135050099Y-100237007D01*
X135115925Y-100122993D01*
X135132962Y-100059408D01*
X135765270Y-100691716D01*
X135804620Y-100637556D01*
X135901095Y-100448215D01*
X135966759Y-100246121D01*
X136000000Y-100036250D01*
X136000000Y-99823749D01*
X135966759Y-99613878D01*
X135901095Y-99411784D01*
X135804623Y-99222446D01*
X135804619Y-99222440D01*
X135765270Y-99168282D01*
X135765269Y-99168282D01*
X135132962Y-99800589D01*
X135115925Y-99737007D01*
X135050099Y-99622993D01*
X134957007Y-99529901D01*
X134842993Y-99464075D01*
X134779407Y-99447037D01*
X135411716Y-98814729D01*
X135411716Y-98814728D01*
X135357559Y-98775380D01*
X135357553Y-98775376D01*
X135168215Y-98678904D01*
X135077015Y-98649272D01*
X135027515Y-98613308D01*
X135008608Y-98555117D01*
X135027515Y-98496926D01*
X135077013Y-98460962D01*
X135077017Y-98460962D01*
X135077018Y-98460962D01*
X135091633Y-98456213D01*
X135091633Y-98456212D01*
X135091639Y-98456211D01*
X135252994Y-98373996D01*
X135399501Y-98267553D01*
X135527553Y-98139501D01*
X135633996Y-97992994D01*
X135716211Y-97831639D01*
X135772171Y-97659409D01*
X135800500Y-97480546D01*
X135800500Y-97299454D01*
X135800500Y-97299450D01*
X135772171Y-97120593D01*
X135772171Y-97120591D01*
X135716211Y-96948361D01*
X135633996Y-96787006D01*
X135527553Y-96640499D01*
X135399501Y-96512447D01*
X135252994Y-96406004D01*
X135252993Y-96406003D01*
X135252991Y-96406002D01*
X135091637Y-96323788D01*
X134919406Y-96267828D01*
X134740549Y-96239500D01*
X134740546Y-96239500D01*
X134559454Y-96239500D01*
X134559451Y-96239500D01*
X134380593Y-96267828D01*
X134208362Y-96323788D01*
X134047008Y-96406002D01*
X133973752Y-96459225D01*
X133900499Y-96512447D01*
X133772447Y-96640499D01*
X133719225Y-96713752D01*
X133666002Y-96787008D01*
X133583788Y-96948362D01*
X133527828Y-97120593D01*
X133499500Y-97299450D01*
X133499500Y-97480549D01*
X133527828Y-97659406D01*
X133527829Y-97659409D01*
X133583789Y-97831639D01*
X133666004Y-97992994D01*
X133772447Y-98139501D01*
X133900499Y-98267553D01*
X134047006Y-98373996D01*
X134208361Y-98456211D01*
X134219483Y-98459824D01*
X134222983Y-98460962D01*
X134272483Y-98496926D01*
X134291391Y-98555116D01*
X134272484Y-98613307D01*
X134222985Y-98649271D01*
X134222984Y-98649272D01*
X134131784Y-98678904D01*
X133942446Y-98775376D01*
X133942442Y-98775378D01*
X133888282Y-98814728D01*
X134520591Y-99447037D01*
X134457007Y-99464075D01*
X134342993Y-99529901D01*
X134249901Y-99622993D01*
X134184075Y-99737007D01*
X134167037Y-99800591D01*
X133534728Y-99168282D01*
X133495378Y-99222442D01*
X133495376Y-99222446D01*
X133398904Y-99411784D01*
X133333240Y-99613878D01*
X133300000Y-99823749D01*
X129200500Y-99823749D01*
X129200500Y-94759450D01*
X133499500Y-94759450D01*
X133499500Y-94940549D01*
X133527828Y-95119406D01*
X133527829Y-95119409D01*
X133583789Y-95291639D01*
X133666004Y-95452994D01*
X133772447Y-95599501D01*
X133900499Y-95727553D01*
X134047006Y-95833996D01*
X134208361Y-95916211D01*
X134380591Y-95972171D01*
X134452136Y-95983502D01*
X134559451Y-96000500D01*
X134559454Y-96000500D01*
X134740549Y-96000500D01*
X134829977Y-95986335D01*
X134919409Y-95972171D01*
X135091639Y-95916211D01*
X135091642Y-95916209D01*
X135091646Y-95916208D01*
X135198976Y-95861519D01*
X135252994Y-95833996D01*
X135399501Y-95727553D01*
X135527553Y-95599501D01*
X135633996Y-95452994D01*
X135716211Y-95291639D01*
X135772171Y-95119409D01*
X135800500Y-94940546D01*
X135800500Y-94759454D01*
X135800500Y-94759450D01*
X173039500Y-94759450D01*
X173039500Y-94940549D01*
X173067828Y-95119406D01*
X173067829Y-95119409D01*
X173123789Y-95291639D01*
X173206004Y-95452994D01*
X173312447Y-95599501D01*
X173440499Y-95727553D01*
X173587006Y-95833996D01*
X173748361Y-95916211D01*
X173920591Y-95972171D01*
X173992136Y-95983502D01*
X174099451Y-96000500D01*
X174099454Y-96000500D01*
X174280549Y-96000500D01*
X174369977Y-95986335D01*
X174459409Y-95972171D01*
X174631639Y-95916211D01*
X174792994Y-95833996D01*
X174939501Y-95727553D01*
X175067553Y-95599501D01*
X175173996Y-95452994D01*
X175256211Y-95291639D01*
X175312171Y-95119409D01*
X175340500Y-94940546D01*
X175340500Y-94759454D01*
X175340500Y-94759450D01*
X175312171Y-94580593D01*
X175312171Y-94580591D01*
X175256211Y-94408361D01*
X175173996Y-94247006D01*
X175067553Y-94100499D01*
X174939501Y-93972447D01*
X174792994Y-93866004D01*
X174792993Y-93866003D01*
X174792991Y-93866002D01*
X174631637Y-93783788D01*
X174459406Y-93727828D01*
X174280549Y-93699500D01*
X174280546Y-93699500D01*
X174099454Y-93699500D01*
X174099451Y-93699500D01*
X173920593Y-93727828D01*
X173748362Y-93783788D01*
X173587008Y-93866002D01*
X173559193Y-93886211D01*
X173440499Y-93972447D01*
X173312447Y-94100499D01*
X173286103Y-94136759D01*
X173206002Y-94247008D01*
X173123788Y-94408362D01*
X173067828Y-94580593D01*
X173039500Y-94759450D01*
X135800500Y-94759450D01*
X135772171Y-94580593D01*
X135772171Y-94580591D01*
X135716211Y-94408361D01*
X135633996Y-94247006D01*
X135527553Y-94100499D01*
X135399501Y-93972447D01*
X135252994Y-93866004D01*
X135252993Y-93866003D01*
X135252991Y-93866002D01*
X135091637Y-93783788D01*
X134919406Y-93727828D01*
X134740549Y-93699500D01*
X134740546Y-93699500D01*
X134559454Y-93699500D01*
X134559451Y-93699500D01*
X134380593Y-93727828D01*
X134208362Y-93783788D01*
X134047008Y-93866002D01*
X134019193Y-93886211D01*
X133900499Y-93972447D01*
X133772447Y-94100499D01*
X133746103Y-94136759D01*
X133666002Y-94247008D01*
X133583788Y-94408362D01*
X133527828Y-94580593D01*
X133499500Y-94759450D01*
X129200500Y-94759450D01*
X129200500Y-91415130D01*
X133499500Y-91415130D01*
X133499500Y-93204860D01*
X133499501Y-93204863D01*
X133502414Y-93229990D01*
X133509932Y-93247016D01*
X133547794Y-93332765D01*
X133627235Y-93412206D01*
X133730009Y-93457585D01*
X133755135Y-93460500D01*
X135544864Y-93460499D01*
X135569991Y-93457585D01*
X135672765Y-93412206D01*
X135752206Y-93332765D01*
X135797585Y-93229991D01*
X135800500Y-93204865D01*
X135800499Y-91925130D01*
X138914500Y-91925130D01*
X138914500Y-93714860D01*
X138914501Y-93714863D01*
X138917414Y-93739990D01*
X138934655Y-93779036D01*
X138962794Y-93842765D01*
X139042235Y-93922206D01*
X139145009Y-93967585D01*
X139170135Y-93970500D01*
X140959864Y-93970499D01*
X140984991Y-93967585D01*
X141087765Y-93922206D01*
X141167206Y-93842765D01*
X141212585Y-93739991D01*
X141215500Y-93714865D01*
X141215499Y-92729450D01*
X141454500Y-92729450D01*
X141454500Y-92910549D01*
X141482828Y-93089406D01*
X141538788Y-93261637D01*
X141615506Y-93412205D01*
X141621004Y-93422994D01*
X141727447Y-93569501D01*
X141855499Y-93697553D01*
X142002006Y-93803996D01*
X142163361Y-93886211D01*
X142335591Y-93942171D01*
X142407136Y-93953502D01*
X142514451Y-93970500D01*
X142514454Y-93970500D01*
X142695549Y-93970500D01*
X142784977Y-93956335D01*
X142874409Y-93942171D01*
X143046639Y-93886211D01*
X143046642Y-93886209D01*
X143046646Y-93886208D01*
X143150608Y-93833235D01*
X143197527Y-93809329D01*
X143197530Y-93809328D01*
X143201166Y-93807474D01*
X143207994Y-93803996D01*
X143354501Y-93697553D01*
X143482553Y-93569501D01*
X143588996Y-93422994D01*
X143671211Y-93261639D01*
X143675962Y-93247018D01*
X143711924Y-93197517D01*
X143770115Y-93178608D01*
X143828306Y-93197514D01*
X143864271Y-93247013D01*
X143864272Y-93247015D01*
X143893904Y-93338215D01*
X143990376Y-93527553D01*
X143990380Y-93527559D01*
X144029728Y-93581716D01*
X144029729Y-93581716D01*
X144662037Y-92949407D01*
X144679075Y-93012993D01*
X144744901Y-93127007D01*
X144837993Y-93220099D01*
X144952007Y-93285925D01*
X145015589Y-93302962D01*
X144383282Y-93935269D01*
X144383282Y-93935270D01*
X144437440Y-93974619D01*
X144437446Y-93974623D01*
X144626784Y-94071095D01*
X144828878Y-94136759D01*
X145038750Y-94170000D01*
X145251250Y-94170000D01*
X145461121Y-94136759D01*
X145663215Y-94071095D01*
X145852556Y-93974620D01*
X145906716Y-93935270D01*
X145274408Y-93302962D01*
X145337993Y-93285925D01*
X145452007Y-93220099D01*
X145545099Y-93127007D01*
X145610925Y-93012993D01*
X145627962Y-92949408D01*
X146260270Y-93581716D01*
X146299620Y-93527556D01*
X146396096Y-93338213D01*
X146425727Y-93247016D01*
X146461690Y-93197516D01*
X146519881Y-93178608D01*
X146578072Y-93197515D01*
X146614036Y-93247013D01*
X146618788Y-93261637D01*
X146695506Y-93412205D01*
X146701004Y-93422994D01*
X146807447Y-93569501D01*
X146935499Y-93697553D01*
X147082006Y-93803996D01*
X147243361Y-93886211D01*
X147415591Y-93942171D01*
X147487136Y-93953502D01*
X147594451Y-93970500D01*
X147594454Y-93970500D01*
X147775549Y-93970500D01*
X147864977Y-93956335D01*
X147954409Y-93942171D01*
X148126639Y-93886211D01*
X148287994Y-93803996D01*
X148434501Y-93697553D01*
X148562553Y-93569501D01*
X148668996Y-93422994D01*
X148751211Y-93261639D01*
X148807171Y-93089409D01*
X148821335Y-92999977D01*
X148835500Y-92910549D01*
X148835500Y-92729450D01*
X149074500Y-92729450D01*
X149074500Y-92910549D01*
X149102828Y-93089406D01*
X149158788Y-93261637D01*
X149235506Y-93412205D01*
X149241004Y-93422994D01*
X149347447Y-93569501D01*
X149475499Y-93697553D01*
X149622006Y-93803996D01*
X149783361Y-93886211D01*
X149955591Y-93942171D01*
X150027136Y-93953502D01*
X150134451Y-93970500D01*
X150134454Y-93970500D01*
X150315549Y-93970500D01*
X150404977Y-93956335D01*
X150494409Y-93942171D01*
X150666639Y-93886211D01*
X150827994Y-93803996D01*
X150974501Y-93697553D01*
X151102553Y-93569501D01*
X151208996Y-93422994D01*
X151291211Y-93261639D01*
X151347171Y-93089409D01*
X151361335Y-92999977D01*
X151375500Y-92910549D01*
X151375500Y-92729450D01*
X151614500Y-92729450D01*
X151614500Y-92910549D01*
X151642828Y-93089406D01*
X151698788Y-93261637D01*
X151775506Y-93412205D01*
X151781004Y-93422994D01*
X151887447Y-93569501D01*
X152015499Y-93697553D01*
X152162006Y-93803996D01*
X152323361Y-93886211D01*
X152495591Y-93942171D01*
X152567136Y-93953502D01*
X152674451Y-93970500D01*
X152674454Y-93970500D01*
X152855549Y-93970500D01*
X152944977Y-93956335D01*
X153034409Y-93942171D01*
X153206639Y-93886211D01*
X153367994Y-93803996D01*
X153514501Y-93697553D01*
X153642553Y-93569501D01*
X153748996Y-93422994D01*
X153831211Y-93261639D01*
X153887171Y-93089409D01*
X153901335Y-92999977D01*
X153915500Y-92910549D01*
X153915500Y-92729450D01*
X153887171Y-92550593D01*
X153887171Y-92550591D01*
X153831211Y-92378361D01*
X153750241Y-92219450D01*
X173039500Y-92219450D01*
X173039500Y-92400549D01*
X173067828Y-92579406D01*
X173123788Y-92751637D01*
X173204756Y-92910546D01*
X173206004Y-92912994D01*
X173312447Y-93059501D01*
X173440499Y-93187553D01*
X173587006Y-93293996D01*
X173748361Y-93376211D01*
X173920591Y-93432171D01*
X173992136Y-93443502D01*
X174099451Y-93460500D01*
X174099454Y-93460500D01*
X174280549Y-93460500D01*
X174369977Y-93446335D01*
X174459409Y-93432171D01*
X174631639Y-93376211D01*
X174792994Y-93293996D01*
X174939501Y-93187553D01*
X175067553Y-93059501D01*
X175173996Y-92912994D01*
X175256211Y-92751639D01*
X175260962Y-92737018D01*
X175296924Y-92687517D01*
X175355115Y-92668608D01*
X175413306Y-92687514D01*
X175449271Y-92737013D01*
X175449272Y-92737015D01*
X175478904Y-92828215D01*
X175575376Y-93017553D01*
X175575380Y-93017559D01*
X175614728Y-93071716D01*
X175614729Y-93071716D01*
X176247037Y-92439407D01*
X176264075Y-92502993D01*
X176329901Y-92617007D01*
X176422993Y-92710099D01*
X176537007Y-92775925D01*
X176600589Y-92792962D01*
X175968282Y-93425269D01*
X175968282Y-93425270D01*
X176022440Y-93464619D01*
X176022446Y-93464623D01*
X176211786Y-93561096D01*
X176302983Y-93590727D01*
X176352483Y-93626691D01*
X176371391Y-93684881D01*
X176352484Y-93743072D01*
X176302988Y-93779035D01*
X176288366Y-93783786D01*
X176288364Y-93783787D01*
X176127008Y-93866002D01*
X176099193Y-93886211D01*
X175980499Y-93972447D01*
X175852447Y-94100499D01*
X175826103Y-94136759D01*
X175746002Y-94247008D01*
X175663788Y-94408362D01*
X175607828Y-94580593D01*
X175579500Y-94759450D01*
X175579500Y-94940549D01*
X175607828Y-95119406D01*
X175607829Y-95119409D01*
X175663789Y-95291639D01*
X175746004Y-95452994D01*
X175852447Y-95599501D01*
X175980499Y-95727553D01*
X176127006Y-95833996D01*
X176288361Y-95916211D01*
X176460591Y-95972171D01*
X176532136Y-95983502D01*
X176639451Y-96000500D01*
X176639454Y-96000500D01*
X176820549Y-96000500D01*
X176909977Y-95986335D01*
X176999409Y-95972171D01*
X177171639Y-95916211D01*
X177332994Y-95833996D01*
X177479501Y-95727553D01*
X177607553Y-95599501D01*
X177713996Y-95452994D01*
X177796211Y-95291639D01*
X177852171Y-95119409D01*
X177880500Y-94940546D01*
X177880500Y-94759454D01*
X177880500Y-94759450D01*
X177852171Y-94580593D01*
X177852171Y-94580591D01*
X177796211Y-94408361D01*
X177713996Y-94247006D01*
X177607553Y-94100499D01*
X177479501Y-93972447D01*
X177332994Y-93866004D01*
X177332993Y-93866003D01*
X177332991Y-93866002D01*
X177171637Y-93783788D01*
X177157013Y-93779036D01*
X177107514Y-93743071D01*
X177088608Y-93684880D01*
X177107517Y-93626689D01*
X177157016Y-93590727D01*
X177248213Y-93561096D01*
X177437556Y-93464620D01*
X177491716Y-93425270D01*
X176859408Y-92792962D01*
X176922993Y-92775925D01*
X177037007Y-92710099D01*
X177130099Y-92617007D01*
X177195925Y-92502993D01*
X177212962Y-92439408D01*
X177845270Y-93071716D01*
X177884620Y-93017556D01*
X177981095Y-92828215D01*
X178046759Y-92626121D01*
X178080000Y-92416250D01*
X178080000Y-92203749D01*
X178046759Y-91993878D01*
X177981095Y-91791784D01*
X177884623Y-91602446D01*
X177884619Y-91602440D01*
X177845270Y-91548282D01*
X177845269Y-91548282D01*
X177212962Y-92180589D01*
X177195925Y-92117007D01*
X177130099Y-92002993D01*
X177037007Y-91909901D01*
X176922993Y-91844075D01*
X176859407Y-91827037D01*
X177491716Y-91194729D01*
X177491716Y-91194728D01*
X177437559Y-91155380D01*
X177437553Y-91155376D01*
X177248215Y-91058904D01*
X177157015Y-91029272D01*
X177107515Y-90993308D01*
X177088608Y-90935117D01*
X177107515Y-90876926D01*
X177157013Y-90840962D01*
X177157017Y-90840962D01*
X177157018Y-90840962D01*
X177171633Y-90836213D01*
X177171633Y-90836212D01*
X177171639Y-90836211D01*
X177332994Y-90753996D01*
X177479501Y-90647553D01*
X177607553Y-90519501D01*
X177713996Y-90372994D01*
X177796211Y-90211639D01*
X177852171Y-90039409D01*
X177880500Y-89860546D01*
X177880500Y-89679454D01*
X177880500Y-89679450D01*
X177852171Y-89500593D01*
X177852171Y-89500591D01*
X177796211Y-89328361D01*
X177713996Y-89167006D01*
X177607553Y-89020499D01*
X177479501Y-88892447D01*
X177332994Y-88786004D01*
X177332993Y-88786003D01*
X177332991Y-88786002D01*
X177171637Y-88703788D01*
X176999406Y-88647828D01*
X176820549Y-88619500D01*
X176820546Y-88619500D01*
X176639454Y-88619500D01*
X176639451Y-88619500D01*
X176460593Y-88647828D01*
X176288362Y-88703788D01*
X176127008Y-88786002D01*
X176053752Y-88839225D01*
X175980499Y-88892447D01*
X175852447Y-89020499D01*
X175799225Y-89093752D01*
X175746002Y-89167008D01*
X175663788Y-89328362D01*
X175607828Y-89500593D01*
X175579500Y-89679450D01*
X175579500Y-89860549D01*
X175607828Y-90039406D01*
X175607829Y-90039409D01*
X175663789Y-90211639D01*
X175746004Y-90372994D01*
X175852447Y-90519501D01*
X175980499Y-90647553D01*
X176127006Y-90753996D01*
X176288361Y-90836211D01*
X176299483Y-90839824D01*
X176302983Y-90840962D01*
X176352483Y-90876926D01*
X176371391Y-90935116D01*
X176352484Y-90993307D01*
X176302985Y-91029271D01*
X176302984Y-91029272D01*
X176211784Y-91058904D01*
X176022446Y-91155376D01*
X176022442Y-91155378D01*
X175968282Y-91194728D01*
X176600591Y-91827037D01*
X176537007Y-91844075D01*
X176422993Y-91909901D01*
X176329901Y-92002993D01*
X176264075Y-92117007D01*
X176247037Y-92180591D01*
X175614728Y-91548282D01*
X175575378Y-91602442D01*
X175575376Y-91602446D01*
X175478904Y-91791784D01*
X175449272Y-91882984D01*
X175413308Y-91932484D01*
X175355117Y-91951391D01*
X175296926Y-91932484D01*
X175260962Y-91882984D01*
X175260962Y-91882983D01*
X175256211Y-91868362D01*
X175256211Y-91868361D01*
X175173996Y-91707006D01*
X175067553Y-91560499D01*
X174939501Y-91432447D01*
X174792994Y-91326004D01*
X174792993Y-91326003D01*
X174792991Y-91326002D01*
X174631637Y-91243788D01*
X174459406Y-91187828D01*
X174280549Y-91159500D01*
X174280546Y-91159500D01*
X174099454Y-91159500D01*
X174099451Y-91159500D01*
X173920593Y-91187828D01*
X173748362Y-91243788D01*
X173587008Y-91326002D01*
X173513752Y-91379225D01*
X173440499Y-91432447D01*
X173312447Y-91560499D01*
X173281975Y-91602440D01*
X173206002Y-91707008D01*
X173123788Y-91868362D01*
X173067828Y-92040593D01*
X173039500Y-92219450D01*
X153750241Y-92219450D01*
X153748996Y-92217006D01*
X153642553Y-92070499D01*
X153514501Y-91942447D01*
X153367994Y-91836004D01*
X153367993Y-91836003D01*
X153367991Y-91836002D01*
X153206637Y-91753788D01*
X153034406Y-91697828D01*
X152855549Y-91669500D01*
X152855546Y-91669500D01*
X152674454Y-91669500D01*
X152674451Y-91669500D01*
X152495593Y-91697828D01*
X152323362Y-91753788D01*
X152162008Y-91836002D01*
X152150897Y-91844075D01*
X152015499Y-91942447D01*
X151887447Y-92070499D01*
X151856975Y-92112440D01*
X151781002Y-92217008D01*
X151698788Y-92378362D01*
X151642828Y-92550593D01*
X151614500Y-92729450D01*
X151375500Y-92729450D01*
X151347171Y-92550593D01*
X151347171Y-92550591D01*
X151291211Y-92378361D01*
X151208996Y-92217006D01*
X151102553Y-92070499D01*
X150974501Y-91942447D01*
X150827994Y-91836004D01*
X150827993Y-91836003D01*
X150827991Y-91836002D01*
X150666637Y-91753788D01*
X150494406Y-91697828D01*
X150315549Y-91669500D01*
X150315546Y-91669500D01*
X150134454Y-91669500D01*
X150134451Y-91669500D01*
X149955593Y-91697828D01*
X149783362Y-91753788D01*
X149622008Y-91836002D01*
X149610897Y-91844075D01*
X149475499Y-91942447D01*
X149347447Y-92070499D01*
X149316975Y-92112440D01*
X149241002Y-92217008D01*
X149158788Y-92378362D01*
X149102828Y-92550593D01*
X149074500Y-92729450D01*
X148835500Y-92729450D01*
X148807171Y-92550593D01*
X148807171Y-92550591D01*
X148751211Y-92378361D01*
X148668996Y-92217006D01*
X148562553Y-92070499D01*
X148434501Y-91942447D01*
X148287994Y-91836004D01*
X148287993Y-91836003D01*
X148287991Y-91836002D01*
X148126637Y-91753788D01*
X147954406Y-91697828D01*
X147775549Y-91669500D01*
X147775546Y-91669500D01*
X147594454Y-91669500D01*
X147594451Y-91669500D01*
X147415593Y-91697828D01*
X147243362Y-91753788D01*
X147082008Y-91836002D01*
X147070897Y-91844075D01*
X146935499Y-91942447D01*
X146807447Y-92070499D01*
X146776975Y-92112440D01*
X146701002Y-92217008D01*
X146618787Y-92378364D01*
X146618786Y-92378366D01*
X146614035Y-92392988D01*
X146578069Y-92442486D01*
X146519878Y-92461391D01*
X146461688Y-92442481D01*
X146425727Y-92392983D01*
X146396096Y-92301786D01*
X146299623Y-92112446D01*
X146299619Y-92112440D01*
X146260270Y-92058282D01*
X146260269Y-92058282D01*
X145627962Y-92690589D01*
X145610925Y-92627007D01*
X145545099Y-92512993D01*
X145452007Y-92419901D01*
X145337993Y-92354075D01*
X145274407Y-92337037D01*
X145906716Y-91704729D01*
X145906716Y-91704728D01*
X145852559Y-91665380D01*
X145852553Y-91665376D01*
X145663215Y-91568904D01*
X145461121Y-91503240D01*
X145251250Y-91470000D01*
X145038750Y-91470000D01*
X144828878Y-91503240D01*
X144626784Y-91568904D01*
X144437446Y-91665376D01*
X144437442Y-91665378D01*
X144383282Y-91704728D01*
X145015591Y-92337037D01*
X144952007Y-92354075D01*
X144837993Y-92419901D01*
X144744901Y-92512993D01*
X144679075Y-92627007D01*
X144662037Y-92690591D01*
X144029728Y-92058282D01*
X143990378Y-92112442D01*
X143990376Y-92112446D01*
X143893904Y-92301784D01*
X143864272Y-92392984D01*
X143828308Y-92442484D01*
X143770117Y-92461391D01*
X143711926Y-92442484D01*
X143675962Y-92392984D01*
X143675962Y-92392983D01*
X143674824Y-92389483D01*
X143671211Y-92378361D01*
X143588996Y-92217006D01*
X143482553Y-92070499D01*
X143354501Y-91942447D01*
X143207994Y-91836004D01*
X143207990Y-91836001D01*
X143207988Y-91836000D01*
X143197527Y-91830670D01*
X143197526Y-91830670D01*
X143046637Y-91753788D01*
X142874406Y-91697828D01*
X142695549Y-91669500D01*
X142695546Y-91669500D01*
X142514454Y-91669500D01*
X142514451Y-91669500D01*
X142335593Y-91697828D01*
X142163362Y-91753788D01*
X142002008Y-91836002D01*
X141990897Y-91844075D01*
X141855499Y-91942447D01*
X141727447Y-92070499D01*
X141696975Y-92112440D01*
X141621002Y-92217008D01*
X141538788Y-92378362D01*
X141482828Y-92550593D01*
X141454500Y-92729450D01*
X141215499Y-92729450D01*
X141215499Y-91925136D01*
X141212585Y-91900009D01*
X141167206Y-91797235D01*
X141087765Y-91717794D01*
X140984991Y-91672415D01*
X140984990Y-91672414D01*
X140984988Y-91672414D01*
X140959868Y-91669500D01*
X139170139Y-91669500D01*
X139170136Y-91669501D01*
X139145009Y-91672414D01*
X139042235Y-91717794D01*
X138962794Y-91797235D01*
X138917414Y-91900011D01*
X138914500Y-91925130D01*
X135800499Y-91925130D01*
X135800499Y-91415136D01*
X135797585Y-91390009D01*
X135752206Y-91287235D01*
X135672765Y-91207794D01*
X135569991Y-91162415D01*
X135569990Y-91162414D01*
X135569988Y-91162414D01*
X135544868Y-91159500D01*
X133755139Y-91159500D01*
X133755136Y-91159501D01*
X133730009Y-91162414D01*
X133627235Y-91207794D01*
X133547794Y-91287235D01*
X133502414Y-91390011D01*
X133499500Y-91415130D01*
X129200500Y-91415130D01*
X129200500Y-88875130D01*
X173039500Y-88875130D01*
X173039500Y-90664860D01*
X173039501Y-90664863D01*
X173042414Y-90689990D01*
X173067756Y-90747385D01*
X173087794Y-90792765D01*
X173167235Y-90872206D01*
X173270009Y-90917585D01*
X173295135Y-90920500D01*
X175084864Y-90920499D01*
X175109991Y-90917585D01*
X175212765Y-90872206D01*
X175292206Y-90792765D01*
X175337585Y-90689991D01*
X175340500Y-90664865D01*
X175340499Y-88875136D01*
X175337585Y-88850009D01*
X175292206Y-88747235D01*
X175212765Y-88667794D01*
X175109991Y-88622415D01*
X175109990Y-88622414D01*
X175109988Y-88622414D01*
X175084868Y-88619500D01*
X173295139Y-88619500D01*
X173295136Y-88619501D01*
X173270009Y-88622414D01*
X173167235Y-88667794D01*
X173087794Y-88747235D01*
X173042414Y-88850011D01*
X173039500Y-88875130D01*
X129200500Y-88875130D01*
X129200500Y-84969500D01*
X129219407Y-84911309D01*
X129268907Y-84875345D01*
X129299500Y-84870500D01*
X180300500Y-84870500D01*
X180358691Y-84889407D01*
G37*
%TD.AperFunction*%
%TD*%
%TA.AperFunction,NonConductor*%
G36*
X173277329Y-99060407D02*
G01*
X173313293Y-99109907D01*
X173313293Y-99171093D01*
X173299233Y-99198685D01*
X173206004Y-99327006D01*
X173155732Y-99425669D01*
X173155621Y-99425885D01*
X173134082Y-99447209D01*
X173112582Y-99468710D01*
X173112297Y-99468778D01*
X173112141Y-99468933D01*
X173110791Y-99469139D01*
X173067637Y-99479500D01*
X163815691Y-99479500D01*
X163770508Y-99491606D01*
X163725325Y-99503713D01*
X163725324Y-99503712D01*
X163701112Y-99510201D01*
X163701109Y-99510202D01*
X163598390Y-99569507D01*
X163598385Y-99569511D01*
X162930077Y-100237817D01*
X162875561Y-100265594D01*
X162829482Y-100261968D01*
X162724406Y-100227828D01*
X162545549Y-100199500D01*
X162545546Y-100199500D01*
X162364454Y-100199500D01*
X162364451Y-100199500D01*
X162185593Y-100227828D01*
X162013362Y-100283788D01*
X161852006Y-100366003D01*
X161852002Y-100366005D01*
X161714446Y-100465946D01*
X161656256Y-100484853D01*
X161598065Y-100465945D01*
X161562101Y-100416445D01*
X161562102Y-100355260D01*
X161586249Y-100315852D01*
X162831607Y-99070496D01*
X162886124Y-99042719D01*
X162901611Y-99041500D01*
X173219138Y-99041500D01*
X173277329Y-99060407D01*
G37*
%TD.AperFunction*%
%TA.AperFunction,NonConductor*%
G36*
X168883691Y-100399407D02*
G01*
X168919655Y-100448907D01*
X168924500Y-100479500D01*
X168924500Y-100750500D01*
X168919655Y-100765411D01*
X168919655Y-100781093D01*
X168910438Y-100793778D01*
X168905593Y-100808691D01*
X168892907Y-100817907D01*
X168883691Y-100830593D01*
X168868778Y-100835438D01*
X168856093Y-100844655D01*
X168825500Y-100849500D01*
X168631887Y-100849500D01*
X168573696Y-100830593D01*
X168543677Y-100795445D01*
X168518997Y-100747008D01*
X168518996Y-100747006D01*
X168412553Y-100600499D01*
X168361555Y-100549501D01*
X168333780Y-100494987D01*
X168343351Y-100434555D01*
X168386616Y-100391290D01*
X168431561Y-100380500D01*
X168825500Y-100380500D01*
X168883691Y-100399407D01*
G37*
%TD.AperFunction*%
%TA.AperFunction,NonConductor*%
G36*
X166696630Y-100399407D02*
G01*
X166732594Y-100448907D01*
X166732594Y-100510093D01*
X166708444Y-100549501D01*
X166657447Y-100600499D01*
X166626970Y-100642447D01*
X166551002Y-100747008D01*
X166468787Y-100908364D01*
X166468786Y-100908366D01*
X166464035Y-100922988D01*
X166428069Y-100972486D01*
X166369878Y-100991391D01*
X166311688Y-100972481D01*
X166275727Y-100922983D01*
X166246096Y-100831786D01*
X166149624Y-100642447D01*
X166073514Y-100537691D01*
X166054607Y-100479500D01*
X166073514Y-100421309D01*
X166123015Y-100385345D01*
X166153607Y-100380500D01*
X166638439Y-100380500D01*
X166696630Y-100399407D01*
G37*
%TD.AperFunction*%
%TA.AperFunction,NonConductor*%
G36*
X163647595Y-101717536D02*
G01*
X163678306Y-101727514D01*
X163678308Y-101727515D01*
X163704832Y-101764023D01*
X163714271Y-101777013D01*
X163714272Y-101777015D01*
X163743904Y-101868215D01*
X163826620Y-102030555D01*
X163836191Y-102090987D01*
X163808413Y-102145504D01*
X163753897Y-102173281D01*
X163738410Y-102174500D01*
X163472361Y-102174500D01*
X163414170Y-102155593D01*
X163378206Y-102106093D01*
X163378206Y-102044907D01*
X163392266Y-102017312D01*
X163438996Y-101952994D01*
X163521211Y-101791639D01*
X163525962Y-101777013D01*
X163554710Y-101737446D01*
X163561924Y-101727517D01*
X163561924Y-101727516D01*
X163561926Y-101727515D01*
X163601208Y-101714751D01*
X163620115Y-101708608D01*
X163620117Y-101708608D01*
X163647595Y-101717536D01*
G37*
%TD.AperFunction*%
%TA.AperFunction,NonConductor*%
G36*
X161535799Y-100463046D02*
G01*
X161579064Y-100506311D01*
X161588635Y-100566743D01*
X161570948Y-100609443D01*
X161511174Y-100691716D01*
X161471002Y-100747008D01*
X161388788Y-100908362D01*
X161332828Y-101080593D01*
X161304500Y-101259450D01*
X161304500Y-101440549D01*
X161332828Y-101619406D01*
X161388788Y-101791637D01*
X161469223Y-101949500D01*
X161471004Y-101952994D01*
X161517732Y-102017310D01*
X161536639Y-102075500D01*
X161517732Y-102133691D01*
X161468232Y-102169655D01*
X161437639Y-102174500D01*
X160932361Y-102174500D01*
X160874170Y-102155593D01*
X160838206Y-102106093D01*
X160838206Y-102044907D01*
X160852266Y-102017312D01*
X160898996Y-101952994D01*
X160981211Y-101791639D01*
X161037171Y-101619409D01*
X161065500Y-101440546D01*
X161065500Y-101259454D01*
X161065500Y-101259450D01*
X161037172Y-101080595D01*
X161037141Y-101080500D01*
X161003030Y-100975513D01*
X161003030Y-100914331D01*
X161027182Y-100874920D01*
X161420851Y-100481252D01*
X161475367Y-100453475D01*
X161535799Y-100463046D01*
G37*
%TD.AperFunction*%
M02*
