M48
; DRILL file {KiCad 9.0.5} date 2025-11-06T16:03:34+0900
; FORMAT={-:-/ absolute / metric / decimal}
; #@! TF.CreationDate,2025-11-06T16:03:34+09:00
; #@! TF.GenerationSoftware,Kicad,Pcbnew,9.0.5
; #@! TF.FileFunction,MixedPlating,1,2
FMAT,2
METRIC
; #@! TA.AperFunction,Plated,PTH,ViaDrill
T1C0.300
; #@! TA.AperFunction,Plated,PTH,ComponentDrill
T2C1.000
%
G90
G05
T1
X135.325Y-96.1
X135.65Y-98.55
X135.975Y-96.625
X136.025Y-92.425
X136.1Y-94.55
X136.175Y-105.475
X136.2Y-99.93
X136.2Y-102.8
X136.375Y-89.6
X136.725Y-91.3
X136.975Y-95.325
X137.0Y-93.65
X137.55Y-100.85
X137.65Y-98.225
X137.725Y-104.15
X137.775Y-96.55
X137.875Y-94.525
X137.9Y-92.1
X138.575Y-85.8
X138.725Y-93.675
X138.825Y-95.425
X138.875Y-105.4
X138.925Y-91.25
X139.3Y-99.35
X139.3Y-102.5
X139.725Y-94.55
X139.825Y-96.65
X140.45Y-95.425
X140.6Y-89.575
X140.625Y-105.675
X141.0Y-100.975
X141.075Y-98.15
X141.395Y-96.57
X141.45Y-91.725
X141.475Y-93.7
X141.55Y-94.5
X141.65Y-103.225
X142.47Y-95.495
X142.525Y-99.375
X142.525Y-102.475
X142.725Y-85.925
X142.725Y-105.675
X143.42Y-94.545
X143.6Y-96.575
X143.75Y-91.75
X143.9Y-98.225
X143.925Y-101.0
X143.925Y-103.325
X144.375Y-95.55
X144.925Y-91.15
X145.145Y-96.625
X145.145Y-102.425
X145.525Y-89.65
X145.525Y-94.425
X145.55Y-99.35
X145.675Y-106.375
X145.95Y-96.0
X146.525Y-95.4
X146.55Y-93.7
X146.675Y-103.4
X146.95Y-101.15
X146.975Y-98.1
X147.575Y-96.425
X147.65Y-94.6
X147.675Y-91.4
X147.925Y-86.075
X148.275Y-102.8
X148.325Y-99.5
X148.575Y-97.5
X148.675Y-95.175
X148.925Y-93.55
X149.35Y-106.375
X149.875Y-98.85
X149.925Y-101.175
X150.175Y-91.375
X150.45Y-102.8
X150.5Y-95.65
X150.6Y-89.05
X151.5Y-93.5
X151.8Y-90.475
X152.125Y-98.675
X152.2Y-101.275
X152.475Y-96.25
X153.4Y-106.35
X153.725Y-99.725
X153.9Y-93.85
X153.925Y-90.975
X153.975Y-101.925
X154.225Y-86.35
X154.25Y-92.375
X154.25Y-96.525
X154.25Y-103.5
X154.25Y-104.775
X155.275Y-98.175
X155.775Y-100.15
X155.95Y-101.85
X156.25Y-90.5
X156.5Y-103.5
X156.6Y-96.925
X156.8Y-94.075
X157.075Y-106.45
X157.3Y-89.05
X157.5Y-98.425
X157.55Y-95.55
X157.925Y-104.875
X158.475Y-90.975
X158.675Y-100.575
X158.7Y-92.325
X158.975Y-96.85
X159.4Y-103.5
X159.75Y-98.55
X160.35Y-99.975
X160.625Y-106.425
X160.9Y-90.45
X160.925Y-86.25
X161.075Y-104.7
X161.175Y-94.1
X161.175Y-95.475
X162.325Y-99.95
X162.4Y-97.85
X162.65Y-103.55
X162.925Y-90.95
X163.475Y-92.325
X163.85Y-106.45
X164.175Y-104.825
X164.375Y-89.075
X164.475Y-99.225
X165.3Y-86.225
X165.4Y-90.425
X165.475Y-96.775
X165.5Y-95.475
X165.55Y-94.15
X165.8Y-103.55
X167.11Y-99.235
X167.225Y-102.725
X167.425Y-104.85
X167.475Y-106.425
X167.7Y-92.375
X167.85Y-91.0
X168.625Y-102.25
X168.96Y-97.385
X169.525Y-99.225
X169.575Y-86.2
X169.625Y-94.15
X169.625Y-95.475
X169.85Y-105.575
X170.075Y-90.475
X170.1Y-103.125
X170.9Y-104.7
X170.925Y-96.85
X171.425Y-92.325
X171.7Y-99.25
X171.725Y-106.4
X171.775Y-103.75
X172.575Y-105.5
X172.65Y-97.975
X172.75Y-89.025
X172.775Y-90.625
X172.85Y-103.225
X172.975Y-95.5
X173.2Y-101.175
X173.225Y-107.1
X173.325Y-93.561
X173.525Y-104.65
X174.325Y-103.875
X174.8Y-86.3
X174.825Y-105.525
X175.425Y-91.175
X175.45Y-101.25
X175.482Y-93.557
X175.675Y-88.75
X176.425Y-103.875
X177.0Y-107.05
X177.55Y-96.125
X177.75Y-93.75
X177.775Y-90.95
X177.775Y-98.7
X177.825Y-101.25
X177.9Y-88.7
X179.675Y-86.475
X179.675Y-103.725
X179.7Y-99.425
X179.725Y-91.1
X179.75Y-95.35
X180.1Y-107.1
T2
X134.65Y-92.31
X134.65Y-94.85
X134.65Y-97.39
X134.65Y-99.93
X140.065Y-92.82
X140.23Y-104.23
X142.605Y-92.82
X142.77Y-104.23
X145.145Y-92.82
X145.31Y-104.23
X147.685Y-92.82
X147.85Y-104.23
X150.225Y-92.82
X150.39Y-104.23
X152.765Y-92.82
X152.93Y-104.23
X157.375Y-101.35
X159.915Y-101.35
X162.455Y-101.35
X164.995Y-101.35
X167.535Y-101.35
X170.075Y-101.35
X174.19Y-89.77
X174.19Y-92.31
X174.19Y-94.85
X174.19Y-97.39
X174.19Y-99.93
X174.19Y-102.47
X176.73Y-89.77
X176.73Y-92.31
X176.73Y-94.85
X176.73Y-97.39
X176.73Y-99.93
X176.73Y-102.47
M30
